<?xml version="1.0" encoding="UTF-8"?><svg id="Calque_2" xmlns="http://www.w3.org/2000/svg" viewBox="0 0 82.16 82.32"><defs><style>.cls-1{fill:#fff;}.cls-2{fill:#bcbcbc;}</style></defs><g id="Calque_1-2"><path class="cls-2" d="M79.87,62.99l-36.7,18.86c-1.2,.62-2.62,.62-3.82,.02L2.49,63.34c-1.42-.71-2.32-2.16-2.32-3.75L0,23.09c0-1.59,.88-3.04,2.29-3.77L38.99,.47c1.2-.62,2.62-.62,3.82-.02l36.87,18.53c1.42,.71,2.32,2.16,2.32,3.75l.16,36.5c0,1.59-.88,3.04-2.29,3.77Z"/><path class="cls-1" d="M68.26,25.56l-25.95,13.43c-.63,.33-1.38,.33-2.02,.01L13.97,25.84c-1.63-.82-1.64-3.14-.01-3.97l26.19-13.33c.63-.32,1.37-.32,2,0l26.09,13.06c1.62,.81,1.64,3.13,.03,3.96Z"/></g></svg>