<?xml version="1.0" encoding="utf-8"?>
<!-- Generator: Adobe Illustrator 26.5.0, SVG Export Plug-In . SVG Version: 6.00 Build 0)  -->
<svg version="1.1" id="Calque_2_00000159468911936119068910000017436704051584086453_"
	 xmlns="http://www.w3.org/2000/svg" xmlns:xlink="http://www.w3.org/1999/xlink" x="0px" y="0px" viewBox="0 0 222.5 82.3"
	 style="enable-background:new 0 0 222.5 82.3;" xml:space="preserve">
<style type="text/css">
	.st0{fill:#BCBCBC;}
	.st1{fill:#FFFFFF;}
</style>
<g id="Calque_1-2">
	<path class="st0" d="M79.9,63L43.2,81.9c-1.2,0.6-2.6,0.6-3.8,0L2.5,63.3c-1.4-0.7-2.3-2.2-2.3-3.8L0,23.1c0-1.6,0.9-3,2.3-3.8
		L39,0.5c1.2-0.6,2.6-0.6,3.8,0L79.7,19c1.4,0.7,2.3,2.2,2.3,3.8l0.2,36.5C82.2,60.8,81.3,62.3,79.9,63L79.9,63z"/>
	<path class="st1" d="M68.3,25.6L42.3,39c-0.6,0.3-1.4,0.3-2,0L14,25.8c-1.6-0.8-1.6-3.1,0-4L40.2,8.5c0.6-0.3,1.4-0.3,2,0
		l26.1,13.1C69.9,22.4,69.9,24.7,68.3,25.6L68.3,25.6z"/>
	<g>
		<path class="st0" d="M111.3,22.6h6.6v30.5h14.8v5.5h-21.4V22.6z"/>
		<path class="st0" d="M161.6,45.4c0,9.6-6.7,13.8-13.4,13.8c-7.3,0-13-5.1-13-13.4c0-8.5,5.6-13.8,13.5-13.8
			C156.4,32,161.6,37.5,161.6,45.4z M142,45.6c0,5,2.5,8.8,6.5,8.8c3.8,0,6.4-3.6,6.4-8.9c0-4.1-1.8-8.8-6.3-8.8
			C143.8,36.8,142,41.3,142,45.6z"/>
		<path class="st0" d="M190.8,32.6c-0.1,1.7-0.2,3.9-0.2,7.5v14.7c0,5.5-1.1,9.3-3.8,11.8c-2.7,2.4-6.5,3.2-10.1,3.2
			c-3.3,0-6.8-0.7-9-2.1l1.4-5c1.7,1,4.5,2,7.6,2c4.3,0,7.5-2.3,7.5-7.9v-2.2H184c-1.5,2.3-4.1,3.8-7.6,3.8c-6.4,0-11-5.3-11-12.7
			c0-8.6,5.5-13.7,11.8-13.7c4,0,6.3,1.9,7.6,4h0.1l0.2-3.5H190.8z M184,43c0-0.6-0.1-1.2-0.2-1.8c-0.7-2.4-2.6-4.2-5.4-4.2
			c-3.6,0-6.4,3.2-6.4,8.5c0,4.4,2.2,8,6.4,8c2.5,0,4.6-1.6,5.3-4c0.2-0.7,0.3-1.6,0.3-2.3V43z"/>
		<path class="st0" d="M222.4,45.4c0,9.6-6.7,13.8-13.4,13.8c-7.3,0-13-5.1-13-13.4c0-8.5,5.6-13.8,13.5-13.8
			C217.2,32,222.4,37.5,222.4,45.4z M202.8,45.6c0,5,2.5,8.8,6.5,8.8c3.8,0,6.4-3.6,6.4-8.9c0-4.1-1.8-8.8-6.3-8.8
			C204.7,36.8,202.8,41.3,202.8,45.6z"/>
	</g>
</g>
</svg>
