<?xml version="1.0" encoding="utf-8"?>
<!-- Generator: Adobe Illustrator 25.0.0, SVG Export Plug-In . SVG Version: 6.00 Build 0)  -->
<svg version="1.1" id="Calque_1" xmlns="http://www.w3.org/2000/svg" xmlns:xlink="http://www.w3.org/1999/xlink" x="0px" y="0px"
	 viewBox="0 0 500 500" style="enable-background:new 0 0 500 500;" xml:space="preserve">
<style type="text/css">
	.st0{fill:#4E4E4E;}
	.st1{fill:#939393;}
	.st2{fill:#ABABAB;}
	.st3{fill:#4F4F4F;}
	.st4{fill:#505050;}
	.st5{fill:#545454;}
	.st6{fill:#5A5A5A;}
	.st7{fill:#535353;}
	.st8{fill:#585858;}
	.st9{fill:#B8B8B8;}
	.st10{fill:#808080;}
	.st11{fill:#FFFFFF;}
</style>
<g>
	<path class="st0" d="M364.4,172.2c-10.4,55.5-34.8,102.4-82.4,135.1c-10,6.9-20.8,12.5-32.3,16.6c-1.9,0.7-3.6,1.3-5.7,0.1
		c-30-16.8-48.9-41-50.5-76.6c-0.1-1.2,0-2.3,0-3.5c0.2-5.9,0.3-6,6-4.9c19.4,3.9,39,6.4,58.8,6.4c14.3,0,28.5-1.4,42.4-4.9
		c1.3-0.3,2.5-0.9,3.9-0.2c-0.1,2-1.9,2.1-3.1,2.7c-26,13.6-53.8,19.9-83.1,19.3c-6.4-0.1-6.6,0-3.8,5.8c4.6,9.7,2.1,8.4,14.8,7.2
		c34-3.1,64.6-14.8,90.7-37.2c5-4.3,9-9.7,14.3-15.5c1.2,4.1-0.6,5.4-1.5,6.8c-19.8,29.2-47.1,48.4-80.3,59.4
		c-6,2-12.1,3.5-18.3,4.9c-2.9,0.7-2.9,1.6-1.1,3.5c1.6,1.7,3.4,3.2,4.9,5c2.2,2.6,4.6,2.9,7.9,1.9c35.4-10.6,62.8-31.9,83.9-61.8
		c15.7-22.3,26.2-47,33.4-73.2C365.8,169.4,364.6,171,364.4,172.2z"/>
	<path class="st1" d="M162.8,118.2c31.5-13.3,64.2-20.8,98.6-19.1c33,1.6,63.3,11.2,90.6,30.1c4.4,3,6.4,6.3,6.5,11.8
		c0.8,30.8-8.6,57-33.3,76.6c-11.3,8.9-11.3,8.9-16.6-4c-11.7-28.2-26.2-54.6-47.7-76.7c-2.3-2.4-4.5-4.8-7-7.4
		c2.7,0.1,4.7,1.7,6.9,3c24.3,14.5,44,33.7,58.9,57.8c4.1,6.6,3.8,6.4,8.6,0.1c3.5-4.7,3-8.1-0.5-12.7
		c-26.8-34.6-60.6-57.5-104.6-63.7c-0.4-0.1-0.8-0.4-1.9-1.1c8.3-1.4,15.9-0.3,23.3,0.6c36.3,4.6,67,20.8,92.8,46.5
		c3.3,3.3,3.9,1.8,4.9-1.5c2-6.4,1.5-11.2-4.5-15.9c-23.9-18.9-50.8-30.1-80.9-33.5c-31.4-3.6-62,1-92,10
		C163.6,119.7,162.7,119.9,162.8,118.2z"/>
	<path class="st2" d="M185.8,232.6c-2.1-7.4-0.7-14.6,0-21.7c2.5-24.2,10.4-46.7,22.5-67.7c2.3-3.9,1.1-4.8-2.8-5.1
		c-10-0.7-10-0.8-14.1,8.5c-9.2,20.8-14.2,42.6-14.6,65.4c-0.3,15.5,1.9,30.9,6.5,45.8c0.4,1.4,0.7,2.9,1,4.3c0,0.2-0.3,0.5-0.7,1.1
		c-3.3-4.2-5.2-9-7.1-13.6c-13.8-33.8-14.3-68.3-5-103.3c0.5-1.8,2.3-3.9,0.5-5.5c-1.4-1.2-3.5,0.3-5.2,0.6c-6.1,1-8.6,4.4-9.8,10.6
		c-7.4,40.3,1.1,77.4,21.3,112.3c10,17.2,22.2,32.8,36.3,46.8c1.5,1.5,3.4,2.7,4.1,4.9c-1.4,1.2-2.2-0.1-2.9-0.7
		c-42.4-34.8-71-77.7-77.8-133.2c-1.6-13-1.5-26.3,0.5-39.4c0.3-2.2,1-4.2,3-5.5c27.9-18.6,62.7-23.7,93.9-6c5.2,3,5.2,3.3,1.2,8
		c-20.6,24.6-38,51-47.7,81.9C187.9,224.8,186.9,228.7,185.8,232.6z"/>
	<path class="st3" d="M407.7,397.4c-6.3,1.6-10.3,1-13.2-3.1c-3.6-5.1-8.6-6.8-14.7-6c-2.3,0.3-4.7,0.3-4.7-3.3
		c0.1-3.5,2.4-2.9,4.5-2.9c4.5-0.1,9,0.1,13.4-0.1c4.1-0.2,7.2-2.1,7.1-6.7c-0.1-4.6-3.2-6.2-7.4-6.2c-5.6,0-11.3,0.1-16.9-0.1
		c-3.3-0.1-4.4,1.1-4.4,4.3c0.1,6.8,0,13.6,0,20.5c0,2.1,0.3,4.5-3,4.5c-3.4,0.1-3.2-2.1-3.2-4.3c0-9,0.1-18-0.1-26.9
		c-0.1-3.2,1-4.4,4.3-4.4c8,0.2,15.9-0.1,23.9,0.2c7.1,0.2,11.5,3.7,13.1,9.5c1.6,5.8-0.2,10-6.4,14.1c-2.5,1.7-1.7,2.7-0.2,4.1
		C402.2,392.5,404.6,394.6,407.7,397.4z"/>
	<path class="st3" d="M233,362.7c4.2,0,8.3,0,12.5,0c2.3,0,3.3,0.9,3.3,3.2c0,2.5-1.3,3.1-3.4,3.1c-7.3,0-14.6,0-21.9,0
		c-2.6,0-5.6,0.1-5.6,3.4c0,3.3,2.9,3.5,5.5,3.6c5.1,0,10.3-0.1,15.4,0.1c7.3,0.2,12.2,4.8,12.2,11.1c0.1,6.5-4.6,10.9-12.2,11
		c-7.8,0.2-15.6,0-23.4,0c-2.1,0-4-0.1-4-3.1c0-2.9,1.8-3.1,4-3.1c5.8,0,11.6,0,17.4,0c1.8,0,3.7,0,5.5,0c3.4-0.2,6.9-0.9,6.8-4.9
		c0-3.7-3.4-4.5-6.6-4.6c-4.5-0.1-9-0.1-13.5-0.1c-2,0-4,0-6-0.4c-5.3-0.9-8.8-5-8.5-10c0.2-4.8,3.8-8.5,8.9-9.2
		c0.5-0.1,1-0.1,1.5-0.1C225,362.7,229,362.7,233,362.7z"/>
	<path class="st3" d="M332.8,362.7c1.8,0,3.7,0,5.5,0c10.5,0.3,17.2,7.1,17.2,17.3c0,10.5-6.7,17.8-17,18.2c-4.5,0.2-9,0.2-13.4-0.1
		c-9.1-0.7-15.7-8.5-15.6-18.1c0.1-9.5,6.5-16.5,15.9-17.2C327.9,362.6,330.4,362.7,332.8,362.7
		C332.8,362.7,332.8,362.7,332.8,362.7z"/>
	<path class="st3" d="M260.5,380.3c0-4.5,0.1-9,0-13.5c-0.1-2.9,0.7-4.3,3.9-4.2c7.8,0.1,15.6-0.1,23.4,0.1
		c7.7,0.2,12.7,5.3,12.8,12.4c0.1,7.5-4.7,12.7-12.6,13.1c-4.5,0.3-9,0-13.4,0.1c-2.2,0-3.9-0.3-3.9-3.2c0-2.9,1.6-3.2,3.8-3.2
		c4.3,0.1,8.6,0.1,12.9,0c4.6-0.2,7.2-2.6,7.2-6.5c0-3.9-2.5-6.3-7.2-6.4c-5.3-0.1-10.6,0.1-15.9-0.1c-3.4-0.1-4.3,1.3-4.2,4.4
		c0.1,7,0,14,0,20.9c0,2.6-0.7,4-3.7,4c-3-0.1-3-1.9-3-4C260.6,389.6,260.5,385,260.5,380.3z"/>
	<path class="st3" d="M192.7,385.6c0-6.1,0-12.3,0-18.4c0-2.1-0.4-4.4,3-4.5c3.3,0,3.2,2.1,3.2,4.3c0,9,0,18,0,26.9
		c0,1.6,0.4,3.6-1.6,4.3c-2,0.8-3.5-0.6-4.8-1.9c-6.2-6.2-12.5-12.4-18.6-18.8c-0.9-0.9-1.4-2.3-2.3-4c-2.4,3.3-1.7,5.5-1.7,7.5
		c-0.1,4.7-0.1,9.3-0.1,14c0,2-0.8,3.1-2.9,3.1c-2,0-3.2-0.6-3.1-2.8c0-9.8,0-19.6,0-29.4c0-1.4,0.4-2.7,2-3.1
		c1.8-0.4,3.2,0.5,4.4,1.7c5.2,5.2,10.4,10.3,15.5,15.5c2,2,3.8,4.1,5.6,6.2C191.7,386.1,192.2,385.8,192.7,385.6z"/>
	<path class="st4" d="M54.3,380.4c0-4.7,0.1-9.3,0-14c-0.1-2.8,1-3.9,3.8-3.8c7.6,0.1,15.3,0,22.9,0c2.2,0,3.9,0.2,4,3.1
		c0,2.9-1.6,3.2-3.8,3.2c-5.5,0-11,0.1-16.5,0c-2.9-0.1-4.3,0.9-4.2,4c0.2,5,0.2,10,0,15c-0.1,3.4,1.5,4.3,4.5,4.2
		c5.3-0.1,10.6,0,16,0c2.1,0,4,0.2,4,3.1c0,3-1.9,3.1-4,3.1c-7.6,0-15.3-0.1-22.9,0c-2.8,0-3.8-1.2-3.8-3.9
		C54.4,389.7,54.3,385.1,54.3,380.4z"/>
	<path class="st4" d="M434,362.7c4.7,0,9.3,0,14,0c2.2,0,3.3,0.8,3.3,3.2c0,2.5-1.2,3-3.4,3.2c-3.4,0.2-7.8-1.6-10,1
		c-2.4,2.8-0.7,7.4-0.8,11.2c-0.2,3.7,0.2,7.3-0.1,11c-0.2,2.3,1.6,5.9-2.9,6c-4.6,0.2-3.1-3.5-3.2-5.8c-0.2-6.2-0.3-12.3,0-18.5
		c0.2-4-1.4-5.4-5.2-5c-1.8,0.2-3.7,0-5.5,0c-2.4,0.1-3.8-0.6-3.7-3.3c0.1-2.5,1.4-3,3.5-3C424.7,362.7,429.3,362.6,434,362.7z"/>
	<path class="st4" d="M132.4,363.3c-6.1,5.2-11.5,10-17.1,14.6c-2.6,2.1-2.7,3.5,0.1,5.6c5.6,4.3,10.9,9,17,14
		c-4.9,1-8.5,1.1-11.8-2.1c-4.1-3.9-8.5-7.4-12.9-10.9c-3.4-2.7-3.8-5-0.1-7.9c4.2-3.3,8.3-6.7,12.1-10.4
		C123,363,126.7,361.8,132.4,363.3z"/>
	<path class="st5" d="M97.1,379.9c0-4.3,0-8.6,0-13c0-2.3,0-4.3,3.2-4.4c3.1,0,3.4,1.7,3.4,4.1c-0.1,9.1-0.1,18.3,0,27.4
		c0,2.5-0.3,4.2-3.4,4.1c-3.3-0.1-3.2-2.2-3.2-4.4C97.1,389.2,97.1,384.6,97.1,379.9z"/>
	<path class="st6" d="M73.1,383.5c-2.3,0-4.6,0-7,0c-2.3,0.1-3.3-0.8-3.3-3.2c0-2.3,0.8-3.4,3.2-3.3c4.8,0.1,9.6,0.1,14.4,0
		c2.1,0,3,0.8,3.1,2.9c0,2.1-0.5,3.6-3,3.6C78,383.5,75.5,383.5,73.1,383.5z"/>
	<path class="st7" d="M149.6,372.4c0,8.4,0,15.9,0,23.5c0,2-1.5,2.3-3.1,2.3c-1.7,0-2.9-0.6-2.9-2.5c0-5.5-0.3-11,0.2-16.4
		C144,376.4,146.5,374.7,149.6,372.4z"/>
	<path class="st8" d="M144.1,370.8c0-2.9-2.3-6.2,1.3-8c1.1-0.6,3.5-0.8,3.9,1C150.1,367.7,146.6,368.9,144.1,370.8z"/>
	<path class="st9" d="M162.8,118.2c0.6,0.3,1.3,0.6,1.9,1c-3.5,1.9-7.2,2.9-11.4,2.9C156.5,120.8,159.7,119.5,162.8,118.2z"/>
	<path class="st10" d="M364.4,172.2c-0.4-1-0.7-2.1-1.1-3.1c0.6-2.9,1.2-5.7,1.8-8.6c0.4,0.1,0.9,0.1,1.3,0.2
		C365.8,164.5,365.7,168.4,364.4,172.2z"/>
	<path class="st11" d="M332.6,392c-2,0-4,0.1-6,0c-6.6-0.6-10.8-5.2-10.8-11.5c0.1-6.4,4.8-11.2,11.3-11.4c3.7-0.1,7.3-0.1,11,0
		c6.5,0.2,10.9,4.7,11.2,11c0.3,6.4-3.8,11.2-10.3,11.8C336.9,392.1,334.7,391.9,332.6,392C332.6,391.9,332.6,391.9,332.6,392z"/>
</g>
</svg>
