<?xml version="1.0" encoding="utf-8"?>
<!-- Generator: Adobe Illustrator 25.0.0, SVG Export Plug-In . SVG Version: 6.00 Build 0)  -->
<svg version="1.1" id="Calque_1" xmlns="http://www.w3.org/2000/svg" xmlns:xlink="http://www.w3.org/1999/xlink" x="0px" y="0px"
	 viewBox="0 0 500 500" style="enable-background:new 0 0 500 500;" xml:space="preserve">
<style type="text/css">
	.st0{fill:#104277;}
	.st1{fill:#134074;}
	.st2{fill:#3E8ACA;}
	.st3{fill:#1D6FB7;}
</style>
<g>
	<path class="st0" d="M193.5,238.4c38.1,7.5,75,11.6,112,1.4c-28.8,16.7-60.1,23.3-94.4,21.9c2.3,5.1,3.9,9.4,6.2,13.3
		c0.6,1,3.3,1.3,4.9,1.2c42.2-2.7,79.2-17.4,108.8-48.5c0.9-1,1.8-1.9,3-3.2c-4,11.7-25.9,34.6-43.8,45.9
		c-18.3,11.6-38,19.6-59.3,23.7c2.8,8.2,9.7,12,17.4,9.6c39.1-12.5,67.8-37.8,88.8-72.5c11.6-19,19.8-39.5,25.8-60.9
		c0.4-1.3,0.8-2.5,1.4-3.7c-3,20.9-8.6,41.1-17.2,60.4c-17,38.1-42.7,68.4-79.7,88.5c-4.7,2.5-9.7,4.3-14.4,6.8
		c-5.1,2.6-9.3,2-14.2-1.1c-26.1-16.4-42.7-38.6-45.3-70.1C193.2,247,193.5,243.1,193.5,238.4z"/>
	<path class="st1" d="M370.7,397.6c-2,0-3.4,0-5.2,0c0-11.3,0-22.6,0-34c10.3,0,20.5-0.4,30.7,0.2c5.7,0.3,9.1,4.5,10,10.2
		c0.8,4.8-1.7,9.2-6.8,12.2c-0.7,0.4-1.4,0.8-2.7,1.5c3,3.2,5.8,6.2,8.5,9.1c-0.1,0.4-0.2,0.9-0.4,1.3c-2.7-0.5-6.4-0.2-7.8-1.8
		c-5.7-6.7-12.3-10.4-21.7-8.1c-0.1-2.3-0.2-3.9-0.4-6.1c5,0,9.6,0,14.2,0c2,0,4.1,0.1,5.9-0.4c3.4-0.9,5.9-3.5,4.9-6.9
		c-0.7-2.4-3.5-5.5-5.6-5.7c-6.9-0.8-13.9-0.5-20.9-0.2c-1,0-2.6,2.3-2.7,3.6c-0.3,6.5-0.1,13-0.1,19.5
		C370.7,393.8,370.7,395.6,370.7,397.6z"/>
	<path class="st1" d="M211.8,397.9c-1.3-3.8-0.2-5.3,3.2-5.3c6.5,0.1,13,0,19.4,0c2,0,4.3,0.3,5.9-0.6c1.9-1.1,4.1-3.2,4.4-5.1
		c0.2-1.3-2.6-4-4.4-4.3c-4.4-0.8-8.9-0.5-13.4-0.6c-2.5-0.1-5,0.1-7.5-0.2c-5.4-0.5-9.1-4.4-9.1-9.4c0-5,3.8-9.1,9.2-9.2
		c9.1-0.3,18.2-0.1,27.8-0.1c0.1,1.8,0.2,3.3,0.4,5.6c-7.6,0-14.9,0-22.1,0c-1.7,0-3.5-0.4-4.9,0.2c-1.6,0.7-2.7,2.3-4.1,3.5
		c1.3,1.3,2.4,3.5,3.9,3.7c4.4,0.5,8.9,0.2,13.4,0.3c2.5,0.1,5,0,7.4,0.5c5.6,1.1,8.9,5.6,8.5,11.2c-0.4,5.3-4.2,9.5-9.6,9.6
		C230.9,398.1,221.5,397.9,211.8,397.9z"/>
	<path class="st1" d="M332.1,363.1c1.7,0,3.3,0,5,0c10.8,0.1,17.5,6.5,17.6,16.7c0.1,10.8-6.7,18-17.4,18.2c-4,0.1-8,0.1-11.9-0.1
		c-9.1-0.4-16-8.1-16.1-17.6c0-9.4,6.5-16.6,15.9-17.1C327.5,363,329.8,363.1,332.1,363.1C332.1,363.1,332.1,363.1,332.1,363.1z
		 M332,368.8c-1.8,0-3.7-0.1-5.5,0c-6.6,0.3-11.3,4.9-11.6,11.3c-0.3,6.1,3.8,11.5,10.1,12.1c4.8,0.5,9.6,0.5,14.4,0
		c6.4-0.7,10-5.7,9.7-12.3c-0.3-6.4-4.7-10.8-11.1-11.1C336,368.7,334,368.8,332,368.8z"/>
	<path class="st1" d="M192.2,363.3c2.4,0,3.8,0,5.8,0c0,10.9,0,21.5-0.1,32.1c0,0.8-0.9,2.4-1.2,2.4c-1.5-0.3-3.3-0.6-4.4-1.5
		c-4.5-4.2-8.8-8.6-13-13.1c-2.9-3.1-5.6-6.4-8.5-9.6c-0.6,0.3-1.2,0.7-1.7,1c0,7.5,0,15,0,22.9c-2.2,0-3.7,0-5.7,0
		c0-10.6,0-21,0.1-31.5c0-0.9,1.1-2.7,1.6-2.6c1.5,0.2,3.3,0.7,4.4,1.7c6.2,6,12.3,12.2,18.4,18.2c1.1,1.1,2.3,2.2,4.4,4.1
		C192.2,378.8,192.2,371.3,192.2,363.3z"/>
	<path class="st1" d="M270.8,387.9c0-2.1,0-3.5,0-5.7c5.3,0,10.4,0.1,15.5,0c5.2-0.1,8.2-2.5,8.3-6.6c0.1-4.3-2.9-6.9-8.4-6.9
		c-5.1-0.1-10.3,0.2-15.4-0.1c-3.6-0.2-4.6,1.3-4.5,4.7c0.2,8,0,15.9,0,24.3c-2.1,0.1-3.6,0.2-5.6,0.3c0-11.6,0-22.8,0-34.4
		c10,0,19.9-0.6,29.7,0.2c6.5,0.6,9.8,6.3,9.4,13.1c-0.4,5.8-5,10.5-11.5,11C282.6,388.2,277,387.9,270.8,387.9z"/>
	<path class="st1" d="M83.6,397.7c-9.8,0-19.2,0-29,0c0-11.5,0-22.7,0-34.3c9.8,0,19.4,0,29.2,0c0,1.7,0,3.1,0,5.4
		c-6.5,0-12.9,0.2-19.3-0.1c-4.1-0.2-5.2,1.4-5,5.2c0.2,5,0.2,10,0,15c-0.1,2.8,1.1,3.8,3.9,3.8c5.7-0.1,11.3-0.1,17,0
		C84,392.8,84,392.9,83.6,397.7z"/>
	<path class="st1" d="M436.2,397.7c-2,0-3.5,0-5.5,0c0-7,0-13.8,0-20.5c-0.1-9.6,0.9-8.3-8.1-8.4c-1.8,0-3.6,0-5.7,0
		c-0.1-2-0.2-3.4-0.3-5.3c11.3,0,22.4,0,33.6,0c0,1.6,0,3.1,0,5.3c-3.3,0-6.6,0.2-9.8,0c-3.3-0.2-4.3,1.1-4.3,4.3
		C436.3,381.2,436.2,389.3,436.2,397.7z"/>
	<path class="st1" d="M130.5,364.1c-6.2,5.4-12.5,10.8-19.2,16.7c6.6,5.6,12.9,10.8,19.6,16.5c-4.6,1.4-7.8,0.6-10.9-2.3
		c-4.3-4-8.8-7.6-13.3-11.3c-2.5-2.1-2.6-3.9,0-6c5-4.2,9.6-8.7,14.9-12.5c2.3-1.7,5.6-1.9,8.4-2.8C130,363,130.2,363.5,130.5,364.1
		z"/>
	<path class="st1" d="M97.4,363.4c1.9,0,3.4,0,5.2,0c0,11.5,0,22.7,0,34.3c-1.8,0-3.4,0-5.2,0C97.4,386.1,97.4,374.9,97.4,363.4z"/>
	<path class="st1" d="M142.8,397.9c2.2-8.5-3.2-17.3,5.4-24.5c0,8.5,0,16.2,0,24.3C146.8,397.8,145.4,397.8,142.8,397.9z"/>
	<path class="st1" d="M62.8,383c0-2,0-3.5,0-5.6c5.7,0,11.3-0.1,16.9,0.1c0.9,0,2.4,1.7,2.4,2.6c0,0.9-1.5,2.7-2.4,2.7
		C74.2,383.1,68.6,383,62.8,383z"/>
	<path class="st1" d="M150.1,363.5c-2.4,3-4,5-6.5,8.1c0-3.6,0-5.6,0-8.1C145.2,363.5,146.8,363.5,150.1,363.5z"/>
</g>
<g>
	<path d="M173.2,138.6c-7.5,22.4-10.5,43.9-8,65.5c3.3,28.6,12,53.9,19.2,60.8c-0.3-1-0.6-1.6-0.8-2.2
		c-14.3-42.1-9.4-82.8,9.2-122.4c0.6-1.3,2.1-3.2,3.2-3.2c4.5,0,9.1,0.7,14.5,1.2c-18.1,29.8-26.7,61-26.4,94.7
		c9.1-38,30.4-69.2,55.1-98.8c-1.3-0.9-2.3-1.6-3.2-2.2c-1.6-0.9-3.1-1.9-4.8-2.7c-31.7-15.2-61.6-10.4-90.3,8
		c-1.5,1-2.6,3.4-2.8,5.4c-2.9,22.2-1.5,44.1,4.5,65.7c11,39.9,33.9,72.2,64.5,99.5c3.4,3,6.9,5.8,10.3,8.7
		c-0.4-1.8-1.4-2.9-2.4-3.9c-16.1-16.1-30.1-33.8-41-53.9c-18.9-34.9-25.8-71.6-17.5-110.8c0.4-1.8,1.3-4.3,2.7-4.9
		C163.2,141.4,167.5,140.4,173.2,138.6z M223.6,113.2c45.5,7.5,80,31.5,106.5,68c0.8,1,1.4,3.1,0.9,3.9c-2.3,4.1-5.1,8-8.2,12.7
		c-17-29.1-39-51.5-67.7-67c27.4,25.8,43.9,58.5,57.6,92.9c1.1-0.4,1.8-0.5,2.3-0.9c2.4-1.5,4.9-2.9,7.1-4.6
		c25.4-19,35.4-45.1,35.2-76.1c0-5.9-2-9.5-6.7-12.7c-29-20-61.3-29.3-96.2-30.1c-24.3-0.6-48,3.8-71.1,11.2c-2.5,0.8-5,1.8-7.5,2.7
		c-2.3,0.9-4.5,1.7-6,2.3c14.8-2.5,30.3-5.7,45.8-7.7c15.7-2,31.4-0.8,47.1,1.5c29.5,4.4,55.3,16.3,77.7,35.8c1.4,1.2,3.2,3.2,3,4.7
		c-0.5,4.5-1.9,8.9-3.2,14.5C307.6,131.5,269.9,112.9,223.6,113.2z"/>
	<path class="st2" d="M173.2,138.6c-5.7,1.8-10.1,2.8-14.1,4.6c-1.4,0.6-2.3,3.1-2.7,4.9c-8.4,39.2-1.4,75.9,17.5,110.8
		c10.9,20.1,24.8,37.8,41,53.9c1,1,2,2.1,2.4,3.9c-3.5-2.9-7-5.7-10.3-8.7c-30.6-27.3-53.4-59.6-64.5-99.5
		c-6-21.6-7.4-43.5-4.5-65.7c0.3-1.9,1.3-4.4,2.8-5.4c28.7-18.3,58.7-23.2,90.3-8c1.6,0.8,3.2,1.8,4.8,2.7c1,0.6,1.9,1.3,3.2,2.2
		c-24.6,29.6-46,60.7-55.1,98.8c-0.3-33.7,8.3-64.9,26.4-94.7c-5.4-0.5-9.9-1.2-14.5-1.2c-1.1,0-2.6,1.9-3.2,3.2
		c-18.5,39.6-23.5,80.3-9.2,122.4c0.2,0.6,0.4,1.2,0.8,2.2c-7.1-6.9-15.9-32.2-19.2-60.8C162.7,182.6,165.7,161.1,173.2,138.6z"/>
	<path class="st3" d="M223.6,113.2c46.2-0.3,84,18.3,116.7,51.4c1.3-5.7,2.7-10.1,3.2-14.5c0.2-1.4-1.6-3.5-3-4.7
		c-22.4-19.5-48.2-31.4-77.7-35.8c-15.7-2.4-31.4-3.5-47.1-1.5c-15.6,2-31,5.1-45.8,7.7c1.4-0.6,3.7-1.5,6-2.3
		c2.5-0.9,5-1.9,7.5-2.7c23.1-7.3,46.8-11.7,71.1-11.2c34.9,0.8,67.2,10,96.2,30.1c4.7,3.2,6.7,6.8,6.7,12.7
		c0.3,31-9.7,57.1-35.2,76.1c-2.3,1.7-4.7,3.1-7.1,4.6c-0.5,0.3-1.2,0.5-2.3,0.9c-13.7-34.5-30.2-67.1-57.6-92.9
		c28.7,15.5,50.7,38,67.7,67c3.1-4.7,5.9-8.6,8.2-12.7c0.5-0.9-0.1-2.9-0.9-3.9C303.6,144.7,269.1,120.7,223.6,113.2z"/>
</g>
</svg>
