<?xml version="1.0" encoding="utf-8"?>
<!-- Generator: Adobe Illustrator 25.0.0, SVG Export Plug-In . SVG Version: 6.00 Build 0)  -->
<svg version="1.1" id="Calque_1" xmlns="http://www.w3.org/2000/svg" xmlns:xlink="http://www.w3.org/1999/xlink" x="0px" y="0px"
	 viewBox="0 0 500 500" style="enable-background:new 0 0 500 500;" xml:space="preserve">
<style type="text/css">
	.st0{fill:#28646C;}
	.st1{fill:#EBEBF0;}
	.st2{fill:#EF8D7D;}
	.st3{fill:#FCFDFD;}
	.st4{fill:#61AEB7;}
	.st5{fill:#EB907E;}
	.st6{fill:#EC9281;}
	.st7{fill:#266568;}
	.st8{fill:#EA9282;}
	.st9{fill:#E2E0E6;}
	.st10{fill:#6C9E68;}
	.st11{fill:#70A66F;}
	.st12{fill:#689D65;}
	.st13{fill:#5D8F60;}
	.st14{fill:#EA9C8D;}
	.st15{fill:#62955F;}
	.st16{fill:#D2CBD0;}
	.st17{fill:#6C9A68;}
	.st18{fill:#E1E9ED;}
	.st19{fill:#E4E6EC;}
	.st20{fill:#669A64;}
	.st21{fill:#C7C9C7;}
	.st22{fill:#ECF2F4;}
	.st23{fill:#F5F2F2;}
	.st24{fill:#79AF79;}
	.st25{fill:#C7C0C4;}
	.st26{fill:#2D676B;}
	.st27{fill:#6BA36A;}
	.st28{fill:#FBF0EC;}
	.st29{fill:#D8D9DE;}
	.st30{fill:#2E6A6D;}
	.st31{fill:#77AE7A;}
	.st32{fill:#F3D9D4;}
	.st33{fill:#C3C3C7;}
	.st34{fill:#316B6B;}
	.st35{fill:#F0F5F6;}
	.st36{fill:#EEF4F5;}
	.st37{fill:#A4CB9E;}
	.st38{fill:#EDEEF3;}
	.st39{fill:#E1DEE3;}
	.st40{fill:#256568;}
	.st41{fill:#D78D7D;}
	.st42{fill:#588957;}
	.st43{fill:#EBEFEF;}
	.st44{fill:#EABFB7;}
	.st45{fill:#497B4F;}
	.st46{fill:#F0C9BE;}
	.st47{fill:#DDDCE2;}
	.st48{fill:#E4E3E9;}
	.st49{fill:#D9D4DA;}
	.st50{fill:#C1BCC3;}
	.st51{fill:#E4E3E6;}
	.st52{fill:#CBC2C8;}
	.st53{fill:#CAC8CB;}
	.st54{fill:#C8CCC5;}
	.st55{fill:#DBCECF;}
	.st56{fill:#F7E5DF;}
	.st57{fill:#E1BAAE;}
	.st58{fill:#E9BDB0;}
	.st59{fill:#EACFC7;}
	.st60{fill:#F1C8C2;}
	.st61{fill:#F7EBE4;}
	.st62{fill:#E4E6EA;}
	.st63{fill:#E9EBED;}
	.st64{fill:#D4CFD5;}
	.st65{fill:#BCB5B8;}
	.st66{fill:#D8D8DD;}
	.st67{fill:#8DB688;}
	.st68{fill:#E8EAEE;}
	.st69{fill:#D7D2D8;}
	.st70{fill:#E0DCE2;}
	.st71{fill:#C0B7BF;}
	.st72{fill:#CDC5CB;}
	.st73{fill:#E3E3E9;}
	.st74{fill:#DEDDE3;}
	.st75{fill:#E9E5EB;}
	.st76{fill:#D9D5DC;}
	.st77{fill:#93B0C2;}
</style>
<g>
	<path class="st0" d="M240.3,208.2c-24.3-0.2-45.8-8.9-65.8-21.8c-5.5-3.5-11.7-6.4-15.5-12.2c0.3-4.5,5.3-8.4,1-13.8
		c-1.5-2,0.9-5.4,4.2-2.9c2.1,1.5,3.6,0.7,5.5,0.3c-3.4-0.3-6.3-1.4-8.8-4c-2.4,2.8-1.8,5.8-1.5,8.8c0.2,1.9,1.2,4.4-0.9,5.7
		c-2.5,1.6-4.2-0.7-5.9-2.1c-1.4-1.2-3-1.9-4.7-2.6c-13.1-14.5-22.5-30.8-24.3-50.7c-0.7-1.1-0.6-2.4-0.7-3.7
		c-0.2-8.5-0.1-8.5,8.2-9.2c2.3-0.2,4.6,0.3,6.9-0.6c1.1-0.4,2.3-0.5,3.5-0.5c2.9,0.4,5.9,0.2,8.8-0.4c0.8-0.1,1.6-0.2,2.3-0.2
		c2.9,0,5.7-0.1,8.6-0.1c0.9,0,1.7,0,2.6,0c7.3-0.2,14.7-0.3,22,0c17.9,0.3,35.8-0.6,53.7,0.3c1.2,0.2,2.4,0.7,3.5,1.3
		c3.3,1.7,4.9,6.5,9.2,6.1c3.8-0.4,6.3-4.1,9.5-6c0.7-0.4,1.4-0.7,2.1-0.9c11.8-1.3,23.5-1.3,35.3-0.6c3.1,0.2,6.2,0.2,9.2-0.5
		c0.9-0.1,1.7-0.1,2.5,0c7.2,1,14.4,0.2,21.6,0.5c0.9,0,1.7,0,2.6,0c2.5,0,5.1,0,7.6,0c3,0,6,0,8.9,0c1.3,0,2.6,0,3.9,0
		c4.8,0.1,9.6-0.4,14.3,0.6c0.8,0.3,1.6,0.7,2.4,1.2c0.9,0.2,1.9,0.3,2.8,0.5c1.3,4.2,1,8.5,0.2,12.7
		c-6.4,56.2-69.6,94.8-115.4,95.2C253.3,209.2,246.8,209,240.3,208.2z"/>
	<path class="st1" d="M308.9,98.6c-9.3,3.3-18.8-0.3-28.2,0.9c-6,0.7-12.1,0.3-18.1,0.4c2.2-3.3,5.3-6.1,5-10.5
		c0.7-2.1,1.1-4.4,3.3-7.2c-7.8,2.6-6.1-7.5-12-7.4c-1.7,0.2-3.1,1.4-4.8,1.7c-1.1,0.2-2.2,0.1-3.3-0.2c-5.9-3.7-5.9-4.6,0.3-8.3
		c1.6-0.5,5.5,1.5,3.3-3.1c3-1.5,6.4-1.2,9.6-2.2c2.2,1.4,1.4,5,4.4,5.8c4.3,3,10.1,2.6,14.1,6.2c4.6,0.9,1.7-2.7,2.5-4.1
		c0.1-0.7,0.5-1.3,1-1.8c1.6-0.6,2.8,0,3.7,1.4c1.1,5.1,4.6,5.3,8.7,4.4c1.6,0,2.9,0.3,3.1,2.2c-1.4,0.7-1.9,1.9-1.9,3.3
		c2.3,2,5.4-0.3,7.7,1.6c2.5,1.3,0.6,4.9,3.2,6.2c0.7,1.3,0,2.3-0.5,3.4c-0.4,1.3,0.6,2.2,0.9,3.4c-0.1,0.7-0.4,1.3-1,1.7
		c-2.6,1.2-5.6,0.4-8.2,1.3c-0.7-0.2-1.3-0.6-1.8-1c-0.5-0.4-0.4-1.5-1.4-1.3c0.3,0.6,0.8,1.1,1.3,1.6
		C302.5,98.9,306.3,95.3,308.9,98.6z"/>
	<path class="st2" d="M165.3,76.9c7.7-12,18.6-15.6,32.3-12.8c4.6,1,6.6,2.2,3.3,6.8c-1.6,2.2-2.5,5-3.7,7.5c0,3.2-1.7,5.3-4.2,7.1
		c-2.5,0.9-5,0.5-7.4,0c-1-0.4-2-0.9-2.9-1.5c-1-0.5-2-1.1-3-1.5c-3.3-0.5-6.7,0.1-10-0.5C167.2,81.5,163.7,81.4,165.3,76.9z"/>
	<path class="st3" d="M285.7,69c0,0.7,0,1.4-0.1,2c-0.1,2.2,0.4,4.8-3.2,4.4c-5-2.3-11.2-1.6-15.2-6.2c-2.5-1.3-0.9-4.7-3.3-6.1
		c-2.5,3.8-5.7,3.7-9.2,1.6c-2.2-0.5-2.7-3.1-4.8-3.7c-1.5-0.1-3.2,0.4-4.4-1c3.3-5.6,6-11.9,14-12.1
		C269.9,52.9,278.1,60.5,285.7,69z"/>
	<path class="st4" d="M285.7,69c-9.4-6.2-17.7-13.8-26.2-21.1c7.7-0.3,14.3,3.2,20.9,6.3c12.2,5.7,22.6,14,32.9,23.5
		c-4.9,1.5-8.4,0.3-11.9-1c-1.2-0.4-2.3-0.8-3.5-1.2c-4.1,0.3-7-1.5-9.2-4.8C287.7,70.2,286.7,69.6,285.7,69z"/>
	<path class="st4" d="M211.6,69.5c-1.9-4.3,2.1-6.5,3.8-9.1c9.3-13.4,21.5-23.6,37-33.2c-4.7,14.7-14.6,22.8-23.9,31.4
		c-2.8,3.4-5.3,7.2-9.6,9c-1.5,0.8-2.8,1.9-4.4,2.5C213.5,70.3,212.6,70.1,211.6,69.5z"/>
	<path class="st5" d="M165.3,76.9c0.5,3.8,3.4,2.9,5.9,3.2c3.7,0.4,7.7-1.3,11.1,1.4c-3,2.5-6.3,0-9,1c3.5-0.6,7.3,0.9,11.2,0.7
		c0.4,0.3,0.6,0.7,0.8,1.1c2.7,2.4,8.1,3.8,3,8.8c-1.8,1-3.7,1-5.6,0.6c-3.8-1.2-7.6-1.3-11.4,0c-0.7,0.2-1.3,0.4-2,0.6
		c-3.5,0.7-5.7,3.6-8.8,5c-2.9,0.5-5.8,0.8-8.6-0.3c-1-3.1,1.4-5.1,2.6-7.4c0.3-0.6,0.8-1.1,1.2-1.6c1.7-1.6,3.4-3.1,5.4-4.2
		c1.2-0.3,2-0.9,0.8-2.1c-0.4-0.5-0.6-1.1-0.8-1.7c-0.2-1.4,0-2.7,1.2-3.6C163.3,77.9,164.3,77.4,165.3,76.9z"/>
	<path class="st6" d="M156.1,91.1c0,0.5,0,1-0.1,1.4c-1.9,0.9-3.4,3-5.9,2.3c-3.4-1.5-6.1-3.8-9-6.1c-3-3.3-8.1-2.5-11.1-5.7
		c-1-4.8,1.2-6.1,5.7-6.1c3.4,0,6.4,0.7,9.6,1.7c2.8,0.9,5.7,1.8,8.2,3.4c0.9,0.5,1.7,1.2,2.3,2.1C157.6,86.3,157,88.7,156.1,91.1z"
		/>
	<path class="st7" d="M148,163.5c4.2-1.2,6.3,2.6,9.5,4.1c0-4.7,0.5-9.3-0.2-13.7c-0.4-2.4,0.4-3.1,1.9-2.7c4.7,1,8.1,4.5,12.1,6.8
		c0.3,0.2-0.3,2.6-0.5,2.3c-2.4-4.2-3.9,4.3-6,0.3c-0.7-1.2-1.1-2.9-3.2-2.7c0.5,4.5,0.5,4.5,4.9,8.4c-4.8,0.7-3.8,6.2-7.5,7.9
		C155.1,170.9,150.7,168.1,148,163.5z"/>
	<path class="st8" d="M142.4,87.8c2.5,1.9,5.1,3.8,7.6,5.7c0,1.9,2.1,3.7-0.1,5.6c-2.5,1.1-4.9,2.7-7.6,0.5c-0.7-0.1-1.3-0.3-2-0.6
		c-2.1-1-3.8-2.9-6.3-3.4c-1-0.3-1.9-0.8-2.6-1.6c-0.5-2.5-0.9-5-1.4-7.5C134.6,82.9,138.4,86.4,142.4,87.8z"/>
	<path class="st9" d="M207,81.6c0.5-0.1,0.9-0.1,1.4-0.1c1.9-0.7,2.4,0.8,3.1,2c3.5,2.6,9.2,4.4,3.8,10.3c-2.1,0.4-4.5,0-6.1,1.9
		c-2.3,1-3.5,4.4-6.8,3.3c-0.8-0.6-1-1.4-0.9-2.4c0.2-0.5,0.2-0.9,0.1-1.4c-0.1,0.5-0.3,0.9-0.5,1.4c-1.8,1.3-2.9,0.2-4.1-1.1
		c-0.7-1.3-0.8-2.8-0.5-4.2c0.3-1.4,0.7-2.8,1-4.2c0.3-1,0.7-2,1.5-2.8C202.1,84.6,205.4,85.5,207,81.6z"/>
	<path class="st10" d="M324.3,86.3c-0.2-5.3,3.2-6.3,7.5-6.1c3.1,0.2,4.8,1.5,3.1,4.8c0.3,0.4,0.5,0.8,0.4,1.2
		c-0.1,0.4-0.2,0.6-0.2,0.6c-0.4,0.5-0.9,1-1.4,1.4c-2.3,2.4-1.3,4.7,0.1,7c0.6,1.5,0.8,2.8-0.6,4C324.1,99.1,323.9,98.8,324.3,86.3
		z"/>
	<path class="st11" d="M355,100c-1.1-0.1-2.1-0.1-3.2-0.2c-1.1-0.8-2.8-0.2-3.6-1.6c-2-5.9,1.6-12.2-0.9-18.1
		c3.2-3.7,6.1-0.6,9.2,0.4c3.9,5.5-1.4,10.9-0.4,16.4C356.1,98.1,355.8,99.1,355,100z"/>
	<path class="st12" d="M347.3,80.1c3.1,1.4,3.3,4.2,3,6.9c-0.4,3.8-1,7.7-1.5,11.5c-6.5,2.4-7-2.4-7.9-6.6c-0.5-2.4,1.7-4.9-0.1-7.3
		C343,83.1,345.1,81.6,347.3,80.1z"/>
	<path class="st13" d="M324.3,86.3c3.7,0.5,1.5,3.1,1.4,4.6c-0.5,5.9,1.9,8.4,7.7,7.7c0.4,0.3,0.5,0.6,0.4,0.9
		c-0.1,0.3-0.2,0.5-0.4,0.5c-7.7-0.5-15.5,1.5-23.1-1.1c0.3-0.6,0.7-1,1.3-1.3c1.5-0.6,3.1-0.9,4.4-1.8c1.6-1.3,3.2-2.4,5.3-2.9
		C322.2,90.6,323.2,88.4,324.3,86.3z"/>
	<path class="st14" d="M154.5,84.5c-0.4-0.4-0.9-0.9-1.3-1.3c-1.9-1.8-4.2-3-6.1-4.7c5-5.2,10.1-4,15.2-0.1c0,1.6,0,3.2,0,4.7
		C160.1,85.8,157.6,86.9,154.5,84.5z"/>
	<path class="st15" d="M340.8,84.6c0.8,0.9,4.8-2.1,2.6,2.9c-1.9,4.4-2.3,10.2,5.4,11.1c1,0.4,2,0.9,3,1.3c-3.1,0-6.1,0.1-9.2,0.1
		c-3.1-0.8-6.8-0.9-7-5.5c0.4-2.8,0.2-5.5-0.6-8.2c0-0.5,0-0.9-0.1-1.4C336.8,84.8,338.8,84.7,340.8,84.6z"/>
	<path class="st16" d="M210.1,84.7c-0.1-1.3-0.4-2.5-1.7-3.1c0.6-3.2,2.9-5.4,4.7-7.8c0.8-0.7,1.8-0.9,2.9-0.6c1,0.4,1.7,1,2.3,1.8
		c0.3,0.5,0.5,1.1,0.7,1.7c0.5,2,2.9,2.1,3.8,3.7c0,1.1-0.6,1.9-1.4,2.6c-1.5,1-2.8,2.4-4.7,2.7C214.6,85,212.1,86.7,210.1,84.7z"/>
	<path class="st17" d="M316.4,97.3c-1.3,1.7-3.1,1.2-4.8,1.2c-0.8-0.9-1.4-1.8-1.1-3c-0.1-0.5-0.3-0.9-0.3-1.4
		c-0.8-0.9-1.5-1.9-1.5-3.1c0.6-1,1.2-2,1.8-3.1c4.5-1.4,8.1-1,9,4.6C318.7,94.2,317.2,95.6,316.4,97.3z"/>
	<path class="st18" d="M217.6,75.3c-0.5-0.5-0.9-0.9-1.4-1.4c-1.5-1.3-1.7-3.2-2-5c1.2-0.8,2.4-1.6,3.6-2.5
		c4.1-0.2,7.9,3.5,12.2,1.2c1.1-1.8,2.9-1.4,4.6-1.6c1.1,2.1,0.1,3.7-1.2,5.2c-3.7,1.1-5.6,6-10.3,5
		C221.5,75.1,219.7,74.1,217.6,75.3z"/>
	<path class="st19" d="M245.5,60c1.6-0.5,3.1-1,4.7-1.5c1.7,2.9,2.5,5.9,1.9,9.2c-2.8,1.5-5.6,3.2-9,3.4c-1.2,0-2.4-0.2-3.6-0.6
		c-2.4-1.4-2.7-2.8-0.2-4.4c1-1,2-2.1,3-3.1c1.2,0.1,1.7-0.4,1.6-1.6C244.5,61,245,60.5,245.5,60z"/>
	<path class="st20" d="M355,100c0-1,0-1.9,0-2.9c0-2.7,0.2-5.3,3.2-6.5c1,0.1,2,0.1,2.9,0.2c2.6,1.7,3,5.8,6.8,6.2
		c1.3,0.6,2.8,0.9,2.4,2.9C365.2,99.9,360.1,100,355,100z"/>
	<path class="st21" d="M140.8,98.5c0.5,0.4,1,0.7,1.4,1.1c-1,0.2-2.1,0.4-3.1,0.7c-5.6,1.2-11.1,0.7-16.7,0.2c2.4-2.9,8.3-1,9-6.4
		c1.1,0.2,2.3,0.3,3.4,0.5C137.2,95.4,138.6,97.6,140.8,98.5z"/>
	<path class="st22" d="M230.1,67.7c-4.3,2.2-8.5,3.3-12.2-1.2c3.6-2.6,7.2-5.3,10.7-7.9C230.3,61.5,219.6,66.3,230.1,67.7z"/>
	<path class="st23" d="M199.5,84.5c-0.1,1.1-0.1,2.2-0.2,3.3c-5.4,1.9-5.9,1.6-6.1-3c1.2-2.2,1.9-4.8,4.1-6.4
		c1.4,0.1,2.7,0.2,3.5,1.6C200.9,81.7,201,83.4,199.5,84.5z"/>
	<path class="st24" d="M358.2,90.6c-1.1,2.2-2.1,4.3-3.2,6.5c-3.1-2.6-0.6-5,0.4-7.2c1.5-3.1,0.9-6.3,1-9.4
		C360.1,83.3,360.5,86.8,358.2,90.6z"/>
	<path class="st25" d="M199.5,84.5c-0.2-1.7-0.4-3.4,1.4-4.5c2,0.5,4.1,1.1,6.1,1.6c-0.1,2.2,0.9,5.1-1.4,6.3
		C202.6,89.4,201.7,85.3,199.5,84.5z"/>
	<path class="st26" d="M122.5,100.4c5.6,0.1,11.1-1.3,16.7-0.2c-0.8,1.4-1.7,2.1-3.6,2c-11.6-0.6-11.6-0.5-11.9,10.5
		C121.8,108.8,122.4,104.6,122.5,100.4z"/>
	<path class="st27" d="M367.3,98.5c-5.8,0.5-5.1-4.4-6.2-7.7c2.8-2,4.2,0.7,6.1,1.7C368.7,94.5,368.9,96.5,367.3,98.5z"/>
	<path class="st28" d="M142.4,87.8c-4.1,0.1-8-2.7-12.3-1.3c0-1.2,0-2.4,0-3.5C134.5,83.7,139.3,83.5,142.4,87.8z"/>
	<path class="st29" d="M239.4,66.2c-0.1,1.1-1.7,2.1,0,3.2c0.5,0.8,0.3,1.6-0.4,2.2c-2.1,1-4,1.1-5.7-0.7c0.5-1.6,1-3.1,1.4-4.7
		C236.3,63.8,237.8,65.8,239.4,66.2z"/>
	<path class="st30" d="M240.3,208.2c6.5,0,12.9,0,19.4-0.1C253.3,209.8,246.8,210,240.3,208.2z"/>
	<path class="st31" d="M367.3,98.5c0-2,0-4-0.1-6c3.9,0.8,3.3,4.8,4.9,7.2c-0.6,0-1.2,0.1-1.9,0.1C369.3,99.4,368.3,99,367.3,98.5z"
		/>
	<path class="st32" d="M147.2,78.5c3.1,0.2,5.2,1.6,6.1,4.7c-3.3-0.4-5.6-2.6-7.9-4.7C145.9,78.5,146.6,78.5,147.2,78.5z"/>
	<path class="st33" d="M243.9,61.5c1.2,0.2,2.8,0.4,2.5,2.1c-0.1,0.8-1.2,1.8-2,1.9c-1.7,0.3-1.9-1.2-2.1-2.4
		C242.9,62.6,243.4,62.1,243.9,61.5z"/>
	<path class="st34" d="M375.2,113c-0.1-4.2-0.1-8.5-0.2-12.7C378.1,104.4,376.3,108.7,375.2,113z"/>
	<path class="st35" d="M214.3,68.9c2,1.1,2,3,2,5c-1-0.1-2.1-0.1-3.1-0.2c-0.5-1.4-1-2.8-1.5-4.2C212.5,69.3,213.4,69.1,214.3,68.9z
		"/>
	<path class="st36" d="M307.2,81.6c-2.6-0.4-5.6,1.1-7.7-1.6C302.1,80.5,305,79.1,307.2,81.6z"/>
	<path class="st37" d="M316.4,97.3c0-2.3,1.1-3.8,3-4.9c0.6,0.1,1.2,0.2,1.8,0.4C319.6,94.3,318,95.8,316.4,97.3z"/>
	<path class="st38" d="M268.6,89.3c0,4.7-0.6,9.1-6.2,10.6c-10,10.7-10,10.7-20.1,0.5c-1.5-1.9-3.8-1.1-5.6-1.6
		c-4.6-1.2-6-3.7-2.1-6.8c3.4-2.7,1.6-5.4,1.4-8.3c1.2-2,3.8-3,3.9-5.8c0.3-1.1,0.9-2,1.7-2.8c0.6-0.5,1.3-0.8,2.1-1
		c2.7,0.1,5.4,0.3,7.9,1.3c1,0,2.1,0,3.1,0c3.2,3.1,3.2,9.6,9.7,9.4C266.4,85.9,269.1,86.1,268.6,89.3z"/>
	<path class="st39" d="M236.3,83.2c2.2,3.7,7.5,7.7-1.3,10.3c-2.1,0.6-1.5,2.7,0.9,3.6c2.2,0.9,5.1,0.7,6.5,3.3
		c-14.2-1.6-28.4-0.5-42.6-0.5c-4.8,0-9.6-0.2-14.4-0.3c0-1,0.4-1.7,1.3-2.1c5.4-1.9,10.5-0.8,15.7,0.9c3.7,0.8,2.8-5,6.3-4.4
		c5.7,3.6,11.2,2.4,16.6-0.8c0.6-1.9,5.2,2.3,3.8-2.6c-0.1-1.8,0.5-3.4,1.3-5c1.2-1.9,2.6-3.6,5.2-3.1C235.7,82.7,236,83,236.3,83.2
		z"/>
	<path class="st40" d="M142.4,114.1c7.3,1.8,12,7.5,19.1,7.1c1.3-0.1,3.1,0.9,4.8,0.3c3-1,3.5,1.1,3.7,3.3c0.1,2.1-0.1,3.8-2.8,4.7
		c-5.9,2-10.3-4-16-2.7C153.4,119.4,143.9,120.5,142.4,114.1z"/>
	<path class="st41" d="M185.7,98.5c-0.1,0.4-0.2,0.7-0.4,1c-7.6,0.3-15.2,0.8-22.7-0.3c-0.1-4,4.7-3.8,5.8-6.8c0.5,0,1-0.1,1.5-0.1
		c3.4,0.7,6.9-0.4,10.4,0.2c2.3,0.6,4.7,1,5.7,3.7C186.2,97,186.1,97.8,185.7,98.5z"/>
	<path class="st42" d="M335,86.3c4.7,1.7,3.5,4.6,1.5,7.7c-1.4,1.8,2,4.8-1.6,6c-0.5,0-1,0-1.6,0c0-0.5,0-0.9,0-1.4
		c0-1.2-0.2-2.4-1.4-3c-1.3-3.4-2.2-6.8,1.6-9.3C334.1,86.3,334.5,86.3,335,86.3z"/>
	<path class="st43" d="M310.4,95.4c1.4,0.6,1.3,1.8,1.1,3c-0.5,0-0.9,0.2-1.4,0.4c-0.4-0.2-0.9-0.2-1.4-0.2
		c-3.6-0.7-7.6,1.4-10.9-1.6c1-1,2-0.9,3.1,0C303.9,95.2,307.2,95.5,310.4,95.4z"/>
	<path class="st44" d="M149.9,99.1c0.8-1.8-2-3.7,0.1-5.6c2-0.3,4.1-0.7,6.1-1c-1.4,2.2-2.7,4.4-4.1,6.5
		C151.3,99,150.6,99.1,149.9,99.1z"/>
	<path class="st45" d="M334.9,100c1.8-2-0.5-4.3,0.3-6.3c0.4-1,1.3-1,0.7-0.1c0,0,0.4,0.3,0.5,0.5c0.8,3.3,3.6,4.5,6.1,6
		C340,100,337.5,100,334.9,100z"/>
	<path class="st46" d="M168.3,92.5c0.1,4-4.6,3.9-5.8,6.8c-0.7,0-1.3,0.1-2,0.1C161.6,95.3,165.2,94.2,168.3,92.5z"/>
	<path class="st47" d="M268.6,89.3c-1.5-1-3.1-2.1-4.6-3.1c-3.9-3.8-7.9-7.6-6.2-13.9c3.1,1.7,9.3,0.3,7.1,7.3
		c-0.1,0.2,0.5,0.8,0.9,1C271.3,83.4,271.3,83.4,268.6,89.3z"/>
	<path class="st48" d="M257.9,72.4c0.6,5.2,5.2,8.8,6.2,13.9c-8.5,1.1-8.4-5.3-9.3-10.8C255.4,74,256.4,73,257.9,72.4z"/>
	<path class="st49" d="M251.7,75.5c-3.1,0-6.1,0-9.2,0.1c-2-2-1.6-4.1-0.1-6.2c3.2,0.5,6.1-1,9.2-1.6c0.4,0.3,0.6,0.7,0.5,1
		c-0.1,0.4-0.2,0.6-0.4,0.6C245.8,71.3,248,73.4,251.7,75.5z"/>
	<path class="st50" d="M251.7,69.3c0-0.5-0.1-1.1-0.1-1.6c-1.8-2.8-1.5-6-1.4-9.1c4.3,0,2.8,4.2,4.5,6.1
		C256.1,67.8,256.8,70.4,251.7,69.3z"/>
	<path class="st36" d="M288.7,70.8c3.1,1.6,6.1,3.2,9.2,4.8C292.9,78.2,289.3,76.4,288.7,70.8z"/>
	<path class="st51" d="M301,97c-1,0-2,0-3.1,0c-1.6-1.3-2.7-2.8-2.4-5c0-0.3,1.2-0.6,1.8-0.6C300.7,91.9,299.9,95.1,301,97z"/>
	<path class="st52" d="M282.5,75.5c1.1-1.5,2.1-3,3.2-4.4c2.5,2.9,2.1,5.6-1.2,7.1C281.5,79.5,281.9,77.3,282.5,75.5z"/>
	<path class="st53" d="M264,63.1c3.5,0.8,2.9,3.7,3.3,6.1C261.2,69.8,265.3,65,264,63.1z"/>
	<path class="st48" d="M295.3,86.4c-0.6,0.3-1.3,0.8-1.9,0.8c-0.9,0-1.2-0.9-0.7-1.6c0.4-0.5,1.3-0.5,2-0.6
		C294.8,85,295,85.8,295.3,86.4z"/>
	<path class="st54" d="M308.6,90.9c1.1,0.7,1.9,1.7,1.5,3.1c-1.1-0.2-2.9,0-3.2-0.7C306.2,92.2,307.5,91.4,308.6,90.9z"/>
	<path class="st55" d="M193.2,84.8c0.4,4.2,3.8,2.5,6.1,3c0,1.2-0.3,2.4-1.4,3.1c-1.6,0.5-2.5,1.9-3.7,3c-2,1.8-4,3.2-5.6-0.4
		c0-0.4,0-0.7-0.1-1.1c2.4-4.1-2.8-5.1-3.2-8.1C188,84.5,190.6,84.6,193.2,84.8z"/>
	<path class="st56" d="M184.5,83.2c-4.9,2.9-10-1.9-15,0.7c3.8-3.5,8.5-1.6,12.8-2.3C183.1,82.1,183.8,82.6,184.5,83.2z"/>
	<path class="st57" d="M154.5,84.5c2.8,0.8,5.2-1.2,7.8-1.4c0,0,0,0.3,0,0.3c0.9,0.9,0.9,1.9,0,2.8c-2.1,1.6-4.1,3.2-6.2,4.8
		C155.6,88.9,155.1,86.7,154.5,84.5z"/>
	<path class="st58" d="M180.9,93.8c-3.7-0.5-7.7,1.6-11.1-1.4c4.2-1.7,8.4-2.9,12.6,0C182.1,93,181.6,93.5,180.9,93.8z"/>
	<path class="st59" d="M180.9,93.8c0.5-0.5,1-1,1.5-1.5c2,0,4.1,0,6.1,0.1c0,0,0.2,0.3,0.2,0.3c0.1,2.4-1.1,3.8-3.4,4.4
		C183.9,96,183.2,93.9,180.9,93.8z"/>
	<path class="st60" d="M162.3,86.2c0-0.9,0-1.9,0-2.8c1.6-0.1,4-1.1,3.9,1.5C166.2,86.5,164.3,87.7,162.3,86.2z"/>
	<path class="st61" d="M140.8,98.5c-2.9,0-4.5-1.9-6-4C138.1,94,139.5,96.1,140.8,98.5z"/>
	<path class="st62" d="M225.5,94c-6.6,5.8-12,5.8-17,0c2.1-0.3,4.1-4.5,6.2,0c1.4-1.3,2.7-2.6,4.7-3c1.1-0.2,2.3-0.3,3.5-0.1
		C224.3,91.4,226,91.8,225.5,94z"/>
	<path class="st63" d="M185.3,97.1c1.1-1.5,2.3-2.9,3.4-4.4c1.6,1.6,3.1,3.1,4.4-0.3c2.9-1.2,3.3,1.5,4.5,2.9
		c1.1,0.2,2.1,1.8,3.2,0.1c0.5-0.5,1-0.5,1.5,0c0,1-0.1,1.9-0.1,2.9c-5.5,0-11.1,0.1-16.6,0.1C185.4,98.1,185.3,97.6,185.3,97.1z"/>
	<path class="st64" d="M219.3,92.4c-1.5,0.5-3.1,1-4.6,1.6c-0.7-2.2,5.8-9.4-3.8-5.7c-0.3-1.2-0.5-2.4-0.8-3.6c2.6,0,5.1,0,7.7,0
		C219.9,86.9,220.5,89.5,219.3,92.4z"/>
	<path class="st65" d="M197.6,95.4c-1.5-1-3-2-4.5-2.9c1.2-1.5,2.5-3.1,4.7-1.6C197.7,92.4,197.7,93.9,197.6,95.4z"/>
	<path class="st66" d="M202.4,95.5c-0.5,0-1,0-1.5,0c0.4-1.2-0.9-3.6,1.4-3.3C203.9,92.4,204,94.3,202.4,95.5z"/>
	<path class="st67" d="M333.6,86.2c-2.3,2.8-1.8,6.1-1.6,9.3C329.6,91.9,328.4,88.5,333.6,86.2z"/>
	<path class="st68" d="M240.9,78.5c3,6-1.9,4.3-4.6,4.7c0,0,0,0,0,0c-0.5-0.5-1-0.9-1.6-1.3c-3-1.6-5.9-0.8-8.8,0.3
		c-1.6-0.1-2.6-1-3.5-2.1c-1.4-1.2-6.2,2.8-4.6-3c1.2-1.3,2.4-2.5,4.4-1.7c4.9,1.3,5.8-6.9,11-4.6c2,0,4.1,0,6.1,0.1
		c0.5,0.5,0.9,1,1.1,1.7C240.6,74.5,238.7,76.7,240.9,78.5z"/>
	<path class="st69" d="M222.4,80.1c1.3,0,2.4,0.3,3.1,1.5c0.8,0.5,1.8,0.8,2.4,1.6c0.9,1.4,2.6,1.8,3.7,3c-0.5,1.5-1,3.1-1.5,4.6
		c-3.1,1.3-5.4-0.9-8-1.8c-3.4-2-0.6-5-1.3-7.4C221.4,81.1,221.9,80.6,222.4,80.1z"/>
	<path class="st70" d="M220.8,81.7c3.9,1.2-1.4,4.7,1.6,6.2c0.3,1.5,0.4,3.1,0,4.6c-1,0-2.1,0-3.1,0c-1.4-2.4-1.7-5-1.5-7.7
		C217.8,82.7,218.8,81.7,220.8,81.7z"/>
	<path class="st71" d="M222.2,75.4c-1.5,0.6-2.9,1.1-4.4,1.7c-0.1-0.6-0.1-1.2-0.2-1.7c0.1-2.1,1.4-3.4,3.3-3.3
		C223.3,72.1,222,74.1,222.2,75.4z"/>
	<path class="st72" d="M239.4,72.4c0-0.5-0.1-1-0.1-1.5c0-0.5,0.1-1,0.1-1.5c1,0,2,0,3,0c0,2.1,0,4.1,0.1,6.2c0,0,0,0,0,0
		C239.5,76.3,240.7,73.2,239.4,72.4z"/>
	<path class="st73" d="M244.7,88.4c3.9,8,10,0.8,14.9,2.9C246.8,98.3,246.8,98.3,244.7,88.4z"/>
	<path class="st74" d="M250,79.3c3.6,1.6,3.9,4.5,3.9,7.4c0,0.2-1.5,0.8-1.9,0.6C248.6,85.5,251.2,81.9,250,79.3z"/>
	<path class="st49" d="M239.4,72.4c1,1.1,2,2.1,3,3.2c-0.5,1-1.1,2-1.6,3C235.9,77.5,238.9,74.7,239.4,72.4z"/>
	<path class="st75" d="M222.4,92.4c-0.9-1.5-1-3.1,0-4.6c2.6,1,5.1,2,7.7,3c1.6,5.7-3.1,2-4.6,3.1C224.8,92.7,223.7,92.4,222.4,92.4
		z"/>
	<path class="st38" d="M231.7,86.3c-2.6,0.5-5.3,1.2-4.6-3.1c2.7-2.8,5.8-3.2,9.3-1.5c0,0.5,0,1,0,1.6
		C234,83.2,232.5,84.2,231.7,86.3z"/>
	<path class="st76" d="M236.3,81.6c-3.1,0.5-6.2,1-9.3,1.5c-0.5-0.5-1-1-1.5-1.5C229.1,77.1,232.7,78.1,236.3,81.6z"/>
</g>
<g>
	<path class="st77" d="M104.8,292c0-10-0.3-20,0.1-30c0.5-15,12.3-24.5,27.7-22.7c15.2,1.8,24.4,14.1,21.7,28.8
		c-1,5.2-4.6,4.6-8.1,4.7c-3.4,0-6.9,0.1-7.3-4.7c-0.1-2.3-0.1-4.6-0.5-6.9c-1-5.2-4.6-7-9.5-6.8c-4.7,0.2-8.3,2.2-8.4,7.1
		c-0.2,20.5-0.3,41,0,61.4c0.1,5.2,3.6,8.4,9.1,8.4c5.5-0.1,8.5-3.4,9-8.6c0.4-5.1,0.2-10.2,0.1-15.4c0-2.5-0.8-4.7-3.7-5
		c-6.7-0.8-5.5-5.7-5.1-9.9c0.4-4.8,4.4-4.2,7.6-4.3c16.9-0.7,16.9-0.7,16.9,16.7c0,5.6,0.1,11.3-0.1,16.9
		c-0.4,15.3-9.4,23.8-25,23.8c-15,0-24.1-8.7-24.5-23.5c0-0.5,0-1,0-1.5C104.8,310.9,104.8,301.4,104.8,292
		C104.8,292,104.8,292,104.8,292z"/>
	<path class="st77" d="M314.1,267.7c0-19.9-8.2-28.4-28.2-29.4c-8.1-0.4-17.2,7.1-20.6,14.2c-6,12.6-1.2,25.8-3.7,38.9
		c0,7.7-0.5,16,0.1,24.2c0.8,9.6,0.9,19.3,11.4,25.3c9.6,5.5,19,6.2,28.5,1.9c9.4-4.3,12.5-12.9,12.5-22.9
		C314,302.6,314.2,285.1,314.1,267.7z M293,328.3c-2.4,1.1-3.9,3.6-7,2.1c-3.7-1.6-5.7-4.4-5.7-8.3c-0.1-10,0-20,0-30
		c0,0-0.1,0-0.1,0c0-9,0-17.9,0-26.9c0-6,1.3-11,8.8-10.8c6,0.2,9.6,5,9.2,11.9c-0.9,16-1.1,32.1-0.3,48.1
		C298,318.6,299.8,325.1,293,328.3z"/>
	<path class="st77" d="M234.2,267.7c-0.1-19.4-5.9-26.1-25.2-28.8c-14.2-2-26.8,9.4-26.8,24c-0.1,17.5-1,35-0.6,52.4
		c0.2,10.1,1.6,20,12.2,26c9.1,5.2,18.2,5.5,27.2,1.8c9.1-3.8,13.2-11.7,13.2-21.6c0-9.7,0-19.5,0-29.2c0,0,0,0,0.1,0
		C234.2,284.2,234.2,276,234.2,267.7z M216.8,301.3c-0.7,7.3,0.9,14.4-0.5,21.7c-1.1,5.6-4.3,7.5-8.2,7.8c-4.5,0.4-7.3-3.3-8.4-7.6
		c-0.6-2.4-0.7-5.1-0.7-7.6c-0.1-7.9,0-15.9,0-23.8c0,0,0.1,0,0.1,0c0-9.2-0.1-18.4,0.1-27.6c0.1-4,1.6-7.6,5.7-9.2
		c4.1-1.6,8.2-0.4,10.5,2.6c2.8,3.7,1.7,8.9,1.7,13.4C217,281.1,217.7,291.4,216.8,301.3z"/>
	<path class="st77" d="M394.1,263.8c-0.2-13.9-8.7-22.4-22.6-23c-5.4-0.3-10.8,0.3-16.1-0.2c-6.9-0.5-9.6,2-9.4,9.1
		c0.4,14.3,0.1,28.7,0.1,43c0,14.6,0.2,29.2-0.1,43.8c-0.1,6.4,2.3,8.9,8.6,8.5c6.1-0.4,12.3,0,18.4-0.8c13.9-1.8,21-9.7,21.2-23.6
		C394.4,301.7,394.4,282.7,394.1,263.8z M378.8,285.7c0,11.2,0,22.5,0,33.7c0,5.3-2.3,8.8-7.5,10.1c-6.8,1.7-9.5-0.4-9.6-7.5l0-30.6
		c0-9.2,0-18.4,0-27.6c0-4-0.7-8.9,5.5-8.9c5.7,0,11.1,1.5,11.4,8.5C378.9,270.9,378.7,278.3,378.8,285.7z"/>
</g>
<g>
	<path class="st0" d="M104.4,419.4c0-14.9,0.2-29.7-0.1-44.6c-0.1-5.8,1.9-7.5,7.5-7.4c12,0.4,24.1,0.3,36.1,0
		c5.1-0.1,6.7,1.7,6.6,6.7c-0.1,4.7-0.5,8-6.5,7.6c-6.4-0.4-12.8,0.3-19.2-0.2c-6.8-0.5-10.3,1.4-9.1,8.8c0.3,2.3,0.1,4.6,0.1,6.9
		c0,13.8,0,14.1,13.4,15c5.7,0.4,4.9,4,4.9,7.5c0,3.5,0.8,7-4.9,7.4c-13.4,1-13.4,1.3-13.4,15.2c0,7.7-0.2,15.4,0,23.1
		c0.2,6.1-3.8,5.5-7.7,5.5c-3.9,0-7.8,0.5-7.7-5.6C104.5,450.1,104.4,434.8,104.4,419.4C104.4,419.4,104.4,419.4,104.4,419.4z"/>
	<g>
		<path class="st0" d="M194.6,368c-4,1.7-8.1,5.1-10.5,11.1c-2.6,6.7-3,13.4-2.9,19.7c0.2,7.1-0.3,14.4,0.3,21.6
			c0.6,6.5,0.6,13.4,0.2,19.9c-0.7,11.1-0.2,20.6,10.3,27.5c9.1,6,18.5,6.4,27.7,2.3c9-4.1,13.4-12.2,13.4-22.4c0-9.5,0-18.9,0-28.4
			c0-8.4-0.6-16.9,0.1-25.3C235.3,371.4,213.7,360.1,194.6,368z M217.1,428.3c0.3,8.1-0.2,16.4-1.4,24.5c-0.3,2.1-4.7,4.8-7.4,5.2
			c-3.7,0.5-7.4-1.5-9.1-5.6c-1.5-3.5-1-7-1.1-10.6c-0.1-7.7,0-15.4,0-23c0-9,0-17.9,0-26.9c0-4.3,1.1-7.9,5.3-10.2
			c4.6-2.6,7.7,0.3,11.2,2.2c4,2.2,2.7,7,2.5,9.2C216.1,404.8,216.6,416.5,217.1,428.3z"/>
		<path class="st0" d="M313.2,390.6c-0.4-15.9-9.3-24.2-28.3-25.5c-5.6-0.4-11.7,2.6-15.5,6.3c-3.3,3.2-6.1,7.7-6.9,13.8
			c-1.4,11.6-0.4,23.2-0.8,34.7c-0.2,7.1,0.2,14.1,0,21.2c-0.3,10.3-0.1,19.9,10.2,26.6c9.1,5.9,18.3,6.5,27.6,2.7
			c9.4-3.9,13.5-12.1,13.7-22.1c0.1-9.7,0-19.4,0-29.2C313.2,409.5,313.4,400,313.2,390.6z M295.9,449.9c-1.1,5.5-4.6,7.8-8.4,8
			c-5.5,0.3-8.8-4.2-9-9.5c-0.4-9.7-0.1-19.4-0.1-29.2c-0.1,0-0.1,0-0.2,0c0-9.2-0.4-18.4,0.1-27.6c0.5-10.1,7.6-13.5,15.6-8.4
			c4.5,2.8,2.7,7.2,2.9,10.5c0.5,11.2,0.2,22.4-0.4,33.6C296.1,434.8,297.5,442.2,295.9,449.9z"/>
	</g>
	<path class="st0" d="M393.1,386.3c-1.2-12-9.7-18.3-21.7-18.7c-6.7-0.2-13.3,0.2-20-0.1c-4.8-0.2-6.2,1.8-6.1,6.3
		c0.2,14.9,0.1,29.7,0.1,44.6c0,9.2-0.3,18.5,0.1,27.7c0.3,8.1-3.8,18.6,1.9,23.5c5.4,4.7,15.8,1.4,23.9,1.3
		c11.9-0.2,20.5-6.8,21.8-18.6C395.5,430.3,395.3,408.2,393.1,386.3z M378.3,398.8c0,15.3,0,30.7,0,46c0,4.5-0.6,8.6-5.4,10.9
		c-7.7,3.6-12.1,1-12.1-7.3c0-9.7,0-19.4,0-29.2c0-9.7-0.2-19.4,0.1-29.2c0.1-3.3-2-8.3,4.5-8.4c6,0,11.6,0.4,12.7,7.9
		C378.4,392.7,378.3,395.8,378.3,398.8z"/>
</g>
</svg>
