<?xml version="1.0" encoding="UTF-8"?><svg id="Calque_2" xmlns="http://www.w3.org/2000/svg" viewBox="0 0 108.94 168.31"><defs><style>.cls-1{fill:#c0b7bf;}.cls-2{fill:#fff;}.cls-3{fill:#fcfdfd;}.cls-4{fill:#e4e3e6;}.cls-5{fill:#e2e0e6;}.cls-6{fill:#e4e6ea;}.cls-7{fill:#dddce2;}.cls-8{fill:#cac8cb;}.cls-9{fill:#d9d5dc;}.cls-10{fill:#e4e3e9;}.cls-11{fill:#dedde3;}.cls-12{fill:#ebefef;}.cls-13{fill:#d8d8dd;}.cls-14{fill:#f0f5f6;}.cls-15{fill:#edeef3;}.cls-16{fill:#e4e6ec;}.cls-17{fill:#c3c3c7;}.cls-18{fill:#e8eaee;}.cls-19{fill:#ebebf0;}.cls-20{fill:#c7c0c4;}.cls-21{fill:#e1dee3;}.cls-22{fill:#ecf2f4;}.cls-23{fill:#eef4f5;}.cls-24{fill:#c1bcc3;}.cls-25{fill:#fdfdfd;}.cls-26{fill:#cdc5cb;}.cls-27{fill:#fdfdfe;}.cls-28{fill:#d9d4da;}.cls-29{fill:#2e6a6d;}.cls-30{fill:#f5f2f2;}.cls-31{fill:#dbcecf;}.cls-32{fill:#d4cfd5;}.cls-33{fill:#e1e9ed;}.cls-34{fill:#d7d2d8;}.cls-35{fill:#d8d9de;}.cls-36{fill:#c7c9c7;}.cls-37{fill:#d2cbd0;}.cls-38{fill:#cbc2c8;}.cls-39{fill:#e9e5eb;}.cls-40{fill:#e9ebed;}.cls-41{fill:#bcb5b8;}.cls-42{fill:#e3e3e9;}.cls-43{fill:#e0dce2;}.cls-44{fill:#fefefe;}</style></defs><g id="Calque_1-2"><g><path d="M99.37,33.1c.35,.06,.7,.12,1.06,.18,.48,1.58,.38,3.16,.07,4.75-2.38,21.02-26.06,35.48-43.2,35.62-2.42,.41-4.84,.34-7.26,.02-9.09-.07-17.16-3.32-24.64-8.15-2.05-1.32-4.38-2.41-5.8-4.58,.12-1.7,1.98-3.15,.39-5.17-.57-.73,.33-2.01,1.57-1.1,.78,.57,1.34,.24,2.04,.1-1.26-.1-2.37-.54-3.28-1.5-.91,1.05-.67,2.17-.55,3.29,.08,.73,.44,1.63-.33,2.12-.94,.59-1.57-.25-2.21-.79-.52-.45-1.13-.71-1.75-.96-4.91-5.43-8.43-11.53-9.11-18.99-.28-.43-.23-.91-.24-1.39-.07-3.18-.05-3.19,3.05-3.44,.86-.07,1.73,.1,2.56-.22,.42-.13,.85-.2,1.29-.2,1.1,.16,2.2,.09,3.29-.14,.29-.05,.58-.06,.88-.07,1.07-.02,2.14-.05,3.21-.05,.33-.01,.65-.01,.98-.01,2.75-.08,5.49-.1,8.23-.01,6.7,.12,13.4-.21,20.08,.1,.47,.07,.9,.26,1.32,.48,1.25,.64,1.85,2.44,3.43,2.29,1.44-.14,2.35-1.52,3.56-2.24,.24-.15,.51-.26,.78-.35,4.4-.49,8.81-.49,13.22-.24,1.15,.06,2.31,.06,3.45-.19,.32-.04,.64-.04,.95,0,2.69,.39,5.4,.09,8.09,.19,.32-.01,.64,0,.95,0,.95,.02,1.9,.02,2.86,.01,1.11,0,2.23,.02,3.34-.02,.48-.01,.97,0,1.45,0,1.79,.03,3.59-.14,5.36,.22,.3,.13,.6,.27,.88,.44Z"/><path d="M48.37,160.15c-.33,8.17-10.66,10.07-15.53,6.31-1.67-1.29-2.99-2.97-3.39-4.34-.47-1.61-1.07-3.79-.14-5.8,.39-.84-.95-1.98,0-3.03-1.31-.96,0-2.27-.37-3.54-.54-1.82-.25-4.23,.03-6.17,.28-1.93-.25-3.81,.35-5.84,1.14-3.84,1.16-4.52,1.88-6.1,1.2-2.65,3.87-3.33,5.95-3.65,5.78-.88,10.29,2.86,11.23,8.51-.61,1.27-.42,2.62-.43,3.95-.02,5.54-.02,11.09,0,16.63,0,1.03-.23,2.12,.43,3.06Z"/><path d="M77.26,120.87c-3.37,4.78-9.2,5.55-14.14,2.41-3.98-2.53-4.11-6.09-3.99-10.06,.1-3.45-.36-6.93-.05-10.34,.37-4.11-1.01-8.27,1.14-12.39,2.44-4.69,5.9-6.58,11.45-5,2.22,.63,4.42,1.42,5.52,3.75-.04,10.55-.34,21.09,.08,31.64Z"/><path d="M0,105.19c0-3.65-.01-7.3,0-10.95,.01-3.51,1.13-6.38,4.56-7.96,3.93-1.82,7.7-1.5,11.13,1.06,3.07,2.3,3.21,5.75,2.87,9.17-.22,2.16-2.08,1.12-3.22,1.22-1.01,.09-2.49,.54-2.55-1.35-.03-.96,.05-1.93-.09-2.88-.31-2.11-1.71-2.78-3.72-2.7-1.94,.08-3.16,.91-3.17,2.92-.03,7.59-.07,15.17,.04,22.76,.03,2.11,1.35,3.33,3.58,3.25,2.08-.07,3.18-1.29,3.3-3.26,.13-2.01,.02-4.03,.05-6.05,.02-1.01-.25-1.71-1.42-1.66-3.14,.14-1.84-2.25-1.99-3.67-.21-2.05,1.46-1.54,2.61-1.61,.86-.05,1.73,0,2.59-.01q4.04-.05,4.05,4.17c0,2.69,.02,5.38-.01,8.07-.06,6.02-3.32,9.28-9.25,9.3-5.92,.02-9.29-3.28-9.34-9.19-.03-3.55,0-7.11,0-10.66Z"/><path d="M48.44,115.73c.32,3.89-1.32,6.91-4.77,8.42-3.41,1.5-6.94,1.51-10.38-.73-4-2.61-4.38-6.08-4.23-10.48,.14-4.02-.12-8.13-.12-12.2,0-2.99-.36-5.97,.3-8.99,.63-2.9,2.58-4.63,4.81-5.95,2.63-1.55,5.58-1.03,8.38-.13,3.65,1.17,5.82,3.57,6,7.52-.44,.44-.48,1.01-.48,1.59-.01,6.46,0,12.91,0,19.37,0,.57,.03,1.14,.5,1.57Z"/><path d="M90.63,86.3c4.62-.9,9.28-1.29,13.71,.59,2.78,1.18,4.14,3.75,4.18,6.73,.1,7.68,.13,15.36-.01,23.04-.08,4.23-2.83,7.11-7.07,7.77-3.57,.56-7.17,.87-10.74-.09,.34-6.99,.3-13.98,.2-20.97-.07-5.16-.13-10.32,.25-15.47,.04-.6-.13-1.13-.51-1.6Z"/><path d="M66.99,168.11c-3.79-.47-6.44-2.92-7.61-6.11-.49-1.33-1.14-3.66-.13-5.64,.41-.8-.1-2.02-.07-3.07,.05-2.1,.27-4.29,.06-6.3-.21-1.95-.11-3.94-.16-5.83-.05-1.72,.02-3.65,.33-5.49,.33-1.98,2.16-3.22,2.1-4.54-.09-2.01,1.56-1.16,2.04-1.57,3.48-2.94,13.41-.95,13.89,4.03,.99,3.58,.24,7.19,.18,10.78-.1,5.84,.27,11.66,.3,17.5-.77,3.58-2.9,5.51-6.92,6.26-1.33-.33-2.66-.32-4,0Z"/><path d="M107.76,162.98c-1.49,3.13-4.01,4.71-7.45,4.73-2.85,.02-5.69-.07-8.54-.11-1.08-.58-.85-1.62-.85-2.55,0-11.12,.03-22.24-.04-33.36-.01-1.83,.42-2.54,2.37-2.47,2.57,.09,5.16,.28,7.73-.16,4.94,.71,7.1,2.98,7.58,7.96-.74,3.5-.37,7.04-.33,10.56,.06,5.14,0,10.27-.48,15.39Z"/><path d="M5.89,134.45c.01,3.08,.1,6.15,0,9.23-.06,1.64,.5,2.12,2.12,2.15,1.53,.02,3.19-.65,4.62,.49-.29,1.51-.24,3.03-.03,4.55-1.29,.91-2.76,.42-4.12,.38-1.93-.05-2.69,.48-2.6,2.56,.17,4.01-.06,8.04,.09,12.06,.08,2.21-1.26,2.02-2.57,1.86-1.27-.15-3.24,.98-3.23-1.81,.06-11.97,.03-23.93,.02-35.9,0-.39,.04-.75,.49-.9,5.94,.28,11.88,.24,17.81,.02,.71,1.63,.7,3.25,0,4.88-3.92-.3-7.84-.07-11.75-.13-.41,0-.73,.12-.84,.57Z"/><path class="cls-19" d="M75.68,32.68c-3.48,1.23-7.05-.11-10.57,.33-2.23,.28-4.53,.11-6.79,.14,.81-1.22,1.97-2.27,1.87-3.93,.28-.8,.42-1.66,1.23-2.71-2.92,.96-2.28-2.82-4.48-2.77-.65,.06-1.16,.51-1.78,.65-.42,.08-.83,.04-1.24-.08-2.23-1.39-2.21-1.72,.11-3.09,.6-.18,2.05,.56,1.24-1.15,1.13-.57,2.41-.46,3.58-.82,.82,.51,.51,1.89,1.65,2.15,1.62,1.1,3.77,.97,5.28,2.3,1.71,.34,.63-1.02,.92-1.54,.04-.28,.18-.5,.39-.67,.61-.21,1.05,.01,1.38,.53,.4,1.91,1.73,1.98,3.26,1.64,.58,0,1.08,.12,1.16,.82-.52,.25-.7,.69-.71,1.23,.84,.74,2.02-.1,2.87,.59,.93,.5,.22,1.84,1.19,2.32,.25,.47-.02,.87-.18,1.29-.14,.48,.23,.83,.33,1.25-.03,.26-.15,.47-.36,.63-.98,.46-2.08,.14-3.08,.47-.26-.07-.47-.21-.68-.37-.2-.15-.14-.55-.53-.49,.12,.24,.3,.42,.5,.6,1.05,.75,2.49-.59,3.43,.66Z"/><path class="cls-5" d="M21.97,24.55c2.9-4.47,6.97-5.85,12.1-4.78,1.73,.36,2.45,.8,1.23,2.53-.6,.84-.92,1.87-1.37,2.81,0,1.19-.65,2-1.56,2.64-.93,.35-1.86,.18-2.79-.01-.39-.14-.74-.35-1.08-.58-.37-.2-.73-.42-1.13-.56-1.24-.19-2.51,.03-3.73-.19-.97-.17-2.28-.21-1.65-1.87Z"/><path d="M77.26,120.87c-.68-1.77-1.07-3.59-1.07-5.5,.02-6.49-.12-12.98,.08-19.46,.07-2.21-.21-4.57,.92-6.67,1.04,1.58,1.35,3.33,1.34,5.18-.02,6.7-.05,13.39,.02,20.09,.02,2.25-.25,4.37-1.29,6.37Z"/><path class="cls-3" d="M67.02,21.58c0,.25-.01,.51-.02,.76-.05,.81,.15,1.79-1.19,1.66-1.87-.85-4.18-.61-5.71-2.32-.94-.48-.36-1.78-1.22-2.3-.94,1.41-2.13,1.38-3.45,.59-.82-.17-1.02-1.16-1.8-1.37-.57-.04-1.19,.15-1.66-.37,.06-1.29,1.03-1.95,1.91-2.62,.75-.58,1.38-1.06,.48-1.98-.37-.32-.43-.7-.17-1.12,.93,.6,1.92,1.02,3.02,1.19,3.88,1.88,6.97,4.73,9.82,7.88Z"/><path class="cls-5" d="M67.02,21.58c-3.52-2.32-6.63-5.15-9.82-7.88,2.88-.12,5.35,1.19,7.81,2.37,4.54,2.18,8.51,5.18,12.26,8.82-1.76,.55-3.08,.09-4.39-.39-.44-.15-.87-.31-1.31-.46-1.52,.13-2.62-.54-3.44-1.78-.37-.22-.74-.45-1.12-.67Z"/><path class="cls-5" d="M38.76,21.57c3.21-5.94,10.2-12.81,15.68-15.2-1.64,5.07-5.33,8.11-8.79,11.33-1.08,1.3-2.03,2.74-3.68,3.42-.58,.33-1.11,.77-1.76,.97-.57,.09-1.11,.08-1.44-.52Z"/><path class="cls-15" d="M29.15,26.88c.14,.12,.23,.26,.3,.43,1.02,.88,3.04,1.42,1.13,3.31-.67,.36-1.38,.36-2.1,.22-1.42-.43-2.85-.47-4.27,0-.24,.09-.49,.15-.74,.22-1.3,.27-2.13,1.36-3.29,1.88-1.08,.18-2.15,.29-3.21-.13-.37-1.16,.51-1.89,.96-2.77,.13-.22,.28-.42,.45-.61,.63-.59,1.27-1.17,2.03-1.58,.44-.13,.73-.32,.3-.8-.15-.19-.24-.4-.3-.63-.06-.52,0-.99,.44-1.33,.37-.18,.75-.36,1.12-.54,.19,1.42,1.29,1.09,2.2,1.19,1.39,.16,2.88-.5,4.16,.52-1.11,1-2.35-.15-3.24,.34,1.2-.2,2.6,.36,4.06,.28Z"/><path d="M107.76,162.98c-.56-.65-.4-1.44-.4-2.19,0-6.94,0-13.88,0-20.82,0-1.15-.15-2.35,1.22-2.93,.51,7.64,.47,15.29,.04,22.93-.06,1.02-.55,2.01-.85,3.02Z"/><path d="M77.91,161.86c-.89-2.8-1.02-5.74-1.06-8.61-.06-4.73-.57-9.5,.49-14.21,.4-1.8-.55-3.65,.1-5.46,.74,1.05,1.06,2.23,1.06,3.5,0,7.54,0,15.07,0,22.61,0,.78-.15,1.52-.59,2.17Z"/><path class="cls-15" d="M18.52,29.84c0,.18-.01,.36-.03,.54-.72,.35-1.28,1.11-2.23,.86-1.26-.55-2.29-1.43-3.36-2.27-1.12-1.23-3.04-.92-4.16-2.15-.37-1.79,.47-2.29,2.15-2.28,1.26,0,2.41,.28,3.58,.62,1.05,.36,2.12,.68,3.08,1.27,.35,.19,.63,.45,.86,.78,.64,.85,.44,1.74,.11,2.63Z"/><path d="M100.99,129.07c-2.39,1.03-4.91,.41-7.35,.43-1.88,.02-2.48,.62-2.47,2.5,.07,10.94,.04,21.89,.02,32.83,0,.98,.07,1.91,.58,2.77-1.5,.29-1.21-.82-1.21-1.61-.01-11.78,.01-23.56-.04-35.34,0-1.45,.55-1.78,1.85-1.73,2.87,.1,5.74,.1,8.61,.14Z"/><path d="M15.48,56.94c1.53-.38,2.42,.8,3.54,1.76,0-1.99,.19-3.71-.07-5.35-.14-.89,.15-1.14,.71-1.02,1.75,.38,3.03,1.69,4.53,2.56,.12,.07-.12,.96-.19,.85-.89-1.57-1.43,1.62-2.26,.13-.24-.44-.35-1.17-1.17-.96q.18,1.62,1.82,3.1c-1.81,.26-1.44,2.32-2.81,2.95-1.46-1.24-3.11-2.29-4.1-4.01Z"/><path d="M48.37,160.15c-1.14,.46-1.01-.33-1.01-1.01,0-6.81,0-13.61,0-20.42,0-.92,.16-1.71,1.02-2.22,.24,7.88,.25,15.76,0,23.65Z"/><path d="M90.63,86.3c.82,.08,1.19,.55,1.1,1.36-1.19,11.2-.19,22.44-.54,33.66-.03,1.02,.36,2.13-.5,3.02-1.16-1.74-.13-3.55-.18-5.33-.2-6.89,.17-13.78-.26-20.68-.25-3.99,.22-8.02,.37-12.04Z"/><path d="M48.44,115.73c-1.01,.42-1.09-.14-1.09-.95,.02-6.87,.02-13.74,0-20.61,0-.79,.04-1.39,1.07-.97,0,7.51,0,15.02,.01,22.53Z"/><path class="cls-21" d="M13.37,28.62c.95,.71,1.89,1.42,2.84,2.14,0,.69,.8,1.4-.02,2.08-.93,.41-1.85,1.02-2.86,.19-.26-.04-.5-.12-.74-.22-.8-.38-1.42-1.1-2.34-1.26-.38-.11-.7-.31-.96-.59-.17-.94-.35-1.87-.52-2.81,1.69-1.37,3.11-.05,4.6,.48Z"/><path class="cls-5" d="M37.55,26.32c.18-.02,.35-.03,.53-.02,.73-.28,.9,.31,1.17,.74,1.32,.97,3.46,1.65,1.43,3.86-.8,.14-1.68-.02-2.29,.72-.85,.39-1.3,1.63-2.54,1.22-.29-.23-.38-.53-.33-.88,.06-.17,.08-.35,.05-.53-.05,.18-.12,.35-.2,.53-.68,.5-1.1,.06-1.53-.4-.27-.5-.29-1.03-.19-1.57,.12-.53,.26-1.04,.39-1.57,.1-.39,.26-.75,.55-1.03,1.12,.03,2.36,.38,2.96-1.06Z"/><path class="cls-19" d="M81.44,28.05c-.07-2,1.21-2.37,2.81-2.3,1.17,.06,1.78,.54,1.16,1.79,.13,.14,.18,.28,.15,.43-.03,.15-.06,.23-.09,.23-.16,.19-.33,.36-.51,.53-.85,.88-.47,1.75,.02,2.63,.22,.54,.29,1.06-.23,1.49-3.37,0-3.45-.1-3.31-4.81Z"/><path class="cls-5" d="M92.94,33.19c-.4-.02-.8-.04-1.2-.07-.41-.29-1.05-.08-1.35-.61-.74-2.23,.6-4.55-.32-6.77,1.2-1.4,2.3-.23,3.43,.14,1.45,2.08-.51,4.08-.13,6.13,.01,.45-.11,.84-.41,1.18Z"/><path class="cls-19" d="M90.06,25.74c1.16,.52,1.22,1.55,1.12,2.6-.14,1.44-.36,2.86-.55,4.3-2.45,.91-2.62-.89-2.94-2.48-.18-.9,.63-1.83-.05-2.73,.81-.56,1.62-1.12,2.43-1.67Z"/><path class="cls-19" d="M81.44,28.05c1.38,.2,.56,1.15,.51,1.72-.2,2.19,.71,3.15,2.9,2.88,.14,.12,.18,.23,.14,.35-.04,.12-.09,.18-.13,.18-2.88-.18-5.81,.56-8.65-.41,.11-.22,.27-.39,.49-.5,.55-.21,1.15-.32,1.64-.68,.59-.5,1.21-.91,1.97-1.09,.38-.81,.76-1.63,1.14-2.44Z"/><path class="cls-15" d="M17.92,27.39c-.16-.16-.32-.32-.48-.48-.69-.67-1.57-1.11-2.28-1.77,1.88-1.94,3.78-1.5,5.68-.05,0,.59,0,1.18,0,1.77-.82,1.01-1.75,1.43-2.92,.53Z"/><path class="cls-19" d="M87.64,27.42c.3,.34,1.78-.77,.98,1.08-.72,1.65-.85,3.84,2.02,4.14,.37,.16,.74,.33,1.11,.49-1.14,.02-2.29,.03-3.43,.05-1.17-.3-2.56-.32-2.61-2.05,.15-1.04,.06-2.06-.24-3.07,0-.17-.02-.34-.05-.51,.74-.04,1.48-.09,2.23-.13Z"/><path class="cls-19" d="M78.49,32.18c-.48,.62-1.16,.44-1.79,.43-.3-.32-.52-.66-.43-1.13-.06-.17-.1-.35-.13-.53-.29-.34-.55-.7-.58-1.18,.22-.38,.45-.76,.67-1.14,1.69-.54,3.02-.36,3.38,1.72-.26,.68-.82,1.17-1.12,1.82Z"/><path class="cls-33" d="M40.28,21.56c.45-.31,.9-.61,1.35-.92,1.55-.07,2.94,1.32,4.57,.46,.41-.68,1.09-.54,1.72-.6,.4,.79,.04,1.39-.46,1.96-1.38,.41-2.08,2.22-3.83,1.89-.65-.59-1.35-.78-2.13-.2-.43-.03-.7-.28-.9-.64-.3-.62-.33-1.29-.32-1.96Z"/><path class="cls-37" d="M41.02,23.42c.17,.18,.34,.35,.52,.53,.2,.13,.33,.31,.42,.53,.18,.8,1.12,.72,1.5,1.29,.05,.44-.19,.74-.49,1-.57,.38-1.05,.92-1.77,1.04-.8-.26-1.74,.4-2.47-.35-.03-.49-.14-.93-.64-1.17,.09-.8,.47-1.38,1.21-1.72,.49-.51,.34-2,1.73-1.15Z"/><path d="M18.49,129.13c-5.94,.69-11.88,.71-17.81-.02,5.94-.26,11.88-.3,17.81,.02Z"/><path class="cls-16" d="M51.97,18.22c.58-.18,1.17-.36,1.75-.55,.65,1.07,.94,2.21,.71,3.46-1.06,.57-2.1,1.21-3.36,1.26-.46,0-.9-.06-1.34-.22-.9-.51-1-1.05-.08-1.64,.38-.38,.76-.77,1.14-1.15,.43,.04,.63-.15,.58-.58,.2-.19,.39-.38,.59-.57Z"/><path class="cls-4" d="M92.94,33.19c0-.36,0-.72,0-1.08-.01-1.01,.06-1.98,1.18-2.43,.37,.02,.74,.05,1.1,.07,.96,.65,1.13,2.16,2.55,2.31,.48,.21,1.05,.35,.89,1.08-1.91,.02-3.82,.03-5.73,.05Z"/><path class="cls-5" d="M67.93,14.6c-.92-.2-1.61-.62-1.54-1.69,.06-.88,.59-1.47,1.42-1.49,1-.02,1.5,.65,1.49,1.67,0,.93-.57,1.33-1.38,1.52Z"/><path class="cls-36" d="M9.29,30.95c.43,.06,.85,.12,1.28,.18,.86,.32,1.39,1.14,2.23,1.49,.18,.14,.36,.28,.53,.41-.39,.08-.77,.16-1.16,.24-2.08,.47-4.16,.27-6.25,.06,.91-1.09,3.12-.36,3.36-2.38Z"/><path class="cls-5" d="M56.62,1.4c.01,.96-.65,1.38-1.43,1.48-.81,.11-1.5-.22-1.58-1.2-.09-1.06,.52-1.71,1.47-1.68,.7,.02,1.48,.44,1.54,1.4Z"/><path class="cls-22" d="M46.2,21.1c-1.62,.83-3.2,1.22-4.57-.46,1.34-.98,2.68-1.97,4.02-2.95,.62,1.07-3.39,2.88,.55,3.41Z"/><path d="M5.89,134.45c.18-.49,.52-.83,1.04-.81,3.85,.15,7.73-.55,11.55,.37-4.2,.15-8.39,.29-12.59,.44Z"/><path class="cls-30" d="M34.74,27.4c-.03,.41-.05,.82-.08,1.23-2,.71-2.22,.61-2.27-1.13,.45-.84,.71-1.79,1.53-2.39,.52,.04,1.03,.09,1.33,.6,.02,.62,.04,1.24-.51,1.68Z"/><path class="cls-20" d="M34.74,27.4c-.07-.63-.16-1.27,.51-1.68,.77,.2,1.53,.4,2.3,.6-.04,.83,.35,1.92-.54,2.36-1.11,.54-1.42-.97-2.27-1.27Z"/><path class="cls-19" d="M94.13,29.68c-.4,.81-.79,1.62-1.19,2.43-1.18-.97-.23-1.86,.17-2.69,.55-1.16,.32-2.35,.38-3.53,1.38,1.07,1.53,2.34,.64,3.79Z"/><path d="M5.92,33.34c2.08,.04,4.16-.5,6.25-.06-.29,.54-.65,.79-1.36,.75-4.34-.22-4.35-.19-4.44,3.91-.7-1.48-.47-3.05-.45-4.61Z"/><path class="cls-19" d="M97.56,32.63c-2.18,.17-1.9-1.64-2.32-2.88,1.04-.77,1.58,.26,2.3,.64,.53,.74,.63,1.49,.02,2.24Z"/><path class="cls-5" d="M13.37,28.62c-1.55,.02-2.99-1.02-4.6-.48,0-.44-.01-.88-.02-1.33,1.66,.28,3.48,.19,4.62,1.81Z"/><path class="cls-14" d="M41.02,23.42c-.91-.11-1.12,.83-1.73,1.15-.17-1-.35-2-.52-3,.51,0,1.01,0,1.52,0,.76,.42,.74,1.14,.74,1.86Z"/><path class="cls-5" d="M14.36,20.43c-.61-.15-1.08-.47-1.02-1.16,.06-.65,.49-1.05,1.16-.98,.54,.05,.86,.48,.88,.97,.04,.65-.36,1.05-1.03,1.16Z"/><path class="cls-29" d="M50.03,73.67c2.42,0,4.84-.01,7.26-.02-2.42,.64-4.84,.69-7.26,.02Z"/><path class="cls-35" d="M49.67,20.53c-.06,.39-.65,.8,.02,1.18,.17,.31,.12,.58-.16,.81-.77,.38-1.5,.4-2.15-.26,.18-.58,.36-1.17,.54-1.75,.6-.89,1.17-.14,1.76,.02Z"/><path class="cls-5" d="M86.29,20.86c.68,.06,1.01,.48,.99,1.12-.02,.62-.32,1.1-1.02,1.08-.7-.02-1.04-.54-1.05-1.11,0-.6,.41-1.04,1.08-1.09Z"/><path class="cls-5" d="M34.53,17.39c-.71-.2-1.12-.58-.99-1.23,.13-.63,.63-.92,1.26-.78,.48,.11,.81,.47,.76,1-.06,.67-.55,.9-1.03,1.01Z"/><path class="cls-5" d="M97.56,32.63c0-.75-.02-1.49-.02-2.24,1.48,.32,1.23,1.8,1.83,2.71-.23,.01-.46,.03-.69,.04-.37-.17-.74-.34-1.11-.51Z"/><path class="cls-2" d="M100.49,38.03c-.02-1.58-.05-3.17-.07-4.75,1.17,1.57,.5,3.16,.07,4.75Z"/><path class="cls-5" d="M15.16,25.14c1.16,.08,1.96,.61,2.28,1.77-1.25-.13-2.09-.98-2.96-1.75,.23,0,.46-.01,.69-.02Z"/><path d="M12.59,150.87c-.65-1.52-.69-3.03,.03-4.55,.24,1.52,.29,3.03-.03,4.55Z"/><path class="cls-17" d="M51.39,18.79c.46,.09,1.04,.15,.93,.78-.05,.28-.44,.67-.73,.72-.64,.12-.7-.45-.78-.91,.19-.2,.39-.39,.58-.58Z"/><path d="M66.99,168.11c1.33-.73,2.67-.74,4,0-1.33,.23-2.67,.23-4,0Z"/><path class="cls-5" d="M82.39,19.5c-.1,.43-.41,.56-.79,.51-.43-.06-.64-.38-.48-.76,.08-.2,.41-.44,.61-.43,.36,.02,.68,.24,.67,.69Z"/><path class="cls-5" d="M54.18,12.51c.06,.37,.12,.74,.17,1.12-.46,.31-1.02,.76-1.28-.1-.28-.92,.34-1.1,1.11-1.02Z"/><path class="cls-5" d="M26.59,16.4c-.16,.14-.32,.39-.54,.45-.51,.15-.63-.28-.63-.63,0-.19,.27-.51,.45-.54,.4-.06,.65,.22,.72,.71Z"/><path class="cls-19" d="M78.49,32.18c-.01-.84,.41-1.42,1.12-1.82,.23,.04,.46,.09,.69,.13-.6,.56-1.2,1.13-1.81,1.69Z"/><path class="cls-5" d="M30.95,8.89c.21,.3,.49,.51,.47,.7-.02,.19-.32,.37-.49,.55-.17-.19-.45-.37-.47-.58-.02-.18,.27-.38,.49-.66Z"/><path class="cls-23" d="M75.05,26.31c-.97-.15-2.08,.4-2.87-.59,.96,.17,2.07-.37,2.87,.59Z"/><path class="cls-15" d="M60.63,29.19c0,1.77-.24,3.4-2.31,3.96q-3.73,4-7.53,.2c-.55-.72-1.41-.42-2.11-.61-1.71-.46-2.23-1.38-.8-2.53,1.25-1.01,.59-2.04,.54-3.1,.46-.74,1.43-1.13,1.46-2.16,.12-.41,.34-.76,.65-1.05,.23-.18,.49-.3,.78-.38,1.01,.03,2.02,.1,2.97,.49h1.16c1.21,1.18,1.2,3.6,3.63,3.52,.72,.37,1.76,.44,1.57,1.67Z"/><path class="cls-21" d="M48.51,26.89c.83,1.4,2.82,2.88-.49,3.86-.78,.23-.57,.99,.32,1.36,.84,.35,1.92,.26,2.45,1.23-5.31-.58-10.63-.19-15.95-.2-1.8,0-3.6-.08-5.4-.12,0-.37,.16-.63,.49-.79,2-.72,3.94-.28,5.86,.35,1.38,.29,1.03-1.85,2.35-1.65,2.13,1.36,4.19,.9,6.2-.29,.21-.71,1.96,.86,1.41-.97-.04-.68,.18-1.28,.49-1.87,.46-.71,.96-1.34,1.95-1.15,.11,.08,.22,.16,.33,.24Z"/><path d="M13.56,38.56c2.55,.47,4.26,2.87,6.91,2.44,.2-.03,.49,.47,.68,.43,1.35-.28,2.93-.79,2.5,1.53-.42,2.24-2.41,1.28-3.53,1.07-1.19-.22-2.28-1.1-3.63-.97,1.14-2.87-2.46-2.08-2.88-3.73-.02-.09-.01-.19-.04-.77Z"/><path class="cls-21" d="M29.57,32.63c-.03,.13-.08,.26-.13,.39-2.84,.12-5.68,.32-8.51-.11-.03-1.48,1.74-1.43,2.16-2.54,.19-.01,.38-.02,.57-.03,1.29,.25,2.59-.14,3.88,.06,.87,.21,1.77,.37,2.13,1.38,.1,.3,.07,.59-.09,.86Z"/><path class="cls-19" d="M85.46,28.05c1.77,.65,1.31,1.74,.56,2.88-.54,.66,.73,1.8-.59,2.25-.19,0-.39-.01-.58-.02,0-.18,0-.35,0-.53,0-.46-.06-.89-.52-1.13-.47-1.28-.81-2.53,.61-3.47,.18,.02,.35,.02,.53,.02Z"/><path class="cls-12" d="M76.27,31.48c.52,.24,.49,.68,.43,1.13-.18,.02-.35,.06-.51,.14-.17-.06-.34-.09-.52-.08-1.35-.26-2.86,.51-4.09-.59,.38-.37,.76-.32,1.14-.01,1.1-.69,2.33-.57,3.54-.59Z"/><path class="cls-21" d="M16.19,32.84c.3-.69-.74-1.39,.02-2.08,.76-.13,1.52-.26,2.28-.38-.51,.81-1.02,1.63-1.53,2.44-.26,0-.52,.01-.78,.02Z"/><path class="cls-19" d="M85.43,33.18c.67-.76-.19-1.59,.11-2.37,.14-.36,.5-.36,.28-.05,0,0,.13,.11,.2,.17,.3,1.22,1.34,1.69,2.29,2.24-.96,0-1.92,0-2.88,.01Z"/><path class="cls-40" d="M23.08,30.37c.04,1.49-1.71,1.46-2.16,2.54-.25,.01-.5,.03-.75,.04,.37-1.53,1.73-1.95,2.9-2.58Z"/><path class="cls-2" d="M35.44,135.95c2.18-2.69,4.06-2.93,6.44-.69,.83,.78,.69,2.43,.61,3.04-.41,3.1,.41,6.26-.09,9.12-.46,2.63,1.03,5.4-.71,7.82,1.87,.8-.8,2.79,.96,3.62l-1.9,2.59c-.72,2.33-2.38,1.21-3.78,1.02-1.55-.49-1.98-1.73-1.98-3.15-.02-7.57-.04-15.14,0-22.7,0-.36,.26-.47,.45-.67Z"/><path d="M35.44,135.95c-.05,7.67-.08,15.33-.14,23-.01,1.46,.73,2.53,1.67,3.52-2.48,1.27-2.49-1.28-2.45-2.11,.4-7.67-.01-15.34,.16-23,.01-.6,.13-1.14,.76-1.41Z"/><path class="cls-44" d="M65.75,104.97c0-3.56,0-7.11,0-10.67,0-1.44,.31-2.74,1.8-3.28,1.61-.59,3.11,0,4.25,1.07,.85,.8,.88,2.62,.68,3.2-.94,2.74,.06,5.45-.34,8.17-.4,2.7-.07,5.5-.03,8.26,.02,1.18,.04,2.36,.18,3.53,.17,1.41-1.86,4.55-3.1,4.45-2.22-.19-3.48-1.41-3.46-3.77,.03-3.65,0-7.3,0-10.96Z"/><path class="cls-27" d="M41.65,98.97c2.32,.79-.8,1.52-.03,2.29,.57,.78-.95,1.55,0,2.33h0c.36,.56-.25,.92-.31,1.39,.01,1.02,.35,1.93,.99,2.72,.99,.72,.87,1.46,.05,2.22-.75,.76-.8,1.53-.05,2.32,1.34,1.95,.36,3.87-.07,5.8-.48,.85-1.66-.06-2.38,1.31-.66,1.25-2.56-.04-3.54-1.07-.82-.85-1.01-2.02-1-3.21,.02-6.7,.01-13.4,.02-20.1,0-1.62,.42-3.08,2-3.84,1.59-.77,3.35-.3,4.13,.95,.77,1.22,1.38,3,.17,4.56,.59,.77-.99,1.56,.02,2.33Z"/><path d="M42.24,118.04c.25-.62-1.83-.83-.25-1.92,.45-.31-.18-2.18-.32-3.33-.39-1.13-.36-2.26-.02-3.4,.38-.03,.82-.07,.82-.57,0-.47-.43-.56-.81-.64-.3-.29-.42-.64-.15-.99,.35-.45,.78-.44,1.23-.12,1.11-.55,.53-1.57,.54-2.34,.07-3.51,.03-7.02,.03-10.58,1.47,.15,1.15,1.02,1.13,1.57-.2,6.25,.55,12.49,.08,18.74-.03,.45,.19,.93,.28,1.39,.54,2.7,.17,3.01-2.57,2.19Z"/><path d="M42.75,107.07c-.71,.03-1.19,.28-1.09,1.11-1.21-.96-.42-2.29-.64-3.43,.23-.24,.44-.22,.64,.03-.24,1.05,1.23,1.28,1.08,2.28Z"/><path d="M41.65,98.97c-1.22-.77-.28-1.55-.02-2.33,2.4,.76-.77,1.56,.02,2.33Z"/><path d="M41.62,103.59c-1.17-.78-.25-1.55,0-2.33,2.46,.78-.88,1.55,0,2.33Z"/><path d="M41.67,104.79c-.21-.01-.43-.02-.64-.03,.2-.39,.39-.79,.59-1.18,.45,.07,.99,.12,.88,.73-.04,.2-.54,.33-.83,.49Z"/><path class="cls-44" d="M97.08,90.95c5.21,.3,5.68,.78,5.68,5.91,0,5.35,0,10.71,0,16.06,0,5.99-.32,6.31-6.35,6.25-.66-2.15-.27-4.36-.29-6.53-.06-6.32-.04-12.64,0-18.96,0-.99-.39-2.18,.96-2.73Z"/><path d="M97.08,90.95c-.7,.65-.76,1.48-.75,2.37,.04,8.62,.06,17.23,.09,25.85-.93-.72-.59-1.75-.6-2.66-.02-7.64-.03-15.27,.01-22.91,0-1-.61-2.46,1.25-2.65Z"/><path class="cls-25" d="M65.43,136.53c1.86-3.14,3.06-3.36,5.93-1.77,1.7,.94-.08,2.77,1.33,3.57-1.53,2.41-.11,5.12-.58,7.73-.25,1.4,.27,4.05,.28,5.82,.03,2.82,.42,5.83-.32,8.69-.33,1.3-1.78,1.39-2.57,2.25-.54,.59-2.2-.15-2.96-1.08-.53-.64-.84-1.46-1.26-2.21-.67-.69-.6-1.57-.6-2.42-.02-5.99-.02-11.97,0-17.96,0-.93-.12-1.93,.75-2.63Z"/><path d="M65.43,136.53c-.05,7.67-.1,15.34-.15,23.01-.39-.07-1.14,1.5-1.16-.1-.08-7.09-.03-14.17-.01-21.26,0-.87,.46-1.43,1.31-1.65Z"/><path class="cls-44" d="M96.44,162.41c-.04-8.8-.07-17.59-.15-26.39-.01-1.32,.36-1.83,1.77-1.84,1.82,0,3.4,.33,4.64,1.73,.18,.09,.26,.21,.24,.35-.02,.15-.05,.23-.1,.23,.02,7.18-.01,14.36,.09,21.53,.03,2.07-.77,3.46-2.52,4.4-1.33,.44-2.65,.47-3.97-.02Z"/><path d="M102.84,136.49l-.14-.58c2.05-.82,2.21,1.08,2.23,2,.13,7.23,.07,14.46,.07,21.95-1.57-.91-1.09-2.08-1.1-3.03-.05-5.76-.02-11.52-.03-17.27,0-1.13,.24-2.36-1.04-3.06Z"/><path d="M96.44,162.41c1.32,0,2.65,.01,3.97,.02-1.19,1.3-2.66,.34-3.99,.47-.03,0-.11-.15-.11-.23,0-.09,.08-.17,.12-.26Z"/><path class="cls-7" d="M60.63,29.19c-.58-.38-1.15-.77-1.73-1.15-1.47-1.42-2.95-2.83-2.31-5.19,1.15,.64,3.49,.11,2.66,2.71-.03,.09,.2,.31,.35,.39q2.03,1.01,1.02,3.24Z"/><path class="cls-10" d="M56.59,22.85c.24,1.96,1.94,3.28,2.31,5.19-3.17,.39-3.15-1.97-3.47-4.03,.23-.55,.61-.94,1.16-1.15Z"/><path class="cls-28" d="M54.27,24c-1.14,0-2.29,.01-3.43,.02-.73-.76-.6-1.53-.03-2.31,1.21,.17,2.29-.37,3.43-.62,.16,.12,.22,.25,.18,.39-.04,.14-.08,.21-.13,.21-2.21,.75-1.37,1.53-.02,2.31Z"/><path class="cls-24" d="M54.29,21.69c-.02-.2-.03-.4-.05-.6-.68-1.06-.56-2.25-.51-3.42,1.59,0,1.05,1.59,1.7,2.29,.49,1.15,.75,2.15-1.14,1.72Z"/><path class="cls-23" d="M68.14,22.25c1.15,.59,2.29,1.19,3.44,1.78-1.87,1.02-3.22,.32-3.44-1.78Z"/><path class="cls-4" d="M72.73,32.07c-.38,0-.76,0-1.14,.01-.6-.47-1-1.07-.9-1.86,.01-.1,.45-.24,.67-.22,1.27,.13,.97,1.33,1.37,2.06Z"/><path class="cls-38" d="M65.81,24c.4-.55,.79-1.11,1.19-1.66,.94,1.08,.8,2.1-.47,2.67-1.1,.49-.96-.32-.73-1.01Z"/><path class="cls-8" d="M58.88,19.38c1.31,.28,1.08,1.39,1.22,2.3-2.25,.22-.72-1.58-1.22-2.3Z"/><path class="cls-19" d="M75.57,29.78c.42,.28,.7,.63,.58,1.18-.42-.08-1.07-.02-1.21-.25-.26-.43,.24-.72,.63-.92Z"/><path class="cls-10" d="M69.33,28.02c.33-.22,.52-.45,.73-.46,.16-.01,.34,.24,.52,.38-.19,.17-.35,.43-.56,.48-.15,.04-.37-.21-.68-.4Z"/><path class="cls-31" d="M32.39,27.5c.16,1.58,1.42,.95,2.27,1.13,0,.46-.11,.88-.54,1.14-.6,.2-.94,.72-1.37,1.12-.75,.69-1.5,1.19-2.1-.16,0-.13-.02-.26-.02-.39,.91-1.52-1.06-1.92-1.18-3.03,.98,.06,1.97,.13,2.95,.19Z"/><path class="cls-5" d="M29.15,26.88c-1.83,1.08-3.75-.72-5.6,.25,1.44-1.33,3.18-.61,4.77-.87,.27,.21,.55,.41,.82,.62Z"/><path class="cls-15" d="M17.92,27.39c1.06,.31,1.93-.44,2.92-.53,0,0-.01,.12-.01,.12,.34,.35,.34,.7,0,1.05-.77,.6-1.54,1.21-2.32,1.81-.2-.82-.4-1.63-.6-2.45Z"/><path class="cls-40" d="M27.79,30.87c-1.38-.18-2.88,.62-4.14-.53,1.57-.62,3.13-1.07,4.7-.02-.13,.24-.32,.43-.57,.55Z"/><path class="cls-40" d="M27.79,30.87c.19-.18,.38-.37,.57-.55,.76,0,1.52,.01,2.28,.02,0,0,.09,.13,.09,.13,.04,.9-.41,1.43-1.27,1.64-.54-.43-.81-1.22-1.66-1.24Z"/><path class="cls-15" d="M20.84,28.03c0-.35,0-.7,0-1.05,.59-.02,1.49-.4,1.46,.57-.01,.57-.72,1.03-1.45,.48Z"/><path class="cls-5" d="M12.79,32.62c-1.08,.01-1.68-.71-2.23-1.49,1.21-.2,1.74,.61,2.23,1.49Z"/><path class="cls-6" d="M44.48,30.93c-2.48,2.16-4.47,2.16-6.35,0,.77-.1,1.54-1.69,2.31,0,.51-.49,1.02-.98,1.76-1.11,.43-.09,.86-.09,1.29-.02,.54,.19,1.18,.31,.98,1.14Z"/><path class="cls-40" d="M29.45,32.11c.42-.55,.85-1.09,1.27-1.64,.59,.58,1.18,1.14,1.64-.11,1.1-.46,1.22,.58,1.68,1.1,.4,.06,.79,.68,1.21,.03,.2-.2,.39-.18,.57,.01-.01,.36-.02,.72-.04,1.07-2.07,.02-4.15,.04-6.22,.05-.09-.16-.13-.34-.12-.53Z"/><path class="cls-32" d="M42.16,30.34c-.57,.19-1.14,.39-1.72,.58-.28-.84,2.17-3.51-1.43-2.13-.1-.44-.2-.89-.3-1.33,.96,0,1.91,0,2.87,0,.82,.84,1.02,1.79,.57,2.88Z"/><path class="cls-41" d="M34.04,31.46c-.56-.37-1.12-.73-1.68-1.1,.47-.56,.92-1.16,1.76-.58-.03,.56-.06,1.12-.09,1.68Z"/><path class="cls-13" d="M35.82,31.51c-.19,0-.38,0-.57-.01,.16-.44-.34-1.36,.54-1.23,.62,.09,.66,.8,.04,1.25Z"/><path class="cls-19" d="M84.93,28.04c-.86,1.04-.66,2.27-.61,3.47-.86-1.34-1.35-2.62,.61-3.47Z"/><path class="cls-18" d="M50.24,25.14c1.11,2.26-.71,1.6-1.73,1.74,0,0,0,0,0,0-.17-.19-.37-.35-.58-.48-1.12-.62-2.2-.3-3.29,.12-.59-.02-.97-.38-1.32-.79-.53-.45-2.34,1.05-1.73-1.13,.45-.47,.9-.94,1.65-.63,1.82,.5,2.16-2.57,4.13-1.71,.76,0,1.52,.02,2.27,.02,.2,.17,.33,.38,.4,.63,.07,.74-.65,1.55,.19,2.23Z"/><path class="cls-1" d="M43.24,23.97c-.55,.21-1.1,.42-1.65,.63-.02-.22-.04-.43-.06-.65,.05-.77,.51-1.27,1.23-1.24,.91,.03,.4,.81,.49,1.27Z"/><path class="cls-34" d="M43.32,25.73c.48,0,.9,.12,1.15,.58,.3,.2,.68,.3,.91,.6,.35,.52,.99,.68,1.4,1.13-.19,.58-.38,1.15-.58,1.73-1.16,.47-2.03-.33-3-.67-1.29-.73-.22-1.86-.47-2.78,.19-.2,.39-.39,.58-.59Z"/><path class="cls-43" d="M42.74,26.32c1.47,.45-.53,1.78,.59,2.31,.11,.57,.13,1.15,0,1.72-.39,0-.78,0-1.17,0-.54-.89-.62-1.87-.57-2.88,.02-.74,.4-1.14,1.15-1.14Z"/><path class="cls-26" d="M49.69,22.84c0-.19-.02-.37-.04-.56,0-.19,.02-.38,.03-.57,.38,0,.75,0,1.13,0,0,.77,.02,1.54,.03,2.31,0,0,0,0,0,0-1.11,.31-.67-.88-1.14-1.18Z"/><path class="cls-42" d="M57.23,29.92q-4.75,2.67-5.59-1.06c1.49,2.94,3.76,.32,5.59,1.06Z"/><path class="cls-11" d="M53.68,25.42c1.27,.68,1.49,1.71,1.38,2.85,0,.09-.57,.27-.72,.17-1.18-.77-.31-2.04-.67-3.02Z"/><path class="cls-28" d="M49.69,22.84c.38,.39,.76,.79,1.14,1.18-.2,.37-.39,.75-.59,1.12-1.86-.37-.74-1.45-.55-2.3Z"/><path class="cls-39" d="M43.33,30.35c-.35-.57-.37-1.15,0-1.72,.96,.38,1.92,.76,2.88,1.14,.61,2.14-1.16,.76-1.73,1.16-.25-.47-.68-.57-1.15-.58Z"/><path class="cls-15" d="M46.78,28.04c-.97,.19-1.98,.46-1.74-1.16,1.02-1.04,2.18-1.2,3.47-.57,0,.19,0,.39,0,.58-.83,0-1.4,.39-1.73,1.15Z"/><path d="M41.65,109.4c.65,1.13,.81,2.26,.02,3.4-1-1.13-1-2.26-.02-3.4Z"/><path class="cls-9" d="M48.51,26.31c-1.16,.19-2.31,.38-3.47,.57-.19-.19-.38-.38-.57-.57,1.34-1.69,2.69-1.31,4.04,0Z"/></g></g></svg>