<?xml version="1.0" encoding="utf-8"?>
<!-- Generator: Adobe Illustrator 25.0.0, SVG Export Plug-In . SVG Version: 6.00 Build 0)  -->
<svg version="1.1" id="Calque_1" xmlns="http://www.w3.org/2000/svg" xmlns:xlink="http://www.w3.org/1999/xlink" x="0px" y="0px"
	 viewBox="0 0 500 500" style="enable-background:new 0 0 500 500;" xml:space="preserve">
<style type="text/css">
	.st0{fill:#5A5A5A;}
	.st1{fill:#AFAFAF;}
	.st2{fill:#EDEDED;}
	.st3{fill:#DEDEDE;}
	.st4{fill:#9C9C9C;}
	.st5{fill:#A1A1A1;}
	.st6{fill:#9D9D9D;}
	.st7{fill:#838383;}
	.st8{fill:#757575;}
	.st9{fill:#858585;}
	.st10{fill:#CDCDCD;}
	.st11{fill:#828282;}
	.st12{fill:#909090;}
	.st13{fill:#848484;}
	.st14{fill:#A5A5A5;}
	.st15{fill:#EAEAEA;}
	.st16{fill:#F2F2F2;}
	.st17{fill:#C4C4C4;}
	.st18{fill:#E5E5E5;}
	.st19{fill:#C2C2C2;}
	.st20{fill:#979797;}
	.st21{fill:#E4E4E4;}
	.st22{fill:#D2D2D2;}
	.st23{fill:#ECECEC;}
	.st24{fill:#CACACA;}
	.st25{fill:#E3E3E3;}
	.st26{fill:#CECECE;}
</style>
<g>
	<path class="st0" d="M363.9,111.8c5.3-0.2,4.1,3.8,3.9,6.7c-1.2,16.2-6.5,31.1-15.9,44.1c-24.9,34.1-59.2,51.4-100.9,53
		c-48.5,1.9-101-27.3-119.2-74.8c-2.5-6.4-3.5-13.1-4.5-19.9c-0.8-5.1-1.2-10,6.6-9.4c1.1,0.1,2.3-1.5,3.4-2.4
		c1.9-3.1,4.6-2.6,7.5-1.7c3.4,1.1,6.7,2.2,10.4,1.9c3.6,0.3,7.1-1.5,10.7-0.2c7,0.4,14-0.1,21,0c15,1.2,29.9-1.7,44.9,0.2
		c1.9,0.2,3.9-0.2,5.7-0.7c8.6,5.2,16.7,3.2,26,0.5c11.2-3.2,23.5-1.7,35.4-0.7c2.6,0.2,5.3,0.7,7.9-0.4c1.5-0.5,3-0.5,4.6-0.1
		c4.5,2,9.1,1.1,13.7,0.6c1.2,0,2.4,0,3.5-0.2c5.5,1.1,11-1.7,16.5,0.3c1.2,0.4,2.5,0.4,3.8,0.6
		C354.1,108.4,359.3,108.6,363.9,111.8z"/>
	<path class="st1" d="M112,294.6c0-9-0.1-18,0-27.1c0.2-15.3,9.6-24.2,24.5-23.6c14.7,0.6,23.4,10.6,22.7,25.6
		c-0.2,5.4-2.8,6.5-7.4,6.5c-4.5,0-7.7-0.8-7.5-6.3c0.2-6.2-1.2-11.4-9-11.3c-5.2,0-8.5,2.4-8.6,7.8c-0.1,19-0.2,38,0.1,57.1
		c0.1,5.4,3.4,8.6,9,8.4c5.3-0.2,7.9-3.5,8.3-8.5c0.3-4.6,0.1-9.3,0.1-13.9c0-2.7-0.7-4.9-3.8-5.3c-5.9-0.7-4.8-5.1-4.7-8.9
		c0.2-4.5,3.6-4.4,6.9-4.6c16.5-0.8,16.5-0.8,16.5,15.4c0,6.1,0.1,12.2-0.1,18.3c-0.6,13.1-9.8,21-24,20.9
		c-13.6-0.1-22.5-8.2-22.9-21.2C111.9,314.2,112.1,304.4,112,294.6C112.1,294.6,112.1,294.6,112,294.6z"/>
	<path class="st0" d="M112.5,404.5c0-14.4,0.1-28.8,0-43.2c0-4,0.8-6.4,5.6-6.3c12.2,0.2,24.3,0.2,36.5,0c4.9-0.1,5.7,2.3,5.5,6.3
		c-0.1,3.7,0.4,7.5-5.4,7.2c-6.8-0.3-13.7,0.3-20.4-0.2c-6-0.4-7.9,2.1-7.3,7.6c0.3,2.4,0,4.9,0,7.3c0,13.2,0,13.5,12.7,14.4
		c5.4,0.4,4.7,3.7,4.7,7.1c0,3.3,0.8,6.7-4.6,7.1c-12.8,1-12.7,1.3-12.7,14.5c0,7.3-0.2,14.6,0,22c0.2,5.8-3.5,5.3-7.3,5.3
		c-3.7,0-7.4,0.5-7.4-5.2C112.6,433.7,112.5,419.1,112.5,404.5C112.5,404.5,112.5,404.5,112.5,404.5z"/>
	<path class="st2" d="M306.5,110.5c-9.2,3.4-18.7,0.3-28,0.9c-9.6,0.6-19.5-1.4-26.4,7.8c-1.6,2.1-3.3,1.3-4.9-0.3
		c-2.6-2.5-5.4-4.9-8-7.3c-4.7-0.9-9.4-1.1-9.6-8c-0.1-2.5-5.5-3.7-4.6-8.1c0.1-0.7-2.8,1.1-4.4,0.5c-2.6-1.1-6.9-1.1-4.1-6.1
		c0.3-0.6-2.5-1.2-3.3-2.6c-0.6-1.1-1.2-2.1-1.8-3.2c2.9-4.1,4.7-10,11.9-7.3c0.6,4.2,2,6.8,6.5,3.5c2.2-1.6,4.4-1.9,6.8-0.5
		c0.1,0.3,0.2,0.6,0.3,0.9c2.2,2.2,3.4,5.5,7.1,6c10,1.6,10,1.6,16.7,9c-2.3-5.2-5.8-7.1-10.1-8c-2.3-0.5-5.8,0.5-6.1-3.6
		c0.1-0.8,0.5-1.4,1-2c0.6-0.6,1.2-0.9,2-1.1c2.5-0.5,4.6,0.5,6.6,1.9c4.3-2.5,7.8-5.3,12.3,1c3.9,5.3,13.1,4.6,16.7,0.5
		c6.1-3.1,11-1.1,13.7,5.7c1,5,7.6,5.4,8.6,10.5C307.4,103.5,310.8,106.5,306.5,110.5z"/>
	<path class="st3" d="M220.3,92.9c4.2-2,8.2-1.7,12.4-0.1c-0.7,3.1-4.4,2-4.8,4.7c1.9,2,3.5-0.2,5.2-0.4c2-0.2,3.2,1,4.1,2.5
		c0.8,1.3,1.4,3.1,0,3.9c-8.6,5.1-0.3,5.8,2,8c-17.4,0.1-34.8,0.1-52.2,0.2c-0.6-0.4-0.8-1-0.5-1.7c1.4-2.1,3.6-1.6,5.6-1.8
		c1.7-0.2,3.9,0.4,4.1-2.4c0-2-0.3-4.1,0.5-6c0.6-1.4,2-2,3.3-2.6c2.4-1,5.5,0,7.2-2.8c1-1,2-2,2.9-3
		C213.3,93.7,216.4,96,220.3,92.9z"/>
	<path class="st4" d="M164.9,91.3c5.2-3.9,8.6-9.9,15-12.3c2-0.7,4.2-1.4,6.3-1.7c5.6-0.8,12.2-1.8,15.8,2.4
		c2.8,3.3-3.2,7.3-3.9,11.5c0,3.1-0.2,6.1-3.2,7.9c-1,0.6-2.3,1.5-3.4,1c-7.2-3.5-14.2-1.2-21.2,0.6c-3.6-0.1-7.5,1-9.8-3.2
		C159.9,94.2,161.3,92,164.9,91.3z"/>
	<path class="st5" d="M296.6,89.9c-4.5-2-8.7-4.8-13.7-5.7c-7.2-7.4-16.7-12.2-23.6-20.5c11.5-1,38.6,14.6,46.9,26.9
		C302.9,92.5,299.8,90.6,296.6,89.9z"/>
	<path class="st5" d="M223.2,76.6c-4,2.4-7.9,4.9-11.9,7.3c-2.2-4,1.5-6,3.1-8.5c8.6-13.2,20.4-22.9,34.1-30.7
		C244.9,59.3,232.9,67,223.2,76.6z"/>
	<path class="st6" d="M134.2,95.7c-0.5-4,1.4-5.5,5.3-5.7c3.9-0.2,7.4,1.3,11.2,1.8c1.5-0.9,2.8-0.4,4,0.6c1.8,3.5,6.2,5.5,6.3,10.1
		c-0.1,0.8-0.3,1.5-0.8,2.1c-3.8,4.9-7.8,3.1-11.9,0.3C143.4,102.2,138.6,99.3,134.2,95.7z"/>
	<path class="st7" d="M347.5,111.8c-1,0-2,0.1-2.9,0.1c-0.4-0.2-0.8-0.6-1.3-0.6c-11-1-12.5-3.3-9.1-14.1c3.4-2,5.6-6.2,10.4-5.7
		c5,4.3,1.5,11.1,4.8,16C349.7,109.3,348.8,110.7,347.5,111.8z"/>
	<path class="st6" d="M154.6,111.7c-6.1,1.2-11.6-1.4-17.3-2.5c-1.7-3.1-2.8-6.4-2.9-10c5.6-3.8,9.7,0.2,14,2.8
		c2.8,2.2,5.3,4.7,7,7.9C155.3,110.5,155,111.2,154.6,111.7z"/>
	<path class="st8" d="M334.2,97.2c0.5,1.1,1.4,2.3,1.3,3.3c-0.7,6.9,3,10.1,9.1,11.4c-5.4,0-10.8-0.1-16.2-0.1c-4-2-6.4-5.1-5.5-9.8
		c0.7-3.9,3.6-4.6,7-4.4C331.4,97.5,332.8,97.4,334.2,97.2z"/>
	<path class="st9" d="M329.9,97.6c-6.2,4.1-4.1,9.2-1.5,14.2c-0.9,0-1.9,0-2.8,0.1c-8.1-0.3-8.3-5.8-7.6-11.8c0.2-3.7,1.5-6.6,5.8-7
		C327.4,92.6,329.2,94.4,329.9,97.6z"/>
	<path class="st10" d="M220.3,92.9c-2.7,3.2-3.3,7.1-3,12.3c-3.3-5.1-9.4-7.2-7.2-13.7c1-1.4,2-2.9,3-4.3c4.2,1.7,6.5-5.6,11.4-2.2
		c-0.9,2.7-3.7,3.3-5.5,5C216.5,92.4,218.3,92.7,220.3,92.9z"/>
	<path class="st11" d="M347.5,111.8c0-1.4,0-2.8,0-4.2c0.3-2.1-0.6-5.1,3.3-4.7c7.6-1.8,10.9,2.6,13.1,8.8
		C358.5,111.8,353,111.8,347.5,111.8z"/>
	<path class="st12" d="M350.9,103c-1.1,1.6-2.2,3.1-3.3,4.7c-4.2-4.8-2.6-10.7-2.9-16.2C351.3,92.8,352.9,96.9,350.9,103z"/>
	<path class="st13" d="M306.5,110.5c0.1-3.4-4.1-6.4-1.3-10.2c5.2-1.6,8.2,0.2,8.8,5.7c1,2.8,0.3,4.6-3,4.6
		C309.5,110.6,308,110.5,306.5,110.5z"/>
	<path class="st14" d="M153.2,93c-0.9-0.4-1.7-0.8-2.6-1.2c4.5-6.1,9.4-3,14.2-0.5c-1,2-2,3.9-3,5.9c-0.9,1.8-2.1,2.9-3.8,1
		C156.5,96.5,154.8,94.8,153.2,93z"/>
	<path class="st15" d="M236.5,79.6c3.9-2.3,7.1-5.8,11.7-7.1c1.2,3.7,5.3,7.7-1.5,10.2l0,0c-7.2,3.2-9.1,2.7-10.3-2.9L236.5,79.6z"
		/>
	<path class="st8" d="M311,110.7c1-1.5,2-3.1,3-4.6c2.9-1,2.4-4.2,4.1-6c2.4,4,2.1,9.8,7.6,11.8C320.7,111.7,315.7,112.8,311,110.7z
		"/>
	<path class="st16" d="M194.1,97.4c1.3-2,2.6-4,4-6.1c0.6,0.6,1.2,1.1,1.9,1.7c1.5,1.7,3.1,3.3,1.5,5.8c-1,0.5-2,1-3,1.5
		c-1.4,1.1-2.9,1.4-4.5,0.4C193.1,99.6,193.2,98.5,194.1,97.4z"/>
	<path class="st17" d="M201.4,98.8c-0.5-1.9-1-3.9-1.5-5.8c2.4,0.5,4.8,1,7.3,1.4C207.1,98.4,207.5,103,201.4,98.8z"/>
	<path class="st18" d="M148.7,103.3c-4.3-3.1-9-4.9-14.4-4.1c0-1.1-0.1-2.3-0.1-3.4c5.9,0.6,11.3,2.2,15.9,6.1
		C150.5,103.1,150.1,103.7,148.7,103.3z"/>
	<path class="st19" d="M246.7,82.7c2.9-3.1,0.9-6.8,1.5-10.2c4.6,1.9,3.6,7,5.8,10.2C251.5,82.7,249.1,82.7,246.7,82.7z"/>
	<path class="st4" d="M154.6,111.7c0-0.4,0-0.8,0-1.2c-0.3-3.5,3.3-4.7,4.4-7.3l-0.1,0.1c2.4-4.4,7.5-4.2,11.1-6.6
		c8.2-2.4,15.9-2.6,22.1,4.6c0.4,1.1,0.3,2.3-0.3,3.3c-0.4,0.6-0.9,1.1-1.5,1.6c-0.4,0.2-0.9,0.6-1.3,0.5c-8-1.1-15.5,1-22.8,3.9
		c-0.5,0.4-1,0.8-1.5,1.3C161.4,111.8,158,111.7,154.6,111.7z"/>
	<path class="st20" d="M164.8,111.8c0-0.3,0-0.7,0-1c6-7.1,15.6-8.3,22.5-2.7c0.2,0.8,0.1,1.6-0.3,2.4c0,0.4,0,0.8,0,1.3
		C179.6,111.8,172.2,111.8,164.8,111.8z"/>
	<g>
		<path class="st1" d="M283.5,243c-11,0.2-21.2,11.2-21.4,23.3c-0.3,16.9-1,33.7-0.7,50.6c0.2,9.8,1.5,19.5,12,24.9
			c8.7,4.4,17.3,5,25.9,1c8.3-3.9,11.7-11.4,11.7-20.4c0.1-9.3,0-18.5,0-27.8c0-9.5,0.2-19-0.1-28.5
			C310.5,251.6,299.8,242.8,283.5,243z M295.7,268.8c-1.1,17.5-0.4,35-0.3,52.5c0,5.4-3.9,9.5-8.7,9.8c-5.3,0.4-7.9-4-7.9-9.4
			c0-9,0-18,0-27.1c0,0,0,0,0,0c0-8.5,0-17.1,0-25.6c0-5.6,0.9-10.6,8-10.6C293.4,258.5,296,263.3,295.7,268.8z"/>
		<path class="st1" d="M210.9,243.4c-10.3-1.9-26,9.3-25.7,22.6c0.4,16.9-0.7,33.9-0.3,50.8c0.2,9.7,1.7,19,11.8,24.7
			c8.7,4.8,17.3,5.1,25.9,1.5c8.6-3.7,12.4-11.3,12.4-20.7c0-9.3,0-18.5,0-27.8c0,0,0,0,0.1,0c0-7.6,0-15.1,0-22.7
			C235,252.6,229.5,246.9,210.9,243.4z M218.5,303.1c-0.6,6.9,0.8,13.7-0.5,20.7c-1,5.3-4.1,7.2-7.8,7.5c-4.2,0.4-7-3.1-8-7.2
			c-1.4-5.3-0.6-10.7-0.7-16c-0.1-4.6,0-9.3,0-13.9c0,0,0.1,0,0.1,0c0-8.8-0.1-17.6,0.1-26.3c0.1-3.8,1.6-7.2,5.4-8.8
			c3.9-1.6,7.8-0.4,10,2.4c2.7,3.5,1.6,8.5,1.6,12.8C218.7,283.9,219.4,293.6,218.5,303.1z"/>
		<path class="st0" d="M235,404.8C235,404.8,235,404.8,235,404.8c0-9.5,0.1-19-0.1-28.5c-0.2-9-3.8-16.5-12.3-20
			c-8.7-3.6-17.6-6.1-26.5,0.9c-3,2.4-5.5,4.1-7.4,7.8c-3.3,6.4-2.8,13-3.2,19.5c-0.4,6.8,0.4,13.6,0.4,20.4
			c0,6.9-0.9,13.7-0.5,20.5c0.6,9.2,0.1,18.6,10.1,24.8c9.1,5.7,18,6.4,26.9,2.3c8.9-4.1,12.8-12.2,12.6-22.2
			C234.9,421.9,235,413.3,235,404.8z M219.6,401.5c-0.1,9.9-0.6,19.7-0.1,29.6c0.2,4.3-3.3,9.2-8.6,10.1c-5.2,0.8-9.3-4.1-9.4-10.7
			c-0.2-9-0.1-18-0.1-27c0-8.5,0-17,0-25.5c0-4.1,1.1-7.5,5.1-9.7c4.4-2.4,7.3,0.4,10.7,2.2c3.7,2,2.5,6.6,2.3,8.8
			C218.8,386.8,219.7,394.1,219.6,401.5z"/>
		<path class="st0" d="M310.9,376c-0.4-12.9-8-20.2-20.6-22.5c-5.8-1.1-10.8,0-15.7,1.8c-6.2,2.3-10.9,8.1-12.2,13.8
			c-1.7,7.8,0.1,16.3-0.2,24.4c-0.4,10.4,0,20.7-0.1,31c0,10.2-0.3,19.3,9.7,25.9c8.4,5.5,17,6,25.6,2.7
			c9.1-3.5,13.2-11.2,13.5-20.8c0.2-9.3,0-18.5,0-27.8C311,395,311.2,385.5,310.9,376z M294.5,433.5c-1.1,5.1-4.3,7.4-7.9,7.6
			c-5.3,0.2-8.4-4-8.6-9.1c-0.4-9.2-0.1-18.5-0.1-27.8c-0.1,0-0.1,0-0.2,0c0-8.8-0.3-17.6,0.1-26.3c0.5-9.6,7.3-12.8,14.9-7.9
			c4.1,2.6,2.6,6.8,2.7,10c0.5,10.7,0.2,21.4-0.3,32C294.7,419.1,296.1,426.2,294.5,433.5z"/>
		<path class="st0" d="M386.9,372.9c-1.2-11.4-9.2-17.4-20.7-17.7c-6.1-0.2-12.2,0.2-18.3-0.1c-5.3-0.3-6.6,1.9-6.5,6.8
			c0.2,14.2,0.1,28.3,0.1,42.5c0,14.2,0.2,28.3-0.1,42.5c-0.1,4.9,1.2,7.2,6.5,6.9c5.8-0.4,11.7,0,17.5-0.1
			c11.8-0.3,20.1-6.3,21.4-17.9C389.2,414.8,389,393.7,386.9,372.9z M365.9,439.7c-7.2,2.1-9.8,0.2-9.8-7.3c0-9.5,0-19,0-28.5
			c0-9.3-0.1-18.5,0.1-27.8c0.1-3-1.7-7.4,4-7.6c5-0.1,10,0,12,5.8c0.6,1.6,0.6,3.4,0.6,5.1c0,16.6-0.1,33.1,0,49.7
			C372.9,434.3,371.3,438.2,365.9,439.7z"/>
		<path class="st1" d="M349.5,344.7c5.8-0.4,11.7,0,17.5-0.7c13.2-1.7,20-9.3,20.1-22.5c0.2-18,0.2-36.1,0-54.1
			c-0.2-13.2-8.3-21.3-21.5-21.9c-5.3-0.2-10.7,0.2-16.1-0.1c-5.9-0.4-8.3,1.9-8.2,8c0.3,13.9,0.1,27.8,0.1,41.7c0,0,0,0,0,0
			c0,13.9,0.2,27.8-0.1,41.7C341.2,342.8,343.6,345.1,349.5,344.7z M361.7,259c5.5,0.1,10.4,1.7,10.6,8.4c0.3,9,0.1,18,0.1,27
			c0,0,0,0,0.1,0c0,8.8,0,17.5,0,26.3c0,4-1.6,7.1-5.3,8.8c-6.5,3-10.9,0.3-11-6.8c-0.1-18.5,0-37,0-55.4
			C356.2,263.2,355.8,258.8,361.7,259z"/>
	</g>
	<path class="st21" d="M245.2,84.2c2.9,2.3,6.2,2,9.7,2c3.5,0,7.6-0.2,8.2,4.9c0.2,1.6,1.1,1.7,2.5,1.8c2.8,0,4.1,1.6,2.9,4.2
		c-0.9,2-2.2,3.8-5,2.9c-3.6-1.2-7.7-1.4-9.3-5.8c-1.8-5-5.8-6-10.5-5.6C242.8,86.6,241.7,84.6,245.2,84.2z"/>
	<path class="st22" d="M245.2,84.2c-0.5,1.4-1,2.9-1.5,4.3c-2.1,0.2-5.5,2.5-5.7,1.5c-0.7-3.6-3.3-5.6-4.8-8.3
		c-0.6-1.2,1.8-1.6,3.2-1.9c2.5,4.3,6.7,2.5,10.3,2.9C246.2,83.2,245.7,83.7,245.2,84.2z"/>
	<path class="st23" d="M187,110.5c-0.2-0.4-0.3-0.9-0.4-1.3c-1.9-3.5,1.5-3.3,3-4.4l0,0c3.8-2.6,6.9,0.1,10.1,1.4
		c1.9,0.2,3.7,0.5,5.3,2.8C199.1,111.8,192.9,110,187,110.5z"/>
	<path class="st24" d="M199.8,106.2c-3.4,0-7,1-10.2-1.4c0.4-1,0.8-1.9,1.3-2.9c0.5-1.5,1.8-1.6,3.1-1.6c1.4,0,2.9,0,4.3,0
		C198.9,102.3,199.4,104.2,199.8,106.2z"/>
	<path class="st25" d="M194,100.3c-1,0.5-2,1.1-3.1,1.6c-6.2-6.7-13.9-6.2-21.8-4.3c-0.4-0.4-0.6-0.7-0.4-1c0.2-0.3,0.3-0.5,0.5-0.5
		c8.5-3.9,16.6,0,24.8,1.4C194.1,98.4,194,99.3,194,100.3z"/>
	<path class="st26" d="M169.3,96c0,0.5-0.1,1-0.1,1.5c-3.4,1.9-6.8,3.8-10.2,5.7c-0.3-4.3-5.3-6-5.7-10.3c3.6-0.1,4.6,5.2,8.7,4.2
		C164.7,99.1,166.8,96.6,169.3,96z"/>
	<path class="st26" d="M159,103.2c-0.7,2.9-2.4,5.2-4.4,7.3c-2-2.4-3.9-4.8-5.9-7.3c0.5-0.5,1-1,1.4-1.5
		C152.8,104.3,155.4,106.9,159,103.2z"/>
	<path class="st24" d="M189.7,104.8c-1,1.5-2,2.9-3,4.4c-7-4.7-13.2-4.2-21.8,1.6c2.5-7.6,9.2-6.9,15-7.2
		C183.1,103.4,186.4,104.3,189.7,104.8z"/>
</g>
</svg>
