<?xml version="1.0" encoding="utf-8"?>
<!-- Generator: Adobe Illustrator 25.0.0, SVG Export Plug-In . SVG Version: 6.00 Build 0)  -->
<svg version="1.1" id="Calque_1" xmlns="http://www.w3.org/2000/svg" xmlns:xlink="http://www.w3.org/1999/xlink" x="0px" y="0px"
	 viewBox="0 0 500 500" style="enable-background:new 0 0 500 500;" xml:space="preserve">
<style type="text/css">
	.st0{fill:#FFFFFF;}
	.st1{fill:#BFBFBF;}
	.st2{fill:#ABABAB;}
	.st3{fill:#949494;}
	.st4{fill:#757575;}
	.st5{fill:#020202;}
	.st6{fill:#FDFDFD;}
	.st7{fill:#CCCCCC;}
	.st8{fill:#B2A122;}
	.st9{fill:#060606;}
	.st10{fill:#070707;}
	.st11{fill:#080808;}
	.st12{fill:#C5C5C5;}
	.st13{fill:#B8B8B8;}
	.st14{fill:#030303;}
	.st15{fill:#8F8F8F;}
	.st16{fill:#A8A8A8;}
	.st17{fill:#FAFAFA;}
	.st18{fill:#F1F1F1;}
	.st19{fill:#F3F3F3;}
</style>
<g>
	<path class="st0" d="M210.1,71.4c25.9,0,51.8,0,77.7,0c0.1,0.2,0.1,0.4,0,0.6c-1.8,1.1-3.9,1.1-5.8,2.1c-1.4,0.7-2.8,1.4-3.9,2.5
		c-3.5,3.2-3.1,7.1-1.9,11.1c0.8,2.7,2.6,4.8,4.9,6.5c2,1.5,2.6,3.1,2.1,4.7c-0.4,1.4-1.1,1.7-2.4,1.1c-1.1-0.5-2.1-1.1-3.1-1.7
		c-1.9-1.2-4.2-1.2-6.4-1.4c-1.5-0.2-3.1-0.3-4.6-0.4c-9.4-0.4-18.8-0.7-28.2-0.3c-4.8,0.2-9.7,0.3-14.4,1c-1.6,0.2-3,0.8-4.3,1.6
		c-0.5,0.3-0.9,0.6-1.5,0.8c-0.9,0.3-1.6,1.2-2.7,0.4c-0.7-0.5-1-2.5-0.5-3.5c0.4-1,1.2-1.8,2.1-2.4c4.3-3.2,6.1-7.6,5.5-12.9
		c-0.3-2.8-2.3-4.7-4.7-6.2c-2.2-1.3-4.5-2-6.9-2.6c-0.4-0.1-0.7-0.2-1-0.4C210,71.8,210,71.6,210.1,71.4z"/>
	<path class="st1" d="M6.9,428.6c0-4.8-0.1-9.5-0.1-14.3c0-2.7-0.2-5.3,0.1-8c1.3,0.3,1.1,1.5,1.1,2.4c0.1,4.7,0,9.5,0,14.2
		c0,4.2,0.4,4.6,4.6,4.6c158.7,0,317.3,0,476,0c1.6,0,3.3-0.3,4.9,0.4c0.2,0.1,0.4,0.3,0.5,0.4c-0.1,0.1,0.2,0.4-0.2,0.3
		c-0.5,0-0.9,0-1.4,0C330.7,428.6,168.8,428.6,6.9,428.6z"/>
	<path class="st2" d="M494.1,428.2c-0.1,0-0.3,0-0.4,0c-0.8-0.7-0.7-1.7-0.8-2.7c0-6-0.2-12.1,0-18.1c0.5-10.9,0.2-21.9,0.3-32.8
		c0.1-18.3,0-36.6,0-54.9c0-0.7-0.2-1.4,0.4-1.9c0.1,0,0.3,0,0.4-0.1C494.1,354.6,494.1,391.4,494.1,428.2z"/>
	<path class="st3" d="M287.8,71.7c0-0.1,0-0.2,0-0.3c1.5,0,3,0,4.4,0c0,0.1,0,0.2,0,0.3C291,72.7,289,72.7,287.8,71.7z"/>
	<path class="st4" d="M210.1,71.4c0,0.1,0,0.2,0.1,0.3c-1.3,1-2.6,1-3.9,0c0-0.1,0-0.2,0.1-0.3C207.6,71.4,208.9,71.4,210.1,71.4z"
		/>
	<path class="st5" d="M206.3,71.7c1.3,0,2.6,0,3.9,0c3.1,0.2,5.9,1.2,8.5,2.8c4.8,3.2,5.4,5.9,4.7,10.9c-0.5,3.6-2.4,6.6-5.3,8.9
		c-0.2,0.2-0.5,0.3-0.7,0.5c-1.8,1.4-2,2.6-1.2,4.9c0.9-0.1,1.6-0.6,2.3-1.1c2.6-1.8,5.6-2.4,8.7-2.6c5.3-0.4,10.7-0.6,16-0.8
		c9.4-0.3,18.8,0.2,28.2,0.8c3.1,0.2,6,0.9,8.5,2.6c0.6,0.4,1.4,0.7,2.1,1.1c1.1-2,0.8-3.4-0.8-4.7c-0.2-0.2-0.5-0.3-0.7-0.5
		c-4.4-3.4-6.2-8-5.7-13.5c0.2-2.2,1.4-3.8,3-5.2c2.9-2.4,6.2-3.8,9.9-4.2c1.5,0,3,0,4.5,0c4.1,0.4,7.7,2.1,10.7,4.8
		c4.9,4.2,7.7,9.7,9.1,15.9c1.4,6.4,1.2,12.8,0.2,19.2c-2.4,15.5-7.9,29.9-15.5,43.5c-5,8.9-10.1,17.7-15.6,26.3
		c-2.7,4.1-5.6,8-8.9,11.7c-1.5,1.7-3,3.5-4.4,5.2c-1,1.1-1.8,2.3-2.6,3.6c-1.7,2.9-1.4,6.2,0.9,8.7c1,1.1,2.1,1.9,3.3,2.7
		c1.8,1.2,3.6,2.4,5.4,3.7c0.4,0.3,0.9,0.5,1.4,0.5c0.4,0,0.8,0,1.2,0c11.9,0,23.7,0,35.6,0c1.5,0,2.6,0.4,3.7,1.6
		c3.8,4.1,7.6,8.2,11.5,12.2c0.3,0.3,0.5,0.7,0.8,0.9c1.4,0.7,1.3,1.9,1.3,3.2c0,16,0,31.9,0,47.9c0,0.4,0,0.8,0,1.2
		c0,1.3,0,1.3,1.4,1.3c0.5,0,0.9,0,1.4,0c37.2,0,74.3,0,111.5,0c1.4,0,2.5,0.3,3.6,1.1c14.5,10.1,29.1,20.1,43.6,30.1
		c0.6,0.4,1.2,1,2,0.9c0,0.7,0.1,1.5,0.1,2.2c0,35.3,0,70.6,0,106c0,0.7,0,1.5-0.1,2.2c-0.8,0-1.6,0-2.4,0c-160.3,0-320.7,0-481,0
		c-0.5,0-0.9,0-1.4,0c-1.8,0-1.9,0-1.9-1.9c0-6,0-12,0-18c0-0.7,0.1-1.4-0.1-2c0-0.9,0-1.7,0-2.6c0-39.7,0-79.3,0-119
		c0-1.1-0.4-2.4,0-3.3c0.5-0.9,1.8-1.3,2.8-1.9c12.8-7.9,25.6-15.8,38.4-23.7c1.2-0.7,2.3-1.1,3.7-1.1c38,0,75.9,0,113.9,0
		c2.7,0,2.4,0.4,2.4-2.4c0-5.7,0-11.4,0-17.1c0-1.4,0.3-2.3,1.4-3.3c2.9-2.7,5.6-5.6,8.4-8.5c1.6-1.7,3.3-3.3,4.9-5
		c0.7-0.8,1.5-1,2.6-1c11.9,0,23.8,0,35.7,0c1.2,0,2.2-0.2,3.1-1c1.3-1.1,2.8-1.9,4.2-2.9c1.2-0.8,2.4-1.7,3.5-2.7
		c2.5-2.6,2.9-6,1.1-9c-1.1-1.9-2.4-3.6-3.9-5.2c-7.6-8.2-13.7-17.6-19.3-27.3c-4.1-7.1-8.5-14.1-12-21.5
		c-4.9-10.3-8.8-20.9-11-32.1c-1.2-6.3-1.9-12.6-1.2-19c0.8-7.5,3.3-14.2,8.9-19.5C197.7,74.1,201.6,72,206.3,71.7z"/>
	<path class="st6" d="M329.2,319.4c0,27.7,0,55.4,0,83.1c0,2.8,0.3,2.4-2.3,2.4c-51.8,0-103.7,0-155.5,0c-2.5,0-2.2,0.3-2.2-2.3
		c0-55.5,0-110.9,0-166.4c0-2.6-0.3-2.3,2.2-2.3c51.9,0,103.8,0,155.7,0c2.4,0,2.2-0.3,2.2,2.2C329.2,263.9,329.2,291.7,329.2,319.4
		z"/>
	<path class="st6" d="M88,405c-25.9,0-51.9,0-77.8,0c-2.3,0-2.1,0.3-2.1-2.1c0-39.5,0-79,0-118.5c0-0.2,0-0.5,0-0.7
		c0-1.5,0-1.5,1.5-1.5c0.3,0,0.6,0,0.9,0c51.8,0,103.6,0,155.3,0c2.6,0,2.3-0.3,2.3,2.3c0,39.5,0,78.9,0,118.4
		c0,2.5,0.3,2.2-2.2,2.2C139.9,405,113.9,405,88,405z"/>
	<path class="st6" d="M411.7,405c-25.9,0-51.9,0-77.8,0c-0.5,0-0.9,0-1.4,0c-2,0-1.9,0.1-1.9-1.8c0-27.4,0-54.8,0-82.3
		c0-0.3,0-0.7,0-1c0-0.7,0.3-0.9,0.9-0.9c0.5,0,0.9,0,1.4,0c52.6,0,105.3,0,157.9,0c0.2,0,0.3,0,0.5,0c1.7,0,1.7,0,1.7,1.7
		c0,27.5,0,55.1,0,82.6c0,0.3,0,0.6,0,0.9c0,0.7-0.3,0.9-0.9,0.9c-0.5,0-1,0-1.5,0C464.2,405,438,405,411.7,405z"/>
	<path class="st7" d="M489.9,317.4c-0.5,0-1.1,0.1-1.6,0.1c-51.9,0-103.9,0-155.8,0c-2.3,0-2.1,0.2-2.1-2.1c0-8.8,0-17.6,0-26.3
		c0-0.3,0-0.6,0-0.9c0.1-1.2,0.1-1.3,1.2-1.3c0.4,0,0.8,0,1.2,0c37.1,0,74.2,0,111.4,0c1.5,0,2.7,0.4,3.9,1.2
		c13.4,9.3,26.8,18.6,40.2,27.8c0.6,0.4,1.1,0.8,1.7,1.2C489.9,317.1,489.9,317.2,489.9,317.4z"/>
	<path class="st7" d="M10.6,280.7c0.5-0.8,1-1,1.5-1.3c12.3-7.6,24.5-15.2,36.8-22.8c0.9-0.6,1.8-0.8,2.9-0.8c38.1,0,76.3,0,114.4,0
		c0.3,0,0.7,0,1,0c0.6,0,0.8,0.2,0.8,0.8c0,0.4,0,0.8,0,1.2c0,7,0,13.9,0,20.9c0,0.4,0,0.8,0,1.2c0,0.5-0.3,0.7-0.7,0.7
		c-0.4,0-0.8,0-1.2,0c-51.3,0-102.6,0-153.9,0C11.7,280.7,11.3,280.7,10.6,280.7z"/>
	<path class="st7" d="M170.9,232.3c1.4-1.4,2.6-2.7,3.9-4c2.9-2.9,5.8-5.8,8.6-8.8c0.6-0.6,1.2-0.9,2.1-0.9c11.6,0,23.1,0,34.7,0
		c0.3,0,0.5,0,0.8,0.1c-0.1,0.7-0.7,1-1,1.4c-0.8,0.9-1.6,1.8-2.2,2.8c-1.2,2.1-0.2,3.8,2.2,3.8c3.8,0,7.5,0.1,11.3,0
		c13-0.4,26-0.2,39,0c2.6,0,5.2,0,7.9,0c2.6,0,3.6-1.7,2.3-4c-0.8-1.4-2-2.6-3.2-3.7c0.2-0.6,0.7-0.4,1-0.4c11.7,0,23.4,0,35.1,0
		c0.8,0,1.4,0.1,2,0.7c3.8,4.1,7.7,8.2,11.6,12.3c0.2,0.2,0.3,0.3,0.3,0.6C326,232.5,173.4,232.6,170.9,232.3z"/>
	<path class="st8" d="M306.2,82.4c2.1,3.1,3.6,6.4,4.2,10.1c0.1,0.4,0.4,0.7,0.3,1.1c0.4,0.5-0.1,1.2,0.3,1.8c0,0.2,0,0.4,0.1,0.5
		c0.3,0.7-0.1,1.5,0.3,2.2c0.6,5.8-0.1,11.6-1.2,17.3c-2.8,14-7.9,27.1-14.9,39.4c-3.3,5.9-6.8,11.7-10.2,17.6
		c-0.7,1.3-1.5,2.5-2.4,3.7c-0.6,0.2-1-0.3-0.9-0.7c0.2-1.2-0.7-1.9-1-2.9c0-0.8,0.6-1.3,0.9-2c4.7-8.1,9.6-16.1,13.8-24.5
		c5.1-10.3,9-21,11-32.3c0.7-3.8,1-7.6,1.1-11.4c0-0.7-0.1-1.4-0.3-2.1c-0.1-0.8-0.1-1.6-0.1-2.4c0-0.3,0-0.7-0.2-1
		c-0.2-0.5-0.2-1-0.2-1.6c-0.7-2.7-1.3-5.4-2.7-7.9c-0.2-0.4-0.4-0.8-0.1-1.3c1.1-0.9,1.6-0.8,2.4,0.4c1.1,1.9,1.8,4,2.3,6
		c0.3,1.2,0.5,2.4,0.8,3.6c0.1-1.6-0.6-3.1-1-4.6c-0.8-2.5-1.8-4.9-3-7.3C305.2,83.4,305,82.6,306.2,82.4z"/>
	<path class="st8" d="M215.9,176.8c-4.3-6.8-8.2-13.8-12.3-20.7c-3.9-6.6-7.1-13.5-9.8-20.7c-3-7.8-5.3-15.9-6.5-24.2
		c-0.1-0.8-0.2-1.6-0.2-2.4c-0.3-0.8,0.1-1.7-0.3-2.6c-0.1-0.8-0.2-1.5-0.1-2.3c-0.2-1.3-0.2-2.7,0-4c-0.1-0.7,0-1.3,0.1-1.9
		c0.4-0.8-0.1-1.7,0.3-2.5c0-0.2,0-0.4,0.1-0.6c0.3-0.4,0-1,0.3-1.4c0-2.2,0.8-4.1,1.6-6c1.2-3.2,3.1-6.1,5.5-8.5
		c1.2-1.3,2.5-2.4,4.2-3.2c0.9,0.5,1,1,0.2,1.8c-0.6,0.6-1.4,1-2,1.5c-2.7,2.4-4.5,5.5-5.9,8.8c-2.2,5.1-2.7,10.6-2.6,16.2
		c0.7,0.1,1.3-0.5,1.9,0.1c0.4,0.4,0.3,1.1,0.5,1.6c0.3,0.8,0.1,1.6,0.2,2.4c1.2,9.7,3.7,19,7.4,28c3.4,8.5,7.8,16.6,12.5,24.5
		c2.1,3.5,3.8,7.3,6.1,10.7c0.3,0.4,0.5,0.8,0.5,1.3c-0.7,1.1-1.5,2.1-0.8,3.6C216.8,176.5,216.4,177,215.9,176.8z"/>
	<path class="st8" d="M189.9,104.3c-0.8,0.5-1,1.2-1,2c0,0.3-0.1,0.6-0.4,0.7c-0.4,0.1-0.6-0.2-0.7-0.6c-0.1-0.4-0.2-0.8-0.2-1.2
		c0-2.2,0-4.3,0-6.5c0-0.6,0.1-1.1,0.3-1.7c0.2-0.5,0.4-1.1,0.3-1.7c-0.3-1.8,0.3-3.6,0.9-5.2c0.9-2.6,2-5.3,3.7-7.6
		c1.6-2.2,3.4-4.2,5.6-5.7c0.4-0.3,0.7-0.6,0.3-1.1c5.9-4.2,15.5-3.6,20.9,1.1c2.6,2.3,2.9,5.2,2.4,8.3c-0.6,3.5-2.4,6.3-5.2,8.3
		c-2.1,1.5-3,3.5-2.2,6.1c0,0.2,0.1,0.3,0.1,0.5c0.2,0.3,0.2,0.7-0.2,0.9c-0.4,0.2-0.8,0.1-1.1-0.2c-0.4-0.5-0.8-0.9-0.8-1.6
		c0.1,1.6,0.6,3.2,0.9,4.7c0.1,0.7,0.1,1.1-0.6,1.3c-1.8-0.5-2-2.2-2.6-3.5c-2.1-4.8,0.2-9.2,4-11.8c2.2-1.5,3.2-3.7,3.7-6.2
		c0.3-1.6-0.6-3.9-3.4-5.1c-6.6-2.9-12.3-1.1-17,3.6c-3.7,3.8-5.5,8.6-6.3,13.8c-0.4,2.3-0.5,4.6-0.7,6.9
		C190.5,103.6,190.5,104,189.9,104.3z"/>
	<path class="st8" d="M306.2,82.4c-0.3,0.6-0.1,1.1,0.2,1.6c1,1.9,1.7,3.9,2.4,6c0.3,1.1,0.8,2.1,1.1,3.1c0.6,1.7,0.4,3.5,0.4,5.2
		c0,0.4-0.1,0.8-0.6,0.9c-0.5,0-0.7-0.3-0.9-0.7c-0.1-0.2-0.2-0.3-0.1-0.5c0.2-1.8-0.6-3.4-0.8-5.2c-0.3-2.2-1.1-4.3-2.3-6.2
		c-0.2-0.4-0.5-0.8-1.1-0.5c-1.1,0.2-1.4-0.8-1.8-1.4c-1.9-3-4.6-5.2-7.8-6.5c-3.8-1.6-7.6-1.3-11.3,0.4c-2.8,1.3-3.9,3.5-3,6.3
		c0.6,1.9,1.5,3.5,3.3,4.8c2.5,1.7,4.5,3.9,4.8,7.1c0.3,3-0.3,5.8-2.7,7.9c-1.4,0-1.2-1.1-0.9-1.8c0.4-1.1,0.3-1.7-0.9-1.9
		c-0.5-0.1-0.7-0.5-0.4-1c0-0.1,0-0.2,0-0.3c0.8-2.7-0.1-4.7-2.3-6.4c-2.2-1.6-3.8-3.8-4.6-6.4c-0.6-1.9-0.8-3.9-0.5-5.9
		c0.1-1.4,0.8-2.5,1.7-3.4c2.3-2.4,5.3-3.8,8.5-4.4C294.3,71.8,301.7,75.3,306.2,82.4z"/>
	<path class="st8" d="M283.7,100.1c0.5,0.7,0.7-0.1,1.1-0.2c0.8-0.4,1.2-0.2,1.3,0.6c0.1,0.8,0.1,1.6-0.3,2.3
		c-0.3,0.6-0.4,1.2-0.1,1.8c0.6,0.7,0,1.2-0.3,1.7c-3.1,5.1-2,9.6,3.3,12.5c1.9,1,2.5,2.1,2.5,4.2c0,4.4-0.1,8.9-0.4,13.3
		c-0.7,8.3-2.3,16.4-5.3,24.3c-1.3,3.3-2.4,6.6-4,9.7c-0.3,0.6-0.6,1.4-1.4,1.6c-1.3-0.2-1.2-1.2-0.8-1.9c1.4-3.2,2.5-6.5,3.9-9.8
		c1-2.3,1.8-4.7,2.4-7.1c0.3-1.1,1-2,0.8-3.2c0-0.2,0-0.4,0.1-0.5c0.5-1,0.6-2.1,0.6-3.2c0.8-1.9,1.1-4.1,1.1-6
		c0.1-4.9,1.1-9.8,0.9-14.7c-0.1-3.2-1.2-4.8-4.4-6.2c-0.9-0.6-2.1-1.1-2.2-2.5c0.3-1.6-0.7-2.9-0.7-4.5c-0.1-2.4,0.2-4.7,1.5-6.8
		c1-1.6,0.4-2.5-1.4-2.8c-1.9-0.2-3.3-1.5-4.9-2.2c-0.5-0.2-1-0.5-1.6-0.5c-0.4,0-0.8,0-1.2-0.2c-2.9-1.3-6.1-0.7-9.2-1.2
		c-4.2-0.7-8.4-0.3-12.6-0.4c-8.1-0.1-16.2-0.2-24.2,0.7c-1.2,0.1-2.4,0.5-3.6,0.9c-2.2,0.1-3.9,1.4-5.9,1.9c-0.7,0.2-1.3,0.5-1.9,0
		c-0.1-0.2-0.2-0.3-0.1-0.5c1.2-0.7,2.5-1.3,3.7-2.1c2.2-1.4,4.7-1.6,7.2-1.7c9.6-0.6,19.2-1.1,28.9-0.7c5.5,0.2,11.1,0.4,16.6,0.9
		c1.8,0.2,3.5,0.7,5,1.6c1,0.6,2,1.1,3,1.6C282.7,101.7,282.7,101.7,283.7,100.1z"/>
	<path class="st8" d="M216.6,101.2c0,0.1,0,0.2,0,0.3c0.4,0.6,0.1,0.9-0.4,1.2c-1.5,0.6-1.8,1.9-0.9,3.3c0.2,0.4,0.7,0.6,0.8,1.1
		c1.4,3.5,0.8,6.7-0.9,9.9c-0.6,1.1-1.7,1.8-2.5,2.8c-0.5,0.5-1.2,0.6-1.7,1.1c-0.8,0.7-1.4,1.5-1.4,2.7c-0.1,4.3-0.4,8.7,0.1,13
		c0.5,3.7,0.8,7.5,1.7,11.2c0.7,3,1.6,6,2.3,9c0.3,1.1,0.8,2.1,1.2,3.2c1.3,3.5,2.9,6.9,4.2,10.5c0.3,0.9,0.7,1.9-0.6,2.4
		c-1,0-1.2-0.9-1.6-1.6c-1.9-3.8-3.4-7.8-4.8-11.8c-2.2-6.2-3.7-12.6-4.5-19.2c-0.7-6.1-0.9-12.3-0.7-18.4c0-1,0.4-1.8,1.4-2.2
		c1.1-0.5,2-1.1,3-1.8c2.7-1.8,3.9-6.6,2.6-9.6c-0.2-0.5-0.6-0.9-0.9-1.4c-0.3-0.6-0.7-1-0.3-1.7c0.4-0.9-0.2-1.7-0.5-2.4
		c-0.7-1.7-0.4-3.5-0.4-5.2c0-0.4,0.2-0.8,0.7-0.8c0.4,0,0.6,0.4,0.6,0.7c0,1,0.2,2,0.8,2.9c0.3,0.4,0.5,0.1,0.6-0.1
		C215.3,101.5,215.3,101.5,216.6,101.2z"/>
	<path class="st8" d="M281.3,172.7c0.3,0.1,0.5,0.3,0.8,0.4c0.8,0.3,1.1,0.8,0.7,1.6c-0.3,0.5-0.4,1,0,1.4c0,0.7-0.5,1.1-0.8,1.7
		c-3.4,5.5-7.1,10.7-11.4,15.5c-1.5,1.7-2.9,3.5-4.4,5.2c-0.7,0.8-1.3,1.7-1.9,2.7c-2.3,3.7-1.8,7.8,1.3,10.9
		c1.5,1.5,3.2,2.5,4.9,3.7c1.3,0.9,2.7,1.6,3.8,2.8c-0.1,0.3-0.1,0.7-0.4,0.9c-0.3,0.2-0.7,0.2-1,0c-3.1-2.4-6.8-4.2-9.5-7.3
		c-1.5-2.7-2.6-5.4-2.1-8.6c2.2-5,5.4-9.3,9.2-13.1c0.7-0.7,1.2-1.3,1.3-2.2c0.5-1.2,1.2-2.2,2.3-3c0.6-0.1,1.1-0.3,1.4-0.8
		c1.5-2.5,3.4-4.8,4.5-7.6c0.4-1.1,0.3-2.1-0.2-3.1c0-0.2,0-0.4,0.1-0.5C280.2,172.7,280.6,172.4,281.3,172.7z"/>
	<path class="st8" d="M215.9,176.8c0.4-0.5,0.1-0.9,0-1.4c-0.5-1.6-0.4-1.9,1.1-2.6c0.6-0.4,1,0,1.3,0.5c0.1,0.2,0.1,0.3,0.1,0.5
		c-1.2,1.5-0.9,3.1,0.2,4.3c1.5,1.6,2.2,3.7,3.4,5.4c0.9,1.3,1.8,2.4,3.1,3.2c0.1,0.1,0.2,0.3,0.3,0.4c0.3,1,0.9,1.8,1.6,2.6
		c3.5,4,6.9,8,9.7,12.5c-0.1,1.1,0.7,1.9,0.7,2.9c0,2.2-0.9,4-1.8,5.9c-0.4,0.8-0.9,1.7-1.4,2.5c0,0.2-0.1,0.3-0.2,0.5
		c-0.2,0.2-0.4,0.4-0.6,0.5c-0.2,0.1-0.3,0.1-0.5,0.1c-3.1,1.5-5.9,3.4-8.4,5.8c-0.3,0.3-0.7,0.7-1.3,0.7c-0.3,0-0.5,0-0.8-0.2
		c-0.2-0.2-0.3-0.4-0.4-0.7c1.5-1.7,3.4-2.9,5.2-4.1c1.7-1.1,3.5-2.2,5-3.6c1.1-1,2-2,2.5-3.4c1.1-2.6,1.1-5.2-0.5-7.7
		c-1.7-2.7-3.7-5.1-5.8-7.4c-4.3-4.9-8.3-10-11.7-15.6C216.5,177.9,216.2,177.4,215.9,176.8z"/>
	<path class="st8" d="M222.5,220.6c0.2,0,0.5,0,0.7,0c0.1,0.1,0.2,0.1,0.3,0.2c0.2,2.4,2,2.6,3.8,2.6c2.3,0.1,4.7,0,7,0.1
		c11,0,22,0,32.9,0c1.7,0,3.3,0,5-0.2c1.8-0.2,2.1-0.7,1.5-2.4c-0.1-0.4-0.2-0.8,0.1-1.1c0.3-0.2,0.6-0.3,0.9-0.3
		c1.1,0.2,1.7,1.2,2.1,2c1,1.8-0.1,3.1-2.2,3.3c-6.9,0.6-13.8-0.1-20.7,0c-0.6,0-1.3-0.1-1.9,0.1c-1.8,0.1-3.7,0.1-5.5,0
		c-3-0.3-6-0.2-9-0.1c-4.7,0.2-9.3,0.1-13.9-0.1c-0.9,0-2.1-0.3-2.3-1.5C220.9,222.2,221.2,221.1,222.5,220.6z"/>
	<path class="st8" d="M251.9,225c0.7-0.4,1.4-0.3,2.2-0.3c4.6,0,9.1,0,13.7,0c2.2,0,4.4-0.1,6.6-0.4c1.6-0.2,2.3-1.4,1.5-2.8
		c-0.3-0.6-0.7-1.3-1.4-1.6c-0.2-0.2-0.4-0.3-0.6-0.5c0-0.1,0-0.1-0.1-0.2c0.1-0.3,0.3-0.5,0.4-0.8c1.7,1.2,3.2,2.6,4.5,4.2
		c0.3,0.4,0.5,0.7,0.7,1.2c0.4,0.9,0.1,1.4-0.9,1.6c-0.2,0-0.5,0-0.7,0C269.2,225.4,260.5,225.2,251.9,225z"/>
	<path class="st8" d="M222.5,220.6c-1.2,2.6-0.7,3.5,2.1,3.8c6.5,0.7,13,0.2,19.5,0.3c0.8,0,1.6-0.1,2.3,0.3
		c-8.7,0.2-17.3,0.4-26,0.4c-0.2,0-0.5,0-0.7,0c-1-0.2-1.3-0.7-0.8-1.6c0.8-1.4,1.8-2.6,3.1-3.6
		C222.2,220.3,222.3,220.5,222.5,220.6z"/>
	<path class="st9" d="M226.2,402c-2.6,0-5.1,0-7.7,0c-1.6,0-1.7-0.1-1.7-1.6c0-4.8,0-9.6,0-14.4c0-3.1,1.2-4.7,4.2-5.7
		c5.6-1.8,11.1-1.6,16.4,1.1c3.6,1.8,7.2,3.4,10.7,5.2c1.2,0.6,2.2,0.6,3.4,0c3.9-2,7.9-3.9,11.9-5.7c4.8-2.2,9.7-2.4,14.7-0.9
		c0.8,0.2,1.6,0.6,2.4,1c1.7,1,2.6,2.4,2.6,4.5c-0.1,5,0,9.9-0.1,14.9c0,1.6-0.1,1.6-1.7,1.6c-5.2,0-10.4,0-15.6,0
		c-1.7,0-1.7,0-1.7-1.8c0-2.3,0-4.7,0-7c0-2.6,0-2.6-2.3-1.5c-3.3,1.6-6.7,3.2-10,4.9c-1.3,0.7-2.4,0.7-3.7,0
		c-3.4-1.7-6.9-3.4-10.3-5c-0.4-0.2-0.7-0.4-1.1-0.5c-0.8-0.3-1-0.2-1,0.7c0,0.8,0,1.6,0,2.4c0,2,0,4,0,6c0,1.7-0.1,1.8-1.7,1.8
		c-2.3,0-4.7,0-7,0C226.8,402,226.5,402,226.2,402C226.2,402,226.2,402,226.2,402z"/>
	<path class="st9" d="M248.3,287.9c-3.8-0.1-9.4,0.2-15-0.2c-3.6-0.3-7.1-0.8-10.5-2.1c-2.3-0.9-4.4-2.1-6.1-4
		c-3-3.3-3-7.6,0.2-10.7c2.2-2.2,5-3.5,8-4.4c3-0.9,6.1-1.4,9.3-1.5c10.6-0.3,21.2-0.1,31.8,0c4.2,0.1,8.2,1,12.1,2.7
		c1.9,0.8,3.5,1.8,4.9,3.4c2.9,3.5,2.7,8.1-0.7,11.2c-1.6,1.5-3.5,2.5-5.6,3.3c-4.5,1.7-9.3,2.2-14.1,2.3
		C258.4,287.9,254.2,287.9,248.3,287.9z"/>
	<path class="st9" d="M243.7,293.5c5.7,0,12.5,0,19.3,0.2c4.3,0.1,8.3,1.1,12.1,3.2c1.3,0.7,2.4,1.5,3.4,2.5c3,3.3,3.1,7.5,0.1,10.8
		c-1,1.2-2.3,2-3.7,2.7c-4.1,2.1-8.6,3.2-13.2,3.3c-9.1,0.3-18.2,0.3-27.4,0.2c-4.2-0.1-8.3,0-12.5,0c-2.7,0-2.7,0-2.7-2.6
		c0-6,0-12,0-18c0-0.4,0-0.8,0-1.2c0-0.8,0.4-1.1,1.2-1.2c0.5,0,0.9,0,1.4,0C228.8,293.5,235.7,293.5,243.7,293.5z"/>
	<path class="st9" d="M244.8,236.3c7.4,0,14.7,0,22.1,0c3.2,0,6.2,0.5,9.2,1.7c1.3,0.5,2.5,1.2,3.4,2.2c2,2.1,1.8,5.4-0.6,7.2
		c-2.4,1.7-5,2.7-7.9,3c-3.2,0.4-6.4,0.3-9.6,0.3c-7,0-14,0-21,0c-0.2,0-0.5,0-0.7,0c-1.2,0.1-1.4,0.2-1.4,1.4c0,1.8,0,3.6,0,5.5
		c0,1.7-0.1,1.7-1.7,1.7c-5.1,0-10.3,0-15.4-0.1c-1.8,0-1.8,0-1.8-1.8c0-6.3,0-12.7,0-19c0-0.3,0-0.6,0-0.9c0.1-1.1,0.2-1.3,1.4-1.3
		c1.7,0,3.3,0,5,0C232,236.3,238.4,236.3,244.8,236.3C244.8,236.3,244.8,236.3,244.8,236.3z"/>
	<path class="st9" d="M250.1,373.5c-3.2,0-6.4,0-9.6,0c-4.6,0-9.1-0.9-13.4-2.5c-2.2-0.8-4.2-2-5.8-3.8c-1.2-1.4-2-2.9-2-4.8
		c0-3.4-0.1-6.8-0.1-10.3c0-1.5,0.2-1.7,1.9-1.7c3.6,0,7.2,0,10.8,0c1.3,0,2.6,0,3.9-0.1c2-0.2,2.5,0.3,2.4,2.2
		c0,3.7,0,7.4-0.1,11.1c0,1.5,0.6,2.5,1.9,3.2c1.1,0.6,2.3,0.9,3.6,0.9c4.2,0,8.4,0,12.7,0c0.8,0,1.6,0,2.4-0.3
		c2.4-0.8,3.2-1.9,3.2-4.4c0-3.6,0-7.2,0-10.8c0-1.7,0.1-1.8,1.8-1.9c5.1,0,10.1,0,15.2,0c1.7,0,1.8,0.1,1.9,1.8
		c0.1,3.5,0.2,6.9,0,10.4c-0.1,1.9-0.9,3.5-2.2,4.8c-1.9,1.8-4.1,3-6.6,3.8c-4.1,1.4-8.4,2.1-12.8,2.1
		C256.1,373.5,253.1,373.5,250.1,373.5z"/>
	<path class="st9" d="M259.4,333.6c0,3.2,0,6.4,0,9.6c0,1.8,0,1.8-1.8,1.8c-5,0-10,0-15,0c-0.2,0-0.3,0-0.5,0
		c-1.4-0.1-1.6-0.2-1.6-1.6c0-1.4,0-2.8,0-4.3c0-4.8,0-9.7,0-14.5c0-0.5,0-0.9,0-1.4c0-0.8,0.3-1.2,1.1-1.2c0.5,0,1-0.1,1.5-0.1
		c4.8,0,9.7,0,14.5,0c1.8,0,1.8,0.1,1.8,1.8C259.5,327.1,259.5,330.4,259.4,333.6C259.5,333.6,259.5,333.6,259.4,333.6z"/>
	<path class="st9" d="M105,350c2.5,0,4.9,0,7.4,0c1.8,0,1.8,0,1.8,1.8c0.1,1.9-0.1,2.1-2.1,2c-3.5-0.1-7,0-10.4-0.1
		c-0.1,0-0.2,0-0.3,0c-0.6,0.2-1.4,0-1.4,0.9c0.1,0.8,0.9,0.8,1.5,0.8c1.8,0,3.6,0,5.5,0c1.1,0,2.2,0,3.2,0.2
		c2.4,0.3,3.9,1.8,4.1,4.3c0.2,1.8-1.2,3.9-3.2,4.6c-0.7,0.3-1.4,0.4-2.2,0.4c-4.9,0-9.8,0-14.7,0c-1.4,0-1.7-0.4-1.7-1.8
		c0-1.8,0.2-2.1,2.1-2.1c3.1,0,6.2,0.1,9.2,0.1c0.8,0,1.6-0.1,2.4-0.2c0.4,0,0.8-0.2,0.8-0.7c0-0.5-0.3-0.7-0.8-0.8
		c-0.5-0.1-1-0.1-1.5-0.1c-2.6,0-5.1,0.2-7.7-0.1c-1.9-0.2-3.2-1.1-4-2.8c-1.1-2.5,0.1-5.4,2.8-6.2c0.7-0.2,1.3-0.3,2-0.3
		c1.2,0,2.4,0,3.6,0C102.6,349.9,103.8,349.9,105,350C105,349.9,105,350,105,350z"/>
	<path class="st9" d="M81.8,350c2.5,0,5,0,7.5,0c1.4,0,1.4,0.1,1.5,1.5c0,0.4,0,0.8,0,1.2c0,0.7-0.4,1-1.1,1.1c-0.9,0-1.8,0-2.7,0
		c-2.7,0-5.4,0-8,0c-0.5,0-0.9,0-1.4,0.1c-0.5,0.1-1.1,0.2-1,0.9c0,0.6,0.5,0.7,1,0.7c0.6,0,1.1,0.1,1.7,0.1c2,0,4,0,6,0
		c0.7,0,1.5,0,2.2,0.3c2,0.6,3.3,2.2,3.4,4.2c0.1,2.1-1,3.7-3,4.5c-0.9,0.4-1.9,0.5-2.8,0.5c-4.6,0-9.2,0-13.8,0
		c-0.6,0-1.5,0.2-1.6-0.5c-0.1-1-0.5-2,0.1-3c0.3-0.5,0.8-0.5,1.4-0.5c3.4,0.3,6.8,0,10.2,0.1c0.5,0,1-0.1,1.5-0.2
		c0.5-0.1,0.9-0.2,0.9-0.8c0-0.6-0.5-0.7-1-0.7c-0.5-0.1-0.9-0.1-1.4-0.1c-2,0-4,0-6,0.1c-0.5,0-1,0-1.5-0.1c-3-0.4-4.5-2.1-4.4-4.8
		c0.1-2.7,1.9-4.4,4.8-4.4C76.7,349.9,79.2,350,81.8,350z"/>
	<path class="st9" d="M31.6,350c2.4,0,4.8,0,7.2,0c2,0,3.6,0.8,4.6,2.7c0.6,1.2,0.8,2.5-0.1,3.7c-0.5,0.7-0.7,1.2,0,1.9
		c0.6,0.7,0.7,1.5,0.7,2.4c0,1-0.1,1.9-0.1,2.9c0,0.8-0.3,1.3-1.2,1.3c-1.6,0-3.2,0-4.8,0c-0.8,0-1.1-0.4-1.1-1.2c0-1,0-2.1,0-3.1
		c0-1.2-0.2-1.4-1.4-1.4c-1.7,0-3.3,0-5,0c-1.3,0-1.4,0.2-1.4,1.5c0,0.9,0.1,1.7,0,2.6c0,1.4-0.2,1.5-1.5,1.5c-1.3,0-2.5,0-3.8,0
		c-0.8,0-1.3-0.4-1.3-1.2c0-2.4,0-4.9,0.1-7.3c0-0.6,0.3-0.8,0.9-0.9c0.5,0,1-0.1,1.5-0.1c3.1,0,6.3,0,9.4,0c0.6,0,1.1,0.1,1.7-0.2
		c0.3-0.1,0.7-0.3,0.7-0.7c0-0.5-0.4-0.7-0.8-0.8c-0.5-0.1-1-0.1-1.5-0.1c-3.4,0-6.7,0-10.1,0c-1.8,0-1.8,0-1.8-1.8
		c0.1-1.9,0.1-2,2.1-2C26.9,350,29.3,350,31.6,350C31.6,350,31.6,350,31.6,350z"/>
	<path class="st9" d="M60.3,334.8c-0.9,2.3-1.9,4.5-2.7,6.8c-0.3,0.7-0.7,1.1-1.5,1.1c-1.6,0-3.2,0-4.8,0c-1.1,0-1.2-0.2-0.8-1.1
		c1.1-2.7,2.3-5.3,3.4-8c1.7-3.8,4.6-5.8,8.8-5.7c1.6,0,3.2,0,4.8,0c3,0.1,4.5,2,4.2,5c-0.3,2.3-0.1,4.7-0.1,7c0,0.6,0,1.1,0,1.7
		c0,0.6-0.3,1-0.9,1c-1.5,0-3,0.1-4.4,0c-0.8,0-1.2-0.6-1.2-1.6c0-0.8,0.1-1.6,0-2.4c-0.1-1.6-0.2-1.6-1.7-1.6c-0.2,0-0.5,0-0.7,0
		c-0.9-0.1-1.7-0.4-1.6-1.5c0.1-1.3-0.3-2.9,1.7-3.1C61.5,332.8,61.1,334.1,60.3,334.8z"/>
	<path class="st9" d="M129.2,350c1.8,0,3.5,0,5.3,0c1.4,0,1.6,0.2,1.6,1.8c0,1.6-0.2,1.9-1.6,1.9c-2.9,0-5.8,0-8.7,0
		c-0.7,0-1.4-0.1-2,0.4c-0.4,0.3-0.8,0.6-0.6,1.1c0.2,0.5,0.6,0.4,1,0.4c1.9,0,3.9-0.1,5.8-0.1c1.7,0,1.9,0.2,1.9,1.8
		c0,1.8-0.1,1.9-1.9,2c-1.5,0-3.1,0-4.6,0c-0.5,0-1,0-1.5,0c-0.3,0-0.6,0.1-0.7,0.4c-0.1,0.4,0.1,0.6,0.4,0.9
		c0.7,0.5,1.5,0.5,2.3,0.5c2.7,0,5.4,0,8,0.1c2.2,0,2.7,0.6,2.2,2.8c-0.2,0.8-0.6,1.2-1.4,1.1c-3.2-0.2-6.5,0-9.7-0.1
		c-1.3,0-2.5-0.2-3.7-0.6c-3.4-1.1-5.1-3.5-4.9-7.1c0.2-3.7,2.3-6.3,5.6-7c1.8-0.4,3.6-0.2,5.4-0.3C128,350,128.6,350,129.2,350z"/>
	<path class="st9" d="M52.4,355.2c0,1.2,0,2.4,0,3.6c0,1.6,0.6,2.1,2.2,2.2c1.1,0.1,2.3,0.1,3.4,0.1c1.8,0,2.4-0.5,2.5-2.3
		c0.1-2.2,0-4.4,0-6.7c0-0.3,0-0.7,0-1c0-0.7,0.3-1.1,1-1.1c1.6,0,3.2,0,4.8,0c0.7,0,1,0.4,1,1.1c-0.1,2.4,0,4.8-0.2,7.2
		c-0.2,3-1.8,5-4.6,6c-1,0.3-2,0.7-3,0.6c-2.5,0-5,0-7.5-0.3c-3.7-0.5-6.3-3.7-6.2-6.8c0.1-2.1-0.1-4.2-0.1-6.3
		c0-1.3,0.1-1.5,1.4-1.5c1.3,0,2.6,0,3.9,0c1.1,0,1.3,0.2,1.3,1.3C52.4,352.6,52.4,353.9,52.4,355.2
		C52.4,355.2,52.4,355.2,52.4,355.2z"/>
	<path class="st9" d="M108.1,338.2c0-1,0-1.9,0-2.9c0.1-2.6,2.1-3.8,4.4-2.6c0.8,0.4,1.5,0.9,2.2,1.4c1.4,0.9,2.7,1.9,4.1,2.7
		c0.6,0.4,0.9,0.2,0.9-0.5c0-1,0-1.9,0-2.9c0-0.7,0.4-1,1.1-1c0.8,0,1.6-0.1,2.4-0.1c1.1,0,1.4,0.3,1.4,1.4c0,2,0,4.1,0,6.1
		c-0.1,2.4-2,3.5-4.2,2.6c-2-0.9-3.7-2.4-5.6-3.6c-0.5-0.3-0.9-1-1.4-0.7c-0.7,0.3-0.2,1-0.2,1.5c-0.1,3.6,0,3-3,3.1
		c-0.1,0-0.2,0-0.3,0c-1.4,0-1.5-0.1-1.5-1.4C108.1,340.3,108.1,339.3,108.1,338.2z"/>
	<path class="st9" d="M147.2,364.8c-1.8,0-3.6,0.2-5.5-0.2c-2.4-0.5-3.8-2.1-3.8-4.5c0-2.8,0-5.7,0-8.5c0-1.4,0.2-1.6,1.5-1.6
		c1.3,0,2.5,0,3.8,0c1.1,0,1.3,0.2,1.3,1.3c0,2,0,4.1,0,6.1c0,0.3,0,0.7,0,1c0.1,1.6,0.7,2.4,2.4,2.5c1.5,0.1,3,0.1,4.4,0.1
		c1.5,0,1.6,0.1,1.7,1.7c0.1,1.7-0.1,2-1.5,2C150,364.9,148.6,364.8,147.2,364.8z"/>
	<path class="st9" d="M92.5,337.6c-0.5,1.3-1,2.6-1.5,4c-0.3,0.8-0.8,1.2-1.6,1.2c-0.9,0-1.7,0-2.6,0c-0.8,0-1-0.4-0.8-1.1
		c0.9-2.3,1.6-4.6,3-6.7c1-1.5,2.4-2.4,4.2-2.6c1.6-0.2,3.2-0.2,4.8,0c1.8,0.2,2.7,1.1,2.7,2.9c0,2.1,0,4.2,0,6.3
		c0,0.8-0.3,1.2-1.1,1.1c-0.4,0-0.8,0-1.2,0c-2.1,0-2.1,0-2.3-2.1c-0.1-1.7-0.2-1.8-1.9-1.8c-0.2,0-0.4-0.1-0.6-0.2
		c-0.3-0.8-0.4-1.6-0.1-2.1c0.4-0.4,0.4-0.1,0.2-0.2C93.2,336.7,92.7,337,92.5,337.6z"/>
	<path class="st10" d="M80,342.7c-1.1,0-2.2,0.1-3.2,0c-1.7-0.2-2.8-1.2-2.9-2.9c-0.1-2.2-0.1-4.3-0.1-6.5c0-0.8,0.5-1.1,1.2-1.1
		c0.8,0,1.6,0.1,2.4,0.1c0.9,0,1.2,0.5,1.2,1.3c0,1.5-0.1,3-0.1,4.4c0,1.6,0.4,1.9,1.9,2c0.9,0,1.8,0,2.7,0c0.9,0,1.2,0.4,1.2,1.4
		c0,0.8-0.3,1.3-1.2,1.3C82.2,342.7,81.1,342.7,80,342.7C80,342.7,80,342.7,80,342.7z"/>
	<path class="st11" d="M102,337.3c0-1.3,0-2.5,0-3.8c0-1,0.1-1.1,1.1-1.2c0.1,0,0.1,0,0.2,0c3.6,0,3.4-0.1,3.4,3.1
		c0,1.9,0,3.9,0,5.8c0,1.4-0.2,1.5-1.5,1.5c-3.5,0-3.2,0.4-3.2-3C102,338.9,102,338.1,102,337.3C102,337.3,102,337.3,102,337.3z"/>
	<path class="st12" d="M60.3,334.8c0.1-1,0.6-1.8,1.2-2.5c0.7-0.9,2.1-1.2,3.1-0.8c0.5,0.2,0.7,0.5,0.7,1.1
		c-0.1,0.5-0.3,0.8-0.9,0.9c-0.5,0-0.9,0-1.4,0c-1.2,0.1-1.3,0.2-1.6,1.3c-0.3,1.4-0.2,1.6,0.9,2.2c0.1,0.1,0.2,0.1,0.3,0.2
		c-1.5-0.1-1.5-0.1-1.7-1.4C60.9,335.4,61,334.8,60.3,334.8z"/>
	<path class="st13" d="M92.5,337.6c0-0.6,0.4-1.2,0.7-1.7c0.4-0.8,1.3-1.2,2.2-1c0.4,0.1,0.7,0.2,0.7,0.6c0.1,0.5-0.2,0.7-0.6,0.9
		c-0.1,0-0.1,0-0.2,0c-1.8,0.5-1.8,0.5-1.7,2.2C93,338.4,93.3,337.4,92.5,337.6z"/>
	<path class="st9" d="M467.8,363.1c-2.5,0-4.9,0-7.4,0c-0.6,0-1.4,0.2-1.6-0.6c-0.3-0.9-0.2-1.8,0.2-2.7c0.3-0.6,1-0.4,1.6-0.4
		c3.4,0,6.8,0,10.3,0c0.5,0,1,0.1,1.5-0.1c0.4-0.2,0.7-0.5,0.6-0.9c0-0.4-0.3-0.6-0.6-0.7c-0.5-0.2-1-0.2-1.5-0.2
		c-2.3,0-4.6,0-6.8,0c-0.9,0-1.7,0-2.5-0.4c-1.8-0.8-2.8-2.4-2.7-4.3c0.1-2,1-3.3,2.9-4c0.9-0.4,1.9-0.5,2.9-0.5
		c4.6,0,9.1,0,13.7-0.1c1.8,0,2.6,1.1,2.1,2.9c-0.1,0.5-0.4,0.8-0.9,0.9c-0.6,0.2-1.1,0.2-1.7,0.2c-2.7,0-5.4,0-8,0
		c-0.9,0-1.7,0-2.6,0.1c-0.5,0-1.1,0.1-1.1,0.8c0,0.6,0.6,0.6,1,0.7c0.4,0,0.8,0,1.2,0c2.1,0,4.2,0,6.3,0c0.7,0,1.4,0,2,0.2
		c2.3,0.6,3.6,2.2,3.6,4.5c0,2.5-1.3,4.1-3.7,4.6c-0.4,0.1-0.9,0.1-1.4,0.1C472.7,363.2,470.3,363.1,467.8,363.1
		C467.8,363.1,467.8,363.1,467.8,363.1z"/>
	<path class="st9" d="M422.8,348.4c2.4,0,4.9,0,7.3,0c2.1,0,3.6,0.8,4.5,2.8c0.6,1.2,0.6,2.5-0.2,3.6c-0.5,0.8-0.7,1.4,0,2.1
		c0.4,0.4,0.5,1,0.5,1.6c0,1.2,0,2.4,0,3.6c0,0.7-0.3,1.1-1,1.1c-1.7,0-3.4,0-5.1,0c-0.7,0-1-0.5-0.9-1.1c0-1,0.1-2,0-3.1
		c-0.2-1.2-0.4-1.4-1.5-1.4c-1.7-0.1-3.3,0-5,0c-1.1,0-1.2,0.2-1.2,1.4c0,1,0,2.1,0,3.1c0,0.9-0.4,1.2-1.2,1.2c-1.4,0-2.7,0-4.1,0
		c-1.2-0.1-1.3-0.2-1.3-1.3c0-2.2,0-4.4,0.1-6.7c0-1.3,0.1-1.4,1.5-1.4c3.5,0,7.1,0,10.6,0c0.5,0,1,0,1.5-0.1c0.3,0,0.5-0.3,0.5-0.6
		c0-0.3-0.2-0.6-0.5-0.6c-0.4-0.1-0.9-0.1-1.4-0.1c-3.5,0-7.1,0-10.6,0c-0.6,0-1.4,0.2-1.6-0.6c-0.2-1-0.4-2,0.1-3
		c0.2-0.4,0.8-0.3,1.3-0.3C417.7,348.3,420.2,348.3,422.8,348.4C422.8,348.3,422.8,348.4,422.8,348.4z"/>
	<path class="st9" d="M346.6,355.6c0-2,0-4,0-6c0-1.2,0.1-1.3,1.2-1.3c1.4,0,2.7,0,4.1-0.1c0.9,0,1.2,0.3,1.2,1.2c0,1.1,0,2.2,0,3.2
		c0,0.7,0.4,1.1,1,1.1c2.1,0,4.1,0,6.2,0c0.9,0,1.2-0.5,1.2-1.3c0-0.9-0.1-1.8,0-2.7c0-1.3,0.3-1.5,1.5-1.5c1.1,0.1,2.3,0,3.4,0
		c1.5,0,1.7,0.2,1.7,1.7c0,3.9,0,7.9,0,11.8c0,1.1-0.2,1.3-1.3,1.3c-1.4,0.1-2.7,0.1-4.1,0c-1.1,0-1.2-0.2-1.3-1.4c0-1,0-2,0-3.1
		c0-0.9-0.4-1.2-1.3-1.2c-1.9,0-3.8,0-5.6,0c-1.1,0-1.3,0.4-1.4,1.5c0,1,0,1.9,0,2.9c0,0.9-0.4,1.3-1.2,1.2c-1.4,0-2.8,0-4.3,0
		c-0.9,0-1.1-0.5-1.1-1.3C346.6,359.7,346.6,357.7,346.6,355.6C346.6,355.6,346.6,355.6,346.6,355.6z"/>
	<path class="st9" d="M404,363c-1.7,0-3.4-0.1-5.1,0c-3.8,0.2-7-3.3-7.2-6.6c-0.2-4.3,2.2-7.4,6.3-7.9c2.4-0.3,4.9-0.2,7.3-0.2
		c1.5,0,3,0,4.4,0c1.5,0,1.8,0.3,1.9,1.7c0.1,1.9-0.2,2.2-2.1,2.2c-2.9,0-5.8,0-8.7,0c-0.6,0-1.1,0-1.7,0.3
		c-0.3,0.2-0.6,0.4-0.5,0.8c0.1,0.4,0.4,0.5,0.8,0.5c0.7,0,1.4,0,2,0c1.5,0,3.1-0.1,4.6,0c1.1,0,1.4,0.3,1.3,1.3
		c0,2.6,0.2,2.6-2.5,2.5c-1.8,0-3.5-0.1-5.3-0.1c-0.4,0-0.8,0-1,0.5c-0.1,0.5,0.2,0.7,0.5,1c0.5,0.5,1.2,0.5,1.9,0.5
		c3,0,5.9,0,8.9,0c1.6,0,1.6,0.1,1.7,1.5c0,1.7-0.2,2.1-1.6,2.1C408,363.1,406,363.1,404,363C404,363.1,404,363,404,363z"/>
	<path class="st9" d="M449.6,363c-1.8,0-3.6-0.1-5.5,0c-4.2,0.1-7.5-3.7-7-8.3c0.4-3.4,2.9-5.8,6.3-6.3c1.6-0.2,3.3-0.2,5-0.2
		c2.3,0,4.7,0,7,0c1.3,0,1.5,0.2,1.6,1.5c0,0.2,0,0.3,0,0.5c0,1.7-0.2,1.9-2,1.9c-3,0-5.9,0-8.9,0c-0.6,0-1.3,0-1.8,0.4
		c-0.2,0.2-0.4,0.4-0.4,0.7c0.1,0.4,0.4,0.4,0.7,0.4c0.5,0,0.9,0,1.4,0c1.9,0,3.8,0,5.6-0.1c0.9,0,1.2,0.4,1.2,1.2
		c0,3,0.1,2.6-2.4,2.6c-1.9,0-3.8,0-5.6,0c-0.3,0-0.7,0-0.9,0.3c-0.2,0.5,0.1,0.7,0.4,1c0.6,0.6,1.3,0.6,2.1,0.6c2.9,0,5.8,0,8.7,0
		c1.7,0,1.7,0,1.8,1.7c0,0.2,0,0.3,0,0.5c0,1.2-0.2,1.5-1.3,1.5c-2,0-4,0-6,0C449.6,363.1,449.6,363,449.6,363z"/>
	<path class="st9" d="M404.1,385.2c-1.4,0-2.7,0.1-4.1,0c-2.2-0.2-3.8-1.8-4.1-3.9c-0.1-0.9,0-1.8,0.6-2.6c0.5-0.6,0.5-1,0-1.7
		c-1.4-2.1-0.7-4.8,1.6-5.9c0.8-0.4,1.6-0.6,2.5-0.7c2.2-0.1,4.3-0.2,6.5,0c0.7,0.1,1.4,0.2,2,0.3c2.9,0.7,4.1,3.5,2.8,6.1
		c-0.4,0.7-0.3,1.3,0,1.9c1.5,3.5-0.4,6.3-4.2,6.4C406.5,385.3,405.3,385.3,404.1,385.2C404.1,385.2,404.1,385.2,404.1,385.2z"/>
	<path class="st9" d="M419.8,385.2c-1.3,0-2.6,0-3.9,0c-1.2,0-1.3-0.2-1.4-1.4c0-0.2,0-0.5,0-0.7c0-1.2,0.2-1.4,1.4-1.5
		c1.9-0.1,3.9-0.1,5.8-0.1c0.8,0,1.6,0,2.2-0.6c0.2-0.3,0.4-0.6,0.3-0.9c-0.1-0.3-0.4-0.3-0.7-0.3c-1,0-1.9,0-2.9,0
		c-0.6,0-1-0.3-1-0.9c0-0.3-0.1-0.6-0.1-0.8c-0.1-1.9,0.2-2.1,2.1-2.1c0.6,0,1.3,0,1.9,0c0.4,0,0.7-0.1,0.8-0.5
		c0.1-0.5-0.3-0.7-0.7-0.9c-0.7-0.2-1.4-0.3-2.2-0.3c-1.7,0-3.4,0-5.1,0c-1.5,0-1.7-0.2-1.7-1.7c0-1.9,0.2-2.1,2.1-2.2
		c2.1,0,4.2,0,6.3,0c0.7,0,1.5,0.1,2.2,0.2c5,1,6.8,5.5,5.6,9.6c-0.8,2.9-3.9,5-7.2,5.1c-1.3,0-2.5,0-3.8,0
		C419.8,385.3,419.8,385.2,419.8,385.2z"/>
	<path class="st9" d="M373.6,348.3c0.3,0,0.8,0,1.3,0c1.1-0.1,2,0.3,2.8,1c1,0.9,2,1.8,3,2.7c0.9,0.8,0.9,0.8,1.8,0
		c1-0.9,2-1.7,2.9-2.6c1-0.9,2.1-1.3,3.4-1.1c0.8,0.1,1.6,0.2,2.4,0c0.6-0.1,1.3-0.3,1.6,0.5c0.4,0.8-0.1,1.3-0.6,1.8
		c-1.7,1.7-3.4,3.3-5.3,4.8c-0.3,0.2-0.5,0.4-0.8,0.6c-0.9,0.7-1.3,1.7-1.2,2.8c0.1,1,0.1,2,0.1,3.1c0,0.7-0.3,1.1-1,1.1
		c-1.6,0-3.2,0-4.8-0.1c-0.8,0-1-0.5-1-1.2c0.1-0.9,0-1.7,0.1-2.6c0.2-1.4-0.4-2.4-1.5-3.2c-2-1.6-3.8-3.4-5.7-5.1
		c-0.3-0.3-0.7-0.6-0.9-1c-0.6-0.8-0.1-1.7,0.9-1.6C372,348.3,372.7,348.4,373.6,348.3z"/>
	<path class="st14" d="M281.3,172.7c-0.3,0.3-0.7,0.5-1,0.8c-0.5,0.3-0.9,0.3-1.3-0.2c-0.2-0.8,0.2-1.3,0.9-1.6
		c3-5.8,5.4-11.8,7.2-18.1c1.9-6.5,2.7-13.3,3.2-20c0.3-3.8,0.2-7.6,0.3-11.4c0-1.2-0.4-1.9-1.5-2.4c-0.3-0.1-0.5-0.3-0.8-0.4
		c-3.5-1.5-4.8-4.4-5.3-7.8c-0.2-1.6,0.1-3.1,1-4.4c0.6-0.9,1.1-1.7,1.7-2.6c0.7-1.2,1.5-2.4,2-3.8c0.9-3.1,0.3-5.9-1.8-8.3
		c-0.8-1-1.8-1.7-2.8-2.5c-2.4-1.8-3.5-4.3-3.4-7.3c0.1-2.4,1.7-3.9,3.8-4.8c4.4-1.9,8.9-1.9,13.2,0.4c2.8,1.5,5,3.7,6.8,6.3
		c0.3,0.5,0.7,1,1.1,1.5c1.3,3,2.4,6,3.1,9.1c0.3,0.5,0,1,0.3,1.5c0,0.3,0.1,0.6,0.1,0.9c0.3,0.8-0.1,1.7,0.3,2.6
		c0,16.7-5.2,32-12.5,46.8c-1.9,3.9-4,7.7-6.2,11.4c-1.7,2.9-3.3,5.7-4.8,8.7C283.8,169.1,282.6,170.9,281.3,172.7z"/>
	<path class="st14" d="M218,173.4c-0.3-0.2-0.6-0.6-1-0.7c-5.5-9.1-10.7-18.2-15.5-27.7c-5.8-11.6-9.7-23.8-11.3-36.7
		c-0.3-0.8,0.1-1.7-0.3-2.5c0.1-0.5,0-1.1-0.1-1.6c0.1-3.5,0.3-6.9,1.1-10.3c0.9-4,2.5-7.8,5.1-11c2.7-3.3,6.1-5.6,10.5-6.2
		c3.1-0.4,6,0.1,8.8,1.5c2.8,1.5,3.8,3.8,3,6.8c-0.6,2.1-1.5,4-3.5,5.2c-0.7,0.4-1.3,1-1.8,1.5c-2.9,3-3.5,6.4-1.9,10.2
		c0.4,1,1,2,1.7,2.9c0.4,0.6,0.8,1.2,1.2,1.8c0.4,0.6,0.8,1.3,1,2c0.9,2.9-0.7,7.7-3.1,9.3c-1,0.7-2,1.3-3.1,1.8
		c-0.8,0.4-1,0.9-1.1,1.8c-0.1,4.9,0,9.8,0.4,14.7c0.5,5.1,1.1,10.2,2.4,15.2c1.5,5.8,3.6,11.4,6.1,16.8c0.6,1.3,1.1,2.7,1.9,4
		c0.4,0.1,0.6,0.4,0.5,0.8C218.8,173.7,218.4,173.7,218,173.4z"/>
	<path class="st8" d="M218,173.4c0.4,0,0.8,0,1-0.4c0.5-1,0.3-1.9-0.1-3c-1.1-2.5-2.1-5-2.9-7.5c-0.2-0.7-1-1.1-0.9-2
		c-1.7-3.5-2.7-7.3-3.4-11c-0.7-3.5-1.2-7.1-1.7-10.7c-0.6-4.4-0.2-8.7-0.5-13c-0.2-2.5,0.5-4.5,2.8-5.8c1.3-1.1,2.4-2.3,3.2-3.7
		c1.7-2.7,1.6-7.9-0.3-10.3c-0.2-0.7-0.4-1.4-0.3-2.2c0.1-0.6,0.3-1,1-1.2c2.1-0.6,4.1-1.4,6.1-2.3c1.3-0.6,2.8-0.4,4-1.1
		c0.9,0,1.8-0.2,2.8-0.2c9.6-1.3,19.3-0.4,29-0.7c4.1-0.1,8,0.5,12.1,0.7c1-0.1,2,0.2,3,0.2c0.9,0.2,1.7,0.9,2.7,0.7
		c1.8,0.6,3.4,1.6,5.1,2.3c0.4,0.2,0.8,0.3,1.3,0.4c1.6,0.3,2.3,1.4,1.4,2.8c-2.3,3.7-2,7.4-0.3,11.2c0.4,0.8,1.5,1.1,1.7,2.1
		c1.8,1.4,4.1,2.6,4.4,5.3c0.2,2.5,0.4,5.2-0.1,7.6c-0.4,1.9-0.6,3.8-0.5,5.7c0.1,2.9-0.9,5.5-1.3,8.3c0,0.3-0.1,0.7-0.1,1
		c0,0.5,0,0.9,0,1.4c-0.2,0.8-0.8,1.4-0.7,2.3c-0.9,3.5-2,7-3.4,10.4c-1.1,2.7-2,5.5-3.1,8.2c-0.6,1.4-0.7,2.8-0.7,4.2
		c0.3,0.4,0.7,0.4,1.1,0.4c0,0.1,0,0.2,0,0.3c0.3,2.7-0.8,4.9-2.4,7.1c-1.2,1.6-2.1,3.4-3.5,4.9c-0.6,1-1.2,1.9-2.1,2.7
		c-1.5,2.1-3.5,3.8-5.1,5.8c-2.2,2.7-4.1,5.5-5.3,8.8c-0.9,1.7-0.6,3.6-0.2,5.3c0.3,1.4,1.3,2.5,2,3.8c1.8,2.3,4.3,3.8,6.7,5.4
		c1.3,0.9,2.6,1.7,3.4,3.2c0.6,1.2,0.3,2.3-1.1,2.5c-1.3,0.1-2.6,0.5-4,0.5c-13.3,0-26.5,0-39.8,0c-1.1,0-2.2-0.3-3.2-0.4
		c-0.9-0.1-1.6-0.3-1.9-1.2c-0.3-0.9,0.4-1.5,0.9-2c1.9-1.7,4.1-3.2,6.3-4.6c0.6-0.4,1.3-0.8,1.8-1.4l0,0c0.2-0.2,0.5-0.5,0.7-0.7
		l0,0c2.4-2.4,3.8-5.1,3.7-8.5c0-1.2-0.5-2.3-1.2-3.3c-1.5-2.7-3.4-5.2-5.4-7.6c-1.9-2.3-4.1-4.4-5.7-7l0,0
		c-1.5-1.6-2.7-3.3-3.9-5.1c-0.8-1.3-1.5-2.7-2.6-3.9c-1.1-1.2-0.8-2.8-0.4-4.3C218,173.6,218,173.5,218,173.4z"/>
	<path class="st8" d="M286.8,146.7c-0.2-2.3,0.6-4.5,1.1-6.6c0.2-0.6,0.3-1.2,0.3-1.8c0-1.3,0-2.6,0-3.9c0-1,0-2,0.5-3
		c0.1-0.2,0.2-0.4,0.2-0.7c-0.1-2.6,0.5-5.2-0.6-7.7c-0.3-0.7-0.6-1.3-1.2-1.8c-0.9-0.7-1.8-1.4-2.3-2.5c2.8,0.6,4.9,3.3,4.8,5.6
		c-0.1,2.3,0,4.7,0,7c0,0.4,0.1,0.8-0.1,1.2c-0.8,1.8-0.5,3.8-0.6,5.7c0,1.3,0.1,2.6-0.5,3.8c-0.2,0.4-0.2,1-0.2,1.5
		c0,1.1-0.2,2-0.7,2.9C287.3,146.5,287.2,146.9,286.8,146.7z"/>
	<path class="st8" d="M228.6,99.5c-0.9,0-1.8,0-2.7,0c-0.6,0.3-1.2,0.5-1.7,0c0.3-0.5,0.8-0.6,1.3-0.7c5-0.5,9.9-1.1,15-1
		c6.1,0.1,12.2,0.1,18.3,0c3.3,0,6.6,0.2,9.9,0.6c1.5,0.2,2.9,0.2,4.4,0.4c0.6,0.1,1.1,0.1,1.5,0.7c-0.5,0.4-0.9,0.3-1.4,0
		c-1,0-2,0-3.1,0c-1.6-0.6-3.3-0.7-5-0.8c-9.5-0.5-19.1-0.2-28.6-0.2C233.8,98.5,231.2,98.8,228.6,99.5z"/>
	<path class="st8" d="M283,116.6c-0.3-0.1-0.5-0.3-0.6-0.6c-0.8-1.5-1-3.1-1.4-4.7c-0.3-1.4,0.6-2.7,1-4.1c0.1-0.6,0.5-1.1,0.7-1.7
		c0.5-1.4,0.2-2.1-1.2-2.6c-2.1-0.8-4.1-1.7-6-2.7c-0.2-0.2-0.2-0.5,0-0.7c1,0,1.8,0.6,2.7,1c1.7,0.8,3.4,1.9,5.4,1.8
		c1,0,1.2,0.6,0.9,1.5c-0.4,1.4-1.3,2.6-1.8,4.1c-0.7,2.1-0.6,4.3-0.1,6.4C282.9,115,283,115.8,283,116.6z"/>
	<path class="st8" d="M279.2,173c-0.7-1.2-0.5-2.4,0-3.6c1.3-3.4,2.4-6.8,3.8-10.2c0.8-1.9,1.5-3.8,2.1-5.7c0.3-1.1,0.4-2.4,1-3.4
		c0.2-0.2,0.3-0.6,0.7-0.3c0,2.3-0.9,4.4-1.7,6.5c-1.6,4.6-3.4,9.1-5.2,13.6c-0.2,0.6-0.4,1.2,0,1.8
		C279.8,172.2,279.5,172.6,279.2,173z"/>
	<path class="st8" d="M224.1,99.5c0.6,0,1.2,0,1.7,0c-0.2,0.3-0.5,0.5-0.8,0.6c-2.5,0.2-4.7,1.5-7,2.4c-2.5,0.9-2.4,0.9-2.4,3.6
		c0.3,0.3,0.3,0.7,0,1c-1.1-0.8-1.6-1.9-1.7-3.2c-0.1-1.1,0.2-1.4,1.3-1.6c0.6-0.1,1.1-0.1,1.4-0.7c1.5-0.1,2.9-0.7,4.3-1.3
		C222,99.7,223,99.4,224.1,99.5z"/>
	<path class="st8" d="M286.8,146.7c0.2-0.1,0.5-0.2,0.7-0.3c-0.1,1.1,0.3,2.2-0.7,3.1c-0.4-0.5-0.3-0.9,0-1.4
		C286.8,147.6,286.8,147.1,286.8,146.7z"/>
	<path class="st15" d="M275.5,99.5c0,0.2,0,0.5,0,0.7c-0.8-0.1-1.8,0.3-2.4-0.7c0.5,0,0.9,0,1.4,0C274.8,99.5,275.1,99.5,275.5,99.5
		z"/>
	<path class="st8" d="M286.8,148c0,0.5,0,0.9,0,1.4c0,0.1,0,0.2,0,0.3c-0.2,0.1-0.5,0.2-0.7,0.3C286.1,149.4,285.9,148.5,286.8,148z
		"/>
	<path class="st8" d="M212.5,120c-0.4,0.4-0.7,0.9-1.1,1.3c-1,1-1.6,2.2-1.6,3.6c0,3.4-0.2,6.7,0.1,10.1c0.2,2.2,0.4,4.4,0.8,6.5
		c0.3,2.4,1,4.7,1.3,7.1c0.1,1,0.5,2,0.8,3c0.6,2.3,1.3,4.6,2,6.8c0.2,0.8,1.1,1.4,1,2.3c-0.8,0.5-0.7-0.4-1-0.7
		c-1-1.6-1.5-3.4-2-5.2c-0.4-1.4-0.7-2.7-1.2-4.1c-0.4-1.2-0.5-2.6-0.7-3.8c-0.4-2-1.1-3.9-1-6c0.1-1.1,0-2.2-0.5-3.2
		c-0.3-0.6-0.2-1.2-0.2-1.9c0-3.6,0.1-7.3,0-10.9c-0.1-2.7,0.8-4.6,3.5-5.6C212.7,119.5,212.7,119.8,212.5,120z"/>
	<path class="st8" d="M212.5,120c0-0.2,0-0.5,0-0.7c0.2-0.6,0.6-0.9,1-1.3c2.3-2.8,3.5-5.9,2.3-9.6c-0.1-0.4-0.1-0.9-0.2-1.3
		c0-0.3,0-0.7,0-1c1,1.1,1.2,2.4,1.4,3.7c0.2,2.1,0.1,4.3-0.8,6.2C215.4,117.5,214.2,119,212.5,120z"/>
	<path class="st8" d="M214.6,160c0.3,0.3,0.6,0.6,1,0.7c1,2.3,2,4.7,2.8,7.1c0.2,0.7,0.6,1.5,1,2.2c0.4,0.8,0.4,1.6,0.3,2.5
		c0,0.4-0.2,0.6-0.7,0.6c-0.1-0.2-0.3-0.4-0.4-0.7c0.4-0.6,0.3-1.1,0-1.8c-1.1-2.6-2.1-5.3-3.2-7.9
		C215.2,161.8,214.5,161.1,214.6,160z"/>
	<path class="st8" d="M232.7,214.1c0,0.4-0.2,0.8-0.6,1c-1.3,0.8-2.4,1.8-3.8,2.6c-1.5,0.8-2.5,2.1-3.6,3.4
		c-0.6,0.6-0.4,1.3,0.4,1.4c1.5,0.2,2.9,0.9,4.5,0.9c12.7-0.1,25.4-0.1,38.1,0c1.7,0,3.2-0.7,4.8-0.9c1-0.1,1.2-1.1,0.6-2
		c-0.9-1.2-2.2-1.8-3.3-2.7c-1.7-1.5-3.8-2.5-5.4-4.1c-0.5-0.5-1.2-0.8-1-1.7c0.1-0.1,0.2-0.1,0.4,0c1.1,0.5,1.8,1.4,2.6,2.2
		c2.2,2,4.9,3.2,7.3,5c0,0,0,0,0,0c0.2,0.2,0.2,0.4,0,0.7c0.2,0.6,0.7,1,1.1,1.5c0.4,0.4,0.4,0.8,0,1.2c-0.7,0.8-1.4,1.3-2.5,1.4
		c-0.6,0.1-1.3,0.1-1.9,0.1c-14.4,0-28.8,0-43.2,0c-0.9,0-1.7,0-2.5-0.2c-1.6-0.4-1.8-0.6-1.7-2.2c0-0.3,0-0.7,0-1
		c1.8-1.5,3.6-3,5.7-4.2c0.9-0.5,1.7-1.1,2.5-1.7C231.8,214.4,232.2,214.1,232.7,214.1z"/>
	<path class="st8" d="M261.8,202.8c0-0.7,0.2-1.3,0.5-1.9c1.6-3.1,3.5-6,6-8.4c1.3-1.4,2.4-3.1,4.1-4c-0.1,1.2-0.9,1.9-1.7,2.7
		c-2.9,3.2-6,6.3-7.7,10.5c-0.3,0.7-0.5,1.5-1.3,1.9C261.6,203.3,261.6,203,261.8,202.8z"/>
	<path class="st8" d="M274.5,185.7c0-0.6,0.2-1.1,0.6-1.5c1.6-1.9,2.7-4.1,4.1-6.2c0.5-0.7,0.4-1.5,0.5-2.3c0-0.7-0.1-1.5,0.7-1.9
		c1,1.1,0.8,2.3,0.3,3.5c-0.7,1.6-1.6,3.1-2.7,4.5c-0.6,0.9-1.2,1.8-1.7,2.7C275.8,185.1,275.3,185.6,274.5,185.7z"/>
	<path class="st8" d="M261.8,202.8c0,0.2,0,0.5,0,0.7c0,2-0.1,3.9,0.8,5.8c0.4,0.9,1.2,1.6,1.3,2.7c-0.1,0-0.2,0-0.4,0
		c-1.8-1.5-2.5-3.4-2.4-5.7c0-0.7,0-1.4,0-2C261.1,203.7,261.2,203.1,261.8,202.8z"/>
	<path class="st8" d="M224.8,187.1c0.5,0.2,0.9,0.5,1.2,0.9c2.4,3.1,5.2,6,7.6,9.1c1,1.3,2.1,2.7,2.5,4.4c0.2,0.2,0.2,0.5,0,0.7
		c-0.5-0.2-0.7-0.7-1-1.1c-1.6-2.4-3.4-4.8-5.3-7c-1.5-1.7-3-3.4-4.3-5.2C225.1,188.2,224.8,187.7,224.8,187.1z"/>
	<path class="st8" d="M218,173.7c0.4,0.1,0.9,0.2,0.6,0.7c-0.3,0.7-0.3,1.3-0.3,2c0,0.5,0.1,1,0.5,1.4c1.5,1.7,2.4,3.7,3.7,5.5
		c0.5,0.7,0.9,1.4,1.6,2c0.6,0.4,0.7,1,0.7,1.7c-1.3-0.6-2.2-1.6-3-2.9c-1.2-1.9-2.1-4-3.7-5.7c-0.5-0.5-0.8-1.3-1-1.9
		C216.8,175.5,216.9,174.4,218,173.7z"/>
	<path class="st8" d="M236.1,202.1c0-0.2,0-0.5,0-0.7c0.9,0.7,1.2,1.8,1.3,2.8c0.3,2.9-0.5,5.5-2.4,7.8c-0.5,0.6-0.6,1.6-1.7,1.4
		c0.5-0.9,0.9-1.8,1.5-2.6c1.1-1.5,1.4-3.3,1.8-5c0.1-0.5,0-1-0.3-1.5C236.1,203.6,236.1,202.9,236.1,202.1z"/>
	<path class="st8" d="M233.4,213.4c-0.1,0.3-0.3,0.6-0.7,0.7C232.8,213.7,233.1,213.5,233.4,213.4z"/>
	<path class="st16" d="M273.8,219.9c0-0.2,0-0.5,0-0.7c0.3,0.1,0.6,0.3,0.7,0.7C274.2,219.9,274,219.9,273.8,219.9z"/>
	<path class="st6" d="M249.8,270.9c3.8,0,7.6,0,11.5,0c0.8,0,1.6,0.1,2.4,0.3c1.5,0.6,2.3,1.6,2.3,3.2c0,1.3,0,2.5,0,3.8
		c-0.1,2.2-1.1,3.4-3.3,3.7c-1.9,0.3-3.8,0.2-5.6,0.2c-6,0-12,0-17.9,0c-0.5,0-1,0-1.5-0.1c-2.2-0.3-4.4-1.5-4.1-4.6
		c0.1-0.8,0-1.7,0-2.6c0-1.9,0.8-3,2.6-3.6c0.8-0.3,1.6-0.3,2.4-0.3C242.2,270.9,246,270.9,249.8,270.9
		C249.8,270.9,249.8,270.9,249.8,270.9z"/>
	<path class="st6" d="M248.5,310.6c-2.8,0-5.7,0-8.5,0c-1.7,0-1.8-0.2-1.8-1.9c0-2.6,0-5.2,0-7.8c0-1.4,0.1-1.6,1.6-1.6
		c5.8,0,11.6,0,17.4,0c1.3,0,2.4,0.5,3.5,1.1c0.8,0.4,1.1,1.1,1.1,2c0,1.7,0,3.4,0,5.1c0,0.8-0.4,1.4-1.1,1.8
		c-1.1,0.8-2.4,1.3-3.8,1.2C254.1,310.6,251.3,310.6,248.5,310.6z"/>
	<path class="st17" d="M248.7,244.9c-3.1,0-6.2,0-9.2,0c-1.3,0-1.6-0.4-1.4-1.7c0.1-0.7,0.4-1,1.1-1c0.4,0,0.8,0,1.2,0
		c5.1,0,10.3,0,15.4,0c1.2,0,2.4,0.1,3.6,0.3c0.5,0.1,1,0.3,1.1,0.9c0.1,0.7-0.4,1-1,1.2c-0.7,0.3-1.4,0.3-2.2,0.3
		C254.4,244.8,251.6,244.8,248.7,244.9C248.7,244.9,248.7,244.9,248.7,244.9z"/>
	<path class="st18" d="M404.2,379.7c0.6,0,1.2,0,1.9,0c0.5,0,0.8,0.4,0.8,0.9c0,0.6-0.3,0.9-0.8,0.9c-1.3,0.1-2.6,0.1-3.9,0
		c-0.5,0-0.9-0.3-0.8-0.9c0-0.6,0.4-0.9,1-1C403,379.7,403.6,379.7,404.2,379.7z"/>
	<path class="st19" d="M404.2,375.9c-0.7,0-1.4,0-2,0c-0.4,0-0.7-0.3-0.7-0.8c0-0.4,0.3-0.6,0.6-0.7c1.5-0.3,2.9-0.3,4.4,0.1
		c0.4,0.1,0.6,0.4,0.5,0.8c0,0.4-0.3,0.6-0.7,0.6C405.5,375.9,404.9,375.8,404.2,375.9C404.2,375.8,404.2,375.9,404.2,375.9z"/>
	<path class="st0" d="M287.1,158.6c1.3-4.3,2.6-8.6,3.3-13.1c1.3-8.1,1.8-16.3,1.5-24.5c0-1-0.4-1.6-1.3-2c-1.1-0.5-2.1-1.1-3.1-1.7
		c-1.2-0.7-2.1-1.8-2.4-3.2c0-0.1,0-0.1,0-0.2c-1.2-2.9-0.7-5.4,1.3-7.8c1.2-1.4,2.1-3.1,2.6-5c1.1-3.5,0.4-6.6-1.9-9.4
		c-0.9-1.1-1.9-2-3-2.7c-2-1.4-2.8-3.4-3-5.7c-0.1-1.9,1.1-3.2,2.8-3.9c3.7-1.7,7.5-1.9,11.3-0.2c3,1.3,5.2,3.4,7,6.1
		c2.8,4.1,4,8.6,4.5,13.5c0.7,6.8-0.4,13.5-1.9,20.2c-2.5,11.1-6.9,21.6-12.3,31.6c-1.6,3-3.4,5.9-5.1,8.9
		C286.8,159.3,287,158.9,287.1,158.6z"/>
	<path class="st0" d="M211.2,160c-4.7-8-9.1-16.1-12.5-24.7c-3.4-8.5-5.8-17.3-6.9-26.4c-0.8-6.5-0.5-13,1.9-19.2
		c1.3-3.4,3.3-6.4,6.2-8.7c3.9-3,8.2-3.9,12.9-2.4c4.4,1.4,5.6,4.2,3.3,8.3c-0.5,0.9-1.1,1.6-1.9,2.1c-0.5,0.3-0.9,0.7-1.4,1
		c-4.3,3.7-5.2,8.5-2.6,13.6c0.7,1.3,1.5,2.4,2.4,3.6c1.3,1.7,1.4,3.4,1,5.5c-0.6,2.7-2,4.6-4.5,5.6c-2.3,0.8-2.7,2.3-2.8,4.6
		c-0.1,8.6,0.5,17.1,2.1,25.5c0.7,3.9,1.9,7.6,3.2,11.3C211.7,160,211.5,160.1,211.2,160z"/>
	<path class="st8" d="M228.6,99.5c0.2-0.4,0.6-0.6,1.1-0.7c2.7-0.2,5.4-0.6,8.1-0.7c7.4-0.1,14.8-0.1,22.2,0c2.9,0,5.9,0.4,8.8,0.7
		c0.5,0,0.9,0.2,1.1,0.7c-1.6,0-3.3,0.2-4.9-0.6c-0.4-0.2-1-0.1-1.5-0.1c-9.8,0-19.6,0-29.3,0c-0.9,0-1.7,0.1-2.5,0.4
		C230.8,99.7,229.7,99.4,228.6,99.5z"/>
</g>
</svg>
