<?xml version="1.0" encoding="utf-8"?>
<!-- Generator: Adobe Illustrator 25.0.0, SVG Export Plug-In . SVG Version: 6.00 Build 0)  -->
<svg version="1.1" id="Calque_1" xmlns="http://www.w3.org/2000/svg" xmlns:xlink="http://www.w3.org/1999/xlink" x="0px" y="0px"
	 viewBox="0 0 500 500" style="enable-background:new 0 0 500 500;" xml:space="preserve">
<style type="text/css">
	.st0{fill:#BFBFBF;}
	.st1{fill:#FDFDFD;stroke:#BCBCBC;stroke-miterlimit:10;}
	.st2{fill:#CCCCCC;}
	.st3{fill:#7E7E7E;}
	.st4{fill:#BBBBBB;}
	.st5{fill:#060606;}
	.st6{fill:#070707;}
	.st7{fill:#C7C7C7;}
	.st8{fill:#FDFDFD;}
	.st9{fill:#FAFAFA;}
	.st10{fill:#EFEFEF;}
	.st11{fill:#F0F0F0;}
</style>
<g>
	<path class="st0" d="M16.4,412.2c1,0,2,0,3,0c155.6,0,311.2,0,466.8,0c0.8,0,1.7,0,2.5,0c-0.1,0.1,0.2,0.3-0.2,0.3
		c-0.4,0-0.9,0-1.3,0c-156.9,0-313.8,0-470.8,0C16.4,412.4,16.4,412.3,16.4,412.2z"/>
	<path class="st1" d="M173.6,306.7c0-26.9,0-53.9,0-80.8c0-2.5-0.3-2.2,2.2-2.2c50.2,0,100.4,0,150.6,0c2.5,0,2.3-0.4,2.3,2.3
		c0,53.7,0,107.5,0,161.2c0,2.8,0.3,2.3-2.4,2.3c-50.2,0-100.3,0-150.5,0c-2.6,0-2.3,0.4-2.3-2.3
		C173.6,360.5,173.6,333.6,173.6,306.7z"/>
	<path class="st1" d="M95,389.6c-25.2,0-50.4,0-75.7,0c-2.2,0-2,0.3-2-2.1c0-38.3,0-76.6,0-115c0-2.4-0.3-2.1,2.1-2.1
		c50.3,0,100.6,0,150.8,0c2.3,0,2.1-0.3,2.1,2.1c0,38.3,0,76.5,0,114.8c0,2.5,0.2,2.2-2.2,2.2C145.2,389.7,120.1,389.6,95,389.6z"/>
	<path class="st1" d="M409,389.6c-25.5,0-51,0-76.5,0c-2.5,0-2.3,0.4-2.3-2.2c0-26.4,0-52.8,0-79.1c0-2.3-0.2-2.2,2.1-2.2
		c51.1,0,102.1,0,153.2,0c2.4,0,2.2-0.2,2.2,2.1c0,26.4,0,52.9,0,79.3c0,2.3,0.2,2.1-2,2.1C460.1,389.6,434.6,389.6,409,389.6z"/>
	<path class="st2" d="M484.6,304.8c-0.6,0-1.2,0-1.8,0c-50.2,0-100.3,0-150.5,0c-2.6,0-2.4,0.3-2.4-2.4c0-8.3,0-16.6,0-24.9
		c0-0.4,0-0.9,0-1.3c0-0.8,0.3-1.1,1.1-1.1c0.4,0,0.9,0,1.3,0c36,0,72,0,108,0c1.4,0,2.5,0.4,3.7,1.2c13.1,9.1,26.2,18.1,39.3,27.2
		c0.5,0.3,1,0.7,1.4,1C484.7,304.5,484.6,304.6,484.6,304.8z"/>
	<path class="st2" d="M19.9,269.1c0.4-0.8,0.9-1,1.4-1.3c11.8-7.3,23.7-14.6,35.5-22c1-0.6,1.9-0.9,3.1-0.9c36.8,0,73.6,0,110.5,0
		c0.2,0,0.4,0,0.7,0c1.4,0,1.5,0,1.5,1.5c0,7,0,14,0,21.1c0,1.5,0,1.5-1.5,1.5c-0.4,0-0.8,0-1.2,0c-49.3,0-98.5,0-147.8,0
		C21.4,269.1,20.8,269.1,19.9,269.1z"/>
	<path class="st2" d="M175.6,222.1c-0.1-0.4,0.3-0.6,0.5-0.8c3.8-3.8,7.5-7.6,11.3-11.5c0.6-0.6,1.2-1,2.2-1c11.1,0,22.2,0,33.3,0
		c0.3,0,0.7-0.1,1,0.2c0,0.6-0.5,0.8-0.8,1.1c-0.8,0.9-1.7,1.8-2.3,2.9c-1.1,2-0.2,3.7,2.2,3.7c2.5,0,5.1,0,7.6,0
		c9.8-0.1,19.7-0.5,29.5-0.2c6.2,0.2,12.5,0.2,18.7,0.2c0.3,0,0.7,0,1,0c1.8-0.2,2.7-1.6,2-3.3c-0.5-1.1-1.3-2-2.1-2.9
		c-0.4-0.4-0.8-0.9-1.2-1.3c0.4-0.5,0.9-0.3,1.3-0.3c11.2,0,22.5,0,33.7,0c0.8,0,1.5,0.1,2.1,0.7c3.7,4,7.4,7.9,11.1,11.8
		c0.1,0.2,0.2,0.4,0.3,0.5c-0.1,0.1-0.1,0.1-0.1,0.2c0,0-0.1,0.1-0.1,0.1c-49.8,0-99.6,0-149.5,0.1c-0.4,0-0.9,0-1.3,0
		C175.8,222.3,175.7,222.2,175.6,222.1z"/>
	<path class="st3" d="M217.5,93c0.2,0.4,0,1,0.3,1.4c-0.3,0.8-0.8,0.6-1.2,0.2c-0.4-0.3-0.6-0.8-0.7-1.3c0.3,1.2-0.1,2.5,0.4,3.7
		c0.3,0.6-0.1,1.2-0.9,1.2c-1.9-1.3-2.3-3.3-2.5-5.2c-0.4-4,1.5-7,4.7-9.2c2-1.4,2.9-3.4,3.2-5.9c0.2-2.2-0.8-3.5-2.5-4.5
		c-5.4-2.9-11.5-2-16.3,2.5c-3.7,3.5-5.6,8-6.6,12.9c-0.7,3.2-0.7,6.5-0.7,9.8c0,0.6,0.1,1.1-0.3,1.6c-1,0.9-2.1,1.6-3.4,0.5
		c-0.5-2.6-0.4-5.3-0.2-7.9c0.2-4.6,1.2-9.1,3.3-13.2c1.9-3.8,4.5-7,8.1-9.2c5.9-3.6,11.9-3.8,18-0.6c4.7,2.5,5.7,5.2,4.6,10.5
		c-0.6,3-2.3,5.4-4.8,7.2c-1,0.8-1.9,1.7-2.4,2.9C217.2,91.3,217.3,92.1,217.5,93z"/>
	<path class="st3" d="M307.4,78.1c1.5,2.3,2.3,4.9,3,7.4c0.3,1,0.5,2.1,0.7,3.1c0.3,0.5,0,1.2,0.3,1.7c0.7,4.4,0.5,8.8-0.1,13.2
		c-2.1,15.1-7.4,29.1-14.6,42.3c-3.8,6.9-7.8,13.7-11.9,20.5c-0.3,0.6-0.8,1.1-1.2,1.6c-0.5,0.1-0.8-0.3-0.7-0.7
		c0.3-1.1-0.4-1.9-1-2.7c-0.1-0.7,0.3-1.3,0.6-1.8c5.8-9.8,11.8-19.5,16.4-30c2.9-6.4,5.1-12.9,6.7-19.7c1.6-6.8,2.6-13.7,2.1-20.8
		c0-0.1,0-0.2-0.1-0.3c0-0.6,0.3-1.2,0.9-1.3c1.4-0.1,1.2-1.1,1.1-1.9c-0.1-1.3-0.5-2.5-1-3.7c-0.7-1.8-1.1-3.7-1.9-5.5
		C306.3,79.1,306.3,78.3,307.4,78.1z"/>
	<path class="st3" d="M307.4,78.1c-0.2,0.4-0.3,0.7-0.1,1.1c1,1.8,1.3,3.8,2.1,5.7c1,2.3,1.2,4.7,1,7.1c0,0.2,0,0.4-0.1,0.7
		c-0.1,0.2-0.2,0.4-0.4,0.4c-0.3,0-0.5-0.1-0.5-0.3c-0.1-0.3-0.2-0.6-0.3-0.9c-0.1-0.2-0.2-0.5-0.4-0.3c-0.1,0.1-0.2,0.4-0.3,0.6
		c-0.9,0-0.9-0.8-1-1.4c-0.8-5.6-2.6-10.7-6.8-14.6c-4.7-4.5-10.4-5.5-16.1-2.9c-2.7,1.2-3.6,3.5-2.7,6.4c0.6,2,1.7,3.4,3.4,4.7
		c5.4,4,5.5,10,1.6,14.8c-0.2,0.3-0.5,0.5-0.8,0.5c-0.8,0-1-0.5-0.8-1.2c0.2-0.5,0.3-1.1,0.6-1.5c0.4-0.7,0.3-1.2-0.6-1.5
		c-0.5-0.1-1-0.3-0.8-1c0.1-0.5,0.3-1.1,0.4-1.6c0.3-2-0.3-3.6-1.9-4.8c-0.5-0.4-1.1-0.8-1.5-1.3c-3.2-3-4.5-6.7-4-11
		c0.2-1.4,0.8-2.5,1.8-3.5c2.5-2.6,5.7-3.9,9.2-4.3c6.1-0.7,11.2,1.3,15.4,5.6C305.3,74.8,306.6,76.2,307.4,78.1z"/>
	<path class="st3" d="M190.9,100.8c0.1-0.6,0-1.3,0.3-2.1c0.5,0.4,0.4,1,0.5,1.4c0.1,0.3,0.2,0.7,0.6,0.7c0.4,0,0.5-0.3,0.6-0.7
		c0.1-0.4-0.1-0.9,0.4-1.3c0.5,0.4,0.3,1.1,0.6,1.6c1,0.3,1,1.3,1,2c0.3,5.4,1.7,10.5,3.1,15.6c3.2,11.5,8.6,22.1,14.5,32.4
		c2.4,4.2,4.8,8.4,7.3,12.6c0.3,0.4,0.5,0.9,0.4,1.4c-0.5,1-1.6,1.8-0.8,3.2c0.1,0.3-0.2,0.7-0.8,0.5c-2.8-4.2-5.3-8.7-7.8-13.1
		c-4.7-8-9.2-16-12.5-24.6c-3.1-7.9-5.6-15.9-6.9-24.3C191.2,104.3,190.8,102.6,190.9,100.8z"/>
	<path class="st3" d="M284.5,94.3c0.7,0.5,1-0.1,1.4-0.4c0.5-0.4,0.8-0.2,0.9,0.4c0.1,0.9,0.1,1.7-0.3,2.6c-0.3,0.8-0.9,1.5-0.7,2.5
		c0.5,0.6,0.3,1.1-0.1,1.6c-1.4,1.8-1.4,3.8-0.7,5.9c0.3,0.8,0.9,1.7,0.1,2.6c-0.2,0.2-0.5,0.3-0.8,0.2c-0.2-0.1-0.3-0.2-0.4-0.3
		c-0.3-0.6-0.6-1.1-0.8-1.7c0-0.3-0.1-0.5-0.1-0.8c-0.4-1.8-0.3-3.5,0.1-5.3c0.1-1.1,1-1.9,1.2-3c0.1-1.1,0.1-1.9-1.3-2
		c-1.4-0.1-2.5-0.9-3.6-1.5c-3.4-1.7-7.1-2-10.8-2.3c-9.4-0.9-18.9-0.4-28.3-0.4c-4.1,0-8.2,0.7-12.3,1.1c-1,0.1-2,0.6-2.9,1.1
		c-1.5,0.7-3.1,1.3-4.7,1.9c-0.2,0.1-0.4,0.2-0.6,0.2c-1.9,0.2-2.4,1.3-1.3,3.1c0.8,1.2,1.5,2.4,1.3,3.9c0.4,2.9-0.6,5.3-2,7.7
		c-0.2,0.4-0.5,0.7-0.8,1.1c-0.4,0.3-0.7,0.6-1.1,0.8c-2.1,0.9-3,2.5-3,4.7c-0.1,3.4-0.4,6.9,0.1,10.3c0.4,2.7,0,5.5,1.1,8.1
		c0.1,0.2,0-0.1,0,0.2c-0.3,2.9,1.3,5.4,1.8,8.2c0.7,3.5,1.9,6.9,3.3,10.1c1,2.4,1.9,4.9,3,7.3c0.4,0.8,0.6,1.6-0.5,2
		c-0.8,0-1.2-0.5-1.5-1.1c-3.5-7.3-6.3-15-7.8-23c-1-5.2-1.6-10.4-1.7-15.7c0.2-3.7,0.2-7.4,1.4-10.9c0.1-1,1.1-1.2,1.7-1.6
		c3-1.9,4.7-5.7,3.9-8.9c-0.3-1.1-1-2-1.7-3c-0.3-0.5-0.8-1-0.3-1.7c0.1-0.2,0.3-0.5,0.2-0.6c-0.6-1.3-0.3-2.8-0.9-4.2
		c-0.3-0.7-0.2-1.4,0.3-2c0.2-0.2,0.4-0.4,0.7-0.4c0.4,0,0.6,0.3,0.6,0.7c0.1,0.4,0.1,0.9,0.2,1.3c0.2,0.6,0.2,1.5,1.2,1.5
		c0.5,0.8,1.2,1,2.1,0.5c0.6-0.4,1.3-0.6,1.9-1c2.2-1.4,4.6-2.3,7.3-2.4c2.9-0.1,5.8-0.5,8.7-0.4c1.5,0.4,3.1,0,4.6,0
		c5.9,0,11.8,0,17.7,0c1.5,0,3.1,0.4,4.6,0c3.7,0,7.4,0.3,11,0.7c1.4,0.2,2.6,0.9,3.8,1.5c1,0.6,2,1.1,3.1,1.6
		C283.6,95.5,283.7,95.4,284.5,94.3z"/>
	<path class="st3" d="M282.1,164.7c1.4,0.3,1.5,0.5,1.5,1.7c0,0.5-0.3,1.1,0,1.6c0,0.6-0.4,1-0.7,1.5c-3.3,5.3-6.9,10.3-11,14.9
		c-1.4,1.6-2.7,3.2-4,4.8c-0.7,0.9-1.4,1.9-2,2.8c-2.1,3.5-1.7,7.3,1.1,10.3c1.5,1.5,3.3,2.6,5,3.8c1.3,0.9,2.7,1.5,3.7,2.8
		c-0.1,0.2,0,0.5,0,0.7c-0.1,0.1-0.2,0.3-0.3,0.3c-0.4,0.2-0.8,0.1-1.2,0c-0.1-0.1-0.3-0.2-0.4-0.3c-0.4-1.2-1.5-1.6-2.5-2.1
		c-2.8-1.5-4.7-4-7.1-6c-0.1-0.1-0.2-0.3-0.2-0.4c-0.1-0.9-0.2-1.8-0.7-2.7c-0.7-1.2-0.6-2.7,0-4c1.8-4.4,4.3-8.4,7.8-11.7
		c2.3-2.2,3.8-5,5.9-7.4c1.6-1.9,2.8-4.1,4.1-6.1c0.8-1.3,0.9-2.5,0.2-3.9c0-0.2,0-0.3,0.1-0.5C281.4,164.6,281.7,164.5,282.1,164.7
		z"/>
	<path class="st3" d="M223.8,211.5c1.7-2.1,3.9-3.5,6.1-5c1.5-1,3.1-2,4.5-3.1c1.7-1.5,3-3.2,3.4-5.5c0.4-1.8,0.2-3.4-0.7-5
		c-0.9-1.6-1.9-3.1-3.1-4.5c-2.3-2.8-4.7-5.5-7-8.2c-1.5-1.7-2.8-3.5-4-5.5c0.1-0.3,0.1-0.6,0.4-0.8c0.7-0.2,0.9,0.4,1.2,0.8
		c2.7,3.4,5.3,6.8,8.2,9.9c0.3,0.4,0.7,0.7,1.1,1c0.1,0.1,0.2,0.3,0.2,0.5c0.3,0.9,0.9,1.6,1.5,2.3c1.9,2,3.1,4.3,3.5,7
		c0.3,2.4-0.6,4.5-1.5,6.6c-1.5,2.5-4,3.9-6.4,5.4c-2.1,1.3-3.8,2.8-5,5c-0.3,0.8,0.2,1.1,0.9,1.1c0.6,0.1,1.2,0.2,1.7,0.6
		c0.5,0.4,0.6,0.8-0.1,1c-0.8,0.1-1.6,0.1-2.5,0C223.7,215,223.1,214.2,223.8,211.5z"/>
	<path class="st3" d="M229.1,214.8c-0.7-0.5-1.6-0.3-2.4-0.4c-1.4-0.3-2.1-1-1.8-2.2c0.1-0.3,0.3-0.6,0.6-0.7
		c1.1,1.6,2.6,2.2,4.5,2.1c1.3,0,2.5,0.1,3.8,0.1c10.6,0,21.2,0,31.8,0c2.6,0,5.3,0,7.9-0.2c1.7-0.1,2.2-0.7,1.6-2.3
		c-0.2-0.6-0.3-1.1,0.2-1.7l0,0c1.3,0.2,3.3,2.3,3.3,3.5c0,1.1-0.6,1.6-1.5,1.8c-0.6,0.1-1.2,0.3-1.9,0.2c-1,0-2,0-2.9,0.2
		c-5.6,0.1-11.2-0.2-16.8-0.2c-0.6,0-1.2-0.1-1.8,0.1c-1.7,0-3.3,0-5,0c-2.8-0.3-5.6-0.2-8.4-0.1c-3.5,0.2-7.1,0.1-10.6,0.1
		C229.5,215.1,229.3,215,229.1,214.8z"/>
	<path class="st3" d="M275.3,214.5c2.8-0.3,3.3-1.4,1.6-3.6c-0.4-0.6-0.9-1.1-1.6-1.4c0.1-0.2,0.2-0.4,0.3-0.6
		c1.7,1.3,3.4,2.6,4.6,4.4c0.3,0.5,0.8,1,0.5,1.7c-0.3,0.7-1,0.6-1.6,0.6c-5.3,0-10.6-0.1-15.9-0.2c-3.1,0-6.3-0.1-9.4-0.2
		c0.7-0.4,1.5-0.3,2.3-0.3c5.5,0,11.1,0,16.6,0C273.4,214.4,274.4,214.9,275.3,214.5z"/>
	<path class="st3" d="M264.6,91.1c-0.6,0.3-1.3,0.3-1.9,0.3c-7.7,0-15.3,0-23,0c-0.7,0-1.3,0-1.9-0.3c5.6-0.4,11.2-0.5,16.8-0.4
		C257.9,90.7,261.3,90.7,264.6,91.1z"/>
	<path class="st3" d="M229.4,214.8c5.7,0,11.3,0,17,0c0.8,0,1.5-0.1,2.3,0.3c-8.5,0.2-16.9,0.4-25.4,0.4c-0.4,0-0.9,0.1-1.2-0.3
		c0.5-0.9,1.3-0.7,2.1-0.6C225.9,215,227.7,215.2,229.4,214.8z"/>
	<path class="st3" d="M223.5,174c-0.1,0.2-0.3,0.5-0.4,0.7c-1.6-2.1-3-4.4-4.3-6.6c0.2-0.3,0.2-0.7,0.1-1.1c-0.5-1.7-0.5-1.7,1-2.7
		c0.6-0.1,1,0.1,1.3,0.7c-1.3,2.4-0.3,4.3,1.2,6.1c0.2,0.6,0.7,1,0.8,1.5c0.1,0.1,0.1,0.3,0.1,0.4c0.1,0.3,0.2,0.6,0.2,0.8
		C223.5,173.8,223.5,173.9,223.5,174z"/>
	<path class="st3" d="M229.4,214.8c-0.6,0.4-1.3,0.3-1.9,0.3c-1.8,0-3.6,0-5.5,0.1c-0.7-0.4-0.4-1-0.1-1.4c0.5-0.9,1.1-1.7,1.9-2.3
		c0.2,0.3,0.3,0.7,0.3,1.1c0.2,1.6,0.7,2.1,2.2,2.2c0.9,0.1,1.8,0,2.8,0C229.2,214.8,229.3,214.8,229.4,214.8z"/>
	<path class="st3" d="M217.5,93c-0.4-0.9-0.4-1.8,0-2.6C217.5,91.3,217.5,92.1,217.5,93z"/>
	<path class="st4" d="M311.4,90.4c-0.3-0.5-0.3-1.1-0.3-1.7C311.4,89.2,311.4,89.8,311.4,90.4z"/>
	<path class="st5" d="M229,386.7c-2.5,0-5.1,0-7.6,0c-1.4,0-1.5-0.1-1.5-1.5c0-4.7,0-9.4,0-14.1c0-2.8,1.3-4.5,3.9-5.3
		c5.4-1.8,10.8-1.7,16,0.9c3.5,1.7,7.1,3.4,10.6,5.2c1.2,0.6,2.2,0.6,3.4,0c3.7-1.9,7.5-3.7,11.4-5.5c4.8-2.2,9.8-2.4,14.9-0.7
		c1,0.3,1.9,0.8,2.7,1.5c0.9,0.7,1.5,1.7,1.5,2.9c0,5.1,0,10.3,0,15.4c0,1.1-0.2,1.3-1.4,1.3c-3.2,0-6.4,0-9.6,0c-2,0-4,0-6,0
		c-1.3,0-1.4-0.1-1.4-1.5c0-2.4,0-4.9,0-7.3c0-0.3,0-0.7,0-1c-0.1-1.1-0.2-1.1-1.2-0.7c-0.3,0.1-0.6,0.3-0.9,0.4
		c-3.3,1.6-6.7,3.2-10,4.9c-1.1,0.6-2.1,0.5-3.1,0c-3.4-1.7-6.8-3.3-10.1-4.9c-0.3-0.2-0.7-0.3-1.1-0.5c-0.8-0.3-1-0.2-1.1,0.6
		c-0.1,0.8,0,1.7,0,2.5c0,2,0.1,4,0,6c0,1.3-0.1,1.4-1.4,1.5C234.2,386.8,231.6,386.8,229,386.7C229,386.8,229,386.8,229,386.7z"/>
	<path class="st5" d="M250.3,276.1c-3.7-0.1-9.1,0.2-14.5-0.2c-3.4-0.3-6.8-0.7-10-2c-2.3-0.9-4.4-2.1-6.1-3.9
		c-2.9-3.1-2.9-7.2,0.1-10.3c1.7-1.8,3.9-2.9,6.2-3.8c4.5-1.6,9.1-2.1,13.9-2.1c8.7,0,17.4,0,26,0c4.6,0,9.1,0.8,13.4,2.7
		c1.6,0.7,3.1,1.5,4.3,2.8c3.3,3.5,3.2,8.2-0.4,11.4c-1.5,1.4-3.4,2.3-5.3,3c-4.4,1.7-9,2.1-13.7,2.2
		C260.1,276.2,256.1,276.1,250.3,276.1z"/>
	<path class="st5" d="M245.8,281.6c5.8,0,12.6,0,19.3,0.3c4.2,0.2,8.2,1.2,11.8,3.4c1.2,0.7,2.2,1.5,3.1,2.5c2.6,3.1,2.6,6.9,0,10
		c-1,1.2-2.3,2.1-3.7,2.8c-4,2.1-8.4,3.1-12.9,3.3c-8.8,0.3-17.7,0.3-26.5,0.2c-4-0.1-8.1,0-12.1,0c-2.6,0-2.6,0-2.6-2.6
		c0-5.9,0-11.8,0-17.7c0-1.8,0.1-2,2-2C231.1,281.6,238,281.6,245.8,281.6z"/>
	<path class="st5" d="M246.9,226.1c7.2,0,14.4,0,21.6,0c3.1,0,6.1,0.5,8.9,1.7c1.1,0.5,2.2,1.1,3.1,1.9c2.2,2.1,2,5.4-0.5,7.2
		c-2.3,1.6-4.8,2.5-7.5,2.8c-2.3,0.3-4.5,0.3-6.8,0.3c-7.6,0-15.3,0-22.9,0c-0.2,0-0.4,0-0.7,0c-1.3,0.1-1.4,0.2-1.4,1.5
		c0,1.5,0,3.1,0,4.6c0,2.2,0,2.2-2.2,2.2c-4.6,0-9.2,0-13.8,0c-0.4,0-0.8,0-1.2,0c-1.2,0-1.3-0.1-1.3-1.4c0-0.2,0-0.3,0-0.5
		c0-6.1,0-12.2,0-18.2c0-0.2,0-0.3,0-0.5c0.1-1.5,0.2-1.6,1.6-1.6c4.5,0,9,0,13.4,0C240.5,226,243.7,226,246.9,226.1
		C246.9,226.1,246.9,226.1,246.9,226.1z"/>
	<path class="st5" d="M252,359.1c-3,0-6.1,0-9.1,0c-4.5,0-8.8-0.8-13-2.4c-2.1-0.8-4-1.9-5.5-3.6c-1.4-1.5-2.2-3.2-2.2-5.2
		c0-3.1,0-6.3,0-9.4c0-1.5,0.2-1.7,1.8-1.7c3.6,0,7.3,0,10.9,0c1.2,0,2.4-0.1,3.6-0.2c1.7-0.1,2.2,0.4,2.1,2.1
		c-0.1,3.6-0.1,7.3-0.1,10.9c0,1.3,0.5,2.3,1.7,3c1.1,0.6,2.3,1,3.6,1c4.1,0,8.2,0,12.3,0c0.6,0,1.2,0,1.8-0.2
		c2.6-0.6,3.7-1.9,3.5-4.6c-0.2-3.4,0-6.8,0-10.3c0-1.6,0.1-1.7,1.7-1.8c5,0,10.1,0,15.1,0c1.4,0,1.6,0.2,1.6,1.6c0,3.3,0,6.6,0,9.9
		c0,2-0.8,3.6-2.2,5c-1.6,1.6-3.5,2.6-5.6,3.4c-3.8,1.4-7.8,2.2-11.8,2.3C258.8,359.2,255.4,359.1,252,359.1
		C252,359.1,252,359.1,252,359.1z"/>
	<path class="st5" d="M261.2,320.4c0,2.8,0,5.6,0,8.4c0,0.4,0,0.8,0,1.2c-0.1,1.4-0.2,1.5-1.5,1.5c-3.4,0-6.8,0-10.3,0
		c-1.7,0-3.4,0-5.1,0c-1.4,0-1.5-0.2-1.5-1.6c0-6.3,0-12.7,0-19c0-1.5,0.1-1.6,1.6-1.6c5.1,0,10.3-0.1,15.4,0c1.3,0,1.5,0.2,1.5,1.4
		C261.3,313.9,261.3,317.2,261.2,320.4C261.3,320.4,261.2,320.4,261.2,320.4z"/>
	<path class="st5" d="M111.5,336.3c2.4,0,4.8,0,7.1,0c1.6,0,1.6,0,1.7,1.6c0,0.2,0,0.4,0,0.7c0,1-0.3,1.4-1.3,1.4
		c-0.9,0-1.8-0.1-2.6-0.1c-2.6,0-5.2,0-7.8,0c-0.6,0-1.2,0-1.8,0.3c-0.5,0.3-0.5,0.7-0.1,1.1c0.5,0.4,1,0.4,1.6,0.4
		c1.8,0,3.5,0,5.3,0c1,0,2,0.1,3,0.2c2,0.2,3.1,1.5,3.6,3.4c0.5,1.7-0.1,3.4-1.7,4.5c-1,0.8-2.2,1.1-3.4,1.1c-4.8,0-9.5,0-14.3,0
		c-1.2,0-1.5-0.3-1.6-1.4c-0.1-2,0.2-2.3,2.2-2.3c3,0,6,0.1,8.9,0.1c0.8,0,1.5-0.1,2.3-0.2c0.3,0,0.5-0.2,0.5-0.6
		c0-0.4-0.1-0.6-0.5-0.8c-0.5-0.2-1-0.2-1.5-0.2c-2.5,0-5.1,0.2-7.6,0c-1.8-0.2-3.1-1-3.9-2.6c-1.2-2.5,0.1-5.4,2.9-6.1
		c0.9-0.3,1.9-0.2,2.8-0.2c1,0,2,0,3,0C109.5,336.3,110.5,336.3,111.5,336.3C111.5,336.3,111.5,336.3,111.5,336.3z"/>
	<path class="st5" d="M89,336.3c2.4,0,4.8,0,7.1,0c1.4,0,1.5,0.2,1.5,1.5c0,0.3,0,0.6,0,0.8c0,0.8-0.3,1.3-1.2,1.3
		c-0.4,0-0.9,0-1.3,0c-3,0-6.1,0-9.1,0c-0.6,0-1.1,0-1.6,0.2c-0.3,0.1-0.6,0.3-0.6,0.7c0,0.4,0.3,0.6,0.6,0.7
		c0.6,0.1,1.2,0.2,1.8,0.2c2,0,4.1,0,6.1,0c0.8,0,1.5,0.1,2.3,0.3c1.8,0.6,3,2.3,3.1,4.1c0,1.9-1,3.5-2.9,4.2
		c-0.9,0.4-1.9,0.5-2.9,0.5c-4.4,0-8.8,0-13.3,0c-0.6,0-1.4,0.2-1.6-0.5c-0.3-0.9-0.4-2,0.1-2.9c0.3-0.5,0.8-0.5,1.3-0.5
		c3.3,0.3,6.5,0,9.8,0.1c0.7,0,1.4-0.2,2.1-0.3c0.3-0.1,0.4-0.3,0.4-0.6c0-0.3-0.2-0.5-0.5-0.6c-0.5-0.1-1-0.2-1.5-0.2
		c-2,0-4,0-6,0.1c-1.3,0-2.5-0.1-3.7-0.7c-1.7-0.9-2.4-2.2-2.3-4.2c0.2-1.9,1.2-3.3,2.9-3.9c0.7-0.2,1.5-0.3,2.3-0.3
		C84.3,336.3,86.7,336.3,89,336.3z"/>
	<path class="st5" d="M40.1,336.3c2.3,0,4.6,0,7,0c2.2,0,3.8,0.9,4.7,3c0.6,1.2,0.4,2.4-0.4,3.4c-0.4,0.5-0.5,1,0,1.6
		c0.7,0.9,0.9,2,0.8,3.1c-0.2,3.7,0.5,3.4-3.4,3.4c-0.7,0-1.4,0-2.2,0c-1.2,0-1.3-0.1-1.4-1.3c0-0.9,0-1.9,0-2.8
		c-0.1-1.1-0.2-1.3-1.3-1.3c-1.7,0-3.4,0-5.1,0c-0.8,0-1.2,0.4-1.2,1.2c0,1,0.1,2,0,3c0,1.1-0.2,1.2-1.3,1.3c-1.3,0-2.5,0-3.8,0
		c-0.8,0-1.2-0.4-1.2-1.2c0-2.3,0-4.6,0-7c0-0.6,0.3-0.9,0.9-1c0.5,0,1-0.1,1.5-0.1c3.1,0,6.2,0,9.3,0c0.6,0,1.2,0,1.8-0.4
		c0.5-0.3,0.5-0.7,0-1.1c-0.5-0.3-1.1-0.3-1.6-0.3c-3.3,0-6.5,0-9.8,0c-0.4,0-0.8,0-1.2,0c-0.2,0-0.5,0-0.6-0.2
		c-0.5-0.9-0.3-1.8-0.1-2.7c0.1-0.7,0.8-0.7,1.3-0.7C35.2,336.3,37.6,336.3,40.1,336.3C40.1,336.3,40.1,336.3,40.1,336.3z"/>
	<path class="st5" d="M68.2,321.3c-0.9,2.2-1.8,4.4-2.6,6.6c-0.4,1-0.8,1.4-1.9,1.4c-1.4-0.1-2.9,0-4.3,0c-1,0-1.1-0.2-0.8-1.1
		c1.1-2.6,2.2-5.2,3.3-7.8c1.6-3.7,4.5-5.6,8.6-5.5c1.4,0,2.9,0,4.3,0c3.1,0.1,4.5,1.7,4.4,4.7c-0.1,2.6-0.1,5.2-0.1,7.8
		c0,1.6-0.1,1.7-1.7,1.7c-1,0-2,0-3,0c-1.4,0-1.7-0.3-1.7-1.8c0-0.6,0-1.2,0-1.8c-0.1-1.4-0.1-1.4-1.6-1.7c-1,0.2-1.9,0.1-2.2-1
		c-0.5-1.9,0-2.8,1.5-3.5C69.3,319.6,69.1,320.9,68.2,321.3z"/>
	<path class="st5" d="M68.2,341.2c0-1.2,0-2.3,0-3.5c0-1.1,0.2-1.3,1.2-1.4c1.4-0.1,2.9,0,4.3,0c0.7,0,1.1,0.4,1.1,1.1
		c-0.2,2.5,0.1,5.1-0.3,7.6c-0.3,2.2-1.5,3.8-3.5,4.7c-1.2,0.6-2.5,1-3.8,1c-2.4,0-4.8,0.1-7.1-0.3c-3.7-0.5-6-3-6.1-6.7
		c-0.1-2-0.1-4.1-0.1-6.1c0-1.3,0.1-1.4,1.4-1.4c1.2,0,2.4,0,3.6,0c1.2,0,1.4,0.2,1.4,1.5c0,2.2,0,4.4,0,6.6c0,2.1,0.4,2.5,2.5,2.6
		c0.8,0,1.7,0.1,2.5,0.1c2.3,0,2.8-0.4,2.8-2.8C68.2,343.3,68.2,342.2,68.2,341.2C68.2,341.2,68.2,341.2,68.2,341.2z"/>
	<path class="st5" d="M134.8,336.3c1.8,0,3.5,0,5.3,0c1.3,0,1.4,0.2,1.4,1.5c0,0.3,0,0.7,0,1c0,0.7-0.4,1.1-1.1,1.1
		c-0.8,0-1.7,0.1-2.5,0c-2.2,0-4.4,0-6.6,0c-0.7,0-1.4,0.1-2,0.6c-0.2,0.2-0.4,0.5-0.3,0.9c0.1,0.3,0.4,0.3,0.7,0.3
		c1.6,0,3.2-0.1,4.8-0.1c0.2,0,0.4,0,0.7,0c2.2,0,2.5,0.3,2.3,2.5c-0.1,0.8-0.4,1.2-1.2,1.2c-1.7,0-3.3,0-5,0c-0.6,0-1.1,0-1.7,0
		c-0.3,0-0.6,0.1-0.7,0.4c-0.1,0.4,0.1,0.6,0.4,0.8c0.7,0.5,1.4,0.5,2.2,0.5c2.7,0,5.3,0,8,0.1c2,0,2,0,2,2.1c0,1.5-0.3,1.7-1.8,1.7
		c-3,0-6,0-9,0c-1.3,0-2.5-0.2-3.8-0.6c-3.2-1-5-3.5-4.8-6.9c0.2-3.5,2.3-6.1,5.5-6.8c1.8-0.4,3.5-0.2,5.3-0.2
		C133.7,336.3,134.2,336.3,134.8,336.3C134.8,336.3,134.8,336.3,134.8,336.3z"/>
	<path class="st5" d="M130.2,323.5c0,1.1,0,2.1,0,3.2c-0.1,1.9-1.8,3.1-3.6,2.5c-1-0.3-1.9-0.9-2.7-1.5c-1.3-0.9-2.5-1.8-3.8-2.6
		c-0.2-0.1-0.4-0.4-0.7-0.2c-0.3,0.2-0.3,0.5-0.3,0.7c0.2,0.9,0,1.9,0,2.8c0,0.7-0.4,0.9-1.1,1c-3.5,0.4-3.6,0.3-3.6-3.3
		c0-1.3,0-2.5,0-3.8c0.1-2.7,2.2-3.9,4.5-2.6c1.8,1,3.5,2.3,5.3,3.4c0.4,0.3,0.8,0.8,1.3,0.5c0.4-0.3,0.1-0.8,0.2-1.2
		c0-0.6,0-1.2,0-1.8c0-1.1,0.2-1.3,1.2-1.3c4-0.1,3.4-0.5,3.5,3.2C130.3,322.7,130.3,323.1,130.2,323.5
		C130.3,323.5,130.3,323.5,130.2,323.5z"/>
	<path class="st5" d="M152.2,350.8c-1.7,0-3.4,0.2-5.1-0.2c-2.5-0.5-3.7-2-3.7-4.5c0-2.7,0-5.4-0.1-8.1c0-1.4,0.1-1.6,1.6-1.6
		c1.2,0,2.3,0,3.5,0c1.2,0,1.3,0.2,1.3,1.4c0,2.1,0,4.2,0,6.3c0,2.4,0.5,3,2.9,3.1c1.4,0.1,2.8,0.1,4.1,0c0.8,0,1.1,0.3,1.1,1.1
		c0,0.2,0,0.3,0,0.5c0.1,1.7-0.1,2-1.7,2.1C154.9,350.8,153.5,350.8,152.2,350.8z"/>
	<path class="st6" d="M99.4,324c-0.5,1.2-1,2.5-1.4,3.7c-0.6,1.6-0.6,1.6-2.4,1.6c-0.6,0-1.2,0-1.8,0c-0.7,0-1.1-0.3-0.8-1
		c0.8-2.2,1.6-4.4,2.8-6.4c1-1.6,2.5-2.5,4.3-2.7c1.5-0.1,3-0.2,4.5,0c1.7,0.1,2.6,0.9,2.7,2.6c0.1,2.1,0,4.3,0,6.4
		c0,0.4-0.1,0.8-0.6,0.9c-1,0.1-2.1,0.2-3.1,0c-0.5-0.1-0.7-0.5-0.8-0.9c0-0.5,0-1-0.1-1.5c-0.1-1-0.3-1.2-1.3-1.3
		c-1.2-0.1-1.2-0.1-1.3-1.4c0-0.4,0-0.7,0.3-0.9C100.1,323.4,99.7,323.6,99.4,324z"/>
	<path class="st6" d="M87.2,329.3c-1,0-2,0.1-3,0c-1.7-0.1-2.9-1.1-3-2.8c-0.2-2.1-0.1-4.3-0.1-6.5c0-0.5,0.3-0.8,0.8-0.9
		c0.2,0,0.3,0,0.5,0c3.7,0.2,3.4-0.6,3.3,3.3c0,0.8,0,1.5,0,2.3c0,1.6,0.4,1.9,2,1.9c0.7,0,1.4,0,2.2,0c1.3,0,1.5,0.2,1.5,1.4
		c0,1.1-0.1,1.2-1.4,1.3C89.1,329.3,88.1,329.3,87.2,329.3C87.2,329.3,87.2,329.3,87.2,329.3z"/>
	<path class="st5" d="M108.6,323.4c-0.1-0.7,0.2-1.9-0.1-3.2c-0.1-0.5,0.1-0.8,0.7-0.9c0.2,0,0.3-0.1,0.5-0.1c3.9-0.1,3.3,0,3.4,3.1
		c0,1.9,0,3.9-0.1,5.8c0,1.1-0.1,1.2-1.3,1.2c-0.7,0-1.3,0-2,0c-0.9,0-1.2-0.4-1.2-1.2C108.6,326.7,108.6,325.4,108.6,323.4z"/>
	<path class="st7" d="M68.2,321.3c0.7-2.3,1.7-3.2,3.4-3c0.6,0.1,1.2,0.2,1.2,1c0,0.8-0.5,1-1.2,1c-0.2,0-0.4,0-0.7,0
		c-1.4,0-1.7,0.2-1.8,1.5c-0.2,1.4,0,1.6,1.3,1.9c0.2,0,0.4,0.1,0.6,0.1c-1.8,0.5-2.3,0.2-2.4-1.5C68.7,322,68.6,321.6,68.2,321.3z"
		/>
	<path class="st4" d="M99.4,324c0.2-0.9,0.5-1.8,1.5-2.2c0.4-0.1,0.7-0.2,1.1-0.1c0.3,0.1,0.6,0.2,0.7,0.6c0.1,0.4-0.2,0.8-0.6,0.8
		c-0.8,0-1.5,0.3-2,0.9C99.8,324,99.6,324,99.4,324z"/>
	<path class="st5" d="M463.2,349c-2.3,0-4.6,0-7,0c-0.6,0-1.4,0.2-1.6-0.5c-0.3-0.8-0.3-1.8,0.2-2.6c0.3-0.6,1-0.4,1.5-0.4
		c3.2,0,6.4,0,9.6,0c0.5,0,1,0,1.5,0c0.5-0.1,1-0.3,1-0.9c0-0.6-0.4-0.7-0.9-0.8c-0.5-0.1-1-0.1-1.5-0.1c-2.3,0-4.5,0-6.8,0
		c-1.5,0-2.7-0.5-3.7-1.6c-1.9-2.2-1.2-5.6,1.6-6.8c1-0.4,2-0.5,3.1-0.5c4.4,0,8.8,0,13.3-0.1c1.7,0,2.6,1.4,1.9,3
		c-0.2,0.4-0.5,0.6-0.9,0.7c-0.6,0.2-1.2,0.1-1.8,0.1c-3.2,0-6.4,0-9.6,0.1c-0.6,0-1.6-0.2-1.5,0.8c0,0.8,0.9,0.6,1.5,0.6
		c2.2,0,4.3,0,6.5,0c0.4,0,0.9,0,1.3,0c2.9,0.2,4.6,2,4.5,4.7c-0.1,2.6-1.7,4.3-4.6,4.4C468.3,349.2,465.7,349.1,463.2,349
		C463.2,349.1,463.2,349.1,463.2,349z"/>
	<path class="st5" d="M419.6,334.8c2.4,0,4.7,0,7.1,0c2,0,3.5,0.8,4.4,2.7c0.6,1.2,0.7,2.4-0.1,3.5c-0.6,0.8-0.6,1.5,0.1,2.2
		c0.4,0.4,0.5,1,0.5,1.6c0,1,0,2.1,0,3.1c0,0.8-0.3,1.3-1.2,1.3c-1.6,0-3.2,0-4.8,0c-0.7,0-1-0.4-1-1.1c0-1,0-2,0-3
		c-0.1-1.1-0.3-1.4-1.4-1.4c-1.7-0.1-3.3,0-5,0c-0.9,0-1.2,0.5-1.2,1.3c0,1,0,2,0,3c0,1.1-0.1,1.2-1.3,1.3c-1.4,0-2.8,0-4.1,0
		c-0.7,0-1-0.3-1-1c0-2.3,0-4.6,0-7c0-0.9,0.5-1.1,1.3-1.1c1.9,0,3.9,0,5.8,0c1.7,0,3.3,0,5,0c0.2,0,0.4,0,0.7,0
		c0.5,0,1.1-0.1,1-0.8c0-0.6-0.5-0.7-1-0.7c-0.4,0-0.8,0-1.2,0c-3.2,0-6.4,0-9.6,0c-0.6,0-1.5,0.3-1.8-0.5c-0.4-0.9-0.4-2-0.1-2.9
		c0.2-0.6,0.8-0.4,1.3-0.4C414.6,334.7,417.1,334.7,419.6,334.8C419.6,334.7,419.6,334.8,419.6,334.8z"/>
	<path class="st5" d="M366.6,342c0,1.9,0,3.8,0,5.6c0,1.3-0.1,1.4-1.3,1.4c-1.3,0.1-2.7,0-4,0c-0.8,0-1.2-0.4-1.2-1.2c0-1,0-2,0-3
		c0-1-0.3-1.3-1.3-1.3c-1.8,0-3.5,0-5.3,0c-1.2,0-1.4,0.3-1.4,1.5c0,0.9,0,1.9,0,2.8c0,0.8-0.3,1.1-1.1,1.1c-1.4,0-2.9,0-4.3,0
		c-0.9,0-1.1-0.3-1.1-1.5c0-3.1,0-6.3,0-9.4c0-0.8,0-1.5,0-2.3c0-0.8,0.3-1.1,1.1-1.1c1.3,0,2.6,0,4,0c1.2,0,1.3,0.1,1.4,1.3
		c0,1,0,2,0,3c0,0.7,0.3,1,1,1c2,0,4,0,6,0c0.8,0,1.1-0.5,1.1-1.3c0-1,0-2,0-3c0-0.7,0.3-1.1,1-1.1c1.4,0,2.9,0,4.3,0.1
		c0.9,0,1.1,0.5,1.1,1.3C366.5,338,366.5,340,366.6,342C366.5,342,366.6,342,366.6,342z"/>
	<path class="st5" d="M401.4,349c-1.7,0-3.3-0.1-5,0c-3.3,0.2-6.7-2.7-6.9-6.4c-0.3-4,2.1-7.1,6-7.6c2.4-0.3,4.7-0.3,7.1-0.3
		c1.5,0,3,0,4.5,0c1.5,0,1.7,0.2,1.8,1.7c0,0.3,0,0.6,0,0.8c0,0.8-0.5,1.2-1.2,1.2c-0.7,0-1.3,0-2,0c-2.5,0-5,0-7.5,0
		c-0.5,0-1.1,0-1.6,0.4c-0.2,0.2-0.4,0.4-0.3,0.7c0.1,0.3,0.3,0.4,0.6,0.4c0.6,0,1.2,0,1.8,0c1.5,0,3.1-0.1,4.6-0.1
		c1.3,0,1.4,0.2,1.4,1.5c0.1,2.3,0.1,2.3-2.3,2.3c-1.7,0-3.4-0.1-5.1-0.1c-0.4,0-1-0.1-1.1,0.5c-0.1,0.5,0.3,0.8,0.6,1.1
		c0.5,0.4,1.1,0.4,1.7,0.4c2.9,0,5.9,0,8.8,0c1.3,0,1.4,0.1,1.4,1.4c0,1.8-0.2,2-1.9,2C405,349.1,403.2,349,401.4,349
		C401.4,349,401.4,349,401.4,349z"/>
	<path class="st5" d="M445.5,348.9c-1.9,0-3.9,0-5.8,0c-1.8,0-3.2-0.8-4.3-2.1c-1.9-2.3-2.4-4.9-1.4-7.6c0.9-2.6,3.1-4.1,5.8-4.3
		c3.9-0.4,7.8-0.1,11.8-0.2c0.8,0,1.2,0.4,1.2,1.2c0,0.3,0,0.6,0,0.8c0,1.5-0.3,1.7-1.7,1.8c-2.9,0-5.9,0-8.8,0c-0.7,0-1.5,0-2,0.6
		c-0.3,0.4-0.3,0.7,0.3,0.8c0.4,0.1,0.9,0,1.3,0c1.8,0,3.6-0.1,5.5-0.1c1.3,0,1.4,0.1,1.5,1.4c0.1,2.3,0.1,2.3-2.2,2.3
		c-1.8,0-3.6,0-5.5,0c-0.4,0-1-0.1-1.1,0.5c-0.1,0.5,0.3,0.8,0.7,1c0.5,0.4,1.1,0.4,1.8,0.4c2.8,0,5.6,0,8.5,0c1.6,0,1.6,0,1.7,1.6
		c0.1,1.8,0,1.9-1.9,1.9C449,349,447.3,349,445.5,348.9C445.5,349,445.5,348.9,445.5,348.9z"/>
	<path class="st5" d="M401.5,370.5c-1.3,0-2.5,0.1-3.8,0c-2-0.1-3.5-1.3-4.1-3.3c-0.3-1.1-0.3-2.1,0.4-3c0.5-0.6,0.5-1.1,0-1.8
		c-1.3-2-0.5-4.6,1.7-5.7c0.7-0.3,1.4-0.6,2.2-0.6c2.2-0.1,4.4-0.2,6.6,0c0.9,0.1,1.8,0.2,2.6,0.6c2.1,1,3.1,3.5,1.9,5.5
		c-0.4,0.7-0.4,1.3-0.1,2c1.4,3.2-0.3,6.1-3.8,6.2C404,370.6,402.7,370.5,401.5,370.5C401.5,370.5,401.5,370.5,401.5,370.5z"/>
	<path class="st5" d="M416.7,370.5c-1.3,0-2.5,0-3.8,0c-1.2,0-1.3-0.1-1.4-1.3c0-0.2,0-0.3,0-0.5c0-1.3,0.2-1.6,1.5-1.6
		c1.8-0.1,3.6-0.1,5.5-0.1c0.7,0,1.5,0,2-0.5c0.3-0.2,0.6-0.6,0.4-1c-0.1-0.4-0.5-0.3-0.8-0.3c-0.9,0-1.8,0-2.7,0
		c-0.7,0-1-0.3-1.1-1c0-0.2,0-0.3,0-0.5c-0.1-2.1,0-2.3,2.1-2.3c0.6,0,1.2,0,1.8,0c0.3,0,0.6-0.1,0.6-0.4c0.1-0.4-0.1-0.6-0.5-0.8
		c-0.7-0.3-1.5-0.4-2.3-0.4c-1.7,0-3.3,0-5,0c-1.5,0-1.6-0.2-1.7-1.6c-0.1-1.8,0.2-2.1,2-2.1c2.1,0,4.2,0,6.3,0
		c0.7,0,1.4,0.1,2.1,0.3c5.9,1.2,6.6,7.2,4.8,10.5c-1.4,2.5-3.8,3.5-6.5,3.7c-1.2,0.1-2.4,0-3.6,0
		C416.7,370.6,416.7,370.5,416.7,370.5z"/>
	<path class="st5" d="M371.8,334.8c2.1-0.5,3.8,0.3,5.2,1.9c0.6,0.7,1.3,1.2,2,1.8c0.6,0.6,1.1,0.6,1.7,0c0.9-0.9,1.9-1.7,2.8-2.6
		c1-0.9,2.1-1.3,3.5-1.1c0.9,0.2,1.8,0.1,2.6-0.1c0.5-0.1,0.9,0,1.1,0.5c0.2,0.4,0.2,0.9-0.1,1.3c-0.2,0.3-0.5,0.6-0.8,0.9
		c-1.7,1.6-3.3,3.3-5.2,4.6c-1.2,0.9-1.7,1.9-1.6,3.4c0.1,0.9,0,1.9,0,2.8c0,0.6-0.3,0.9-0.9,0.9c-1.6,0-3.2,0-4.8-0.1
		c-0.7,0-0.9-0.5-0.9-1.1c0-0.6,0-1.2,0.1-1.8c0.3-1.8-0.4-3.1-1.8-4.3c-1.8-1.4-3.5-3.1-5.2-4.6c-0.3-0.3-0.7-0.6-0.9-1
		c-0.5-0.7,0-1.5,0.8-1.5C370.3,334.7,371.1,334.8,371.8,334.8z"/>
	<path class="st3" d="M219.8,96c0.4-0.8,1.2-0.6,1.9-0.9c1.4-0.6,2.7-1.2,4.1-1.7c2.9-1,6-1.1,9-1.3c9.1-0.8,18.3-0.3,27.5-0.3
		c3.3,0,6.7,0.2,10,0.8c1.3,0.2,2.6,0.1,3.9,0.5c1.9,0.7,3.6,1.6,5.5,2.3c0.8,0.3,1.5,0.6,2.4,0.6c1.4,0.1,1.9,0.7,1.3,2.1
		c-0.5,1.2-1.2,2.4-1.7,3.6c-0.2,0.3-0.3,1.1-1,0.5c-0.5-0.7-0.5-1.5-0.2-2.2c0.4-1.4-0.2-2.2-1.4-2.8c-3.7-1.9-7.7-2.7-11.9-3.1
		c-10.2-1-20.3-0.4-30.5-0.4c-5.2,0-10.6,0.3-15.5,2.7c-0.8,0.4-1.7,0.6-2.6,0.2C220.2,96.4,220,96.3,219.8,96z"/>
	<path class="st3" d="M221.8,164.4c-0.2-0.2-0.3-0.4-0.3-0.7c0.4-0.6,0.2-1.2,0-1.7c-1.1-2.5-2-5-3-7.5c-1-2.6-2.3-5.1-2.7-8
		c-0.1-0.9-0.5-1.8-0.9-2.7c-0.2-0.5-0.4-1-0.3-1.6c0-0.9-0.1-1.6-0.7-2.3c-0.2-0.3-0.3-0.7-0.3-1.1c0-1.3-0.5-2.6-0.5-3.9
		c-0.1-2.6-0.8-5.1-0.8-7.7c0-3.3,0-6.6,0-9.9c0-2.4,1.5-4.2,3.6-4.7c0.1,0.1,0.1,0.1,0.2,0.2c0.4,0.8-0.1,1.3-0.6,1.8
		c-1.3,1.6-1.7,3.4-1.8,5.4c-0.3,4.5,0.5,8.9,0.8,13.3c0.1,1.7,0.8,3.4,1.1,5.1c0.8,4.6,1.9,9.2,3.8,13.5c1.4,3.2,2.3,6.7,4,9.8
		c0.4,0.8,0.3,1.6,0.2,2.4c-0.1,0.5-0.2,0.9-0.7,1C222.1,165.4,222.1,164.7,221.8,164.4z"/>
	<path class="st3" d="M219.8,96c0.2,0,0.5,0,0.7,0c0.3,0.4,0.3,0.9-0.1,1.2c-1.1,0.9-0.8,1.9-0.3,3c0.6,1.3,0.9,2.6-0.1,3.9
		c-0.7,0.3-0.6-0.4-0.9-0.7c0.1-1.2-0.5-2.1-1.1-3.1c-0.6-1-0.9-2-1.3-3c-0.3-0.7,0-1.1,0.7-1.1C218.3,96,219,96,219.8,96z"/>
	<path class="st3" d="M219.2,103.3c0.2,0.2,0.4,0.4,0.7,0.7c0.5,0.2,0.6,0.6,0.7,1c0.3,2.1-0.3,4-1.5,5.8c-0.4,0.5-0.9,1-1.7,0.7
		c-0.1-0.1-0.2-0.1-0.2-0.2c0-0.4,0.1-0.9,0.3-1.3C219,108,219.4,105.7,219.2,103.3z"/>
	<path class="st3" d="M211.2,124.2c-0.2-3.1-0.1-6.3-0.1-9.4c0-1,0.4-1.4,1.3-1.6c0.3,0.5,0,0.8-0.2,1.2c-0.6,0.9-0.7,1.9-0.7,3
		c0,1.6,0,3.3,0,4.9C211.5,122.9,211.6,123.6,211.2,124.2z"/>
	<path class="st3" d="M283.5,107c0,0.2,0,0.4,0,0.7c0.3,0.4,0.3,0.9,0.7,1.3c0,0.1,0,0.2,0,0.3c0.4,0.5,0.5,0.9,0,1.4
		c-1.8-0.1-2.5-1.8-1.6-3.7C283,106.8,283.3,106.7,283.5,107z"/>
	<path class="st3" d="M283.5,107c-0.2,0-0.4,0-0.7,0c-0.1-0.1-0.2-0.1-0.2-0.2c-0.4-1.4-0.4-2.9,0-4.3c0.1-0.1,0.2-0.1,0.2-0.2
		c0.2-0.2,0.4-0.4,0.7-0.7C283.2,103.4,283.2,105.2,283.5,107z"/>
	<path class="st3" d="M284.2,110.6c0-0.4,0-0.9,0-1.3c0.2,0,0.5,0,0.7,0c0,0,0,0,0,0c0.2,0.4,0.4,0.8,0.2,1.3
		c-0.2,0.2-0.4,0.3-0.7,0.3C284.4,110.7,284.3,110.7,284.2,110.6z"/>
	<path class="st3" d="M284.2,109c-0.5-0.3-0.6-0.8-0.7-1.3C284,108,284.2,108.4,284.2,109z"/>
	<path class="st3" d="M216.5,112c0.3-0.1,0.5-0.3,0.7-0.7c2.1-1,2.2-3.1,2.6-5c0.1-0.7,0-1.5,0-2.3c0.1-1.4-0.1-2.8-0.8-4.1
		c-0.3-0.5-0.5-1-0.5-1.5c0-0.8,0.1-1.5,1.1-1.7c0.4-0.1,0.7-0.3,0.9-0.6c1.7,0,3.1-1.1,4.7-1.5c1.9-0.5,3.8-1.2,5.8-1.1
		c1.4,0.1,2.7,0.1,4.1-0.5c0.5-0.2,1.1-0.1,1.6-0.1c9.6,0,19.1,0,28.7,0c0.8,0,1.6,0,2.4,0.4c0.9,0.5,2,0.3,2.9,0.3
		c3-0.1,5.8,0.5,8.4,1.9c1,0.5,2.1,1,3.2,1.3c1,0.3,1.2,0.8,1.2,1.7c0,0.7,0,1.3-0.3,1.9c-0.4,0.7-0.4,1.4-0.4,2.1c0,0,0,0,0,0
		c-0.5,1.5-0.5,3.1,0,4.6c0,1.4,0.3,2.6,1.3,3.6c0,0,0,0,0,0c1.3,0.6,2.1,1.9,3.5,2.4c0.1,0.1,0.2,0.3,0.3,0.4
		c2.2,1.9,2.2,4.8,2.1,7.1c-0.2,3.7,0.1,7.5-0.6,11c-0.4,2-0.5,4.2-1.3,6.2c-0.5,1.4-0.3,3.1-0.7,4.7c-0.8,2.8-1.5,5.6-2.6,8.3
		c-1.2,3-2.3,6.1-3.6,9.1c-0.6,1.5-1.2,2.9-0.8,4.5c0,0.7,0.5,0.7,1,0.6c0,0.1,0,0.2,0,0.3c-0.3,0.4,0,0.9,0,1.3
		c0,1.2-0.2,2.3-1,3.4c-1.1,1.5-1.9,3.2-3,4.7c-2.8,3.7-6,7.2-9.1,10.8c-2.4,2.7-4.2,5.8-5.3,9.3c-0.4,1.3-0.6,2.8,0.4,4.1
		c0.5,0.7,0.1,1.7,0.8,2.3l0,0c1.9,2.9,4.7,4.9,7.6,6.7c0.7,0.5,1.4,1,2,1.6l0,0c0.6,0.4,1,1.1,1.2,1.8c0.4,1.3-0.1,2.1-1.3,2.2
		c-1.9,0.2-3.9,0.4-5.8,0.4c-11.1,0-22.2,0-33.3,0c-2.1,0-4.2-0.2-6.3-0.4c-0.7,0-1.2-0.3-1.4-0.9c-0.3-0.7,0-1.4,0.5-2
		c1.5-2,3.8-3,5.7-4.4c1.6-1.2,3.3-2.1,4.3-4c0.8-1.6,1.6-3.3,1.9-5.1c0.3-2.2-0.7-4.2-1.7-6.1c-1-1.9-2.6-3.3-3.8-5.1l0,0
		c-0.8-1.2-1.7-2.3-2.7-3.3c-3.3-3.7-6.4-7.4-8.8-11.7c-0.1-0.2-0.3-0.3-0.4-0.5c-1.4-1.6-1.9-3.3-0.7-5.2c0.4-0.1,0.6-0.3,0.6-0.8
		c0.5,0.3,0.9,0.6,1-0.3c0.1-0.6,0.2-1.3-0.2-1.8c-1.2-1.7-1.6-3.8-2.4-5.6c-1.2-2.9-2.5-5.7-3.3-8.7c-0.7-2.4-1.6-4.8-1.9-7.3
		c-0.1-1.5-0.7-3-0.7-4.5c-1.3-1.9-0.5-4.1-1-6.1c-1-3.7-0.4-7.5-0.6-11.2c-0.1-1.8,0.5-3.2,1.7-4.5c0.5-0.5,1-1,1.3-1.7"/>
	<path class="st3" d="M237.8,201.9c0.1,1-0.6,1.6-1.3,2.2c-1.7,1.5-3.6,2.8-5.5,4c-1.1,0.7-2,1.6-2.9,2.5c-0.4,0.5-0.8,1-0.5,1.6
		c0.2,0.7,0.9,0.5,1.4,0.7c3.7,1.1,7.4,0.6,11.2,0.6c9.7,0.1,19.3,0,29,0.1c1.6,0,3.1-0.8,4.7-0.8c0.7,0,0.8-0.7,0.7-1.3
		c-0.1-0.6-0.4-1.3-0.6-1.9c0.4,0,0.9,0,1.3,0c0,0.7,0.4,1.2,0.8,1.8c1,1.3,0.6,2.1-0.9,2.5c-0.8,0.2-1.6,0.3-2.5,0.3
		c-14.7,0-29.3,0-44,0c-0.2,0-0.4,0-0.7,0c-2-0.1-2.5-0.6-2.5-2.6c0.3-0.2,0.6-0.3,0.8-0.5c1.8-2.2,4.2-3.5,6.5-5.1
		c1.6-1.2,3.4-2.1,4.3-4C237.3,201.7,237.5,201.7,237.8,201.9z"/>
	<path class="st3" d="M264.3,201.2c-0.4-0.1-0.7-0.2-0.9-0.6c-1-2.8-1.2-5.7,0.3-8.4c2.1-4,4.7-7.5,7.9-10.7c1.4-1.4,2.9-3,3.9-4.8
		c0.4-0.8,1.1-1.4,1.8-1.9c0.3,0.3,0.2,0.7,0,1c-1.7,2.3-3.2,4.7-5.3,6.8c-3.5,3.5-6.3,7.4-8.2,11.9c-0.6,1.4-0.7,2.8,0,4.1
		C264.3,199.3,264.3,200.2,264.3,201.2z"/>
	<path class="st3" d="M273.9,209.5c-0.6,0-1.1-0.3-1.6-0.7c-1.3-1.1-2.7-2.1-4.2-2.9c-1.5-0.9-2.5-2.3-3.6-3.6
		c-0.3-0.3-0.2-0.7-0.2-1.1c1,0.4,1.6,1.3,2.3,2c1.7,1.8,3.6,3.2,5.7,4.4C273,208.1,274.1,208.3,273.9,209.5z"/>
	<path class="st3" d="M277.2,175.7c0-0.3,0-0.7,0-1c1.1-1.8,2.1-3.6,3.2-5.3c0.4-0.7,0.4-1.3,0.4-2c0-0.7-0.1-1.5,0.6-1.9
		c0.9,1.2,0.9,2.4,0.2,3.7C280.3,171.3,279,173.6,277.2,175.7z"/>
	<path class="st3" d="M221.2,165.2c0.3,0.3,0.5,0.6,0.3,1c-0.7,1.6-0.3,2.9,1,4c0.4,0.4,0.6,0.9,0.9,1.4c1.2,2,2.4,4,4,5.6
		c0.6,0.6,1,1.5,1.5,2.1c1.3,1.6,2.7,3.2,4.1,4.8c0.5,0.5,0.8,1.1,0.8,1.8c-0.6-0.2-1-0.6-1.3-1c-1.2-1.6-2.8-2.9-3.9-4.5
		c-1.3-2.1-3.3-3.5-4.4-5.7c-0.1-0.3-0.4-0.5-0.7-0.7c0,0,0,0,0,0c-0.3-0.3-0.3-0.7-0.7-1l0,0c-0.4-0.5-0.8-1-1-1.7
		c-0.5-0.8-0.9-1.6-1.4-2.4c-0.8-1.4-0.9-2.7,0.3-3.8C220.9,165.1,221.1,165.1,221.2,165.2z"/>
	<path class="st3" d="M237.8,201.9c-0.2,0-0.4,0-0.7,0c0.5-1.1,1-2.1,1.3-3.2c0.9-3.6-0.3-6.6-2.5-9.4c-0.5-0.6-1-1.2-1.5-1.7
		c-0.4-0.5-0.7-1-0.7-1.6c1.1,0.5,1.9,1.4,2.5,2.3c1,1.5,1.9,3.1,2.8,4.7c1.3,2.3,1.2,4.8-0.2,7.1
		C238.4,200.7,238.5,201.5,237.8,201.9z"/>
	<path class="st3" d="M275.3,214.5c-0.8,0.5-1.8,0.3-2.7,0.3C273.4,214.3,274.4,214.5,275.3,214.5z"/>
	<path class="st3" d="M221.8,171.3c0.4,0.5,0.8,1,1,1.7C222.2,172.6,221.8,172.1,221.8,171.3z"/>
	<path class="st3" d="M222.8,173c0.4,0.2,0.6,0.5,0.7,1C223.1,173.8,222.9,173.4,222.8,173z"/>
	<path class="st8" d="M251.8,259.6c3.7,0,7.4,0,11.1,0c0.7,0,1.4,0,2.1,0.3c1.7,0.6,2.4,1.5,2.4,3.3c0,1.2,0,2.3,0,3.5
		c-0.1,2.2-1.1,3.4-3.3,3.6c-1.9,0.2-3.7,0.2-5.6,0.2c-5.6,0-11.3,0-16.9,0c-0.8,0-1.7,0-2.5-0.2c-2.1-0.5-3.1-1.7-3.1-3.8
		c0-1,0-2.1,0-3.1c0-1.7,0.7-2.7,2.2-3.3c0.8-0.3,1.6-0.4,2.4-0.4C244.4,259.6,248.1,259.6,251.8,259.6
		C251.8,259.6,251.8,259.6,251.8,259.6z"/>
	<path class="st8" d="M250.7,287.2c2.6,0,5.3,0,7.9,0c0.7,0,1.3,0.1,2,0.3c2.4,0.8,2.9,1.4,2.9,3.9c0,1.1,0,2.2,0,3.3
		c0,1.2-0.5,2-1.5,2.5c-0.9,0.5-1.8,0.9-2.8,0.9c-5.7,0-11.5,0-17.2,0c-1.2,0-1.4-0.3-1.5-1.5c0-2.6,0-5.2,0-7.8
		c0-1.5,0.2-1.7,1.7-1.7C245.1,287.2,247.9,287.2,250.7,287.2C250.7,287.2,250.7,287.2,250.7,287.2z"/>
	<path class="st9" d="M250.7,234.4c-3,0-6,0-8.9,0c-1.2,0-1.6-0.5-1.4-1.7c0.1-0.8,0.6-1,1.3-1c1.3,0,2.6,0,4,0c3.9,0,7.8,0,11.7,0
		c1.2,0,2.3,0.1,3.5,0.3c0.6,0.1,1.3,0.3,1.3,1c0,0.8-0.7,0.9-1.2,1.1c-0.6,0.2-1.3,0.2-2,0.2C256.3,234.4,253.5,234.4,250.7,234.4
		C250.7,234.4,250.7,234.4,250.7,234.4z"/>
	<path class="st10" d="M401.7,365.1c0.6,0,1.1,0,1.7,0c0.5,0,0.8,0.4,0.9,0.8c0.1,0.5-0.3,0.9-0.7,0.9c-1.3,0.1-2.6,0.2-4,0
		c-0.4-0.1-0.7-0.3-0.7-0.8c0-0.5,0.3-0.9,0.8-0.9C400.3,365.1,401,365.1,401.7,365.1C401.7,365.1,401.7,365.1,401.7,365.1z"/>
	<path class="st11" d="M401.6,361.4c-0.7,0-1.3,0-2,0c-0.4,0-0.7-0.3-0.8-0.7c0-0.5,0.3-0.7,0.7-0.8c1.4-0.2,2.7-0.3,4.1,0.1
		c0.4,0.1,0.7,0.3,0.6,0.8c-0.1,0.4-0.4,0.6-0.9,0.6C402.8,361.4,402.2,361.4,401.6,361.4C401.6,361.4,401.6,361.4,401.6,361.4z"/>
	<path class="st3" d="M284.9,110.6c0-0.5,0-0.9,0-1.4c1.5,1.8,3.4,3.1,5.5,4.1c0.7,0.3,0.8,0.8,0.8,1.5c0.1,4,0.1,8-0.2,11.9
		c-0.4,5.3-0.9,10.7-2.2,15.9c-1.8,7.1-4.3,13.9-7.7,20.4c-1.3-0.3-0.9-1.3-0.6-1.9c2.2-4.8,4.1-9.8,5.7-14.8
		c0.8-2.5,1.2-5.1,1.7-7.6c0.4-2.1,0.2-4.3,1.3-6.2c0.2-0.4,0.2-0.8,0.2-1.3c-0.1-3.5,0.4-6.9,0.5-10.4c0.1-2.6,0.4-5.7-2.5-7.5v0
		C286.5,112.6,285.4,111.8,284.9,110.6z"/>
	<path class="st3" d="M287.5,113.3c1-0.1,1.6,0.5,2,1.3c0.6,1.1,1.1,2.1,1,3.4c-0.1,1.7,0,3.3,0,5c0,0.8,0,1.5-0.4,2.3
		c-0.3,0.6-0.3,1.2-0.3,1.8c0,1.4,0,2.9,0,4.3c0,0.7,0,1.4-0.3,2.1c-0.3,0.5-0.3,1.1-0.3,1.6c0,1.2,0,2.4-0.8,3.5
		c-0.1,0.2-0.2,0.4-0.2,0.6c-0.2,4.1-1.8,7.9-2.8,11.8c-0.1,0.2-0.2,0.4-0.3,0.6c-1.3,2.4-2,5-3,7.5c-0.3,0.7-0.6,1.3-0.9,1.9
		c-0.4,0.7-0.5,1.4,0,2c-0.1,0.5-0.4,0.9-0.7,1.3c-0.3,0.2-0.6,0.3-0.6-0.2c0-1.3-0.3-2.6,0.6-3.8c0.7-1.1,1.2-2.4,1.5-3.6
		c0.8-2.9,2.2-5.5,3.2-8.3c0.7-2.1,1.3-4.2,1.8-6.3c0.6-2.7,1-5.5,1.3-8.2c0-0.3,0-0.6,0.2-0.8c0.9-1.2,0.8-2.6,0.8-4
		c0-2-0.2-4,0.1-6c0.2-1.9-0.1-3.8,0-5.7c0-1-0.2-2-1-2.7C287.8,114.4,287.6,113.9,287.5,113.3z"/>
	<path class="st3" d="M282.9,107c-0.9-1.4-0.9-3.5,0-4.6C282.9,103.9,282.9,105.4,282.9,107z"/>
	<path class="st3" d="M284.9,110.6c1.1,0.7,2,1.5,2.6,2.7c-1.7-0.1-2.5-1.4-3.3-2.7C284.4,110.6,284.7,110.6,284.9,110.6z"/>
</g>
<rect x="17" y="386.6" class="st5" width="471.1" height="25"/>
</svg>
