<?xml version="1.0" encoding="UTF-8"?><svg id="Calque_2" xmlns="http://www.w3.org/2000/svg" viewBox="0 0 191.49 140.06"><defs><style>.cls-1{fill:#f4f4f4;}.cls-2{fill:#fcfdfd;}.cls-3{fill:#080808;}.cls-4{fill:#bfc1c1;}.cls-5{fill:#fdfdfd;}.cls-6{fill:#e5e5e5;}.cls-7{fill:#2c2c2c;}.cls-8{fill:#919898;}.cls-9{fill:#ccc;}.cls-10{fill:#ababab;}.cls-11{fill:#f7f7f7;}.cls-12{fill:#070707;}.cls-13{fill:#f8fbfb;}.cls-14{fill:#c4c4c4;}.cls-15{fill:#060606;}.cls-16{fill:#fcfcfc;}</style></defs><g id="Calque_1-2"><g><path class="cls-1" d="M79.97,0h30.86c.04,.08,.03,.14-.03,.2-.31,.2-.68,.22-1.02,.3-1.07,.23-2.01,.71-2.88,1.37-1.24,.94-1.39,2.22-1.19,3.62,.2,1.42,.92,2.55,2.04,3.43,.41,.32,.79,.67,.92,1.2,.09,.36,.1,.73-.19,1-.31,.29-.66,.1-.92-.08-1.52-1.07-3.27-1.08-5.01-1.18-2.94-.18-5.89-.35-8.84-.25-2.54,.09-5.09,.13-7.62,.4-.98,.1-1.86,.43-2.69,.95-.31,.19-.68,.49-1.04,.17-.38-.35-.29-.81-.12-1.25,.15-.39,.46-.65,.77-.91,1.36-1.1,2.1-2.49,2.17-4.27,.06-1.49-.66-2.46-1.81-3.21-.75-.49-1.57-.85-2.47-1.01-.31-.05-.62-.09-.89-.27-.07-.06-.08-.12-.03-.2Z"/><path class="cls-7" d="M191.32,140.05H.42c-.28-.32-.2-.72-.2-1.09,0-13.76,0-27.52,0-41.27,0-4.71,0-9.43,0-14.14,0-.29-.04-.58,.07-.86,.04-.08,.1-.15,.16-.21,.27,.09,.27,.33,.28,.55,.02,.29,0,.58,0,.87,0,15.11,0,30.22,0,45.33,0,3.15,.02,6.3,.02,9.46,0,.98,.03,1,1.02,1.01,.31,0,.63,0,.94,0,62.33,0,124.66,0,186.98,0,.51,0,1.03-.09,1.52,.12,.09,.05,.11,.13,.08,.23Z"/><path class="cls-5" d="M.4,82.65c0,.27,.02,.54,.02,.8,0,15.56,0,31.12,0,46.67,0,3.08,.02,6.17,.02,9.25,0,.22-.01,.44-.02,.67-.22,0-.42,.08-.42-.34,.03-2.77,.02-5.54,.02-8.32v-48.76c.13-.08,.26-.11,.38,.02Z"/><path class="cls-10" d="M191.32,140.05s-.02-.09-.02-.14c-.28-.38-.19-.82-.19-1.23,.02-10.45,.03-20.9,.02-31.35,0-3.22,0-6.43,0-9.65,0-.33-.07-.68,.19-.96,.05,0,.09,0,.14,0,0,14.26,0,28.53,0,42.79,0,.18,.14,.41-.13,.54Z"/><path d="M79.97,0s0,.08,0,.12c-.4,.3-.81,.3-1.21,0,0-.04,0-.08,0-.12h1.21Z"/><path d="M110.83,.12s0-.08,0-.12h1.07s0,.08,0,.11c-.36,.29-.72,.29-1.08,0Z"/><path class="cls-8" d="M.4,82.65c-.13,0-.25-.01-.38-.02,0-.04,0-.09,0-.13,.17,.06,.23-.14,.38-.14,.04,.03,.06,.05,.05,.09,0,.04-.02,.05-.03,.05,0,.05-.02,.1-.02,.15Z"/><path d="M.42,82.5s-.02-.09-.02-.14c1.86-1.14,3.73-2.28,5.59-3.43,3.57-2.2,7.15-4.41,10.71-6.63,.4-.25,.79-.35,1.25-.35,14.94,0,29.87,0,44.81,0,1.01,0,.84,.12,.85-.85,0-2.3,.01-4.61,0-6.91,0-.46,.09-.76,.48-1.09,.83-.71,1.56-1.54,2.32-2.32,.99-1.01,1.98-2,2.95-3.03,.29-.3,.59-.41,1-.41,4.67,.01,9.35,0,14.02,.02,.47,0,.85-.09,1.23-.39,.6-.46,1.25-.86,1.88-1.28,.46-.31,.91-.65,1.28-1.07,.87-.98,.99-2.22,.33-3.34-.37-.64-.81-1.24-1.31-1.78-3.6-3.85-6.3-8.33-8.91-12.86-1.64-2.84-3.33-5.66-4.61-8.69-1.54-3.63-2.81-7.34-3.48-11.23-.48-2.79-.67-5.59-.07-8.39,.46-2.19,1.41-4.13,2.99-5.74,1.4-1.43,3.08-2.26,5.07-2.48,.4,0,.81,0,1.21,0,1.05,.13,2.07,.37,2.99,.89,2.22,1.25,2.82,2.58,2.16,5.2-.28,1.14-.96,2.05-1.87,2.79-.14,.11-.29,.21-.42,.33-.63,.53-.72,1.02-.35,1.85,.45-.13,.85-.39,1.24-.63,.78-.48,1.64-.68,2.54-.75,4.9-.41,9.81-.5,14.72-.24,1.38,.07,2.76,.14,4.14,.31,.68,.09,1.29,.33,1.88,.65,.42,.23,.82,.52,1.3,.66,.39-.91,.28-1.38-.52-1.98-1.19-.89-1.97-2.05-2.26-3.52-.14-.69-.13-1.38-.03-2.07,.09-.61,.44-1.11,.88-1.55,.98-.98,2.18-1.52,3.52-1.8,.31-.06,.62-.1,.92-.15,.36,0,.72,0,1.08,0,3.26,.31,5.44,2.17,6.98,4.91,.88,1.56,1.29,3.27,1.47,5.04,.35,3.5-.23,6.91-1.14,10.26-1.26,4.65-3.1,9.07-5.52,13.25-1.9,3.26-3.75,6.55-5.81,9.72-1.16,1.79-2.47,3.45-3.88,5.04-.72,.82-1.4,1.68-2.06,2.55-1.26,1.68-.53,3.35,.63,4.25,.69,.54,1.47,.94,2.14,1.5,.72,.6,1.49,.75,2.4,.74,4.52-.04,9.03,0,13.55-.03,.46,0,.78,.12,1.1,.46,1.56,1.69,3.15,3.36,4.73,5.04,.06,.07,.11,.15,.19,.19,.53,.28,.55,.73,.55,1.27-.02,6.33-.01,12.65,0,18.98,0,.91-.11,.79,.77,.79,14.69,0,29.38,0,44.07,0,.54,0,.98,.14,1.42,.45,5.67,3.93,11.35,7.86,17.03,11.78,.26,.18,.5,.38,.83,.41,0,14.22,0,28.43,0,42.65,0,.18-.01,.36-.02,.53-.27,0-.54,0-.8,0-62.97,0-125.95,0-188.92,0-1.15,0-1,.14-1-.99,0-18.53-.01-37.06-.02-55.59,0-.28,.11-.59-.13-.83Z"/><path class="cls-5" d="M126.78,97.36v32.59c0,.16-.01,.31,0,.47,.03,.31-.06,.47-.4,.43-.15-.02-.31,0-.47,0-20.34,0-40.69,0-61.03,0-1,0-.85,.1-.85-.85,0-21.77,0-43.55,0-65.32,0-.97-.16-.86,.84-.86,20.37,0,40.73,0,61.1,0q.81,0,.81,.82c0,10.91,0,21.82,0,32.73Z"/><path class="cls-5" d="M32.21,130.85c-10.17,0-20.34,0-30.51,0-.95,0-.84,.09-.84-.81,0-15.51,0-31.03,0-46.54,0-.89-.13-.81,.83-.81,20.34,0,40.69,0,61.03,0,1.02,0,.86-.1,.86,.84,0,15.49,0,30.98,0,46.47,0,.95,.15,.84-.86,.84-10.17,0-20.34,0-30.51,0Z"/><path class="cls-5" d="M159.21,97.12c10.35,0,20.7,0,31.05,0,.86,0,.75-.11,.75,.74,0,10.75,0,21.51,0,32.26,0,.75,.1,.73-.71,.73-20.75,0-41.49,0-62.24,0-.04,0-.09,0-.13,0-.58,0-.58,0-.58-.59,0-10.84,0-21.69,0-32.53,0-.68-.06-.62,.67-.62,8.21,0,16.41,0,24.62,0h6.57Z"/><path class="cls-9" d="M189.83,96.56c-.22,0-.43,0-.65,0-20.38,0-40.77,0-61.15,0-.93,0-.82,.1-.82-.82,0-3.49,0-6.97,0-10.46,0-.13,0-.27,0-.4-.02-.25,.07-.38,.34-.36,.13,.01,.27,0,.4,0,14.68,0,29.37,0,44.05,0,.45,0,.8,.11,1.17,.36,5.4,3.74,10.8,7.47,16.2,11.2,.16,.11,.32,.23,.48,.35,0,.04-.02,.09-.03,.13Z"/><path class="cls-9" d="M1.88,81.99c1.76-1.09,3.53-2.18,5.29-3.27,3.23-2,6.46-3.99,9.68-6,.36-.22,.71-.31,1.13-.31,14.96,0,29.92,0,44.87,0,.85,0,.74-.07,.74,.76,0,2.79,0,5.59,0,8.38,0,.55,0,.55-.54,.56-.11,0-.22,0-.34,0-20.03,0-40.07,0-60.1,0-.24,0-.48,0-.72,0l-.03-.13Z"/><path class="cls-9" d="M64.71,63.15c.58-.59,1.09-1.11,1.6-1.63,1.11-1.13,2.23-2.26,3.33-3.4,.19-.2,.38-.33,.69-.32,4.63,.01,9.25,0,13.88,.01,.04,0,.09,.01,.14,.03,.05,.22-.15,.3-.26,.41-.36,.37-.71,.74-.97,1.19-.49,.86-.11,1.54,.87,1.53,3.22-.02,6.43-.05,9.65-.09,3.35-.03,6.7,.04,10.06,.07,1.05,0,2.1,.02,3.15,.02,.91,0,1.29-.65,.88-1.45-.32-.62-.84-1.09-1.31-1.59,.08-.19,.23-.12,.35-.12,4.63,0,9.25,0,13.88,0,.24,0,.47,0,.67,.21,1.58,1.7,3.18,3.38,4.84,5.14h-61.44Z"/><path d="M109.1,10.2c-.14-.65-.52-1.1-1.04-1.5-1.47-1.12-2.15-2.62-2.07-4.48,.03-.68,.27-1.25,.75-1.73,1.18-1.17,2.65-1.71,4.27-1.81,2.28-.13,4.17,.75,5.75,2.36,1.63,1.67,2.52,3.71,2.89,5.99,.34,2.04,.34,4.08,.01,6.13-.05,.05-.11,.07-.17,.07-.03-.01-.06-.02-.09-.04-.04-.05-.08-.1-.1-.16-.1-.34,.02-.7-.1-1.05-.35,.09-.17,.62-.56,.66-.26-.22-.19-.5-.16-.78,.13-.81,.15-1.62,.02-2.44-.23-.21-.17-.49-.2-.75-.23-2.19-.86-4.23-2.26-5.97-1.71-2.14-4.14-2.88-6.75-2.05-.17,.05-.34,.11-.51,.16-.06,.02-.12,.04-.17,.06-.03,.01-.05,.02-.08,.04-.05,.03-.1,.05-.15,.08-.05,.03-.1,.06-.15,.08-.05,.03-.1,.06-.15,.09-.02,.02-.05,.03-.07,.05-.05,.03-.11,.06-.17,.07-.03,0-.06,0-.09-.01-.05-.04-.08-.1-.1-.16,0-.11,.02-.2,.07-.3,.75-1,1.88-1.11,2.99-1.22,.37-.04,.76,0,1.14,0,1.98,.31,3.58,1.25,4.82,2.83,.81,1.03,1.5,2.11,1.84,3.38,.18,.69,.31,1.39,.41,2.1,.03,.22,0,.45,.3,.74,.04-.52,.08-.94-.02-1.35-.28-1.1-.65-2.18-1.07-3.23-.91-2.29-2.53-3.85-4.92-4.55-.46-.11-.93-.23-1.41-.22-.07,0-.14,0-.21,0-1.66,.15-3.29,.38-4.46,1.76-.13,.15-.32,.29-.34,.49-.07,.92-.21,1.85,.1,2.77,.33,.94,.94,1.66,1.75,2.23,.73,.52,.97,1.25,.89,2.11-.02,.18-.04,.38-.21,.47-.26,.14-.32,.02-.23-.23,0-.09,.01-.17,.02-.26,.08-.13,.08-.27,0-.4Z"/><path d="M82.16,41.05c-.26-.39-.54-.77-.72-1.21-.07-.92-.68-1.6-1.14-2.31-.72-1.1-1.35-2.25-2.03-3.37-.81-1.35-1.64-2.7-2.3-4.14-1.35-3.07-2.6-6.18-3.57-9.39-.09-.3-.11-.61-.12-.92,0-.18-.03-.35-.15-.5-.07-.13-.08-.27-.1-.41-.01-.05-.03-.11-.05-.16-.01-.02-.02-.05-.04-.07-.04-.07-.09-.15-.12-.23-.03-.09-.04-.17-.04-.26-.01-.13-.1-.23-.12-.35-.02-.43-.05-.86-.17-1.27-.02-.13-.06-.26-.09-.39-.01-.2-.06-.4-.06-.6,0-.23,0-.46-.07-.68-.05-.29-.1-.57-.15-.86,0-.1,0-.19,.03-.28,.03-.06,.07-.1,.13-.12,.18,.03,.36,.04,.41-.2,.16-.17-.06-.83,.54-.42,.02,.07,.03,.14,.02,.21-.1,1.41,.1,2.79,.35,4.18,.3,1.71,.77,3.37,1.24,5.04,.47,1.55,1.06,3.05,1.71,4.53,.36,.82,.8,1.59,1.15,2.41,.12,.28,.29,.5,.48,.72,.12,.23,.21,.48,.34,.71,.15,.79,.71,1.38,1.07,2.07,.95,1.81,2.08,3.53,2.9,5.41,.23,.52,.56,.96,1.1,1.22,.17,.13,.3,.27,.18,.5-.3,.18-.38,.44-.34,.79,.02,.18,.19,.45-.18,.51h0s-.08-.08-.1-.13Z"/><path d="M115.28,29.3s0,.06-.03,.08c-.05,.06-.11,.12-.1,.2v.04s-.03,.02-.03,.02c-.08,.07-.05,.19-.13,.26h0c-.08,.07-.06,.2-.13,.27h0c-.08,.07-.06,.2-.13,.27h0c-.08,.07-.06,.19-.13,.27h0c-.08,.07-.06,.2-.13,.27h0c-.08,.07-.05,.19-.14,.26h0c-.05,.07-.11,.12-.11,.21v.04s-.03,.02-.03,.02c-.05,.05-.1,.11-.11,.19-.19,.55-.53,1.03-.82,1.53-1.21,2.09-2.42,4.17-3.64,6.25-.12,.21-.27,.41-.41,.61-.31-.23-.68-.35-.98-.6,.1-.73,.65-1.23,.94-1.86,.12-.26,.28-.5,.44-.73,.04-.05,.08-.1,.12-.15,.02-.02,.04-.05,.06-.07,.06-.07,.12-.14,.19-.21,.06-.03,.12-.05,.18-.03,.05,.04,.08,.09,.11,.15,.06,.46-.3,.82-.31,1.27,1.72-3.28,3.92-6.29,5.3-9.76,.04-.08,.09-.15,.15-.22,.05-.07,.11-.13,.16-.2,.06-.09,.09-.2,.11-.31,.07-.27,.2-.53,.29-.79,.02-.05,.05-.1,.08-.14,.01-.02,.03-.04,.04-.07,.06-.09,.09-.19,.1-.29,0-.11,.02-.21,.06-.32,.02-.05,.05-.1,.07-.14,.01-.02,.03-.04,.04-.07,.04-.07,.07-.14,.09-.22,.03-.17,.1-.32,.18-.47,.03-.08,.06-.17,.09-.26,.17-.32,.1-.87,.72-.75,.02,.07,.02,.13,0,.2v.05s-.02,.03-.02,.03c-.08,.09-.07,.21-.11,.31,.02,.04,.01,.07-.02,.09-.08,.08-.06,.2-.12,.3,.02,.04,0,.08-.03,.11-.06,.08-.04,.19-.11,.27h0c-.1,.08-.08,.21-.12,.31,.02,.04,0,.07-.03,.09-.08,.08-.05,.2-.12,.28,.01,.05,0,.09-.03,.12-.03,.06-.08,.11-.09,.18,.02,.04,0,.07-.03,.08-.07,.08-.05,.19-.12,.28h0c-.1,.07-.08,.2-.13,.3,.02,.04,0,.07-.03,.1-.07,.08-.04,.19-.12,.27h0c-.09,.08-.06,.2-.13,.29,.01,.05,0,.08-.04,.11-.03,.06-.09,.1-.09,.17,.02,.04,0,.07-.03,.09-.07,.07-.04,.19-.12,.26h0c-.08,.08-.06,.2-.13,.28h0c-.1,.07-.07,.2-.13,.29,.01,.05,0,.08-.04,.11-.03,.06-.08,.1-.09,.17,.02,.04,0,.07-.03,.1-.04,.06-.09,.11-.1,.19Z"/><path d="M99.97,60.35c-.96,.06-1.91-.01-2.87,0-1.78,0-3.56,.02-5.34,.03-.31,0-.62-.02-.93-.02-.47-.1-.94-.02-1.42-.05-1.25,0-2.51,.02-3.76-.01-.13-.09-.13-.21-.07-.34,.18-.16,.41-.15,.62-.17,5.94,.01,11.88,0,17.82,0,.18,0,.35,.02,.5,.14,.08,.12,.08,.24-.02,.35-1.04,.06-2.08,0-3.11,.02-.47,.03-.95-.05-1.42,.05Z"/><path d="M76.6,1.26c2.28-.97,4.5-.79,6.58,.52,1.59,1.01,1.83,1.84,1.56,3.71-.19,1.31-.88,2.38-1.94,3.17-.5,.37-.89,.8-1.08,1.4-.38-.09-.26-.38-.25-.63,.12-.45,.38-.77,.76-1.05,1.34-.99,2.05-2.31,2-4.01-.02-.67-.24-1.24-.74-1.65-1.55-1.28-3.33-1.76-5.31-1.37-.63,.12-1.27,.26-1.86,.53-.16,.07-.34,.13-.51,.03-.05-.06-.06-.13-.03-.2h0c.08,.02,.12-.05,.16-.1h0c.07-.08,.2-.05,.26-.14h0c.08-.07,.2-.04,.27-.13h0s.07-.06,.11-.08Z"/><path d="M72.46,19.59c-.07,.71,.21,1.34,.43,1.99,.22,.65,.45,1.31,.64,1.98,.09,.32,.23,.62,.35,.91,.21,.51,.41,1.03,.59,1.55,.27,.78,.6,1.52,1.01,2.23,.31,.54,.42,1.2,.61,1.81,.03,.03,.05,.07,.04,.1,0,.04-.01,.06-.02,.06-.06,.03-.11,.02-.16-.02h0c-.07-.08-.05-.2-.13-.27h0c-.08-.07-.05-.2-.13-.27h0c-.08-.07-.05-.2-.13-.27l-.03-.03v-.04c0-.09-.05-.14-.1-.2-.86-1.69-1.54-3.46-2.17-5.25-.41-1.18-.84-2.35-1.08-3.58-.03-.07-.05-.14-.05-.22,0-.08,0-.15-.07-.21-.03-.02-.04-.05-.02-.09-.08-.14,0-.32-.12-.45-.03-.02-.04-.06-.02-.09-.08-.14,0-.31-.11-.45-.03-.03-.04-.07-.02-.11-.09-.13,0-.3-.11-.43-.01-.07-.02-.14-.03-.21-.07-.15,0-.32-.1-.46,0-.07-.02-.14-.03-.2-.07-.15-.01-.32-.1-.47,0-.08-.02-.15-.03-.23-.12-.22,.03-.49-.12-.71-.03-.03-.04-.07-.01-.11-.13-.22,.02-.48-.11-.69,0-.12-.02-.25-.03-.37-.1-.3-.04-.61-.04-.92,.04-.08,.11-.1,.19-.05,.09,.31,.17,.61,.13,.94,.16,.2-.03,.47,.13,.67,0,.22,0,.45,0,.67,.08,.07,.05,.2,.13,.27,.18,.48,.13,.98,.14,1.48,.08,.07,.05,.2,.13,.27,0,.09,0,.18,0,.27,.04,.05,.09,.09,.13,.13h0s.08,.09,.13,.13c0,.18,0,.36,0,.54,.13,.1,.16,.28,.27,.4Z"/><path d="M109.08,10.85c.04,.14,.15,.31,.21,.07,.11-.43,.11-.87-.03-1.31-.17-.52-.54-.85-.96-1.14-.65-.46-1.11-1.07-1.46-1.77-.06-.11-.03-.26-.04-.4-.13-.18-.19-.39,.01-.53,.25-.17,.4,.06,.57,.2,.37,.77,.98,1.33,1.62,1.84,1.29,1.02,1.47,2.38,1.3,3.87-.02,.21-.12,.39-.36,.43-.31-.14-.14-.49-.3-.71-.34-.1-.46,.53-.85,.27,.07-.28,.13-.56,.28-.81Z"/><path d="M82.26,41.18c.23-.25-.04-.49-.02-.74,.04-.54,0-.54,.6-.61,.15,0,.25,.07,.31,.21-.48,1.14,.26,1.95,.77,2.82,.18,.28,.28,.61,.55,.83,.14,.16,.29,.31,.36,.53,.21,.64,.71,1.03,1.18,1.46,.61,.73,1.34,1.37,1.84,2.21,.11,.19,.28,.35,.29,.59-.03,.14-.05,.28-.25,.24h0c-.02-.06-.08-.1-.13-.15h0s-.08-.09-.12-.14c-2.08-2.2-3.87-4.62-5.37-7.25Z"/><path d="M88.56,10.21c.29-.06,.58-.09,.88-.02,.73-.13,1.48-.02,2.21-.06,2.5-.1,4.99-.09,7.49,0,.74,.03,1.48-.07,2.22,.06,.3-.06,.59-.03,.88,.03,.21,.13,.2,.25,0,.37-.33,.11-.66,.07-.99,.07-3.97,0-7.93,0-11.9,0-.33,0-.67-.05-.97,.15-.44,.17-.89,.15-1.35,.06-.18-.08-.39-.15-.35-.41,.62-.14,1.27-.09,1.89-.24Z"/><path d="M75.77,1.71c.01,.06,.03,.11,.04,.17,.17,.36-.17,.45-.34,.61-1.2,1.1-2.39,2.22-2.94,3.81-.22,.65-.57,1.25-.67,1.94-.07,.14-.16,.27-.15,.43,.06,.72-.13,1.4-.34,2.08-.09,.22-.04,.48-.19,.67-.12,.16-.23,.16-.23-.08,.02-2.89,.73-5.55,2.63-7.81,.62-.74,1.3-1.4,2.18-1.83Z"/><path d="M76.08,30.18s0-.09,0-.13c.22,.18,.3,.44,.4,.68,.21,.51,.47,1,.83,1.43,.32,.37,.49,.84,.7,1.26,.6,1.21,1.54,2.21,2.01,3.49,.64,.6,.9,1.46,1.4,2.16,.18,.26,.27,.51,.02,.78-.29-.32-.47-.7-.68-1.07-1.36-2.35-2.72-4.71-4.07-7.07-.13-.23-.29-.45-.34-.72-.08-.07-.05-.2-.14-.27h0c-.07-.08-.05-.2-.13-.27h0c-.07-.09-.08-.18,0-.27Z"/><path d="M117.42,24.07c0-.06-.01-.13-.02-.19-.21-.25-.17-.53-.1-.82,.25-1.1,.66-2.17,.86-3.27,.23-1.24,.8-2.4,.83-3.68,0-.35,.15-.69,.42-.95,.04,0,.09,0,.13,0,.11,.19,.07,.39,.02,.59-.01,.12-.02,.23-.03,.35-.11,.17,0,.39-.11,.56,.02,.04,.02,.08-.01,.11-.13,.18-.01,.4-.11,.58,0,.07-.02,.15-.03,.22-.1,.13-.03,.31-.11,.45,.02,.03,.02,.06-.02,.09-.15,.16,0,.39-.13,.56,.02,.04,.02,.08-.02,.11-.11,.13-.03,.31-.11,.44,.02,.04,.02,.07-.02,.09-.12,.12-.03,.3-.12,.44,.02,.04,.01,.07-.02,.1-.11,.12-.02,.3-.12,.43,.02,.04,.01,.08-.02,.11-.05,.06-.06,.13-.07,.2-.02,.04-.03,.09-.04,.13-.26,1.15-.6,2.27-1.07,3.35Z"/><path d="M101.56,50.44c-.11,.19-.22,.38-.33,.57-.79,1.33-.62,2.91,.45,4.04,.23,.24,.48,.46,.71,.69,.07,.1,.07,.21,0,.31-.2,.16-.38,.05-.55-.06-1.8-1.14-2.21-4.17-.79-5.76,.08-.09,.17-.14,.29-.14,.18,.04,.21,.18,.22,.33Z"/><path d="M106.29,44.6s0,.06-.04,.07c-.03,.05-.07,.09-.1,.14h0c-.14,.06-.18-.04-.22-.14,0-.05,0-.1,.02-.15,.03-.07,.06-.14,.09-.21,.02-.05,.04-.09,.07-.14,.04-.07,.07-.14,.11-.21,.03-.05,.07-.09,.1-.13,.2-.21,.29-.48,.36-.76,.15-.35,.36-.67,.59-.96,.45-.62,.61-1.26,.37-1.99,0-.07,.03-.13,.07-.19,.09-.12,.21-.19,.36-.21,.55,0,.64,.38,.62,.82,0,.22-.14,.42-.13,.65-.48,.9-1.05,1.73-1.64,2.56-.02,.05-.06,.09-.1,.13h0c-.05,.05-.1,.1-.12,.17,0,.05-.01,.08-.05,.1-.02,.05-.05,.09-.1,.12h0c-.04,.06-.09,.1-.12,.16h0c-.08,.03-.13,.09-.13,.18Z"/><path d="M104.52,60.23c0-.09,0-.17,0-.26,.18-.21,.45-.14,.68-.19,.59-.12,.72-.46,.37-.94-.17-.23-.4-.41-.57-.64-.14-.2-.31-.36-.52-.49-.16-.16-.37-.29-.25-.57,.06-.05,.12-.05,.18,0h0c.04,.11,.18,.07,.24,.16h.01c.04,.05,.09,.09,.14,.12h0c.04,.06,.09,.11,.18,.12,.04,0,.07,.01,.09,.05,.05,.02,.09,.06,.12,.1,.35,.22,.68,.47,.94,.8,.02,.14,.12,.23,.19,.33,.49,.75,.41,1.04-.4,1.47-.21,0-.42,0-.63,0-.25-.03-.52,.07-.76-.07Z"/><path d="M85.61,59.97c0,.09,0,.17,0,.26-.13,.11-.29,.06-.43,.07-1.1,0-1.25-.14-1.15-1.13,.54-.72,1.22-1.27,1.96-1.76,.05-.04,.11-.05,.17-.02,.06,.08,.07,.17,.05,.27-.03,.06-.06,.11-.1,.16-.21,.23-.49,.38-.7,.6-.74,.73-.69,1.09,.2,1.55Z"/><path d="M99.16,10.19c-2.51,0-5.02,0-7.52,0-.04-.03-.05-.06-.04-.08,.02-.02,.03-.04,.05-.04,2.5-.17,5-.17,7.51,0,.04,.02,.06,.05,.05,.08-.01,.03-.03,.04-.04,.04Z"/><path d="M89.67,54.34c.08-.23,.17-.45,.24-.68,.29-.91,.2-1.78-.32-2.6-.21-.33-.42-.67-.63-1-.05-.21,.1-.23,.24-.27,.11-.01,.21,0,.3,.06,.19,.16,.27,.39,.37,.6,.06,.23,.18,.44,.3,.64,.42,.83,.38,1.71,.26,2.59-.24,.29-.2,.74-.56,.95-.21,0-.16-.17-.19-.29Z"/><path d="M101.56,50.44c-.11-.06-.13-.16-.13-.27-.07-.06-.08-.14-.06-.23,.06-.13,.18-.21,.26-.33,.03-.05,.07-.09,.11-.14,.38-.68,.96-1.2,1.37-1.85,.1-.12,.21-.24,.34-.33,.09-.04,.19-.06,.29-.05,.13,.03,.27,.06,.24,.25-.81,.99-1.61,1.97-2.42,2.96Z"/><path d="M108.8,11.67c.33-.03,.44-.34,.66-.51,.26-.19,.4-.13,.42,.18,.01,.24,0,.49,0,.73,.27,.33-.08,.61-.06,.92-.02,.17-.08,.33-.2,.46-.05,.06-.11,.12-.16,.18-.03,.05-.06,.09-.1,.13-.04,.04-.09,.07-.14,.09-.03,0-.06,0-.08,0-.13-.06-.15-.16-.13-.28,.02-.08,.05-.16,.08-.24,.02-.05,.04-.1,.06-.15,.03-.11,.04-.22,.04-.33,.17-.52-.29-.72-.51-1.04,.02-.07,.04-.13,.12-.15Z"/><path d="M103.98,47.48c-.06-.1-.16-.12-.27-.13-.07-.06-.08-.14-.07-.22,.02-.05,.05-.1,.09-.14,.07-.08,.15-.16,.23-.24,.1-.1,.2-.2,.3-.3,.34-.28,.5-.68,.7-1.05,.35-.28,.4-.92,1.03-.86,0,.12,.03,.22,.14,.28-.62,.97-1.37,1.83-2.16,2.67Z"/><path d="M86.68,10.47c.09,.09,.18,.17,.27,.26-.28,.26-.63,.17-.95,.19-.59-.14-1.04,.24-1.53,.45-.55,.23-1.08,.49-1.65,.65-.14,0-.28,0-.29-.19,.67-.36,1.33-.72,2-1.08,.4-.21,.81-.36,1.28-.29,.29-.07,.59-.12,.88,.01Z"/><path d="M81.87,11.37c.11,.07,.12,.17,.12,.28,.04,.05,.04,.11,.02,.16-.05,.03-.11,.05-.17,.05-.09-.02-.17-.05-.25-.08-.05-.02-.1-.05-.15-.08-.16-.09-.23-.03-.25,.15-.02,.15-.02,.31-.18,.4-.2-.03-.28-.19-.35-.36-.03-.07-.04-.15-.05-.22-.02-.43-.03-.87,0-1.3,.02-.35,.16-.59,.56-.54,.3,.09,.28,.36,.33,.59,.07,.34,.09,.7,.37,.96Z"/><path d="M82.52,11.83c.07,.09,.16,.11,.27,.11,.09-.08,.19-.07,.28-.02,.03,.27-.18,.33-.36,.4-.83,.31-.88,.45-.4,1.24,.08,.16,.09,.33,0,.49-.43,.28-.47-.15-.64-.35-.06-.11-.1-.22-.15-.34-.02-.05-.04-.11-.06-.17-.03-.27-.15-.5-.25-.75-.01-.06-.02-.12-.02-.19,.08-.35,.29-.48,.64-.39,.1,.02,.18-.02,.27-.05,.14,0,.27,0,.41,.01Z"/><path d="M102.38,10.46c-.05-.08-.09-.17-.14-.25,.63-.04,1.25,.03,1.88,.12,.2,.12,.42,.03,.63,.06,.06,0,.12,0,.18,.02,.18,.02,.37,.05,.55,.07,.08,.04,.18,.04,.27,.08,.09,.03,.18,.05,.27,.08,0,.04-.01,.08-.02,.11-.03,.02-.06,.04-.09,.07-.29,.12-.61,.07-.91,.09-.58,0-1.16,.07-1.73-.07-.26-.21-.64-.15-.88-.39Z"/><path d="M70.96,11.35c.08,.09,.13,.08,.15-.04,.03-.2-.07-.43,.14-.58,.1,.09,.15,.21,.17,.33-.03,.83,.22,1.68-.17,2.48h0c-.09,.07-.04,.2-.13,.27,0,.32,0,.65-.01,.97-.17-1.14-.3-2.28-.14-3.44Z"/><path d="M108.55,41.18c-.22-.19-.09-.39-.04-.61,.1-.46-.03-.63-.55-.75,.02-.2,.03-.41,.33-.37,.05,.04,.11,.11,.16,.1,.45-.08,.65,.17,.77,.55-.17,.39-.39,.75-.66,1.08Z"/><path d="M89.67,54.34c.09,.07,.1,.17,.1,.27,.19,.49-.27,.67-.46,.97-.3,.3-.69,.49-.98,.8-.15,.1-.31,.2-.46,.3-.13,.05-.25,.05-.37-.02-.11-.16,.04-.23,.11-.32h0c.06-.01,.1-.07,.15-.11,.71-.55,1.44-1.09,1.92-1.88Z"/><path d="M84.03,59.17c.03,.08,.09,.15,.1,.23,.09,.7,.21,.81,.88,.83,.07,0,.13,0,.2,0,.05,.03,.06,.06,.04,.09-.02,.03-.03,.05-.05,.05-.4,.01-.8,.05-1.2,.04-.56-.01-.66-.2-.4-.71,.03-.06,.08-.1,.13-.15,.05-.04,.1-.08,.11-.15,.03-.11,.1-.18,.18-.24Z"/><path d="M106,60.23s0-.1,.03-.13q.56-.52,.18-1.18c-.08-.13-.31-.24-.09-.44,.29,.2,.53,.44,.7,.75,.26,.89,.05,1.14-.82,.99Z"/><path d="M89.23,49.9c-.12,0-.22,.03-.28,.15-.38-.43-.76-.86-1.08-1.34,.12-.06,.14-.17,.15-.28,.65,.19,1.19,.84,1.21,1.48Z"/><path d="M108.68,11.82q.67,.25,.67,1.06s0,.09,0,.13c-.08,.07-.05,.2-.13,.27h0c-.07,.02-.13,0-.18-.04-.08-.56-.31-.97-.97-.96-.14,0-.29-.1-.36-.26,0-.07,.03-.12,.1-.16,.2-.1,.4,.06,.59,0,.09-.01,.19-.03,.28-.04Z"/><path d="M106,60.23c.77-.02,.78-.03,.82-.99,.21,.15,.33,.36,.44,.58,.18,.36,.08,.57-.32,.59-.53,.02-1.07,.05-1.6-.03-.05-.03-.06-.06-.05-.09,.01-.03,.03-.05,.04-.05,.22,0,.44,0,.66,0Z"/><path d="M108.4,11.86c-.16,.13-.35,.07-.52,.08-.62-.12-1.14-.45-1.68-.74-.17-.09-.36-.21-.21-.47h.01c.04-.05,.08-.05,.13-.01,.55,.17,1,.52,1.51,.77,.25,.12,.51,.24,.77,.36Z"/><path d="M81.87,11.37c-.1,.13-.2,.08-.25-.04-.17-.45-.4-.9-.31-1.4-.18-.26-.1-.44,.17-.56,.03,0,.07,.02,.1,.02,.03,.22-.09,.48,.13,.67,.01,.29,.02,.59,.03,.88,.03,.11,.02,.23,.1,.32,.03,.03,.04,.06,.03,.11Z"/><path d="M85.2,60.38s0-.09,0-.14c.14,0,.27,0,.41-.01,1.29,0,2.59,0,3.88,.01,.05,.03,.06,.05,.05,.08-.02,.02-.03,.04-.05,.04-1.43,.02-2.86,.1-4.29,.03Z"/><path d="M105.33,60.24s0,.09,0,.14c-1.34,.07-2.68,0-4.03-.03-.05-.02-.06-.05-.05-.08,.01-.03,.03-.04,.05-.04,1.07,0,2.14,0,3.21,0,.27,0,.54,0,.81,0Z"/><path d="M87.61,56.33c-.04,.1-.08,.2-.12,.29,.07,.08,.07,.16,.02,.25-.17,.17-.42,.2-.6,.36-.13,.07-.24,.16-.36,.24-.05,.03-.11,.04-.17,.05-.09,0-.17-.03-.24-.1-.05,0-.1,0-.16-.01,.48-.44,1.04-.77,1.62-1.08Z"/><path d="M86.68,10.47c-.29,0-.59,0-.88-.01,.91-.22,1.83-.26,2.76-.25-.59,.34-1.25,.23-1.88,.26Z"/><path d="M102.38,56.08c0-.11,.01-.22,.02-.33,.04,.03,.09,.06,.13,.09,.04,.03,.08,.06,.12,.09,.25,.13,.5,.28,.7,.48,.05,.06,.06,.13,.02,.2-.11,.11-.24,.14-.39,.14-.17-.01-.31-.06-.4-.22-.06-.12-.09-.26-.17-.38,0-.03-.02-.05-.02-.08Z"/><path d="M103.31,56.62c0-.07,.02-.13,.03-.2,.38,.2,.76,.41,1.07,.71-.05,0-.11,.02-.16,.03-.14,.12-.3,.14-.47,.07-.17-.1-.34-.2-.48-.34-.05-.09-.06-.18,.01-.27Z"/><path d="M91.65,10.07s0,.08,0,.12c-.73,0-1.47,0-2.2,0,.73-.19,1.47-.11,2.21-.12Z"/><path d="M99.16,10.19s0-.08,0-.12c.74,0,1.48-.08,2.21,.12-.73,0-1.47,0-2.2,0Z"/><path d="M101.31,60.24s0,.08,0,.11c-.45,.04-.89,.04-1.34,0,.43-.23,.89-.07,1.34-.11Z"/><path d="M89.49,60.35s0-.07,0-.11c.45,.04,.91-.12,1.34,.11-.45,.05-.89,.04-1.34,0Z"/><path d="M71.26,15.96c.22,.21,.1,.47,.12,.71-.13-.22-.13-.46-.12-.71Z"/><path d="M71.13,15.16c.2,.2,.09,.46,.11,.69-.13-.21-.12-.45-.11-.69Z"/><path d="M104.78,10.46c-.22-.03-.47,.08-.66-.13,.24-.02,.48-.02,.71,.05-.02,.02-.03,.05-.05,.07Z"/><path d="M119.02,18.67c0-.19-.07-.41,.13-.56,.02,.2,0,.39-.13,.56Z"/><path d="M119.42,16.66c0-.19-.07-.4,.11-.56,.02,.2,.01,.39-.11,.56Z"/><path d="M119.57,15.75c0-.2-.01-.39-.02-.59,.04,0,.07,0,.11,0,.02,.21,.03,.41-.1,.59Z"/><path d="M119.3,17.35c0-.2-.08-.42,.11-.58,.02,.21,.02,.41-.11,.58Z"/><path d="M118.62,20.28c0-.15-.04-.32,.12-.43,.02,.16,0,.3-.12,.43Z"/><path d="M118.76,19.75c0-.16-.04-.32,.12-.44,.01,.16,0,.31-.12,.44Z"/><path d="M71.93,19.32c.17,.12,.13,.29,.12,.45-.12-.13-.13-.29-.12-.45Z"/><path d="M118.89,19.22c0-.16-.05-.32,.11-.44,.02,.16,0,.31-.11,.44Z"/><path d="M119.16,18.02c0-.16-.05-.33,.11-.45,.01,.16,.01,.32-.11,.45Z"/><path d="M71.53,17.58c.16,.12,.11,.3,.1,.46-.12-.13-.12-.29-.1-.46Z"/><path d="M71.4,16.9c.16,.13,.11,.3,.1,.47-.12-.14-.12-.3-.1-.47Z"/><path d="M71.8,18.78c.16,.12,.12,.28,.11,.45-.12-.13-.13-.28-.11-.45Z"/><path d="M71.67,18.25c.15,.11,.12,.28,.11,.43-.12-.12-.12-.27-.11-.43Z"/><path d="M109.1,10.2c.16,.13,.16,.26,0,.4,0-.13,0-.26,0-.4Z"/><path d="M115.67,28.45c0-.11,.02-.22,.13-.28,0,.11-.03,.21-.13,.28Z"/><path d="M114.31,31.25c0-.11,.03-.2,.14-.26,0,.11-.05,.2-.14,.26Z"/><path d="M116.07,27.53c0-.12,0-.23,.13-.29,0,.12-.02,.22-.13,.29Z"/><path d="M76.48,1.34c-.06,.11-.15,.13-.27,.13,.06-.1,.15-.13,.27-.13Z"/><path d="M76.21,1.47c-.05,.11-.15,.14-.26,.14,.06-.1,.15-.14,.26-.14Z"/><path d="M116.2,27.23c0-.11,.02-.2,.12-.27,.01,.11-.04,.2-.12,.27Z"/><path d="M115.79,28.17c0-.11,.02-.2,.12-.26,.01,.11-.04,.2-.12,.26Z"/><path d="M105.75,10.57c-.1,.03-.2,.02-.27-.08,.1-.02,.19,0,.27,.08Z"/><path d="M81.84,11.26c-.12-.08-.12-.2-.1-.32,.09,.09,.11,.2,.1,.32Z"/><path d="M116.35,26.87c-.01-.13,0-.24,.13-.31,0,.12-.02,.23-.13,.31Z"/><path d="M116.47,26.57c0-.11,.01-.21,.12-.28,.01,.11-.02,.21-.12,.28Z"/><path d="M82.12,11.82s-.09,.08-.13,.12c-.05-.03-.06-.06-.05-.09,.01-.03,.03-.05,.04-.05,0-.05,.01-.1,.02-.15,.04,.06,.08,.11,.12,.17Z"/><path d="M116.74,25.91c0-.11,.01-.22,.12-.28,.01,.12-.03,.21-.12,.28Z"/><path d="M116.88,25.53c-.01-.12,0-.24,.12-.31,0,.12-.02,.23-.12,.31Z"/><path d="M117.01,25.23c0-.11,.01-.21,.11-.27,.01,.11-.03,.2-.11,.27Z"/><path d="M117.15,24.85c0-.12,0-.23,.12-.3,.01,.12-.01,.22-.12,.3Z"/><path d="M117.29,24.46c-.01-.12,0-.24,.11-.31,.01,.12-.01,.23-.11,.31Z"/><path d="M104.65,57.28c-.12,0-.21-.03-.24-.16,.11,0,.19,.07,.24,.16Z"/><path d="M72.19,19.99c0,.1,0,.2-.01,.3-.09-.08-.11-.18-.1-.3,.04-.04,.07-.04,.11,0Z"/><path d="M75.55,29.38c.1,.06,.13,.16,.13,.27-.09-.07-.13-.15-.13-.27Z"/><path d="M75.68,29.65c.11,.06,.13,.16,.13,.27-.09-.06-.14-.15-.13-.27Z"/><path d="M114.99,29.91c0-.11,.02-.21,.13-.26,0,.11-.04,.2-.13,.26Z"/><path d="M115.54,28.74c0-.12,0-.23,.13-.29,0,.12-.03,.22-.13,.29Z"/><path d="M75.82,29.92c.11,.06,.13,.16,.13,.27-.1-.06-.13-.16-.13-.27Z"/><path d="M114.85,30.18c0-.11,.03-.21,.13-.27,0,.11-.04,.2-.13,.27Z"/><path d="M76.08,30.18c0,.09,0,.18,0,.27-.1-.06-.14-.16-.14-.27,.05,0,.09,0,.14,0Z"/><path d="M114.72,30.45c0-.11,.02-.21,.13-.27,0,.11-.04,.2-.13,.27Z"/><path d="M76.08,30.45c.11,.06,.14,.16,.13,.27-.1-.06-.13-.16-.13-.27Z"/><path d="M114.59,30.72c0-.11,.03-.21,.13-.27,0,.11-.04,.2-.13,.27Z"/><path d="M76.21,30.72c.11,.05,.14,.16,.14,.27-.1-.06-.14-.16-.14-.27Z"/><path d="M114.45,30.99c0-.11,.02-.21,.13-.27,0,.11-.04,.2-.13,.27Z"/><path d="M115.94,27.81c.03-.06,.06-.12,.09-.17,0,.08-.02,.14-.09,.17Z"/><path d="M102.64,55.93s-.08-.06-.12-.09c.06,0,.1,.04,.12,.09Z"/><path d="M87.75,56.21c-.03,.07-.08,.11-.15,.12,.02-.08,.07-.11,.15-.12Z"/><path d="M76.6,1.26s-.08,.05-.11,.07c.02-.05,.05-.08,.11-.07Z"/><path d="M75.94,1.61c-.03,.07-.09,.11-.16,.1,.03-.08,.09-.1,.16-.1Z"/><path d="M104.8,57.41c-.07-.01-.12-.05-.14-.12,.08,0,.13,.04,.14,.12Z"/><path d="M82.16,41.05c.06,.02,.09,.06,.1,.13-.06-.02-.1-.06-.1-.13Z"/><path d="M104.98,57.53c-.09,0-.14-.05-.18-.13,.08,0,.14,.05,.18,.13Z"/><path d="M105.18,57.69s-.08-.07-.12-.1c.07,0,.11,.04,.12,.1Z"/><path d="M118.5,20.72c0-.07,0-.13-.01-.2,.03,0,.06,0,.09,0,.01,.08,0,.15-.08,.2Z"/><path d="M118.57,20.52s-.05,0-.05,0c0,0-.05,0-.05,0,.04-.04,.08-.09,.12-.13,0,.04-.02,.09-.02,.13Z"/><path d="M83.84,59.4c0,.08-.05,.12-.11,.15,0-.08,.04-.13,.11-.15Z"/><path d="M72.19,19.99s-.05,0-.05,0c0,0-.05,0-.05,0,0-.04-.01-.09-.02-.13,.04,.04,.09,.09,.13,.13Z"/><path d="M104.78,10.46s.03-.05,.05-.07c.05-.03,.08-.02,.1,.03-.05,.01-.1,.03-.15,.04Z"/><path d="M106.81,43.87s.06-.09,.1-.13c0,.07-.03,.11-.1,.13Z"/><path d="M106.68,44.04c.01-.08,.05-.13,.12-.17,0,.08-.05,.13-.12,.17Z"/><path d="M115.41,29.02c.03-.06,.06-.11,.09-.17,0,.08-.02,.14-.09,.17Z"/><path d="M75.42,29.11c.07,.05,.1,.12,.1,.2-.08-.04-.11-.11-.1-.2Z"/><path d="M106.41,44.42c.04-.05,.08-.1,.12-.15,0,.08-.04,.13-.12,.15Z"/><path d="M106.29,44.6c0-.09,.05-.16,.13-.19-.01,.09-.05,.15-.13,.19Z"/><path d="M106.14,44.81s.07-.09,.1-.14c0,.07-.04,.11-.1,.14Z"/><path d="M115.28,29.3c0-.08,.03-.14,.1-.19,0,.08-.02,.15-.1,.19Z"/><path d="M115.14,29.58c0-.08,.03-.15,.1-.2,0,.09-.03,.16-.1,.2Z"/><path d="M114.2,31.46c0-.09,.03-.16,.11-.2,0,.09-.03,.16-.11,.2Z"/><path d="M114.07,31.71c0-.08,.04-.14,.11-.19,0,.08-.03,.15-.11,.19Z"/><path d="M116.62,26.21c.03-.06,.06-.12,.09-.18,0,.08-.02,.14-.09,.18Z"/><path d="M87.63,48.43s.08,.09,.12,.14c-.07-.02-.12-.06-.12-.14Z"/><path d="M87.75,48.56s.09,.1,.13,.15c-.07-.02-.12-.07-.13-.15Z"/><path d="M106.13,10.72h-.06s-.06,0-.06,0c0-.03,0-.05,.01-.08,.06-.01,.09,.02,.12,.07Z"/><path d="M106.53,44.26s.06-.08,.1-.12c0,.06-.04,.1-.1,.12Z"/><path class="cls-15" d="M90.2,125.39c-.09,.43-.04,.85-.04,1.27,0,.83,.01,1.65,0,2.48,0,.5-.05,.57-.52,.57-2.12,0-4.25,0-6.37-.01-.47,0-.53-.07-.53-.56,0-1.94-.02-3.89,0-5.83,.01-1.11,.49-1.73,1.54-2.09,2.21-.76,4.39-.67,6.5,.36,1.4,.68,2.81,1.35,4.2,2.06,.51,.26,.94,.26,1.45,0,1.49-.75,3-1.48,4.52-2.18,1.93-.88,3.92-.97,5.94-.33,.36,.12,.71,.27,1.02,.49,.52,.35,.79,.82,.79,1.46-.01,2.03-.01,4.07-.02,6.1,0,.49-.05,.53-.55,.53-2.12,0-4.25,0-6.37,0-.45,0-.49-.05-.5-.51,0-1.03,0-2.06,0-3.08,0-.16,0-.31,0-.47,0-.3-.17-.33-.4-.23-.14,.06-.28,.14-.42,.21-1.36,.67-2.73,1.32-4.08,2.01-.45,.23-.83,.22-1.26,0-1.38-.69-2.76-1.35-4.15-2.02-.23-.11-.45-.29-.77-.23Z"/><path class="cls-15" d="M95.7,75.96c1.79,0,3.58-.02,5.37,0,1.89,.02,3.74,.29,5.5,1.03,.66,.28,1.29,.61,1.82,1.11,1.46,1.42,1.41,3.42-.12,4.76-1.04,.91-2.31,1.33-3.62,1.65-1.6,.39-3.23,.43-4.86,.43-2.95,0-5.9,0-8.85-.02-1.64,0-3.26-.15-4.85-.56-1.25-.32-2.4-.85-3.31-1.79-1.31-1.34-1.28-3.09,.09-4.39,.73-.69,1.6-1.13,2.54-1.45,1.78-.61,3.62-.76,5.48-.79,1.61-.02,3.22,0,4.83,0v.02Z"/><path class="cls-15" d="M92.61,87.21c2.5,0,5.01-.01,7.51,0,1.73,.01,3.42,.28,5,1.05,.61,.29,1.18,.62,1.67,1.1,1.41,1.38,1.39,3.25-.06,4.6-.84,.78-1.87,1.2-2.94,1.54-1.72,.55-3.5,.67-5.29,.67-4.63,0-9.25,0-13.88,0-.11,0-.22,0-.34,0-.51-.04-.59-.09-.59-.6,0-2.61,0-5.23,0-7.84,0-.52,.05-.55,.67-.55,2.57,0,5.14,0,7.71,0h.54v.03Z"/><path class="cls-15" d="M93.86,64.72c2.77,0,5.54-.01,8.31,0,1.23,0,2.45,.16,3.61,.62,.54,.21,1.06,.47,1.48,.89,.84,.85,.73,2.16-.25,2.85-1.13,.8-2.4,1.17-3.77,1.21-3.46,.12-6.92,.09-10.39,.05-.42,0-.85,.03-1.27,.03-.34,0-.48,.14-.47,.49,.01,.76,0,1.52,0,2.28,0,.58-.04,.63-.61,.6-2.05-.11-4.11-.02-6.16-.04-.64,0-.64,0-.64-.62,0-2.53,0-5.05,0-7.58,0-.13,.01-.27,.01-.4,0-.24,.13-.37,.37-.39,.22-.02,.45-.02,.67-.03,3.04,0,6.08,0,9.12,0,0,0,0,.02,0,.02Z"/><path class="cls-15" d="M95.74,118.55c-1.62-.04-3.3,.06-4.97-.08-1.5-.13-2.95-.47-4.34-1.05-.46-.19-.88-.43-1.27-.74-.93-.72-1.51-1.62-1.49-2.85,.02-1.21,0-2.41,0-3.62,0-.65,.09-.72,.75-.73,1.59,0,3.17,0,4.76,0,.42,0,.85-.03,1.27-.03,.56,0,.68,.12,.67,.67,0,1.36,0,2.72-.03,4.09-.02,1.38,.65,2.07,2.06,2.09,1.12,.01,2.23,0,3.35,0,.56,0,1.12,0,1.68,.01,.39,.01,.76-.06,1.11-.19,.79-.3,1.08-.72,1.08-1.57,0-1.45,0-2.9,0-4.36,0-.63,.06-.7,.69-.7,2.03,0,4.07,0,6.1,0,.55,0,.62,.07,.63,.61,.04,1.41,.09,2.81,.01,4.22-.04,.82-.39,1.45-.97,1.99-.77,.71-1.69,1.14-2.68,1.47-1.89,.63-3.84,.82-5.81,.76-.85-.02-1.7,0-2.6,.01Z"/><path class="cls-15" d="M99.44,102.89c0,1.27,0,2.55,0,3.82,0,.63,0,.64-.63,.64-2.03,0-4.07,0-6.1,0-.69,0-.7-.02-.7-.72,0-2.5,0-5,0-7.51,0-.74,.02-.77,.74-.77,2.03-.01,4.07-.01,6.1,0,.58,0,.61,.03,.62,.6,0,1.32,0,2.64,0,3.95,0,0-.02,0-.03,0Z"/><path class="cls-15" d="M38.93,109.32c1.03,0,2.05,0,3.08,0,.47,0,.48,.03,.49,.49,0,.04-.01,.09-.01,.13,.02,.87,0,.86-.89,.86-1.34-.01-2.68,0-4.02,0-.04,0-.09,0-.13,0-.23,.03-.57-.03-.55,.32,.01,.3,.32,.35,.57,.35,1.07,.01,2.14,0,3.22,.01,.64,0,1.18,.23,1.53,.8,.72,1.17,.09,2.56-1.28,2.81-.26,.05-.53,.05-.8,.05-1.79,0-3.57,0-5.36-.02-.25,0-.56,.12-.69-.23-.13-.37-.08-.75,.06-1.11,.06-.16,.26-.15,.42-.15,.42,0,.85,0,1.27,0,.98,0,1.97,0,2.95,0,.18,0,.36,0,.54-.02,.19-.02,.38-.09,.38-.3,0-.24-.19-.34-.41-.34-.16,0-.31,0-.47,0-.94,0-1.88,.01-2.81,0-.68-.01-1.26-.24-1.64-.86-.77-1.24-.02-2.69,1.43-2.77,.53-.03,1.07-.02,1.61-.02,.51,0,1.03,0,1.54,0,0,0,0,0,0,.01Z"/><path class="cls-15" d="M29.72,109.32c1.03,0,2.06,0,3.08,0,.47,0,.48,.03,.5,.49,0,.02,0,.04,0,.07,.02,.88,0,.91-.88,.91-1.23,0-2.46,0-3.69,0-.16,0-.31,0-.47,0-.25,0-.57,.01-.56,.33,0,.31,.33,.33,.57,.34,.98,.01,1.97,0,2.95,0,.34,0,.67,.02,.98,.15,.71,.3,1.12,.92,1.11,1.68,0,.77-.41,1.36-1.14,1.65-.34,.14-.69,.19-1.05,.19-1.88,0-3.76,0-5.63,0-.53,0-.53-.01-.56-.55,0-.09-.02-.18-.03-.27-.04-.58,.09-.71,.66-.71,1.36,.02,2.73,.02,4.09,.02,.22,0,.45,.01,.66-.09,.11-.05,.2-.13,.2-.24,0-.14-.08-.27-.22-.3-.17-.04-.35-.05-.53-.05-.89,0-1.79,0-2.68,0-.31,0-.62-.02-.92-.12-1.01-.35-1.39-.99-1.22-2.08,.13-.86,.79-1.42,1.75-1.44,1.01-.02,2.01,0,3.02,0,0,0,0,0,0,0Z"/><path class="cls-15" d="M10.11,109.32c.98,0,1.96,0,2.95,0,.73,0,1.28,.34,1.64,.98,.3,.53,.36,1.05-.04,1.56-.18,.23-.26,.42-.01,.67,.26,.27,.31,.63,.31,1,0,.38-.03,.76-.02,1.14,0,.35-.15,.48-.49,.47-.62-.01-1.25-.01-1.88,0-.32,0-.44-.15-.44-.44,0-.42-.01-.85,0-1.27,0-.34-.14-.48-.48-.47-.71,.01-1.43,.02-2.14,0-.33,0-.44,.15-.44,.44,0,.42,.01,.85,.02,1.27,0,.32-.11,.5-.47,.48-.51-.02-1.03,0-1.54,0-.49-.01-.55-.05-.56-.53-.01-.71,0-1.43,.02-2.14q.02-.99,1.01-.99c1.23,0,2.46,0,3.68,.01,.24,0,.49,.02,.71-.13,.1-.07,.18-.13,.16-.26-.01-.13-.11-.21-.21-.23-.19-.04-.4-.05-.6-.05-1.36,0-2.72,0-4.09,0-.68,0-.68,0-.66-.66q.03-.81,.82-.82c.92,0,1.83,0,2.75,0h0Z"/><path class="cls-15" d="M21.35,103.43c-.35,.87-.72,1.73-1.05,2.6-.11,.29-.25,.45-.57,.45-.65,0-1.29,.01-1.94,0-.35,0-.42-.1-.27-.4,.55-1.12,.91-2.32,1.49-3.43,.45-.87,1.06-1.57,2.04-1.8,1.23-.28,2.48-.27,3.72-.08,.7,.11,1.2,.84,1.12,1.61-.12,1.14-.03,2.27-.07,3.41-.02,.63-.01,.63-.64,.62-.42,0-.85,0-1.27,0-.54,.01-.68-.12-.66-.66,.01-.48,.11-.97-.15-1.42-.23-.11-.48-.05-.72-.05-.34,0-.62-.07-.69-.47-.08-.52,.14-.97,.55-1.08,.15-.04,.31-.03,.46-.06,.15-.03,.34-.07,.31-.28-.03-.18-.22-.19-.38-.2-.23,0-.47,.05-.6,.24-.23,.32-.54,.59-.68,.97Z"/><path class="cls-15" d="M48.37,109.32c.74,0,1.47,0,2.21,0,.46,0,.49,.05,.51,.5,0,.09,0,.18,0,.27-.02,.56-.11,.67-.67,.68-1,.02-2.01,.01-3.02,.01-.25,0-.49,0-.74,0-.18,0-.35,.06-.49,.17-.13,.11-.22,.23-.16,.4,.06,.17,.21,.13,.34,.12,.8,0,1.61-.02,2.41-.02,.62,0,.65,.04,.66,.63,0,.09,0,.18,0,.27-.02,.53-.06,.58-.58,.58-.69,0-1.38,0-2.08,0-.16,0-.31,0-.47,0-.14,0-.28,.01-.32,.18-.03,.15,.08,.25,.19,.33,.25,.17,.54,.19,.83,.19,1.12,0,2.23,0,3.35,.01,.25,0,.61-.1,.69,.24,.08,.38,.16,.8-.09,1.17-.08,.11-.22,.17-.35,.15-1.25-.17-2.5,0-3.74-.06-.49-.02-.98-.02-1.46-.16-1.51-.43-2.21-1.46-2.06-3.07,.13-1.44,1.17-2.48,2.62-2.57,.8-.05,1.61,0,2.41,0,0,0,0,0,0-.01Z"/><path class="cls-15" d="M18.27,111.32c0,.49-.01,.98,0,1.47,.02,.58,.25,.81,.81,.83,.47,.02,.94,.03,1.41,.03,.7,0,.91-.19,.95-.91,.03-.67,.01-1.34,0-2.01,0-.33-.02-.67-.03-1,0-.27,.12-.41,.41-.41,.63,0,1.25,0,1.88,0,.28,0,.39,.15,.38,.42-.02,.85,0,1.7-.04,2.54-.07,1.59-.87,2.57-2.45,2.78-1.26,.17-2.54,.13-3.8-.09-1.11-.19-2.16-1.34-2.1-2.59,.04-.84-.03-1.69-.04-2.54,0-.48,.04-.53,.53-.53,.51,0,1.03,0,1.54,0,.51,0,.54,.04,.55,.53,.01,.49,0,.98,0,1.47h0Z"/><path class="cls-15" d="M40.11,104.73c0-.4-.01-.8,0-1.2,.03-.96,.81-1.46,1.67-1.02,.55,.28,1.06,.66,1.58,1,.32,.21,.62,.43,.94,.64,.26,.16,.34,.11,.34-.21,0-.38,0-.76-.01-1.14,0-.3,.13-.44,.45-.43,1.72,.02,1.44-.23,1.47,1.36,.01,.53,0,1.07-.02,1.6-.04,.87-.79,1.35-1.6,1.03-.43-.18-.82-.45-1.2-.72-.42-.3-.85-.58-1.27-.87-.11-.08-.22-.18-.36-.12-.19,.09-.1,.26-.1,.41,0,.33,0,.67,0,1,0,.27-.15,.4-.41,.43-.02,0-.04,0-.07,0-1.37,.14-1.41,.1-1.41-1.28,0-.16,0-.31,0-.47Z"/><path class="cls-15" d="M51.8,111.63c0-.6,0-1.21,0-1.81,0-.45,.05-.49,.51-.5,.54-.01,1.07,.01,1.61-.01,.35-.01,.48,.11,.48,.46-.02,.85-.02,1.7-.02,2.55,0,.13-.01,.27,0,.4,.07,.6,.35,.88,.96,.91,.58,.03,1.16,.01,1.74,.02,.57,0,.6,.04,.63,.61,0,.13,0,.27,0,.4,0,.26-.12,.44-.39,.44-1.34,.04-2.68,.15-4.01-.03-.94-.13-1.49-.82-1.49-1.77,0-.56,0-1.12,0-1.67,0,0,0,0,0,0Z"/><path class="cls-15" d="M33.97,104.5c-.19,.48-.39,.95-.55,1.43-.13,.4-.38,.57-.8,.55-.31-.02-.62,0-.94,0-.23,0-.35-.14-.27-.35,.41-1.03,.69-2.13,1.42-3,.41-.49,.97-.71,1.59-.76,.55-.04,1.12-.04,1.67,0,.73,.05,1.09,.44,1.1,1.17,.02,.83-.02,1.65,0,2.48,0,.29-.1,.41-.38,.4-.33,0-.67,0-1,0-.27,0-.41-.14-.41-.41,0-.07,0-.13,0-.2q-.04-.81-.83-.89c-.1,0-.17-.05-.21-.14-.23-.63,.19-.87,.67-1.08-.66-.11-.71,.53-1.04,.81Z"/><path class="cls-12" d="M26.67,103.93c0-.38,0-.76,0-1.14,0-.3,.12-.46,.44-.44,.31,.01,.63,0,.94,.01,.42,.02,.5,.09,.5,.52,0,.56-.03,1.12-.02,1.67,0,.69,.13,.82,.82,.85,.36,.01,.71,0,1.07,0,.32,0,.43,.19,.42,.48,0,.27,0,.57-.38,.58-.91,.02-1.83,.1-2.74-.05-.64-.11-.97-.49-1.02-1.14-.03-.44,0-.89,0-1.34,0,0-.01,0-.02,0Z"/><path class="cls-3" d="M37.72,104.33c0-.51,.02-1.03,0-1.54-.01-.29,.1-.41,.37-.43,.04,0,.09,0,.13,0,1.35,0,1.37-.12,1.36,1.27,0,.74,0,1.47-.01,2.21-.01,.58-.07,.63-.61,.64-1.44,.01-1.22,.05-1.24-1.21,0-.31,0-.63,0-.94,0,0,0,0,0,0Z"/><path class="cls-14" d="M21.35,103.43c.01-.45,.28-.79,.54-1.11,.25-.31,.89-.4,1.24-.23,.16,.08,.22,.21,.2,.38-.01,.17-.09,.31-.26,.35-.19,.04-.4,.05-.59,.04-.62-.04-.6,.2-.68,.81-.05,.42,.14,.54,.69,.57,.21,.01,.45-.12,.61,.11-.31,0-.62,.03-.94,.01-.46-.02-.52-.09-.55-.56-.01-.17,.05-.35-.04-.53-.08,.05-.15,.1-.22,.15Z"/><path class="cls-4" d="M33.97,104.5c-.01-.28,.15-.5,.27-.73,.17-.33,.55-.46,.9-.37,.14,.04,.25,.11,.23,.26-.01,.13-.07,.25-.23,.29-.04,0-.09,0-.13,.01-.62,.11-.64,.13-.68,.8-.08-.04-.12-.11-.12-.19-.02-.23-.14-.12-.25-.08Z"/><path class="cls-15" d="M181.15,114.44c-1.01,0-2.01,0-3.02,0-.53,0-.57-.05-.56-.58,0-.13,.03-.27,.03-.4,0-.28,.15-.4,.42-.42,.2-.01,.4-.02,.6-.02,1.25,0,2.5,0,3.75,0,.2,0,.4-.02,.6-.06,.15-.03,.21-.17,.23-.3,.02-.15-.09-.24-.21-.31-.19-.1-.39-.07-.59-.07-.89,0-1.79,0-2.68,0-.32,0-.63-.03-.92-.13-.7-.23-1.18-.88-1.19-1.61-.02-.84,.37-1.42,1.14-1.7,.34-.12,.69-.17,1.05-.17,1.83,0,3.66,0,5.5,0,.23,0,.53-.1,.66,.18,.15,.33,.2,.7,.07,1.04-.1,.27-.38,.28-.63,.28-.94,0-1.88,0-2.82,0-.47,0-.94,0-1.41,.02-.13,0-.27,0-.4,.03-.15,.03-.32,.07-.33,.27-.01,.23,.17,.31,.35,.31,.54,.01,1.07,0,1.61,0,.6,0,1.21-.03,1.81,0,1.39,.07,2.16,1.23,1.72,2.55-.2,.61-.91,1.09-1.69,1.1-1.03,.02-2.06,0-3.08,0,0,0,0,0,0,0Z"/><path class="cls-15" d="M163.41,108.67c.98,0,1.97-.01,2.95,0,.83,.01,1.46,.37,1.79,1.16,.19,.46,.21,.93-.08,1.34-.22,.3-.29,.53,0,.82,.2,.2,.22,.48,.22,.75,0,.4-.01,.8,0,1.21,0,.32-.09,.51-.45,.5-.65-.01-1.3-.01-1.94,0-.3,0-.4-.14-.39-.41,.02-.42,.03-.85,0-1.27-.03-.36-.2-.52-.55-.51-.69,0-1.39,0-2.08,0-.28,0-.4,.13-.4,.41,0,.45,0,.89,0,1.34,0,.31-.11,.45-.43,.44-.6-.02-1.21-.02-1.81-.01-.27,0-.36-.14-.36-.37,0-.98,.02-1.97,.02-2.95,0-.32,.21-.35,.45-.34,.89,0,1.79,0,2.68,.01,.58,0,1.16,0,1.74,0,.16,0,.31,0,.46-.04,.11-.02,.19-.11,.2-.24,.01-.16-.07-.27-.21-.29-.2-.03-.4-.05-.6-.05-1.36,0-2.73,0-4.09,0-.61,0-.61,0-.65-.63,0-.16-.02-.31-.02-.47,0-.3,.14-.43,.46-.42,1.03,.02,2.06,0,3.08,0,0,0,0,0,0,0Z"/><path class="cls-15" d="M133.63,111.5c0-.8,0-1.61,0-2.41,0-.31,.11-.44,.43-.43,.58,.01,1.16,0,1.74,0,.28,0,.41,.11,.41,.39,0,.42,0,.85,0,1.27-.01,.33,.09,.51,.45,.5,.78,0,1.56,0,2.35,0,.35,0,.49-.17,.48-.49,0-.4-.02-.8-.02-1.21,0-.32,.13-.49,.48-.47,.51,.02,1.03,0,1.54,.02,.52,.01,.57,.05,.57,.59,.01,1.03,0,2.06,0,3.08,0,.54,0,1.07,.01,1.61,0,.32-.08,.51-.45,.5-.58-.01-1.16,0-1.74,0-.31,0-.44-.13-.44-.44,.01-.45,0-.89,.01-1.34,0-.28-.13-.41-.41-.41-.78,0-1.56-.01-2.34,0-.41,0-.48,.1-.49,.55-.01,.4,0,.8,.01,1.21,.01,.32-.13,.44-.44,.43-.54-.01-1.07,0-1.61,0-.5,0-.54-.04-.54-.53,0-.8,0-1.61,0-2.41,0,0,0,0,0,0Z"/><path class="cls-15" d="M156.12,114.43c-.69,0-1.38,0-2.08,0-1.31-.01-2.49-1.01-2.7-2.26-.26-1.54,.42-2.79,1.78-3.28,.38-.14,.77-.22,1.18-.22,1.41,0,2.81-.02,4.22-.01,.49,0,.57,.08,.6,.59,0,.07,0,.13,0,.2,0,.65-.03,.71-.66,.72-.8,.02-1.61,0-2.41,0-.4,0-.8,0-1.21,0-.18,0-.36,0-.52,.08-.17,.08-.33,.17-.29,.39,.04,.2,.23,.18,.38,.18,.78,0,1.56-.02,2.34-.02,.72,0,.73,.01,.72,.76,0,.09,0,.18,0,.27,.02,.34-.13,.49-.48,.48-.8-.02-1.61-.02-2.41-.02-.2,0-.5-.13-.55,.19-.04,.28,.21,.42,.44,.51,.19,.07,.39,.06,.59,.06,1.16,0,2.32,0,3.48,.02,.54,0,.55,.03,.56,.58,0,.09,0,.18,0,.27-.04,.45-.11,.53-.58,.54-.8,.01-1.61,0-2.41,0,0,0,0,0,0,0Z"/><path class="cls-15" d="M173.99,114.42c-.69,0-1.38-.01-2.08,0-1.37,.04-2.71-.94-2.82-2.8-.09-1.52,1.02-2.84,2.6-2.93,1.58-.09,3.17-.03,4.75-.04,.28,0,.4,.14,.41,.41,0,.07,0,.13,.01,.2,.03,.85-.01,.9-.88,.9-1.12,0-2.23,0-3.35,0-.25,0-.49,.01-.7,.16-.11,.08-.23,.17-.2,.32,.03,.17,.19,.16,.32,.16,.27,0,.54,0,.8,0,.65,0,1.29,0,1.94-.02,.3,0,.45,.1,.46,.42,0,1.24,.09,1.07-1,1.08-.74,0-1.47,0-2.21,0-.11,0-.24-.02-.3,.09-.08,.14,.02,.25,.1,.36,.2,.26,.49,.29,.79,.29,.92,0,1.83,0,2.75,0,.38,0,.76,.02,1.14,.03,.22,0,.3,.1,.32,.33,.1,1.06,.11,1.06-.99,1.05-.63,0-1.25,0-1.88,0h0Z"/><path class="cls-15" d="M156.18,123.14c-.51,0-1.03,.02-1.54,0-.88-.05-1.57-.69-1.7-1.53-.06-.39-.02-.76,.26-1.07,.17-.19,.18-.35,.02-.59-.62-.92-.25-2.04,.79-2.44,.08-.03,.17-.07,.25-.08,1.29-.16,2.58-.29,3.86,.03,1.13,.28,1.62,1.39,1.07,2.39-.15,.27-.12,.5,0,.76,.59,1.37-.17,2.51-1.67,2.54-.45,0-.89,0-1.34,0h0Z"/><path class="cls-15" d="M162.32,123.14c-.51,0-1.03,0-1.54,0-.49,0-.54-.06-.58-.53,0-.11-.01-.22,0-.33,.02-.47,.1-.57,.61-.58,.71-.02,1.43-.01,2.14-.02,.16,0,.31,0,.47,0,.19-.01,.34-.1,.47-.23,.09-.1,.19-.21,.12-.35-.06-.14-.19-.17-.34-.14-.33,.07-.67,0-1,.02-.09,0-.2,.03-.26,0-.37-.2-.28-.57-.27-.88,.02-.26-.05-.63,.4-.64,.38,0,.76,.02,1.14,.01,.13,0,.29,.01,.33-.15,.05-.19-.09-.26-.24-.34-.23-.12-.48-.11-.72-.11-.71,0-1.43,0-2.14,0-.63,0-.69-.07-.7-.68,0-.11,0-.22,0-.33,0-.29,.13-.47,.43-.48,1.25-.05,2.51-.17,3.74,.07,2.49,.48,2.76,3.01,1.95,4.36-.55,.91-1.44,1.3-2.47,1.38-.51,.04-1.03,0-1.54,0,0,0,0-.01,0-.02Z"/><path class="cls-15" d="M144.13,108.65c.2,0,.4,.02,.6,0,.46-.05,.82,.12,1.14,.43,.35,.34,.72,.66,1.09,.99,.42,.36,.42,.36,.82,0,.37-.33,.73-.65,1.09-.99,.34-.32,.73-.49,1.21-.44,.42,.04,.85,.05,1.27,0,.19-.02,.36,0,.46,.19,.09,.18,.07,.35-.05,.5-.11,.14-.23,.27-.36,.39-.68,.65-1.35,1.31-2.1,1.87-.45,.34-.64,.75-.58,1.33,.15,1.51,.13,1.52-1.34,1.51-.4,0-.87,.15-1.17-.1-.32-.28-.12-.77-.08-1.14,.08-.76-.22-1.26-.79-1.71-.73-.58-1.41-1.24-2.1-1.86-.12-.1-.24-.21-.32-.34-.21-.32-.05-.61,.34-.63,.16,0,.31,.01,.47,.01,.13,0,.27,0,.4,0h0Z"/><path d="M108.28,39.45c-.15,.09-.25,.22-.33,.37-.08,.06-.15,.12-.23,.18-.05,.07-.08,.15-.16,.18-.05,.02-.11,.02-.17,.02-.34-.08-.28-.3-.19-.53,.02-.05,.05-.1,.07-.15,.04-.07,.08-.15,.12-.22,.06-.13,.13-.27,.19-.4,.02-.05,.05-.1,.07-.14,.03-.07,.07-.13,.11-.2,.02-.04,.04-.09,.07-.13,.02-.04,.04-.09,.06-.13,.02-.04,.04-.09,.06-.13,.04-.09,.07-.19,.09-.29,.01-.05,.03-.1,.05-.15,.03-.08,.07-.16,.1-.24,.37-.81,.71-1.63,.99-2.48,.58-1.45,.99-2.94,1.36-4.45,.02-.09,.06-.18,.08-.27,.02-.09,.03-.18,.05-.27,.01-.09,.03-.17,.05-.26,.04-.14,.07-.28,.08-.42,0-.09,.03-.17,.05-.26,.06-.17,.08-.34,.07-.52,0-.06,0-.12,0-.18,0-.09,.03-.18,.05-.27,.07-.21,.06-.44,.07-.66,0-.14,.02-.27,.05-.4,.08-.24,.06-.49,.06-.74,.14-.81,.11-1.63,.18-2.45,.16-1.43,.06-2.86,.06-4.29-.08-.24-.28-.33-.48-.43-.68-.38-1.38-.73-1.8-1.43-.05-.08-.09-.16-.13-.25-.03-.06-.05-.11-.07-.17-.04-.12-.08-.24-.13-.35-.12-.38-.23-.75-.29-1.15-.02-.24-.02-.48,0-.72,0-.1,.03-.2,.06-.3,.19-.34,.26-.76,.64-.97h0s.08-.07,.09-.13c.04-.02,.06-.05,.06-.1,.02-.07,.07-.12,.13-.17,.13-.11,.24-.23,.27-.4,0-.03,0-.05,0-.08,0-.05,.02-.11,.04-.16,.02-.05,.05-.1,.08-.15,.05-.08,.1-.15,.14-.23,.94-1.97,.35-3.58-1.28-4.81-1.07-.8-1.68-1.9-1.53-3.31,.03-.12,.07-.23,.11-.35,.02-.05,.04-.11,.06-.16,.02-.05,.05-.09,.09-.14,.02-.02,.03-.04,.05-.06,.05-.06,.09-.13,.13-.19,.03-.04,.06-.08,.11-.1,.05-.02,.09-.04,.14-.06h0c.03-.06,.08-.11,.14-.13h0c.03-.07,.09-.11,.17-.13,.04,0,.07-.01,.09-.05,.05-.02,.09-.06,.13-.1h0c.05-.06,.11-.11,.19-.12,.92-.36,1.85-.63,2.85-.6,1.91,.06,3.41,.94,4.62,2.35,1.27,1.48,1.92,3.24,2.25,5.14,.11,.61,.17,1.23,.26,1.85,.17,.67,.04,1.34,.08,2.01-.15,.4-.18,.8-.09,1.22,.03,.11,.03,.22,.02,.33-.06,.21-.08,.42-.09,.63-.36,2.48-.96,4.91-1.74,7.29-.03,.09-.07,.18-.11,.26-.03,.08-.06,.16-.09,.24-.03,.07-.07,.14-.1,.21-.02,.04-.04,.09-.06,.13-.03,.06-.06,.13-.08,.2-.02,.07-.04,.14-.06,.21-.03,.07-.05,.14-.07,.21-.02,.08-.04,.15-.07,.23-.03,.08-.06,.16-.1,.24-.28,.7-.53,1.42-.85,2.1-.02,.05-.05,.1-.08,.15-.04,.07-.08,.14-.12,.2-.02,.04-.04,.09-.07,.13-.03,.06-.05,.13-.07,.2-.01,.04-.03,.09-.04,.13-.03,.06-.06,.12-.09,.18-.02,.04-.04,.08-.06,.12-.03,.06-.06,.11-.09,.17-.02,.04-.04,.08-.06,.12-.03,.06-.06,.12-.09,.18-.02,.04-.04,.08-.06,.13-.02,.04-.04,.09-.06,.13-.02,.05-.04,.09-.07,.13-.02,.05-.04,.09-.07,.13-.02,.05-.04,.09-.07,.13-.02,.05-.04,.09-.07,.13-.02,.05-.04,.09-.07,.13-.02,.05-.04,.09-.07,.13-.02,.05-.04,.09-.07,.13-.02,.05-.04,.09-.07,.13-.02,.05-.04,.09-.07,.13-.02,.05-.04,.09-.07,.13-.02,.04-.04,.09-.07,.13-.02,.04-.04,.09-.06,.13-.02,.04-.04,.09-.07,.13-.03,.07-.06,.13-.09,.2-.02,.05-.04,.09-.07,.14-.03,.08-.06,.16-.1,.23-.91,1.76-1.91,3.46-2.92,5.16-.06,.1-.15,.16-.24,.23h0c-.06,.08-.03,.22-.15,.27h0c0,.06-.06,.09-.09,.15-.5,.85-.99,1.71-1.49,2.56Z"/><path d="M118.48,14.76c0-.42-.03-.84,.11-1.24,.1,.08,.09,.17,.04,.27,.01,.28-.13,.58,.11,.84,.21,.17,.1,.45,.21,.66,.19,.08,.27-.22,.46-.12,0,0,0,0,0,0-.17,.62-.18,1.27-.33,1.87-.14,.57-.24,1.2-.55,1.73-.03,.05-.05,.13-.05,.19,.05,.72-.31,1.34-.48,2-.12,.49-.38,.96-.36,1.51,.02,.47-.35,.91-.25,1.42-.43,.17-.5,.54-.53,.94-.05,.04-.09,.09-.13,.13-.09,.17-.16,.34-.13,.54-.05,.04-.09,.09-.13,.13h0s-.09,.09-.13,.13c0,.13,0,.27,0,.4-.08,.07-.06,.2-.13,.27h0s-.09,.09-.13,.13c.05,.35-.25,.61-.27,.94-.09,.07-.05,.2-.13,.27-.04,.04-.09,.09-.13,.13-.04,.05-.09,.09-.13,.13-.17,.82-.57,1.55-.95,2.28-.57,1.09-1.16,2.16-1.75,3.24-.05,.1-.09,.22-.17,.28-.34,.25-.48,.62-.64,.98-.35,.82-.93,1.52-1.27,2.36-.14,.34-.37,.71-.7,.96-.07,.05-.12,.13-.25,.1-.17-.48,.28-.79,.37-1.2,.04-.18,.12-.36,.13-.56,.54-1.12,1.18-2.19,1.8-3.26,.88-1.51,1.7-3.05,2.48-4.62,.25-.5,.45-1.01,.62-1.54,.55-.93,.91-1.94,1.24-2.96,.57-1.53,1.08-3.07,1.47-4.67,.35-1.44,.62-2.89,.76-4.37,.01-.11,.04-.22-.04-.32Z"/><path d="M111.63,1.07s.09,0,.13,0c.46,.24,.99,.14,1.48,.27,1.26,.27,2.25,.94,3.19,1.82,.92,.86,1.52,1.89,1.97,3.01,.14,.36,.37,.75,.35,1.18,0,.11,.04,.21,.09,.31,.5,.94,.65,1.96,.56,3.01,0,.09-.04,.17-.15,.22-.37-.18-.48-.49-.52-.9-.08-.76-.26-1.51-.44-2.26-.3-1.2-.97-2.16-1.68-3.12-.52-.71-1.09-1.31-1.88-1.7-.06-.03-.11-.08-.16-.12-.75-.71-1.73-.81-2.67-1.05-.17-.14-.37-.13-.56-.14-.15,0-.36,0-.38-.19-.02-.22,.17-.27,.36-.28,.11,0,.22,.02,.31-.07Z"/><path d="M111.63,1.07c-.12,.22-.43,.05-.59,.32,.25,.19,.71-.06,.85,.35-.75,0-1.5-.05-2.24,.14-.73,.19-1.44,.43-1.92,1.07-.12,.28-.21,.57-.37,.84-.28,.49-.37,1.02-.13,1.58,.09,.2,.3,.41,.09,.67-.02,0-.05,0-.07-.01q-.44-.23-.47,.28c-.24-.03-.27-.19-.27-.39,0-.76,0-1.52,0-2.28,0-.13,0-.27,.1-.38,.58-.54,1.02-1.21,1.83-1.5,1.03-.37,2.06-.67,3.16-.69Z"/><path d="M107.34,6.04c.07-.34-.21-.57-.33-.83-.24-.53,0-.97,.17-1.38,.12-.29,.28-.65,.56-.88,0,.09,0,.18,0,.27,.03,.03,.04,.07,.04,.1,0,.04,0,.06-.02,.06h0c-.12,.03-.09,.17-.17,.24h0c-.06,.06-.11,.12-.11,.21v.04s-.02,.03-.02,.03c-.08,.09-.07,.22-.11,.32-.07,.83,.14,1.59,.56,2.29,.22,.37,.48,.68,.85,.92,.68,.44,1.24,1.02,1.59,1.77,.56,1.2,.33,2.33-.33,3.42-.06,.05-.11,.1-.11,.18,0,.04,0,.07-.05,.08-.03,.05-.07,.1-.1,.14,0,0,0,0,0,0-.14-.09-.11-.21-.05-.34,.1-.19,.19-.39,.17-.61,.18-.09,.27-.23,.27-.43,0-.58,.07-1.17-.02-1.74-.12-.74-.5-1.39-1.11-1.84-.55-.4-.93-.95-1.43-1.38-.21-.18-.27-.39-.25-.65Z"/><path d="M119.42,15.16s-.1,.09-.13,.14c-.11,.16-.21,.39-.43,.31-.2-.07-.09-.31-.11-.47-.02-.17,0-.35,0-.52q.04-.59,.58-1.04c.18,.54,.06,1.07,.1,1.58Z"/><path d="M118.63,13.79c-.01-.09-.03-.18-.04-.27,0-.69,0-1.39,0-2.08,.01-.09,.03-.17,.04-.26,.09-.05,.1,.01,.1,.07,0,.72,0,1.45,0,2.17,0,.13,.01,.27-.11,.36Z"/><path d="M113.24,1.34c-.28,0-.56,0-.84,0-.25,0-.47-.07-.63-.27,.51,0,1,.09,1.48,.27Z"/><path d="M108.61,2.7c-.04,.08-.1,.12-.19,.12,.04-.08,.11-.11,.19-.12Z"/><path d="M108.42,2.82c-.02,.06-.06,.1-.13,.1,.04-.03,.09-.06,.13-.1Z"/><path d="M108.2,2.97c-.03,.08-.09,.12-.17,.14,.03-.08,.09-.13,.17-.14Z"/><path d="M108.03,3.1c-.02,.08-.07,.12-.14,.14,.02-.08,.07-.12,.14-.14Z"/><path d="M107.77,3.38c0-.05-.01-.11-.02-.16,.05,0,.1,0,.15,.01-.01,.08-.05,.13-.13,.15Z"/><path d="M83.07,40.01c-.08-.06-.16-.12-.23-.18-.08-.15-.17-.28-.32-.38-.02,0-.05-.01-.07-.02-.04-.03-.08-.06-.11-.1-.06-.08-.13-.16-.19-.24-.05-.06-.09-.12-.14-.19-.1-.13-.17-.27-.24-.41-.04-.07-.07-.14-.11-.21-.03-.04-.05-.09-.07-.14-.04-.07-.08-.13-.13-.19-.1-.13-.17-.27-.24-.42-.03-.07-.06-.15-.1-.23-.03-.05-.06-.1-.09-.15-.05-.07-.09-.15-.12-.24-.96-1.78-1.98-3.53-2.98-5.29-.15-.27-.34-.53-.4-.84-.07-.25-.29-.44-.31-.71-.03-.05-.06-.09-.1-.12-.05-.06-.09-.12-.12-.19-.02-.04-.04-.08-.06-.12-.03-.06-.05-.12-.08-.18-.02-.04-.04-.08-.06-.12-.03-.06-.05-.12-.09-.17-.02-.04-.04-.08-.06-.12-.02-.04-.04-.08-.06-.12-.02-.04-.04-.08-.06-.12-.03-.06-.05-.12-.08-.17-.02-.04-.04-.07-.06-.11-.03-.06-.05-.12-.09-.17-.02-.04-.04-.07-.06-.11-.03-.06-.06-.12-.09-.17-.02-.04-.04-.08-.05-.12-.03-.06-.06-.12-.09-.17-.02-.04-.04-.08-.06-.12-.03-.06-.06-.12-.09-.18-.02-.04-.03-.08-.04-.13-.02-.06-.04-.13-.07-.19-.02-.04-.04-.08-.06-.12-.03-.06-.06-.12-.09-.18-.02-.04-.04-.08-.06-.13-.03-.06-.06-.13-.09-.19-.02-.04-.03-.09-.05-.13-.02-.07-.04-.13-.07-.2-.02-.04-.04-.09-.06-.13-.03-.06-.06-.13-.09-.19-.02-.04-.03-.09-.05-.13-.02-.07-.04-.13-.07-.2-.02-.04-.04-.08-.06-.13-.03-.07-.06-.13-.09-.19-.02-.04-.03-.09-.05-.14-.02-.07-.04-.14-.07-.2-.02-.04-.04-.09-.06-.13-.03-.07-.06-.13-.09-.2-.02-.04-.03-.09-.05-.14-.02-.09-.05-.18-.09-.27-.02-.04-.03-.09-.04-.14-.01-.1-.06-.19-.1-.27-.03-.05-.05-.09-.07-.14-.04-.07-.07-.15-.1-.23-.16-.39-.22-.81-.4-1.19-.03-.06-.05-.12-.07-.18-.04-.1-.06-.2-.07-.3-.68-2.24-1.19-4.51-1.45-6.83-.07-.61-.17-1.24-.04-1.86,0-.05,0-.09,0-.14-.18-.27-.19-.57-.18-.88,.16-2.27,.53-4.48,1.72-6.47,1.06-1.76,2.48-3.05,4.55-3.46,1.3-.26,2.59-.14,3.8,.42,1.32,.61,1.82,1.78,1.37,3.16-.12,.36-.26,.71-.48,1.03-.12,.17-.23,.34-.37,.49-.07,.07-.14,.14-.22,.2-.8,.51-1.46,1.16-1.85,2.04-.44,1-.19,1.95,.21,2.89,.03,.05,.05,.11,.08,.16,.02,.02,.03,.05,.05,.08,.03,.05,.07,.1,.1,.15,.03,.05,.06,.1,.09,.15,.09,.16,.2,.3,.3,.45,.37,.61,.86,1.16,.92,1.91,0,.17,0,.34,0,.5-.15,.8-.28,1.61-.8,2.27-.04,.05-.09,.1-.13,.14-.02,.02-.05,.04-.07,.07-.04,.05-.09,.09-.14,.13-.07,.07-.14,.13-.21,.19-.32,.25-.67,.45-1.03,.64-.05,.03-.11,.07-.17,.1-.08,.06-.16,.13-.23,.2-.2,.23-.15,.5-.14,.76,0,1.48-.06,2.96,.13,4.44,0,.22,0,.45,0,.67-.01,.22,.01,.44,.08,.65,.15,1.54,.34,3.07,.68,4.59,.03,.13,.04,.27,.09,.4,.02,.06,.04,.13,.05,.19,.03,.16,.07,.32,.12,.47,.65,2.59,1.67,5.04,2.81,7.44,.11,.28,.28,.53,.36,.82,.02,.11,0,.2-.07,.29-.22,.13-.4,.06-.54-.14Z"/><path d="M81.3,37.42c.13,.16,.24,.34,.29,.55,.04,.03,.07,.07,.08,.12,.02,.04,.04,.09,.06,.13,.03,.04,.06,.09,.09,.14,.14,.16,.26,.33,.31,.53,.04,.04,.07,.09,.1,.14,.09,.07,.16,.15,.17,.26,.04,.05,.07,.1,.11,.15,0,0,0,.01,0,.01-.1,.12-.17,.06-.27-.02-.57-.46-.9-1.09-1.17-1.74-.28-.67-.61-1.31-.97-1.93-.45-.78-.84-1.6-1.31-2.36-.4-.64-.65-1.36-1.14-1.94-.19-.22-.25-.46-.23-.74,.05-.07,.1-.06,.15,0,1.15,2.1,2.42,4.12,3.49,6.26,0,.07,.06,.13,.1,.18,.04,.02,.05,.05,.03,.09,0,.08,.05,.13,.1,.18Z"/><path d="M73.9,21.99s.02,.09,.03,.14c-.07,.07-.02,.21-.13,.27-.09-.02-.22-.03-.22-.12,.03-.5-.23-.93-.33-1.39-.11-.5-.24-1.01-.43-1.5-.14-.36-.16-.77-.22-1.16-.09-.56-.26-1.13-.33-1.68-.15-1.13-.34-2.28-.16-3.43,0-.04,.05-.07,.08-.1,.22,2.9,.75,5.74,1.6,8.52,.03,.08,.02,.18,.03,.26,0,.08,.05,.13,.08,.2Z"/><path d="M73.8,22.4c0-.11,.03-.21,.13-.27,.18,.42,.35,.84,.42,1.29,0,.07,.05,.12,.09,.18,.01,.04,.02,.09,.03,.13,.07,.08,.05,.19,.11,.27,.04,.03,.05,.07,.03,.12,.07,.08,.04,.21,.12,.29,.03,.02,.04,.05,.03,.09,.05,.1,.03,.23,.12,.31h0c.07,.07,.05,.19,.11,.27,.03,.03,.04,.06,.03,.11,.06,.09,.03,.22,.12,.3h0c.08,.07,.05,.19,.12,.27,.04,.03,.05,.06,.03,.1,.03,.05,.05,.11,.08,.16l.04,.14c.08,.07,.05,.19,.12,.27,.04,.02,.05,.05,.03,.09,0,.07,.06,.12,.09,.18,.04,.03,.05,.07,.03,.11,.06,.09,.04,.21,.13,.29h0c.07,.08,.05,.2,.13,.27l.03,.03v.04c-.01,.08,.04,.14,.09,.2,.04,.02,.05,.05,.03,.09,0,.07,.06,.13,.1,.18,.04,.03,.05,.06,.03,.1,.06,.09,.03,.23,.14,.3h0c.06,.08,.04,.2,.13,.27h0c.06,.08,.04,.2,.13,.27h0c.07,.08,.05,.2,.13,.27h0c.07,.08,.05,.2,.13,.27h0c.07,.08,.05,.2,.14,.27h0c.07,.08,.05,.2,.13,.27h0s.05,.06,.03,.09c-.01,.03-.03,.04-.04,.04-.26-.06-.42-.24-.51-.47-.21-.58-.58-1.09-.79-1.66-.3-.82-.78-1.54-1.03-2.39-.18-.65-.41-1.32-.76-1.92-.22-.38-.29-.77-.26-1.2Z"/><path d="M72.18,11.94c.04,.31,.04,.63,0,.94-.13-.05-.26-.1-.26,.13,0,.15,.02,.31-.13,.41-.35-.64-.12-1.34-.17-2.01-.02-.27-.02-.47-.37-.41,0-.09,0-.18,0-.27,0-.04-.01-.09,0-.13,.21-.67,.33-1.36,.28-2.06-.01-.17,.11-.28,.26-.35,.15,.23,.42,.35,.54,.61,.05,.82-.2,1.61-.17,2.43,0,.24-.08,.48,.03,.71Z"/><path d="M71.25,11c.2-.1,.17-.42,.5-.48,.08,.48,.03,.96,.04,1.44,.01,.49,0,.97,0,1.46,0,.13,.03,.28-.11,.35-.23,.12-.28-.15-.42-.22,0-.85,0-1.7,0-2.55Z"/><path d="M77.15,30.05s0-.09,.01-.14c.18,.24,.33,.5,.41,.8-.05,0-.1,0-.15,0-.24-.16-.29-.4-.28-.67Z"/><path d="M72.46,19.59c-.18-.08-.27-.21-.27-.4,.27,.01,.27,.21,.27,.4Z"/><path d="M71.52,15.43c-.22-.19-.1-.44-.13-.67,.22,.19,.1,.44,.13,.67Z"/><path d="M71.92,18.11c-.11-.06-.13-.16-.13-.27,.11,.06,.13,.16,.13,.27Z"/><path d="M71.66,16.37c-.11-.06-.13-.16-.13-.27,.11,.06,.13,.16,.13,.27Z"/><path d="M71.12,13.82c0-.11,.02-.21,.13-.27,0,.09,0,.18,0,.27-.04,0-.09,0-.13,0Z"/><path d="M72.19,18.65s-.09-.09-.13-.13c.04,.04,.09,.09,.13,.13Z"/><path d="M72.06,18.51s-.09-.09-.13-.13l.13,.13Z"/><path d="M115.12,27.1c0,.39-.13,.76-.3,1.08-.47,.89-.83,1.83-1.36,2.69-.32,.52-.65,1.06-.9,1.6-.49,1.06-1.24,1.97-1.7,3.06-.14,.33-.32,.76-.7,.97-.05,0-.1-.01-.16-.02,.2-.55,.53-1.02,.82-1.52,.77-1.37,1.55-2.74,2.32-4.11,.03-.05,.06-.1,.09-.14h0c.1-.05,.08-.18,.14-.26h0c.1-.06,.07-.19,.14-.27h0c.09-.06,.07-.19,.13-.27h0c.09-.06,.07-.19,.14-.26h0c.08-.07,.06-.19,.13-.27h0c.09-.07,.07-.19,.13-.27h0c.09-.06,.07-.19,.14-.27h0c.09-.06,.07-.19,.13-.27h0c.11-.06,.08-.19,.14-.28-.01-.05,0-.08,.04-.11,.03-.06,.08-.1,.09-.17-.01-.04,0-.07,.04-.1,.04-.06,.09-.11,.1-.18-.02-.04,0-.06,.03-.08,.07-.07,.04-.19,.12-.26h0c.08-.08,.06-.2,.13-.28h0c.05-.06,.1-.06,.14,0Z"/><path d="M115.66,27.77c0-.11,.03-.21,.13-.27,0,.11-.03,.21-.13,.27Z"/><path d="M116.2,26.43c0-.11,.03-.21,.13-.27,0,.11-.03,.21-.13,.27Z"/><path d="M109.86,36.74c.01-.11,.04-.21,.15-.27,.01,.12,0,.23-.15,.27Z"/><path d="M116.73,24.95s.09-.09,.13-.13c-.04,.04-.09,.09-.13,.13Z"/><path d="M116.06,26.56l.13-.13s-.09,.09-.13,.13Z"/><path d="M116.33,25.76s.09-.09,.13-.13c-.04,.04-.09,.09-.13,.13Z"/><path d="M116.46,25.62s.09-.09,.13-.13c-.04,.04-.09,.09-.13,.13Z"/><path d="M109.77,36.89c0-.08,.02-.13,.09-.16,0,.07-.03,.13-.09,.16Z"/><path d="M115.39,28.04s.09-.09,.13-.13c-.04,.04-.09,.09-.13,.13Z"/><path d="M104.12,59.96c-5.99,0-11.98,0-17.97,0-.1-.1-.23-.12-.37-.13-.28-.01-.61,.05-.7-.34-.08-.35-.07-.69,.2-.99,.27-.29,.64-.48,.86-.82h0c.1-.08,.21-.12,.34-.11,.13,.02,.24,.06,.26,.21-.04,.41-.41,.56-.62,.84-.22,.29-.19,.47,.17,.6,.51,.18,1.02,.28,1.57,.28,4.96,0,9.91-.02,14.87,0,.48,.04,.96-.07,1.43,.09,.21,.15,.1,.26-.05,.36Z"/><path d="M104.12,59.96c.05-.09,.09-.18,.14-.26,.01-.02,.03-.04,.04-.05q.89-.34,.64-1.29c0-.11,.04-.2,.12-.27,.27,.23,.53,.46,.73,.76,.38,.59,.19,1.02-.52,1.11-.24,.03-.49,0-.74,.01-.14,0-.27,0-.41,0Z"/><path d="M86.15,57.69c-.01,.43-.42,.56-.66,.8-.23,.24-.29,.47-.29,.77,0,.3,.1,.46,.42,.45,.21,0,.47-.07,.52,.26-.18,0-.36,0-.54,0-.11,0-.23,.01-.33,0-.54-.09-.75-.51-.49-.97,.32-.57,.76-1.02,1.36-1.3Z"/><path d="M72.19,8.59q-.39,.12-.4-.4c-.04-.46,.16-.82,.33-1.24,.19-.47,.37-.97,.59-1.44,.3-.65,.69-1.24,1.21-1.73,.59-.56,1.11-1.21,1.8-1.67,.06-.04,.07-.15,.11-.23,.72-.29,1.47-.49,2.22-.7,1.26-.34,2.45-.11,3.64,.27,.69,.22,1.31,.54,1.85,1.02,.59,.52,.91,1.14,.9,1.97,0,.79-.16,1.5-.48,2.21-.37,.84-.98,1.48-1.71,1.96-.34,.22-.37,.58-.65,.78,0,0,0,0,0,0-.28-.24-.54,.2-.82,.02-.17-.35,.12-.53,.3-.72,.45-.48,.95-.9,1.31-1.46,.02-.07,.06-.12,.14-.13,.17-.05,.21-.23,.32-.33,.68-.89,1.1-1.89,.59-2.96-.45-.94-1.29-1.51-2.33-1.74-2.71-.61-4.82,.39-6.61,2.38-.87,.98-1.36,2.13-1.85,3.31-.17,.23-.2,.53-.36,.76-.02,.02-.05,.04-.07,.06Z"/><path d="M89.23,49.9c-.27-.6-.69-1.07-1.21-1.48-.62-.97-1.42-1.8-2.15-2.68-.07-.07-.08-.15-.05-.25,.06-.08,.14-.11,.23-.1,.06,.01,.11,.04,.16,.08,.11,.14,.23,.26,.38,.36,1.02,.9,1.68,2.11,2.65,3.06,.19,.19,.36,.45,.37,.76,0,.1-.04,.19-.13,.26-.09,0-.18,0-.26,0Z"/><path d="M83.07,40.01c.16,.06,.33,.15,.51,.06-.15,.92,.02,1.75,.62,2.48,.08,.1,.04,.26-.05,.37-.09,.07-.19,.09-.29,0-.11-.02-.2-.05-.26-.17-.19-.37-.37-.75-.59-1.1-.3-.47-.37-.92,0-1.39,.05-.06,.04-.17,.06-.25Z"/><path d="M86.14,45.48c-.09,0-.18,0-.27,0-.64-.16-.8-.81-1.2-1.21,.01-.23-.29-.3-.27-.53-.07-.08-.12-.17-.12-.28,0-.11,.04-.2,.11-.28,.14-.06,.28-.04,.36,.08,.43,.67,.96,1.27,1.41,1.93,.07,.1,.07,.21-.01,.31Z"/><path d="M84.67,44.26c.22,0,.28,.18,.38,.32,.23,.34,.51,.63,.83,.89,0,.09,0,.18,0,.27-.51-.41-1.01-.82-1.2-1.48Z"/><path d="M84.4,43.46c0,.09,0,.18,0,.27-.41-.11-.43-.49-.54-.8,.09,0,.18,0,.27,0,.02,.02,.05,.03,.07,.05,.14,.13,.07,.35,.19,.49Z"/><path d="M102.38,10.46c.17,0,.34,0,.51,0,.17,0,.28,.08,.3,.26-.17,.19-.39,.18-.61,.19-4.52,.02-9.03,.02-13.55,0-.26-.02-.54,.03-.74-.2,.03-.14,.09-.25,.26-.25,.2,0,.4,0,.6,0,4.41,0,8.82,0,13.24,0Z"/><path d="M88.29,10.73c.23,0,.45,0,.68,0,.15,.27-.06,.35-.25,.41-.21,.06-.43,.04-.64,.11-1.59,.1-3.11,.48-4.59,1.08-.59,.24-1.02,.51-1.15,1.15-.03,.02-.05,.05-.08,.07-.35-.24-.54-.85-.37-1.19,.09-.18,.25-.15,.4-.15,.29,0,.57-.02,.78-.27,.9-.51,1.88-.81,2.83-1.2,.35,0,.71,0,1.06,0,.45,0,.89,0,1.34,0Z"/><path d="M102.64,56.35c0,.17,.1,.26,.27,.27,.08,.1,.06,.2-.01,.3-.53,.25-.85-.13-1.14-.44-.32-.34-.63-.69-.93-1.05-1.08-1.24-1.28-3.46-.41-4.87,.28-.45,.46-.97,.9-1.31,.14-.06,.28-.1,.43-.01,.09,.14,.08,.28-.03,.4h0c-.09,.09-.18,.18-.26,.28,0,.09,0,.17,0,.26-.34,.05-.37,.36-.48,.59-.31,.63-.61,1.25-.61,2,0,.91,.31,1.69,.89,2.35,.33,.37,.57,.87,1.14,.97,0,0,0,0,0,0,.09,.09,.18,.18,.27,.27Z"/><path d="M101.71,49.23c-.09,.04-.18,.09-.27,.13-.17-.51,.24-.77,.48-1.08,.85-1.1,1.84-2.07,2.7-3.15,.6-.75,1.1-1.57,1.72-2.3,.16-.09,.26-.22,.34-.38,.03-.05,.06-.1,.09-.15,.08-.11,.14-.24,.2-.37,.02-.05,.05-.1,.09-.14,.07-.08,.13-.18,.18-.28,.02-.05,.05-.11,.08-.16,.2-.28,.13-.57,0-.86-.02-.06-.03-.12-.03-.18,.02-.1,.1-.15,.18-.19,.04-.01,.08-.03,.13-.04,.05-.04,.09-.03,.13,.01,.37,.69,.22,1.3-.21,1.91-.26,.37-.48,.78-.71,1.17-.24,.23-.3,.58-.54,.81h0c-.08,.07-.06,.2-.14,.27h0c-.08,.07-.06,.2-.14,.27,0,0,0,0,0,0-.45,.18-.58,.67-.93,.94-.31,.33-.52,.73-.81,1.07,0,.17-.09,.26-.27,.27-.09,.09-.18,.17-.27,.27h0c-.09,.09-.18,.18-.27,.27-.01,.17-.1,.26-.27,.27-.35,.45-.73,.87-1.06,1.34-.1,.14-.21,.29-.42,.27Z"/><path d="M106.27,44c.11-.32,.13-.69,.54-.81-.1,.32-.12,.69-.54,.81Z"/><path d="M106.13,44.27c0-.11,.03-.21,.14-.26,0,.11-.03,.21-.14,.26Z"/><path d="M106,44.54c0-.11,.02-.21,.14-.27,0,.11-.02,.21-.14,.27Z"/><path d="M107.73,40.11s-.09,0-.13-.01c.02-.06,.06-.1,.13-.09,.01,.03,.01,.07,0,.1Z"/><path d="M103.72,57.14c.17,0,.35,0,.52,0,0,.23,.3,.29,.28,.53-.02,.02-.05,.04-.07,.07-.4,.03-.68-.11-.79-.52,.02-.03,.04-.05,.05-.08Z"/><path d="M105.06,58.09c0,.09,0,.18,0,.27-.43-.02-.66-.2-.54-.67,0,0,0,0,0,0,.32-.05,.43,.17,.53,.41Z"/><path d="M86.41,57.68c-.09,0-.18,0-.27,0,0-.09,0-.18,0-.27,.09,0,.18,0,.27,0,.08,.09,.08,.18,0,.26Z"/><path d="M90.3,53.79c0-.36,0-.71,0-1.07,0-.46,.07-.93-.24-1.35-.07-.09-.03-.26-.04-.39,.03-.02,.07-.04,.1-.05,.87,.6,1.03,2.37,.27,2.92-.03-.02-.07-.04-.1-.05Z"/><path d="M89.23,55.53c.08-.37,.52-.53,.54-.93,.18-.15,.25-.35,.27-.57,.02-.16,.11-.22,.26-.24,0,0,0,0,0,0,.21,.68-.28,1.58-1.04,1.91-.07-.04-.09-.1-.04-.17Z"/><path d="M89.49,49.91c0-.09,0-.18,0-.28,.57,.03,.67,.18,.57,.78-.1,.09-.2,.11-.31,.02-.17-.14-.25-.32-.27-.53Z"/><path d="M89.77,50.44c.09,0,.18,0,.27,0,.02,.02,.05,.05,.07,.07,.08,.17,.06,.32-.06,.46,0,0,0,0,0,0-.35-.05-.24-.33-.27-.54Z"/><path d="M101.71,49.23c.39-.47,.79-.93,1.17-1.41,.09-.11,.17-.2,.31-.2-.02,.11,0,.24-.07,.32-.46,.53-.91,1.07-1.29,1.66-.02,.03-.08,.02-.13,.03,0-.13,0-.27,0-.4Z"/><path d="M103.45,47.36c0-.18,.09-.27,.27-.27,0,.09,0,.18,0,.27-.09,0-.18,0-.26,0Z"/><path d="M101.44,49.91c0-.18,.09-.27,.26-.27,0,.18-.09,.27-.26,.27Z"/><path d="M109.21,13.81c-.17,.32-.33,.63-.5,.95-.1,.06-.16,.21-.32,.13-.06-.08-.06-.17-.04-.27,.13-.24,.17-.51,.25-.76,.1-.15,.21-.29,.4-.35,.03,0,.06,.02,.08,.03,0,.11,.02,.21,.13,.26Z"/><path d="M109.08,13.28s.09,0,.13,0c0,.11-.02,.21-.13,.27,0,0,0,0,0,0-.07-.06-.08-.13-.05-.21,.02-.02,.04-.04,.05-.06Z"/><path d="M109.22,13.28c0-.11,.03-.21,.13-.27,0,.11-.02,.21-.13,.27Z"/><path d="M109.31,13.69s-.06,.08-.09,.12c.03-.04,.06-.08,.09-.12Z"/><path d="M109.5,13.42c0,.08-.05,.14-.13,.17,0-.08,.05-.14,.13-.17Z"/><path d="M104.26,46.55c.11-.48,.37-.84,.81-1.07-.19,.42-.29,.9-.81,1.07Z"/><path d="M103.72,47.09c0-.18,.09-.27,.27-.27,0,.17-.1,.26-.27,.27Z"/><path d="M85.89,10.74c-.03,.08-.03,.19-.13,.22-.94,.22-1.78,.71-2.7,.99-.09,0-.18,0-.27,0,.7-.31,1.41-.6,2.1-.94,.32-.16,.62-.33,1-.26Z"/><path d="M82.37,7.23c-.04,.37-.24,.62-.5,.89-.39,.4-.93,.68-1.09,1.27,.13,.48-.25,.9-.15,1.39,.07,.34,0,.7,.15,1.03,0,.04,0,.09,0,.13,.08,.15,.09,.35,.28,.44,.04,.05,.07,.1,.08,.17,0,.15,.04,.34-.21,.32-.04-.01-.05-.03-.03-.07,0-.09-.06-.14-.12-.19h0s-.07-.08-.09-.13c-1.36-2.38,0-4.38,1.69-5.25Z"/><path d="M80.78,11.81c-.4-.66-.34-1.34-.12-2.04,.04-.13,.08-.25,.12-.38,.17,0,.25-.17,.38-.22,.21-.09,.39-.06,.42,.22-.24,.1-.28,.31-.27,.54-.52,.06-.53,.06-.53,.5,0,.46,0,.92,0,1.37Z"/><path d="M81.32,12.34s0,.09,0,.13c.07,.08,.07,.17,.03,.27-.27,.1-.19-.19-.3-.27h0c-.07-.09-.08-.18,0-.27,.02-.28-.04-.57,.06-.89,.23,.05,.34,.22,.47,.35-.15,.2-.46,.33-.27,.67Z"/><path d="M81.32,12.34c-.23-.48-.19-.58,.27-.67,0,0,0,0,0,0,.07,.09,.2,.05,.27,.13,.04,0,.08,0,.13,0,0,.05,0,.09,0,.14-.3,0-.64-.04-.67,.4Z"/><path d="M81.05,12.21c0,.09,0,.18,0,.27-.24-.1-.28-.31-.27-.54,.09,.09,.18,.18,.27,.27Z"/><path d="M81.85,11.8c-.11,0-.21-.03-.27-.13,.11,0,.21,.03,.27,.13Z"/><path d="M82.25,14.09c0-.18,0-.36,0-.53,0,0,0,0,0,0,.22-.13,.32,.03,.42,.18,.49,.73,.43,3.26-.1,3.99-.07,.09-.16,.15-.28,.16-.24-.16-.21-.41-.22-.64,0-.11,.03-.23,.06-.34,.31-.83,.28-1.66,.04-2.5-.03-.11,0-.22,.07-.31Z"/><path d="M82.25,14.09c0,.09,0,.18,0,.26,.11,.29,.29,.59-.11,.8-.11-.73-.6-1.27-.95-1.88,.06-.09,0-.24,.14-.3,.22-.01,.14,.22,.25,.3h0c.07,.08,.05,.2,.14,.27,.23,.13,.18,.53,.53,.54Z"/><path d="M81.59,13.28c-.09-.09-.18-.18-.27-.27-.07-.09-.09-.18,0-.26,0-.09,0-.18,0-.27,.26,.21,.28,.5,.27,.8Z"/><path d="M81.72,13.55c-.11-.05-.13-.16-.14-.27,.11,.06,.13,.16,.14,.27Z"/><path d="M102.64,10.74c.18,0,.37,0,.55,0,.62,0,1.24,0,1.87,0,.39,.2,.85,.2,1.21,.47,.14,.1,.34,.14,.32,.37-.03,.07-.08,.12-.15,.15-1.1-.4-2.27-.38-3.4-.56-.22-.04-.53-.05-.4-.43Z"/><path d="M106.54,11.53c-.33-.31-.76-.42-1.18-.52-.17-.04-.29-.09-.3-.28,.31,0,.62,0,.93,0,.02,.28,.27,.31,.45,.42,.47,.27,1,.43,1.43,.78-.05,0-.09,0-.14,0-.09,.11-.21,.11-.33,.09-.11-.03-.22-.08-.32-.13-.1-.05-.2-.1-.3-.15-.1-.05-.18-.12-.25-.21Z"/><path d="M89.23,55.53s0,.09,0,.14c-.07,.51-.38,.73-.87,.73-.02-.02-.05-.04-.07-.07,.15-.46,.58-.59,.94-.81Z"/><path d="M87.48,56.87c0-.09,0-.17,0-.26,.13,0,.26,0,.39-.01,.02,.03,.04,.05,.06,.08,0,.29-.16,.31-.39,.25-.02-.02-.05-.04-.07-.07Z"/><path d="M87.89,56.61c.02-.27,.21-.27,.4-.27,0,0,0,0,0,0,.08,.1,.07,.2,0,.3-.14,.09-.28,.07-.4-.03h0Z"/><path d="M107.34,11.94c.13,0,.27,0,.4,0,.23,.19,.5,.24,.79,.27,.51,.05,.54,.09,.55,.61,0,.15,0,.31,0,.46,0,0,0,0,0,0-.15,.07-.17,.4-.45,.25-.1-.13-.12-.29-.11-.45,.02-.35-.14-.53-.48-.6-.28-.06-.56-.16-.72-.44,0-.03,.01-.06,.02-.1Z"/><path d="M86.41,57.68c0-.09,0-.18,0-.26,.04,0,.09,0,.13,0,.09-.09,.18-.17,.27-.26,.16-.24,.4-.3,.67-.28,0,0,0,0,0,0,.17,.29-.1,.41-.22,.59-.18,.12-.31,.39-.59,.21-.09,0-.18,0-.27,0Z"/><path d="M86.82,57.15c0,.18-.1,.26-.27,.26,.01-.17,.1-.26,.27-.26Z"/><path d="M102.91,56.88c0-.09,0-.18,0-.27,.13,0,.26,0,.4,0,0,.09,0,.17,.01,.26-.02,.02-.04,.04-.07,.07-.09,.04-.18,.04-.27,0-.02-.02-.05-.04-.07-.06Z"/><path d="M102.64,56.35c-.17,0-.26-.09-.27-.27,.18,0,.27,.09,.27,.27Z"/><path d="M103.32,56.88c.19,0,.39,0,.4,.27,0,0,0,0,0,0-.26,.1-.49,.15-.4-.27h0Z"/><path class="cls-5" d="M95.68,78.31c1.47,0,2.95,0,4.42,0,.22,0,.45,0,.67,.03,.79,.11,1.21,.61,1.21,1.41,0,.42,0,.85,0,1.27,0,1.05-.49,1.56-1.55,1.6-.62,.03-1.25,.02-1.88,.02-2.39,0-4.78,0-7.17,0-.22,0-.45,0-.67-.03-.95-.13-1.45-.71-1.46-1.67,0-.38,0-.76,0-1.14,0-.79,.48-1.35,1.26-1.47,.29-.04,.58-.05,.87-.05,1.43,0,2.86,0,4.29,0,0,0,0,.01,0,.02Z"/><path class="cls-5" d="M95.18,89.45c1.09,0,2.19,0,3.28,0,.16,0,.31,0,.47,.03,1.08,.17,1.44,.6,1.44,1.71,0,.45-.02,.89,0,1.34,.02,.43-.18,.72-.53,.93-.43,.26-.88,.43-1.39,.43-2.23,0-4.47,0-6.7,0-.57,0-.65-.09-.66-.66,0-1.05,0-2.1,0-3.15,0-.6,.01-.61,.6-.61,1.16,0,2.32,0,3.48,0,0,0,0,0,0-.01Z"/><path class="cls-2" d="M95.26,68.1c-1.2,0-2.41,0-3.61,0-.54,0-.66-.17-.58-.7,.05-.29,.21-.35,.46-.35,.51,0,1.03,0,1.54,0,1.85,0,3.7,.02,5.55,.03,.31,0,.62,.03,.92,.12,.16,.05,.28,.13,.31,.31,.03,.21-.1,.32-.27,.41-.33,.16-.69,.14-1.05,.14-1.09,0-2.18,0-3.28,0,0,.02,0,.03,0,.05Z"/><path class="cls-6" d="M156.15,121.68c-.24,0-.49,.01-.73,0-.2-.01-.33-.13-.33-.34,0-.2,.09-.35,.3-.37,.53-.07,1.06-.07,1.59,0,.21,.03,.3,.18,.29,.38,0,.21-.12,.34-.32,.35-.27,.01-.53,0-.8,0Z"/><path class="cls-13" d="M156.17,119.43c-.27,0-.53,.01-.8,0-.16,0-.3-.09-.29-.29,0-.15,.08-.25,.23-.27,.57-.09,1.15-.08,1.72,.01,.15,.02,.22,.13,.23,.28,0,.21-.14,.27-.3,.27-.26,.01-.53,0-.8,0,0,0,0,0,0,0Z"/><path class="cls-11" d="M110.15,34.6c.47-1.51,.96-3.02,1.25-4.58,.65-3.49,.86-7,.75-10.54-.01-.35-.11-.57-.45-.73-.46-.22-.9-.5-1.34-.76-.45-.26-.72-.66-.85-1.16,0-.02,0-.04-.02-.06-.48-1.14-.31-2.16,.52-3.1,.47-.54,.78-1.19,1-1.88,.44-1.4,.17-2.64-.75-3.77-.33-.4-.71-.75-1.14-1.03-.8-.53-1.11-1.33-1.21-2.21-.08-.73,.34-1.24,.96-1.55,1.29-.64,2.64-.77,4.03-.33,1.19,.38,2.13,1.11,2.9,2.07,1.12,1.4,1.7,3.02,2,4.76,.4,2.32,.2,4.63-.2,6.93-.94,5.38-2.99,10.36-5.62,15.11-.55,1-1.13,1.97-1.7,2.96-.12,.02-.19,0-.14-.14Z"/><path d="M111.25,27.14c0,.12-.02,.24-.03,.37-.13,.22,.01,.48-.11,.71,0,.08-.01,.15-.02,.23-.07,.07-.06,.16-.06,.25-.01,.15,.03,.3-.06,.44,0,.08-.02,.17-.02,.25-.09,.14-.03,.31-.1,.45l-.03,.22c-.08,.08-.05,.19-.06,.28,0,.05-.02,.1-.04,.14-.19,1.27-.62,2.46-1.01,3.67-.11,.34-.26,.66-.39,1-.17,.1-.14,.31-.24,.44-.11,.14-.2,.37-.45,.17-.12-.53,.3-.9,.4-1.37,.11-.52,.34-1.01,.48-1.52,.16-.32,.2-.67,.28-1,.18-.68,.34-1.37,.48-2.06,.19-.95,.23-1.93,.59-2.85,.08-.13,.18-.32,.35-.24,.15,.07,.09,.27,.04,.42Z"/><path d="M118.48,14.76c.23,.42,.11,.86,.08,1.29-.06,.79-.25,1.57-.34,2.36-.05,.4-.23,.76-.33,1.13-.24,.88-.29,1.81-.74,2.64-.3,.55-.46,1.17-.57,1.79-.02,.13-.13,.16-.25,.18-.08-.07-.06-.16-.06-.25,0-.06,.02-.12,.06-.16,.01-.04,.02-.09,.03-.13,.04-.06,.09-.11,.09-.19,.02-.07,.03-.14,.05-.21,.03-.06,.08-.11,.08-.18,.31-1.09,.64-2.18,.93-3.27,.37-1.38,.6-2.79,.86-4.19,.1-.18,0-.39,.1-.57,0-.08,.01-.15,.02-.23Z"/><path d="M111.51,19.33c.11,.07,.11,.18,.11,.29,.03,1.3,.03,2.6-.02,3.91,0,.13-.05,.26-.08,.38-.18-.04-.42,0-.44-.28-.03-1.16-.09-2.32,.03-3.47,.46-.12,.09-.64,.4-.83Z"/><path d="M107.47,40.14c-.04,.08-.09,.16-.13,.24-.49,.13-.55-.28-.63-.56-.21-.73,.01-1.39,.43-1.99,.17-.16,.28-.35,.32-.59,.03-.1,.07-.19,.15-.26,.1-.05,.19-.04,.29,0,.07,.08,.1,.17,.11,.27,0,.36-.23,.66-.27,1.01-.02,.06-.04,.12-.07,.17-.19,.36-.25,.75-.31,1.14,.03,.18-.34,.45,.11,.55Z"/><path d="M116.32,23.88c0,.09,.01,.18,.02,.27,.14,.49-.22,.87-.31,1.31-.13,.61-.49,1.15-.89,1.64-.05,0-.09,0-.14,0,.33-.81,.65-1.61,.98-2.42,.03-.06,.08-.1,.09-.17,.02-.08,.04-.15,.06-.23,.02-.05,.05-.1,.08-.15,.02-.08,.05-.16,.07-.24h.06Z"/><path d="M108.68,35.82c.2-.1,.36-.24,.41-.47,.03-.13,.11-.17,.23-.19-.28,.88-.63,1.73-1.05,2.55-.05,.05-.1,.11-.1,.19,.01,.03,0,.06-.03,.07-.08,.07-.05,.2-.12,.27-.02,.04-.03,.09-.05,.13-.02,.05-.05,.1-.09,.14h0c-.1,.07-.07,.19-.13,.28,0,.04,0,.08-.04,.1-.34-.11-.2-.33-.11-.53h0c.14-.38,.36-.72,.4-1.14,0-.23,0-.45,.23-.59,.31-.16,.25-.51,.38-.76,.02-.02,.04-.04,.07-.06Z"/><path d="M109.18,17.56c.29,.48,.73,.8,1.2,1.09,.2,.12,.4,.26,.6,.39,.03,.17,.13,.35-.09,.47-.62-.23-1.1-.67-1.6-1.07-.21-.38-.55-.7-.54-1.18,.02-.06,.06-.11,.13-.13,.11,.01,.16,.09,.19,.18,.03,.03,.04,.07,.03,.12,.03,.05,.06,.1,.09,.14Z"/><path d="M111.25,27.14c-.01-.1,.01-.25-.05-.3-.1-.08-.14,.1-.24,.13-.37-.76-.14-1.55-.14-2.33,.11-.19,.07-.53,.45-.46,.18,.51,.1,1.03,.06,1.55-.02,.24-.07,.47,.02,.71,.01,.24,.04,.49-.1,.71Z"/><path d="M111.35,26.42c-.18-.18-.11-.42-.11-.63,0-.55,0-1.1,0-1.65-.08-.09-.07-.18,0-.26,.1-.04,.24-.35,.29,.04,.03,.84-.05,1.68-.17,2.51Z"/><path d="M108.93,17.17s-.08,0-.12,0c-.59-.46-.77-1.49-.4-2.28,.1-.04,.2-.08,.29-.13-.02,.09-.03,.17-.05,.26-.08,.27-.08,.53,0,.8,.1,.4,.27,.78,.3,1.19,.05,.06,.04,.11-.03,.15Z"/><path d="M110.96,19.45c.05-.14-.16-.28,.02-.41,.2,.05,.39,.13,.53,.3,0,.21,.02,.43-.02,.64-.05,.36-.17-.01-.26,.01-.02-.02-.04-.04-.07-.06-.08-.12-.11-.27-.18-.4,0-.03-.02-.06-.02-.08Z"/><path d="M107.61,38.37c.02,.18-.06,.38,.11,.53-.05,.2-.15,.38-.27,.55-.04,.04-.07,.09-.1,.14,0,0,0,0,0,0-.06-.02-.12-.05-.18-.07,.21-.36,.01-.87,.43-1.15Z"/><path d="M108.67,15.82c-.18-.26-.18-.53,0-.8,0,.27,0,.53,0,.8Z"/><path d="M111.11,28.21c.01-.24-.1-.5,.11-.71,.02,.24,.02,.49-.11,.71Z"/><path d="M110.15,34.6s.09,.09,.14,.14c.02,.12-.08,.18-.13,.27-.06,.06-.12,.06-.17,0,.02-.15,.03-.3,.16-.41Z"/><path d="M110.97,29.13c0-.19,0-.37,0-.56,.04-.04,.08-.04,.12,0,.02,.2,0,.39-.11,.56Z"/><path d="M118.46,14.98c0,.2,.08,.41-.1,.57-.01-.2-.02-.4,.1-.57Z"/><path d="M109.99,35c.06,0,.11,0,.17,0-.04,.09-.09,.18-.13,.27-.05,.06-.1,.05-.15,0,0-.11,0-.21,.11-.28Z"/><path d="M109.88,35.28s.1,0,.15,0c-.04,.09-.09,.18-.13,.27-.05,.05-.1,.05-.14,0,0-.11,.02-.21,.13-.27Z"/><path d="M110.85,29.84c-.02-.16-.05-.33,.1-.45,.02,.16,.01,.32-.1,.45Z"/><path d="M109.75,35.55s.1,0,.14,0c-.03,.1-.09,.22-.19,.17-.1-.05-.02-.13,.05-.17Z"/><path d="M108.02,38.24c0-.11,.02-.21,.12-.27,0,.11-.04,.2-.12,.27Z"/><path d="M107.75,38.79c0-.12,0-.23,.13-.29,0,.12-.03,.22-.13,.29Z"/><path d="M107.61,3.62c0-.12,.04-.22,.17-.25-.02,.11-.07,.19-.17,.25Z"/><path d="M107.36,4.21c-.01-.13-.01-.24,.11-.32,0,.12-.01,.24-.11,.32Z"/><path d="M114.31,28.56c0,.12-.01,.22-.13,.28,0-.11,.02-.22,.13-.28Z"/><path d="M114.18,28.83c0,.12-.02,.22-.14,.27,0-.11,.04-.21,.14-.27Z"/><path d="M114.04,29.1c0,.11-.02,.22-.13,.27,0-.11,.03-.21,.13-.27Z"/><path d="M114.98,27.09c0,.11-.02,.21-.13,.28,0-.11,.03-.21,.13-.28Z"/><path d="M113.91,29.37c0,.11-.02,.21-.13,.27,0-.11,.04-.2,.13-.27Z"/><path d="M114.86,27.37c0,.11-.02,.2-.12,.26,0-.11,.04-.2,.12-.26Z"/><path d="M113.78,29.65c0,.11-.03,.21-.14,.26,0-.11,.05-.2,.14-.26Z"/><path d="M113.64,29.91c0,.11-.02,.22-.13,.27,0-.11,.03-.21,.13-.27Z"/><path d="M114.44,28.28c0,.12,0,.24-.14,.29,0-.12,.04-.22,.14-.29Z"/><path d="M108.93,17.17c0-.05,.02-.1,.03-.15,.08,.08,.11,.17,.1,.28-.04-.04-.08-.09-.13-.13Z"/><path d="M110.7,30.32c0-.11,.02-.21,.12-.27-.01,.09-.03,.18-.04,.27-.03,0-.06,0-.08,0Z"/><path d="M113.51,30.18c0,.12-.02,.22-.14,.27,0-.11,.04-.21,.14-.27Z"/><path d="M113.37,30.44c0,.12-.02,.22-.14,.27,0-.11,.04-.21,.14-.27Z"/><path d="M108.17,37.89c0-.08,.03-.15,.1-.19,0,.08-.03,.15-.1,.19Z"/><path d="M116.04,24.5c-.03,.06-.06,.12-.09,.17-.01-.08,.02-.13,.09-.17Z"/><path d="M107.88,38.51s.06-.09,.09-.14c0,.07-.03,.11-.09,.14Z"/><path d="M107.35,39.59c0-.07,.04-.12,.1-.14,0,.08-.03,.12-.1,.14Z"/><path d="M116.18,24.12c-.03,.05-.05,.1-.08,.15-.02-.07,.02-.12,.08-.15Z"/><path d="M116.32,23.88s-.06,0-.06,0c-.02-.07,.02-.11,.07-.14,0,.05,0,.1-.01,.14Z"/><path d="M116.44,23.41c-.03,.06-.06,.13-.09,.19-.01-.08,.02-.15,.09-.19Z"/><path d="M116.58,23.02c-.03,.06-.06,.12-.08,.18-.01-.08,.02-.14,.08-.18Z"/><path d="M107.49,3.82c0-.09,.04-.15,.11-.2,0,.09-.04,.15-.11,.2Z"/><path d="M109.18,17.56s-.06-.1-.09-.14c.06,.03,.09,.08,.09,.14Z"/><path d="M110.7,30.32s.06,0,.08,0c.03,.07,0,.12-.07,.16,0-.05-.01-.11-.02-.16Z"/><path d="M113.24,30.71s-.06,.1-.09,.14c0-.07,.03-.12,.09-.14Z"/><path d="M114.57,28c-.03,.06-.06,.11-.09,.17,0-.08,.03-.13,.09-.17Z"/><path d="M111.08,28.57s-.08,0-.12,0c.04-.04,.08-.09,.13-.13,0,.04,0,.09-.01,.13Z"/><path d="M114.7,27.72c-.03,.06-.06,.12-.1,.18,0-.08,.03-.14,.1-.18Z"/><path d="M109.76,13.02c0-.07,.04-.12,.1-.14,0,.08-.03,.12-.1,.14Z"/><path d="M109.91,12.8c0-.09,.04-.14,.11-.18,0,.09-.03,.15-.11,.18Z"/><path d="M107.34,37.83c-.62,.94-.7,1.73-.31,2.33,.08,.12,.16,.21,.31,.22,0,0,0,0,0,0,.15,.36,.21,.72,0,1.07,0,.04,0,.09,0,.13-.09,.09-.18,.18-.27,.27-.14,.15-.13,.38-.27,.54h0c-.15,.15-.18,.36-.27,.54-.12,.01-.21,.05-.27,.16-.77,1.24-1.68,2.38-2.65,3.47-.7,.79-1.44,1.55-2.02,2.45-.07,.11-.15,.22-.15,.36-.37,.17-.4,.59-.63,.87-.86,1.05-.75,2.31-.7,3.55,.01,.33,.16,.67,.37,.91,.6,.7,1.11,1.48,1.87,2.03,.19,.14,.36,.14,.56,.15,.42,.36,.89,.64,1.34,.96,.18,.13,.34,.28,.49,.44,.24,.26,.25,.56,.15,.87-.11,.32-.38,.38-.69,.41-.48,.05-.98-.14-1.43,.13-5.11,0-10.22,0-15.33,.01-.57,0-1.04-.3-1.58-.38-.3-.04-.35-.36-.11-.63,.22-.25,.47-.48,.72-.7,.11-.09,.2-.17,.21-.32,.23,.02,.3-.29,.54-.27,.39-.15,.64-.53,1.04-.67,1.29-.82,2.15-1.95,2.49-3.45,.24-1.06-.08-2-.71-2.85,0,0,0,0,0,0,.04-.41-.13-.69-.54-.81-.19-.48-.5-.87-.88-1.21-.43-.39-.75-.86-1.08-1.34-.31-.46-.73-.82-1.13-1.2-.1-.13-.16-.28-.27-.4,0,0,0,0,0,0-.23-.54-.7-.9-1.01-1.39-.13-.2-.29-.39-.4-.61-.07-.14-.15-.28-.34-.28-.11-.07-.17-.19-.27-.27,0,0,0,0,0,0,.05-.33-.17-.53-.35-.75-.33-.41-.49-.85-.47-1.39,0-.29,.31-.44,.27-.72,0-.07,0-.14,0-.22,.07-.04,.26,.2,.23-.1,.06-.27,.06-.53-.06-.78-.32-.65-.46-1.37-.83-2.01-.85-1.87-1.57-3.78-2.07-5.78-.3-1.19-.56-2.4-.71-3.6-.18-1.38-.47-2.77-.35-4.19,.06-.75,0-1.52,.02-2.28,.02-.69,.21-1.3,.78-1.78,.58-.48,.98-1.16,1.68-1.51,.38-.38,.48-.88,.52-1.38,.05-.6,.02-1.2,.01-1.8,0-.35-.29-.92-.53-1.12-.13-.86,.37-1.12,.99-1.32,.59-.19,1.19-.33,1.73-.64,.34-.2,.73-.25,1.08-.27,.66-.04,1.31-.23,1.97-.17,.68-.06,1.35-.21,2.05-.2,3.73,0,7.47-.06,11.2,.03,1.78,.05,3.6,.13,5.29,.87,.07,.03,.14,.06,.22,.08,.13,.06,.27,.12,.41,.16,.18,.08,.35,.18,.54,.26,.9,.35,.98,.52,.65,1.42-.04,.11-.04,.22-.05,.33,.04,.42-.27,.75-.27,1.16,0,1.56,.38,2.93,1.78,3.84,.13,.08,.24,.2,.36,.3,.05,.05,.1,.11,.13,.18,.51,.63,.59,1.36,.56,2.14-.03,.69,.06,1.39-.02,2.08-.15,1.29-.22,2.6-.45,3.89-.13,.69-.22,1.4-.32,2.1-.2,1.39-.56,2.73-1.09,4.04-.32,.8-.59,1.63-.93,2.43-.12,.29-.27,.56-.46,.81,0,.09,0,.18,0,.27-.18,.13-.16,.37-.27,.54Z"/><path class="cls-16" d="M80.38,34.48c-3.38-5.57-6.08-11.42-7.21-17.9-.34-1.96-.53-3.94-.31-5.94,.19-1.71,.61-3.34,1.52-4.81,.95-1.54,2.22-2.68,4.04-3.08,1.17-.25,2.31-.1,3.39,.42,.97,.47,1.28,1.19,.95,2.21-.21,.67-.54,1.25-1.17,1.66-.84,.55-1.47,1.3-1.81,2.26-.44,1.23-.15,2.37,.42,3.48,.25,.48,.57,.91,.89,1.34,.48,.64,.62,1.32,.35,2.08-.07,.21-.12,.43-.18,.65-.12,.48-.39,.85-.81,1.11-.44,.27-.87,.55-1.33,.77-.35,.17-.49,.38-.49,.77-.03,1.36-.06,2.73,.02,4.09,.13,2.46,.37,4.9,.91,7.31,.26,1.15,.64,2.27,.96,3.41,.06,.16-.02,.19-.16,.17Z"/><path d="M72.46,7.78c.29-.5,.4-1.08,.65-1.6,.66-1.39,1.76-2.36,2.92-3.3,.3-.24,.67-.41,1.01-.61,1.06-.61,2.22-.6,3.38-.48,.63,.07,1.28,.13,1.83,.54,.46,.35,.84,.8,1.25,1.2,.11,.1,.09,.25,.1,.38,0,.11-.02,.25,.03,.33,.64,.97-.19,1.62-.5,2.39-.05,.12-.17,.21-.32,.21-.04-.02-.06-.05-.05-.08,.01-.03,.03-.04,.04-.04,.2-.47,.47-.9,.58-1.42,.22-1.06-.1-1.9-1.03-2.46-.95-.56-1.99-.77-3.08-.73-1.72,.06-3.13,.83-4.29,2.06-1.26,1.34-1.95,2.96-2.37,4.73-.24,1-.28,2.03-.41,3.05-.2-.18-.1-.42-.13-.63-.1-.91,.16-1.81,.13-2.72,.16-.24,.17-.54,.27-.8Z"/><path d="M79.34,25.39c-.04-.23-.07-.47-.03-.71,.03-1.31-.03-2.62,0-3.94,0-.22,0-.45,0-.67,0-.18,.04-.36,.26-.41,.09,0,.16,.04,.21,.11,.12,.23,.1,.47,.09,.72-.07,1.65-.14,3.31,.02,4.95,.1,1.07,.11,2.18,.45,3.23,.09,.3,.13,.61,.11,.93,0,.31-.08,.62,.11,.91,.04,.09,.05,.19,.02,.29-.06,.09-.14,.13-.25,.12-.1-.03-.15-.11-.19-.2-.29-.98-.41-1.98-.54-2.99-.08-.61-.18-1.22-.18-1.84-.06-.16,0-.34-.06-.51Z"/><path d="M80.25,30.86c.09,0,.17,0,.26,0,.02,.02,.05,.04,.07,.06,.12,.28,.12,.6,.3,.85,.1,.22,.23,.43,.29,.67,.07,.28-.02,.59,.16,.85,.03,.05,.06,.1,.08,.15,.07,.22,.1,.45,.22,.65,.03,.05,.05,.1,.06,.16,.03,.22,.12,.43,.24,.62,.02,.05,.04,.11,.05,.16,.02,.29,.15,.54,.3,.78,.03,.05,.05,.1,.07,.15,.04,.16,.08,.32,.2,.45,.03,.05,.06,.1,.08,.15,.06,.23,.12,.46,.24,.67,.03,.06,.05,.12,.07,.18,.11,.38,.29,.73,.42,1.1,.08,.23,.24,.5-.14,.64-1.2-2.34-2.12-4.79-2.83-7.31-.02-.08-.02-.18-.02-.26-.07-.15,0-.33-.12-.47-.03-.02-.04-.04-.02-.08-.04-.07-.03-.13,.03-.19Z"/><path d="M79.7,19.72c-.37,.07-.26,.37-.26,.59,0,1.25,0,2.5,0,3.74,0,.21,.07,.45-.12,.63-.21-1.66-.13-3.32-.13-4.99,0-.28,.07-.48,.38-.52,.04-.03,.09-.06,.14-.08,.04-.02,.08-.04,.12-.05,.26,.19,.24,.29-.12,.68Z"/><path d="M82.26,16.9c0,.09,0,.18,0,.27-.28,.7-.57,1.4-1.36,1.68-.36-.17,.03-.32,.01-.48,.03-.08,.09-.12,.17-.14,.02-.04,.05-.07,.09-.08,0-.03,.02-.05,.05-.05,0-.05,.04-.07,.08-.08,.52-.68,.61-1.53,.84-2.32,.46,.36,.21,.79,.11,1.21Z"/><path d="M83.21,39.17c.19-.2,.08-.38,0-.6-.16-.42-.45-.8-.42-1.28,.1-.07,.2-.07,.3,0,.24,.65,.5,1.29,.76,1.93,.09,.22,.12,.42,0,.63-.08,.44-.19-.1-.29,0-.17-.2-.28-.43-.36-.68Z"/><path d="M82.26,16.9c-.05-.4,.11-.82-.11-1.21,0-.18,0-.36,0-.54,.2-.24,.07-.54,.11-.8,.07,.06,.18,.11,.19,.18,.1,.75,.18,1.49-.06,2.23-.02,.06-.09,.1-.13,.15Z"/><path d="M80.9,18.37c.18,.2-.13,.26-.12,.41-.16,.54-.47,.9-1.07,.94,0,0,0,0,0,0-.05-.24,.3-.41,.12-.68,.36-.22,.72-.44,1.08-.67Z"/><path d="M81.31,12.75c0,.09,0,.18,0,.26,0,.11-.02,.2-.12,.26-.12-.12-.23-.24-.27-.4,.15-.1,.11-.26,.12-.4,.09,.09,.18,.18,.27,.27Z"/><path d="M80.81,35c.1,.06,.11,.16,.12,.26,.04,.06,.03,.11-.02,.16-.16-.1-.22-.25-.28-.41,.05-.08,.11-.08,.18,0Z"/><path d="M80.81,35c-.06,0-.12,0-.18,0-.05-.08-.14-.15-.13-.27,.05-.06,.06-.14,.15-.16,.11,.11,.14,.26,.16,.41Z"/><path d="M80.66,34.59c-.03,.07-.07,.14-.15,.16-.06-.08-.14-.15-.13-.27,.05-.06,.11-.12,.16-.17,.11,.07,.11,.18,.12,.29Z"/><path d="M82.79,6.72s0,.08,0,.12c-.02,.18-.11,.27-.29,.27,.06-.16,.15-.29,.28-.39Z"/><path d="M79.34,25.39c.14,.15,.1,.33,.06,.51-.1-.16-.1-.33-.06-.51Z"/><path d="M80.24,31.12c.17,.12,.13,.3,.12,.47-.12-.14-.13-.3-.12-.47Z"/><path d="M80.91,35.43c0-.05,.01-.11,.02-.16,.04,.05,.08,.1,.1,.16,.02,.06,.02,.15-.05,.15-.08,0-.08-.08-.07-.15Z"/><path d="M76.37,28.3c-.13-.06-.15-.17-.14-.3,.1,.07,.13,.18,.14,.3Z"/><path d="M75.94,27.37c-.11-.06-.13-.16-.13-.27,.09,.07,.13,.16,.13,.27Z"/><path d="M76.63,28.84c-.12-.06-.14-.16-.13-.27,.1,.07,.13,.16,.13,.27Z"/><path d="M75.82,27.1c-.12-.06-.14-.17-.13-.29,.1,.07,.13,.17,.13,.29Z"/><path d="M75.53,26.42c-.1-.06-.12-.16-.12-.27,.08,.07,.13,.16,.12,.27Z"/><path d="M75.26,25.75c-.1-.06-.12-.16-.12-.27,.08,.07,.13,.15,.12,.27Z"/><path d="M75.14,25.49c-.12-.07-.13-.18-.12-.3,.1,.07,.13,.18,.12,.3Z"/><path d="M74.99,25.08c-.1-.06-.12-.16-.11-.27,.08,.07,.13,.16,.11,.27Z"/><path d="M74.88,24.82c-.12-.07-.13-.19-.12-.31,.1,.08,.13,.19,.12,.31Z"/><path d="M76.76,29.11c-.11-.06-.14-.16-.13-.27,.1,.07,.13,.16,.13,.27Z"/><path d="M74.73,24.41c-.11-.07-.12-.17-.12-.29,.09,.07,.13,.17,.12,.29Z"/><path d="M74.58,24.01c-.1-.07-.11-.17-.11-.27,.08,.07,.12,.16,.11,.27Z"/><path d="M76.89,29.38c-.11-.06-.14-.16-.13-.27,.09,.07,.14,.16,.13,.27Z"/><path d="M77.03,29.64c-.11-.06-.14-.16-.14-.27,.1,.06,.14,.16,.14,.27Z"/><path d="M77.16,29.91c-.11-.06-.13-.16-.13-.27,.09,.07,.13,.16,.13,.27Z"/><path d="M76.5,28.57c-.12-.06-.14-.16-.13-.28,.11,.06,.13,.17,.13,.28Z"/><path d="M80.25,30.86c-.01,.06-.02,.13-.03,.19-.1-.09-.11-.2-.1-.32,.04,.04,.08,.09,.13,.13Z"/><path d="M81.3,37.42c-.07-.04-.1-.1-.1-.18,.07,.04,.1,.1,.1,.18Z"/><path d="M76.2,27.9c-.03-.06-.06-.12-.1-.18,.07,.04,.1,.1,.1,.18Z"/><path d="M81.67,38.09s-.05-.08-.08-.12c.05,.02,.09,.06,.08,.12Z"/><path d="M81.82,38.36s-.06-.09-.09-.14c.06,.03,.1,.07,.09,.14Z"/><path d="M82.23,39.03s-.07-.09-.1-.14c.07,.02,.11,.06,.1,.14Z"/><path d="M82.51,39.44s-.08-.1-.11-.15c.07,.02,.11,.07,.11,.15Z"/><path d="M76.07,27.63c-.07-.05-.1-.12-.1-.2,.07,.05,.11,.11,.1,.2Z"/><path d="M74.44,23.6c-.03-.06-.06-.12-.09-.18,.07,.04,.1,.1,.09,.18Z"/><path d="M73.9,21.99c-.03-.07-.06-.13-.08-.2,.07,.05,.1,.11,.08,.2Z"/><path d="M80.69,12.48s.06,.09,.09,.13c-.06-.02-.1-.06-.09-.13Z"/><path d="M79.7,19.09s-.09,.06-.14,.08c.03-.05,.07-.09,.14-.08Z"/><path d="M75.66,26.69c-.03-.06-.06-.12-.09-.18,.07,.04,.1,.1,.09,.18Z"/><path d="M81.17,18.15s-.06,.06-.09,.08c.03-.03,.06-.06,.09-.08Z"/><path d="M81.31,18.02s-.04,.07-.08,.08c0-.05,.03-.08,.08-.08Z"/><path d="M75.37,26.02c-.03-.05-.05-.11-.08-.16,.06,.03,.09,.09,.08,.16Z"/><path d="M81.16,37.15c-.07-.04-.1-.1-.1-.18,.07,.04,.11,.1,.1,.18Z"/><path d="M80.78,12.61c.08,.04,.12,.11,.12,.19-.08-.04-.11-.11-.12-.19Z"/><path d="M102.78,59.69c.03-.23,.19-.27,.39-.27,.33,0,.67,0,1,0,.25,0,.53-.04,.59-.32,.06-.27,.1-.56-.16-.8-.36-.33-.78-.57-1.17-.86-.22-.16-.45-.27-.52-.56,.13,0,.27,0,.4,0,.02,.26,.21,.27,.4,.27,.16,.34,.45,.49,.81,.54,.04,.33,.29,.5,.54,.67,0,.14,.13,.22,.18,.33,.31,.59,.06,1-.59,1.01-.13,0-.26,0-.39,0-.49,0-.99,0-1.48,0Z"/><path d="M72.46,7.78c.01,.3,0,.59-.27,.8,0-.3,.07-.57,.27-.8Z"/><path d="M86.14,45.48c.18,.07,.27,.21,.27,.4-.18-.07-.27-.21-.27-.4Z"/><path d="M84.13,42.93c.17,0,.26,.09,.27,.27,0,.09,0,.18,0,.27-.17-.14-.25-.32-.27-.54Z"/><path d="M106.8,12.07c-.13-.04-.26-.06-.38-.13-.71-.42-1.47-.63-2.3-.55-.13,.01-.28,.02-.4-.02-.84-.27-1.71-.25-2.58-.24-4.38,0-8.75,0-13.13,0,.15-.19,.37-.13,.56-.13,.19,0,.36-.03,.38-.27,4.56,0,9.12,0,13.68,0,.02,.11,.06,.24,.18,.24,.31,0,.61,.15,.91,.14,.99-.04,1.91,.15,2.81,.55,.02,0,.05,0,.07,0,.05,0,.09,.02,.14,.04,.04,.02,.08,.05,.11,.09,.02,.05,.03,.09,.02,.14-.01,.05-.04,.09-.08,.12Z"/><path d="M107.34,41.45c0-.36,0-.72,0-1.07,.37,.56,.37,.65,0,1.07Z"/><path d="M106.8,42.39c-.01-.23,.02-.43,.27-.54,.01,.23-.02,.44-.27,.54Z"/><path d="M106.53,42.93c-.01-.23,.03-.43,.27-.54-.02,.21-.09,.4-.27,.54Z"/><path d="M107.07,41.85c0-.17,.09-.26,.27-.27,0,.18-.09,.27-.27,.27Z"/><path d="M90.03,50.44c.59,.14,.69,.73,.75,1.13,.09,.58,.26,1.18,.08,1.83-.42,1.5-1.2,2.7-2.57,3.48-.08-.09-.08-.18,0-.27,0-.09,0-.17,0-.26,.45-.04,.69-.36,.93-.68,.6-.49,1.03-1.07,1.08-1.88,.08-.02,.19-.03,.22-.12,.26-.75,.27-1.5-.14-2.21-.1-.17-.02-.48-.35-.49,0-.18,0-.35,0-.53Z"/><path d="M108.42,14.89c-.03,.79-.04,1.57,.4,2.28,.04,.46,.44,.77,.54,1.2-.16,.07-.28-.02-.4-.1-.7-.95-1.01-2.01-.94-3.19,.01-.22,.09-.38,.29-.48,.04,0,.07,.02,.11,.02,0,.09,0,.18,0,.27Z"/><path d="M108.69,13.82c-.03,.29,.09,.63-.27,.8,0,0,0,0,0,0-.15-.14-.13-.32-.12-.5,.02-.19,.06-.36,.31-.35,.03,.02,.06,.04,.09,.05Z"/><path d="M108.68,13.55c.14-.08,.19-.29,.4-.27,0,.09,0,.18,0,.27-.14,.08-.19,.29-.4,.27,0,0,0,0,0,0-.08-.09-.07-.18,0-.27Z"/><path d="M79.71,19.73c.42-.24,.76-.57,1.07-.94,.53-.16,.81-.6,1.05-1.04,.12-.22,.26-.4,.43-.57,0,.22,0,.45,0,.67,0,.15-.1,.23-.21,.31-.65,.47-1.04,1.22-1.73,1.65-.07,.41-.35,.76-.34,1.2,.02,1.36-.07,2.73,.03,4.08,.06,.85,.31,1.69,.25,2.56,.37,.47,.23,1.06,.38,1.59,.19,.7,.25,1.43,.43,2.14,.18,.72,.4,1.44,.66,2.14,.43,1.18,.89,2.34,1.34,3.51,.08,.09,.07,.18,0,.27-.09,0-.18,0-.26,0,0,0,0,0,0,0-.14-.25-.12-.56-.27-.8h0c-.17-.14-.15-.37-.26-.54h0c-.13-.32-.2-.65-.4-.94,0-.04,0-.09,0-.13-.16-.2-.13-.47-.27-.67h0c-.14-.25-.12-.56-.27-.8h0c-.23-.27-.1-.65-.27-.94-.09-.22-.25-.42-.27-.67-.16-.29-.1-.65-.27-.94,0,0,0,0,0,0,0-.09,0-.18,0-.27-.24-.22-.02-.59-.26-.81,0-.49,.05-.98-.23-1.42-.01-.02-.02-.04-.02-.06,.08-.96-.26-1.88-.28-2.83-.03-1.91,0-3.82,0-5.73Z"/><path d="M106.54,11.53c.11,0,.21,.03,.27,.14-.02,.02-.04,.04-.05,.06-.08,.01-.15,0-.22-.06,0,0,0,0,0,0,0-.05,0-.09,0-.14Z"/><path d="M106.81,11.67c.11,0,.21,.03,.27,.13-.02,.02-.04,.04-.06,.05-.08,.03-.15,.02-.21-.05h0s-.06-.06-.04-.09c.01-.03,.03-.04,.04-.04h0Z"/><path d="M107.07,11.8c.11,0,.21,.03,.27,.13,0,0,0,0,0,0-.08,.08-.17,.08-.26,.03-.03-.04-.04-.07-.03-.11,0-.04,.02-.06,.03-.06h0Z"/><path d="M88.29,56.61c0,.09,0,.18,0,.27-.21,0-.31,.17-.42,.3-.18,.2-.39,.27-.65,.24-.02-.23,.29-.3,.27-.53,.19,0,.38,0,.4-.27,.13,0,.26,0,.4,0Z"/><path d="M107.07,11.94c.09,0,.18,0,.27,0,.21,.21,.47,.31,.75,.39,.58,.17,.59,.17,.59,.75,0,.15,0,.31,0,.46,0,.09,0,.18,0,.27-.17,0-.26,.1-.27,.27-.09,.08-.18,.08-.27,0,0-.2,.03-.37,.14-.56,.28-.47,.11-.86-.4-1.04-.27-.1-.54-.18-.82-.27-.07-.08-.2-.06-.27-.13h0s0-.09,0-.13c.09-.08,.18-.08,.27,0Z"/><path d="M110.97,24.55c0,.8,0,1.61,0,2.41,.02,.25-.04,.48-.13,.71-.1,.27-.15,.55-.14,.85,0,.28,.04,.58-.2,.81-.05,.05-.08,.17-.06,.25,.13,.66-.28,1.24-.3,1.89,0,.17-.1,.34-.25,.46-.12,.05-.04,.49-.35,.18,.36-1.06,.53-2.18,.67-3.28,.11-.89,.41-1.75,.36-2.68-.04-.68,.08-1.38,.36-2.02,.15,.13,.11,.28,.03,.43Z"/><path d="M108.4,36.75c-.34,.05-.23,.33-.26,.53-.08,.09-.17,.09-.26,0,0-.09,0-.18,0-.27-.14-.59,.26-1.04,.44-1.53,.27-.74,.54-1.49,.89-2.2,.03-.12,.08-.23,.15-.33,.03-.05,.07-.09,.12-.13,.03,0,.06-.01,.08-.02,.02,.01,.05,.03,.07,.04,.02,.53-.3,.97-.4,1.47-.1,.53-.46,.95-.54,1.48,0,0,0,0,0,0-.22,.27-.07,.66-.28,.94Z"/><path d="M109.62,32.2c.09-.09,.18-.18,.27-.27,0,.34,.03,.69-.27,.94,0,0,0,0,0,0-.1-.11-.14-.24-.12-.39,0-.11,.04-.21,.13-.28Z"/><path d="M110.97,24.55v-.41c-.2-.23-.13-.51-.13-.77,0-1.05,0-2.09,0-3.14,0-.08,.03-.16,.08-.23,.1-.09,.21-.11,.32-.02,0,0,0,0,0,0,0,1.3,0,2.59,0,3.89,0,.09,0,.18,0,.26-.17,.08-.09,.32-.26,.41Z"/><path d="M110.96,19.99c0,1.38,0,2.77,0,4.15-.04,.08-.12,.15-.12,.23,.06,.82-.21,1.62-.15,2.45,.02,.26,.06,.54-.18,.75-.04,.04-.08,.12-.07,.18,.12,.81-.33,1.55-.3,2.36,.02,.55-.26,1.06-.41,1.59-.05,.17-.13,.33-.11,.51,0,.09,0,.18,0,.27-.13,.11,0,.3-.13,.4h0c-.08,.07-.05,.2-.13,.27-.25,.95-.74,1.8-1.06,2.73-.13,.39-.28,.78-.42,1.16-.09,0-.18,0-.27,0,0-.11-.03-.25,.02-.33,.4-.69,.68-1.43,.91-2.18,.25-.84,.8-1.57,.82-2.48,0-.29,.19-.54,.29-.8,.29-.76,.1-1.6,.46-2.34,.07-.15,.05-.35,.05-.53,0-.4,.02-.79,.2-1.17,.17-.37,.05-.79,.07-1.19,.03-.41-.09-.84,.22-1.22,.09-.11,.04-.35,.04-.52,0-1.07,0-2.15,0-3.22,0-.35,.03-.7-.28-.99-.15-.14-.25-.37-.26-.61,.47-.13,.6,.26,.8,.54Z"/><path d="M107.88,37.29c.09,0,.17,0,.26,0-.14,.38-.16,.82-.53,1.08-.09-.4,.22-.7,.27-1.07Z"/><path d="M107.34,37.83c.02-.21-.09-.49,.27-.54-.02,.21-.09,.4-.27,.54Z"/><path d="M108.4,36.75c.06-.32-.13-.72,.28-.94,0,.34,.05,.7-.28,.94Z"/><path d="M110.96,19.99c-.36-.03-.43-.51-.8-.54,0,0,0,0,0,0-.16-.23-.4-.38-.62-.55-.2-.16-.6-.24-.45-.66,.09,.04,.18,.09,.27,.13,.53,.36,1.07,.72,1.6,1.07,0,0,0,0,0,0,.15,.18,.14,.35,0,.53h0Z"/><path d="M110.97,19.99c0-.18,0-.35,0-.53,.37,.04,.25,.32,.27,.53-.09,0-.18,0-.27,0Z"/><path d="M109.09,18.24c.09,.35,.42,.47,.67,.66,.19,.15,.4,.27,.41,.55-.95-.43-1.58-1.16-1.95-2.12-.29-.74-.41-1.52-.32-2.31,.04-.33,.37-.57,.26-.94,.09,0,.18,0,.27,0,0,.18,0,.36,0,.53-.24,.11-.25,.33-.27,.55-.08,.75,.16,1.43,.39,2.11,.12,.36,.31,.67,.55,.96Z"/><path d="M83.06,37.3c0-.09,0-.18,0-.27,.08,.02,.2,.03,.22,.12,.1,.71,.48,1.32,.71,1.98,.09,.28,.08,.5-.12,.72,.01-.47-.29-.84-.4-1.27-.11-.43-.43-.8-.41-1.28Z"/><path d="M106.8,12.07c.11,0,.21,.03,.27,.13-.11,0-.21-.03-.27-.13Z"/><path d="M80.24,29.78c.18,.02,.26,.12,.26,.3,0,.17,0,.34,0,.51-.18-.02-.26-.12-.26-.3,0-.17,0-.34,0-.51Z"/><path d="M81.85,35.01c.42,.19,.43,.56,.4,.94-.26-.26-.46-.55-.4-.94Z"/><path d="M81.05,32.46c.23,.27,.28,.6,.27,.94-.18-.02-.26-.12-.26-.3,0-.21,0-.43,0-.64Z"/><path d="M80.51,30.85c.3,.25,.27,.6,.27,.94-.31-.25-.27-.6-.27-.94Z"/><path d="M82.52,36.49c.27,.21,.28,.5,.27,.8-.26-.21-.28-.5-.27-.8Z"/><path d="M81.31,33.4c.27,.21,.28,.5,.27,.8-.26-.21-.28-.5-.27-.8Z"/><path d="M81.58,34.21c.22,.17,.28,.41,.27,.67-.31-.14-.27-.41-.27-.67Z"/><path d="M82.25,35.95c.17,.14,.25,.32,.26,.54-.35-.05-.24-.33-.26-.54Z"/><path d="M106.8,11.67s0,.09,0,.13c-.11,0-.21-.03-.27-.13,.09,0,.18,0,.27,0Z"/><path d="M107.07,11.94c-.09,0-.18,0-.27,0,0-.04,0-.09,0-.13,.09,0,.18,0,.27,0,0,.04,0,.09,0,.13Z"/><path d="M109.49,32.87c0-.15-.02-.31,.13-.4,0,.13,0,.27,0,.4-.04,0-.09,0-.13,0Z"/><path d="M109.35,33.13c0-.11,.02-.21,.13-.27,0,.11-.03,.21-.13,.27Z"/></g></g></svg>