<?xml version="1.0" encoding="UTF-8"?><svg id="Calque_2" xmlns="http://www.w3.org/2000/svg" viewBox="0 0 208.45 208.45"><defs><style>.cls-1{fill:#b7b7b7;}.cls-2{fill:#979797;}.cls-3{fill:#a7a7a7;}.cls-4{fill:#797979;}.cls-5{fill:#343434;}.cls-6{fill:#262626;}.cls-7{fill:#555;}.cls-8{fill:#0f0f0f;}.cls-9{fill:#8b8b8b;}.cls-10{fill:#585858;}.cls-11{fill:#090909;}.cls-12{fill:#c5c5c5;}.cls-13{fill:#3d3d3d;}.cls-14{fill:#575757;}.cls-15{fill:#4c4c4c;}.cls-16{fill:#3f3f3f;}.cls-17{fill:#cacaca;}.cls-18{fill:#565656;}.cls-19{fill:#363636;}.cls-20{fill:#0c0c0c;}.cls-21{fill:#717171;}.cls-22{fill:#f5f5f5;}.cls-23{fill:#5c5c5c;}.cls-24{fill:#4b4b4b;}.cls-25{fill:#222;}.cls-26{fill:#5f5f5f;}.cls-27{fill:#a9a9a9;}.cls-28{fill:#4a4a4a;}.cls-29{fill:#a6a6a6;}.cls-30{fill:#8c8c8c;}.cls-31{fill:#3e3e3e;}.cls-32{fill:#4d4d4d;}.cls-33{fill:#323232;}.cls-34{fill:#131313;}.cls-35{fill:#b4b4b4;}.cls-36{fill:#0a0a0a;}.cls-37{fill:#303030;}.cls-38{fill:#909090;}.cls-39{fill:#393939;}.cls-40{fill:#4e4e4e;}.cls-41{fill:#232323;}.cls-42{fill:#1c1c1c;}.cls-43{fill:#2f2f2f;}.cls-44{fill:#a4a4a4;}.cls-45{fill:#696969;}.cls-46{fill:#cfcfcf;}.cls-47{fill:#bdbdbd;}.cls-48{fill:#313131;}.cls-49{fill:#1b1b1b;}.cls-50{fill:#111;}.cls-51{fill:#646464;}.cls-52{fill:#e6e6e6;}.cls-53{fill:#2a2a2a;}.cls-54{fill:#282828;}.cls-55{fill:#101010;}.cls-56{fill:#b0b0b0;}.cls-57{fill:#444;}.cls-58{fill:#5a5a5a;}.cls-59{fill:#0d0d0d;}.cls-60{fill:#242424;}.cls-61{fill:#505050;}.cls-62{fill:#080808;}.cls-63{fill:#787878;}.cls-64{fill:#272727;}.cls-65{fill:#898989;}.cls-66{fill:#747474;}.cls-67{fill:#181818;}.cls-68{fill:#424242;}.cls-69{fill:#414141;}.cls-70{fill:#2b2b2b;}.cls-71{fill:#676767;}.cls-72{fill:#3a3a3a;}.cls-73{fill:#c8c8c8;}.cls-74{fill:#fdfdfd;}.cls-75{fill:#fbfbfb;}.cls-76{fill:#a3a3a3;}.cls-77{fill:#3b3b3b;}.cls-78{fill:#171717;}.cls-79{fill:#464646;}.cls-80{fill:#212121;}.cls-81{fill:#aaa;}.cls-82{fill:#5d5d5d;}.cls-83{fill:#0e0e0e;}.cls-84{fill:#616161;}.cls-85{fill:#494949;}.cls-86{fill:#858585;}.cls-87{fill:#2c2c2c;}.cls-88{fill:#d3d3d3;}.cls-89{fill:#1d1d1d;}.cls-90{fill:#121212;}.cls-91{fill:#202020;}.cls-92{fill:#2e2e2e;}.cls-93{fill:#373737;}.cls-94{fill:#dcdcdc;}.cls-95{fill:#636363;}.cls-96{fill:#353535;}.cls-97{fill:#161616;}.cls-98{fill:#474747;}.cls-99{fill:#141414;}.cls-100{fill:#bcbcbc;}.cls-101{fill:#e8e8e8;}.cls-102{fill:#515151;}.cls-103{fill:#b1b1b1;}.cls-104{fill:#383838;}.cls-105{fill:#757575;}.cls-106{fill:#292929;}.cls-107{fill:#0b0b0b;}.cls-108{fill:#252525;}.cls-109{fill:#434343;}.cls-110{fill:#606060;}.cls-111{fill:#7b7b7b;}.cls-112{fill:#1f1f1f;}.cls-113{fill:#1a1a1a;}.cls-114{fill:#525252;}.cls-115{fill:#454545;}.cls-116{fill:#cecece;}.cls-117{fill:#070707;}.cls-118{fill:#b5b5b5;}.cls-119{fill:#484848;}.cls-120{fill:#8a8a8a;}.cls-121{fill:#595959;}.cls-122{fill:#cdcdcd;}.cls-123{fill:#5b5b5b;}.cls-124{fill:#404040;}.cls-125{fill:#686868;}.cls-126{fill:#1e1e1e;}.cls-127{fill:#666;}.cls-128{fill:#3c3c3c;}.cls-129{fill:#a2a2a2;}.cls-130{fill:#fefefe;}.cls-131{fill:#fcfcfc;}</style></defs><g id="Calque_1-2"><g><path class="cls-130" d="M.04,104.23C.04,70.08,.05,35.92,0,1.77,0,.29,.29,0,1.77,0,70.08,.05,138.38,.05,206.68,0c1.48,0,1.77,.29,1.77,1.77-.05,68.3-.05,136.6,0,204.91,0,1.48-.29,1.77-1.77,1.77-68.3-.05-136.6-.05-204.9,0-1.48,0-1.78-.29-1.77-1.77,.05-34.15,.04-68.3,.04-102.45Z"/><path class="cls-60" d="M55.9,155.61c-3.93-7.15-6.59-14.81-9.09-22.54-.51-1.57-.87-3.18-1.3-4.78-.16-.25-.28-.52-.03-.77,.17-.17,.39-.17,.55,.02,.44,.52,.47,1.14,.49,1.25-.49-2.49-1.23-5.45-1.74-8.44-.2-1.15-.38-2.29-.13-3.43,.33-1.51,1.36-1.85,2.51-.84,.65,.57,1.2,1.28,1.56,2.06,1.56,3.36,3.72,6.33,5.97,9.24,.54,.7,.36,1.92,1.56,2.13,1.44,1.93,1.3,4.38,2.2,6.49,.54,2.48,1.51,4.81,2.27,7.22,1.36,3.69,2.85,7.33,4.61,10.86,1.82,4.15,4.41,7.85,6.93,11.58,2.1,2.91,4.59,5.49,6.86,8.25,2.04,1.99,3.86,4.2,6.19,5.86,.16,.12,.31,.25,.45,.38,.83,.83,1.61,1.7,2.53,2.43,1.13,.85,2.16,1.48,3.8,1.52,1.6,.04,2.84,1.77,4.34,2.6,.17,.1,.33,.21,.49,.33,.63,.58,1.59,.87,1.67,1.92,.48,2.02,2.65,2.16,3.82,3.4,.77,.42,1.25-.32,1.87-.48,1.65-.67,3.08-1.71,4.6-2.62,.16-.11,.33-.21,.49-.31,.51-.28,.98-.63,1.46-.95,2.13-1.31,3.93-3.05,5.91-4.57,1.54-1.24,2.72-2.87,4.34-4.02,1.85-1.54,3.28-3.43,4.68-5.35,.16-.26,.37-.47,.63-.64,2.6-2.16,4.31-5.06,6.32-7.7,1.65-2.13,2.84-4.55,4.28-6.81,.7-.95,1.08-2.08,1.76-3.05,.47-.63,.69-1.37,.95-2.1,.56-1.16,1.15-2.31,1.69-3.49,.99-1.57,1.3-3.46,2.3-5.04-.59,.32-.44,1.8-1.69,1.16,.03-2.33,1.61-4.17,1.98-6.4,.29-.61,.58-1.21,1.25-1.5,.7-.16,.99,.27,1.2,.99-.16-2.17,.82-3.94,1.21-5.84,.66-1.34,.35-3.07,1.63-4.17,1.02,.06,1.97-.28,2.36-1.18,1.43-3.24,3.93-5.8,5.49-8.96,2.17-4.41,3.36-9.11,4.4-13.87,.13-.59-.08-1.59,1.11-1.41,.81,1.37,.29,2.81,.2,4.22-.67,6.33-2.52,12.37-4.27,18.46-2.37,8.26-5.27,16.3-8.9,24.08-3.59,7.67-8.2,14.7-13.22,21.5-4.43,6.01-9.4,11.51-15.01,16.38-5.16,4.48-10.5,8.79-16.66,11.91-1.04,.53-2.05,.58-3.11,.08-1.05-.49-1.97-1.2-3.01-1.7-.18-.1-.36-.21-.52-.34-2.94-2.43-6.35-4.23-9.13-6.87-.99-1.04-2.02-2-3.32-2.71-2.17-1.18-3.75-3.13-5.47-4.8-4.74-4.58-9.32-9.33-13.52-14.45-3.38-4.12-6.42-8.46-9.44-12.84-.35-.52-.59-1.18-1.32-1.34Z"/><path class="cls-106" d="M42.04,113.61c-1.33-5.55-2.17-11.18-2.61-16.87,.46-2.47,.28-4.93,.17-7.43-.33-7.53-.5-15.07-.19-22.61,.22-.81,.18-1.64,.19-2.47,.03-.22,.09-.43,.17-.64,.72-2.1,1.53-2.73,3.15-2.45,1.83,.32,3.41,2.08,3.33,3.95-.11,2.5-.31,4.99-.17,7.51,.43,8.05,1.32,16.02,3.67,23.76,.61,1.99,2.02,3.74,1.71,6,.06-.81-.54-1.67,.44-2.31,.55,.34,.71,.91,.71,1.48,0,4.29,.97,8.51,.94,12.8,.06,.72,.34,1.4,.33,2.13,0,.29,.01,.58-.07,.86-.12,.4-.16,.92-.71,.92-.43,0-.48-.46-.65-.76-3.76-6.67-6.66-13.7-8.95-21-.11-.34-.2-.69-.8-1.13,.69,4.6,.11,9.01,.68,13.4,.23,1.77-.16,3.43-1.33,4.85Z"/><path class="cls-53" d="M166.35,58.1c.25,.49,.02,.85-.32,1.18-.03,.09-.06,.18-.1,.28-.45,.52-.89,1.05-1.17,1.7-.31,.65-.84,1.21-.78,1.98,.26,3.37-.3,6.78,.25,10.13,.29,1.76-.22,3.43-.22,5.16,0,7.72-.69,15.36-3.1,22.76-1.67,5.14-3.6,10.18-6.65,14.7-.73,1.09-1.23,2.27-1.68,3.49-.24,.65-.32,1.67-1.5,1.36-.32-.41-.4-.88-.42-1.38,.28-4.28,1.08-8.52,1.25-12.81,.08-1.21-.32-2.53,.72-3.54,.89-.01,.35,.77,.6,1.08-.06-.75-.12-1.51,.38-2.19,.52-.72,.59-1.62,.9-2.42,2.88-7.38,3.92-15.17,4.68-22.96,.39-3.96,.44-8.01-.09-12.04-.47-3.59-.19-3.76,3.38-4.51,.29-.06,.53-.21,.77-.36,.79-.52,1.33-1.35,2.23-1.73,.31-.09,.61-.14,.87,.13Z"/><path class="cls-64" d="M42.04,113.61c1.34-5.88,.43-11.77-.03-17.65-.05-.71-.18-1.37,.56-1.63,.97-.36,1.05,.6,1.18,1.13,1.1,4.7,3.31,8.99,4.96,13.49,.75,2.06,1.55,4.32,3.16,6.01,.79,.83,1.2,1.75,1.02,3,.69-.43,.33-.97,.45-1.39,1.14,.13,.96,1.13,1.1,1.82,.5,2.55,.92,5.11,1.47,7.65,.07,1.17,.69,2.35,.03,3.53-.01,.22,.04,.46-.05,.64-.28,.57-.32,.11-.42-.12-1.33-3.13-3.78-5.52-5.52-8.39-.97-1.59-1.41-3.47-2.75-4.84-.43-.45-.71-1.23-1.51-.91-.63,.25-.59,.93-.59,1.51,.01,2.89,.82,5.67,1.37,8.47,.24,1.21,.43,2.39,.29,3.67-.69-.44-.54-1.28-.97-1.8-.01-.01-.15,.03-.17,.08-.05,.13-.07,.28-.11,.42-1.57-4.8-2.7-9.7-3.48-14.69Z"/><path class="cls-113" d="M164.25,110.59c-.76,3.83-1.4,7.69-2.3,11.48-1.47,6.26-3.58,12.33-5.75,18.38-9.23,25.74-25.12,46.24-48.15,61.09-4.69,3.02-4.75,2.93-9.28-.41,.27-1.3,1.13-.72,1.7-.42,2.25,1.17,4.22,.72,6.05-.86,2.76-2.2,5.99-3.7,8.75-5.92,6.08-4.9,11.67-10.27,16.85-16.12,7.43-8.39,13.13-17.84,17.99-27.87,.35-.72,.81-1.37,1.22-2.04,2.1-3.27,3.17-6.94,4.09-10.66,.08-.68,.15-1.36,.6-1.93,1.03-1.33,1.52-2.96,1.88-4.5,.87-3.68,2.42-7.15,3.14-10.87,.22-1.12,.42-2.24,.55-3.38,.05-.24,.12-.46,.22-.68,.81-1.94,.61-4.1,1.36-6.06,.2-.53,.18-1.15,.83-1.54,.74,.7,.39,1.52,.23,2.31Z"/><path class="cls-33" d="M38.16,80.18c-.61-6.21-.58-12.42,.02-18.63,.45-.46,.82-1,1.38-1.35,.4-.27,.84-.43,1.32-.49,3.2-.13,6.41-.03,9.61-.06,2.64-.17,5.25,.35,7.91,.1,2.67-.25,3.86,1.43,3.6,4.31-.44,5-.39,10.01,.17,15,.27,.2,.55,.39,.77,.65,.08,.24,.03,.45-.14,.64-.51,.37-1.1,.38-1.69,.42-.36,.03-.72,.03-1.08,.01-.98-.02-1.97,0-2.95,0-1.13-.04-2.27,.1-3.38-.15-.33-.08-.74-.2-.74-.63,0-.54,.49-.59,.86-.74,2.46-.31,2.56-.39,2.17-2.8-.24-1.51-.25-3,.05-4.51,.4-1.98,.48-3.98,.42-6.01-.12-3.7-.35-4.02-3.93-4.55-.67-.1-1.28,0-1.92,.16-.61,.11-1.22,.1-1.82-.04-2.21-.44-4.46-.13-6.68-.37-1.41-.15-2.1,.74-2.36,2.01-.46,2.27-.33,4.58-.33,6.87,0,2.94-.11,5.89-.07,8.83,0,.79,.1,1.7-1.2,1.32Z"/><path class="cls-114" d="M103.16,45.9c9.52,3.47,19.15,6.53,29.07,8.64-1.26,1.13-2.71,.65-4.09,.42-5.97-.96-11.7-2.85-17.47-4.56-.21-.04-.42-.11-.62-.2-1.38-.57-2.71-1.26-4.09-1.83-1.39-.56-2.75-.71-4.13-.04-.18,.08-.37,.14-.56,.2-1.23,.37-2.48,.68-3.63,1.3-.45,.25-.93,.44-1.44,.51-2.35,.27-4.49,1.32-6.77,1.83-.18,.07-.37,.13-.56,.18-.84,.2-1.66,.48-2.48,.79-.19,.07-.38,.12-.57,.17-1.51,.21-2.98,.57-4.37,1.22-.2,.08-.41,.13-.62,.17-2.6,.49-5.22,.93-7.68,1.97-1.38,.34-2.76,.73-4.2,.7-1.95-.12-3.82,.34-5.7,.72-.63,.14-1.27,.14-1.91,.16-1.55-.2-3.22,.5-4.63-.65,5.53-.96,11.08-1.75,16.57-2.95,.68-.15,1.31-.48,2.01-.54,6.54-1.4,12.93-3.33,19.29-5.36,2.88-.92,5.71-1.98,8.6-2.87Z"/><path class="cls-25" d="M55.9,155.61c1.04-.94,1.15,.22,1.49,.69,2.67,3.72,5.19,7.56,7.99,11.17,4.57,5.87,9.72,11.26,15.1,16.37,2.06,1.95,3.89,4.37,6.74,5.51,.84,.33,1.38,1.42,2.06,2.16-.49,.42-.99,.21-1.49,.03-3.98-2.41-7.29-5.64-10.6-8.85-2.12-2.05-4.45-3.9-6.26-6.27-.28-.36-.71-.47-1.17-.45-5.5-6.19-10.34-12.83-13.86-20.37Z"/><path class="cls-13" d="M40.33,60.26c-.29,.15-.58,.29-.87,.44-.42,.31-.84,.37-1.26,0,0-.15,0-.29,0-.44,.59-1.14,1.66-1.3,2.77-1.28,6.98,.12,13.91-.82,20.88-.88,1.3-.01,2.52-.61,3.83-.5,.23-.09,.46-.18,.69-.28,.72-.14,1.44-.07,2.16-.09,2.6,.05,5.06-.76,7.55-1.34,1.88-.44,3.8-.66,5.69-1.05,2.48-.51,4.01,1.36,3.22,3.76-.41,1.25-1.72,.72-2.55,1.13-1.98,.67-3.4,2-4.47,3.75-1.16,.97-1.93-.33-2.9-.5-.54-.34-1.1-.65-1.06-1.42,.03-.14,.06-.28,.11-.42,.93-2.61,.84-2.74-1.83-2.54-5.15,.4-10.28,1.14-15.46,1.3-1.5,.04-3.02-.38-4.51,.1-.61,.05-1.23,.02-1.84,.03-3.38,.13-6.77-.27-10.14,.22Z"/><path class="cls-112" d="M69.76,175.98c1.17-1.13,1.55,.1,2.15,.72,5.01,5.18,10.06,10.33,16.07,14.38,3.33,2.65,6.65,5.3,10.4,7.36,.53,.36,.99,.8,1.51,1.17,1.62,1.13,3.26,2.02,5.22,.63,.58-.41,1.27-.7,1.93-.07-2.14,1.84-4.42,2.49-6.99,.85-.42-.27-.89-.56-1.27,.09-10.85-7.03-20.7-15.19-29.01-25.14Z"/><path class="cls-42" d="M164.25,110.59c-.02-.5-.02-1-.06-1.49,0-.11-.13-.21-.32-.49,.03,2.3-1.25,4.2-.99,6.4,.07,.54-.35,.9-.83,1.14-.68-1.14-.4-2.41-.12-3.49,.37-1.44,.45-2.91,.79-4.34,.03-6.48,1.48-12.83,1.86-19.29,.51-8.71,.08-17.41,.4-26.12,.05-1.24,.1-2.45,.96-3.45l.09-.17c.66,.25,.54,.75,.41,1.26,.36,2.94,.16,5.9,.14,8.84-.03,6.12,.21,12.24-.14,18.36l-.11,3.72c-.45,1.31,.12,2.71-.33,4.02-.03,.54-.06,1.07-.1,1.61-.41,.88,.05,1.87-.33,2.76-.04,.67-.08,1.34-.12,2.01-.36,.73,.03,1.57-.32,2.3-.09,2.17-.32,4.32-.89,6.43Z"/><path class="cls-43" d="M38.16,80.18c.47-.06,.81-.22,.81-.79,.01-4.81,.04-9.62,.06-14.43,.02-3.64,.65-4.35,4.25-4.24,1.9,.06,3.87-.55,5.71,.4-.36,.43-.86,.52-1.37,.59-1.21,.04-2.42,.08-3.63-.15-3.07-.57-3.49-.29-4.1,2.59-.35,.72-.09,1.44,0,2.17,0,6.32-.05,12.63,.03,18.95,.03,2.25,.3,4.5,.53,6.75,.18,1.71,.09,3.31-1.03,4.71-.59-3.12-.86-6.27-.87-9.44-.31-1.76-.19-3.53-.07-5.29,.03-.52,.07-.98-.3-1.39,0-.14,0-.29-.01-.43Z"/><path class="cls-44" d="M86.23,18.69c-.51-.24-1.06-.43-1.47-1.27h12.73c2.15,1.14,3.37,3.02,4.15,5.25-.05,.23-.18,.39-.39,.48-1.34,.16-2.54-.42-3.76-.8-3.76-1.19-7.45-2.6-11.25-3.66Z"/><path class="cls-46" d="M105.78,16.9c.81,.66,1.77,.48,2.69,.48,3.47,.01,6.94,0,10.41,0-.04,.96-.77,.46-.99,.83-4.76,1.9-9.52,3.8-14.6,4.73-.34-.1-.61-.28-.76-.62,.32-2.27,2.16-3.62,3.25-5.43Z"/><path class="cls-44" d="M105.78,16.9c-.24,2.21-2.16,3.43-3.1,5.23-.38,.58-.75,.82-1.11-.01-.45-.94-.44-1.96-.4-2.96,.16-4.5-.51-9.04,.67-13.49,1.36,1.5,1.32,3.55,2.05,5.31,.79,1.91,1.27,3.94,1.89,5.92Z"/><path class="cls-120" d="M111.75,36.48c-.04,1.15-.57,.4-.86,.19-2.88-2.1-5.74-4.21-8.61-6.33-1.39-.8-.99-2.18-1.06-3.39-.05-.9-.05-1.82,.13-2.72,.09-.35,.25-.66,.56-.87,.6-.14,.93,.28,1.22,.67,2.7,3.59,5.3,7.25,7.95,10.88,.34,.47,.37,1.08,.67,1.57Z"/><path class="cls-46" d="M111.75,36.48c-3.32-4.23-6.53-8.53-9.44-13.05,.16-.17,.35-.28,.58-.33,2.1,.31,4.12,.85,5.9,2.08,.41,2.92,1.63,5.59,2.45,8.39,.28,.95,.77,1.87,.51,2.91Z"/><path class="cls-46" d="M91.86,36.42c.64-3.24,1.82-6.32,2.83-9.45,.2-.61,.62-1.16,.24-1.83,1.9-1.27,4.03-1.76,6.27-1.91,.21,.08,.34,.23,.4,.45,0,.14,.03,.31-.04,.42-2.8,4.31-5.55,8.66-9.15,12.38-.2,.11-.39,.08-.55-.07Z"/><path class="cls-120" d="M108.79,25.18c-2.13-.22-4.01-1.29-6.08-1.75-.24-.51,.13-.65,.48-.8,3.93-1.26,7.86-2.52,11.8-3.77,.94-.3,1.86-.74,2.9-.64-2.71,2.74-6.14,4.55-9.1,6.96Z"/><path class="cls-46" d="M101.84,5.67c0,5.63,.02,11.26,.03,16.89-.15,.15-.3,.15-.45-.01-1.31-1.71-2.62-3.42-3.93-5.13,1.68-3.02,2.15-6.47,3.44-9.63,.29-.71,.3-1.55,.91-2.13Z"/><path class="cls-65" d="M101.41,23.41c-2.18,.49-4.22,1.5-6.48,1.73-2.9-2.15-5.8-4.3-8.7-6.45,.44-.66,.97-.35,1.52-.16,4.55,1.5,9.1,2.99,13.65,4.49,.09,.08,.12,.17,.1,.26-.03,.09-.05,.13-.08,.13Z"/><path class="cls-76" d="M92.3,36.42c3.04-4.18,6.08-8.36,9.12-12.55,.13-.21,.27-.2,.42-.01,.23,2.16-.43,4.37,.45,6.48-2.66,.87-4.44,3.07-6.77,4.45-1.11,.66-2.13,1.45-3.19,2.19-.11-.12-.15-.25-.12-.37,.03-.13,.06-.19,.1-.19Z"/><path class="cls-15" d="M110.07,49.86c3.31,.34,6.31,1.84,9.51,2.58,4.17,.97,8.27,2.42,12.65,2.1,0,0-.04,0-.04,0,.8,.64,1.81,.18,2.67,.48,2.57,.32,5.14,.64,7.71,.97,.87,.42,1.85-.07,2.73,.34,3.18,.16,6.35,.34,9.5,.86-.38,.5-.95,.66-1.52,.65-3.22-.02-6.44,.22-9.64-.1-2.83-.29-5.68-.47-8.5-.85-5.63-1.03-11.31-1.82-16.83-3.38-2.35-.66-4.68-1.37-6.99-2.13-.68-.22-1.71-.28-1.24-1.5Z"/><path class="cls-68" d="M134.77,56.36c5.89,.34,11.76,1.18,17.68,.88,.78-.04,1.57-.05,2.35-.07,3.65,.16,7.3,.32,10.94,.48,.31,.01,.55,.1,.6,.45-.27,0-.55,0-.82,0-.34,.2-.7,.36-1.06,.51-3.88,1.02-7.83,.53-11.73,.31-1.41-.08-2.86-.09-4.27-.34-2.03-.64-4.13-.15-6.19-.41-.23-.03-.47-.08-.69-.14-1.56-.49-3.19-.07-4.77-.34-.23-.03-.46-.08-.69-.14-.96-.29-1.96-.06-2.92-.23-.58-.1-1.57,.17-1.34-1.03,.97-.2,1.94-.29,2.9,.07Z"/><path class="cls-116" d="M50.36,32.58c2.17-1.04,4.47-.45,6.68-.38,2.17,.06,3.25-.52,3.66-2.73,.33-1.81,1.06-3.55,1.72-5.29,.41-1.07,.71-.65,.83,.17,.3,3.03,.3,6.07,.24,9.11-.02,.96,.17,2.04-.86,2.69-.25,.06-.5,.04-.74-.07-1.59-2.66-4.01-3.29-6.92-2.98-1.55,.16-3.12,.07-4.61-.53Z"/><path class="cls-116" d="M128.78,32.59c2.11-1.03,4.38-.51,6.52-.38,2.5,.15,3.5-.79,3.92-3.11,.31-1.68,.99-3.31,1.61-4.92,.42-1.09,.71-.65,.84,.17,.23,3.2,.37,6.41,.21,9.62-.04,.86,.24,2.2-1.43,1.99-.6-.28-1.01-.78-1.38-1.29-.82-1.16-1.96-1.5-3.33-1.52-2.33-.03-4.69,.3-6.95-.55Z"/><path class="cls-95" d="M103.16,45.9c-2.85,2.12-6.34,2.61-9.57,3.7-5.17,1.73-10.46,3.06-15.76,4.31-.86,.2-1.69,.32-2.55,.22,5.49-1.68,11-3.33,16.48-5.04,3.16-.99,6.28-2.09,9.43-3.1,.63-.2,1.29-.83,1.98-.09Z"/><path class="cls-98" d="M66.32,57.66c-1.28,.77-2.78,.71-4.14,.8-6.59,.43-13.18,1.18-19.81,.92-1.48-.06-2.86,.21-4.17,.87-.1-.88-.27-1.7,1.13-1.73,4.23-.1,8.46-.3,12.69-.47,3.19,.14,6.37-.09,9.54-.4h1.73c1.01-.31,2.02-.36,3.03,0Z"/><path class="cls-44" d="M140.39,35.59c1.27,.41,.84-.6,.84-1.09,.03-2.72,0-5.43,.03-8.15,0-.68-.27-1.45,.4-2.01,.89,2.73,1.77,5.46,2.66,8.18-.18,1.28-1.49,2.02-1.59,3.34,.02,.53-.29,.84-.7,1.09-.16,.09-.32,.16-.5,.22-.27,.06-.55,.06-.82,0-.18-.06-.33-.16-.47-.3-.15-.25-.19-.53-.15-.81,.05-.18,.15-.34,.3-.46Z"/><path class="cls-44" d="M62.02,35.97c1.11-.14,.81-1.01,.82-1.66,.03-2.65,0-5.29,.02-7.94,0-.68-.27-1.45,.39-2.02,.89,2.72,1.77,5.45,2.66,8.17,.03,1.38-1.53,2-1.57,3.35,.02,.54-.32,.85-.74,1.1-.16,.09-.34,.16-.52,.21-.29,.05-.57,.04-.85-.04-.18-.08-.32-.21-.42-.38-.08-.3-.04-.57,.22-.78Z"/><path class="cls-46" d="M61.97,36.84c.14,.02,.28,.04,.42,.04,.35,.92-.34,1.49-.76,2.1-1.81,2.57-3.52,5.23-5.7,7.53-.15,.15-.28,.42-.44,.43-.66,.06-.4-.43-.31-.69,.64-1.96,1.33-3.91,1.96-5.88,.24-.74,.39-1.51,.58-2.27,1.24-1.03,2.58-1.71,4.25-1.26Z"/><path class="cls-44" d="M55.93,46.5c.83-2.31,2.72-3.91,3.94-5.96,.76-1.27,1.67-2.45,2.52-3.67,.31,0,.61,0,.92,0,.13,.19,.19,.39,.19,.62-.27,1.5,.19,3.03-.21,4.52-1.89,.06-2.89,1.68-4.34,2.51-1.04,.6-2.02,1.31-3.02,1.98Z"/><path class="cls-116" d="M146.05,38.19c.79,2.3,1.58,4.6,2.35,6.91,.19,.58,.57,1.23-.24,1.69-1.92-2.39-3.73-4.87-5.5-7.36-.45-.63-1.06-1.17-1.19-2,.02-.21,.1-.39,.26-.54l-.02-.03c1.74-.49,3.22-.16,4.34,1.34Z"/><path class="cls-44" d="M141.72,36.88c0,.14-.02,.28-.02,.41-.09,1.48,.75,3.06-.48,4.42-2.32,1.48-4.26,3.51-6.83,4.63-.19-.13-.33-.36-.22-.54,1.96-3.16,3.84-6.38,6.63-8.92,.31,0,.61,0,.92,0Z"/><path class="cls-46" d="M140.8,36.87c-1.92,2.72-3.84,5.45-5.78,8.17-.29,.41-.68,.74-.63,1.3-.93-.54-.37-1.24-.18-1.88,.63-2.13,1.28-4.25,1.92-6.37,1.23-1.03,2.58-1.7,4.25-1.26,.14,.02,.28,.03,.42,.04Z"/><path class="cls-46" d="M63.3,37.29c0-.14,0-.27,.01-.41,0,0-.02-.03-.02-.03,1.7-.51,3.15-.12,4.29,1.27,.83,2.4,1.68,4.8,2.49,7.21,.17,.52,.4,1.12-.33,1.46-1.75-2.26-3.43-4.57-5.13-6.86-.59-.79-1.32-1.54-1.32-2.63Z"/><path class="cls-120" d="M63.3,37.29c1.95,2.65,3.9,5.29,5.84,7.94,.33,.45,.71,.92,.6,1.56-2.15-1.59-4.3-3.18-6.45-4.77-.61-1.58-.77-3.15,0-4.73Z"/><path class="cls-30" d="M146.05,38.19c-1.42-.55-2.81-1.17-4.34-1.34,.3-.27,.59-.53,.89-.79,2.37-2.08,5.48-2.19,8.29-3.05,.51-.16,1.09-.4,1.67-.12,.5,.75-.3,.79-.61,1.02-1.95,1.45-3.93,2.87-5.9,4.29Z"/><path class="cls-30" d="M67.59,38.11c-1.43-.42-2.86-.84-4.29-1.27,.3-.27,.59-.53,.89-.8,2.99-2.05,6.32-2.99,9.92-3.06-1.66,2.36-4.33,3.44-6.52,5.12Z"/><path class="cls-9" d="M61.97,36.84c-1.42,.42-2.84,.84-4.25,1.26-2.25-1.69-4.5-3.39-6.75-5.08,.6-.5,1.24-.21,1.85-.08,3.17,.68,6.25,1.66,9.19,3.04,0,0,0,0,0,0-.01,.29-.03,.58-.05,.87Z"/><path class="cls-120" d="M141.22,41.71c.31-1.46-.47-3.03,.48-4.42,1.91,2.59,3.83,5.17,5.72,7.76,.37,.51,.82,1.01,.73,1.73-2.31-1.69-4.62-3.38-6.93-5.08Z"/><path class="cls-120" d="M140.38,36.83c-1.42,.42-2.83,.84-4.25,1.26-2.25-1.69-4.49-3.39-6.74-5.08,.6-.49,1.24-.21,1.85-.07,3.15,.71,6.26,1.57,9.14,3.09,0,.27,0,.54,0,.81Z"/><path class="cls-76" d="M62.01,35.97c-2.89-.17-5.42-1.59-8.16-2.32-.95-.25-1.84-.8-2.88-.64-.29-.02-.55-.1-.62-.43,2.21,0,4.43,.17,6.61-.08,2.82-.31,4.2,1.1,5.05,3.47Z"/><path class="cls-129" d="M140.38,36.03c-2.86-.27-5.39-1.64-8.12-2.38-.95-.25-1.83-.8-2.87-.64-.29-.02-.55-.09-.62-.43,2-.01,4.02,.15,5.99-.08,2.71-.32,4.55,.59,5.62,3.08,0,.15,0,.29-.01,.44Z"/><path class="cls-116" d="M152.56,32.88c-3.32,1.06-6.64,2.12-9.96,3.18-.29-.1-.86-.12-.52-.58,.73-1,1.15-2.24,2.25-2.95,2.74,.17,5.52-.45,8.23,.35Z"/><path class="cls-116" d="M74.1,32.99c-3.31,1.02-6.61,2.04-9.92,3.06-.43-.09-.87-.18-.42-.76,.71-.92,1.43-1.84,2.14-2.76,2.15,0,4.3-.03,6.46,0,.6,0,1.32-.26,1.75,.47Z"/><path class="cls-41" d="M166.44,87.74c0-9.07,0-18.13,0-27.2,.45,1.24,.33,2.55,.33,3.82,.02,6.95,0,13.9-.03,20.85,0,.84,.12,1.72-.29,2.53Z"/><path class="cls-15" d="M61.56,57.66c-3.17,.4-6.31,1.48-9.54,.4,1.53-.47,3.11-.43,4.68-.44,1.62,.02,3.24,.03,4.86,.05Z"/><path class="cls-33" d="M38.17,80.62c.46,.06,.94,.28,.77,.78-.66,1.94-.15,3.94-.39,5.89-.54-2.2-.44-4.44-.38-6.68Z"/><path class="cls-41" d="M166,95.47c.05-1.34-.4-2.73,.33-4.02,.06,1.35,.11,2.71-.33,4.02Z"/><path class="cls-114" d="M134.87,55.01c-.98,.37-1.89,.3-2.67-.47,.92,0,1.84,0,2.67,.47Z"/><path class="cls-61" d="M145.3,56.31c-.92-.05-1.89,.36-2.73-.34,.93-.05,1.85-.08,2.73,.34Z"/><path class="cls-41" d="M165.58,99.85c.02-.93-.37-1.91,.33-2.76,.03,.94,.1,1.88-.33,2.76Z"/><path class="cls-100" d="M92.3,36.42c0,.19,.02,.38,.03,.57-.17,.29-.47,.67-.72,.44-.34-.31-.05-.72,.26-1.01,.15,0,.29,0,.44,0Z"/><path class="cls-6" d="M165.14,104.16c-.02-.79-.31-1.61,.32-2.3,.06,.79,.08,1.58-.32,2.3Z"/><path class="cls-39" d="M38.2,60.69c.42,0,.84,0,1.26,0-.24,.57-.67,.86-1.29,.87,0-.29,.02-.58,.02-.87Z"/><path class="cls-78" d="M71.95,165.96c-2.66-3.69-5.37-7.35-6.94-11.69-.12-1.41-1.43-2.32-1.53-3.74-.05-.72-.83-1.56,.18-2.12,.81-.44,1.58-.03,2.16,.55,2.76,2.78,6.04,4.91,9.15,7.22,2.53,1.88,5,3.86,7.82,5.37,3.14,1.69,5.23,4.71,8.08,6.81,3.86,2.85,7.12,6.45,11.3,8.94,2.81,1.67,2.9,2.25,2.59,4.16,.46-.8,.16-1.55,.13-2.31-.02-.61-.34-1.76,1.07-1.35,.75,1.4,0,2.99,.6,4.4,2.09,.89,3.66,.15,4.69-1.88,2.08-4.1,3.68-8.42,6.03-12.4,1.02-1.72,1.33-3.79,2.57-5.45,.7-.93,1.4-1.84,2.28-2.59,1.76-1.52,2.91-1.53,4.61-.11,.51,.14,.75,.57,1.03,.95,1.82,1.78,3.27,1.71,4.88-.19,.58-.69,.94-1.7,2.12-1.58,.63,1.21-.19,2.09-.78,2.93-6.71,9.62-14.38,18.33-24.06,25.1-1.29,.9-2.9,1.34-3.86,2.71-.71,.69-1.47,1.31-2.5,1.42-1.87,.03-3.25-1.1-4.55-2.17-.77-.64-1.56-1.22-2.39-1.77h0c-2.73-2.21-6.01-3.67-8.49-6.22-2.62-2.79-5.84-4.97-8.26-7.97-2.59-3.32-5.51-6.37-8.05-9.87,.21,1.05,1.76,1.86,.11,2.83Z"/><path class="cls-6" d="M151.23,120.9c1.1-2.79,2.58-5.39,4.17-7.92,1.98-3.16,3.1-6.71,4.42-10.15,1.74-4.57,2.39-9.39,3.14-14.19,.68-4.39,.51-8.82,.67-13.22,.13-3.49,.06-7.08-.25-10.61-.14-1.56-.05-3.03,1.28-4.12,.8,.96,.27,2.1,.31,3.11,.17,4.87,.16,9.74-.01,14.62-.12,3.42,.26,6.85-.31,10.26-.22,1.15-.31,2.3-.28,3.47,0,.23-.01,.46-.04,.68-.42,1.27-.29,2.63-.6,3.92-.57,.51,.08,1.09-.07,1.63-.48,1.68-.34,3.46-.78,5.14-.08,.2-.21,.36-.38,.49-1.22,2.73-1.3,5.75-2.18,8.59-1.44,4.65-3.44,8.96-6.47,12.74-.88,1.1-.77,2.73-1.91,3.49-.64,.43-1.1,2.43-2.45,.73-.89-1-.32-2.09-.19-3.16,.08-1.58,.73-3.03,1-4.57,.08-.46,.22-1.01,.92-.94Z"/><path class="cls-99" d="M105.69,177.65c-.89,1.35-.02,2.92-.55,4.43-1.12-3.85-4.39-5.25-7.4-6.89-.96-.52-1.35-1.47-2.09-2.12-4.09-3.56-7.92-7.53-12.39-10.53-4.13-2.78-8.14-5.71-12.19-8.59-1.85-1.31-3.72-2.62-5.26-4.32-.53-.58-1.19-1.39-1.98-.85-.59,.4-.14,1.35,0,2,.18,.82,.57,1.62,1.24,2.22,.46,.42,.47,.86-.05,1.26-2.13-3.37-3.35-7.14-4.75-10.83,2.55-1.26,3.21-1.07,5.25,1.37,3.4,4.07,7.37,7.53,11.49,10.83,.28,.23,.65,.29,.98,.44,1.76,.58,2.88,2.27,4.73,2.69,.2,0,.39,.03,.57,.09,1.16,.68,1.89,1.89,3.09,2.53,.69,.53,1.27,1.18,1.91,1.77,1.36,1.39,2.99,2.45,4.36,3.82,3.59,2.82,7.07,5.77,10.84,8.36,.85,.58,1.34,.76,1.56-.45,.11-.21,.28-.34,.51-.39,.25,.05,.42,.19,.53,.42,.29,.97,.45,1.93-.38,2.74Z"/><path class="cls-80" d="M162.93,108.34c.33,2.67-1.43,5.1-.87,7.8,0,.14,0,.29,0,.43-1.51,5.87-3.04,11.73-5,17.46-.19,.54-.28,1.12-.63,1.6-.63,.46-.37,1.13-.43,1.73-1.55,3.57-2.51,7.37-4.33,10.83-3.15,6.23-6.23,12.53-10.16,18.29-2.52,3.7-5.1,7.39-8.14,10.76-2.78,3.07-5.52,6.22-8.51,9.05-4.8,4.54-9.68,9.09-15.63,12.22-.81,.42-1.7,.79-2.18,1.67-.62,.14-1.27,.21-1.86,.42-3.13,1.15-4.85,.62-6.8-2.16,.28,.07,.64,.05,.82,.22,3.15,3.03,5.94,1.31,8.82-.54,3.79-2.43,7.24-5.27,10.77-8.06,5.79-4.57,10.75-9.91,15.35-15.57,2.78-3.43,5.22-7.15,7.68-10.84,3.56-5.33,6.38-11.02,9.01-16.83,2.16-4.78,3.82-9.74,5.51-14.69,1.4-4.09,2.51-8.27,3.74-12.4,.96-3.22,1.83-6.57,1.98-10.01,.02-.5-.05-1.02,.43-1.38,.14-.13,.29-.13,.43,0Z"/><path class="cls-8" d="M82.79,159.01c-.37,.54-.96,.6-1.28,.17-.92-1.26-2.46-1.67-3.5-2.74-2.96-1.93-5.24-4.62-7.73-7.07-2.44-2.4-4.38-5.26-6.82-7.71-1.27-1.28-1.95-3.13-2.97-4.69-.7-1.07-1.39-1.18-2.41-.89-1.31-1.98-.99-4.49-2.16-6.51-.35-1.12-.53-2.27-.45-3.45,.99-1.95,1.91-2.13,3.31-.61,.69,.74,1.19,1.59,1.42,2.61,.67,3,2.58,5.41,3.96,8.07,.13,.26,.43,.37,.67,.52,1.72,1.35,2.18,3.55,3.51,5.16,.84,1.44,2.06,2.58,3,3.94,1.04,1.49,2.22,2.88,3.4,4.26,.72,.77,1.46,1.5,2.21,2.23,.87,.9,1.75,1.77,2.65,2.64,.98,1.42,2.97,2.05,3.17,4.07Z"/><path class="cls-90" d="M58.08,136.07c.79-1.4,1.4-1.75,2.42-.03,3.23,5.44,7.51,10.04,11.85,14.6,1.86,1.96,4.13,3.52,5.67,5.78-2.21-.21-3.21-2.2-4.79-3.33-3.4-2.42-6.03-5.65-8.8-8.73-.84-.94-1.71-2.12-3.18-.74-.14,.13-.65-.12-.98-.2-.8-2.43-2-4.74-2.18-7.36Z"/><path class="cls-41" d="M162.93,108.34c-.14,0-.29,0-.43,0,0-1.44,0-2.89,0-4.33v-.43c.86-1.64,.4-3.5,.87-5.2,.14-.43-.5-.87,0-1.3,.42-1.42,.55-2.86,.43-4.33v-.43c.25-1.14,.56-2.28,.43-3.47,.4-3.28-.12-6.6,.13-9.83,.35-4.51,.13-9,.28-13.49,.06-1.61-.57-3.23,.02-4.84,.06-.8,.41-1.29,1.28-1.24-.76,6.43-.36,12.89-.39,19.33-.04,8.52-.63,16.99-2.14,25.39-.25,1.39,.41,2.87-.48,4.18Z"/><path class="cls-113" d="M71.95,165.96c1.09-1.09-.39-1.59-.56-2.39-.1-.47-1.11-.84-.27-1.38,.49-.31,.88,.2,1.21,.62,1.76,2.25,3.54,4.49,5.32,6.73,.87,1.1,2.22,1.83,2.54,3.35-.32,.07-.64,.06-.59,.58,.04,.4-.07,.88-.71,.72-2.5-2.58-4.88-5.27-6.93-8.23Z"/><path class="cls-128" d="M137.38,159.04c-1.32,2.39-2.53,4.84-4.33,6.93-2.13,1.98-3.64,4.48-5.53,6.66-.32,.37-.62,.77-.97,1.13l-.45,.45c-1.7,1.61-3.27,3.34-4.93,5-.66,.45-1.08,1.27-2.01,1.3-.21-.04-.38-.14-.52-.3,.96-1.98,2.77-3.23,4.28-4.71,4.24-4.12,7.41-9.1,11.1-13.66,1.23-.88,1.57-2.55,2.94-3.3,.33,0,.62,.05,.42,.5Z"/><path class="cls-89" d="M78.88,174.19c.98-.69-.09-1.29-.11-1.95,.69-.2,.9,.56,1.41,.65,2.68,2.67,5.8,4.87,8.23,7.8-.92,.59-1.47-.15-2-.65-.54-.51-.78-.3-1.04,.21-2.67-1.48-4.49-3.87-6.5-6.07Z"/><path class="cls-80" d="M85.38,180.26c-.09-.46-.18-.92-.28-1.42,1.54-.02,1.9,1.83,3.31,1.85,2.59,2.36,5.76,3.98,8.23,6.5-1.33-.24-2.21-1.26-3.29-1.91-.82-.49-1.26-1.15-2.56-.55-1.12,.51-1.78-1.32-2.82-1.86-.66-1.07-1.59-1.88-2.6-2.6h0Z"/><path class="cls-49" d="M149.93,126.53c-.24,1-.57,1.98-.43,3.03-.81,1.33-.82,2.9-1.3,4.33-.84,.14-.66-.53-.76-.94-.81,1.41-.48,3.35-1.98,4.49-.23,.01-.4-.07-.53-.26-.25-.52-.23-1.06-.11-1.61,.49-2.25,1.7-4.25,2.18-6.5,.41-.91,.66-1.9,1.13-2.77,.73-1.36,1.33-.93,1.8,.23Z"/><path class="cls-87" d="M103.58,190.65c.92-.1,1.52-.74,2.17-1.3,.94-.55,1.71-1.41,2.89-1.5,.18,.1,.3,.25,.36,.45-.08,1.26-1.34,1.3-2,1.96-.15,.12-.31,.23-.48,.33-.59,.3-1.18,.61-1.73,.99-.15,.12-.32,.2-.5,.27-.83-.01-1.23,.87-2.02,.95-1.29-.86-2.57-1.76-3.89-2.58-.78-.49-.88-.88,0-1.32,1.17-.07,1.89,.86,2.83,1.3,.75,.35,1.44,1.03,2.37,.44Z"/><path class="cls-80" d="M98.38,198.45c-2.28-.04-3.86-1.72-5.39-2.9-1.73-1.33-4.07-2.18-5-4.46,.43,.14,.87,.29,1.3,.43,2.64,1.91,5.14,4,7.97,5.65,.47,.27,.75,.85,1.12,1.28Z"/><path class="cls-80" d="M145.17,137.37c1.38-1.72,1.06-4.19,2.61-5.88,.98,.68-.68,1.79,.42,2.41-.57,1.89-1.15,3.78-1.73,5.71-.59-.21-.58-1.08-1.3-.94-.37-.43-.37-.87,0-1.3Z"/><path class="cls-61" d="M126.54,173.75c1.46-3.11,3.98-5.4,6.16-7.96,.02-.02,.22,.11,.34,.18-1.53,2.44-3.36,4.64-5.15,6.88-.37,.47-.68,.92-1.35,.91Z"/><path class="cls-87" d="M142.14,146.47c1.02-.42,.99-1.69,1.94-2.24-.7,2.09-.86,4.36-2.38,6.14-.82,.32-.32,2.19-1.9,1.61-.3-1.45,.88-2.46,1.12-3.75,.33-.64,.54-1.36,1.21-1.76Z"/><path class="cls-123" d="M120.9,178.94c1.63-1.69,2.9-3.77,5.19-4.74-1.15,2.23-2.88,3.97-4.78,5.56-.36-.16-.66-.35-.42-.82Z"/><path class="cls-71" d="M116.97,183.71c-1.86,1.77-3.83,3.4-6.04,4.73-.25-.25-.33-.55-.3-.9,1.45-2.06,3.29-3.58,5.8-4.19,.22,.06,.4,.18,.54,.35Z"/><path class="cls-49" d="M142.14,146.47c-.08,.68-.31,1.29-.87,1.73-.39,.2-.07,1.29-1.01,.81-.35-.56-.21-1.11,.07-1.63,1.33-2.43,1.68-5.34,3.64-7.46,.11,.02,.22,.04,.32,.06-.02,2.4-1.55,4.3-2.16,6.5Z"/><path class="cls-110" d="M116.97,183.71h-.21s-.21,0-.21,0c-.38-2.12,1.52-2.48,2.65-3.44,.57-.44,1.14-.88,1.7-1.32,.14,.27,.28,.55,.42,.82-1.52,1.24-2.64,2.92-4.35,3.95Z"/><path class="cls-5" d="M139.97,152.1c.97-.18,.71-1.6,1.73-1.73-.33,1.28-.87,2.45-1.72,3.47-.47,.59-.63,1.34-1.06,1.95-.21,.33-.43,.66-.84,.79-.22-.02-.38-.13-.48-.32,.13-1.76,.73-3.25,2.37-4.16Z"/><path class="cls-80" d="M103.58,190.65c-1.09,1.01-1.95,.04-2.84-.37-.82-.38-1.57-.9-2.36-1.37-.58-.58-1.15-1.16-1.73-1.73,1.85,.31,2.96,1.9,4.56,2.65,.77,.36,1.46,.88,2.37,.82Z"/><path class="cls-63" d="M109.35,189.39c-1.45,1.27-3.14,2.17-4.89,2.94-.27-.27-.27-.55-.04-.84h0c.7-.46,1.53-.72,2.19-1.27h0c.89-.36,1.56-1.43,2.74-.83Z"/><path class="cls-104" d="M138.23,156.43c.14-.29,.29-.58,.43-.87,.39-.1,.6-.02,.43,.43-.59,1.01-.87,2.18-1.72,3.04-.15-.15-.29-.29-.44-.44-.04-.1-.08-.19-.12-.29,0-.99,.65-1.48,1.42-1.88Z"/><path class="cls-71" d="M104.42,191.49c.01,.28,.03,.56,.04,.84-.79-.09-1.16,1.65-2.19,.49,.44-.89,1.13-1.38,2.15-1.33Z"/><path class="cls-89" d="M85.38,180.25c1.29,.44,2.35,1.11,2.6,2.6-1.04-.7-1.9-1.56-2.6-2.6Z"/><path class="cls-71" d="M109.35,189.39c-1.04-.13-1.74,.84-2.74,.83,.41-.97,1.6-.96,2.18-1.71,.27-.27,.57-.27,.89-.11,.23,.31,.19,.6-.03,.9-.09,.06-.2,.09-.31,.09Z"/><path class="cls-49" d="M145.17,137.37c0,.43,0,.87,0,1.3-.29,.43-.58,.87-.86,1.3,0,0,0,0,0,0-.66-1.18-.88-2.22,.87-2.6h0Z"/><path class="cls-5" d="M139.1,156c-.14-.14-.29-.29-.43-.43,.36-.63,.51-1.43,1.31-1.73,0,.84-.19,1.6-.88,2.16Z"/><path class="cls-105" d="M109.66,189.29c-.02-.29-.04-.58-.06-.87,.09-.84,.62-1,1.34-.87,0,.3,0,.6,0,.9-.43,.28-.85,.56-1.28,.85Z"/><path class="cls-107" d="M52.91,114.84c.1-4.7-1.11-9.31-.94-14.01,0-.24-.24-.49-.37-.74-.78-.82-.68-1.86-.69-2.85-.01-3.88-.03-7.76,0-11.64,.35-1.51-.44-3.22,.75-4.59,.64-.13,1.29-.04,1.93,0,2.34,.16,3.52,1.54,3.24,3.89-.57,4.82-.56,9.67,0,14.44,.67,5.7,2.02,11.33,4.27,16.67,.81,1.93,1.62,3.86,1.49,6.02-.01,.58-.03,1.17-.16,1.74-.71,1.69,.24,3.72-1.15,5.76-1.76-5.65-4.14-10.63-6.16-15.9-.73,.69-.91,2.07-2.2,1.2Z"/><path class="cls-87" d="M51.57,85.37c0,4.91,.02,9.81,.03,14.72,0,.85,0,1.71,0,2.99-1.22-3.5-2.46-6.52-3.3-9.64-.84-3.13-1.47-6.35-1.87-9.56-.58-4.73-.91-9.49-1.28-14.25-.12-1.48,.55-2.88,.56-4.39,0-1.95-1.93-3.88-3.82-3.68-1.71,.18-.99,2.01-1.99,2.61,.06-2.77,.31-3.02,3.1-3.03,1.57,0,3.13,0,4.7,0,3.23,1.14,3.64,1.55,2.98,5.19-.9,4.94,.37,9.74,.56,14.61,.06,1.47-.36,3.02,.34,4.45Z"/><path class="cls-59" d="M52.91,114.84c.9,.08,1.34-.3,1.29-1.24-.02-.44,.07-.95,.55-1.05,.52-.1,.7,.42,.84,.81,.93,2.68,2.4,5.15,3.04,7.96,.24,1.06,1.08,1.97,1.6,2.97,.71,1.36,.82,2.89,1.02,4.9,.66-2.07-.22-3.77,.7-5.25,.68,.6,.62,1.42,.59,2.19-.14,3.26,.3,6.4,1.87,9.31,.24,.44,.38,.93,.18,1.44-.25,.35-.63,.51-.8,.04-1.14-3.2-3.82-5.68-4.2-9.27-.09-.85-1.05-1.68-1.75-2.38-1.28-1.27-1.54,.66-2.38,.85-1-2.72-1.23-5.59-1.71-8.41-.07-.42-.05-.85-.43-1.14,.08-.63-.15-1.18-.42-1.72Z"/><path class="cls-87" d="M39.9,66.32c-.64-.72-.64-1.44,0-2.17,.07,.72,.61,1.44,0,2.17Z"/><path class="cls-87" d="M163.79,59.82c-.39,.94-1.24,.92-2.02,.88-2.16-.11-2.5,1.17-2.28,2.88,.33,2.5,.56,5.01,.47,7.54-.16,4.53-.12,9.08-1.39,13.48-.36,1.27-.07,2.5-.35,3.78-.87,3.94-2.02,7.77-3.23,11.62-.48,1.54-1.82,2.7-1.7,4.49-.58-.41-.24-.94-.36-1.36-.54-.48-.63-1.13-.63-1.78-.01-4.32-.21-8.64,.11-12.96,.52-6.26,2.54-12.36,1.79-18.79-.23-1.97-.19-4-.43-6-.28-2.37,.83-3.44,3.98-4.03,.22-.05,.45-.07,.68-.06,1.27,.21,2.55,.32,3.83,.01,.43-.1,.86-.11,1.27,.08,.08,.07,.16,.15,.24,.22Z"/><path class="cls-55" d="M152.98,87.97c0,5.05-.01,10.1-.02,15.16-.83,1.07-.23,2.33-.44,3.48-.86,.69-.92,2.14-2.25,2.4-.21-.04-.38-.14-.52-.3-.22-.39-.22-.8-.15-1.23,.17-.61,.23-1.23,.2-1.86-.35-2.01,.52-3.93,.45-5.92-.03-.92,.01-1.85-.28-2.74,.66-4.56-.32-9.17,.43-13.73,.28-1.71,.56-1.89,2.47-1.28,.8,2,.31,4.01,.11,6.03Z"/><path class="cls-34" d="M150.36,108.78c.77-.67,.71-2.16,2.15-2.16-.43,4.33-.87,8.66-1.3,12.99-1.08-.46-1.09,.19-1.21,1-.15,1.11-.45,2.21-.84,3.27-.18,.47-.27,1.19-1.12,.88-.4-.5-.42-1.09-.43-1.69,.65-4.4,1.86-8.7,2.19-13.15,.03-.44,.26-.82,.54-1.15Z"/><path class="cls-67" d="M148.2,124.8c.81-1.43,1-3.06,1.31-4.63,.27-1.35,.78-1.45,1.71-.58,0,.43,0,.87,0,1.3-.47,1.87-1.17,3.68-1.3,5.63-.5-.36-.97-1.37-1.41,.12-.26,.87-.35,1.87-1.18,2.49-.4-.34-.49-.8-.54-1.29,.05-1.21,.05-2.44,1.4-3.05Z"/><path class="cls-43" d="M164.66,58.1c.29,0,.58,0,.86,0-.43,.73-1,1.31-1.73,1.72,0,0,0,0,0,0-.14-.12-.22-.26-.27-.44,0-.18,.03-.35,.11-.5,.3-.31,.68-.52,1.03-.78Z"/><path class="cls-42" d="M156.43,135.63c1.26-4.4,2.42-8.84,3.81-13.2,.62-1.95,.21-4.22,1.82-5.86-.14,3.49-1.28,6.74-2.35,10.02-.83,2.55-1.63,5.12-2.38,7.7-.17,.59-.31,1.09-.9,1.35Z"/><path class="cls-42" d="M151.66,148.2c1.29-3.67,2.34-7.44,4.33-10.83-1.06,3.76-1.92,7.61-4.33,10.83Z"/><path class="cls-117" d="M61.13,80.21c.57-.01,1.14-.02,1.7-.03,.86-.81,2.07-.4,3.03-.88,2.38-.76,4.91-.63,7.32-1.24,2.03-.37,4.06-.72,6.05-1.31,2.59-.78,5.26-1.26,7.82-2.15,2.48-.66,4.91-1.47,7.38-2.18,5.26-2.6,10.49-2.7,15.7,.16,.25,.13,.54,.18,.81,.27,1.43,.59,2.96,.84,4.43,1.31,2.15,.63,4.3,1.29,6.5,1.73,2.37,.53,4.74,1.01,7.16,1.26,.98,.37,2.05,.21,3.05,.45,.77,.26,1.57,.28,2.37,.25,.71-.01,1.42,.03,2.11,.18,2.19,.46,4.49,.14,6.62,.95,1.02,1.01,.12,1.45-.59,1.93-2.5,1.72-2.39,1.78-1.4,4.72,.58,1.71,1.86,3.54,.38,5.46-.53,.2-.87-.77-1.53-.15-2.38,2.23-5.7,3.55-6.73,7.07-.38,.5-.91,.79-1.44,1.1-1.57,.89-2.99,1.99-4.35,3.19-1.8,1.47-1.85,1.48-2.78,.32,.27-1.77,.52-3.55,.03-5.32-.17-.62,.03-1.15,.32-1.63,1-1.63,1.08-3.37,.69-5.18-.31-1.03-.89-1.97-1.01-3.08-.06-.56,.3-1.46-.2-1.6-.78-.21-1.96-.48-2.5,0-1.36,1.2-3.22,.83-4.66,1.91-.83,.62-1.13,.8-.62,1.66,1.2,2.02,1.22,4.67,3.28,6.24,.78,.85,1.78,1.36,2.89,1.2,1.54-.21,1.89,.68,2.04,1.85,.16,1.3-.08,2.59-.31,3.86-.1,1.65-.93,3.04-1.64,4.47-.39,.74-.88,1.41-1.28,2.15-1.07,1.88-2.43,3.55-3.99,5.04-.39,.38-.77,1.26-1.5,.34-.31-1.8,.05-3.63-.21-5.43-.25-.48-.32-1.03-.65-1.48-1.47-1.25-.34-2.67-.28-4.03-.04-1-.27-1.94-.7-2.84-.92-1.7-2.22-3.14-3.3-4.73-.93-1.36-2.18,.12-2.57,.57-1.31,1.51-3.1,2.5-4.26,4.12-.2,.28-.1,.52,.09,.76,1.96,1.48,3.34,3.63,5.57,4.79,.78,.38,1.57,.72,2.45,.35,1.75-.73,2.68,.13,3.29,1.66,.14,.54,.48,1.03,.44,1.62,.02,1.41,0,2.81,0,4.22,.14,1.91-.68,3.5-1.65,5.04-.64,1.02-1.58,1.86-1.91,3.08-.18,.49-.31,.99-.54,1.45-.57,.8-1.14,1.18-1.48-.14-.21-.81-.47-1.6-.74-2.39-.44-.83-.87-1.67-1.28-2.51-.59-1.26,.54-2.57-.09-3.83-.15-.25-.31-.5-.48-.74-1.62-2.49-4.52-3.22-6.81-4.77-.69-.47-2.08,1.14-2.16,1.83-.25,2.05-1.69,3.6-1.97,5.57-.03,.24,.2,.34,.38,.44,1.6,.6,3.28,.97,4.81,1.77,1.31,.68,2.64,.19,3.95-.13,.82-.11,1.67-.77,2.42,.16,.54,.86,.98,1.78,1.41,2.71,1.36,3.83,.55,7.55-.62,11.24-.47,1.14-.52,2.44-1.23,3.5-.43,.41-.8,.18-1.17-.1-.34-.41-.49-.93-.77-1.37-.66-1.05,.04-1.91,.39-2.83,.3-.7,.44-1.41,.05-2.14-.7-2.3-2.71-3.63-4.02-5.47-.86-1.21-1.76,.05-2.07,.44-1.27,1.61-3.1,2.81-3.78,4.86,1.49,1.19,2.94,2.42,4.34,3.69,.4,.25,.84,.4,1.3,.53,.84,.32,1.71,.15,2.56,.1,.86,.13,1.15,.84,1.51,1.48,.11,.3,.16,.63,.3,.92,.36,.94,.53,1.89,.06,2.85-.22,.25-.55,.35-.71,.07-.85-1.54-2.01-1.99-3.84-1.91-2.65,.12-2.84-.02-3.85,2.48-.11,.26-.19,.54-.37,.77-.31,.23-.57,.1-.82-.12-.5-.55-.65-1.28-.95-1.93-.45-1-.74-2.07-1.28-3.03-.41-.81-.65-1.69-1.05-2.5-1.24-2.36-2.13-4.87-3.38-7.22-.37-.83-.78-1.64-1.22-2.44-1.38-2.35-2.54-4.82-3.97-7.15-.67-1.28-1.52-2.46-2.15-3.78-.29-.6-.52-1.22-.55-1.89,.12-.98,.07-1.96,.08-2.94,.03-.85-.1-1.72,.21-2.55,.02-.05,.08-.08,.11-.12-.31,.03-.11,.33-.25,.47-.22,1.4,.09,2.8-.2,4.18-1.05,.88-1.38-.22-1.72-.75-1.1-1.69-2.17-3.4-3.3-5.07-.76-1.35-2.12-2.33-2.5-3.93,.61-1.67,.58-3.32-.16-4.94-.68-1.48-1.79-2.73-2.21-4.35-.2-.79-2.46-.55-3.28,.53-.68,.89-1.34,1.19-2.34,.8-1.27-.06-.46,1.53-1.39,1.74-.33,.08-.63,.02-.87-.24-.1-3.03,.7-5.96,1.11-8.92,.39-2.79,.5-2.81-2.44-3.04-.99-.08-2.29,.22-2.41-1.4Z"/><path class="cls-62" d="M61.13,80.21c.74,1.34,2.03,.79,3.1,.82,2.83,.08,3.14,.54,2.46,3.17-.79,3.08-.71,6.33-1.67,9.39-.6,.62-.55,1.17,.01,1.84,1.09,1.3,2.09,2.67,3.22,3.95,.47,.48,.91,.98,1.51,1.32,1.37,.73,2.79,.77,4.25,.28,1.24-.5,1.82,.3,2.43,1.16,.45,.64,1.08,1.16,1.39,1.9,.33,.55,.71,1.08,1.05,1.63,1.07,1.72,1,1.85-1.16,1.97-1.67-.02-3.34-.07-4.99,.25-2.54-1.15-4.47,0-6.3,1.64-.51,.46-.91,1.12-1.72,1.13-.77-.2-1.28-.76-1.46-1.47-1.21-4.64-3.16-9.14-2.48-14.11,.25-1.81-.52-3.53-.42-5.36,.07-1.31,.14-2.54,.67-3.77,1.02-2.38,.67-2.96-1.9-3.58-.7-.17-1.43-.22-2.13-.36-.79-.16-1.61-.32-1.54-1.42,.55-.29,1.15-.12,1.72-.17,1.03-.1,2.08,.21,3.09-.19,.3,0,.59,0,.89-.01Z"/><path class="cls-96" d="M50.73,59.82h1.73c.67-.4,1.42-.24,2.11-.19,3.24,.2,6.45-.29,9.66-.49,3.41-.22,3.46-.26,4.42,2.91,.15,.48,.32,.96,.41,1.45,.15,.87-.43,1.29-1.06,1.66-.67,.4-1.37,.77-1.7,1.54-.94,1.8,1.24,2.42,1.43,3.78-1.19,1.68-1.51,3.53-1.07,5.53,.61,2.75-.46,3.94-3.25,3.68-.48-.04-.96-.38-1.43,.04-.45-.07-1.26,.15-1.12-.59,.77-3.94-.02-7.89,.24-11.83,.08-1.21,.03-2.4,.33-3.62,.53-2.15-.66-3.68-2.85-3.38-2.66,.36-5.25-.28-7.87-.06-.14-.1-.19-.19-.14-.29,.05-.1,.09-.14,.14-.14Z"/><path class="cls-37" d="M50.73,61.12c3.93-1.38,6.11,.52,6.37,4.44,.27,4.07-1.53,7.99-.35,12.07,.63,2.19-1.02,2.23-2.56,2.12-1.17-.68-1.27-1.9-1.34-3.02-.13-2.23-.25-4.43-.78-6.62-.3-1.23-.3-2.66,.2-3.83,.97-2.25,.77-3.98-1.55-5.15Z"/><path class="cls-92" d="M50.73,61.12c3.02,.69,3.49,1.19,2.52,4.05-.83,2.47-.69,4.71-.09,7.19,.58,2.39-.13,5.03,1.03,7.39-.27,.02-.55,.05-.82,.07,0,.13-.01,.25-.02,.38h3.9c.12,.11,.15,.21,.1,.29-.05,.08-.1,.12-.15,.12-.57,0-1.14,0-1.71,.01-1.08,.76-2.3,.38-3.47,.41-.84,1.38-.22,2.9-.45,4.34-1.1-1.71-.96-3.81-1.13-5.61-.32-3.46-.53-6.94-.9-10.41-.16-1.53,.62-2.99,.68-4.6,.06-1.77-.13-2.74-1.98-2.99-.21-.03-.37-.41-.55-.63,.43,0,.87,0,1.3,0,.58,0,1.15,0,1.73,0Z"/><path class="cls-104" d="M62,79.74c.63-.71,1.47-.35,2.23-.42,1.91-.17,2.56-1.15,1.94-2.95-.74-2.15-.11-4.79,1.46-6.15,.22-.27,.53-.39,.86-.45,.67-.06,1.29,.09,1.85,.48,.82,.83,1.3,1.91,1.68,2.96,.62,1.71,1.62,2.44,3.42,1.95,.28-.08,.57,0,.82,.16-.01,1.97-2.01,2.08-2.97,3.16-2.37,.98-4.98,.66-7.41,1.3-1,.29-1.99,.3-2.99,0-.3,0-.6-.02-.89-.03Z"/><path class="cls-39" d="M50.73,59.82c0,.14,0,.29,0,.43-3.47,0-6.93,0-10.4,0,1.76-.92,3.64-.29,5.46-.41,1.64-.11,3.29-.02,4.94-.02Z"/><path class="cls-11" d="M62.89,79.77c1,0,1.99,0,2.99,0-.93,.79-2.03,.26-3.04,.4,.02-.14,.04-.27,.06-.41Z"/><path class="cls-11" d="M57.2,80.61c.01-.14,.03-.27,.05-.41,1,0,1.99,.01,2.99,.02-.93,.77-2.03,.25-3.04,.39Z"/><path class="cls-57" d="M134.77,56.36c-1.01,0-2.02,0-3.03,0-.1,.01-.2,.03-.3,.05-.9,.07-1.8,.04-2.7-.03-.2-.02-.4-.07-.6-.12-.69-.24-1.41-.2-2.13-.21-.75,0-1.47-.15-2.14-.49-3.64-1.1-7.32-1.98-11.44-2.33,.68,1.55,1.82,2.41,2.78,3.39,.85,.87,1.48,1.77,1.12,3.06-1.22,1.74-1.99,3.64-2.07,5.8-.42,.74-.86,1.38-1.73,.48-.1-1.18,.2-2.45-.66-3.48-.33-.39-.59-1.28-1.25-.74-.59,.47-.54,1.32-.05,1.95,.4,.52,1.24,.39,1.7,1.1-.55,.97-1.52,.72-2.39,.77-.45-.04-.87-.14-1.22-.44-.74-1.27-.43-2.62-.28-3.95,.11-.97,.44-1.98-.48-2.78-.12-.18-.18-.38-.2-.6,.89-2.07,.72-2.54-1.54-3.04-3.3-.73-6.38-.01-9.29,1.66-.79,.46-.72,.95-.55,1.77,.51,2.44,.85,4.92-.07,7.37-.47,.2-.84,.09-1.1-.36-.8-1.77,.09-3.73-.58-5.51-.14-.27-.25,.26-.05,.05,.33,.65,.54,1.3-.09,1.9-.54-.01-.83-.43-.81-.83,.11-2.05-1.17-2.66-2.86-2.89-.19-.13-.23-.31-.25-.53-.11-1.18,2.07,.35,1.63-1.46-.27-1.1,1.13-1.75,1.5-2.92-1.73-.57-3.3-.03-4.89,.52-1.39,.49-2.79,1.27-4.3,.28,.09-1.29,1.36-.27,1.78-.91h0c.86-.32,1.81-.35,2.6-.86h0c2.48-.62,4.92-1.4,7.36-2.17,.43-.14,.87-.29,1.3-.43,1.29-.47,2.7-.57,3.9-1.3h0c1.85-.77,3.63-.36,5.31,.47,1.09,.54,2.23,.87,3.36,1.26,0,0,0,0,0,0,.91,1.44,2.58,1.24,3.89,1.68,6.6,2.2,13.39,3.61,20.29,4.46,.18,.02,.34,.24,.52,.36Z"/><path class="cls-68" d="M84.52,53.76c1.15,.06,2.3,.04,3.36-.47,2.08-1.01,4.22-1.49,6.41-.81,.87,1.87-3.3,2.44-1.1,4.63-.81,.43-1.93-.4-2.55,.68,1.18,.98,.95,2.27,.79,3.55-.06,.28,.07-.04-.05,.2-.43,.86,.15,2.4-1.09,2.56-1.03,.14-1.13-1.31-1.65-2.05-.38-.54-.82-1.01-1.5-1.16-1.59-1.03-3.62-.56-5.22-1.53,.24-.13,.48-.34,.74-.38,.62-.1,1.25-.13,1.88-.19-.84-.9,.37-1.97,.03-2.54-.59-.97-1.77-1.12-3.03-.86-4.33,.87-8.63,1.9-13.05,2.26-.14-.11-.2-.24-.15-.42,.15-.2,.41-.27,.59-.45,1.44-.14,2.89-.29,4.33-.43,1.65-.96,3.57-.93,5.34-1.44,.82-.24,1.69-.33,2.46-.72,.14,0,.29,0,.43,0,.99-.3,1.95-.78,3.03-.43Z"/><path class="cls-15" d="M110.07,49.86c-.93,.02-1.86,.04-2.7-.47-1.84-1.13-3.86-1.41-5.97-1.26,1.33-1.04,2.75-1.02,4.26-.41,1.52,.62,3.08,1.13,4.41,2.14Z"/><path class="cls-15" d="M81.05,54.19c-1.58,1.42-3.72,1.05-5.54,1.69-.72,.25-1.5,.32-2.26,.47,.38-1.58,1.79-.67,2.67-1.06,1.6-.71,3.36-1.01,5.13-1.1Z"/><path class="cls-15" d="M96.21,49.86c-2.32,1.18-4.76,1.94-7.36,2.17,2.37-1.02,4.78-1.87,7.36-2.17Z"/><path class="cls-15" d="M84.52,53.76c-1,.25-1.98,.57-3.03,.43,1.39-1.16,3.06-1.28,4.77-1.3-.37,.7-1.36,.17-1.73,.87Z"/><path class="cls-15" d="M68.92,56.79c-.14,.14-.29,.29-.43,.43-.65,.52-1.52-.11-2.17,.43-1.01,0-2.02,0-3.03,0,1.81-.76,3.71-.89,5.63-.86Z"/><path class="cls-15" d="M101.41,48.13c-1.03,1.25-2.5,1.17-3.9,1.3,1.19-.77,2.5-1.16,3.9-1.3Z"/><path class="cls-15" d="M88.85,52.03c-.68,.84-1.63,.9-2.6,.86,.75-.64,1.65-.83,2.6-.86Z"/><path class="cls-74" d="M81.92,59.37c2.02-.16,4-.14,5.56,1.45,.96,.54,1.22,1.51,1.56,2.45,.35,.99,.44,2,.26,3.04-.76,2.64-2.54,4.08-5.22,4.46-.8,.02-1.6,.03-2.4-.03-.58-.06-1.12-.25-1.59-.61-.45-.35-.85-.75-1.25-1.17-1.01-1.76-2.46-3.43-1.15-5.66,.67-2.11,2.29-3.2,4.23-3.95Z"/><path class="cls-74" d="M65.85,66.76c-.2-.88,.1-1.41,1-1.69,.72-.23,1.38-.63,2.07-.96,1.5-1.29,3.2-2.12,5.21-2.18,.84-.17,.8,.72,1.24,1.03,.38,.2,.65,.49,.66,.95-.13,.64-.61,.96-1.15,1.15-1.43,.5-1.36,1.44-.79,2.55,.52,1.68,1.55,3.16,1.96,4.88-.58,1.49-1.9,1.62-3.22,1.77-1.32-1.53-1.81-3.53-2.93-5.17-.32-.95-.73-1.68-1.96-1.18-.59,.24-1.23,.24-1.84-.05-.38-.3-.52-.65-.24-1.1Z"/><path class="cls-39" d="M74.13,61.93c-1.65,.93-3.4,1.64-5.21,2.18-.84-.8-1.04-1.93-1.17-2.95-.2-1.56-1.03-1.84-2.36-1.79-4.31,.15-8.6,.69-12.93,.45,.24-.14,.49-.4,.72-.39,4.73,.23,9.39-.61,14.08-.89,2.33-.14,4.61-.63,6.97-.67,1.78-.03,1.69,.49,1.11,1.66-.4,.8-.26,1.88-1.22,2.4Z"/><path class="cls-19" d="M75.7,63.76c-.11-.26-.23-.53-.34-.79,.91-.79,1.38,1.34,2.33,.35-.12,2.06,.46,3.92,1.61,5.61,.16,.43,.43,.8,.73,1.14,.58,.64,1.4,.83,2.15,1.15,1.01,.28,2.01,.33,3-.09,.45-.22,.9-.43,1.41-.45,.31,0,.61,.06,.88,.23,.37,.35,.22,.74,.07,1.13-.09,.18-.22,.33-.37,.46-.56,.19-1.15,.22-1.72,.36-3.79,.53-6.81-.38-8.08-4.43-.27-.86-.93-.98-1.65-1.06-.96-1.1,.9-1.86,.34-2.91-.06-.26-.04-.55-.34-.7Z"/><path class="cls-98" d="M66.32,57.66c.61-.72,1.44-.33,2.17-.43,0,.14,0,.29,0,.43-.72,0-1.44,0-2.17,0Z"/><path class="cls-35" d="M101.84,23.86c-.14,0-.28,0-.42,.01,0-.15,0-.31,0-.46,0-.13,0-.26-.01-.39,0-.16,.02-.31,.03-.47,.15,0,.3,0,.45,.01,.27-.15,.54-.29,.82-.44,.17,.17,.33,.34,.5,.5-.16,.27-.32,.54-.48,.81,0,0-.2,0-.2,0,0,0-.2-.01-.2-.01-.16,.14-.31,.29-.47,.43Z"/><path class="cls-72" d="M164.66,58.1c-.29,.29-.58,.58-.87,.86-2.54,1.19-5.22,.36-7.83,.55-4.66,.33-9.31-.3-13.96-.43-.72-.02-1.44-.11-2.14,.06-1.32,.31-2.33,.88-1.82,2.52,.35,1.11-.04,1.96-.92,2.64-1.02,.61-.98,2.13-2.2,2.57-.86-.37-.91-1.2-1.09-1.95-.22-.88-.61-1.59-1.56-1.86-.9-.37-1.7-.9-2.47-1.49-.84-.79-1.19-1.79-1.13-2.91,.07-1.17,.79-2.1,1.89-1.87,1.98,.41,3.99-.09,5.93,.44,1.69,.61,3.5-.15,5.2,.43,2.13,.62,4.36-.17,6.5,.43,4.29,.06,8.56,.66,12.87,.46,1.22-.06,2.42-.1,3.6-.45Z"/><path class="cls-31" d="M136.5,57.22c-1.56,.03-3.15,.26-4.67,.03-2.72-.4-3.22,.87-2.22,3.31,.15,.37,.54,.64,.82,.95-1.33,1.27-1.22,3.47-2.93,4.49-.91-.31-.93-1.12-1.07-1.87-.22-1.22-.72-2.25-1.93-2.79-1.41-1.01-2.92-1.84-4.44-2.67-.81-1.7,.04-3.54,1.8-3.79,.67-.09,1.41-.24,2.07,.16,.67,.41,1.41,.48,2.17,.43,.64,.53,1.52-.08,2.17,.43,.14,0,.29,0,.43,0,.95,.58,2.08-.13,3.03,.43,1.43,1.14,3.33-.28,4.77,.87Z"/><path class="cls-31" d="M148.2,58.09c-2.16-.25-4.39,.52-6.5-.43,2.16,.25,4.39-.52,6.5,.43Z"/><path class="cls-31" d="M141.7,57.66c-1.73-.22-3.53,.47-5.2-.43,1.73,.22,3.53-.47,5.2,.43Z"/><path class="cls-99" d="M126.56,159.85c-.09,.17-.18,.34-.28,.51-1.14-2.4-2.6-1.08-3.69-.13-2.06,1.77-3.41,3.99-4.17,6.71-.58,2.08-2.34,3.71-2.99,5.9-.85,2.86-2.91,5.18-3.73,8.11-.59,2.12-3.27,2.85-5.55,1.81-.07-1.2-.1-2.38,1.1-3.14,1.64-.61,2.74-1.82,3.53-3.32,1.9-3.62,3.71-7.28,5.34-11.03,1.69-3.9,4.47-6.99,7.66-9.71,1.32-1.13,1.8-.88,2.13,.77,.13-.97-.48-1.9-.28-2.91,.12-.61,0-1.52,1.14-1.19,.27,.41,.36,.87,.37,1.35,0,1.76,.07,3.51-.05,5.26-.06,.39-.2,.75-.52,1.01Z"/><path class="cls-34" d="M145.16,137.37c-1.2,.56-.78,1.66-.87,2.6-1.62,2.9-2.85,5.96-3.9,9.1-.91,3.54-2.84,6.59-4.7,9.68-.18,.31-.54,.45-.93,.29-1.15,.49-1.47,1.72-2.26,2.54-1.6,1.67-4.15,1.29-5.12-.85-.12-.96,.48-1.31,1.28-1.48,2.26,.16,5.51-2.11,6.61-4.81,.46-1.13,1.03-2.2,1.52-3.31,1.17-1.44,1.87-3.18,3-4.65,1.84-2.82,2.64-6.03,3.5-9.22,.32-1.16,.3-2.63,1.97-2.92,.13,.45,.21,.89-.1,1.3,0,.58,0,1.15,0,1.73Z"/><path class="cls-45" d="M107.44,179.76c-.73,.87-.97,1.95-1.29,3-.93-1.63-.15-3.42-.46-5.11,.03-1.01,.05-2.02,.08-3.03-.55-3,.02-5.9,.86-8.76,.4-.58,.81-.5,1.16,.04,1.02,1.57,2.64,2.33,4.2,3.19,.17,.33,.27,.72,.12,1.04-1.55,3.21-2.6,6.67-4.67,9.64Z"/><path class="cls-89" d="M134.77,159.03c2.51-2.96,3.81-6.61,5.63-9.97,.29-.29,.58-.58,.87-.86,.12,1.49-1.18,2.49-1.31,3.9-.89,1.36-1.79,2.72-2.18,4.33-.44,.73-.9,1.45-1.2,2.26-.67,1.18-1.45,2.28-2.26,3.37-4.62,6.56-9.92,12.53-15.58,18.2-2.82,3.26-6.19,5.8-10,7.78-1.13,.14-1.81,1.32-3,1.32,.84-1.72,2.76-1.98,4.13-2.96,9.09-6.48,16.49-14.55,22.84-23.65,.82-1.18,1.79-2.24,2.05-3.72Z"/><path class="cls-114" d="M128.72,159.48c-.58,.27-.99,.71-1.32,1.24-.28-.29-.56-.58-.84-.87,0-.28,.01-.57,.02-.85,.29-1.86,.31-3.73-.01-5.59-.03-.43-.05-.86-.08-1.3-.25-.25-.31-.56-.31-.9,.09-.65,.25-1.27,.73-1.77,.14-.04,.37-.06,.39,.02,.84,2.52,3.1,3.93,4.64,5.9,.11,.8-.4,1.36-.77,1.98-.73,.81-1.34,1.77-2.46,2.14Z"/><path class="cls-60" d="M163.36,98.38c-.13,1.76,.58,3.66-.87,5.2,.22-1.74-.12-3.58,.87-5.2Z"/><path class="cls-60" d="M163.79,92.75c.66,1.52,.48,2.96-.43,4.33-.02-1.46-.08-2.93,.43-4.33Z"/><path class="cls-60" d="M164.23,88.85c.9,1.29,.02,2.35-.43,3.47,.07-1.16-.24-2.38,.43-3.47Z"/><path class="cls-45" d="M105.25,175.05c0,.62,.27,1.26-.22,1.99-4.44-3.02-8.67-6.28-12.74-9.75,.74-1.72,2.43-2.04,3.93-2.48,1.13-.34,2.13-.77,2.93-1.63,.33-.02,.6,.11,.82,.34,1.54,2.56,2.39,5.42,3.47,8.18,.1,.27-.06-.05,.13,.16,.12,.14,.27,.05,.29-.17,.08-.8-.07-1.62,.3-2.37,.22-.31,.47-.51,.85-.26,.53,.75,.45,1.62,.46,2.46,.1,1.19-.34,2.34-.23,3.53Z"/><path class="cls-82" d="M86.1,161.68c-1.24-.57-2.04-1.62-2.92-2.6,.58-1.73,2.25-2.18,3.59-2.95,.92-.53,1.92-.97,2.92-1.32,1.12-.39,1.54-1.15,1.62-2.22,.16-.15,.35-.22,.57-.21,1.62,.99,2.74,2.35,3.24,4.21-.08,.59-.22,1.24-.69,1.55-2.55,1.7-5.2,3.2-8.32,3.55Z"/><path class="cls-121" d="M91.46,152.48c.86,1.45,.39,2.07-1.18,2.66-2.53,.95-5.03,2.1-7.1,3.94-.13-.03-.26-.06-.39-.07-1.19-1.28-2.38-2.57-3.57-3.85,3.48,.63,5.43-2.77,8.52-3.24,.71-.11,.93-1.06,1.43-1.56,1.48-.06,2.02,.89,2.29,2.13Z"/><path class="cls-51" d="M99.24,163.36c-.3,.85-.68,1.58-1.73,1.68-1.97,.19-3.61,1.2-5.22,2.25-1.45-1.3-2.89-2.59-4.34-3.89,1.81-.38,3.3-1.79,5.09-1.96,1.75-.16,3-.82,4.05-2.1,1.42,.96,2.24,2.25,2.14,4.02Z"/><path class="cls-110" d="M97.02,159.46c-.16,1.74-1.43,2.5-2.85,2.38-1.36-.11-2.46,.43-3.3,1.06-1.02,.76-1.85,.83-2.91,.49-.62-.57-1.23-1.15-1.85-1.72,2.42-1.07,4.84-2.16,7.28-3.22,.91-.39,.95-1.36,1.44-2.03,.69,.04,1,.56,1.36,1.03,.27,.67,1.23,1.06,.83,2Z"/><path class="cls-34" d="M104.93,171.49c-.04-.83-.07-1.66-.11-2.49-.3-.28-.43-.65-.49-1.05,.02-1.93-.34-3.88,.26-5.78,1.13-1.19,2.2-1.35,3.15,.21,.35,1.17,.21,2.24-.65,3.17-.44,3.02-.89,6.05-1.33,9.07-.13,0-.26,0-.39,0-.67-.97,.04-2.14-.45-3.13Z"/><path class="cls-23" d="M104.93,171.49c.58,.98,.21,2.1,.45,3.13-.04,.14-.09,.28-.13,.42-.73-1.13-.26-2.37-.32-3.56Z"/><path class="cls-119" d="M64.61,136.88c-2.63-3.96-2.85-8.4-2.64-12.94,.02-.55,.04-1.1,.05-1.64,1.09-.68,1.33,.34,1.67,.91,.86,1.48,1.58,3.05,2.32,4.6,1.91,4.02,4.57,7.41,8.21,10,.24,.17,.4,.4,.5,.68,.02,.87-.29,1.6-1.12,1.91-1.22,.47-2.33,1.13-3.37,1.9-.79,.59-1.48,.27-2.17-.14-1.15-1.76-2.29-3.51-3.44-5.27Z"/><path class="cls-40" d="M74.53,150.4c-1.36-1.29-2.58-2.69-3.45-4.36,1.13-1.31,2.8-1.73,4.25-2.49,1.21-.63,2.54-1.07,3.18-2.43,2.27,.3,3.67,1.8,4.86,3.57-.02,.14-.02,.33-.12,.41-2.67,2.16-5.32,4.35-8.72,5.3Z"/><path class="cls-18" d="M89.34,150.21c.03,1.23-.54,2.21-1.7,2.42-1.83,.33-3.28,1.15-4.57,2.44-1.21,1.2-2.55,.62-3.85,.08-.85-.85-1.7-1.71-2.54-2.56-.09-.15-.09-.37,0-.37,3.4,.09,5.41-2.98,8.45-3.7,.75-.18,.34-1.29,1.15-1.4,1.46,.6,2.79,1.32,3.07,3.09Z"/><path class="cls-114" d="M86.3,147.31c-.07,.81,0,1.48-1.16,1.82-2.24,.67-4.42,1.79-6,3.49-1.12,1.2-1.66-.66-2.45-.04-.71-.73-1.43-1.46-2.14-2.19,2.82-1.97,5.93-3.49,8.61-5.66,1.48,.33,2.84,.81,3.15,2.58Z"/><path class="cls-28" d="M78.48,141.16c.21,.61,.52,1.2-.38,1.58-2.39,.99-4.52,2.53-7.02,3.3-1.14-1.19-2.3-2.38-3.04-3.89,2.67-.26,4.68-1.75,6.55-3.5,1.55-.5,2.3,.93,3.43,1.44,.32,.29,.56,.61,.46,1.07Z"/><path class="cls-68" d="M108.75,188.04c3.55-2.32,6.8-5.01,10-7.78,.15,0,.3,0,.45,.01-.46,1.47-2.48,1.74-2.65,3.44-2.32,.62-3.86,2.39-5.61,3.84-.45,.29-.89,.58-1.34,.87-.27,.03-.54,.05-.81,.08-.01-.16-.03-.31-.04-.47Z"/><path class="cls-104" d="M134.33,162.06c.37-1.38,1.32-2.39,2.17-3.47,.15-.21,.29-.2,.44,0h0c-.73,1.26-1.27,2.66-2.61,3.46Z"/><path class="cls-34" d="M145.17,135.64c0-.43,0-.87,0-1.3-.22-2.48,.27-4.72,2.17-6.5,0,.43,0,.87,0,1.3-.09,2.38-1.44,4.33-2.17,6.5Z"/><path class="cls-71" d="M106.61,190.21c-.47,.88-1.27,1.18-2.19,1.28,.51-.81,1.3-1.13,2.19-1.28Z"/><path class="cls-5" d="M136.93,158.59c-.15,0-.29,0-.44,0,.16-.89,.44-1.7,1.29-2.17,.15,0,.3,0,.44,0-.43,.72-.87,1.44-1.3,2.17Z"/><path class="cls-11" d="M77.97,140.43c-1.13-.59-2.25-1.18-3.38-1.78-5.5-3.27-8.21-8.66-10.85-14.14-.4-.82-.38-2.08-1.72-2.22,.14-2.15-.61-4.09-1.47-6-1.39-3.08-2.03-6.38-2.98-9.59-.63-2.14-.72-4.35-1.32-6.48-.41-1.45-.35-3.07-.31-4.61,.11-3.72-.36-7.46,.36-11.18,.35-1.81-1.07-3.04-3.07-2.82-.62,.07-1.14,.34-1.22-.57,1.07-.85,2.32-.25,3.47-.41,.92,1.61,2.63,.74,3.93,1.16,3.28,1.04,3.76,1.48,2.08,4.39-1.11,1.91-.77,3.97-.44,5.54,.61,2.86-.04,5.64,.38,8.47,.48,3.22,2.05,6.08,2.47,9.27,.05,.39,.67,.71,1.02,1.06,.69,.67,.05,1.13-.26,1.66-.3,.52-1.15,.7-.96,1.52,.32,.3,.79,.38,1.07,.73,1.5,.98,3.09,1.78,4.73,2.5,.14,.3,.14,.59,0,.89-1.03,.54-1.69,1.1-.37,2.1,1.33,1.01,1.66,2.59,2.15,4.07,.01,1.05-.78,1.75-1.14,2.64-.29,.7-1.04,1.35-.37,2.22,.66,.09,1.22,.37,1.64,.9,.85,.9,2.3-.72,3.03,.71,.47,.52,1.09,.8,1.75,1,.69,.24,1.41,.14,2.11,.24,2.38,.33,3.43,1.52,3.49,3.95-.2,1.78-1,3.22-2.47,4.27-.42,.26-.73,.78-1.35,.54Z"/><path class="cls-33" d="M163.79,59.39v.43c-.43,0-.87,0-1.3,0-1.3,.33-2.6,.33-3.9,0h-.22s-.22,0-.22,0c-1.83,.23-3.61,.81-5.48,.75-1.65-.06-2.5,.88-2.24,2.43,.8,4.79,.37,9.59,.33,14.39-.01,1.74-.44,2.65-2.33,2.31-4.07-.65-4.26-.97-3.74-5.15,.47-3.8,.07-7.61-.32-11.39-.28-2.74,.62-4.16,3.26-4.06,5.04,.19,10.07,0,15.11,.09,.36,0,.72-.03,1.03,.21Z"/><path class="cls-43" d="M148.63,79.31c1.41,.12,1.97-.28,1.52-1.86-.45-1.57,.18-3.21,.22-4.82,.07-3.3,0-6.58-.67-9.84-.3-1.45,.91-2.93,2.27-2.94,2.06,0,4.13-.02,6.19-.04-.34,.5-.89,.35-1.36,.46-2.18,.51-2.65,1.54-2.41,3.74,.61,5.64,1.22,11.28-.4,16.91-.52,1.79-.42,3.77-.58,5.66-.04,.5,.05,1.02-.43,1.37-.21-2.01,.4-4.09-.44-6.05-.57-.8-.9-1.96-2.29-1.59-.44,0-.88,.01-1.32,0-.69-.12-1.52,0-1.68-.99,.45-.3,.91-.3,1.37-.01Z"/><path class="cls-43" d="M158.59,59.82h3.9c-1.3,.69-2.6,.69-3.9,0Z"/><path class="cls-83" d="M150.36,108.78c.14,4.9-1.48,9.52-2.17,14.3-.3,2.22-1.52,4.14-2.51,6.01-1.01,1.89-1.5,3.82-2.01,5.8-.83,3.23-1.06,6.64-2.93,9.55-.36,.38-.58,1.04-1.32,.68-.55-1.02-.12-1.98,.3-2.87,.35-.73,.57-1.46,.55-2.26,0-.34,.04-.69,.11-1.02,.49-2.91,1.07-5.81,.78-8.78-.14-1.5,.25-2.87,1.01-4.13,2.9-4.79,4.55-10.07,6.16-15.37,.26-.85,.27-1.94,1.59-1.91h.43Z"/><path class="cls-20" d="M150.37,79.77c1.75-.32,2.45,.42,2.17,2.15-.9,.04-1.61-.22-1.6,1.41,.03,3.35-.71,6.67,.14,10.07,.27,1.06-.97,2.33-.72,3.68-.63,4.91-1.03,9.85-2.51,14.61-1.45,4.66-2.72,9.4-5.52,13.48-1.32,1.93-1.15,4.21-1.97,6.23-1.45-.86-1.83-2.16-1.07-4.19,.64-1.68,1.55-3.25,2.36-4.85,3.25-6.42,5.18-13.21,5.96-20.35,.29-2.63,.71-5.23,.78-7.92,.08-3.41-.14-6.75-.62-10.1-.22-1.54-.15-2.91,1.6-3.53,.26-.33,1.18,.31,.99-.68Z"/><path class="cls-20" d="M140.4,131.3c-.61-2.59,.44-4.79,1.72-6.88,3.78-6.15,5.35-13.06,6.79-19.99,.33-1.61,.77-3.35,.46-5.09-.16-.91,.38-1.63,1-2.26,.83,1.61,.5,3.3,.2,4.93-.23,1.25-.34,2.47-.2,3.73-.59,.47-.2,1.18-.43,1.73v1.3c-.49,.23-.76,.6-.86,1.15-.87,4.67-3.02,8.9-4.59,13.33-.35,1-.97,1.76-1.57,2.52-1.97,2.49-.75,5.4-1.21,8.08-.3,1.75-.27,3.55-.88,5.25-.63,.13-.74-.34-.76-.76-.13-2.2,.14-4.41-.12-6.62-.02-.18,.25-.33,.45-.42Z"/><path class="cls-83" d="M149.93,107.48c-.44-.72-.49-1.35,.43-1.73-.06,.6,.2,1.28-.43,1.73Z"/><path class="cls-50" d="M140.4,144.3c2.12-4.23,2.25-8.99,3.62-13.41,.53-1.69,1.56-3.37,2.52-4.92,.59-.95,1.07-1.95,1.65-2.9,0,.58,0,1.16,0,1.73-.5,.95-1.03,1.89-.87,3.03-1,2.07-1.52,4.31-2.17,6.5-1.94,2.88-1.79,6.5-3.38,9.52-.56,1.05-.69,2.34-1.82,3.05-.83-1.03,.28-1.73,.43-2.6Z"/><path class="cls-96" d="M148.63,79.31c-.44,0-.88,.01-1.32,.02-1.29,.91-2.58,.81-3.88,.01-2.32-.31-4.7-.22-6.98-.87,.08-.14,.2-.2,.36-.19,.02,0,.03-.02,.05-.03-2.54-.48-4.9-1.23-6.13-3.84-.24-.51-.73-.22-1.15-.09-.83,.25-1.69,.57-2.28-.43,.04-.34,.29-.5,.56-.65,.85-.32,1.27-1.17,2-1.64,.62-.33,1.18-.27,1.66,.27,.48,.66,.78,1.42,1.18,2.12,.43,.88,1,1.62,2.07,1.61,1.2,0,1.43-1.05,1.76-1.89,.57-1.47,1.33-2.85,1.91-4.3,.43-1.07,.83-2.16,0-3.24-.41-.9-1.67-1.02-1.92-2.07,.67-.58,1.57-.92,1.05-2.22-.9-2.26,0-3.43,2.61-3.36,7.87,.21,15.74,.65,23.63,.46,0,.14,0,.29,0,.43-5.32,0-10.64,0-15.95,0-2.5,0-3.63,1.49-2.7,3.76,.49,1.19,.37,2.46,.28,3.51-.27,3.12,.66,6.24-.2,9.37-.5,1.81-.04,3.33,2.47,2.88,.28-.05,.62,.26,.94,.4Z"/><path class="cls-131" d="M68.09,99.65c-1.57-1.81-3.14-3.61-4.7-5.4,.3-.84,1.1-.4,1.63-.67,.29-.02,.58-.04,.86-.06,.37-.42,.18-.94,.23-1.41,.08-.68,.3-1.11,1.07-.65,.85,.58,1.57,.83,1.72-.61,.05-.49,.23-1.27,.79-.95,1.52,.86,2.13-.53,3.38-1.3-.36,2.7,1.6,4.25,2.33,6.33,.44,2.27,.92,4.54-1.61,6.01-2.12,.53-4,.03-5.7-1.28Z"/><path class="cls-131" d="M119.6,95.8c-1.28-.86-1.73-2.18-2.22-3.56-.59-1.68-1.42-3.27-2.19-5,1.26-.07,2.95,.84,3.27-1.39,.05-.32,.61,0,.93,.12,.38,.15,.77,.29,1.16,.44,.83-2.87,3.77,.06,5.05-1.95-1.04,2.1-.09,3.88,.48,5.7,.55,1.43,.18,2.85-.3,4.16-.97,2.65-3.33,3.16-6.18,1.48Z"/><path class="cls-74" d="M97.08,117.41h-1.33c.28-1.23,2.64-1.77,.91-3.39-.25-.23,.13-.53,.39-.59,1.9-.39,1.62-1.51,.83-2.9,1.8-.06,2.28-1.24,2.4-3.3,2.23,3.38,6.43,3.37,8.11,6.68,.64,1.32-.07,2.45-.51,3.62-.37,.64-.94,1.01-1.65,1.18-1.73,.71-3.44,.67-5.11-.17-1.27-.64-2.63-.96-4.04-1.15Z"/><path class="cls-74" d="M104.06,101.79c-.39-.31-.78-.61-1.35-1.06,1.09-.62,3.03-.48,2.31-2.5,1.74,0,2.29-2.17,3.29-2.33,1.39-.22,1.83-1.16,2.97-2.01,.04,2.98,2.63,4.32,3.55,6.65-.01,1.59,.4,3.22-.4,4.75-.16,.31-.38,.55-.68,.73-2.53,1.16-4.56,.32-6.43-1.49-1.02-.98-1.78-2.29-3.26-2.73Z"/><path class="cls-131" d="M132.96,97.94c.35-2.01,1.52-3.43,3.16-4.6,1.55-1.11,3.01-2.36,4.5-3.54,.2,.38,.43,.8,.66,1.22,1.96,.56,2.45,2.47,3.54,3.83-.02,1.46-.64,2.72-1.35,3.94-1.4,1.36-3.08,2.1-5.01,2.32-1.67,.09-3.31-.04-4.88-.67-.57-.33-.89-.82-.93-1.48,0-.37,.18-.7,.31-1.03Z"/><path class="cls-36" d="M144.7,95.01c-1.67-.23-2.23-1.05-1.26-2.5-.7-.73-2.45,.4-2.16-1.5,1.08-2.05-.14-3.82-.85-5.56-1.05-2.62-.74-3.7,1.89-4.95,.52-.25,1.09-.44,1.11-1.16,1.29,0,2.58,0,3.88-.01,.48,.58,1.16,.35,1.76,.43,.21,.52-.11,.8-.48,1.06-.18,.11-.38,.2-.57,.27-1.66,.31-2.23,1.24-1.91,2.93,.87,4.5,.66,9.08,.9,13.62,.06,.21,.07,.42,.03,.63-.29,.57-.7,.79-1.31,.48-.18-.11-.33-.26-.47-.42-.91-.99-.94-2.13-.56-3.34Z"/><path class="cls-131" d="M86.18,98.79c1.57-2.7,3.27-3.67,6.34-3.03,2.07,.43,4.34-.06,6.21,1.29-2.11,1.12-1.28,3.44-2.09,5.09-.62,2.51-1.02,2.77-3.49,2.31-2.13-.05-3.81-1.29-5.66-2.1-.73-.56-1.08-1.35-1.31-2.21-.32-.44-.23-.89-.01-1.34Z"/><path class="cls-75" d="M96.2,130.02c-.31-.25-1.51-.24-.34-.95,.8-.48,2.11-.47,1.35-2.02-.23-.48,.29-.53,.64-.57,.36-.04,.71-.04,1.07-.06-.34-2.37,2.82-1.83,3.17-3.81,.97,2.97,4.53,4.09,4.94,7.39,.03,1.67-.7,2.92-2.21,3.6-1.69,.76-3.23,.24-4.6-.83-1.29-1-2.4-2.25-4.02-2.75Z"/><path class="cls-62" d="M97.88,140.97c-.04-1.92,.75-3.64,2.43-4.29,1.02-.4,2.33,.52,3.79,.12,1.1-.3,1.99,1.46,2.49,2.73,.19,.14,.32,.33,.4,.55,.22,.79,.19,1.58,.06,2.38-.21,.76-.6,1.41-1.23,1.9-.51,.13-.73-.31-1.07-.52-1.41-.87-2.7-.49-3.4,1-.27,.58-.53,1.15-1,1.6-.17,.12-.36,.19-.57,.18-.84-.32-1.15-1.08-1.51-1.8-.14-.94-.29-1.87-.63-2.77-.07-.4-.07-.78,.23-1.1Z"/><path class="cls-31" d="M75.42,67.19c.72,.23,1.57-1.57,2.27,.39,1.6,4.47,2.29,4.82,7.06,4.81,.36,0,.71,0,1.07,0-.28,1.37-1.41,.92-2.22,.96-1.29,.07-2.26,.43-2.49,1.83-.17,1.05-1.08,1.42-1.75,2-1.94,.84-3.98,1.16-6.07,1.29-.17-.11-.93-.02-.22-.45,1.2-.72,2.25-1.6,3.21-2.6-.18-.28-.04-.53,.09-.77,.38-.65,.52-1.32,.16-2.03-.08-.17-.15-.34-.2-.52-.2-1.15-.95-2.08-1.23-3.2-.13-.51-.16-1.01,.1-1.49,.07-.07,.15-.14,.22-.22Z"/><path class="cls-79" d="M87.11,72.38c0-.14,0-.28,0-.43,1.34-.91,2.25-2.17,2.91-3.63,.42-.93,.95-1.67,2.12-.92,1.72,1.85,3.74,2.55,6.24,1.86,.67-.19,1.4-.38,2.13-.24,.2,.06,.38,.16,.54,.3-.67,2.1-2.56,1.6-4.05,1.84-1.15,.18-2.38,.03-2.48,1.67-2.38,.96-4.82,1.71-7.34,2.18-.7,.35-1.12,.05-1.26-.63-.22-1.01,.3-1.64,1.2-2.01Z"/><path class="cls-124" d="M129.11,77.6c-2.54,.06-4.97-.51-7.36-1.3-.75-.58-1.6-1.04-1.65-2.2-.03-.86-.8-1.05-1.46-1.34-.78-.34-1.89-.47-1.58-1.8,.19-.1,.42-.23,.6-.16,2.78,1.04,5.4,.35,8-.69,.47,.34,.64,.81,.57,1.37-.32,.73-.25,1.44,.37,1.93,1.42,1.15,2.22,2.91,4.03,3.86-.5,.63-.98,.59-1.51,.31Z"/><path class="cls-24" d="M94.52,72.84c-.88-1.25-.5-2.1,1.09-2.16,1.43-.06,2.84-.05,4.23-.46,.52-.15,.91-.38,1.14-.87,.11-.67,.67-1.07,.96-1.63,.2-.32,.43-.6,.68-.88,.59-.36,.38-1.61,1.51-1.38,.35,.85,1.27,1.21,1.72,1.98-.14,.55-.71,.57-1.06,.86-.13,.22-.13,.45,0,.67,.8,.85,1.86,.69,2.86,.77,.32,.02,.64,.08,.95,.16,1.6,.27,3,.75,2.92,2.77-.01,.36-.08,.74-.61,.6-2.31-.32-4.4-1.33-6.52-2.17-1.44-.57-2.69-.56-4.12-.03-1.87,.71-3.83,1.19-5.75,1.77Z"/><path class="cls-22" d="M96.33,83.53c-1.68,.86-2.11-.34-2.59-1.51-.2-.5-.28-1.32-1-1.19-.79,.14-.43,.96-.4,1.45,.09,1.26-.49,1.67-1.77,1.53,0-2.07,.06-4.15-.02-6.23-.04-1.09,.4-1.39,1.38-1.29,.5,.05,1.01,0,1.51,0,2.72,.04,3.45,1.21,2,3.45-.46,.72-.38,1.03,.07,1.62,.47,.61,.81,1.35,.81,2.17Z"/><path class="cls-57" d="M108.34,70.22c-.29,0-.58,0-.87,0-.14-.23-.11-.44,.09-.62,.92-.56,1.95-.33,2.94-.39,.71-.04,1.43,.05,2.13-.2,2.44-.89,3.19-.53,4.37,2.07,.38,.8,1.12,1.1,1.89,1.25,1.15,.23,2.05,.46,1.74,2.04-.2,1.04,.91,1.24,1.6,1.66,0,0-.05,.14-.09,.16-.13,.05-.28,.07-.41,.1-2.3-.11-4.41-.94-6.53-1.72,0-.87-.32-1.69-.39-2.55-.06-.77-.58-1.27-1.3-1.11-1.84,.42-3.44-.59-5.18-.7Z"/><path class="cls-22" d="M101.73,81.27c-1.64,0-2.75-.7-3.16-2.37-.42-1.72-.31-3.39,1.14-4.53,1.27-1.01,2.81-1.04,4.25-.21,.46,.27,1.15,.72,.75,1.32-.33,.5-1.07,.77-1.67,.18-.85-.83-1.77-.87-2.33,.15-.67,1.2-.62,2.59,.37,3.61,.8,.82,1.67,.61,2.22-.52,.38-.78,.98-.42,1.46-.14,.96,.55-.01,.96-.22,1.3-.62,1.06-1.71,1.21-2.82,1.2Z"/><path class="cls-77" d="M129.11,77.6c.21-.02,.46,.03,.64-.06,.6-.31,.08-.26-.12-.39-1.77-1.17-2.9-2.95-4.21-4.56-.48-.59,.13-1.02,.76-1.18,.06,.07,.13,.13,.19,.19,.14,.79,1.17,1.15,1.03,2.08,.27,.42,.83,.61,1.11,.4,2.1-1.51,2.68,.02,3.7,1.49,1.27,1.83,3.66,1.87,5.58,2.65-.36,.42-.89,.13-1.34,.24-.71-.02-1.42-.04-2.13-.06-.67-.46-1.52,.07-2.19-.38-1.01-.12-2.1,.3-3.03-.44Z"/><path class="cls-124" d="M87.11,72.38c-.34,.89-1.96,1.81,.07,2.64-2.48,1.17-5.19,1.55-7.82,2.16,.43-1.07,1.43-1.79,1.45-3.16,0-.85,1.03-1.17,1.97-1.22,1.02-.06,2.13,.42,3.04-.41,.43-.27,.86-.27,1.3,0Z"/><path class="cls-98" d="M108.34,70.22c1.81-.19,3.58,.59,5.46,.08,.96-.26,2.01,.38,1.62,1.77-.18,.65,.07,1.07,.4,1.56,.46,.68-.05,.85-.6,.95-1.49-.26-2.98-.5-4.3-1.31,.8-2.41-1.23-2.45-2.57-3.05Z"/><path class="cls-101" d="M109.24,78.42c-.15-.58-.62-.53-1.03-.45-.61,.11-.73-.2-.74-.7-.02-.57,.09-.98,.79-.97,1.29,.01,2.58-.01,3.87,0,.38,0,.94-.16,.96,.49,.02,.43-.1,.99-.6,1-1.69,.04-1.43,1.2-1.41,2.27,.02,.86-.01,1.72,0,2.58,.02,.68-.24,1.12-.94,1.18-.98,.08-.64-.7-.69-1.18-.15-1.41,.26-2.85-.23-4.24h0Z"/><path class="cls-119" d="M85.79,116.15c1.49,2.35,2.8,4.79,3.95,7.32,.17,.47-.11,.56-.48,.58-.79-.34-1.06-1.13-1.49-1.77-1.84-2.8-4-3.48-7.21-2.46-1.26,.4-2.26,1.63-3.77,1.23-.51-.91,.23-1.36,.78-1.7,1.96-1.2,3.99-2.34,6.42-1.86,.92,.18,1.15-.1,1.11-.91,.13-.31,.3-.54,.69-.43Z"/><path class="cls-79" d="M108.81,133.05c1-3.83,1.99-7.66,.79-11.65-.2-.48,.05-.55,.44-.48,.3,.87,.61,1.73,.89,2.6,.37,1.16,.57-.09,.86-.05,.31,.06,.52,.24,.66,.51,.3,.82-.53,1.59-.1,2.42,.11,.28,.16,.56,.1,.86-.96,1.27-1.58,2.68-1.89,4.26-.14,.76-.29,1.57-1.05,2.03-.39,.05-.57-.19-.7-.51Z"/><path class="cls-98" d="M119.6,95.8c4.8,1.26,5.94,.27,6.48-5.64,.93,1.21,.92,2.86,.31,3.83-1.48,2.32-.98,4.75-1.11,7.16-.03,.56,.07,1.16-.48,1.56-.14,.18-.28,.18-.42,0,.12-1.21,.38-2.42,.32-3.62-.05-.99-.1-2.11-1.87-1.73-1.18,.25-2.57-.18-3.23-1.57Z"/><path class="cls-119" d="M116.67,114.81c1.61-1.97,3.43-3.78,4.72-6,.39-.1,.54,.14,.66,.44,.11,.53-.06,.99-.34,1.42-.38,.36-.96,.68-.28,1.29-2.64,2.33-4.54,5.34-7.06,7.79-.34-.05-.62-.15-.42-.59,.77-1.51,1.67-2.97,1.8-4.72,.47-.27,.61,.24,.91,.38Z"/><path class="cls-79" d="M78.02,107.05c.35,.04,.81,.24,1.01,.09,.41-.3-.07-.6-.22-.88-.4-.75-1.11-1.31-1.25-2.21-.22-.47,.03-.53,.42-.47,1.43,2.14,2.87,4.29,4.3,6.43,.88-.27,.57,.64,.91,.91,.16,.57,.33,1.14,.49,1.71,.21,.43-.06,.54-.4,.6-.77-.21-1.15-.84-1.48-1.47-.92-1.78-2.63-2.78-3.97-4.15-.02-.22,.05-.4,.19-.56Z"/><path class="cls-98" d="M90.97,125.69c1.15,2.46,2.3,4.91,3.45,7.37-.1,.32-.27,.54-.65,.52q-2.62-2.56-5.86-1.17c-.45,.03-.82-.07-.92-.59,.47-1.32,1.65-1.83,2.8-2.06,1.46-.29,1.57-.85,.87-1.97-.3-.48-.48-1.04-.36-1.64,.12-.31,.29-.56,.68-.46Z"/><path class="cls-21" d="M96.2,130.02c1.23-.19,2.01,.61,2.82,1.3,.83,.7,1.64,1.39,2.69,1.74,2.51,.84,3.66,.18,5.32-3.05,.79,.72,.29,1.45,.03,2.18-1.5,2.45-3.7,2.43-6.09,1.73-1.59-1.3-3.18-2.6-4.77-3.89Z"/><path class="cls-15" d="M108.81,133.05c.15,.16,.29,.33,.44,.49,.68,.9,0,1.72-.13,2.58-.16,1.01-.86,1.94-.49,3.03,.1,.29,.15,.59,.15,.9-.24,1.13-.48,2.26-1.45,3.05-.39,.04-.57-.21-.7-.52,.01-.87,.02-1.75,.03-2.62,.58-1.13-.59-2.86,1.21-3.58,.31-1.11,.62-2.21,.93-3.32Z"/><path class="cls-84" d="M97.08,117.41c.99-.77,1.98-.13,2.77,.24,2.06,.96,4.13,1.34,6.36,.85,.21,.24,.23,.48,0,.72-3.47,1.57-6.16-.83-9.13-1.81Z"/><path class="cls-51" d="M73.68,100.54c2.16-1.39,1.58-3.61,1.72-5.62,.9,1.73,1.21,3.46-.02,5.18-.23,.62-.75,.95-1.27,1.29-1.67,.84-3.23,.55-4.73-.43,1.39-.61,2.92,.22,4.3-.42Z"/><path class="cls-85" d="M124.38,102.71c.14,0,.28,0,.42,0,1.33,1.22,1.68-.75,2.62-.8,.13,.17,.2,.35,.2,.57-1.33,1.91-2.57,3.91-4.65,5.14-.34-.09-.59-.22-.37-.63,.6-1.42,1.19-2.85,1.79-4.27Z"/><path class="cls-38" d="M104.06,101.79c1.4-.41,1.87,.86,2.48,1.56,1.91,2.19,4.13,3.16,7,2.39-.94,1.91-2.5,1.09-3.92,.89-2.39-1-3.72-3.22-5.56-4.85Z"/><path class="cls-47" d="M96.24,101.85c-.21-1.31,1.07-2.3,.7-3.76-.16-.61,.91-1.14,1.8-1.04-.7,.84-1.62,1.62-.24,2.71,.53,.42,.01,.65-.43,.79-1.3,.42-1.08,1.24-.54,2.14,.16,.73-.32,.66-.78,.61-.57-.35-.1-1.06-.51-1.46Z"/><path class="cls-28" d="M109.62,106.64c1.33-.19,2.86,.47,3.92-.89,.15-.14,.3-.28,.45-.42,.61-.54,.59-1.67,1.65-1.8,.47,1.3-1.65,2.65,.07,3.93,.23,.44,.4,.85-.37,.86-.51-1.35-1.35-1.86-2.77-1.19-1.06,.5-2.05,.2-2.95-.48Z"/><path class="cls-4" d="M87.5,102.35c2.05,0,3.58,1.74,5.64,1.7,.25,.14,.48,.29,.6,.57,.01,.21-.08,.34-.29,.36-2.27-.23-4.38-.81-5.95-2.62Z"/><path class="cls-24" d="M106.2,119.22c0-.24,0-.48,0-.72,.43-.35,.86-.7,1.29-1.05,.78-.88,.84-2.07,1.33-3.07,1.22,1.43-.42,2.87,0,4.3,.19,.47-.05,.55-.44,.47-.75-.8-1.44,.38-2.18,.07Z"/><path class="cls-98" d="M100.97,133.91c2.23,.13,4.43,.15,6.09-1.73,.08,.91-1.43,1.53-.48,2.6-.22,.24-.06,.67-.41,.85-.51-.35-.59-1.14-1.32-1.26-.85,.27-1.71,.27-2.57,0-.46-.11-.98-.03-1.33-.46Z"/><path class="cls-109" d="M116.67,114.81c-.3-.13-.61-.25-.91-.38,0-1.6,0-3.2,0-4.81,.28-.25,.04-.73,.43-.92,.92,1.98,.13,4.09,.49,6.11Z"/><path class="cls-115" d="M127.44,102.36c0-.15-.01-.31-.02-.46,1.18-1.38,2.63-2.4,4.27-3.14,.44-.17,.56,.1,.61,.46-1.28,1.57-2.67,2.98-4.86,3.14Z"/><path class="cls-3" d="M115.65,103.53c-.63,.53-.72,1.55-1.65,1.8,.72-1.52,.15-3.26,.85-4.78,.7,.88,.77,1.93,.81,2.98Z"/><path class="cls-115" d="M74.11,101.39c.28-.57,.73-.97,1.27-1.29,.86,1.16,1.73,2.32,2.59,3.49-.14,.16-.28,.31-.42,.47-1.14-.9-1.36-2.99-3.44-2.67Z"/><path class="cls-124" d="M83.18,110.93c-.3-.3-.6-.61-.91-.91,.33-1.58-.34-3.26,.46-4.8,.59,.66-.04,1.55,.44,2.23,0,1.16,0,2.32,0,3.48Z"/><path class="cls-57" d="M113.96,119.15c.13,.15,.27,.3,.4,.45,.26,1.39-.42,2.36-1.45,3.15-.37,0-.57-.21-.66-.55-.14-1.42,1.09-2.07,1.71-3.06Z"/><path class="cls-65" d="M96.22,104.47c-.04,.63-.08,1.27-.12,2-1.16-.21-1.78-1.08-2.66-1.5,.09-.04,.17-.09,.25-.15,.93-.09,1.79-.38,2.6-.84,.11,.18,.08,.35-.08,.49Z"/><path class="cls-57" d="M83.24,113.11c.14-.15,.28-.31,.43-.46,.71,1.17,1.42,2.34,2.12,3.51-.15,.16-.3,.33-.45,.49-1.42-.75-2.17-1.9-2.1-3.54Z"/><path class="cls-57" d="M83.18,107.46c-.69-.64-.26-1.49-.44-2.23,.09-.64-.23-1.39,.61-2.04,.51,1.54-.37,2.9-.17,4.27Z"/><path class="cls-69" d="M84.98,100.13c-.16,.98-.73,1.73-1.36,2.46-.16-1.02-.08-1.92,.91-2.47,.16-.17,.31-.17,.45,.01Z"/><path d="M109.24,78.41v5.11c-.22-1.7-.97-3.43,0-5.1,0,0,0-.01,0-.01Z"/><path class="cls-115" d="M95.4,135.55c.73,.91,1.03,2,1.24,3.12-.09,.06-.17,.11-.26,.17-1.47-.33-1.38-1.6-1.63-2.67,.11-.32,.32-.54,.65-.62Z"/><path class="cls-98" d="M107.87,136.37c-1.32,.88-.39,2.53-1.21,3.58-.03-.14-.05-.28-.07-.42,.1-1.04,.16-2.08-.38-3.04,.23-.27,.48-.5,.87-.5,.26,.12,.52,.25,.78,.37Z"/><path class="cls-28" d="M95.4,135.55c-.15,.17-.29,.34-.44,.51-1.08-.54-1.34-1.4-.96-2.5,.14-.17,.28-.34,.42-.51,.33,.83,.65,1.66,.98,2.5Z"/><path class="cls-81" d="M108.82,114.38c.08,1.25-.11,2.39-1.33,3.07,.3-1.18,.6-2.35,.89-3.53,.15,.15,.29,.3,.44,.45Z"/><path class="cls-69" d="M90.97,125.69c-.15,.17-.29,.33-.44,.5-1.15-.35-1.47-1.15-1.22-2.25,.14-.15,.29-.31,.43-.46,.41,.74,.82,1.48,1.23,2.22Z"/><path class="cls-68" d="M108.38,119.15c.15-.16,.29-.32,.44-.47,.41,.75,.81,1.49,1.22,2.24-.15,.16-.29,.32-.44,.48-.41-.75-.81-1.5-1.22-2.25Z"/><path class="cls-86" d="M96.22,104.47c-.02-.2-.05-.39-.07-.59,0-.36,.19-.58,.5-.72,.29-.16,.58-.32,.88-.47,1,1.65-1.06,1.05-1.31,1.78Z"/><path class="cls-124" d="M122.59,106.98c.15,.16,.3,.33,.45,.49,.17,1-.25,1.59-1.23,1.81-.14-.16-.28-.31-.42-.47,.4-.61,.8-1.22,1.2-1.82Z"/><path class="cls-11" d="M67.18,91.46c-1.82-.18-.25,1.77-1.3,2.07,0-.56-.06-1.13,.03-1.68,.14-.9,.6-1.05,1.27-.39Z"/><path class="cls-40" d="M112.25,122.21c.15,.15,.3,.31,.45,.46,.41,.63,.12,1-.47,1.26-.15-.15-.29-.31-.44-.46,.06-.46-.03-.97,.46-1.27Z"/><path class="cls-114" d="M84.98,100.13c-.15,0-.3,0-.45-.01,.55-.44,1.11-.88,1.66-1.32,0,.45,0,.9,.01,1.34-.41,0-.81,0-1.22,0Z"/><path class="cls-10" d="M97.88,140.97c.01,.39,.03,.78,.04,1.16-.18,.13-.38,.19-.6,.16-.6-.29-.66-.8-.57-1.37,.13-.32,.29-.58,.7-.48,.14,.18,.29,.35,.43,.53Z"/><path class="cls-15" d="M107.09,136c-.18,.36-.49,.49-.88,.5-.01-.29-.03-.57-.04-.86,.01-.34,.07-.67,.41-.85,.17,.41,.34,.81,.51,1.22Z"/><path class="cls-57" d="M97.45,140.44c-.13,.14-.26,.27-.38,.41-1.24-.52-1.37-1.26-.41-2.19,0,0-.02,.01-.02,.01,.61,.43,.5,1.2,.81,1.77Z"/><path class="cls-119" d="M116.18,108.7c-.14,.31-.28,.62-.43,.92-.14-.44-.28-.87-.41-1.31,.12-.29,.25-.57,.37-.86,.42,.31,.42,.79,.47,1.24Z"/><path class="cls-62" d="M102.29,134.38c.86,0,1.71,0,2.57,0-.85,.62-1.71,.61-2.57,0Z"/><path class="cls-96" d="M132.13,78.04c.74,.07,1.56-.29,2.19,.38-.75-.03-1.55,.24-2.19-.38Z"/><path class="cls-96" d="M132.17,99.25c-.16-.16-.32-.32-.48-.48,.42-.28,.85-.55,1.28-.83,0,.3,0,.6,.01,.9-.18,.3-.36,.62-.81,.41Z"/><path class="cls-131" d="M69.3,117.07c-.74-.69-2.63,.84-2.63-1.38,0-.25-.74-.48-1.15-.23-1.53,.92-.64-.67-1-.95-.26-.52-.75-.5-1.23-.52-1.04,.03-1.17-.33-.34-.94,.91-.67,1.94-1.23,1.99-2.56,.92-1.43,2.26-2.37,3.68-3.24,1.33-.81,2.53-.59,3.73,.24,.43,.28,.98,.4,1.18,.96,.11,.31,.13,.62,.09,.95-.25,1.15-.5,2.3-.92,3.41-.45,.98-.88,1.98-1.33,2.95-.38,.83-.79,1.81-2.06,1.3Z"/><path class="cls-15" d="M73.12,108.37c-.46-.11-.61-.48-.77-.86,1.85-.67,3.76-.57,5.67-.45,0,.17,0,.34-.01,.5-1.58,.56-3.16,1.12-4.89,.81Z"/><path class="cls-29" d="M73.68,100.54c-1.34,1.09-2.88,.21-4.3,.42-.57-.3-1.02-.72-1.29-1.3,1.86,.35,3.62,1.32,5.6,.89Z"/><path class="cls-48" d="M76.72,74.98c-.14,.14-.29,.29-.43,.43-3.21,.85-3.38,.77-4.75-2.14-.42-.89-.87-1.75-1.31-2.63-.44-.7-1.01-.88-1.73-.43-.29,0-.58,0-.87,0-1.27-.81-2.77-1.49-1.77-3.46,.12,.33-.03,.8,.48,.93,1.06,1.3,2.61,.84,3.95,1.12,.85,1.75,1.71,3.49,2.56,5.24,1.61,1.12,2.48,.26,3.14-1.17,.06-.19,.13-.37,.21-.55,.19-.11,.36-.09,.52,.06,.42,.87,.29,1.73,0,2.6Z"/><path class="cls-96" d="M68.49,70.22c.76-.6,1.43-.79,1.73,.43-.54-.29-1.1-.5-1.73-.43Z"/><path class="cls-74" d="M120.47,58.49c1.66,.54,3.22,1.25,4.29,2.72,.4,.24,.7,.56,.85,1.01,.21,.79,.21,1.58,.08,2.38-.69,2.25-1.31,4.55-4.04,5.23-1.05,.16-2.11,.1-3.17,.09-.71-.02-1.38-.18-1.98-.59-1.13-1.1-2.85-1.83-2.58-3.87-.14-2.35,.56-4.38,2.22-6.07,1.11-1.88,2.69-1.48,4.31-.9Z"/><path class="cls-74" d="M90.97,61.56c.09-1.28,.04-2.54-.33-3.78,.56-.07,1.14-.08,1.69-.21,1.37-.31,1.78,.29,1.72,1.57-.04,.84-.04,1.71,.38,2.5,.96,.97,.12,2.39,.85,3.42,.2,.44,.56,.42,.94,.33,.49-.44,1.12-.75,1.33-1.46,.04-2.31-.46-4.61-.08-6.92,1.03-1.03,2.21-.96,3.44-.46,.42,.33,.55,.81,.61,1.31,.04,.35,.05,.71,.05,1.06-.03,.8,.02,1.59,.28,2.36,.17,.93,.19,1.87,.11,2.82-1.11,3.79-4.43,5.29-8.64,3.89-.55-.27-.97-.69-1.38-1.13-1.32-1.59-1.02-3.48-.96-5.32Z"/><path class="cls-115" d="M97.89,64.58c-.29,.83-.93,.94-1.68,.82,0-1.36,.02-2.73,0-4.09-.02-.71-.39-1.54-.13-2.1,.53-1.14-2.07-1.52-.56-2.66,.79-.59,1.7-1.09,2.63-1.45,3.02-1.15,6.1-1.95,9.25-.5,2.52,1.16,2.51,1.29,.57,3.05-1.11-.39-2.2-.33-3.27,.13-.16,.01-.27-.05-.32-.18,0-.02-.04-.02-.06-.03,.13,.81,.46,1.57,.61,2.38,.12,1.91,.44,3.86-.96,5.5-.68,.39-.05,1.73-1.26,1.74-.53-1.97,0-3.96-.15-5.94-.12-1.68-.36-3.26-1.76-4.41-1.1-.05-2.21-.13-3.24,.4-.35,2.47,.28,4.89,.33,7.34Z"/><path class="cls-131" d="M103.97,65.45c.33-2.01,.53-4.03,.44-6.07-.22-.55-.36-1.09,.1-1.6,1.09-1.8,2.27-1.18,3.46-.13,0,.15-.02,.29-.03,.44,.65,.85,.13,1.77,.19,2.66,.09,1.43-.55,2.97,.64,4.23,.4,.02,.8,.05,1.21,.07q2.73,.4,2.56,2.62c-2.24,1-4.46,.95-6.67-.14-1.19-.19-2.24-.5-1.9-2.09Z"/><path class="cls-68" d="M120.47,58.49c-1.52-.09-2.98,.11-4.31,.9-.07-1.78-1.59-2.54-2.6-3.66-.81-.89-2.23-1.9-1.82-2.9,.44-1.08,1.93,.01,2.92,.12,3.16,.34,6.27,1.04,9.28,2.1-1.95-.24-3.28,.48-3.95,2.41-.22,.63,.36,.67,.48,1.03Z"/><path class="cls-93" d="M113.93,65.47c.41,1.54,1.63,2.43,2.76,3.39,1.82,1.93,4.01,1.95,6.35,1.25,2.63-1.75,3.47-5.14,2-8.08-.09-.27-.19-.55-.28-.82,1.14,.25,2.05,1.25,2.18,2.58,.07,.78,.13,1.53,.51,2.22-.17,1.6-.67,3.05-1.84,4.2-2.67,2.28-5.6,1.87-8.6,.87-1.39-1.26-2.43-2.92-4.9-1.42-1.15,.7-3.06,.12-4.63,.12-1.26,.14-2.44-.07-3.46-.88,0-.29,0-.58,.01-.87,2.32,.02,4.54,.96,6.91,.74,1.36-.13,2.02-.55,1.6-1.99-.07-.32-.14-.65,.22-.86,.65,.48,.8-.26,1.17-.47Z"/><path class="cls-85" d="M112.76,65.94c-.01,.29-.02,.59-.03,.88,.16,.46,.28,.88-.47,.81,.63-2.09-.8-2.36-2.28-2.57,.6-.16,1.27,.17,1.85-.28-.67-.53-2.08,.36-2.16-1.18-.06-1.14-.11-2.37,.88-3.11,.51-.39,2.55,2.21,2.54,3.35,0,.7-.2,1.4-.32,2.1Z"/><path class="cls-43" d="M108.77,64.99c-.75,.1-1.46,.18-1.36-.96,.17-1.98-.03-3.99,.53-5.93,1.47,.17,1.44,1.32,1.2,2.25-.4,1.55-.34,3.09-.37,4.65Z"/><path class="cls-108" d="M95.27,65.06c-1.42-.86-.59-2.27-.85-3.42,.05-.76,.1-1.51,.18-2.7,.99,2.25,.83,4.18,.67,6.11Z"/><path class="cls-68" d="M131.74,56.36c-1.01-.17-2.12,.4-3.03-.43,1.01,.17,2.12-.4,3.03,.43Z"/><path class="cls-68" d="M128.27,55.92c-.73-.1-1.56,.29-2.17-.43,.73,.1,1.56-.29,2.17,.43Z"/><path class="cls-31" d="M90.97,61.56c.43,1.73,.24,3.63,1.38,5.17-.03,.36-.13,.69-.47,.88-1.02-.53-1.08,.23-1.4,.91-.7,1.52-1.34,3.17-3.37,3.42,.14-.29,.29-.58,.43-.87-.21-.89,.82-1.1,.97-1.8,.08-.17,.16-.34,.25-.51,.46-1.86,1.22-3.73-.27-5.49-.34-.82-.67-1.65-1.01-2.47,1.23-.6,1.27,.68,1.78,1.16,.51,.48,.28,1.4,1.04,1.88,.64-.66-.1-1.74,.68-2.3Z"/><path class="cls-25" d="M86.68,71.08c-.43,.15-.86,.29-1.3,.44-1.16,.33-2.32,.33-3.47,0-.9-.14-1.7-.43-2.16-1.3-.12-.46,.07-.59,.5-.46,.42,.18,.83,.35,1.25,.53,.86,.25,1.72,.24,2.58,0,2.36-.4,3.88-1.82,4.79-3.97q.8,.87-.01,3.03h0c-.45,.92-1.44,1.15-2.17,1.72Z"/><path class="cls-31" d="M85,63.19c1.12,2.81,.9,3.47-1.07,4.52-.89,.48-1.27,.17-1.73-.44-.57-2.73-.28-3.32,1.9-3.87,.45,.59,.62-.08,.9-.22Z"/><path class="cls-126" d="M85,63.19c-.21,.13,.21,.84-.48,.53-.94-.52-1.63-.15-2.23,.6-.31,.38-.54,.89-1.18,.69-.38-1.3-.31-2.45,1.14-3.06,1.35-.56,2.16,.11,2.76,1.24Z"/><path class="cls-54" d="M81.1,65.01c1.01-.76,1.57-2.72,3.41-1.29-2.72-.09-1.85,2.16-2.32,3.55-.77-.56-1.09-1.33-1.1-2.26Z"/><path class="cls-108" d="M88.85,69.36c-.26-1.01,1.07-2.02,.01-3.03-.03-1.02,.03-2.06-.37-3.03,.25-.1,.65-.28,.73,.03,.55,2.04,1.15,4.11-.37,6.04Z"/><path class="cls-108" d="M84.07,70.29c-.86,.55-1.72,.56-2.58,0h2.58Z"/><path class="cls-108" d="M80.25,69.76c-.17,.15-.33,.31-.5,.46-.37-.35-.83-.68-.45-1.29,.32,.28,.63,.55,.95,.83Z"/><path class="cls-48" d="M76.28,64.16c1.27,1.45-.49,2.04-.87,3.03h0c-.4,.79-.33,1.55,.17,2.28-.09,1.05,1.32,1.74,.7,2.92h0c-.18,.25-.38,.27-.59,.05-.81-1.54-1.72-3.05-2.01-4.81,.19-1.67,1.96-2.15,2.61-3.47Z"/><path class="cls-91" d="M70.28,68.81c-1.52,.35-3.25,1.41-3.95-1.12,.49-.07,1.06-.01,1.45-.25,1.66-.97,2.43-.49,2.5,1.36Z"/><path class="cls-80" d="M76.28,64.16c.2,1.96-1.94,2.17-2.61,3.47-1.19-1.51-1.11-2.65,1-3.01,.59-.1,.85-.37,1.03-.86,.19,.13,.39,.26,.58,.4Z"/><path class="cls-80" d="M75.69,72.44c.2-.01,.4-.03,.59-.04,.19,1.44-.45,2.4-1.79,2.8-.9,.27-1.53-.13-1.65-1.14,.9-.63,2.28-.39,2.84-1.61Z"/><path class="cls-108" d="M86.68,71.08c.48-.88,1.45-1.14,2.17-1.73,.08,.96-.87,1.15-1.3,1.73-.29,0-.58,0-.86,0Z"/><path class="cls-108" d="M81.91,71.52c1.16,0,2.32,0,3.47,0-1.16,.66-2.32,.67-3.47,0Z"/><path class="cls-74" d="M125.61,70.22c.63-1.4,.88-2.95,1.84-4.2,.52-1.12,1.07-2.24,1.55-3.38,.28-.66,.49-1.33,1.43-1.11,.63,.59,1.66,.57,2.13,1.4,.93,1.05,.82,2.42,1.09,3.66,.26,1.17,.71,.42,1.13,.21,.87-.72,.52-2.2,1.72-2.71,.6,.77,2.24,.28,2.21,1.81-.45,3.09-1.84,5.85-3.32,8.5-.92,1.66-2.2,.44-3.22-.34-.3-.71-.61-1.41-.91-2.12-.23-.46-.54-.87-.73-1.35-.22-.58-.13-1.2-.22-1.74-.94,1.4-.85,3.91-3.65,3.34-.29-.18-.38-.48-.5-.77,0,0,.03-.02,.03-.02-.4-.3-.59-.7-.57-1.2Z"/><path class="cls-33" d="M134.78,66.8c-.08,.78-.36,1.46-1.1,2.38-.35-2.32-1.19-4.19-1.12-6.25,1.3,.31,1.52,.51,1.76,1.64,.16,.74,.31,1.48,.46,2.23Z"/><path class="cls-8" d="M126.47,151.23c0,.3,0,.59,0,.89-.88,1.62-.07,3.39-.49,5.13-.77-.45,.23-1.91-.91-1.87-.72,.03-1.25,.84-1.82,1.39-3.14,3.07-5.71,6.38-7.4,10.6-1.34,3.36-2.92,6.77-4.97,9.82-.79,1.17-1.48,2.84-3.45,2.57,.64-2.65,2.12-4.93,3.13-7.42,.46-1.12,.93-2.23,1.4-3.34-.23-.73,.21-1.31,.45-1.94,.65-1.07,.97-2.3,1.63-3.37,.28-.4,.6-.78,1.03-1.04,2.3-3.01,5.01-5.69,7.13-8.85,.98-1.47,2.21-2.77,4.27-2.58Z"/><path class="cls-10" d="M126.56,153.41c.67,1.86,.65,3.73,.01,5.59,0-1.86,0-3.73-.01-5.59Z"/><path class="cls-8" d="M128.72,159.48c.7-.76,1.39-1.52,2.09-2.27,1.91-.15,2.36-1.86,3.2-3.09,.76-1.11,1.34-2.34,2.63-2.97,.1,.03,.2,.05,.29,.08-.44,1.72-.83,3.47-2.05,4.86-.94,1.07-2.01,2.01-2.9,3.14-.85,1.08-2.11,.92-3.27,.25Z"/><path class="cls-8" d="M140.4,144.3c-.14,.87-.29,1.73-.43,2.6-1.01,1.44-1.29,3.4-3.03,4.33h0c-.66-.96,.27-1.58,.53-2.33,.34-1.01,1-1.9,1.17-2.99,.18-.4,.29-.88,.9-.75l.87-.87Z"/><path class="cls-127" d="M112.74,167.36c-.26,.55-.52,1.1-.77,1.65-1.64,.32-4.02-1.37-4.86-3.45-.11-1.05,.6-2.02,.3-3.09-.15-.32-.18-.63,.05-.92,.89-.33,1.35,.26,1.26,.93-.19,1.41,.77,1.8,1.66,2.41,.94,.65,2.31,.95,2.36,2.47Z"/><path class="cls-32" d="M131.74,155.58c-1.91-1.77-4.23-3.23-4.74-6.08-.93-1.11-.22-2.19,.04-3.28,.14-.31,.36-.56,.64-.74,1.72-.1,2.85,1.13,3.99,2.04,1.23,.98,2.33,2.19,3.4,3.38-.63,1.9-1.12,3.91-3.33,4.69Z"/><path class="cls-107" d="M127.37,146.05c-.12,1.15-.25,2.3-.37,3.45-.18,.58-.35,1.15-.53,1.73-1.51,.85-2.97,1.56-4.05,3.18-2.03,3.06-4.53,5.8-6.84,8.67,0,.01-.22-.13-.33-.21-.6-1.39,.62-2.26,.95-3.39,.28-.53,.59-1.04,.92-1.54,.71-1.05,1.16-2.24,1.78-3.35,.85-1.2,1.61-2.46,2.54-3.61,.94-1.15,1.66-2.47,2.8-3.46,1.04-.5,1.7-1.82,3.13-1.47Z"/><path class="cls-83" d="M131.74,155.58c1.42-1.33,2.21-3.06,3.04-4.77,.16-.36,.41-.63,.77-.8,.94-.73,1.25-1.91,2-2.77,.44-.5,.6-1.37,1.55-1.22-.2,1.95-1.59,3.4-2.17,5.2-1.86,1.51-2.7,3.77-4.09,5.63-.64,.86-1.18,1.25-2.03,.35,.01-.71,.69-1.04,.93-1.63Z"/><path class="cls-83" d="M97.02,159.46c-.39-.58-.78-1.16-1.16-1.74,.33-.56,0-1.1-.04-1.65-.22-2.62,1.19-3.7,3.59-2.73,.53,.21,1.02,.5,1.62,.32,.2,0,.38,.06,.54,.19,.36,.6,.6,1.25,.99,1.84,.15,.42,.15,.84,.06,1.27-.2,.68-.29,1.44-.9,1.9-1.01,.77-1.03,1.78-.88,2.9,.12,.9,.3,1.93-1.12,2.02-.16-.14-.32-.28-.47-.42-.56-1.4-1.29-2.71-2.22-3.9Z"/><path class="cls-50" d="M99.71,163.78c.24-.25,.74-.59,.68-.73-1.02-2.59,.48-4.39,1.89-6.22,.61-.07,.66,.37,.72,.8-.19,.96,.21,1.85,.31,2.77,.21,.87,.41,1.73,.46,2.63,.4,2.1,.95,4.18,.45,6.34,.06,1.07-.18,2.15,.16,3.2-1.17,1.51-1.29-.08-1.44-.6-.83-2.83-2.12-5.47-3.23-8.18Z"/><path class="cls-125" d="M104.07,169.41c-.29-2.17-.57-4.33-.86-6.5,.36-.5,.56-1.45,1.44-.51,.12,1.9-.2,3.81,.18,5.71,0,.3,0,.59,0,.89-.13,.14-.26,.29-.39,.43-.13,.19-.26,.19-.37-.02Z"/><path class="cls-23" d="M104.07,169.41c.12,0,.25,.01,.37,.02-.02,1.04-.04,2.09-.05,3.13-.53-1.01-.34-2.08-.32-3.15Z"/><path class="cls-36" d="M98.37,144.72c.78,.3,.93,1.08,1.3,1.69,.53,.96,.36,2.03,.46,3.06-.13,.93-.72,1.13-1.54,.96-.56-.12-1.12-.23-1.67-.36-1.97-.46-3.73-.57-4.22,2.04-.06,.33-.39,.59-.83,.42-.14,0-.27-.02-.41-.06-.7-.76-1.41-1.51-2.11-2.27-.83-1.17-1.95-2.02-3.05-2.9-.78-1.18-2.11-1.71-3.15-2.58-1.42-1.37-2.91-2.65-4.67-3.57-.17-.25-.34-.49-.51-.74,.3-.3,.61-.6,.91-.89,.35,.31,.72-.03,1.08,.04,1.25,.78,2.55,1.43,4.02,1.69,.15,.12,.28,.25,.4,.39,.69,.72,1.88-.22,2.51,.73,.72,.73,.99-.67,1.62-.35,3.12,1.18,6.35,1.99,9.59,2.75,.09-.03,.18-.05,.27-.07Z"/><path class="cls-20" d="M91.86,152.54c.5-.36,.56-.85,.64-1.46,.19-1.5,1.12-2.19,2.66-1.88,1.24,.25,2.48,.48,3.71,.8,.59,.15,.77-.06,.83-.57,1.38,.41,1.12,1.71,1.45,2.68,.05,.56,.1,1.11-.16,1.64-.4,1.42-1.06,.21-1.58,.13-.77-.12-1.36-1.17-2.31-.32-.85,.76-1.11,1.64-.74,2.69,.23,.65,.49,1.27-.52,1.46-.34-.43-.68-.86-1.03-1.29-.99-1.3-1.97-2.6-2.96-3.89Z"/><path class="cls-83" d="M107.54,161.63c-.04,.28-.09,.56-.13,.83-.66-1.24-1.62-.59-2.51-.41-.78-.84-.6-1.83-.47-2.82,.33-.9,.28-1.87,.48-2.8,.05-2.28,1.02-3.84,3.34-4.46,.98-.26,1.8-.38,2.39,.62,.11,.2,.17,.42,.2,.65-.02,1.34-.78,2.45-1.14,3.69-.35,1.07-.62,2.17-1.16,3.18-.13,.63-.42,1.16-.98,1.51Z"/><path class="cls-58" d="M104.92,159.01c0,1.02-.01,2.03-.02,3.05-.02,2.02-.05,4.04-.07,6.06-.79-1.97-.19-4.03-.41-6.04-.66-.66-.42-1.58-.68-2.36-.07-.31-.09-.63-.07-.95,.02-.22,.06-.43,.12-.63,.2-1.2,.06-2.4,.09-3.61,.05-.61,.08-1.22,.62-1.64,.89,.17,.75,.89,.81,1.5-.04,1.55-.18,3.09-.38,4.63Z"/><path class="cls-117" d="M89.31,123.93c.41,.75,.82,1.5,1.22,2.25,.49,1.17,.99,2.34,1.55,3.69-1.96,.07-3.64,.68-5.05,1.92-1.94,.79-3.79,1.69-4.85,3.65-.14,.26-.44,.34-.74,.18-.29-2.52-1.24-3.34-3.99-3.46-.56-.02-1.17,.13-1.6-.41-.09-.93,.64-.8,1.12-.77,.65,.04,.92-.24,1.04-.8,.27-1.47,.77-2.92,.5-4.45-.21-.98-.34-1.98-.94-2.83-.67-1.25-2.3-.7-3.12-1.66,.49-1,1.17-.88,1.91-.32,1.02,.11,1.71-.59,2.52-1.01,3.92-2,7.73-1.62,9.8,2.89,.18,.39,.41,.75,.61,1.13Z"/><path class="cls-117" d="M76.37,120.93c-.63,.03-1.32-.23-1.82,.38-.88,1.25-1.92,2.28-3.49,2.62-1.03-1.56-1.4-3.58-3.29-4.56-.27-.14-.57-.73-.19-1.13,.46-.49,1.02-.79,1.71-.36,.75,.02,1.26-.49,1.47-1.04,.79-2.09,2.29-3.9,2.5-6.22-.1-.47,.31-.94,0-1.41-.05-.28-.1-.56-.15-.83,1.52-.9,3.19-.95,4.89-.81,2.66,.99,3.82,3.39,5.24,5.55,.7,1.18,1.4,2.36,2.1,3.54,.25,.57,.51,1.15,.89,2.01-3.99-1.64-7.05-.18-9.86,2.28Z"/><path class="cls-74" d="M81.44,135.62c1.36-2.01,2.66-4.12,5.6-3.83,.21,.37,.56,.39,.92,.41,.81,.18,1.14,.74,1.2,1.51-.16,2.16-.26,4.33-1.05,6.39-.88,2.06-1.09,2.14-4.1,1.69v-.02c-1.15-1.24-2.72-1.46-4.25-1.79-.37,.03-.81,.17-.86-.44,1.53-.86,2.09-2.36,2.56-3.91Z"/><path class="cls-131" d="M71.07,123.93c1.01-1.08,2.17-1.96,3.49-2.62,1.4-.21,2.72-.2,3.52,1.27,.4,2.27,.88,4.54-.01,6.81-1.03,1.36-2.36,1.39-3.76,.73-.66-.31-1.26-.62-1.98-.28-1.08,.22-1.65-1.83-2.95-.67-.77,.15-.51-.34-.46-.72,.26-1.73,1.45-3.01,2.15-4.52Z"/><path class="cls-111" d="M73.64,110.51c0,3-2.15,5.17-3.11,7.81-.28,.78-.82-.23-1.24-.44,0-.27,0-.54,0-.8,1.35-.22,1.45-1.45,1.91-2.37,.35-.69,.68-1.39,1.03-2.09,.88-.42,.26-1.84,1.4-2.1Z"/><path class="cls-47" d="M71.95,129.56c.73-.42,1.45-.46,2.2,0,1.13,.7,2.29,.55,3.44,.03,.15,.18,.21,.4,.19,.63-.06,.23-.2,.4-.41,.51-1.06,.02-2.11,.93-3.19,.05-.56-.81-1.27-.83-1.94-.22-.97,.89-.87-.13-1.11-.57,.17-.34,.6-.19,.82-.44Z"/><path class="cls-28" d="M74.18,130.78c1.17,.24,2.27-.35,3.42-.33,.24-.27,.5-.27,.78-.06,.12,.82,.06,1.5-1.06,1.14-.55-.18-1.07-.46-1.46,.23-.72-.04-1.36-.24-1.68-.98Z"/><path class="cls-73" d="M71.95,129.56c-.17,.35-.48,.42-.82,.44-.44-.59-1.11-.69-1.76-.83,1.17-1.91,1.8-.25,2.58,.39Z"/><path class="cls-103" d="M63.29,114c.75-.64,1.08-.28,1.23,.52-.41-.17-.82-.34-1.23-.52Z"/><path class="cls-36" d="M148.63,80.62c.14-.28,.29-.57,.43-.85,.44,0,.87,0,1.31,0,.17,.21,.33,.43,.5,.64l-.94,.2c-.43,.3-.87,.29-1.3,0Z"/><path class="cls-107" d="M148.63,80.62h1.3c-1.57,.65-1.91,1.7-1.6,3.4,.62,3.31,.66,6.65,.62,10.04-.06,6.14-1.15,12.09-2.63,17.95-.86,3.42-2.03,6.86-3.78,10.01-.94,1.69-1.92,3.38-2.63,5.17-.54,1.35-1.03,2.91,.48,4.11,.59,2.57-.26,5.23,.43,7.8v.87c-.5,.46-.48,1.16-.82,1.69-.21,.32-.2,.95-.75,.86-.6-.1-.58-.7-.65-1.18,0-.34,.04-.68,.11-1.01,.26-.76,.23-1.55,.2-2.34,0-1.39-.01-2.77,0-4.16,0-.74,.14-1.49-.2-2.19-.36-.72-.57-1.52-1.11-2.14-1.99-1.71-2.19-2.4-.6-4.52,1.79-2.38,2.78-5.18,4.28-7.7,.34-.56,.49-1.2,.38-1.87-.45-2.02,.59-3.09,2.36-3.67,.63-.16,.57-.7,.7-1.19,.99-3.9,1.61-7.87,2.12-11.85,0-.1,.02-.21,.03-.31v-.43c.45-4.72,.11-9.43-.56-14.09-.26-1.8,.25-2.73,1.86-3.24h.43Z"/><path class="cls-20" d="M139.08,141.22c.02,.27,.04,.55,.09,1.13,.64-.93,.36-2.29,1.66-2.38,.26,1.91-1.41,3.33-1.3,5.2-.35,.19-.42,.51-.43,.87-.84,1.24-1.67,2.48-2.52,3.72-.23,.34-.26,1.12-.99,.52-.46-1.53,.67-2.65,1.01-3.98,.58-1.13,.92-2.35,1.35-3.53,.22-.6,.16-1.47,1.13-1.54Z"/><path class="cls-80" d="M132.18,74.07c2,1.07,3.04,.43,3.74-1.71,.72-2.22,1.85-4.31,2.8-6.46,1.05,.6,.99,1.55,.63,2.45-.94,2.4-1.86,4.81-2.98,7.13-.69,1.42-1.93,.82-2.99,.31-.71-.34-.91-1.07-1.2-1.72Z"/><path class="cls-60" d="M126.55,71.9c1.25,.26,2.03-.18,2.44-1.44,.35-1.06,.86-2.07,1.39-3.32,.86,1.26,.33,2.43,.54,3.49-.15,.55-.68,.83-.92,1.32-.63,.52-.87,1.43-1.73,1.73-.5-.67-1.9-.46-1.72-1.78Z"/><path class="cls-53" d="M126.55,71.9c.22,.94,1.44,.9,1.72,1.78-.29,0-.58,0-.87,0-.65-.62-1.59-1.08-1.25-2.25,.13,.16,.26,.31,.39,.47Z"/><path class="cls-53" d="M130,71.95c0-.65,.32-1.08,.92-1.32,.65,.3,.61,.78,.35,1.32-.42-.28-.85-.25-1.27,0Z"/><path class="cls-117" d="M132.17,99.25c.27-.14,.54-.28,.81-.41,.19,.42,.37,.84,.56,1.26,.27,.38,.75,.42,1.09,.69,.37,.25,.72,.51,1.1,.74,1.01,.38,2.01,.24,3.01-.08,.61-.18,1.2-.41,1.85-.37,.96,.93,1.23,3.87,.4,5.51-.35,.69-.6,1.48-1.29,1.96-.42,.17-.87,.15-1.23-.1-2.29-1.63-4.52-1.28-6.74,.15-1.17,.01-2.34,.09-3.5,.31-1.74,.11-3.28,.9-4.9,1.45-.64,.22-1.27,.76-1.97,.11,.15-.39,.29-.79,.44-1.18,.41-.6,.82-1.2,1.23-1.81,1.46-1.7,2.93-3.41,4.39-5.11,1.58-1.04,3.16-2.07,4.73-3.11Z"/><path class="cls-66" d="M135.2,101.84c-.3-.28-.6-.56-.9-.83,1.41-.72,2.98,.17,4.4-.43,1.76-.31,3.13-1.42,4.66-2.22,.71-.4,1.42-.63,2.13,.01,.08-.09,.17-.09,.25,0-.03,.83-.77,.89-1.29,1.2-1.43,.51-2.62,1.56-4.17,1.8-.54,.17-1.09,.34-1.63,.5-1.15,.28-2.31,.33-3.46-.03Z"/><path class="cls-88" d="M145.49,98.37c-.71,0-1.42,0-2.13-.01,.62-1.05,.33-2.46,1.33-3.35,.38,1.1,.16,2.33,.8,3.36Z"/><path class="cls-122" d="M138.71,100.58c-1.39,.94-2.94,.22-4.4,.43-.33-.24-.71-.44-.77-.92,1.72,.16,3.45,.33,5.17,.49Z"/><path class="cls-36" d="M148.2,80.62c-2.72,1.49-1.2,3.9-.93,5.73,.48,3.25-.05,6.5,.47,9.71,.12,.72-.25,1.39-.84,1.88-.46-.23-1.16-.72-.98-.99,1.51-2.28-.38-4.69,.42-7.09,.64-1.92-.73-3.94-.88-6.02-.17-2.42,.76-3.05,2.74-3.22Z"/><path class="cls-20" d="M144.2,99.2c.51-.28,1.03-.55,1.54-.83,.38,.4,.77,.2,1.15,0-.33,1.58-.8,1.73-2.7,.83Z"/><path class="cls-17" d="M96.66,103.16c-.17,.24-.33,.48-.5,.72-.46,1.26-1.41,1.21-2.46,.94-.18-.26-.37-.52-.55-.78,1.86,.43,3.05-.08,3.1-2.2,.49,.33,.4,.84,.41,1.32Z"/><path class="cls-11" d="M100.06,146.57c.14-1.06,.82-1.91,1.08-2.97,.33-1.37,3.61-.85,4.61,.69,.24,.37,.15,.78,.12,1.18-.06,.71-.23,1.39-.38,2.08-.06,.51-.13,1.02-.25,1.52-.24,.69-.2,1.44-.4,2.14-.07,.19-.19,.37-.34,.51-.22,.05-.52,.01-.57-.17-.42-1.65-1.73-1.84-3.11-1.94-.89-.86-1.26-1.84-.75-3.05Z"/><path class="cls-40" d="M100.06,146.57c-.14,1.13,.44,2.02,.98,2.92,.49,.6,.76,1.27,.65,2.07-.12,.43-.32,.8-.73,1.01-.42-1.04-.83-2.09-1.25-3.13-.11-1.01-.49-2.02-.04-3.03,.12,.07,.26,.13,.4,.17Z"/><path class="cls-102" d="M105.39,145.18c.12-.29,.24-.59,.36-.88-.09-.77,.64-1.13,.89-1.73,.15,.17,.3,.33,.45,.5,.63,1.05,.2,1.87-.57,2.62-.51,.15-.81-.19-1.12-.51Z"/><path class="cls-85" d="M97.54,142.12c.13,0,.25,0,.38,.01,.66,.77,1.03,1.6,.45,2.59,0,0,0,0,0,0-1.57-.45-1.54-1.41-.83-2.59Z"/><path class="cls-104" d="M76.29,72.38c-.07-1.07-1.04-1.89-.87-3.03-.12-.1-.16-.19-.12-.29,.04-.1,.08-.14,.12-.14,.61,1.09,1.49,2.08,1.3,3.47-.14,0-.29,0-.43,0Z"/><path class="cls-104" d="M76.72,74.98c0-.87,0-1.73,0-2.6,1.25,.87,.34,1.73,0,2.6Z"/><path class="cls-19" d="M75.42,68.92c0,.14,0,.29,0,.43-.64-.72-.64-1.44,0-2.17,0,.58,0,1.15,0,1.73Z"/><path class="cls-93" d="M91.88,67.62c.01-.37,.1-.7,.47-.88,.32,.27,.65,.53,.97,.8,1.24,1.7,3.03,1.26,4.7,1.19,.79-.03,1.51-.46,2.31-.52,.21,0,.41,.07,.6,.17,.36,.52-.07,.73-.39,.99-3.14,.7-6.36,1.76-8.66-1.73Z"/><path class="cls-115" d="M100.54,69.35c.15-.29,.29-.58,.44-.86,.11-.42,.4-.62,.81-.68,.2,.01,.36,.1,.48,.25-.28,.58-.71,1.02-1.3,1.3-.15,0-.29,0-.44,0Z"/><path class="cls-70" d="M112.26,67.62c.16-.27,.31-.54,.47-.81,.9,1.77,.27,2.51-1.63,2.56-2.46,.06-4.84-.23-7.07-1.32,.49-.63,1.25-.24,1.84-.5,2.13,.03,4.26,.06,6.39,.08Z"/><path class="cls-57" d="M102.28,68.05c-.15,0-.29,0-.44,0-.3-2.24,.62-4.47,0-6.71-.29-1.08,.09-2.33-.83-3.25-.07-.42-.14-.84-.2-1.25,1.91,.21,2.15,1.81,2.24,3.15,.17,2.39,.41,4.83-.34,7.2-.14,.29-.29,.58-.43,.87Z"/><path class="cls-98" d="M104.01,68.91c1.15,.29,2.31,.58,3.46,.88,0,.14,0,.29,0,.43-1.33,.02-2.66,.07-3.46-1.31Z"/><path class="cls-91" d="M94.42,78.38c.03,.79-.42,.97-.94,1.06-.69,.13-1.11-.16-1.2-.87-.09-.7,.22-1.1,.96-1.08,.67,.01,1.04,.39,1.18,.89Z"/><path class="cls-117" d="M112.23,123.93c.16-.42,.31-.84,.47-1.26,.56-1.02,1.11-2.05,1.67-3.07,1.93-2.96,4.03-5.76,6.96-7.84,1.85-2.26,4.64-2.43,7.16-3.19,.88,.06,1.75-.42,2.63,0,.74,.35,.56,1.04,.57,1.64,.01,1.3,.4,2.46,1.15,3.51,.62,1.58,2.58,2.06,3.09,3.73,.08,.31,.08,.61-.02,.91-1.48,.42-2.72,1.09-3.35,2.66-.28,.7-1.1,.82-1.84,.83-1.8-.18-3.42-.94-5.07-1.61-2.54-1.03-4.72-.44-6.44,1.7-.59,1.65-2.25,1.73-3.5,2.41-1.37,.64-2.42,1.85-3.97,2.15-.55-.99,.59-1.65,.49-2.56Z"/><path class="cls-62" d="M108.32,139.04c-.71,.04-.57-.3-.42-.78,.48-1.56,.9-3.14,1.35-4.72,.61-.83,.75-1.82,.92-2.79,.26-1.5,.87-2.8,2.08-3.78,.73-1.49,2.29-1.96,3.51-2.84,.93-.41,1.8-1.02,2.9-.83,.64,.38,.83,1.1,1.24,1.65,.41,.77,1.08,1.31,1.74,1.86,1.41,1.57,3.43,2.33,4.96,3.73,.95-.24,.95-2.31,2.17-1.51,1.23,.8-.3,1.84-.39,2.81-.03,.28-.17,.55-.3,.8-.46,.63-1.05,1.02-1.86,.96-.49-.18-.66-1.1-1.34-.72-.86,.47-.91,1.34-.77,2.21-.18,.62-.73,.88-1.18,1.25-.39,.3-.74,.65-1.21,.82-.84,.12-1.58-.07-2.15-.74-.06-.19-.01-.37,.12-.51,.33-.27,.82-.22,1.1-.57-.05-.44-.42-.71-.53-1.11,.19-.94-.58-1.16-1.14-1.52-.29-.4-.22-.9-.35-1.34-1.06-1.62-2.06-1.35-3.58-.34-1.86,1.24-3.22,2.58-3.49,4.85-.17,.36-.46,.61-.73,.87-.32,.32-.64,.64-.92,1-.11,.15-.22,.29-.35,.42-.4,.38-.74,.83-1.35,.86Z"/><path class="cls-57" d="M115.78,124.42c-1.18,.85-2.36,1.7-3.54,2.55-.17-.16-.34-.32-.51-.48,1.04-1.04,2.29-1.79,3.56-2.5,.19,.11,.45,.15,.49,.43Z"/><path class="cls-115" d="M128.29,108.85c-2.37,.87-4.87,1.41-6.97,2.92-.78-.47-.37-.89,.05-1.31,2.35-.52,4.37-2.16,6.9-2.08,.15,.1,.2,.2,.15,.31-.04,.11-.09,.16-.14,.16Z"/><path class="cls-11" d="M97.54,142.12c-.05,.97,0,1.91,.83,2.59-.04,.34-.02,1.03-.21,.94-3.08-1.41-6.51-1.67-9.59-3.02-.13-.06-.13-.39-.2-.59-.79-.95-.24-1.91,.07-2.8,.52-1.49,.89-2.98,.57-4.56-.16-.41,.11-.87-.11-1.28-.32-.4-.63-.8-.95-1.2,2.43-2.17,4.13-1.79,6.04,1.36,.32,.83,.64,1.67,.96,2.5,.61,.84,.31,2.27,1.7,2.59-.45,.84-.17,1.54,.41,2.19,.07,.46-.08,.99,.47,1.28Z"/><path class="cls-11" d="M110.51,136.49c.2-.35,.54-.42,.9-.43,.6-.2,.94,.24,1.35,.52,1.52,1.05,2.98,.35,4.45-.15,.77-.26,1.47-.96,2.38-.4,.55,.62,1.36,.65,2.07,.9-.09,1.69-1.9,2.01-2.55,3.25-.75,1.14-1.79,2.03-2.57,3.15-1.01,1.1-1.55,2.52-2.47,3.68-.18,.09-.38,.13-.58,.13-2.28-1.17-4.09,.55-6,1.16-1.56,.5-1.76,.05-1.8-1.2,.11-.51,0-1.1,.51-1.47,.61-.74,.75-1.64,.89-2.55,.43-1.02,.86-2.03,1.29-3.05,.21-.87,.78-1.53,1.29-2.23l-.02,.02c.18-.51,1.32-.4,.88-1.32Z"/><path class="cls-24" d="M109.65,137.79c-.1,.93-.73,1.56-1.29,2.23-.01-.33-.03-.65-.04-.98,.31-.56,.7-1.03,1.33-1.25Z"/><path class="cls-2" d="M73.64,110.51c-.66,.57-.34,1.8-1.4,2.1,.34-1.14,.68-2.27,1.02-3.41,.58,.31,.42,.82,.38,1.31Z"/><path class="cls-25" d="M123.07,70.65c-1.98,.92-3.87,.42-5.67-.49-.39-.2-1.45-.35-.71-1.3,.41,.57,1.05,.45,1.62,.55,1.15,.27,2.31,.28,3.46-.01,2.17-.87,2.66-2.96,3.48-4.81,1.17,.33,.65,1.29,.55,1.88-.28,1.76-1.18,3.21-2.74,4.17Z"/><path class="cls-16" d="M121.78,62.39c.98,1.33-.6,2.28-.52,3.48-1.44-.79-.48,.63-.8,.87-1.01,.78-1.84,.43-2.58-.43,.48-3.17,.55-3.24,3.89-3.92Z"/><path class="cls-54" d="M123.07,70.65c.91-1.23,2.11-2.27,2.4-3.9,.14-.76,.46-1.5-.21-2.16-.07-.85-.14-1.71-.22-2.56,2.32,2.51,1.26,7.16-1.97,8.62Z"/><path class="cls-113" d="M117.48,65.45c-.26-3.28,.92-4.9,3.15-4.28,.3,.08,.53,.42,.79,.64,.07,.14,.09,.38,.03,.39-1.97,.22-3.01,1.45-3.58,3.23-.03,.09-.24,.07-.39,.02Z"/><path class="cls-41" d="M117.48,65.45c.74-1.83,1.65-3.48,3.94-3.64,.12,.19,.24,.39,.36,.58-.21,.3,.1,1.17-.44,.94-2.12-.92-2.4,.48-2.78,1.94-.1,.38-.45,.7-.68,1.04-.38-.17-.47-.48-.41-.86Z"/><path class="cls-68" d="M120.47,66.74c-.04-.06-.07-.13-.13-.17-.62-.46-.96-1.03-.55-1.78,.11-.2,.45-.46,.63-.42,.81,.16,.23,1.17,.85,1.49-.06,.48-.32,.77-.8,.87Z"/><path class="cls-93" d="M121.77,69.4c-1.15,.66-2.31,.63-3.46,.01,1.15,0,2.31,0,3.46-.01Z"/><path class="cls-108" d="M100.54,68.48c-1.62,.89-3.38,1-5.16,.85-1.39-.12-1.9-.62-2.06-1.8,1.53,.45,3.05,.47,4.63,.17,2.02-.39,3.01-1.69,3.52-3.53,1.19,1.31,.91,2.6-.92,4.31Z"/><path class="cls-48" d="M100.54,68.48c.87-1.32,1.98-2.58,.92-4.31-.04-.95-.09-1.9-.13-2.85-.29-.76,.04-1.6-.28-2.36-.01-.29-.03-.58-.04-.86,.74,.06,1.25,.45,1.23,1.2-.08,2.92,1.11,5.91-.41,8.76-.29,.15-.57,.29-.86,.44-.15,0-.29,0-.44,0Z"/><path class="cls-57" d="M97.89,64.58c-.44-2.43-1.5-4.84-.33-7.34,.29,2.44,.87,4.87,.33,7.34Z"/><path class="cls-115" d="M101.06,58.96c.6,.72,.35,1.55,.28,2.36-.38-.75-.36-1.55-.28-2.36Z"/><path class="cls-57" d="M104.51,57.79c-.03,.53-.06,1.07-.1,1.6-.63-.55-.37-1.28-.37-1.95,0-.3,.23-.24,.35-.05,.07,.11,.07,.26,.11,.4Z"/><path class="cls-26" d="M107.97,159.9c.43-1.01,.85-2.01,1.28-3.02,1.56,.59,3.3,.77,4.58,1.98,.88,.83,1.87,.11,2.79,.27,.03,0,.06,.11,.05,.16,0,.07-.05,.13-.08,.2-.45,1.13-.89,2.26-1.34,3.39-.27,.33-.53,.66-.8,.99-2.84-.2-5.1-1.36-6.48-3.96Z"/><path class="cls-95" d="M107.97,159.9c1.8,1.9,4.1,2.99,6.48,3.96-.6,1.15-.83,2.48-1.71,3.5-.58-.51-1.1-1.14-1.76-1.51-1.54-.85-3.22-1.52-2.77-3.81,.02-.09-.43-.27-.67-.41,.14-.58,.29-1.16,.43-1.73Z"/><path class="cls-24" d="M118.79,139.99c.67-1.28,1.98-1.97,2.86-3.06,.33-.3,.65-.59,.98-.89,2.08,1.49,4.33,2.71,6.44,4.16,2.06,1.42,4.09,2.88,5.82,4.67,.65,.67,1.73,.7,2.09,1.66-.46,1.25-.93,2.5-1.39,3.75-.27,.18-.54,.36-.81,.55-.61-.31-1.34-.42-1.72-1.08-1.2-2.07-3.41-2.86-5.22-4.14-.58-.06-1.16-.23-1.62-.57-1.9-1.43-3.91-2.63-6.12-3.51-.65-.26-1.34-.62-1.31-1.52Z"/><path class="cls-40" d="M118.79,139.99c2.5,1.94,5.66,2.76,8.13,4.75,.33,.27,.73,.44,.92,.85-.16,.15-.31,.3-.47,.45-.96,.59-1.92,1.17-2.87,1.76-.67,.3-1.39,.56-2.03,.03-1.67-1.4-3.72-2.12-5.62-3.08-.97-.49-.62-1.09-.64-1.73,.86-1.01,1.72-2.02,2.58-3.04Z"/><path class="cls-102" d="M116.21,143.03c-.04,1.35,1.3,1.38,1.99,1.69,2.15,.95,3.81,2.87,6.3,3.09-.91,1.13-1.82,2.27-2.73,3.4-.61,.35-1.2,.87-1.92,.22-1.56-1.4-3.51-2.14-5.29-3.18-.59-.35-1.12-.71-.64-1.51,.44-1.44,1.29-2.63,2.29-3.72Z"/><path class="cls-7" d="M113.92,146.75c.09,1.28,1.38,1.02,2.03,1.58,1.27,1.11,3.22,1.22,4.19,2.79,.53,.86,1.12-.45,1.63,.1-.82,1.18-1.63,2.35-2.45,3.53-.25,.13-.48,.32-.78,.34-2.01,.13-6.15-2.59-6.95-4.55,.14-1.48,.65-2.77,1.92-3.65,.14-.03,.28-.08,.41-.13Z"/><path class="cls-121" d="M111.85,150.37c1.78,2.66,4.42,3.85,7.46,4.37-.52,1.2-1.02,2.41-1.87,3.43-2.29-.43-4.18-1.66-6.06-2.93-.7-.47-.74-1.14-.84-1.84-.02-.15-.03-.3-.05-.45-.44-1.33,.13-2.14,1.36-2.59Z"/><path class="cls-123" d="M110.54,153.41c.96,1.6,2.52,2.4,4.12,3.18,.96,.47,2.03,.76,2.79,1.59-.29,.44-.57,.87-.86,1.31-.93,.69-1.99,.88-2.76-.04-1.23-1.47-3.59-.77-4.58-2.57,.43-1.16,.86-2.31,1.29-3.47Z"/><path class="cls-107" d="M101.36,151.69c.04-.75-.63-1.4-.33-2.19,2.4-1.26,2.82,.58,3.41,2.17,.38,.43,.41,.87,.05,1.33-.04,.53-.07,1.05-.11,1.58-.44,1.32,.1,2.71-.32,4.03l-.11-.03c-.22,.27-.51,.3-.82,.2-.36-.25-.6-.55-.43-1.02,0-.37-.07-.71-.42-.92,0-.43,0-.85,0-1.28-.56-.57-.46-1.38-.79-2.04-.1-.61-.43-1.2-.13-1.83Z"/><path class="cls-95" d="M101.76,153.43c.17,.71,.35,1.41,.52,2.12-1.13-.1-.77-1.02-.9-1.67-.18-.41,.05-.48,.38-.45Z"/><path class="cls-14" d="M101.76,153.43c-.13,.15-.26,.3-.38,.45-.12-.04-.25-.08-.37-.12-.33-.39-.33-.78-.05-1.19,.14-.3,.27-.59,.41-.89,.13,.58,.26,1.16,.39,1.75Z"/><path class="cls-95" d="M104.08,159.47c.65,.8,.25,1.74,.33,2.61-.4,.28-.81,.56-1.21,.84-.15-.86-.29-1.73-.44-2.59,.12-.13,.25-.25,.38-.37,.29-.21,.58-.41,.94-.48Z"/><path class="cls-71" d="M103.26,160.28c-.16,.01-.33,.03-.49,.04,.16-.86-.99-1.69-.06-2.57,.16,.28,.32,.56,.49,.83,.4,.55,.43,1.11,.07,1.69Z"/><path class="cls-95" d="M89.32,134.3c.76,1.28,.45,2.55,.05,3.87-.39,1.27-1.14,2.46-.99,3.87-.61,.1-.21,3.25-1.73,.57,.48-.93,1.27-1.73,1.18-2.89,.96-1.68,.73-3.69,1.5-5.42Z"/><path class="cls-56" d="M79.75,139.97c1.66-.52,3.99,.46,4.26,1.79-.12-.07-.25-.22-.35-.21-1.61,.21-2.65-.95-3.91-1.58Z"/><path class="cls-76" d="M87.99,139.97c-.06,1.08-.26,2.09-1.35,2.64-.59-.45-1.1-.32-1.73,.06-1.19,.71-.75-.44-.91-.89,1.13-.72,3.27,.56,3.58-1.8,.13-.21,.26-.21,.4,0Z"/><path class="cls-107" d="M111.85,150.37c-.64,.77-1.11,1.62-1.36,2.59-.55-.62-1.22-1.25-1.96-.47-.85,.9-2.91,.34-2.8,2.36,.03,.55,.13,1.16-.42,1.58-.41-.64-.13-1.35-.22-2.02,0-.45,0-.9,0-1.35,.04-.87,.11-1.73,.09-2.6-.02-.86,.25-1.71-.01-2.57,.18-.45,.46-.73,.99-.6,.16,.29-.04,1.2,.39,.83,1.47-1.3,3.62-.67,5.03-2.04,1.1-1.07,1.33,.44,1.94,.8-.55,1.16-1.11,2.32-1.66,3.49Z"/><path class="cls-34" d="M105.27,154.2c.01,.74,.03,1.48,.04,2.23-.14,.86,.32,1.81-.4,2.59,0-1.55,0-3.11,.01-4.66,.04-.21,.16-.26,.34-.15Z"/><path class="cls-40" d="M105.27,154.2c-.12,.04-.23,.09-.34,.15-.1-.47,.05-1.01-.44-1.36-.02-.44-.03-.89-.05-1.33,.04-.13,.04-.26,.02-.39,.47-.67-.02-1.5,.36-2.19,.06-.58,.12-1.17,.18-1.75,.23,.03,.33,.15,.29,.38,.62,.79,.4,1.72,.43,2.61-.51,.82,.07,1.79-.38,2.62-.03,.42-.05,.84-.08,1.25Z"/><path class="cls-7" d="M104.07,158.6c.02-1.35-.31-2.73,.32-4.03-.06,1.34,.41,2.73-.32,4.03Z"/><path class="cls-97" d="M103.26,160.28c-.02-.56-.05-1.13-.07-1.69,.26,0,.51-.01,.77-.02,.04,.3,.09,.6,.13,.9-.07,.48-.23,.87-.83,.81Z"/><path class="cls-27" d="M77.65,130.06c-.02-.16-.04-.32-.05-.48,.72-2.3,.22-4.68,.47-7.01,.77,.88,.81,1.96,.86,3.04-.26,1.53,.35,3.31-1.28,4.44Z"/><path class="cls-4" d="M77.65,130.06c1.19-1.26,.59-3.04,1.28-4.44,.53,1.67,.05,3.23-.55,4.77-.26,.02-.52,.04-.78,.06-.01-.13,0-.26,.05-.38Z"/><path class="cls-118" d="M87.99,139.97c-.13,0-.27,0-.4,0,.88-2.1,.59-4.44,1.33-6.58,.39,.18,.34,.57,.41,.9,.22,2.05-.68,3.83-1.33,5.67Z"/><path class="cls-119" d="M136.98,146.52c-.68,.04-1.17,.04-1.79-.61-3.23-3.41-7.1-6.05-11.23-8.24-.82-.43-1.08-.92-1.33-1.63,.43-.3,.86-.59,1.29-.89,.46-.92,1.16-1.5,2.21-1.59,.57-.34,1.14-.68,1.7-1.01,3.15-2.11,6.48-3.62,10.39-3.36,.3,.71,.6,1.42,.9,2.13,.44,.68-.09,1.53,.39,2.2,0,1.56,0,3.12,0,4.68-.48,.67,.05,1.52-.38,2.19-.02,.28-.04,.56-.05,.84-.91,1.69-.88,3.74-2.1,5.3Z"/><path class="cls-11" d="M138.23,129.18c-3.63,.61-6.97,2.11-10.39,3.37-.4-1.27,.95-2.08,1.04-3.34-1.31,.02-1.06,1.09-1.39,1.66-.24,.41-.23,1.08-.94,.48-.06-1.21,.17-2.36,1.27-3.01,.73-.43,.63-1.04,.69-1.66,.28-.98,1.99-1.22,1.36-2.67-.07-.8,.65-1.13,.98-1.68,.04-.32-.15-.61-.09-.93,1.46,.13,1.76-1.06,2.16-2.01,.57-1.35,1.5-1.57,2.75-1.14,.16-.1,.32-.1,.48-.03,.13,.1,.26,.21,.39,.32,.95-.56,1.83-1.23,2.97-1.35,.56-.44,.36-1.31,.99-1.71,.53-.23,1.04-.25,1.51,.16,.67,.6,.18,1.27-.09,1.72-1.56,2.58-2.52,5.49-4.38,7.92-1.62,2.11-1.48,2.55,.7,3.9Z"/><path class="cls-36" d="M144.2,99.2c.91-.24,2.2,.76,2.7-.83,.82,2.1,.04,4.21-.23,6.23-.33,2.44-1.17,4.82-1.54,7.3-.14,.91-.48-.12-.76-.11-.15,.16-.34,.24-.55,.28-1.8-.82-3.69-1.54-4.47-3.63,1.5-1.83,1.53-4.02,1.59-6.24,.02-.6-.17-.76-.65-.83,1.21-.88,2.4-1.81,3.91-2.16Z"/><path class="cls-82" d="M143.78,111.87c.2-.03,.39-.05,.59-.08-.1,.24-.19,.7-.31,.7-2.09,.15-1.97,1.71-2.06,3.14-.53,.02-1.07,.05-1.6,.07-.32,.26-.1,.83-.59,1-.22-.01-.39-.11-.51-.3-.24-.6-.13-1.2,.35-1.55,1-.74,1.52-1.85,2.3-2.76,.56-.42,1.21-.16,1.82-.23Z"/><path class="cls-20" d="M139.52,133.51c-.61-.65-.33-1.45-.39-2.2,.69,.63,.31,1.46,.39,2.2Z"/><path class="cls-20" d="M139.13,140.38c.04-.75-.21-1.54,.38-2.19-.08,.74,.29,1.56-.38,2.19Z"/><path class="cls-74" d="M143.78,111.87c-.46,.48-1.11,.19-1.64,.38-.88,1.46-2.31,2.48-3.12,4.06-.54,1.05-1.76,1.71-3.01,2.03-.12-.03-.24-.06-.36-.1,0-.27-.01-.54-.02-.81-.38-1.75-2.04-2.31-3.14-3.39-1.46-1.52-1.64-3.32-1.18-5.27,.09-.17,.19-.33,.29-.48,2.36-2.13,4.22-2.1,7.74,.14,1.29,1.39,2.94,2.31,4.43,3.44Z"/><path class="cls-40" d="M131.61,108.29c-.1,.16-.19,.32-.29,.48-1.01,.02-2.02,.05-3.03,.07,0-.16-.01-.32-.02-.47,1.11-.16,2.21-.62,3.33-.08Z"/><path class="cls-36" d="M135.2,101.84c1.15,0,2.3,.02,3.46,.03-1.16,.62-2.31,.66-3.46-.03Z"/><path class="cls-23" d="M105.29,147.72c-.1-.13-.2-.25-.29-.38,.13-.72,.26-1.44,.39-2.16,.35,0,.63,.11,.8,.44-.01,.56-.02,1.12-.03,1.67-.29,.14-.58,.29-.87,.43Z"/><path class="cls-107" d="M104.82,149.09c-.02,.74,.18,1.53-.36,2.18,.07-.74-.28-1.54,.36-2.18Z"/><path class="cls-131" d="M130.75,121.39c.17,.46,.96,.17,.97,.81-.32,.28-.72,.37-1.12,.45-1.69,.49-1.52,2.26-2.24,3.4-1.76,2.77-1.63,2.85-4.6,1.78-1.63-.48-2.75-1.79-4.19-2.58-.52-.46-.79-1.05-.95-1.71-.18-.6-.19-1.2,.06-1.78,1.52-2.37,3.97-3.19,6.62-2.27,1.81,.63,3.49,1.64,5.43,1.9Z"/><path class="cls-1" d="M132.5,114.05c1.62,.59,3.32,1.12,3.14,3.39-.93-1.24-2.54-1.84-3.14-3.39Z"/><path class="cls-24" d="M118.7,121.76c-.02,.59-.04,1.19-.06,1.78-1.1-.18-1.84,.77-2.85,.88-.16-.14-.33-.29-.49-.43,1.02-.92,2.85-.6,3.4-2.23Z"/><path class="cls-75" d="M112.27,136.88c-.29-.27-.58-.55-.87-.82-.34-2.19,.63-3.67,2.46-4.77,1.28-.76,2.48-1.64,3.95-2.62-.43,1.62,1.05,1.79,1.68,2.62-.33,.38-1,.69-.27,1.29,1.39-.09,1.72,.55,1.22,1.77-1.6,2.04-3.86,2.58-6.27,2.7-.62,.03-1.27-.03-1.9-.17Z"/><path class="cls-30" d="M128.76,126.61c.2,.84,.86,1.72-.7,2.11-1.21,.31-.67,1.93-1.52,2.63-1.3-2.01-3.97-2.32-5.3-4.29,1.06-.78,1.67,.5,2.55,.56q2.68,1.24,4.36-1.76c.17-.3,.43-.33,.7-.11,.13,.31,.08,.59-.08,.87Z"/><path class="cls-121" d="M112.27,136.88c2.94-.17,5.7-.9,8.18-2.54,.61,.27,1.09,.66,1.33,1.31-.67,.45-1.52-.09-2.19,.39,0,0,0-.02,0-.02-1.48,.5-2.83,1.37-4.42,1.59-1.07,.14-2.11,.25-2.88-.74Z"/><path class="cls-11" d="M126.13,133.56c-.74,.53-1.48,1.06-2.21,1.59-.81-.57-.82-1.14-.14-1.88,.5-.55,.71-1.55,1.67-1.34,.75,.17,.64,.99,.69,1.62Z"/><path class="cls-12" d="M123.97,127.78c-1,.08-1.71-.91-2.73-.73-.68-.48-1.43-.9-1.65-1.8,1.81-.01,2.73,1.82,4.38,2.14,.13,.08,.18,.17,.14,.26-.04,.09-.09,.13-.13,.13Z"/><path class="cls-119" d="M110.51,136.49c.24,.1,.71,.23,.7,.29-.15,.89-.92,.88-1.58,1.04-.02-.65,.56-.9,.88-1.32Z"/><path class="cls-94" d="M119.22,132.58c-.33-.04-.78,0-.75-.48,.04-.57,.5-.76,1.02-.81-.07,.44-.51,.79-.27,1.29Z"/><path class="cls-11" d="M119.58,136.05c.64-.64,1.48-.14,2.19-.39-.63,.69-1.45,.32-2.19,.39Z"/><path class="cls-83" d="M105.35,152.95c.06-.88-.23-1.82,.38-2.62-.1,.88,.34,1.83-.38,2.62Z"/><path class="cls-1" d="M136.02,118.34c2.04-1.82,4.11-3.61,5.52-6.01,.06-.11,.39-.06,.6-.08-.17,1.9-2.41,2.47-2.75,4.27-.77,.91-2.52,2.07-3.29,2.18-.05-.12-.07-.24-.08-.36Z"/><path class="cls-58" d="M136.1,118.7c1.1-.73,2.2-1.46,3.29-2.18,.18,.02,.36,.03,.54,.05,.34,.43,.36,.86,0,1.3-1.17-.11-2.1-.01-2.79,1.26-.89,1.66-.71-.19-1.04-.43Z"/><path class="cls-45" d="M128.76,126.61c-.02-.31-.03-.62-.05-.93-.28-.89,.87-.94,.95-1.61,.13-.16,.3-.24,.5-.24,1.81,2.08-.69,1.98-1.41,2.78Z"/><path class="cls-45" d="M130.59,122.28c.38-.03,.76-.06,1.14-.09-.17,.88-1.36,.78-1.56,1.63-.09,.06-.17,.12-.26,.18-.79-.83-.73-.98,.68-1.73Z"/><path class="cls-107" d="M139.92,117.87c0-.43,0-.86,0-1.3,.1-.32,.05-.72,.47-.86-.12,.73,.32,1.58-.48,2.15Z"/><path class="cls-52" d="M130.59,122.28c-.37,.52-1.35,.8-.68,1.73,.22,1-.84,1.08-1.2,1.67-.14,.15-.36,.27-.41,.45-.98,3.25-1.93,3.62-4.33,1.65,0-.13,0-.26,0-.39,2.68,.92,4.11-.03,4.86-3.52,.24-1.13,.66-1.62,1.76-1.58Z"/></g></g></svg>