<?xml version="1.0" encoding="utf-8"?>
<!-- Generator: Adobe Illustrator 25.0.0, SVG Export Plug-In . SVG Version: 6.00 Build 0)  -->
<svg version="1.1" id="Calque_1" xmlns="http://www.w3.org/2000/svg" xmlns:xlink="http://www.w3.org/1999/xlink" x="0px" y="0px"
	 viewBox="0 0 500 500" style="enable-background:new 0 0 500 500;" xml:space="preserve">
<style type="text/css">
	.st0{fill:#CC051D;}
	.st1{fill:#FEFEFE;}
	.st2{fill:#149035;}
	.st3{fill:#FDFDFD;}
	.st4{fill:#020202;}
</style>
<g>
	<path class="st0" d="M249.9,43.5c0.2,0,0.4,0,0.5,0c2.6,0.3,4.7,1.6,7,2.6c13.7,6.3,28,11.1,42.6,14.9c17.4,4.6,35.1,7.6,52.9,10
		c11.2,1.5,22.5,2.8,33.8,3.9c7.7,0.8,15.3,1.6,23,2.4c2.4,0.3,2.7,0.7,2.9,3.2c0.6,6.8,0.6,13.7,0.8,20.5c0,0.2,0,0.5,0.1,0.6
		c0,12.6,0,25.2,0,37.9c-0.3,1.5-0.2,3-0.2,4.4c-0.1,4.9-0.2,9.8-0.5,14.7c-0.3,5-0.8,9.9-1.4,14.9c-1,8.6-2.1,17.2-3.5,25.8
		c-2.4,15.1-5.3,30.1-8.9,45c-2.6,10.8-5.7,21.5-9.3,32c-4.5,13.3-9.7,26.3-15.7,39c-8.5,18.1-18.3,35.4-29.5,51.9
		c-7,10.2-14.5,20-22.5,29.4c-4.6,5.3-9.3,10.5-14.2,15.6c-2.7,2.8-5.5,5.7-8.3,8.5c-10.7,10.4-22.3,19.6-34.9,27.5
		c-3.6,2.3-7.2,4.4-10.8,6.6c-2.4,1.5-4.5,1.6-7,0.2c-9.8-5.7-19.3-11.9-28.3-18.8c-9.7-7.5-18.5-16-27-24.9
		c-8.6-9-16.7-18.5-24.3-28.4c-8.1-10.5-15.5-21.5-22.4-32.8c-6.1-10.1-11.7-20.4-16.8-31c-6.1-12.7-11.4-25.7-16.1-39
		c-6.9-19.6-11.9-39.7-15.8-60.1c-1.9-10-3.7-20.1-5.1-30.2c-1.1-8.2-2.1-16.5-2.9-24.7c-0.5-6.3-1.1-12.5-1.2-18.9
		c-0.1-4.3-0.2-8.5-0.3-12.8c-0.2-7.4-0.1-14.7-0.1-22.1c0.1-7.7,0.2-15.5,0.6-23.2c0.2-3,0.5-6.1,0.8-9.1c0.1-0.9,0.5-1.3,1.3-1.5
		c2.2-0.4,4.4-0.5,6.6-0.8c4.7-0.5,9.5-1,14.2-1.5c5.5-0.6,11-1.2,16.5-1.8c7-0.8,14-1.6,21.1-2.6c10.5-1.4,20.9-3,31.3-5.1
		c10.1-2,20.1-4.3,30-7.3c8.8-2.6,17.5-5.5,26-9c3.8-1.6,7.6-3.2,11.3-5C247.4,44.1,248.7,44,249.9,43.5z"/>
	<path class="st1" d="M412.2,43.5c1,0,1.4,0.1,1.4,1.3c0,19,0,38,0,57c-0.6-1.7-0.4-3.6-0.5-5.3c-0.3-5.5-0.8-11-1.2-16.6
		c-0.1-1.1-0.5-1.6-1.7-1.7c-9.1-0.9-18.2-1.8-27.3-2.8c-9.3-1-18.6-2.1-27.8-3.3c-12.2-1.5-24.3-3.5-36.4-5.9
		c-18.3-3.7-36.2-8.7-53.5-15.8c-5-2.1-10-4.2-14.8-6.8"/>
	<path d="M382.8,142c-0.2,8.5-0.3,16.4-0.6,24.4c-0.3,7.6-0.6,15.2-1.4,22.8c-0.9,9.3-2.2,18.6-3.9,27.9
		c-4,22.2-10.9,43.6-19.7,64.3c-6.9,16.2-15,31.8-24.1,46.8c-6.7,11.1-14.5,21.3-22.3,31.6c-5.3,6.9-10.7,13.7-16.4,20.4
		c-3.5,4.1-7,8.1-10.6,12.1c-4.5,5-9.3,9.8-14.2,14.5c-5.7,5.4-11.6,10.4-18.1,14.8c-1,0.6-1.6,0.6-2.5,0c-5.7-4-11.1-8.4-16.2-13.1
		c-4.2-3.8-8.1-7.8-12-11.8c-5.8-6-11.3-12.3-16.6-18.7c-7.8-9.2-15.1-18.8-22.4-28.4c-8.6-11.4-16.1-23.5-23-36
		c-8.1-14.9-15.3-30.2-21.2-46.1c-6.9-18.4-12.1-37.2-15.2-56.6c-1.4-8.9-2.6-17.8-3.2-26.7c-0.5-6.3-0.8-12.7-0.9-19
		c-0.2-7.8-0.5-15.5-0.5-23.3c0-1.2-0.1-2.4-0.2-3.7c-0.1-0.8,0.3-1.3,1.2-1.3c1.6-0.1,3.2-0.3,4.7-0.4c8.8-0.7,17.5-1.2,26.3-2
		c15.7-1.4,31.3-3.2,46.7-6.5c18.2-3.8,35.7-9.3,52.4-17.5c0.9-0.4,1.7-0.5,2.6-0.1c5.8,2.8,11.6,5.3,17.6,7.6
		c10.4,3.9,21.1,7,32,9.4c10.3,2.3,20.8,3.9,31.3,5.2c7.7,0.9,15.4,1.7,23.1,2.3c8.5,0.6,17,1.3,25.5,1.9c1.7,0.1,1.9,0.3,1.9,2
		C382.8,139.8,382.8,141.1,382.8,142z"/>
	<path class="st1" d="M331.3,109.7c2.2-5.1,4.5-10.2,6.7-15.3c0.5-1.3,1-1.5,2.3-0.9c1.2,0.7,2.5,1.2,3.9,1.7
		c0.7,0.3,0.8,0.6,0.5,1.2c-3.5,7.9-7,15.9-10.4,23.8c-0.3,0.7-0.6,0.8-1.3,0.5c-1.8-0.8-3.6-1.7-5.5-2.4c-0.8-0.3-1-0.8-1-1.5
		c-0.4-6.1-0.9-12.1-1.4-18.2c0-0.5-0.1-1.1-0.2-1.7c-0.6,0.3-0.6,0.9-0.8,1.3c-2.1,4.8-4.2,9.6-6.3,14.5c-0.4,0.9-0.7,1.2-1.7,0.7
		c-1.3-0.7-2.7-1.2-4.1-1.8c-0.7-0.3-1-0.6-0.6-1.4c3.5-7.8,6.9-15.7,10.3-23.6c0.4-0.8,0.7-1,1.5-0.6c1.7,0.8,3.5,1.6,5.2,2.3
		c0.8,0.3,1.1,0.8,1.1,1.6c0.4,6.2,0.9,12.3,1.4,18.5c0,0.4,0.1,0.9,0.2,1.3C331.1,109.7,331.2,109.7,331.3,109.7z"/>
	<path class="st1" d="M221.7,83.8c-0.1-2.4-0.3-4.9-0.4-7.3c-0.1-0.8,0.1-1.1,1-1.2c1.8,0,3.5-0.1,5.3-0.3c1-0.1,1.2,0.3,1.3,1.2
		c0.3,4.9,0.6,9.9,0.9,14.8c0.1,1.1,0.1,2.2,0.6,3.2c1.1,2.1,3.4,3,6.2,2.3c2.2-0.5,3.4-2.1,3.3-4.5c-0.2-5.4-0.6-10.8-0.9-16.2
		c-0.1-1.2,0.2-1.6,1.4-1.6c1.5,0,3.1-0.1,4.6-0.2c1-0.1,1.4,0.2,1.5,1.3c0.3,5.3,0.7,10.7,0.9,16c0.2,6.8-2.7,10.3-9.4,11.4
		c-2.3,0.4-4.5,0.4-6.8,0.1c-5.2-0.8-8.3-4.1-8.8-9.5C222.1,90.2,221.9,87,221.7,83.8C221.7,83.8,221.7,83.8,221.7,83.8z"/>
	<path class="st1" d="M174.7,118.8c-0.6-0.1-0.6-0.6-0.8-1c-2.5-5.5-4.9-10.9-7.3-16.4c-0.5-1.1-0.9-1.4-2.1-0.8
		c-1.7,0.9-3.5,1.5-5.2,2.4c-0.8,0.4-1.2,0.3-1.5-0.5c-0.6-1.5-1.3-2.9-1.9-4.3c-0.3-0.6-0.4-1,0.4-1.4c7-3.1,14-6.2,21-9.4
		c0.7-0.3,0.9-0.2,1.2,0.5c0.6,1.5,1.3,3.1,2.1,4.6c0.3,0.7,0.1,1-0.5,1.3c-1.9,0.8-3.7,1.7-5.6,2.5c-0.9,0.4-1.1,0.7-0.7,1.7
		c2.5,5.5,5,11.1,7.5,16.6c0.5,1,0.3,1.4-0.7,1.8c-1.7,0.7-3.4,1.5-5.1,2.2C175.2,118.6,175,118.7,174.7,118.8z"/>
	<path class="st1" d="M255.8,88c0.2-4.3,0.5-8.6,0.7-12.9c0-1,0.4-1.2,1.3-1.1c1.9,0.2,3.7,0.3,5.6,0.3c1,0,1.2,0.4,1.1,1.3
		c-0.3,5.1-0.6,10.2-0.9,15.4c-0.1,1.3-0.1,2.6-0.2,3.9c-0.1,0.8,0.2,1,0.9,1.1c3.6,0.2,7.2,0.4,10.7,0.5c1.4,0,1.8,0.5,1.6,1.9
		c-0.2,1.1-0.2,2.2-0.1,3.3c0,0.9-0.2,1.3-1.2,1.2c-6.3-0.4-12.6-0.7-18.9-0.9c-1.2,0-1.4-0.5-1.3-1.6
		C255.4,96.1,255.6,92.1,255.8,88C255.8,88,255.8,88,255.8,88z"/>
	<path class="st2" d="M306.5,178.7c0.5,5.6,0.4,11.2-0.7,16.8c-0.1,0.4-0.3,1,0.1,1.3c0.6,0.4,0.9-0.3,1.2-0.6
		c3.5-4.1,7.6-7.6,11.6-11.1c1.2-1.1,2.5-2.1,3.8-3c0.3-0.2,0.8-0.7,1.2-0.1c0.3,0.4-0.2,0.8-0.5,1c-2.7,2.4-5.4,4.9-8,7.4
		c-7.2,6.7-13.6,14.1-19.3,22.1c-0.8,1.1-1.5,2.1-2.3,3.2c-0.1,0.1,0,0.2,0,0.5c0.8-0.1,1.4-0.5,1.9-0.9c3.2-2.1,6.4-4.2,9.9-5.7
		c4.6-1.9,9.3-3.1,14.2-3.4c0.7,0,1.9-0.2,1.9,0.7c0,0.7-1.2,0.6-1.9,0.6c-10.8,0.8-19.8,5.6-27.9,12.6c-4.1,3.5-6.4,8.2-8.9,12.8
		c-3.8,7-7.3,14.2-10.2,21.7c-0.2,0.6-0.6,1.1-0.4,1.9c1.1-0.4,1.8-1.2,2.6-1.9c3.6-3.3,7.4-6.3,11.6-8.8c0.6-0.4,1.6-1.2,2-0.6
		c0.6,0.9-0.7,1.3-1.3,1.7c-4.8,3.2-9.4,6.7-13.5,11c-2.3,2.5-4.2,5.3-5.3,8.5c-2.5,7.3-4.5,14.7-6.2,22.3c-0.1,0.5-0.3,1,0,1.5
		c0.8-0.3,1.1-1,1.6-1.6c1.4-2,3-4,4.7-5.8c0.3-0.3,0.7-0.6,1-0.9c0.3-0.2,0.6-0.6,1-0.3c0.4,0.4,0.1,0.8-0.2,1.1
		c-1.2,1.4-2.4,2.7-3.5,4.1c-4.8,6.5-7.4,13.7-8.3,21.7c-1.1,10.3-2.2,20.7-2.7,31c-0.5,8-0.8,16-0.7,23.9
		c0.1,5.7,0.6,11.4,0.5,17.1c0,1.3-0.1,2.5-0.3,3.8c-0.2,1.6-1.1,1.8-2.3,0.8c-10.4-9.1-21.3-17.6-31.8-26.4
		c-6.5-5.4-12.9-11-19.1-16.8c-7.6-7-15-14.2-22.2-21.7c-7.7-8-15.2-16.2-21.3-25.6c-6.7-10.3-11.7-21.3-13.6-33.6
		c-0.8-5-1.4-10.1-0.7-15.2c0-0.3,0.1-0.5,0.1-0.8c0.1-0.5,0.3-1.1,0.9-1.3c0.7-0.2,1,0.4,1.3,0.8c1.4,2,2.4,4.1,3.6,6.3
		c2.2,4.1,4.3,8.3,6.7,12.3c2,3.5,4.8,6.5,7.5,9.5c4.2,4.6,8.5,9.1,13.3,13.1c1.1,1,2.3,1.9,3.7,2.6c7.6,4.2,14.3,9.6,20.8,15.3
		c7,6.1,13.6,12.6,20,19.3c13.5,14,23.3,30.2,28.9,48.9c0.5,1.7,1,3.4,1.6,5.1c0.1,0.3,0.2,0.8,0.6,0.8c0.4-0.1,0.4-0.6,0.4-0.9
		c0-4.3,0.1-8.6-0.1-12.9c-1.5-27.9-10.5-53.8-20.6-79.5c-1.6-4.2-3.3-8.4-5.4-12.3c-1-1.9-2.6-3.4-4.2-4.8c-2.2-1.8-4.6-2-7.2-1
		c-0.7,0.3-1.3,0.6-2,0.8c-0.4,0.1-1,0.5-1.3-0.1c-0.2-0.6,0.4-0.9,0.8-1.1c2.6-1.5,5.4-1.8,8.3-1.1c0.6,0.1,1.2,0.4,1.8,0.6
		c0.6,0.2,0.9-0.1,0.7-0.7c-0.3-0.8-0.6-1.5-1-2.3c-3.2-6.6-6.4-13.1-9.9-19.6c-2.9-5.4-11.4-11-19.9-8c-1.9,0.7-3.7,1.5-5.5,2.4
		c-0.5,0.2-0.9,0.4-1.4,0.5c-0.3,0.1-0.6,0.1-0.7-0.2c-0.1-0.2,0.1-0.4,0.2-0.6c0.6-0.6,1.2-1.1,2-1.4c6.3-3.2,12.7-3.8,19.2-0.6
		c0.5,0.3,1.2,0.9,1.7,0.5c0.5-0.5-0.2-1.1-0.5-1.7c-3.8-7.1-7.9-14-11.9-20.9c-3.2-5.6-8.2-7.6-14.3-8c-1.6-0.1-3.2,0-4.8-0.2
		c-0.3,0-0.7,0-0.7-0.4c0-0.3,0.4-0.4,0.6-0.4c1.8-0.4,3.7-0.3,5.6-0.2c2.6,0.2,5.2,0.6,7.7,1.7c0.3,0.1,0.6,0.4,0.9,0
		c0.2-0.2,0-0.5-0.1-0.8c-0.8-1.3-1.6-2.6-2.4-3.9c-2.3-3.5-4.5-7-6.8-10.5c-0.3-0.5-0.9-1.2-0.3-1.5c0.6-0.4,1,0.5,1.3,0.9
		c4.1,5.6,7.7,11.5,11.4,17.3c1.1,1.6,2.1,3.3,3.2,4.9c0.2,0.3,0.3,0.8,0.8,0.6c0.3-0.1,0.2-0.6,0.2-0.9c0-2.4,0-4.7,0-7.1
		c0-4.2,0.4-8.4,1.9-12.5c1-2.8,2.8-5.2,4.7-7.5c0.3-0.4,0.8-1,1.3-0.5c0.5,0.5,0.1,1-0.3,1.4c-4.3,5-6.3,10.9-6.3,17.5
		c0,3.8-0.1,7.6,0.5,11.4c0.2,1.4,0.6,2.6,1.2,3.9c3.3,6.9,7.2,13.4,10.8,20.2c7.6,14.3,14.6,28.9,20.8,43.9
		c6.5,15.9,12.1,32,16.1,48.7c1.2,5.2,2.3,10.4,3.4,15.6c0.1,0.5,0.1,1,0.5,1.4c0.7-0.2,0.6-0.8,0.6-1.2c0.6-3.5,0.5-7.1,0.8-10.7
		c0.6-9.8,1.5-19.5,2.9-29.2c0.8-5.4,1.7-10.8,2.8-16.2c0.8-4.1,0.2-8-1.1-11.9c-0.2-0.8-0.6-1.5-0.8-2.3c-0.1-0.4-0.6-1,0.1-1.3
		c0.5-0.2,0.9,0.4,1.1,0.8c0.9,1.6,1.3,3.3,1.8,5c0.1,0.3,0.1,0.9,0.5,0.9c0.5,0.1,0.6-0.5,0.7-0.9c2-7.5,4.9-14.7,6.6-22.2
		c0.9-3.9,0.1-7.9-0.7-11.7c-0.7-3.2-1.7-6.2-3.1-9.1c-0.4-0.7-1.1-1.9-0.3-2.3c0.8-0.4,1.3,0.9,1.6,1.7c1.8,3.7,2.8,7.8,3.5,11.8
		c0.2,1,0.3,2.1,0.5,3.1c0.1,0.4,0,0.9,0.5,1c0.5,0,0.6-0.5,0.8-0.8c0.5-1.1,1-2.1,1.5-3.2c1.7-4.1,3.5-8.1,5.6-11.9
		c2.3-4.2,3.5-8.8,3.9-13.5c0.3-4.2,0.7-8.3,0.4-12.5c-0.1-2.3-0.8-4.4-1.6-6.4c-0.2-0.5-0.9-1.4-0.3-1.7c0.8-0.4,1.2,0.6,1.5,1.2
		c1.2,2.3,1.5,4.7,1.7,7.2c0.4,4.6,0,9.2-0.4,13.7c0,0.4-0.3,0.9,0.2,1.1c0.4,0.1,0.7-0.4,0.9-0.7c0.7-1.1,1.4-2.2,2.1-3.3
		c3.8-5.8,7.7-11.7,12.1-17.1c3.7-4.4,5.1-9.5,5.7-15c0.4-3.3,0.2-6.5,0.3-9.8c0-0.5,0-0.9-0.6-1
		C305.4,178.3,305.9,178.2,306.5,178.7z"/>
	<path class="st2" d="M312.7,336.5c0.2-9.4,0.4-18.8,0.6-28.2c0-0.9,0.4-2-0.5-2.5c-0.9-0.5-1.7,0.4-2.4,0.9
		c-5.5,3.4-9.5,8.2-13.2,13.3c-8.9,12.4-15.4,26.1-20.9,40.2c-4.6,11.9-8.5,24.2-12.7,36.2c-0.8,2.3-1.6,4.7-3,6.7
		c-0.5,0.7-1.1,2-2.1,1.6c-1-0.3-0.5-1.6-0.5-2.5c1.1-21.2,3.5-42.2,8.7-62.9c2.7-10.7,6-21.2,11.2-31c5.1-9.7,11.9-18.1,19.9-25.5
		c9.4-8.7,20.2-14.8,32.2-19.2c3.4-1.2,6.9-2.2,10.6-2.2c1.8,0,2.2,0.3,2.6,2.1c0.9,4.7,0.8,9.4,0.5,14.1
		c-0.7,10.4-2.9,20.6-6.5,30.4c-4.9,13.5-12.2,25.6-22.1,36.1c-0.5,0.6-1.1,1.6-1.9,1.3c-0.6-0.3-0.2-1.4-0.2-2.2
		C312.7,341,312.8,338.7,312.7,336.5C312.8,336.5,312.7,336.5,312.7,336.5z"/>
	<path class="st3" d="M306.5,178.7c-0.5,0.1-0.9,0.3-1.4,0.4c-2.6,0.2-5.2,0.4-7.7,0.1c-1.5-0.1-2.8-0.6-3.9-1.5
		c-3.6-3-6.8-6.2-7.9-11c-0.7-3.1-2.4-5.7-4.1-8.4c-0.7-1.2-1.5-2.3-1.9-3.6c-0.4-1.1-0.1-1.7,1.1-1.7c1.5-0.1,3.1-0.1,4.6-0.1
		c0.8,0,1.2-0.2,1.4-1c0.3-1.1,0.6-2.1,1-3.1c0.6-1.5,1.1-1.8,2.7-1.5c1,0.2,2,0.6,2.9,1.1c0.6,0.3,0.9,0.2,1.1-0.4
		c0.2-0.7,0.4-1.4,0.7-2.1c0.5-1.5,1.3-2.1,2.7-1.5c2.8,1.1,5.4,1.5,8.1-0.3c1.1-0.7,1.9-0.2,2,1.1c0.5,5.1,2.5,9.8,4.5,14.5
		c2.6,6.2,1,11.6-2.8,16.7C308.8,177.4,307.8,178.2,306.5,178.7z"/>
	<path class="st3" d="M171.3,191.4c-6.1-0.4-10.3-3.7-13.2-8.7c-2.3-4-4.7-7.9-8-11.1c-0.3-0.3-0.5-0.6-0.7-0.9
		c-1-1.5-0.6-2.4,1.1-2.7c1.5-0.3,2.9-0.5,4.4-0.7c0.7-0.1,1-0.4,1.1-1.1c0.2-1.1,0.4-2.2,0.6-3.3c0.2-1.4,0.8-1.9,2.2-1.6
		c1,0.2,2,0.5,3,0.8c0.7,0.2,1,0,1.1-0.7c0.1-1,0.4-2,0.5-2.9c0.1-1.2,0.8-1.5,1.9-1.3c0.9,0.2,1.9,0.3,2.8,0.6
		c1.2,0.4,2.1,0.2,3-0.6c0.8-0.6,1.6-1.2,2.6-1.4c0.9-0.2,1.8-0.1,2,1c0.9,4.4,3.3,8.2,5.8,11.8c3.4,5,3.4,10.1,1.7,15.6
		c-1.6,5.2-5.6,6.9-10.5,7.2C172.3,191.4,171.8,191.4,171.3,191.4z"/>
	<path class="st3" d="M252.9,236.9c-3.4,0.3-6.6-0.4-9.6-2c-3.7-1.9-7.5-3.4-11.6-4.3c-1.7-0.4-2.1-1.4-1.1-2.9
		c0.7-1.2,1.7-2.1,2.8-3c0.5-0.5,0.6-0.9,0.3-1.5c-0.5-1.1-0.9-2.2-1.1-3.5c-0.1-1.1,0.3-1.8,1.4-2.1c0.9-0.3,2.3-0.2,2.7-1.1
		c0.4-0.8-0.6-1.7-0.9-2.6c-0.6-1.7-0.4-2.7,1.4-3.2c2.6-0.7,4.2-2,4.7-4.7c0.3-1.5,1.5-1.9,2.7-0.9c4.5,3.5,9.6,5.6,14.7,8
		c3.6,1.7,5,5,6,8.6c0.5,2.1,0.5,4.2,0.3,6.4c-0.2,3.4-5.3,8.5-9.2,8.5C255.3,236.6,254.1,236.8,252.9,236.9z"/>
	<path class="st3" d="M321.7,213.3c-0.1-1.7,0.1-3.2,0.3-4.6c0.9-5.5,4.1-8.2,9.8-8.8c6.4-0.7,11.2,2,15,6.8
		c2.3,2.9,4.6,5.7,7.3,8.2c0.7,0.7,1.3,1.4,1.9,2.1c0.8,1.1,0.6,2.1-0.7,2.6c-1.2,0.5-2.6,0.9-3.9,1.3c-0.9,0.2-1.1,0.6-1.1,1.5
		c0.1,1.3,0,2.5,0,3.8c0,0.7-0.2,0.9-0.9,0.9c-1.3,0-2.6-0.1-3.9-0.4c-0.8-0.2-1.1,0.1-1.2,0.8c-0.1,0.9-0.2,1.9-0.3,2.8
		c-0.1,1.5-0.5,1.8-2,1.6c-1-0.2-2-0.3-2.9-0.5c-0.6-0.2-1,0-1.4,0.4c-0.8,0.8-1.6,1.7-2.7,2.3c-1.1,0.6-2,0.4-2.5-0.7
		c-1.9-4.5-5-8.2-8-11.9C322.6,219,321.3,216.3,321.7,213.3z"/>
	<path class="st3" d="M284.8,191.6c0,1.2-0.1,2.7-0.4,4.3c-1,5-4.2,7.7-9.5,8.4c-6,0.8-10.8-1.6-14.6-5.9c-2.8-3.3-5.6-6.7-9-9.4
		c-0.3-0.2-0.5-0.5-0.8-0.8c-1.1-1.3-0.9-2.5,0.7-3.2c1.2-0.5,2.4-0.9,3.6-1.3c0.9-0.3,1.2-0.7,1.2-1.6c-0.1-1,0-2.1,0-3.1
		c-0.1-1.1,0.2-1.7,1.5-1.4c1,0.2,2.1,0.2,3.1,0.3c1,0.1,1.3-0.2,1.2-1.2c-0.1-1,0-2,0-3c0-0.8,0.1-1.3,1.1-1.1
		c0.3,0.1,0.6,0,0.9,0.1c2.5,0.6,4.5,0.1,6.2-2c1.3-1.5,2.7-1.2,3.5,0.6c1.9,4.1,4.9,7.4,7.8,10.8
		C284.2,185.4,284.8,186.8,284.8,191.6z"/>
	<path class="st3" d="M177.9,214.4c0,3.2-1,6.7-2.9,9.9c-1.8,3-3.2,6.2-4.2,9.5c-0.1,0.3-0.2,0.7-0.4,1c-0.3,0.8-0.5,1.8-1.6,2
		c-1.2,0.3-1.6-0.6-2.1-1.4c-1.5-2.3-3.2-3.6-6.2-2.1c-1.7,0.9-2.6,0.1-3.1-1.9c-0.6-2.4-0.6-2.4-2.9-1.7c-3.1,0.9-3.3,0.8-4-2.4
		c-0.3-1.7-1.1-2.8-2.8-3.2c-0.5-0.1-1-0.4-1.4-0.7c-0.8-0.6-1-1.4-0.6-2.3c0.2-0.3,0.3-0.7,0.6-0.9c3.2-3.4,5.4-7.4,7.3-11.6
		c2.2-4.7,6.2-6.4,10.8-7.2C173.1,200.1,178.1,206.6,177.9,214.4z"/>
	<path class="st3" d="M339.2,190.9c-1.9,0.1-3.5-0.1-5.1-0.4c-5.1-1-7.9-4.7-8-10.5c-0.1-5.2,2.1-9.4,6.1-12.6
		c3.5-2.7,6.9-5.4,10-8.6c1.6-1.7,2.8-1.3,3.6,0.9c0.1,0.4,0.3,0.8,0.4,1.2c0.9,2.8,0.9,2.8,3.8,3c2.9,0.2,2.9,0.2,2.4,3
		c-0.5,2.8-0.5,2.8,2.2,2.8c2.4,0,2.5,0,2.1,2.5c-0.3,2-0.4,3.9,1.5,5.3c0.5,0.4,0.8,1.1,1,1.8c0.3,1,0.1,1.7-1.1,2
		c-2.3,0.6-4.2,2-6.2,3.4c-1.8,1.3-3.6,2.6-5.4,3.9C344.3,190.3,341.8,191.3,339.2,190.9z"/>
	<path class="st3" d="M207.9,183.6c0.3-4.4,2.2-7.7,6.2-9.6c3.9-1.9,8.1-2.2,12.2-1.2c3.5,0.9,7.1,1.4,10.7,1.8
		c3.6,0.4,4,1.1,2.1,4.2c-1.4,2.2-1.4,2.2,0.1,4.3c1.5,2.1,1.3,3-0.8,4.3c-0.1,0.1-0.2,0.1-0.3,0.2c-1.5,0.9-1.5,0.9-0.5,2.3
		c1.4,1.9,1.2,3.1-0.7,4.4c-0.3,0.2-0.6,0.4-0.9,0.6c-1.5,0.6-2,1.7-2,3.3c0,2-0.8,2.7-2.7,1.9c-4.9-2-10.2-3-15.3-4.4
		c-4.9-1.4-6.6-5.5-7.9-9.9C208,185,208,184.2,207.9,183.6z"/>
	<path class="st3" d="M302.1,233.9c4.6,0.2,8.7,1.5,12.4,4.4c2.6,2,5.5,3.5,8.5,4.8c1.6,0.6,2,2,0.8,3.2c-0.7,0.7-1.5,1.4-2.3,1.8
		c-1.2,0.6-1.4,1.4-0.9,2.6c0.3,0.8,0.4,1.7,0.6,2.5c0.2,0.9-0.2,1.3-1,1.4c-0.9,0.1-1.9,0.3-2.8,0.4c-0.6,0.1-1,0.3-0.7,1
		c0.3,0.9,0.3,1.9,0.5,2.8c0.1,1-0.2,1.6-1.2,1.8c-0.1,0-0.2,0-0.3,0c-2.5,0-4.1,1.1-5.1,3.4c-0.7,1.5-1.9,1.6-3.1,0.4
		c-3.5-3.7-7.7-6.4-11.7-9.2c-1.6-1.2-2.7-2.7-3.3-4.5c-0.9-3-1.3-6-0.7-9.1c0.3-2,1.2-3.6,2.9-4.8
		C296.7,235.2,299.1,233.7,302.1,233.9z"/>
	<path class="st3" d="M261.8,263.2c-0.1,3-0.3,5.4-1.3,7.6c-1.1,2.4-2.9,4-5.5,4.6c-6,1.6-11.7-0.4-15.5-5.8c-2.2-3.1-4.5-6-7-8.8
		c-2.3-2.5-2-3.5,1.3-4.2c2.1-0.5,3.2-1.2,3.2-3.6c0-2.2,0.3-2.2,2.4-2c0.2,0,0.4,0,0.5,0c2.5,0.2,2.5,0.2,2.6-2.3
		c0.1-1.7,0.4-2,2.2-1.9c0.4,0,0.8,0.1,1.2,0.2c1.3,0.4,2.4,0.2,3.3-0.8c0.7-0.7,1.5-1.1,2.6-1.1c0.7,0,1.3,0.2,1.5,0.9
		c1.3,3.9,3.9,7.1,6.2,10.5c0.2,0.2,0.3,0.5,0.5,0.7C261.3,259.3,262.1,261.4,261.8,263.2z"/>
	<path class="st3" d="M190.1,255.7c-0.2,3.3-0.4,6.6-0.7,9.9c-0.2,2.1-0.8,2.5-2.8,1.8c-0.1,0-0.2-0.1-0.2-0.1
		c-1.4-1.1-2.7-1.2-4,0.3c-0.8,0.9-2.1,0.7-3.1-0.1c-0.3-0.3-0.7-0.6-1-1c-1.7-1.9-1.7-1.9-3.9-0.5c-0.8,0.5-1.7,1.1-2.6,1.5
		c-1.1,0.4-2,0.1-2.5-0.9c-0.4-0.8-0.8-1.7-1-2.6c-0.3-1-0.8-1.2-1.7-1.1c-1.2,0.2-2.3,0.2-3.5,0.4c-0.7,0.1-1-0.1-1-0.9
		c0-1.1,0.2-2.1,0.6-3.1c2.1-5.4,4.7-10.5,8.2-15.2c2.3-3.1,5.4-5.2,9.5-5.4c5.4-0.3,9.8,3.8,10,9.3
		C190.3,250.6,190.1,253.2,190.1,255.7z"/>
	<path class="st3" d="M217,278.6c-0.1,2.4-0.6,4.7-1.5,6.9c-1.2,2.9-2.1,6-2.6,9.1c-0.3,2-1.4,2.6-2.9,1.3c-1.9-1.7-3.6-2.3-6-0.9
		c-1.2,0.7-2.2,0-2.8-1.7c-0.5-1.4-0.9-1.5-2.1-0.8c-2,1.2-3,0.9-3.9-1.3c-0.7-1.7-1.6-2.7-3.5-3c-1.8-0.3-2.2-1.3-1.2-2.9
		c2.4-3.9,4-8.1,5.5-12.4c1.3-3.6,4.5-5.2,8-6c0.8-0.2,1.7-0.3,2.6-0.3c5.2-0.2,8.9,2.8,9.9,7.9C216.7,275.9,216.8,277.3,217,278.6z
		"/>
	<path class="st3" d="M279.9,283.7c-2.9-0.3-5.6-1.2-8-3.2c-1-0.8-1.5-1.9-1.8-3.1c-1.2-5.9,1-10.8,6.3-13.7c1.5-0.8,3.2-1,4.6-1.9
		c1.8-1,3.5-2.1,5.3-3c1.8-1,2.9-0.5,2.9,1.5c0,2.2,0.7,3.4,3,4c1.5,0.4,1.7,1.4,0.8,3.1c-0.6,1.1-0.4,1.5,0.8,1.8
		c1.7,0.4,2.2,1.3,1.4,3.3c-0.5,1.4-0.5,2.6,0.3,3.9c0.9,1.4,0.5,2.3-1.1,2.7c-3.8,0.9-7.3,2.4-10.9,3.8
		C282.6,283.4,281.4,283.7,279.9,283.7z"/>
	<path class="st1" d="M232.4,140c2.4,2.8,3.7,6.1,5.6,9.4c-1.9,0-3.6,0-5.3,0c-0.5,0-0.6-0.5-0.8-0.8c-1.2-2-2.3-4-3.5-6
		c-0.3-0.5-0.6-1-1.1-1.4c-0.5-0.3-1.1-0.5-1.7-0.3c-0.5,0.2-0.2,0.8-0.2,1.2c0,2,0,4.1,0,6.1c0,0.8-0.2,1.3-1.1,1.2
		c-0.9-0.1-1.7-0.1-2.6,0c-0.9,0.1-1-0.3-1-1.1c0-6.5,0-13.1,0-19.6c0-0.8,0.2-1.2,1.1-1.2c2.7,0.1,5.4,0,8.2,0.1
		c3.4,0.1,5.3,1.5,5.9,4.5c0.7,3.4-0.3,6.5-3.2,7.6C232.6,139.8,232.5,139.9,232.4,140z"/>
	<path class="st1" d="M241.3,131.6c0-1.1,0.1-2.3,0.3-3.4c1.4-6,8-9,13.5-6.2c2,1,3.2,2.8,3.9,4.9c0.2,0.6,0,0.9-0.6,1
		c-1.1,0.3-2.3,0.5-3.4,0.8c-0.6,0.2-0.8-0.1-1-0.6c-0.8-1.9-1.9-2.7-3.7-2.6c-1.8,0.1-3,1.2-3.5,3.1c-0.5,2-0.5,4.1,0.1,6.1
		c0.5,1.7,1.8,2.7,3.4,2.8c1.7,0.1,3.1-0.8,3.5-2.6c0.4-1.5,1-1.6,2.2-1.1c0.4,0.2,0.9,0.3,1.4,0.5c1.9,0.6,1.9,0.6,1.2,2.5
		c-1.5,3.7-4.6,5.6-8.6,5.3c-4.3-0.3-7.4-2.9-8.4-6.9C241.4,133.9,241.3,132.8,241.3,131.6z"/>
	<path class="st1" d="M269.7,141c0-2.1,0-4.3,0-6.4c0-1-0.2-1.4-1.3-1.3c-1,0.1-2,0-3,0c-0.7,0-1-0.1-1-0.9c0.1-1.2,0-2.4,0-3.5
		c0-0.7,0.3-0.9,0.9-0.9c4.4,0,8.9,0,13.3,0c0.8,0,1,0.3,1,1c-0.1,1.1,0,2.3,0,3.4c0,0.7-0.2,1-0.9,0.9c-1,0-2.1,0-3.1,0
		c-0.9-0.1-1.1,0.3-1.1,1.1c0,4.3,0,8.5,0,12.8c0,1.2-0.4,1.5-1.5,1.4c-1.1-0.1-2.6,0.5-3.3-0.3c-0.7-0.7-0.2-2.2-0.2-3.3
		C269.7,143.8,269.7,142.4,269.7,141z"/>
	<path class="st1" d="M202.1,80.4c-9.2,0-15.4,5.5-15.4,13.6c0,9.3,5.5,15.5,13.5,15.5c9.2,0,15.4-5.4,15.3-13.5
		C215.5,86.7,210.1,80.3,202.1,80.4z M207.3,98.4c-0.4,2.5-2,4.1-4.5,4.7c-2.4,0.5-4.6-0.3-6-2.4c-1.2-1.7-2-4.4-2-7.1
		c-0.1-4.7,2.9-7.5,7.1-6.8c1.7,0.3,3,1.3,3.8,2.8C207.3,92.3,207.8,95.3,207.3,98.4z"/>
	<path class="st1" d="M294.9,78.1c-8.1-0.1-13.6,6.2-13.7,15.4c-0.1,8.1,6.1,13.6,15.2,13.7c8,0.1,13.6-6.2,13.6-15.3
		C310.1,83.6,304.1,78.1,294.9,78.1z M301.1,96.2c-1.3,3.6-3.8,5.1-7.1,4.5c-3.1-0.6-4.7-3-4.7-7.2c0.1-1.9,0.5-4.2,1.8-6.2
		c1.4-2.4,3.7-3.3,6.3-2.8c2.6,0.6,4.2,2.3,4.6,5.1C302.2,91.9,301.8,94.1,301.1,96.2z"/>
	<path class="st4" d="M227.9,132.3c0.5,0,0.9,0,1.4,0c1.4,0.1,2,0.6,2,1.9c0,1.3-0.5,1.9-1.8,2c-0.4,0.1-0.9,0.1-1.4,0.1
		c-2.7,0.1-2.7,0.1-2.7-2.6c0-1,0.2-1.5,1.3-1.4C227.1,132.4,227.5,132.3,227.9,132.3C227.9,132.3,227.9,132.3,227.9,132.3z"/>
</g>
<image style="overflow:visible;" width="1200" height="1515" xlink:href="../../../../../../Users/User1/Downloads/1200px-Logo_RC_Toulon_2015.svg.png"  transform="matrix(0.2252 0 0 0.1483 500 59.8614)">
</image>
</svg>
