<?xml version="1.0" encoding="utf-8"?>
<!-- Generator: Adobe Illustrator 25.0.0, SVG Export Plug-In . SVG Version: 6.00 Build 0)  -->
<svg version="1.1" id="Calque_1" xmlns="http://www.w3.org/2000/svg" xmlns:xlink="http://www.w3.org/1999/xlink" x="0px" y="0px"
	 viewBox="0 0 500 500" style="enable-background:new 0 0 500 500;" xml:space="preserve">
<style type="text/css">
	.st0{fill:#343434;}
	.st1{fill:#FEFEFE;}
	.st2{fill:#5C5C5C;}
	.st3{fill:#FDFDFD;}
	.st4{fill:#020202;}
</style>
<g>
	<path class="st0" d="M249.8,13c0.2,0,0.4,0,0.6,0c2.9,0.4,5.5,1.8,8.1,3c15.8,7.2,32.2,12.7,48.9,17.1c20,5.3,40.3,8.8,60.8,11.5
		c12.9,1.7,25.8,3.2,38.8,4.5c8.8,0.9,17.6,1.8,26.4,2.8c2.8,0.3,3.1,0.7,3.4,3.6c0.7,7.9,0.7,15.7,0.9,23.6c0,0.3,0,0.5,0.2,0.7
		c0,14.5,0,29,0,43.5c-0.4,1.7-0.2,3.4-0.3,5.1c-0.1,5.6-0.2,11.3-0.6,16.9c-0.3,5.7-0.9,11.4-1.6,17.1c-1.1,9.9-2.4,19.8-4,29.6
		c-2.8,17.4-6.1,34.6-10.2,51.7c-3,12.4-6.6,24.7-10.7,36.8c-5.2,15.3-11.2,30.2-18,44.8c-9.7,20.8-21,40.7-33.9,59.6
		c-8,11.7-16.6,23-25.8,33.8c-5.2,6.1-10.7,12.1-16.3,17.9c-3.1,3.3-6.3,6.6-9.5,9.7c-12.3,11.9-25.6,22.5-40.1,31.6
		c-4.1,2.6-8.3,5-12.4,7.6c-2.7,1.7-5.2,1.9-8.1,0.2c-11.3-6.5-22.2-13.7-32.5-21.6c-11.2-8.6-21.3-18.4-31-28.6
		c-9.9-10.4-19.2-21.3-28-32.6c-9.3-12.1-17.8-24.7-25.7-37.7c-7-11.6-13.4-23.4-19.2-35.6c-7-14.6-13.1-29.5-18.5-44.8
		c-7.9-22.5-13.7-45.6-18.2-69c-2.2-11.5-4.2-23.1-5.8-34.7c-1.3-9.4-2.4-18.9-3.3-28.4c-0.6-7.2-1.3-14.4-1.4-21.7
		c-0.1-4.9-0.2-9.8-0.3-14.7c-0.2-8.4-0.2-16.9-0.1-25.3c0.1-8.9,0.2-17.8,0.7-26.7c0.2-3.5,0.6-7,0.9-10.4c0.1-1,0.6-1.5,1.5-1.7
		c2.5-0.5,5.1-0.6,7.6-0.9c5.4-0.6,10.9-1.1,16.3-1.7c6.3-0.7,12.6-1.3,18.9-2.1c8.1-0.9,16.1-1.9,24.2-3c12-1.6,24-3.5,35.9-5.9
		c11.6-2.3,23.1-5,34.5-8.3c10.1-3,20.1-6.4,29.8-10.4c4.4-1.8,8.8-3.7,13-5.8C247,13.7,248.4,13.5,249.8,13z"/>
	<path d="M402.5,126.1c-0.2,9.7-0.3,18.9-0.7,28c-0.3,8.7-0.7,17.5-1.6,26.2c-1,10.7-2.6,21.4-4.5,32c-4.6,25.5-12.5,50-22.7,73.9
		c-7.9,18.6-17.2,36.5-27.7,53.8c-7.7,12.7-16.6,24.5-25.6,36.3c-6.1,8-12.3,15.8-18.8,23.4c-4,4.7-8,9.3-12.2,13.9
		c-5.2,5.8-10.7,11.3-16.3,16.6c-6.5,6.2-13.3,12-20.8,17c-1.1,0.7-1.9,0.7-2.9,0c-6.6-4.6-12.7-9.6-18.6-15
		c-4.8-4.4-9.3-8.9-13.8-13.6c-6.6-6.9-13-14.1-19.1-21.5c-8.9-10.6-17.4-21.6-25.7-32.7c-9.9-13.1-18.5-27-26.4-41.4
		c-9.3-17.1-17.5-34.7-24.4-53c-7.9-21.1-13.9-42.7-17.4-65c-1.6-10.2-2.9-20.4-3.7-30.7c-0.5-7.3-0.9-14.6-1.1-21.8
		c-0.2-8.9-0.6-17.8-0.6-26.7c0-1.4-0.2-2.8-0.3-4.2c-0.1-1,0.4-1.5,1.3-1.5c1.8-0.2,3.6-0.3,5.4-0.5c10.1-0.8,20.2-1.4,30.2-2.3
		c18-1.6,36-3.7,53.7-7.4c20.9-4.4,41-10.7,60.2-20.1c1-0.5,1.9-0.6,3-0.1c6.6,3.2,13.4,6.1,20.3,8.7c12,4.5,24.2,8,36.7,10.7
		c11.9,2.6,23.9,4.5,35.9,6c8.8,1,17.7,2,26.6,2.6c9.8,0.7,19.5,1.5,29.3,2.2c1.9,0.1,2.1,0.4,2.1,2.3
		C402.5,123.6,402.5,125.2,402.5,126.1z"/>
	<path class="st1" d="M192.7,88.8c-9.3,0-15.5-7.2-15.5-17.9c0-9.3,7.1-15.6,17.7-15.6c9.2,0,15.5,7.3,15.5,17.9
		C210.4,82.6,203.3,88.8,192.7,88.8z"/>
	<path class="st1" d="M301.5,52.7c10.7,0.1,17.5,6.3,17.5,15.8c-0.1,10.5-6.4,17.7-15.6,17.6c-10.5-0.1-17.6-6.4-17.5-15.7
		C285.9,59.8,292.2,52.7,301.5,52.7z"/>
	<path class="st1" d="M343.4,89.1c2.6-5.9,5.2-11.7,7.7-17.6c0.6-1.5,1.2-1.7,2.6-1c1.4,0.8,2.9,1.4,4.4,2c0.8,0.3,0.9,0.7,0.6,1.4
		c-4,9.1-8,18.2-12,27.3c-0.4,0.8-0.7,0.9-1.5,0.5c-2.1-1-4.2-1.9-6.3-2.7c-0.9-0.4-1.1-0.9-1.2-1.8c-0.5-7-1-13.9-1.6-20.9
		c0-0.6-0.1-1.2-0.2-1.9c-0.7,0.4-0.7,1-0.9,1.5c-2.4,5.5-4.9,11.1-7.2,16.6c-0.4,1-0.8,1.4-1.9,0.8c-1.5-0.8-3.1-1.4-4.7-2.1
		c-0.8-0.3-1.1-0.7-0.7-1.6c4-9,7.9-18,11.8-27.1c0.4-1,0.8-1.1,1.7-0.7c2,0.9,4,1.8,6,2.6c0.9,0.4,1.2,0.9,1.3,1.8
		c0.5,7.1,1.1,14.1,1.6,21.2c0,0.5,0.1,1,0.2,1.5C343.2,89.1,343.3,89.1,343.4,89.1z"/>
	<path class="st1" d="M217.4,59.3c-0.2-2.8-0.3-5.6-0.5-8.4c-0.1-0.9,0.1-1.3,1.1-1.3c2,0,4.1-0.1,6.1-0.4c1.2-0.1,1.4,0.4,1.5,1.4
		c0.3,5.7,0.7,11.3,1,17c0.1,1.3,0.1,2.5,0.7,3.7c1.2,2.5,3.9,3.5,7.2,2.7c2.5-0.6,3.9-2.4,3.8-5.2c-0.3-6.2-0.6-12.4-1.1-18.6
		c-0.1-1.4,0.3-1.8,1.7-1.8c1.8,0,3.5-0.1,5.3-0.3c1.2-0.1,1.7,0.2,1.7,1.4c0.3,6.1,0.8,12.3,1,18.4c0.3,7.8-3.1,11.8-10.8,13.1
		c-2.6,0.4-5.2,0.5-7.8,0.1c-6-0.9-9.6-4.7-10.2-10.9C217.9,66.6,217.7,63,217.4,59.3C217.4,59.3,217.4,59.3,217.4,59.3z"/>
	<path class="st1" d="M163.5,99.5c-0.7-0.1-0.7-0.7-0.9-1.1c-2.8-6.3-5.7-12.5-8.4-18.8c-0.6-1.3-1.1-1.6-2.4-0.9
		c-1.9,1-4,1.8-6,2.7c-0.9,0.4-1.4,0.4-1.8-0.6c-0.7-1.7-1.4-3.3-2.2-5c-0.3-0.7-0.4-1.2,0.5-1.6c8-3.6,16.1-7.1,24.1-10.8
		c0.8-0.3,1.1-0.2,1.4,0.6c0.7,1.8,1.5,3.5,2.4,5.3c0.4,0.8,0.2,1.2-0.6,1.5c-2.2,0.9-4.3,2-6.4,2.8c-1,0.4-1.3,0.8-0.8,1.9
		c2.9,6.3,5.7,12.7,8.6,19.1c0.5,1.1,0.3,1.6-0.8,2c-2,0.8-3.9,1.7-5.9,2.6C164.1,99.3,163.8,99.4,163.5,99.5z"/>
	<path class="st1" d="M256.6,64.1c0.3-4.9,0.6-9.9,0.8-14.8c0.1-1.1,0.4-1.4,1.5-1.3c2.1,0.2,4.3,0.3,6.4,0.3c1.1,0,1.4,0.4,1.3,1.5
		c-0.4,5.9-0.7,11.8-1.1,17.6c-0.1,1.5-0.1,3-0.3,4.5c-0.1,0.9,0.2,1.2,1.1,1.2c4.1,0.2,8.2,0.5,12.3,0.6c1.6,0,2.1,0.5,1.8,2.1
		c-0.2,1.2-0.2,2.5-0.2,3.7c0,1-0.3,1.5-1.4,1.4c-7.2-0.4-14.5-0.8-21.7-1.1c-1.4-0.1-1.6-0.6-1.5-1.8
		C256.1,73.5,256.3,68.8,256.6,64.1C256.6,64.1,256.6,64.1,256.6,64.1z"/>
	<path class="st2" d="M314.9,168.3c0.6,6.5,0.5,12.9-0.8,19.3c-0.1,0.5-0.4,1.2,0.1,1.5c0.7,0.4,1-0.3,1.4-0.7
		c4-4.7,8.7-8.7,13.4-12.7c1.4-1.2,2.9-2.4,4.4-3.5c0.4-0.3,0.9-0.7,1.4-0.1c0.3,0.5-0.2,0.9-0.5,1.2c-3.1,2.8-6.2,5.6-9.2,8.4
		c-8.3,7.7-15.7,16.2-22.2,25.4c-0.9,1.2-1.8,2.5-2.6,3.7c-0.1,0.1,0,0.3,0,0.5c0.9-0.1,1.6-0.6,2.2-1.1c3.7-2.4,7.3-4.8,11.4-6.5
		c5.2-2.2,10.7-3.6,16.3-3.9c0.8,0,2.2-0.2,2.2,0.8c0,0.8-1.4,0.6-2.1,0.7c-12.4,1-22.8,6.5-32,14.5c-4.7,4-7.4,9.4-10.2,14.7
		c-4.4,8.1-8.3,16.3-11.7,24.9c-0.3,0.7-0.7,1.3-0.5,2.2c1.3-0.4,2.1-1.4,2.9-2.2c4.1-3.8,8.5-7.3,13.3-10.1
		c0.7-0.4,1.8-1.4,2.3-0.7c0.7,1-0.8,1.5-1.5,1.9c-5.6,3.7-10.9,7.8-15.5,12.7c-2.7,2.9-4.8,6-6.1,9.8c-2.8,8.4-5.2,16.9-7.1,25.6
		c-0.1,0.5-0.4,1.1,0,1.8c0.9-0.3,1.3-1.1,1.8-1.8c1.7-2.3,3.4-4.6,5.4-6.7c0.4-0.4,0.8-0.7,1.2-1c0.3-0.2,0.7-0.6,1.1-0.3
		c0.5,0.4,0.1,0.9-0.2,1.2c-1.4,1.6-2.8,3.1-4.1,4.8c-5.6,7.4-8.6,15.7-9.5,24.9c-1.3,11.9-2.5,23.7-3.2,35.7
		c-0.5,9.2-0.9,18.3-0.8,27.5c0.1,6.6,0.6,13.1,0.5,19.7c0,1.5-0.1,2.9-0.3,4.4c-0.3,1.8-1.3,2.1-2.6,0.9
		c-11.9-10.4-24.4-20.2-36.6-30.4c-7.5-6.3-14.8-12.7-22-19.3c-8.7-8.1-17.3-16.3-25.5-24.9c-8.9-9.2-17.5-18.6-24.5-29.4
		c-7.7-11.9-13.4-24.5-15.6-38.6c-0.9-5.8-1.6-11.6-0.8-17.4c0-0.3,0.1-0.6,0.2-0.9c0.2-0.6,0.3-1.3,1-1.5c0.8-0.2,1.1,0.4,1.5,0.9
		c1.6,2.3,2.8,4.8,4.1,7.2c2.5,4.8,5,9.5,7.7,14.2c2.3,4.1,5.5,7.5,8.6,10.9c4.8,5.3,9.8,10.4,15.2,15c1.3,1.1,2.7,2.1,4.2,3
		c8.7,4.9,16.4,11,23.9,17.5c8,7,15.6,14.5,23,22.1c15.5,16.1,26.7,34.7,33.2,56.2c0.6,1.9,1.2,3.9,1.8,5.8c0.1,0.4,0.2,1,0.7,0.9
		c0.5-0.1,0.4-0.7,0.4-1.1c0-5,0.1-9.9-0.1-14.9c-1.8-32-12.1-61.9-23.6-91.3c-1.9-4.8-3.8-9.6-6.2-14.2c-1.2-2.2-3-3.9-4.8-5.5
		c-2.5-2.1-5.3-2.2-8.2-1.1c-0.8,0.3-1.5,0.7-2.3,0.9c-0.5,0.2-1.2,0.6-1.5-0.1c-0.3-0.7,0.4-1,0.9-1.3c3-1.7,6.2-2.1,9.5-1.3
		c0.7,0.2,1.4,0.5,2.1,0.7c0.7,0.2,1-0.1,0.8-0.8c-0.3-0.9-0.7-1.7-1.1-2.6c-3.7-7.5-7.4-15.1-11.3-22.5
		c-3.3-6.2-13.1-12.6-22.8-9.1c-2.2,0.8-4.2,1.7-6.3,2.7c-0.5,0.2-1.1,0.4-1.6,0.6c-0.3,0.1-0.6,0.2-0.8-0.2
		c-0.1-0.3,0.1-0.5,0.3-0.7c0.6-0.7,1.4-1.2,2.3-1.6c7.3-3.7,14.6-4.3,22.1-0.7c0.6,0.3,1.4,1.1,2,0.5c0.6-0.6-0.3-1.3-0.6-1.9
		c-4.3-8.2-9.1-16.1-13.7-24c-3.7-6.4-9.5-8.7-16.4-9.2c-1.8-0.1-3.7,0-5.5-0.3c-0.3-0.1-0.8,0-0.8-0.5c0-0.4,0.4-0.4,0.7-0.5
		c2.1-0.5,4.3-0.4,6.4-0.2c3,0.3,6,0.7,8.8,2c0.3,0.1,0.7,0.4,1,0c0.2-0.3,0-0.6-0.2-0.9c-0.9-1.5-1.8-3-2.8-4.5
		c-2.6-4-5.2-8.1-7.8-12.1c-0.3-0.5-1.1-1.3-0.4-1.8c0.7-0.4,1.1,0.6,1.5,1.1c4.7,6.4,8.8,13.2,13.1,19.8c1.2,1.9,2.5,3.8,3.7,5.6
		c0.2,0.3,0.4,0.9,0.9,0.7c0.4-0.2,0.3-0.6,0.3-1c0-2.7,0-5.4,0-8.1c0-4.9,0.5-9.7,2.2-14.3c1.2-3.2,3.2-5.9,5.4-8.6
		c0.4-0.5,0.9-1.1,1.5-0.5c0.6,0.5,0.1,1.2-0.3,1.7c-5,5.8-7.2,12.6-7.2,20.1c0,4.4-0.1,8.8,0.6,13.1c0.3,1.6,0.7,3,1.4,4.5
		c3.8,7.9,8.3,15.4,12.4,23.1c8.8,16.4,16.8,33.2,23.9,50.5c7.5,18.2,13.9,36.8,18.5,56c1.4,5.9,2.6,11.9,3.9,17.9
		c0.1,0.6,0.1,1.1,0.6,1.6c0.7-0.2,0.6-0.9,0.7-1.4c0.6-4.1,0.6-8.2,0.9-12.3c0.7-11.2,1.7-22.4,3.3-33.6c0.9-6.2,2-12.5,3.2-18.6
		c0.9-4.7,0.2-9.2-1.2-13.7c-0.3-0.9-0.7-1.8-1-2.6c-0.2-0.5-0.7-1.2,0.1-1.5c0.6-0.3,1,0.4,1.3,0.9c1,1.8,1.5,3.8,2,5.7
		c0.1,0.4,0.1,1,0.5,1c0.6,0.1,0.7-0.6,0.8-1c2.3-8.6,5.6-16.8,7.6-25.5c1-4.5,0.2-9-0.8-13.5c-0.8-3.6-1.9-7.1-3.6-10.5
		c-0.4-0.8-1.3-2.1-0.3-2.6c0.9-0.4,1.5,1.1,1.9,1.9c2.1,4.3,3.2,8.9,4,13.6c0.2,1.2,0.4,2.4,0.6,3.5c0.1,0.4,0,1.1,0.6,1.1
		c0.5,0,0.7-0.6,0.9-1c0.6-1.2,1.2-2.5,1.7-3.7c2-4.7,4-9.3,6.5-13.7c2.7-4.9,4-10.1,4.4-15.5c0.4-4.8,0.8-9.5,0.5-14.4
		c-0.2-2.6-0.9-5-1.9-7.4c-0.3-0.6-1-1.6-0.3-1.9c0.9-0.4,1.4,0.7,1.7,1.4c1.3,2.6,1.7,5.5,2,8.3c0.5,5.3,0,10.5-0.5,15.8
		c0,0.4-0.3,1.1,0.3,1.2c0.5,0.1,0.8-0.4,1-0.8c0.8-1.3,1.6-2.6,2.4-3.8c4.4-6.7,8.8-13.5,13.9-19.6c4.2-5.1,5.8-11,6.6-17.3
		c0.4-3.7,0.2-7.5,0.4-11.3c0-0.6,0-1.1-0.7-1.1C313.5,167.8,314.1,167.7,314.9,168.3z"/>
	<path class="st2" d="M322,349.5c0.2-10.8,0.5-21.6,0.7-32.4c0-1,0.4-2.3-0.6-2.9c-1-0.5-1.9,0.5-2.8,1c-6.3,3.9-11,9.4-15.2,15.3
		c-10.2,14.2-17.7,29.9-24,46.2c-5.3,13.7-9.7,27.8-14.6,41.6c-0.9,2.7-1.8,5.4-3.5,7.7c-0.6,0.8-1.3,2.3-2.4,1.9
		c-1.1-0.4-0.6-1.8-0.6-2.8c1.3-24.3,4-48.5,10-72.2c3.1-12.3,6.9-24.4,12.9-35.7c5.9-11.1,13.7-20.8,22.9-29.3
		c10.8-10,23.2-17,36.9-22c3.9-1.4,7.9-2.6,12.2-2.6c2.1,0,2.5,0.4,3,2.4c1.1,5.4,0.9,10.8,0.6,16.2c-0.8,12-3.4,23.6-7.5,34.9
		c-5.6,15.5-14,29.5-25.4,41.5c-0.6,0.6-1.3,1.9-2.1,1.5c-0.7-0.3-0.2-1.6-0.3-2.5C322,354.7,322,352.1,322,349.5
		C322,349.5,322,349.5,322,349.5z"/>
	<path class="st3" d="M314.9,168.3c-0.5,0.2-1.1,0.3-1.6,0.5c-3,0.3-5.9,0.4-8.9,0.1c-1.7-0.2-3.2-0.7-4.4-1.7
		c-4.1-3.4-7.8-7.2-9.1-12.7c-0.8-3.5-2.8-6.6-4.7-9.6c-0.8-1.3-1.7-2.6-2.2-4.1c-0.5-1.3-0.1-1.9,1.3-2c1.8-0.1,3.5-0.1,5.3-0.1
		c0.9,0,1.4-0.2,1.7-1.2c0.3-1.2,0.7-2.4,1.2-3.6c0.6-1.7,1.3-2.1,3.1-1.7c1.2,0.2,2.3,0.7,3.3,1.3c0.7,0.4,1,0.2,1.2-0.5
		c0.2-0.8,0.5-1.6,0.8-2.4c0.6-1.7,1.5-2.4,3.1-1.7c3.2,1.3,6.2,1.7,9.3-0.4c1.2-0.8,2.2-0.2,2.3,1.3c0.6,5.9,2.9,11.3,5.2,16.6
		c3,7.1,1.1,13.3-3.2,19.1C317.5,166.8,316.3,167.7,314.9,168.3z"/>
	<path class="st3" d="M159.5,182.9c-7-0.4-11.9-4.2-15.2-10c-2.7-4.6-5.4-9-9.2-12.8c-0.3-0.3-0.5-0.6-0.8-1
		c-1.1-1.7-0.7-2.7,1.3-3.1c1.7-0.3,3.4-0.6,5.1-0.8c0.8-0.1,1.2-0.4,1.3-1.2c0.2-1.3,0.5-2.6,0.7-3.8c0.3-1.6,0.9-2.2,2.5-1.9
		c1.2,0.2,2.3,0.5,3.5,0.9c0.8,0.2,1.1,0.1,1.3-0.8c0.2-1.1,0.5-2.2,0.6-3.4c0.2-1.4,0.9-1.8,2.1-1.5c1.1,0.2,2.2,0.4,3.2,0.7
		c1.3,0.5,2.4,0.2,3.5-0.6c0.9-0.7,1.9-1.3,3-1.6c1.1-0.2,2.1-0.1,2.3,1.2c1.1,5.1,3.8,9.4,6.6,13.5c4,5.7,3.9,11.6,1.9,17.9
		c-1.9,5.9-6.4,7.9-12.1,8.2C160.6,182.9,160.1,182.9,159.5,182.9z"/>
	<path class="st3" d="M253.3,235.1c-3.9,0.3-7.6-0.5-11-2.2c-4.2-2.2-8.6-3.9-13.3-4.9c-2-0.4-2.4-1.6-1.2-3.3
		c0.9-1.3,2-2.4,3.2-3.4c0.6-0.6,0.7-1,0.3-1.7c-0.6-1.3-1.1-2.6-1.3-4c-0.2-1.3,0.4-2.1,1.6-2.4c1.1-0.3,2.6-0.2,3.1-1.2
		c0.5-0.9-0.6-2-1-3c-0.7-2-0.4-3.1,1.6-3.6c3-0.8,4.8-2.3,5.4-5.4c0.4-1.8,1.7-2.1,3.1-1c5.1,4,11.1,6.4,16.8,9.1
		c4.2,2,5.8,5.8,6.9,9.9c0.6,2.4,0.5,4.8,0.4,7.3c-0.3,4-6,9.7-10.5,9.8C256,234.9,254.7,235,253.3,235.1z"/>
	<path class="st3" d="M332.4,208c-0.1-2,0.1-3.6,0.4-5.3c1-6.3,4.7-9.5,11.2-10.1c7.3-0.8,12.9,2.3,17.2,7.8
		c2.6,3.3,5.3,6.5,8.4,9.5c0.8,0.8,1.5,1.6,2.2,2.5c0.9,1.3,0.6,2.4-0.8,3c-1.4,0.6-2.9,1.1-4.4,1.4c-1,0.3-1.3,0.7-1.3,1.7
		c0.1,1.5,0,2.9,0,4.4c0,0.8-0.3,1-1,1c-1.5,0-3-0.1-4.5-0.5c-0.9-0.2-1.2,0.1-1.3,0.9c-0.1,1.1-0.2,2.2-0.3,3.3
		c-0.1,1.7-0.6,2.1-2.3,1.8c-1.1-0.2-2.3-0.3-3.4-0.6c-0.7-0.2-1.2,0-1.7,0.5c-0.9,1-1.9,2-3.1,2.6c-1.3,0.7-2.3,0.5-2.8-0.8
		c-2.2-5.2-5.8-9.4-9.2-13.7C333.3,214.6,331.9,211.5,332.4,208z"/>
	<path class="st3" d="M289.9,183.1c0.1,1.4-0.1,3.2-0.4,4.9c-1.1,5.8-4.8,8.9-10.9,9.6c-6.9,0.9-12.4-1.8-16.7-6.8
		c-3.3-3.8-6.4-7.6-10.3-10.8c-0.3-0.3-0.6-0.6-0.9-0.9c-1.2-1.5-1-2.9,0.8-3.6c1.3-0.6,2.7-1.1,4.1-1.4c1-0.3,1.4-0.8,1.3-1.9
		c-0.1-1.2,0.1-2.4,0-3.6c-0.1-1.3,0.2-2,1.7-1.7c1.2,0.2,2.4,0.2,3.6,0.4c1.1,0.2,1.5-0.3,1.4-1.4c-0.1-1.1,0-2.3,0-3.4
		c0-1,0.2-1.5,1.3-1.2c0.3,0.1,0.7,0,1.1,0.1c2.8,0.7,5.1,0.2,7.1-2.3c1.5-1.8,3.1-1.4,4.1,0.7c2.2,4.7,5.7,8.5,9,12.4
		C289.3,176,289.9,177.6,289.9,183.1z"/>
	<path class="st3" d="M167.1,209.4c0,3.6-1.1,7.7-3.3,11.4c-2.1,3.5-3.6,7.1-4.8,11c-0.1,0.4-0.3,0.8-0.4,1.2
		c-0.4,0.9-0.6,2-1.8,2.3c-1.3,0.3-1.9-0.7-2.4-1.6c-1.8-2.6-3.6-4.2-7.1-2.4c-2,1-3,0.2-3.5-2.1c-0.7-2.7-0.7-2.7-3.3-2
		c-3.6,1-3.8,0.9-4.6-2.8c-0.4-2-1.3-3.2-3.2-3.7c-0.6-0.2-1.1-0.5-1.7-0.9c-0.9-0.7-1.2-1.6-0.7-2.6c0.2-0.4,0.4-0.8,0.7-1.1
		c3.7-3.9,6.1-8.6,8.4-13.3c2.5-5.4,7.1-7.4,12.4-8.2C161.6,192.9,167.3,200.4,167.1,209.4z"/>
	<path class="st3" d="M352.5,182.3c-2.2,0.1-4-0.1-5.8-0.4c-5.8-1.2-9.1-5.3-9.2-12c-0.1-6,2.4-10.9,7.1-14.5
		c4-3.1,7.9-6.2,11.5-9.9c1.9-1.9,3.2-1.5,4.1,1c0.2,0.4,0.3,0.9,0.4,1.3c1,3.2,1,3.2,4.4,3.4c3.4,0.2,3.4,0.2,2.7,3.5
		c-0.6,3.2-0.6,3.2,2.6,3.2c2.8,0,2.8,0,2.4,2.8c-0.3,2.3-0.4,4.4,1.7,6.1c0.6,0.5,0.9,1.3,1.1,2c0.3,1.1,0.2,1.9-1.3,2.3
		c-2.7,0.7-4.9,2.3-7.1,3.9c-2.1,1.5-4.2,2.9-6.2,4.5C358.3,181.7,355.4,182.7,352.5,182.3z"/>
	<path class="st3" d="M201.6,173.9c0.4-5,2.5-8.9,7.1-11c4.5-2.1,9.3-2.5,14-1.4c4.1,1,8.2,1.6,12.3,2c4.2,0.4,4.6,1.3,2.4,4.8
		c-1.6,2.5-1.6,2.5,0.1,4.9c1.7,2.4,1.5,3.4-0.9,5c-0.1,0.1-0.3,0.2-0.4,0.3c-1.7,1.1-1.7,1.1-0.5,2.6c1.6,2.2,1.4,3.5-0.8,5.1
		c-0.3,0.2-0.7,0.5-1.1,0.7c-1.7,0.7-2.3,2-2.3,3.8c0,2.3-0.9,3.1-3.1,2.2c-5.7-2.3-11.7-3.4-17.5-5.1c-5.6-1.6-7.6-6.3-9-11.4
		C201.7,175.5,201.7,174.7,201.6,173.9z"/>
	<path class="st3" d="M309.8,231.7c5.2,0.2,10,1.7,14.2,5c3,2.3,6.3,4.1,9.8,5.5c1.8,0.7,2.3,2.3,0.9,3.7c-0.8,0.8-1.7,1.6-2.7,2.1
		c-1.4,0.7-1.6,1.7-1.1,3c0.3,0.9,0.4,1.9,0.6,2.9c0.2,1-0.2,1.5-1.2,1.6c-1.1,0.2-2.2,0.3-3.3,0.4c-0.7,0.1-1.1,0.3-0.9,1.2
		c0.3,1,0.4,2.1,0.6,3.2c0.2,1.1-0.3,1.8-1.4,2c-0.1,0-0.2,0.1-0.3,0.1c-2.8,0-4.7,1.3-5.9,3.9c-0.8,1.7-2.2,1.9-3.6,0.5
		c-4-4.2-8.8-7.3-13.5-10.6c-1.9-1.3-3.1-3-3.7-5.2c-1.1-3.4-1.4-6.9-0.8-10.5c0.4-2.3,1.4-4.2,3.3-5.5
		C303.6,233.2,306.3,231.5,309.8,231.7z"/>
	<path class="st3" d="M263.5,265.4c-0.1,3.5-0.4,6.2-1.5,8.8c-1.3,2.8-3.3,4.6-6.3,5.3c-6.9,1.8-13.4-0.4-17.8-6.6
		c-2.5-3.5-5.2-6.9-8.1-10.1c-2.6-2.9-2.3-4,1.5-4.8c2.4-0.5,3.7-1.3,3.7-4.1c0-2.5,0.3-2.5,2.8-2.4c0.2,0,0.4,0,0.6,0
		c2.8,0.2,2.8,0.2,2.9-2.6c0.1-2,0.5-2.3,2.5-2.1c0.5,0,0.9,0.1,1.4,0.3c1.5,0.5,2.7,0.3,3.8-0.9c0.8-0.8,1.8-1.3,2.9-1.3
		c0.8,0,1.4,0.3,1.7,1.1c1.5,4.5,4.5,8.2,7.1,12.1c0.2,0.3,0.3,0.5,0.5,0.8C262.9,260.9,263.8,263.3,263.5,265.4z"/>
	<path class="st3" d="M181.1,256.8c-0.3,3.8-0.5,7.6-0.8,11.4c-0.2,2.4-1,2.9-3.2,2.1c-0.1,0-0.2-0.1-0.3-0.1
		c-1.6-1.2-3.1-1.4-4.6,0.4c-1,1-2.4,0.8-3.5-0.1c-0.4-0.3-0.8-0.7-1.1-1.1c-1.9-2.2-1.9-2.2-4.5-0.6c-1,0.6-1.9,1.3-3,1.7
		c-1.3,0.5-2.3,0.1-2.9-1.1c-0.5-1-0.9-2-1.2-3c-0.3-1.2-0.9-1.4-2-1.2c-1.3,0.2-2.7,0.3-4,0.5c-0.8,0.1-1.1-0.1-1.1-1
		c0-1.2,0.2-2.4,0.7-3.5c2.4-6.2,5.4-12.1,9.4-17.4c2.7-3.6,6.2-6,10.9-6.2c6.2-0.3,11.3,4.4,11.5,10.6
		C181.3,250.9,181.2,253.9,181.1,256.8z"/>
	<path class="st3" d="M212,283.1c-0.1,2.8-0.7,5.4-1.7,7.9c-1.4,3.4-2.4,6.9-3,10.5c-0.4,2.3-1.6,2.9-3.3,1.5
		c-2.2-1.9-4.1-2.7-6.9-1.1c-1.4,0.8-2.5,0-3.2-2c-0.5-1.6-1.1-1.7-2.5-0.9c-2.3,1.4-3.4,1.1-4.5-1.5c-0.8-2-1.9-3.1-4-3.5
		c-2.1-0.4-2.5-1.5-1.4-3.3c2.8-4.4,4.6-9.3,6.4-14.2c1.5-4.2,5.2-5.9,9.2-6.9c1-0.2,2-0.3,2.9-0.3c5.9-0.2,10.3,3.2,11.3,9.1
		C211.7,280,211.8,281.5,212,283.1z"/>
	<path class="st3" d="M284.3,289c-3.3-0.3-6.5-1.3-9.1-3.6c-1.1-0.9-1.7-2.1-2-3.6c-1.4-6.8,1.1-12.5,7.2-15.7
		c1.7-0.9,3.7-1.2,5.3-2.1c2-1.2,4-2.4,6.1-3.5c2.1-1.1,3.3-0.6,3.4,1.8c0,2.5,0.8,3.9,3.4,4.6c1.7,0.5,2,1.6,1,3.5
		c-0.7,1.3-0.5,1.7,0.9,2.1c2,0.4,2.5,1.5,1.6,3.8c-0.6,1.7-0.6,3,0.4,4.5c1,1.6,0.5,2.6-1.2,3.1c-4.3,1-8.4,2.8-12.5,4.4
		C287.4,288.6,286,288.9,284.3,289z"/>
	<path class="st1" d="M229.7,123.9c2.8,3.2,4.2,7,6.4,10.8c-2.2,0-4.1,0-6.1,0c-0.6,0-0.7-0.6-0.9-1c-1.3-2.3-2.6-4.6-4-6.9
		c-0.3-0.6-0.7-1.2-1.3-1.6c-0.6-0.4-1.3-0.6-1.9-0.3c-0.6,0.2-0.3,0.9-0.3,1.4c0,2.3-0.1,4.7,0,7c0,1-0.2,1.4-1.3,1.3
		c-1-0.1-2-0.1-3,0c-1,0.1-1.2-0.4-1.2-1.3c0-7.5,0-15,0-22.5c0-1,0.2-1.4,1.3-1.3c3.1,0.1,6.3,0,9.4,0.1c3.9,0.1,6.1,1.7,6.8,5.1
		c0.8,3.9-0.4,7.5-3.6,8.7C229.9,123.6,229.8,123.7,229.7,123.9z"/>
	<path class="st1" d="M240,114.2c0-1.3,0.1-2.6,0.4-3.9c1.6-6.9,9.2-10.4,15.5-7.1c2.3,1.2,3.7,3.2,4.4,5.6c0.2,0.7,0,1-0.7,1.2
		c-1.3,0.3-2.6,0.6-3.9,0.9c-0.7,0.2-0.9-0.1-1.1-0.7c-0.9-2.2-2.2-3.1-4.2-3c-2,0.1-3.5,1.4-4,3.5c-0.6,2.3-0.5,4.7,0.1,7
		c0.5,2,2.1,3.1,4,3.2c1.9,0.1,3.5-0.9,4-3c0.4-1.7,1.2-1.9,2.6-1.2c0.5,0.2,1.1,0.4,1.6,0.5c2.2,0.7,2.2,0.7,1.4,2.8
		c-1.7,4.2-5.3,6.4-9.9,6.1c-4.9-0.4-8.5-3.3-9.7-7.9C240.1,116.9,240,115.5,240,114.2z"/>
	<path class="st1" d="M272.6,125c0-2.4-0.1-4.9,0-7.3c0-1.1-0.2-1.6-1.4-1.5c-1.1,0.1-2.3,0-3.4,0c-0.8,0-1.1-0.2-1.1-1
		c0.1-1.4,0.1-2.7,0-4.1c0-0.8,0.3-1.1,1.1-1.1c5.1,0,10.2,0,15.3,0c0.9,0,1.2,0.3,1.1,1.2c-0.1,1.3-0.1,2.6,0,3.9
		c0,0.8-0.3,1.1-1.1,1.1c-1.2,0-2.4,0.1-3.6,0c-1-0.1-1.3,0.3-1.3,1.3c0,4.9,0,9.8,0.1,14.7c0,1.3-0.4,1.7-1.7,1.6
		c-1.3-0.2-2.9,0.6-3.7-0.3c-0.8-0.8-0.2-2.5-0.2-3.8C272.6,128.2,272.6,126.6,272.6,125z"/>
	<path class="st0" d="M186.5,70.5c-0.1-5.4,3.3-8.6,8.1-7.8c2,0.4,3.4,1.5,4.4,3.2c1.8,3.1,2.4,6.5,1.9,10.1
		c-0.4,2.9-2.3,4.7-5.2,5.4c-2.8,0.6-5.3-0.3-6.9-2.8C187.4,76.7,186.5,73.5,186.5,70.5z"/>
	<path class="st0" d="M295.1,70.4c0.1-2.1,0.6-4.8,2-7.1c1.6-2.7,4.2-3.8,7.2-3.2c3,0.7,4.8,2.7,5.3,5.8c0.4,2.6-0.1,5.2-1,7.7
		c-1.5,4.1-4.4,5.9-8.1,5.1C296.9,78.1,295,75.3,295.1,70.4z"/>
	<path class="st4" d="M224.6,115.1c0.5,0,1,0,1.6,0c1.6,0.1,2.2,0.7,2.3,2.1c0,1.5-0.6,2.2-2.1,2.3c-0.5,0.1-1,0.1-1.6,0.1
		c-3.1,0.1-3.1,0.1-3.1-3c0-1.2,0.2-1.8,1.5-1.6C223.6,115.1,224.1,115,224.6,115.1C224.6,115,224.6,115,224.6,115.1z"/>
</g>
</svg>
