<?xml version="1.0" encoding="utf-8"?>
<!-- Generator: Adobe Illustrator 25.0.0, SVG Export Plug-In . SVG Version: 6.00 Build 0)  -->
<svg version="1.1" id="Calque_1" xmlns="http://www.w3.org/2000/svg" xmlns:xlink="http://www.w3.org/1999/xlink" x="0px" y="0px"
	 viewBox="0 0 500 500" style="enable-background:new 0 0 500 500;" xml:space="preserve">
<style type="text/css">
	.st0{fill:#081421;}
</style>
<path class="st0" d="M415.83,130v238.02h-50.32V177.77h-1.39l-54.51,34.17v-44.63L368.53,130H415.83z M180.28,331.53
	c13.64,0,24.52-6.86,32.66-20.57c8.14-13.71,12.16-34.28,12.09-61.71c0-18.05-1.86-33.08-5.58-45.09
	c-3.64-12.01-8.83-21.04-15.57-27.08c-6.66-6.04-14.53-9.07-23.59-9.07c-13.56,0-24.41,6.78-32.54,20.34
	c-8.14,13.56-12.24,33.86-12.32,60.9c0,18.28,1.82,33.55,5.46,45.79c3.72,12.16,8.95,21.31,15.69,27.43
	C163.32,328.51,171.22,331.53,180.28,331.53z M180.28,373.25c-19.99-0.08-37.19-5-51.6-14.76c-14.33-9.76-25.37-23.9-33.12-42.42
	c-7.67-18.52-11.47-40.79-11.39-66.83c0-25.96,3.84-48.08,11.51-66.36c7.75-18.29,18.79-32.19,33.12-41.72
	c14.41-9.61,31.57-14.41,51.48-14.41s37.03,4.8,51.37,14.41c14.41,9.61,25.49,23.55,33.24,41.84c7.75,18.21,11.58,40.29,11.51,66.24
	c0,26.11-3.87,48.42-11.62,66.94c-7.67,18.52-18.67,32.66-33.01,42.42C217.44,368.37,200.27,373.25,180.28,373.25z"/>
</svg>
