<?xml version="1.0" encoding="utf-8"?>
<!-- Generator: Adobe Illustrator 25.0.0, SVG Export Plug-In . SVG Version: 6.00 Build 0)  -->
<svg version="1.1" id="Calque_1" xmlns="http://www.w3.org/2000/svg" xmlns:xlink="http://www.w3.org/1999/xlink" x="0px" y="0px"
	 viewBox="0 0 500 500" style="enable-background:new 0 0 500 500;" xml:space="preserve">
<style type="text/css">
	.st0{fill:#FFFFFF;}
</style>
<path class="st0" d="M415.8,130v238h-50.3V177.8h-1.4l-54.5,34.2v-44.6l58.9-37.3H415.8z M180.3,331.5c13.6,0,24.5-6.9,32.7-20.6
	c8.1-13.7,12.2-34.3,12.1-61.7c0-18.1-1.9-33.1-5.6-45.1c-3.6-12-8.8-21-15.6-27.1c-6.7-6-14.5-9.1-23.6-9.1
	c-13.6,0-24.4,6.8-32.5,20.3c-8.1,13.6-12.2,33.9-12.3,60.9c0,18.3,1.8,33.5,5.5,45.8c3.7,12.2,8.9,21.3,15.7,27.4
	C163.3,328.5,171.2,331.5,180.3,331.5z M180.3,373.2c-20-0.1-37.2-5-51.6-14.8c-14.3-9.8-25.4-23.9-33.1-42.4
	c-7.7-18.5-11.5-40.8-11.4-66.8c0-26,3.8-48.1,11.5-66.4c7.8-18.3,18.8-32.2,33.1-41.7c14.4-9.6,31.6-14.4,51.5-14.4
	s37,4.8,51.4,14.4c14.4,9.6,25.5,23.6,33.2,41.8c7.8,18.2,11.6,40.3,11.5,66.2c0,26.1-3.9,48.4-11.6,66.9
	c-7.7,18.5-18.7,32.7-33,42.4C217.4,368.4,200.3,373.2,180.3,373.2z"/>
</svg>
