<?xml version="1.0" encoding="utf-8"?>
<!-- Generator: Adobe Illustrator 25.0.0, SVG Export Plug-In . SVG Version: 6.00 Build 0)  -->
<svg version="1.1" id="Calque_1" xmlns="http://www.w3.org/2000/svg" xmlns:xlink="http://www.w3.org/1999/xlink" x="0px" y="0px"
	 viewBox="0 0 500 500" style="enable-background:new 0 0 500 500;" xml:space="preserve">
<style type="text/css">
	.st0{fill:#081421;}
</style>
<path class="st0" d="M279,365.7v-35.5l84-76.9c7.1-6.8,13.1-13,18-18.5s8.6-10.8,11.2-16.1c2.5-5.3,3.8-11.1,3.8-17.2
	c0-6.8-1.6-12.7-4.7-17.7s-7.5-8.9-12.9-11.5c-5.5-2.7-11.6-4.1-18.5-4.1c-7.2,0-13.5,1.4-18.9,4.3s-9.5,7-12.4,12.4
	s-4.4,11.8-4.4,19.2h-47.3c0-15.3,3.5-28.5,10.5-39.8c7-11.2,16.8-19.9,29.4-26.1s27.1-9.2,43.5-9.2c16.9,0,31.6,3,44.1,8.9
	c12.6,5.9,22.4,14,29.4,24.4s10.5,22.3,10.5,35.8c0,8.8-1.8,17.5-5.3,26.1s-9.6,18.1-18.5,28.6c-8.9,10.4-21.5,22.9-37.7,37.5
	l-34.4,33.4v1.6h99.1v40.3L279,365.7L279,365.7z M148.1,329.9c13.5,0,24.3-6.7,32.4-20.2c8.1-13.4,12.1-33.6,12-60.5
	c0-17.7-1.8-32.4-5.5-44.2c-3.6-11.8-8.8-20.6-15.4-26.5c-6.6-5.9-14.4-8.9-23.4-8.9c-13.4,0-24.2,6.6-32.2,19.9
	c-8.1,13.3-12.1,33.2-12.2,59.7c0,17.9,1.8,32.9,5.4,44.9c3.7,11.9,8.9,20.9,15.6,26.9C131.3,327,139.2,329.9,148.1,329.9z
	 M148.1,370.8c-19.8-0.1-36.9-4.9-51.1-14.5s-25.2-23.4-32.8-41.6c-7.6-18.1-11.4-40-11.3-65.5c0-25.4,3.8-47.1,11.4-65.1
	c7.7-17.9,18.6-31.6,32.8-40.9c14.3-9.4,31.3-14.1,51-14.1s36.7,4.7,50.9,14.1c14.3,9.4,25.3,23.1,32.9,41
	c7.7,17.9,11.5,39.5,11.4,64.9c0,25.6-3.8,47.5-11.5,65.6c-7.6,18.1-18.5,32-32.7,41.6C185,366,167.9,370.8,148.1,370.8z"/>
</svg>
