<?xml version="1.0" encoding="utf-8"?>
<!-- Generator: Adobe Illustrator 25.0.0, SVG Export Plug-In . SVG Version: 6.00 Build 0)  -->
<svg version="1.1" id="Calque_1" xmlns="http://www.w3.org/2000/svg" xmlns:xlink="http://www.w3.org/1999/xlink" x="0px" y="0px"
	 viewBox="0 0 500 500" style="enable-background:new 0 0 500 500;" xml:space="preserve">
<style type="text/css">
	.st0{fill:#FFFFFF;}
</style>
<path class="st0" d="M278.95,365.69v-35.54l83.97-76.9c7.14-6.84,13.13-12.99,17.97-18.46c4.91-5.47,8.64-10.82,11.17-16.06
	c2.53-5.32,3.8-11.05,3.8-17.2c0-6.84-1.57-12.72-4.72-17.66c-3.15-5.01-7.45-8.85-12.9-11.51c-5.45-2.73-11.63-4.1-18.54-4.1
	c-7.22,0-13.51,1.44-18.89,4.33c-5.38,2.89-9.52,7.03-12.44,12.42c-2.92,5.39-4.38,11.81-4.38,19.25h-47.34
	c0-15.27,3.49-28.52,10.48-39.76c6.99-11.24,16.78-19.94,29.37-26.09c12.59-6.15,27.11-9.23,43.54-9.23
	c16.89,0,31.6,2.96,44.11,8.89c12.59,5.85,22.38,13.97,29.37,24.38c6.99,10.4,10.48,22.33,10.48,35.77c0,8.81-1.77,17.51-5.3,26.09
	c-3.46,8.58-9.64,18.11-18.54,28.59c-8.91,10.4-21.46,22.9-37.66,37.48l-34.44,33.38v1.59h99.05v40.33H278.95z M148.14,329.92
	c13.51,0,24.3-6.72,32.37-20.16c8.06-13.44,12.06-33.61,11.98-60.49c0-17.7-1.84-32.43-5.53-44.2
	c-3.61-11.77-8.75-20.62-15.43-26.54c-6.6-5.92-14.4-8.89-23.38-8.89c-13.44,0-24.19,6.65-32.25,19.94
	c-8.06,13.29-12.13,33.19-12.21,59.69c0,17.92,1.8,32.89,5.41,44.89c3.69,11.92,8.87,20.89,15.55,26.89
	C131.32,326.95,139.16,329.92,148.14,329.92z M148.14,370.81c-19.81-0.08-36.86-4.9-51.14-14.47
	c-14.21-9.57-25.15-23.43-32.83-41.58c-7.6-18.15-11.36-39.99-11.29-65.51c0-25.44,3.8-47.13,11.4-65.05
	c7.68-17.92,18.62-31.56,32.83-40.9c14.28-9.42,31.29-14.13,51.02-14.13s36.7,4.71,50.91,14.13c14.28,9.42,25.26,23.09,32.94,41.01
	c7.68,17.85,11.48,39.49,11.4,64.94c0,25.59-3.84,47.47-11.52,65.62c-7.6,18.15-18.51,32.01-32.71,41.58
	C184.96,366.03,167.95,370.81,148.14,370.81z"/>
</svg>
