<?xml version="1.0" encoding="utf-8"?>
<!-- Generator: Adobe Illustrator 25.0.0, SVG Export Plug-In . SVG Version: 6.00 Build 0)  -->
<svg version="1.1" id="Calque_1" xmlns="http://www.w3.org/2000/svg" xmlns:xlink="http://www.w3.org/1999/xlink" x="0px" y="0px"
	 viewBox="0 0 500 500" style="enable-background:new 0 0 500 500;" xml:space="preserve">
<style type="text/css">
	.st0{fill:#0A1421;}
</style>
<path class="st0" d="M346.29,354.03c-14.89,0-28.15-2.56-39.78-7.68c-11.56-5.18-20.7-12.3-27.42-21.34
	c-6.65-9.11-10.07-19.61-10.27-31.5h43.47c0.27,4.98,1.89,9.37,4.89,13.16c3.06,3.72,7.11,6.61,12.16,8.67
	c5.05,2.06,10.73,3.09,17.05,3.09c6.58,0,12.4-1.16,17.45-3.49c5.05-2.33,9.01-5.55,11.86-9.67c2.86-4.12,4.29-8.87,4.29-14.26
	c0-5.45-1.53-10.27-4.59-14.46c-2.99-4.25-7.31-7.58-12.96-9.97c-5.58-2.39-12.23-3.59-19.94-3.59h-19.04v-31.7h19.04
	c6.51,0,12.26-1.13,17.25-3.39c5.05-2.26,8.97-5.38,11.76-9.37c2.79-4.05,4.19-8.77,4.19-14.16c0-5.12-1.23-9.6-3.69-13.46
	c-2.39-3.92-5.78-6.98-10.17-9.17c-4.32-2.19-9.37-3.29-15.15-3.29c-5.85,0-11.2,1.06-16.05,3.19c-4.85,2.06-8.74,5.02-11.66,8.87
	c-2.92,3.85-4.49,8.37-4.69,13.56h-41.37c0.2-11.76,3.56-22.13,10.07-31.11c6.51-8.97,15.29-15.98,26.32-21.04
	c11.1-5.12,23.63-7.68,37.59-7.68c14.09,0,26.42,2.56,36.99,7.68c10.57,5.12,18.78,12.03,24.63,20.74
	c5.92,8.64,8.84,18.34,8.77,29.11c0.07,11.43-3.49,20.97-10.67,28.61c-7.11,7.64-16.38,12.5-27.82,14.56v1.6
	c15.02,1.93,26.45,7.14,34.3,15.65c7.91,8.44,11.83,19.01,11.76,31.7c0.07,11.63-3.29,21.97-10.07,31.01
	c-6.71,9.04-15.98,16.15-27.82,21.34C375.14,351.44,361.58,354.03,346.29,354.03z M157.59,319.94c11.7,0,21.04-5.88,28.01-17.65
	c6.98-11.76,10.43-29.41,10.37-52.94c0-15.49-1.6-28.38-4.79-38.68c-3.12-10.3-7.58-18.05-13.36-23.23
	c-5.72-5.18-12.46-7.78-20.24-7.78c-11.63,0-20.94,5.82-27.92,17.45c-6.98,11.63-10.5,29.04-10.57,52.24
	c0,15.69,1.56,28.78,4.69,39.28c3.19,10.43,7.68,18.28,13.46,23.53C143.04,317.35,149.82,319.94,157.59,319.94z M157.59,355.73
	c-17.15-0.07-31.9-4.29-44.27-12.66c-12.3-8.37-21.77-20.5-28.41-36.39c-6.58-15.89-9.84-34.99-9.77-57.33
	c0-22.27,3.29-41.24,9.87-56.93c6.65-15.69,16.12-27.62,28.41-35.79c12.36-8.24,27.08-12.36,44.17-12.36s31.77,4.12,44.07,12.36
	c12.36,8.24,21.87,20.21,28.51,35.89c6.65,15.62,9.94,34.56,9.87,56.83c0,22.4-3.32,41.54-9.97,57.43
	c-6.58,15.89-16.02,28.01-28.31,36.39C189.46,351.54,174.74,355.73,157.59,355.73z"/>
</svg>
