<?xml version="1.0" encoding="utf-8"?>
<!-- Generator: Adobe Illustrator 25.0.0, SVG Export Plug-In . SVG Version: 6.00 Build 0)  -->
<svg version="1.1" id="Calque_1" xmlns="http://www.w3.org/2000/svg" xmlns:xlink="http://www.w3.org/1999/xlink" x="0px" y="0px"
	 viewBox="0 0 500 500" style="enable-background:new 0 0 500 500;" xml:space="preserve">
<style type="text/css">
	.st0{fill:#FFFFFF;}
</style>
<path class="st0" d="M142.5,368.2c-19.2-0.1-35.7-4.8-49.5-14.2c-13.7-9.4-24.3-22.9-31.8-40.7c-7.4-17.8-11-39.1-10.9-64.1
	c0-24.9,3.7-46.1,11-63.7c7.4-17.5,18-30.9,31.8-40c13.8-9.2,30.3-13.8,49.4-13.8c19.1,0,35.5,4.6,49.3,13.8
	c13.8,9.2,24.4,22.6,31.9,40.1c7.4,17.5,11.1,38.6,11,63.5c0,25-3.7,46.4-11.1,64.2c-7.4,17.8-17.9,31.3-31.7,40.7
	C178.1,363.5,161.7,368.2,142.5,368.2z M142.5,328.2c13.1,0,23.5-6.6,31.3-19.7c7.8-13.2,11.7-32.9,11.6-59.2
	c0-17.3-1.8-31.7-5.4-43.3c-3.5-11.5-8.5-20.2-14.9-26c-6.4-5.8-13.9-8.7-22.6-8.7c-13,0-23.4,6.5-31.2,19.5
	c-7.8,13-11.7,32.5-11.8,58.4c0,17.5,1.7,32.2,5.2,43.9c3.6,11.7,8.6,20.4,15,26.3C126.2,325.3,133.8,328.2,142.5,328.2z
	 M265.6,323.1v-38L361,134.9h32.8v52.6h-19.4l-60.1,95.1v1.8h135.4v38.7H265.6z M375.2,363.2v-51.7l0.9-16.8V134.9h45.3v228.3H375.2
	z"/>
</svg>
