<?xml version="1.0" encoding="utf-8"?>
<!-- Generator: Adobe Illustrator 25.0.0, SVG Export Plug-In . SVG Version: 6.00 Build 0)  -->
<svg version="1.1" id="Calque_1" xmlns="http://www.w3.org/2000/svg" xmlns:xlink="http://www.w3.org/1999/xlink" x="0px" y="0px"
	 viewBox="0 0 1415.99 7244.38" style="enable-background:new 0 0 1415.99 7244.38;" xml:space="preserve">
<style type="text/css">
	.st0{opacity:0.5;fill:#FFFFFF;}
</style>
<path class="st0" d="M230.21,6941.53c18.27,14.78,46.7,20.93,82.46,21.56c35.77,0.63,78.93-4.25,126.69-11.58
	c95.54-14.66,209.5-39.11,319.81-48.83c110.3-9.72,216.87-4.72,297.59,39.5c80.7,44.2,135.61,127.61,142.55,274.82l0.5-0.02
	c-6.95-147.34-61.93-230.93-142.81-275.24c-80.86-44.29-187.55-49.28-297.88-39.56c-110.32,9.73-224.34,34.18-319.84,48.84
	c-47.76,7.33-90.88,12.21-126.6,11.57c-35.74-0.63-64.02-6.78-82.16-21.45L230.21,6941.53z M263.84,6634.35
	c-10.47-6.7-21.14-8.77-31.51-7c-10.37,1.76-20.41,7.34-29.64,15.89c-18.46,17.1-33.69,46.12-41.75,80.47
	c-16.13,68.7-3.62,158.84,69.27,217.83l0.31-0.39c-72.71-58.83-85.2-148.75-69.1-217.33c8.05-34.29,23.25-63.2,41.61-80.21
	c9.18-8.5,19.14-14.02,29.39-15.76c10.24-1.74,20.79,0.29,31.16,6.93L263.84,6634.35z M462.43,6404.58
	c22.49,52.76,26.51,96.82,18.6,132.39c-7.9,35.57-27.74,62.69-52.98,81.55c-25.25,18.87-55.9,29.48-85.45,32.05
	c-29.55,2.57-57.98-2.92-78.76-16.22l-0.27,0.42c20.9,13.38,49.44,18.87,79.07,16.29c29.63-2.57,60.38-13.22,85.71-32.14
	c25.33-18.93,45.23-46.14,53.17-81.84c7.93-35.7,3.89-79.87-18.63-132.7L462.43,6404.58z M719.65,6274.38
	c-8.36-34.28-34.28-56.5-67.01-67.23c-32.72-10.73-72.27-10-107.95,1.61c-35.68,11.62-67.52,34.12-84.81,66.97
	c-17.29,32.85-19.99,76,2.54,128.85l0.46-0.2c-22.48-52.74-19.77-95.73-2.56-128.42c17.21-32.7,48.93-55.14,84.52-66.73
	c35.59-11.59,75.03-12.31,107.64-1.62c32.61,10.7,58.37,32.8,66.68,66.88L719.65,6274.38z M1264.9,6178.77
	c-52.76,163.82-180.74,221.85-299.72,221.85c-59.49,0-116.73-14.51-161.17-37.55c-44.45-23.05-76.05-54.61-84.36-88.69l-0.49,0.12
	c8.36,34.28,40.11,65.94,84.62,89.01c44.51,23.08,101.83,37.61,161.4,37.61c119.15,0,247.36-58.13,300.19-222.2L1264.9,6178.77z
	 M797.1,5797.82c38.1,19.19,93.01,32.12,152.26,45.84c59.26,13.72,122.87,28.24,178.42,50.6c55.55,22.36,103.01,52.55,129.99,97.6
	c26.98,45.04,33.51,104.98,7.13,186.91l0.48,0.15c26.41-82.02,19.89-142.12-7.18-187.32c-27.06-45.19-74.64-75.43-130.23-97.81
	c-55.59-22.38-119.25-36.9-178.5-50.62c-59.27-13.72-114.11-26.64-152.14-45.79L797.1,5797.82z M239.12,5735.56
	c114.55,74.52,216.05,70.9,307.91,58.25c45.94-6.32,89.43-14.9,130.98-17.1c41.53-2.2,81.08,1.96,119.1,21.11l0.22-0.45
	c-38.12-19.2-77.76-23.37-119.35-21.16c-41.57,2.21-85.12,10.79-131.02,17.11c-91.81,12.64-193.16,16.25-307.57-58.18
	L239.12,5735.56z M161.22,5121.73c-25.2,77.45-51.55,201.08-48.69,320.25c2.85,119.16,34.91,233.94,126.6,293.59l0.27-0.42
	c-91.48-59.51-123.52-174.07-126.37-293.18c-2.85-119.1,23.48-242.67,48.67-320.09L161.22,5121.73z M632.48,5152.86
	c-13.54,47.05-41.31,74.17-77.45,87c-36.15,12.84-80.71,11.41-127.8,1.3c-94.18-20.22-198.41-75.11-265.64-119.56l-0.28,0.42
	c67.26,44.47,171.54,99.4,265.81,119.63c47.13,10.12,91.79,11.57,128.07-1.31c36.3-12.89,64.18-40.13,77.76-87.34L632.48,5152.86z
	 M1193.86,4901.52c-8.57,6.08-22.7,10.9-41.03,15.13c-18.33,4.23-40.82,7.85-66.1,11.57c-50.55,7.43-112.21,15.21-173.84,28.83
	c-123.23,27.23-246.47,77.83-280.41,195.8l0.48,0.14c33.86-117.67,156.81-168.22,280.04-195.45
	c61.61-13.61,123.24-21.39,173.8-28.83c25.28-3.72,47.79-7.35,66.14-11.58c18.34-4.23,32.55-9.07,41.21-15.21L1193.86,4901.52z
	 M1193.94,4250.62c96.08,26.38,148.38,77.18,171.76,139.29c23.38,62.12,17.84,135.59-1.88,207.33
	c-19.72,71.73-53.61,141.7-86.88,196.79c-16.63,27.55-33.11,51.37-47.58,69.83c-14.47,18.47-26.92,31.56-35.51,37.65l0.29,0.41
	c8.65-6.14,21.13-19.27,35.61-37.75c14.48-18.48,30.97-42.32,47.61-69.88c33.28-55.12,67.19-125.13,86.93-196.92
	c19.73-71.79,25.31-145.38,1.87-207.64c-23.44-62.28-75.89-113.18-172.1-139.59L1193.94,4250.62z M260.26,4477.35
	c60.66,30.89,125.34,25.52,194.21,1.78c68.87-23.73,141.97-65.84,219.48-108.49c155.06-85.31,327.8-172.79,519.98-120.02l0.13-0.48
	c-192.39-52.83-365.31,34.76-520.35,120.06c-77.53,42.66-150.59,84.74-219.41,108.46c-68.81,23.71-133.33,29.04-193.83-1.76
	L260.26,4477.35z M242.35,4028.15c2.62,9.94,1.11,22.47-3.11,37.08c-4.22,14.6-11.13,31.23-19.26,49.33
	c-16.27,36.2-37.43,78.28-51.68,121.72c-14.25,43.44-21.59,88.27-10.2,129.96c11.4,41.71,41.53,80.25,102.16,111.12l0.23-0.45
	c-60.53-30.82-90.55-69.25-101.9-110.8c-11.36-41.56-4.04-86.28,10.19-129.68c14.24-43.4,35.38-85.44,51.66-121.67
	c8.14-18.11,15.06-34.76,19.29-49.4c4.23-14.63,5.77-27.27,3.11-37.34L242.35,4028.15z M502.42,3801.33
	c-0.41,10.35-5.09,20.41-12.94,30.25c-7.86,9.84-18.88,19.45-31.97,28.9c-26.17,18.9-60.54,37.13-94.17,55.26
	c-33.62,18.13-66.5,36.17-89.65,54.68c-23.13,18.5-36.67,37.56-31.35,57.73l0.48-0.13c-5.24-19.84,8.04-38.71,31.17-57.21
	c23.11-18.48,55.95-36.5,89.57-54.63c33.62-18.13,68.02-36.37,94.22-55.3c13.1-9.46,24.17-19.1,32.06-29
	c7.9-9.89,12.63-20.05,13.05-30.54L502.42,3801.33z M788.46,3841.14c-58.93-40.03-129.54-70.89-185.85-81.32
	c-28.15-5.21-52.76-5.33-70.55,1.1c-8.9,3.22-16.1,8.07-21.19,14.76c-5.08,6.68-8.03,15.18-8.45,25.64l0.5,0.02
	c0.42-10.38,3.34-18.77,8.35-25.36c5.01-6.59,12.13-11.4,20.96-14.59c17.67-6.39,42.17-6.29,70.29-1.08
	c56.23,10.41,126.77,41.24,185.66,81.24L788.46,3841.14z M1299.35,3373.38c-4.72,37.17-31.64,89.99-71.25,147.09
	c-39.6,57.09-91.87,118.42-147.22,172.59c-55.36,54.18-113.79,101.19-165.74,129.66c-25.98,14.23-50.32,23.82-71.83,27.36
	c-21.51,3.54-40.18,1.02-54.84-8.94l-0.28,0.41c14.8,10.05,33.61,12.57,55.2,9.02c21.59-3.55,45.99-13.17,71.99-27.42
	c52.01-28.5,110.48-75.55,165.85-129.74c55.37-54.2,107.66-115.55,147.28-172.67c39.62-57.11,66.6-110.02,71.33-147.32
	L1299.35,3373.38z M986.01,2995.69c52.81,40.02,135.87,97.25,203.37,163.09c33.75,32.92,63.6,67.98,83.84,104.11
	c20.23,36.13,30.84,73.31,26.12,110.48l0.5,0.06c4.73-37.31-5.92-74.59-26.18-110.78c-20.27-36.19-50.15-71.29-83.92-104.23
	c-67.54-65.87-150.64-123.13-203.42-163.13L986.01,2995.69z M365.92,3023.53c48.11,9.46,104.34,7.44,163.25,0.35
	c58.92-7.09,120.54-19.25,179.45-30.08c58.91-10.84,115.09-20.35,163.14-22.16c48.06-1.81,87.93,4.1,114.25,24.05l0.3-0.4
	c-26.47-20.06-66.49-25.96-114.57-24.16c-48.09,1.81-104.31,11.33-163.21,22.17c-58.91,10.84-120.52,22.99-179.42,30.08
	c-58.9,7.08-115.07,9.1-163.1-0.34L365.92,3023.53z M0.06,2496.51c28.9,81.52,81.87,205.69,146.85,313.27
	c32.49,53.79,67.98,103.43,104.98,141.53c36.99,38.09,75.51,64.65,114.04,72.22l0.1-0.49c-38.38-7.54-76.81-34.02-113.77-72.08
	c-36.96-38.05-72.43-87.67-104.91-141.44c-64.95-107.54-117.91-231.68-146.8-313.18L0.06,2496.51z M366.21,2328.63
	c2.56-17.03,0.81-29-4.53-36.65c-5.36-7.66-14.27-10.93-25.89-10.65c-11.61,0.28-25.96,4.1-42.25,10.65
	c-16.29,6.55-34.54,15.83-53.97,27.06c-77.69,44.9-174.24,120.88-239.45,177.2l0.33,0.38c65.2-56.31,161.72-132.27,239.37-177.15
	c19.41-11.22,37.64-20.49,53.9-27.03c16.27-6.54,30.55-10.33,42.07-10.61c11.52-0.28,20.24,2.96,25.47,10.43
	c5.23,7.49,7,19.31,4.45,36.29L366.21,2328.63z M1041.62,2582.91c-17.05,8.87-40.78,14.21-69.24,16.43
	c-28.45,2.22-61.61,1.31-97.48-2.31c-71.74-7.24-154.32-25.33-231.83-50.96c-77.51-25.63-149.94-58.79-201.38-96.16
	c-51.46-37.38-81.85-78.92-75.48-121.28l-0.49-0.07c-6.41,42.67,24.19,84.36,75.68,121.76c51.5,37.41,123.98,70.59,201.52,96.23
	c77.54,25.64,160.15,43.74,231.93,50.98c35.89,3.62,69.08,4.53,97.57,2.31c28.49-2.22,52.3-7.58,69.43-16.49L1041.62,2582.91z
	 M1174.94,1883.07c14.26,12.74,25.03,32.11,32.67,56.42c7.64,24.31,12.15,53.53,13.93,85.96c3.54,64.86-3.89,142.5-19.17,219.18
	s-38.41,152.38-66.25,213.35c-13.92,30.49-29.02,57.28-44.91,78.68c-15.89,21.4-32.55,37.38-49.59,46.25l0.23,0.44
	c17.14-8.92,33.85-24.96,49.76-46.39c15.91-21.43,31.03-48.26,44.96-78.77c27.87-61.01,51-136.76,66.29-213.46
	c15.29-76.71,22.72-154.4,19.18-219.31c-1.77-32.46-6.29-61.72-13.95-86.08c-7.66-24.36-18.46-43.82-32.82-56.64L1174.94,1883.07z
	 M613.58,1882.95c10.15,36.01,24.76,61.45,42.79,78.57c18.03,17.13,39.47,25.92,63.26,28.68c47.55,5.51,104.5-13.1,162.43-37.48
	c57.96-24.4,116.9-54.56,168.54-72.26c25.81-8.85,49.78-14.56,70.85-14.88c21.07-0.32,39.24,4.76,53.49,17.49l0.33-0.37
	c-14.37-12.84-32.67-17.94-53.83-17.62c-21.15,0.32-45.17,6.06-71.01,14.91c-51.66,17.7-110.67,47.9-168.58,72.27
	c-57.94,24.38-114.77,42.94-162.18,37.44c-23.69-2.75-45.03-11.5-62.97-28.54c-17.95-17.04-32.52-42.39-42.65-78.35L613.58,1882.95z
	 M247.98,1985.32c21.01,19.76,41.25,28.5,60.73,29.18c19.48,0.69,38.18-6.67,56.11-19.03c35.85-24.71,68.74-69.45,98.87-110.08
	c15.08-20.32,29.47-39.62,43.21-54.88c13.75-15.27,26.81-26.48,39.23-30.67c6.2-2.09,12.24-2.43,18.12-0.66
	c5.88,1.77,11.63,5.67,17.25,12.08c11.25,12.83,21.93,35.71,32.07,71.69l0.48-0.14c-10.14-35.99-20.85-58.96-32.18-71.88
	c-5.66-6.46-11.49-10.42-17.49-12.23c-6-1.81-12.14-1.45-18.42,0.67c-12.55,4.23-25.69,15.53-39.45,30.81
	c-13.76,15.29-28.16,34.6-43.24,54.92c-30.16,40.65-62.99,85.31-98.76,109.96c-17.88,12.32-36.47,19.63-55.81,18.95
	c-19.34-0.68-39.46-9.35-60.41-29.05L247.98,1985.32z M440.25,1544.81c-26.95,27.78-62.92,59.31-99.12,93.46
	c-36.19,34.15-72.61,70.91-100.41,109.14c-27.8,38.23-47,77.94-48.74,117.99c-1.74,40.06,14,80.42,56,119.92l0.34-0.36
	c-41.91-39.42-57.58-79.64-55.84-119.54c1.73-39.91,20.87-79.53,48.65-117.72c27.77-38.19,64.16-74.92,100.35-109.07
	c36.18-34.13,72.18-65.69,99.14-93.48L440.25,1544.81z M1004.95,1544.76c-130.51,62.2-244.63,34.44-339.65,4.99
	c-47.5-14.72-90.25-29.88-127.86-34.4c-37.63-4.52-70.16,1.6-97.18,29.46l0.36,0.35c26.88-27.71,59.23-33.82,96.77-29.31
	c37.55,4.51,80.24,19.64,127.77,34.38c95.04,29.46,209.32,57.27,340.01-5.01L1004.95,1544.76z M1289.34,1262.62
	c-7.76,52.5-75.49,182.57-284.4,282.13l0.22,0.45c209-99.61,276.88-229.79,284.67-282.51L1289.34,1262.62z M908.15,983.81
	c116.53,178.8,302.8,260.56,381.38,279.09l0.11-0.49c-78.5-18.51-264.64-100.22-381.08-278.88L908.15,983.81z M598.24,1052.83
	c73.68,5.28,120.84-10.36,152.4-33.32c31.56-22.96,47.49-53.23,58.74-77.14c5.63-11.96,10.09-22.31,14.74-29.37
	c2.33-3.53,4.69-6.22,7.25-7.88c2.56-1.66,5.32-2.3,8.48-1.72c3.17,0.58,6.74,2.39,10.9,5.67c4.16,3.28,8.89,8.02,14.36,14.44
	c10.94,12.84,24.83,32.37,43.03,60.29l0.42-0.27c-18.2-27.93-32.1-47.48-43.07-60.34c-5.48-6.43-10.24-11.2-14.43-14.51
	c-4.19-3.31-7.85-5.17-11.12-5.77c-3.29-0.6-6.18,0.07-8.84,1.79c-2.65,1.72-5.06,4.47-7.4,8.03c-4.68,7.11-9.16,17.5-14.77,29.43
	c-11.25,23.89-27.14,54.06-58.59,76.95c-31.45,22.88-78.48,38.5-152.07,33.23L598.24,1052.83z M41.24,779.34
	c43.73,42.07,124.05,106.21,222.9,161.96c98.84,55.74,216.23,103.09,334.1,111.54l0.04-0.5c-117.76-8.44-235.08-55.76-333.89-111.48
	c-98.81-55.72-179.1-119.84-222.8-161.88L41.24,779.34z M463.67,401.01c-77.4,33.36-163.94,103.32-240.65,177.2
	C146.3,652.09,79.39,729.9,41.22,779l0.39,0.31c38.15-49.08,105.06-126.88,181.76-200.74c76.71-73.86,163.19-143.77,240.5-177.1
	L463.67,401.01z M940.53,401c-81.12,19.17-139.38,23.54-184.15,20.63c-44.77-2.92-76.08-13.12-103.3-23.12
	c-27.22-10-50.39-19.81-78.84-21.9c-28.46-2.09-62.2,3.55-110.57,24.4l0.2,0.46c48.32-20.83,81.97-26.44,110.33-24.36
	c28.37,2.08,51.46,11.86,78.71,21.87c27.24,10.01,58.6,20.23,103.44,23.15c44.84,2.92,103.14-1.46,184.3-20.64L940.53,401z
	 M1293.79-0.03c-9.63,108.13-93.76,339.71-353.25,401.03l0.11,0.49c259.78-61.39,344-293.23,353.64-401.47L1293.79-0.03z
	 M239.26,5735.35l0.14-0.21L239.26,5735.35z M161.45,5121.8l0.14-0.21l-0.27-0.18l-0.1,0.31L161.45,5121.8z M632.72,5152.93
	l-0.24-0.07L632.72,5152.93z M365.96,3023.28l-0.05,0.25L365.96,3023.28z M0.29,2496.43l-0.16-0.19L0,2496.35l0.06,0.16
	L0.29,2496.43z M365.96,2328.59l0.25,0.04L365.96,2328.59z M1005.06,1544.98l-0.11-0.23L1005.06,1544.98z M1289.59,1262.66
	l0.25,0.04l0.03-0.23l-0.22-0.05L1289.59,1262.66z M908.36,983.67l-0.21,0.14L908.36,983.67z M598.26,1052.59l0.02-0.25
	L598.26,1052.59z M41.42,779.16l-0.2-0.15l-0.14,0.18l0.16,0.16L41.42,779.16z M463.77,401.24l-0.1-0.23L463.77,401.24z
	 M940.59,401.24l-0.06-0.24L940.59,401.24z"/>
</svg>
