<?xml version="1.0" encoding="UTF-8"?><svg id="Favicon" xmlns="http://www.w3.org/2000/svg" viewBox="0 0 1572.35 1539.42"><defs><style>.cls-1{fill:#fbd719;}.cls-2{fill:#16222d;}</style></defs><path class="cls-2" d="M1060.83,696.53c3-2.56,5.41-8.15,4.77-11.79-.56-3.21-5.47-7.38-8.97-7.91-3.59-.55-8.32,2.09-11.66,4.52-42.53,31.03-84.9,62.27-127.3,93.46-46.95,34.53-93.89,69.06-141.27,103.91-2.77-1.92-4.86-3.3-6.87-4.78-79.54-58.47-159.07-116.94-238.6-175.42-8.84-6.5-17.69-12.97-26.55-19.44-5.74-4.19-11.39-3.98-15.8,1.55-4.48,5.63-2.57,11.09,2.28,15.72,1.35,1.28,3.01,2.24,4.52,3.36,89.38,65.68,178.76,131.37,268.15,197.05,11.88,8.73,13.68,8.74,25.61-.03,81.05-59.58,162.09-119.18,243.14-178.77,9.59-7.05,19.53-13.72,28.55-21.43Z"/><path class="cls-1" d="M1109.2,785.18c-8.4-8.61-16.28-19.8-19.16-31.13-5.92-23.3-10.42-47.37-11.62-71.31-1.33-26.52,1.68-53.26,2.77-79.91,.1-2.48,.07-4.97,.07-7.46,0-67.43-.24-134.86,.19-202.28,.1-15.08-5.35-24.8-19.08-32.02-69.63-36.62-138.93-73.88-208.32-110.93-.5-.27-.8-.89-1.2-1.35h-13.24c-12.81,6.13-17.37,16.18-17.01,30.13,.71,27.29,.21,54.61,.21,82.64l-.07,46.35c0,28.41,.02,56.57-.06,84.72,0,1.46-.68,3.01-1.34,4.37-14.81,30.74-29.66,61.46-45.17,93.57-15.67-32.39-30.56-63.11-45.35-93.86-.78-1.62-1.18-3.57-1.19-5.37-.07-27.59-.05-55.19-.05-83.44l.44-46.22c-.16-3.41-.94-58.44-.28-82.65,.37-13.82-3.91-24.12-16.85-30.25h-13.24c-59.02,31.8-118.04,63.61-177.06,95.4-11.59,6.25-23.03,12.81-34.86,18.58-11.23,5.48-16.14,13.99-15.93,26.11,.25,14.29,.05,28.59,.05,42.88,0,54.69-.3,109.38,.12,164.06,.22,28.55,3.47,57.17,2.12,85.6-1.14,23.95-6.12,47.84-11,71.44-2.98,14.42-10.8,26.77-23.63,35.85-9.46,6.69-10.47,16.5-4.61,29.41,16.92,37.34,33.98,74.62,50.96,111.94,19.04,41.84,59.13,139.84,67.01,144.65l223.49,132.34c66.89-41.39,151.16-92.37,217.99-133.86,6.23-3.87,86.9-174.72,122.66-253.67,7.17-15.82,4.31-21.96-7.77-34.34Zm-48.37-88.65c-9.02,7.71-18.96,14.38-28.55,21.43-81.04,59.6-162.08,119.19-243.14,178.77-11.93,8.77-13.73,8.75-25.61,.03-89.39-65.68-178.76-131.37-268.15-197.05-1.51-1.11-3.18-2.07-4.53-3.36-4.86-4.63-6.76-10.09-2.28-15.72,4.4-5.54,10.06-5.75,15.8-1.55,8.86,6.47,17.71,12.94,26.55,19.44,79.53,58.47,159.06,116.95,238.6,175.42,2.01,1.48,4.1,2.86,6.87,4.78,47.38-34.85,94.33-69.38,141.27-103.91,42.41-31.19,84.78-62.43,127.3-93.46,3.34-2.43,8.06-5.08,11.66-4.52,3.5,.54,8.41,4.7,8.97,7.91,.64,3.64-1.77,9.22-4.77,11.79Z"/><ellipse class="cls-1" cx="776.73" cy="380" rx="31.98" ry="70.81"/></svg>