<svg width="349" height="1815" viewBox="0 0 349 1815" fill="none" xmlns="http://www.w3.org/2000/svg">
<path d="M326.075 1C323.655 28.1778 302.505 86.3866 237.266 101.8C155.718 121.066 166.051 80.858 117.457 101.8C78.5824 118.553 30.51 172.071 11.3332 196.736C33.3027 217.864 92.0435 261.181 151.25 265.425C225.257 270.73 192.582 191.989 229.167 248.113C258.435 293.012 305.223 313.544 324.958 318.198C323.003 331.415 305.968 364.103 253.464 389.121C187.835 420.394 138.682 361.199 111.593 389.121C84.5031 417.043 21.1078 460.044 63.2782 499.694C105.449 539.343 134.772 401.686 155.159 474.005C175.547 546.324 267.428 448.316 296.193 474.005C324.958 499.694 297.031 632.046 262.68 649.916C228.329 667.786 86.458 628.695 92.8813 585.974C98.0199 551.797 33.7682 599.842 1 628.137C15.5223 669.089 54.2297 752.894 92.8813 760.489C141.196 769.982 222.185 733.404 248.716 753.508C275.247 773.612 332.219 811.028 327.472 848.444C322.724 885.86 228.609 986.101 199.006 965.997C169.402 945.893 128.07 935.004 127.232 955.945C126.394 976.887 56.5756 992.803 61.8818 1012.91C67.188 1033.01 5.46839 1094.72 66.3502 1125.71C127.232 1156.71 204.312 1042.23 300.941 1068.75C397.57 1095.28 318.256 1220.09 300.941 1232.38C283.626 1244.66 176.943 1236.29 159.907 1295.48C146.279 1342.84 75.287 1310 41.4948 1287.66C28.8344 1326.57 15.0196 1411.86 61.044 1441.79C118.575 1479.21 162.979 1438.16 201.24 1457.43C239.5 1476.7 345.345 1470.83 318.814 1553.2C292.283 1635.58 190.069 1611.56 181.691 1577.22C173.312 1542.87 94.5569 1556.83 117.178 1609.89C139.799 1662.94 88.1336 1681.09 67.188 1667.69C46.2425 1654.28 22.2249 1715.15 58.8098 1744.75C95.3948 1774.35 295.355 1666.01 302.337 1814" stroke="#E7E7E7" stroke-opacity="0.5" stroke-width="0.25"/>
</svg>
