<?xml version="1.0" encoding="utf-8"?>
<!-- Generator: Adobe Illustrator 26.5.0, SVG Export Plug-In . SVG Version: 6.00 Build 0)  -->
<svg version="1.1" id="Layer_1" xmlns="http://www.w3.org/2000/svg" xmlns:xlink="http://www.w3.org/1999/xlink" x="0px" y="0px"
	 viewBox="0 0 512 512" style="enable-background:new 0 0 512 512;" xml:space="preserve">
<path d="M405.3,32H256H106.7C47.8,32.1,0.1,79.8,0,138.7v128v106.7C0.1,432.2,47.8,479.9,106.7,480h298.7
	c58.9-0.1,106.6-47.8,106.7-106.7V266.7v-128C511.9,79.8,464.2,32.1,405.3,32z M106.7,74.7H256h149.3c23.6,0.1,45.3,13.2,56.3,34.1
	L302.1,268.3l-0.9,0.8c-12.7,12.1-29,18.1-45.2,18.1c-16.3,0-32.6-6-45.2-18.1l-0.9-0.8L50.4,108.8C61.4,87.9,83,74.7,106.7,74.7z
	 M469.3,373.3c0,35.3-28.7,64-64,64H106.7c-35.3,0-64-28.7-64-64V266.7V161.5l117.2,117.1c0.8,1.1,1.7,2.2,2.7,3.3l18.1,17.7
	c20.7,20.4,47.7,30.7,74.7,30.8c0.2,0,0.4,0,0.6,0c0.2,0,0.4,0,0.6,0c27-0.1,54-10.4,74.7-30.8l18.1-17.7c1-1,1.9-2.1,2.7-3.3
	l117.2-117.1v105.2V373.3z"/>
</svg>
