<?xml version="1.0" encoding="UTF-8"?><svg xmlns="http://www.w3.org/2000/svg" viewBox="0 0 383.15 382.99"><defs><style>.d{fill:#030303;}</style></defs><g id="a"/><g id="b"><g id="c"><g><path class="d" d="M383.15,37.41c-12,26.53-28.46,50.58-42.44,76.01-1.28,2.33-1.76,4.22-.67,6.86,2.01,4.86,2.71,10.06,2.71,15.35-.02,48.39,.03,96.77-.03,145.16-.03,25.42-20.12,45.46-45.64,45.49-55,.06-109.99,.05-164.99-.06-2.89,0-4.35,.89-5.75,3.36-9.03,15.9-18.24,31.7-27.39,47.53-4.51,7.79-10.76,7.84-15.21,.13-9.27-16.05-18.57-32.09-27.74-48.19-1.2-2.11-2.5-2.96-4.95-2.79-13.92,.94-26.45-2.57-36.74-12.36C5.02,305.05,.09,294.13,.07,281.28-.02,232.65-.03,184.01,.06,135.38c.04-24.84,19.91-45.04,44.75-45.29,25.31-.25,50.63-.07,75.95-.04,4.78,0,7.92,2.28,8.65,6.08,.66,3.39-1.2,6.86-4.39,8.25-1.66,.72-3.41,.62-5.15,.62-11.47,.02-22.95,0-34.42,0-12.84,0-25.69-.03-38.53,0-18.94,.06-31.89,13.04-31.9,31.99-.02,47.51-.02,95.03,0,142.54,0,18.76,12.96,31.71,31.68,31.78,3.49,.01,6.99,.1,10.47-.02,4.06-.15,6.77,1.58,8.77,5.1,7.63,13.41,15.4,26.74,23.12,40.09,.66,1.14,1.36,2.26,2.31,3.82,2.9-5.02,5.56-9.61,8.21-14.2,5.6-9.7,11.31-19.33,16.74-29.12,2.26-4.08,5.29-5.73,9.94-5.72,56.74,.09,113.48,.08,170.23,.05,16.22-.01,28.36-10.34,31-26.19,.18-1.1,.27-2.23,.27-3.35,.01-48.14,.01-96.27,.01-144.8-1.43,.83-1.77,2.16-2.39,3.22-18.12,31.34-36.24,62.68-54.32,94.04-1.38,2.4-2.92,4.54-5.22,6.21-15.03,10.89-29.99,21.88-44.99,32.8-4.46,3.24-8.77,2.93-11.57-.67-1.5-1.93-1.7-4.13-1.29-6.39,.39-2.21-.44-2.73-2.56-2.71-9.23,.1-18.46,.04-27.68,.04-35.79,0-71.58,0-107.37,0-1.25,0-2.5,.05-3.74-.07-3.55-.34-6.25-3.01-6.67-6.48-.41-3.42,1.68-6.68,5.01-7.88,1.81-.65,3.68-.54,5.55-.54,45.14,0,90.29-.05,135.43,.1,3.4,.01,4.14-1.11,4.38-4.12,.6-7.58,1.39-15.14,2.37-22.68,.36-2.77-.49-3.28-3.07-3.27-22.57,.09-45.14,.05-67.72,.05-23.82,0-47.64,0-71.46,0-1.25,0-2.5,.05-3.74-.06-3.72-.34-6.48-3.14-6.77-6.78-.27-3.47,1.9-6.55,5.31-7.67,1.71-.56,3.45-.45,5.19-.45,46.77,0,93.53-.06,140.3,.09,3.93,.01,6.23-.86,8.12-4.56,3.8-7.41,8.24-14.48,12.4-21.7q2.16-3.75-2.09-3.76c-52.75,0-105.5,0-158.25,0-1.37,0-2.75,.05-4.11-.06-3.76-.3-6.53-3.04-6.86-6.69-.33-3.59,1.93-6.91,5.58-7.79,1.67-.4,3.45-.42,5.18-.43,55.87-.02,111.74-.05,167.61,.07,2.93,0,4.36-.96,5.74-3.4,8.97-15.79,18.04-31.53,27.23-47.19,1.71-2.91,1.13-3.31-1.97-3.3-24.82,.09-49.63,.05-74.45,.05-1.12,0-2.24,0-3.37,0-6.12-.05-9.6-2.76-9.58-7.49,.02-4.7,3.57-7.48,9.63-7.48,28.81,0,57.62-.06,86.42,.08,2.93,.01,4.36-.95,5.76-3.41,12.9-22.58,26.06-45,38.87-67.62,5.25-9.26,12.23-15.91,22.84-18.25,.51-.11,.94-.25,1.04-.84h8.23c.26,.21,.5,.57,.78,.62,13.83,1.98,23.54,10.69,26.86,24.13,.14,.56-.05,1.27,.79,1.44v11.22Zm-123.27,185.29c1.17-.31,1.42-1.52,1.92-2.39,30.36-52.54,60.67-105.11,91.06-157.64,1.14-1.97,1.06-2.77-.99-3.91-7.93-4.41-15.81-8.93-23.57-13.64-2.3-1.4-3.05-.59-4.15,1.32-30.3,52.58-60.63,105.14-91.03,157.65-1.21,2.08-.84,2.81,1.09,3.89,8.03,4.49,15.97,9.14,23.94,13.73,.54,.31,1.08,.61,1.74,.99ZM368.17,31.51c-.06-10.39-9.61-18.04-19.83-15.9-5.98,1.25-13.49,8.68-14.62,14.3-.26,1.27,.58,1.51,1.27,1.91,8.39,4.86,16.8,9.7,25.21,14.53,.68,.39,1.38,1.16,2.1-.16,2.53-4.67,6.02-8.94,5.86-14.68ZM227.76,221.52c-1.11,10.32-2.15,20.05-3.28,30.54,8.67-6.34,16.65-12.17,24.83-18.15-7.28-4.19-14.22-8.18-21.55-12.39Z"/><path class="d" d="M155.71,104.93c-4.09,0-7.36-3.17-7.47-7.21-.1-4.09,3.4-7.66,7.51-7.64,3.99,.02,7.34,3.32,7.42,7.31,.09,4.23-3.2,7.55-7.46,7.55Z"/></g></g></g></svg>