<?xml version="1.0" encoding="UTF-8"?><svg xmlns="http://www.w3.org/2000/svg" viewBox="0 0 1000 1000"><defs><style>.d{fill:#2196f2;}.e{fill:#64b4f5;}.f{fill:#607d8b;}.g{fill:none;}</style></defs><g id="a"/><g id="b"><g id="c"><rect class="g" width="1000" height="1000"/><g><path class="e" d="M8.91,826.94c0-247.57,0-495.14,0-742.71,0-4.05,.96-7.98,2.1-11.87v-.04c8.92-31.32,28.83-51.6,60.28-60.42,.18-.05,.36-.09,.54-.14,7.15-1.73,14.48-2.54,21.83-2.54h8.37c.57,0,1.1,.21,1.57,.53,3.04,2.06,6.84,1.61,10.19,2.73,83.31,27.84,166.76,55.29,249.95,83.47,31.67,10.73,53.77,41.02,53.79,72.36,.11,233.57,.04,467.15,.03,700.72,.08,14.31,.52,28.64,.18,42.94-.85,35.55-23.88,65.46-57.84,75.98-2.02,.62-4.29,.65-6.32,1.35l-32.28,1.51c-3.79-1.13-7.6-2.23-11.36-3.48-81.97-27.34-164.01-54.46-245.85-82.19-26.14-8.86-43.19-27.46-51.68-53.84-.31-.97-.48-2.04-.73-3.07-1.63-6.99-2.78-14.08-2.78-21.26Z"/><path class="d" d="M534.75,9.21c11.12,0,22.33,.48,33.18,2.95l.09,.02c56.46,13.69,94.85,61.06,95.38,119.14,.47,51.78-.03,103.56,.29,155.34,.05,7.31-2.19,8.99-9.2,9.04-29.06,.19-58.19-1.78-87.19,1.08-57.62,5.69-105.3,56.31-107.82,114.05-2.72,62.23,38.58,116.43,97.48,127.85,22.48,4.36,45.22,1.77,67.84,2.36,10.16,.26,20.34,.48,30.49-.06,6.57-.35,8.44,1.88,8.37,8.21-.3,25.89-.12,51.78-.12,77.67,0,38.68,.12,77.35-.03,116.03-.29,72.68-53.51,125.67-126.09,125.8-39.95,.07-79.89,.22-119.84,.33,.01-233.57,.08-467.15-.03-700.72-.01-31.33-22.12-61.63-53.79-72.36C280.54,67.76,197.1,40.31,113.79,12.47c-3.61-1.2-7.74-.59-10.88-3.26h431.84Z"/><path class="f" d="M991.09,427.43c-4.58,12.24-13.18,21.42-22.28,30.47-50.09,49.82-100.04,99.79-149.89,149.85-11.06,11.1-23.64,17.51-39.54,14.65-20.3-3.66-33.69-20.15-33.79-41.64-.17-37.08-.28-74.17,.13-111.25,.09-7.89-1.93-10.18-9.98-10.12-50.19,.37-100.37,.28-150.56,.14-22.42-.06-38.89-12.52-43.13-32.06-5.67-26.11,13.05-49.69,40.25-49.84,50.83-.28,101.66-.31,152.48,.12,8.75,.07,11.1-2.19,10.98-10.97-.52-36.12-.25-72.25-.2-108.37,.02-19.96,8.94-35.14,25.28-41.33,18.02-6.84,33.64-2.31,47.19,11.3,53.02,53.22,106.15,106.34,159.38,159.35,6.49,6.46,10.25,14.28,13.69,22.43v17.27Z"/></g></g></g></svg>