<?xml version="1.0" encoding="UTF-8"?><svg xmlns="http://www.w3.org/2000/svg" viewBox="0 0 941.52 504.81"><defs><style>.d{fill:#45c7dc;}.e{fill:#1eb8ce;}.f{fill:#65d5f6;}.g{fill:#bcf3fc;}.h{fill:#ff2215;}.i{fill:#fefefe;}</style></defs><g id="a"/><g id="b"><g id="c"><g><path class="e" d="M735.17,504.26c-6.28,.15-12.56,.43-18.83,.43-120.32,.02-240.63-.02-360.95,.06-14.98,.01-28.49-3.98-40.44-12.98-1.97-1.49-5.4-2.37-4.11-6.18,.98-.6,2.08-1.06,2.91-1.82,20.34-18.43,38.83-38.75,59.15-57.24,19.28-17.54,37.04-36.75,56.36-54.24,7.92-7.17,14.67-15.42,22.87-22.25,18.47-15.38,34.82-32.98,51.41-50.29,2.8-2.92,5.35-4.93,9.25-5.27,11.35,9.64,21.89,20.14,32.45,30.63,11.24,11.18,24.23,18.78,40.6,19.47,8.46,.36,16.55-1.02,24.55-3.57,15.84-5.05,25.39-18.32,37.35-28.43,7.41-6.26,13.12-14.41,21.51-19.61,15.07,15.1,30.69,29.62,45.69,44.79,20.03,20.25,41.04,39.52,61.64,59.2,13.08,12.5,27.51,23.68,37.86,38.85,.37,.54,1.05,1.2,1.61,1.23,5.93,.31,8.53,5.27,12.07,8.73,11.49,11.23,22.78,22.65,34.17,33.99,2.89,2.88,5.82,5.78,10.3,2.7-4.36,9.24-12.87,13.42-21.52,17.2-10.41,4.54-21.46,5.43-32.71,5.05-8.57-.29-17.15-.21-25.73-.3"/><path class="f" d="M669.25,293c-8.39,5.2-14.09,13.35-21.51,19.61-11.97,10.1-21.52,23.38-37.35,28.43-8,2.55-16.09,3.93-24.55,3.57-16.38-.7-29.36-8.3-40.6-19.47-10.56-10.49-21.1-20.99-32.45-30.63-11.66-12.83-24.49-24.47-37.02-36.42-23.54-22.44-47.18-44.78-70.54-67.41-25.58-24.78-50.81-49.91-76.36-74.72-6.09-5.92-11.41-12.89-19.62-16.31,11.23-12.8,25.77-18.7,42.39-18.87,35.22-.37,70.44-.17,105.66-.18,83.73-.03,167.47-.04,251.2-.05,2.33,0,4.66,.17,6.98,.27,.39,4.41-.39,8.72-1.02,13.07-3.27,22.74-1.43,44.84,8.04,66.11,8.09,18.17,20.28,32.95,35.7,45.27-.55,2.71-3.43,2.83-5.01,4.5-24.09,25.52-49.84,49.34-75.44,73.31-3.15,2.95-7.08,5.42-8.49,9.93Zm-225.12-103.74c-.83,4.16,1.42,6.91,4.15,9.72,24.59,25.4,51.6,48.28,76.41,73.44,2.43,2.47,5.17,4.8,8.71,5.49,5.76,1.12,10.02-1.39,12.83-6.26,3.12-5.4,1.62-10.7-2.27-14.7-7.75-7.97-16.15-15.32-24.15-23.05-18.39-17.79-36.77-35.6-55.02-53.54-4.39-4.31-9.23-4.02-14.16-2.12-4.79,1.85-7.46,5.49-6.51,11.02Zm-20.36-19.16c5.99,.63,9.19-3.62,11.2-7.83,2.04-4.28,1.07-9.2-2.64-12.85-7.76-7.63-15.17-15.62-23.55-22.64-5.48-4.59-12.83-5.46-17.43-1.1-5.27,5-5.39,12.3-.07,17.7,7.48,7.59,15.12,15.01,22.62,22.59,2.77,2.8,5.89,4.46,9.88,4.13Z"/><path class="d" d="M309.24,99.64c8.21,3.42,13.53,10.39,19.62,16.31,25.54,24.81,50.78,49.94,76.36,74.72,23.36,22.63,47,44.97,70.54,67.41,12.53,11.95,25.37,23.58,37.02,36.42-3.9,.33-6.45,2.35-9.25,5.26-16.59,17.31-32.93,34.91-51.41,50.29-8.21,6.83-14.95,15.08-22.87,22.25-19.32,17.49-37.08,36.7-56.36,54.24-20.32,18.48-38.81,38.81-59.15,57.24-.83,.76-1.94,1.22-2.91,1.82l.08-.18c-1.33-3.72-3.55-6.49-7.68-7.22-1.12-.98-2.23-1.95-3.35-2.93-.39-.53-.77-1.06-1.16-1.6-.06-.39-.19-.77-.39-1.11,.09-4.16-3.14-6.97-4.36-10.69-3.98-12.21-1.55-24.72-2.69-37.03-.02-15.8-.03-31.59-.05-47.39l.06-50.57c.04-13.98,.08-27.96,.11-41.94-.03-18.66-.07-37.33-.1-55.99,.04-14.92,.09-29.84,.13-44.76,.72-17.32-.87-34.68,.93-51.97,1.8-9.77,4.66-19.06,11.66-26.54,.41-.51,.83-1.03,1.24-1.54,.58-2.15,1.78-3.75,3.96-4.49Z"/><path class="g" d="M291.3,326.87c-.02,16.86-.04,33.71-.06,50.57-3.73-.04-7.46-.13-11.18-.1-14.88,.12-26.92,19.93-20.08,33.15,7.54,14.57,16.45,16.29,31.31,14.34,1.15,12.31-1.28,24.82,2.69,37.03,1.21,3.73,4.45,6.53,4.36,10.69-8.95-3.7-17.84,.59-26.84,.25-18.62-.72-37.3-.09-55.95-.27-7.07-.07-14.14-1.22-21.21-1.21-11.81,.01-22.75-20.92-15.43-32.47,4.98-7.85,11.66-12.31,21.04-12.62,13.69-.44,23.82-15.02,22.84-28.61-.81-11.16-9.19-14.52-15.25-20.54-1.8-1.79-4.45-1.02-6.74-1.02-23.08-.04-46.17-.41-69.24,.11-11.85,.27-21-4.37-29.14-12.14-3.37-3.22-4.51-18.79-1.16-22.42,6.2-6.71,13.04-12.24,23.19-12.07,11.13,.19,22.29,.73,33.41-1.2,9.2-1.6,18.17-11.71,18.86-21.1,.86-11.54-2.63-20.38-13.04-26.28-2.94-1.67-5.78-1.32-8.74-1.53-8.25-.59-16.7,1.53-24.71-2.58-4.88-2.51-8-5.93-9.65-11.16-2.72-8.56-1.86-16.74,1.91-24.69,2.94-6.2,9.36-6.42,14.48-6.27,11.8,.36,23.47-1.78,35.35-.53,12.76,1.35,25.42-.55,36.4-8.11,7.65-5.26,9.47-24.24,3.93-31.89-6.08-8.4-13.47-11.57-24.12-11.8-12.43-.28-25.03-.1-37.45-2.23-12.44-2.13-19.23-15.47-15.49-27.38,4.29-13.64,13.63-16.22,25.89-16.44,9.96-.18,19.89-1.52,29.91-1.26,31.04,.79,62.09,1.35,93.14,2.12,3.99,.1,4.61-4.34,7.84-5.01-1.81,17.3-.22,34.66-.94,51.97-1.31-.38-2.74-1.32-3.92-1.06-14.51,3.13-23.2,24.48-15.1,36.86,4.56,6.97,12.98,10.97,18.88,8.96,.03,18.66,.07,37.33,.1,55.99-1.52-3.25-3.85-4.41-7.61-4.3-10.68,.31-21.43,.8-32.05-.09-9.98-.83-16.34,4.07-21.88,10.92-8.94,11.07-2.69,31.11,11.09,34.56,16.61,4.16,33.51,3.01,50.33,.84Z"/><path class="d" d="M669.25,293c1.41-4.52,5.34-6.98,8.49-9.93,25.61-23.97,51.35-47.79,75.44-73.31,1.58-1.67,4.46-1.79,5.01-4.5,10.81,6.84,22.01,12.94,34.28,16.71,25.52,7.86,50.8,7.32,75.92-2.16,6.5-2.45,12.21-6.9,19.36-7.66,.07,54.49,.15,108.98,.2,163.47,.02,23.75,.29,47.51-.17,71.25-.22,11.46-2.92,22.52-11.15,31.36-1.07,.34-1.22,1.26-1.34,2.19-.1,.45-.38,.64-.84,.58-.67,.46-1.34,.93-2.01,1.39l.15,.1c-4.48,3.08-7.41,.17-10.3-2.7-11.39-11.33-22.68-22.76-34.17-33.99-3.55-3.46-6.15-8.43-12.07-8.73-.56-.03-1.24-.69-1.61-1.23-10.35-15.17-24.78-26.35-37.86-38.85-20.6-19.68-41.62-38.95-61.64-59.2-15.01-15.17-30.63-29.7-45.69-44.79Z"/><path class="h" d="M887.75,212.15c-7.15,.76-12.86,5.2-19.36,7.66-25.12,9.48-50.4,10.02-75.92,2.16-12.27-3.78-23.47-9.87-34.28-16.71-15.42-12.32-27.61-27.11-35.7-45.27-9.47-21.27-11.31-43.37-8.04-66.11,.63-4.35,1.41-8.65,1.02-13.07,6.43-1.78,6.04-8.72,7.61-12.76,4.59-11.81,11.57-21.66,19.82-30.75,15.31-16.87,33.59-29.58,56.16-34.16,47.28-9.59,88.61,2.56,118.23,40.98,28.08,36.41,31.43,77.94,11.78,119.82-8.5,18.11-21.33,33.65-38.95,44.35-1.59,.96-2.45,2.04-2.35,3.87Zm-162.89-105.85c2.9-3.6,3.42-6.74,3.31-9.94-.19-5.28,1.89-10.63,4.24-14.3,8.6-13.44,15.36-28.19,28.69-38.51,13.09-10.13,26.52-19.1,41.98-25.14,4.38-1.71,9.99-2.11,12.89-7.34-42.19-2.55-95.31,49.74-91.12,95.23Z"/><path class="g" d="M100.19,473.89c-10.25,0-20.51-.42-30.73,.14-8.82,.48-14.7-3.8-19.35-10.23-7.75-10.73-4.01-29.42,7.41-36.16,3.87-2.29,8.76-2.7,13.45-2.7,20.96,.02,41.91-.04,62.87,.02,11.36,.03,21.19,10.43,22.01,21.69,1.29,17.74-10.51,26.99-21.44,27.19-11.41,.21-22.82,.05-34.23,.05Z"/><path class="g" d="M48.7,280.71c-8.61-.78-19.59,1.3-30.46-1.13-8.01-1.79-16.77-11.14-17.9-19.04-3-21.09,13.63-31.63,31.72-29.47,14.03,1.67,28.42,1.11,42.61,.5,10.42-.44,16.7,5.5,20.35,13.13,3.97,8.29,3.76,17.79-2.58,25.75-5.55,6.96-11.84,12.01-21.9,10.46-6.38-.99-13.03-.18-21.85-.18Z"/><path class="g" d="M112.32,158.5c0,13.4-7.03,21.87-19.59,24.52-10.83,2.29-21.2,2.19-30.43-5.09-9.05-7.14-10.7-17.24-8.13-27.09,2.04-7.81,8.28-14.13,17.07-15.67,12.44-2.17,24.89-3.67,34.93,7.04,4.6,4.9,6.94,10.34,6.15,16.29Z"/><path class="e" d="M303.23,478.19c4.13,.73,6.35,3.5,7.68,7.22-4.6-.24-5.7-4.2-7.68-7.22Z"/><path class="e" d="M875.29,480.42c.12-.93,.27-1.84,1.34-2.19-.03,.99-.16,1.91-1.34,2.19Z"/><path class="f" d="M305.28,104.13c-.41,.51-.83,1.03-1.24,1.54,.41-.51,.83-1.03,1.24-1.54Z"/><path class="g" d="M298.73,473.67c.39,.53,.77,1.06,1.16,1.6-.39-.53-.77-1.06-1.16-1.6Z"/><path class="e" d="M872.45,482.39c.67-.46,1.34-.93,2.01-1.39-.36,.91-.88,1.6-2.01,1.39Z"/><path class="g" d="M444.12,189.26c-.95-5.53,1.73-9.17,6.51-11.02,4.93-1.91,9.77-2.19,14.16,2.12,18.25,17.94,36.62,35.75,55.02,53.54,8,7.74,16.4,15.08,24.15,23.05,3.89,4,5.39,9.3,2.27,14.7-2.82,4.87-7.07,7.38-12.83,6.26-3.54-.69-6.28-3.02-8.71-5.49-24.82-25.16-51.82-48.04-76.41-73.44-2.73-2.82-4.98-5.57-4.15-9.72Z"/><path class="g" d="M423.76,170.1c-3.99,.32-7.11-1.34-9.88-4.13-7.5-7.57-15.14-15-22.62-22.59-5.31-5.39-5.2-12.7,.07-17.7,4.6-4.36,11.95-3.48,17.43,1.1,8.39,7.02,15.79,15.01,23.55,22.64,3.71,3.65,4.69,8.56,2.64,12.85-2.01,4.21-5.21,8.46-11.2,7.83Z"/><path class="i" d="M724.86,106.3c-4.19-45.49,48.93-97.78,91.12-95.23-2.9,5.23-8.51,5.62-12.89,7.34-15.46,6.05-28.89,15.02-41.98,25.14-13.34,10.32-20.09,25.07-28.69,38.51-2.35,3.67-4.43,9.03-4.24,14.3,.11,3.19-.41,6.33-3.31,9.94Z"/></g><path class="i" d="M847.11,113.34l30.67-30.67c5.76-5.76,5.76-15.18,0-20.94s-15.18-5.76-20.94,0l-30.67,30.67-30.67-30.67c-5.76-5.76-15.18-5.76-20.94,0h0c-5.76,5.76-5.76,15.18,0,20.94l30.67,30.67-30.67,30.67c-5.76,5.76-5.76,15.18,0,20.94h0c5.76,5.76,15.18,5.76,20.94,0l30.67-30.67,30.67,30.67c5.76,5.76,15.18,5.76,20.94,0h0c5.76-5.76,5.76-15.18,0-20.94l-30.67-30.67Z"/></g></g></svg>