<?xml version="1.0" encoding="UTF-8"?><svg xmlns="http://www.w3.org/2000/svg" viewBox="0 0 408.67 269.41"><defs><style>.d{fill:#020202;}</style></defs><g id="a"/><g id="b"><g id="c"><path class="d" d="M408.67,259.98c-2.9,7.07-8.27,9.43-15.74,9.43-125.94-.11-251.87-.08-377.81-.08-8.36,0-13.08-2.99-14.7-9.42-.38-1.52-.41-3.16-.41-4.74C0,174.97,0,94.78,0,14.59,0,4.66,4.66,.01,14.69,0,73.47,0,132.25,0,191.03,0c67.42,0,134.85,0,202.27,0,8.99,0,12.35,2.23,15.37,10.14v249.83ZM47.7,24.72c1.02,.87,1.56,1.35,2.14,1.81,50.58,40.17,101.18,80.32,151.7,120.56,2.19,1.74,3.39,1.77,5.6,.01,42.09-33.55,84.26-67.01,126.41-100.48,9-7.15,18-14.3,27.56-21.9H47.7Zm-1.71,219.82H362.55c-.85-.78-1.3-1.23-1.79-1.64-37.27-31.5-74.55-62.97-111.75-94.55-2.01-1.71-3.05-.99-4.59,.24-10.18,8.13-20.37,16.24-30.59,24.32-7,5.53-11.97,5.53-18.98,0-10.12-7.99-20.26-15.96-30.26-24.09-2.14-1.74-3.34-1.77-5.51,.08-24.91,21.2-49.93,42.26-74.92,63.37-12.57,10.62-25.12,21.25-38.16,32.28ZM24.84,37.93V230.36c39.41-33.31,78.33-66.2,117.38-99.21-39.19-31.12-78.09-62.01-117.38-93.21Zm241.62,93.21c39.09,33.04,78.02,65.93,117.32,99.16V37.98c-39.31,31.22-78.21,62.11-117.32,93.17Z"/></g></g></svg>