<?xml version="1.0" encoding="utf-8"?>
<!-- Generator: Adobe Illustrator 26.2.1, SVG Export Plug-In . SVG Version: 6.00 Build 0)  -->
<svg version="1.1" id="Calque_1" xmlns="http://www.w3.org/2000/svg" xmlns:xlink="http://www.w3.org/1999/xlink" x="0px" y="0px"
	 viewBox="0 0 1000 1000" style="enable-background:new 0 0 1000 1000;" xml:space="preserve">
<style type="text/css">
	.st0{fill:none;}
	.st1{fill:#C4C4C4;}
	.st2{fill:#666666;}
	.st3{fill:#FEFEFE;}
</style>
<g id="a">
</g>
<g id="b">
	<g id="c">
		<rect class="st0" width="1000" height="1000"/>
		<g>
			<path class="st1" d="M521.4,955c-20.7,0-41.4,0-62,0c-18.8,0-30.8-11.7-30.9-30.4c-0.2-26.3-0.4-52.6,0.1-78.9
				c0.1-7.5-2.4-10-9.2-11.8c-24-6.3-46.8-15.9-68.9-27.2c-4.4-2.3-6.5-3.6-1.8-8.2c30.5-30.1,60.8-60.5,91.1-90.9
				c2.4-2.4,4.3-4.2,8.5-2.7c69.2,26.3,133.9,14.2,195.1-23.7c62.5-38.8,101.5-94.6,111.7-167.6c12.1-86.5-16.1-159.6-82.7-216.6
				c-34.2-29.2-73.8-48-118.3-55.9c-43.8-7.8-85.4,0.4-125,19.1c-68,32.1-114.7,83.1-135.3,156.2c-12.2,43.5-11.3,87.3,1.9,130.5
				c1.8,5.8,0.8,9-3.4,13.1c-30.3,30-60.5,60.1-90.4,90.4c-4.5,4.6-5.9,4.1-8.7-1.4c-11.4-22.9-21.1-46.4-27.6-71.2
				c-1.3-5-3.5-6.3-8.4-6.2c-26.6,0.2-53.1,0.1-79.7,0.1c-20.7,0-32.2-11.5-32.2-32.3c0-40.8,0-81.7,0-122.5
				c0-19.7,11.6-31.5,31.3-31.6c26.5-0.1,53.1-0.2,79.7,0.1c5.4,0,8-1.2,9.5-6.9c7.5-28.5,18.7-55.6,33.4-81.1
				c2.8-4.9,2.4-7.8-1.6-11.7c-19-18.5-37.7-37.4-56.4-56.2c-13.9-13.9-14-30-0.3-43.8c29.4-29.5,58.8-58.9,88.3-88.2
				c13.4-13.3,29.6-13.2,43.2,0.3c19,18.9,38,37.8,56.8,56.9c3.3,3.3,5.8,4.7,10.4,2c25.7-14.9,53-26.3,81.7-33.9
				c5.9-1.6,7.3-4.2,7.2-10c-0.3-26.3-0.2-52.6-0.1-78.9c0-20.2,11.7-31.7,32-31.7c40.9,0,81.7,0,122.5,0
				c20.3,0,31.8,11.6,31.8,31.8c0,26.8,0.1,53.6-0.1,80.4c0,4.6,1.2,6.6,5.9,7.8c29.2,7.9,57,19.2,83.2,34.4
				c4.1,2.4,6.5,1.9,9.8-1.4c18.8-19.1,37.8-38,56.8-56.9c14.6-14.5,30.3-14.2,44.8,0.3c29,29.1,58.1,58.1,87.2,87.2
				c13.4,13.5,13.9,29.1,0.8,42.6c-18.9,19.4-38,38.5-57.3,57.4c-3.9,3.8-4.6,6.4-1.7,11.5c14.4,25.4,25.8,52.1,33.2,80.4
				c1.6,6,4.2,7.9,10.5,7.8c26-0.4,52.1-0.2,78.1-0.2c20.4,0,32,11.5,32,31.6c0,41.1,0,82.2,0,123.3c0,19.8-11.6,31.5-31.3,31.5
				c-26.5,0.1-53.1,0.2-79.7-0.1c-5.5-0.1-8,1.5-9.5,7c-7.6,28.8-19,56-33.8,81.8c-2.6,4.5-1.8,7,1.6,10.4
				c19.1,18.8,38,37.8,56.9,56.8c13.8,13.8,13.9,29.8,0.1,43.7c-29.2,29.3-58.4,58.5-87.7,87.7c-14.1,14-30.1,13.8-44.3-0.4
				c-18.8-18.8-37.6-37.5-56.2-56.4c-3.7-3.8-6.5-4.1-11.1-1.4c-25.3,14.7-52.1,25.7-80.3,33.3c-5.9,1.6-8.1,3.8-8,10.3
				c0.4,26.3,0.2,52.6,0.2,78.9c0,19.8-11.6,31.5-31.3,31.5C562.8,955,542.1,955,521.4,955L521.4,955z"/>
			<path class="st2" d="M570.6,300.1c-0.5,3.4-3.1,4.6-4.8,6.3c-29.7,29.8-59.5,59.7-89.4,89.3c-3.7,3.6-4.8,6.9-3.4,12
				c7.9,29,15.4,58.1,22.9,87.3c1.3,4.9,3.2,7.5,8.7,8.9c28.7,7.1,57.3,14.6,85.8,22.6c6.7,1.9,10.6,0.3,15.2-4.4
				c29.9-30.4,60.2-60.4,90.3-90.5c0.9-0.9,1.8-1.7,3.4-3.2c4.9,14.4,6.4,28.7,7.1,43c4.8,94.6-69.3,180.4-163.4,190
				c-28.7,2.9-56.6,0.1-83.6-9.9c-5.6-2.1-8.5-0.6-12.4,3.2C343.4,758.5,239.6,862.2,135.8,966.1c-10.8,10.9-21.5,21.8-36.5,27.2
				c-32.3,11.5-67.6-0.2-85.9-28.9C-5,935.7-0.8,898.7,24.1,873.8c87.5-87.6,175.1-175.1,262.6-262.6c19.5-19.5,38.8-39.2,58.6-58.3
				c4.5-4.3,4.7-7.7,2.8-13.2c-36-103.8,22.7-213.4,129-240.6c30.3-7.8,60.6-7.5,90.8,0.3C568.9,299.5,569.7,299.8,570.6,300.1
				L570.6,300.1z M74.8,949c13.4,0.2,24.5-10.4,25-23.8c0.4-13.4-11-25-24.6-25.1c-13.3,0-24.3,11-24.4,24.3
				C50.7,938,61.3,948.9,74.8,949L74.8,949z"/>
			<path class="st3" d="M74.8,949c-13.5-0.2-24.1-11-24-24.6c0.1-13.4,11.1-24.4,24.4-24.3c13.6,0,25,11.7,24.6,25.1
				C99.3,938.6,88.2,949.2,74.8,949L74.8,949z"/>
		</g>
	</g>
</g>
</svg>
