<svg xmlns="http://www.w3.org/2000/svg" viewBox="0 0 480 480"><defs><style>.cls-1{opacity:0;}</style></defs><g id="Calque_2" data-name="Calque 2"><g id="Calque_21" data-name="Calque 21"><rect class="cls-1" width="480" height="480"/><path d="M314,306.84h0a9.79,9.79,0,0,0-.47-2c-1.63-6.26-5.36-17.7-7.07-22.8a10.58,10.58,0,0,0-.86-2.58s-2.74-4.11-4.8-5.35c0,0-1-.56-1.16-.6-4.07-1.93-16.67-7-16.67-7h0c-6.3-2.74-12.81-5.06-19.46-7.42h0c-1.2,4.93-12.47,37.77-14.27,42.35l-1.41-30.52a24,24,0,0,0,1.2-2.31l4.71-9.3a23.51,23.51,0,0,1-27.43.17l4.59,9.09a17.37,17.37,0,0,0,1.2,2.31l-1.42,30.52c-1.8-4.54-13.07-37.38-14.27-42.35h0c-6.65,2.36-13.16,4.72-19.46,7.42h0s-12.6,5-16.67,7c-.13.09-1,.52-1.16.6s-3.77,3.13-4.8,5.32a18.47,18.47,0,0,0-.86,2.57c-1.67,5.1-5.4,16.5-7.07,22.8a9.74,9.74,0,0,0-.47,2h0a12.65,12.65,0,0,0-.13,1.84A12.16,12.16,0,0,0,178,320.77H302.21a12.17,12.17,0,0,0,12.18-12.17A7.42,7.42,0,0,1,314,306.84Z"/><path d="M271.7,202.69c0-2.14.42-9.94.42-11.7a31.48,31.48,0,0,0-31.46-31.46h-1.37A31.48,31.48,0,0,0,207.83,191c0,1.8.43,9.56.43,11.7-.77,0-7.8-1.67-7,6.77,1.59,17.87,8.45,14.45,8.62,14.45,3.34,10.8,8.57,17.65,13.67,22,8,6.81,15.69,7.58,15.86,7.58h1.28c.13,0,7.81-.73,15.73-7.5,5.15-4.37,10.38-11.27,13.76-22.11.22,0,7,3.47,8.62-14.45C279.5,201,272.47,202.73,271.7,202.69Z"/><path d="M165,275.81l.09-.26.13-.25a21.81,21.81,0,0,1,4.84-6.39,35.14,35.14,0,0,1,3.3-2.87h0c.09,0,.17-.13.26-.17a.19.19,0,0,1,.17-.09h0a21.25,21.25,0,0,1,2.23-1.2c2.79-1.33,8.79-3.77,12.94-5.49a4,4,0,0,1-.43-.21c-.12,0-.25-.13-.38-.17-3.56-1.67-14.53-6.09-14.53-6.09h0c-5.49-2.35-11.19-4.41-17-6.47h0c-1,4.33-10.89,32.92-12.43,36.9L143,256.44a16.68,16.68,0,0,0,1-2l4.12-8.1a19,19,0,0,1-12,4,19.22,19.22,0,0,1-11.87-3.78l4,7.93a14.18,14.18,0,0,0,1,2L128,283.05c-1.54-3.94-11.4-32.57-12.42-36.9h0c-5.79,2.06-11.49,4.07-17,6.47h0s-11,4.42-14.53,6.09c-.13,0-.26.13-.38.17-.3.17-.52.26-.65.34h0a10.52,10.52,0,0,0-4.2,4.63h0v0a8,8,0,0,0-.73,2.22C76.68,270.58,73.42,280.53,72,286a10.28,10.28,0,0,0-.43,1.76h0a9.53,9.53,0,0,0-.13,1.63A10.58,10.58,0,0,0,82,299.94h75.4c1.8-6.34,4.67-15.26,6.47-20.61A18.4,18.4,0,0,1,165,275.81Z"/><path d="M109.77,215.38c2.91,9.38,7.45,15.38,11.91,19.2,6.94,6,13.67,6.6,13.8,6.6h1.12c.13,0,6.81-.64,13.71-6.56,4.5-3.81,9.05-9.81,12-19.29.18,0,6.13,3,7.55-12.55.64-7.38-5.49-5.88-6.13-5.92,0-1.89.38-8.66.38-10.2a27.45,27.45,0,0,0-27.43-27.43h-1.2a27.45,27.45,0,0,0-27.43,27.43c0,1.54.39,8.36.39,10.2-.69,0-6.82-1.46-6.13,5.92C103.64,218.42,109.59,215.38,109.77,215.38Z"/><path d="M408.34,278.64c-.09-1-.22-2-.35-3,0,0-.55-3.17-.68-3.68-1.29-5.62-4.76-9.69-9.47-12.91a29.09,29.09,0,0,0-2.7-1.58c-1.2-.64-19.63-6.69-20.11-6.86a14.41,14.41,0,0,1,.22,2.1c2.57,1.8,10.11,8.32,6.69,20.45,0,0-5.45-6.48-11-7.29-5.27,9.17-14.23,20.83-19.07,23.87-4.84-3-13.8-14.65-19.07-23.87-5.53.81-11,7.29-11,7.29-3.43-12.18,4.12-18.65,6.69-20.45a16,16,0,0,1,.21-2.1c-.47.17-18.9,6.22-20.1,6.86a21.4,21.4,0,0,0-2.7,1.58,27.52,27.52,0,0,0-4.88,4.16c1.11.47,2.05.9,2.83,1.25a14.59,14.59,0,0,1,2,1.07h0a22.6,22.6,0,0,1,5.87,5.48,18.58,18.58,0,0,1,4.33,8.32c1.76,5.36,4.67,14.27,6.43,20.57h71.92a14.1,14.1,0,0,0,10.85-4.46c2.31-2.48,3-5.44,3.17-8.65,0-.56.08-3,.08-3S408.34,278.68,408.34,278.64Z"/><path d="M318.5,220.78a17.42,17.42,0,0,1,.73,4.5,7.47,7.47,0,0,1-.13,1.41c-.39,1.33-3.21,5.87-3.69,6.65,5,5.4,11.62,6.64,18.13,8,1.93.39,3.9.64,6,.9l2.05.39-3.3,9.68a28.57,28.57,0,0,0,13.59,22.76H352a28.53,28.53,0,0,0,13.59-22.76l-3.3-9.68,2.06-.39c2.1-.26,4.07-.51,6-.9,6.51-1.37,13.16-2.61,18.13-8-.47-.78-3.3-5.32-3.69-6.65a8.39,8.39,0,0,1-.12-1.41,15.84,15.84,0,0,1,.72-4.5c.43-1.5.9-3,1.38-4.55A39.31,39.31,0,0,0,352,160.9h-.09a39,39,0,0,0-38.14,39.17,39.92,39.92,0,0,0,3.42,16.16C317.6,217.78,318.07,219.28,318.5,220.78Z"/></g></g></svg>