<?xml version="1.0" encoding="UTF-8"?><svg xmlns="http://www.w3.org/2000/svg" viewBox="0 0 118.07 138.41"><defs><style>.d{fill:#de8861;}.e{fill:#dadde9;}.f{fill:#3d2744;}.g{fill:#bac3df;}.h{fill:#fefefd;}.i{fill:#f2a583;}</style></defs><g id="a"/><g id="b"><g id="c"><g><path class="e" d="M80.11,95.84c3.62,3.28,8.55,3.62,12.8,5.42,8.14,3.44,16.75,5.78,25.16,8.58-4.14,7.86-11.5,12.49-18.52,16.97-12.07,7.71-25.65,11.36-40.05,11.6-.2-1.94,3.08-.97,2.59-2.89-1.42-5.57,1.76-10.38,2.41-15.59,5.58-3.19,7.45-9.31,10.9-14.14,2.08-2.92,5.24-5.66,4.71-9.94Z"/><path class="e" d="M0,109.9c1.41-3.03,4.57-1.22,6.51-2.31,6.78-3.79,14.04-6.25,21.33-8.78,2.13-.74,4.1-.74,6.16-1.01,2.81,4.48,5.2,9.32,8.59,13.31,2.47,2.9,2.88,7.68,7.49,8.72,1.36,5.89,3.75,11.66,2.11,17.91-20.79-1.53-37.84-10.48-51.56-26-.4-.45-.43-1.22-.63-1.84Z"/><path class="f" d="M52.19,137.75c1.64-6.25-.75-12.02-2.11-17.91,1.4-4.29,2.8-8.57,4.2-12.86,1.94-.06,3.89-.12,5.83-.18,1.46,4.38,2.92,8.75,4.38,13.13-.65,5.22-3.82,10.02-2.41,15.59,.49,1.92-2.79,.95-2.59,2.89-2.44-.22-4.88-.44-7.31-.66Z"/><path class="i" d="M60.12,106.8c-1.94,.06-3.89,.12-5.83,.18-5.32-5.1-7.08-12.91-13.22-17.38,.07-.59,.13-1.17,.2-1.76,10.21,2.36,20.04,.84,29.63-2.95,2.02-.8,2.53-2.3,1.56-4.73-5.33,4.23-11.29,4.96-17.6,4.72-4.92-.19-8.49-3.37-12.74-5.01-4.48-5.53-8.41-11.37-10.1-18.42-.45-1.88-2.24-1.79-3.41-2.51-4.5-2.75-6.61-6.62-6.65-11.9-.03-4.06,1.6-6.25,5.71-6.45,2.14,1.3,3.02,.77,3.63-1.77,1.68-6.99,4.99-13.31,8.65-19.47,1.37-2.3,2.98-3.11,5.68-2.79,5.32,.65,10.74,.55,15.63-1.8,4.36-2.1,7.65-.93,10.77,2.12,6.58,6.43,10.81,14.18,12.97,23.1,.2,.84-.16,2.29,1.37,2.06,1.06-.16,2.45-.29,2.7-1.76,.25-1.47,.34-2.96,.49-4.44,.42,3.05,1.18,5.8,3.22,8.42,3.09,3.98,.73,11.42-4.87,14.89-3.05,1.89-4.85,4.12-6.03,7.36-.89,2.44-1.95,5.15-3.76,6.86-4.42,4.18-4.51,9.2-3.97,14.54-4.68,6.3-9.36,12.59-14.04,18.89Zm5.58-41.19c-4.64-.31-8.86-.62-13.07,.13-.75,.14-1.75-.19-2.09,.82-.31,.95,.5,1.49,1.03,2.07,4.45,4.91,10,3.85,14.13-3.03Zm-19.4-26.26c-1.61,.08-1.76,1.36-1.96,2.46-.23,1.3-.51,2.91,1.04,3.47,1.51,.54,1.95-.81,2.09-2.01,.16-1.44,.54-3.01-1.17-3.91Zm23.24,2.84c-.03-1.24,.05-2.7-1.51-2.72-1.8-.02-1.84,1.67-1.89,2.93-.04,1.23-.3,3.05,1.68,2.88,1.71-.14,1.46-1.92,1.72-3.1Zm-11.94-4.2c-1.49,3.48-2.28,7.04-2.08,10.75,1.64-3.43,2.7-6.96,2.08-10.75Zm-2.8,13.2c-2.41,7.75-2.23,8.08,3.09,7.02q-2.75-1.41-3.09-7.02Z"/><path class="f" d="M89.56,35.84c-.16,1.48-.25,2.97-.49,4.44-.25,1.47-1.64,1.6-2.7,1.76-1.53,.22-1.17-1.23-1.37-2.06-2.16-8.92-6.4-16.67-12.97-23.1-3.12-3.05-6.41-4.22-10.77-2.12-4.9,2.35-10.31,2.45-15.63,1.8-2.7-.33-4.32,.49-5.68,2.79-3.66,6.16-6.97,12.48-8.65,19.47-.61,2.53-1.49,3.06-3.63,1.77-1.27-5.92-1.03-11.92-.49-17.85,.49-5.32,2.56-9.98,7.95-12.32,.3-.13,.71-.24,.86-.49C41.64,.09,50.86-.3,60.55,.72c2.63,.28,4.93-1.18,7.75-.57,12.39,2.72,18.13,9.01,21.05,23.84-.15,.25-.12,.48,.1,.68,.11,2.49,.22,4.99,.33,7.47,0,.46,0,.93,0,1.39-.07,.76-.15,1.53-.22,2.29Z"/><path class="g" d="M60.12,106.8c4.68-6.3,9.36-12.59,14.04-18.89,1.98,2.65,3.97,5.29,5.95,7.94,.53,4.28-2.62,7.02-4.71,9.94-3.45,4.83-5.33,10.95-10.9,14.14-1.46-4.38-2.92-8.75-4.38-13.13Z"/><path class="g" d="M41.06,89.59c6.15,4.47,7.91,12.28,13.22,17.38-1.4,4.29-2.8,8.57-4.2,12.86-4.61-1.04-5.02-5.82-7.49-8.72-3.39-3.98-5.77-8.83-8.59-13.31,1.88-3.14,2.95-6.98,7.06-8.21Z"/><path class="d" d="M42.11,79.87c4.25,1.64,7.82,4.82,12.74,5.01,6.31,.24,12.27-.49,17.6-4.72,.97,2.43,.46,3.93-1.56,4.73-9.59,3.79-19.42,5.31-29.63,2.95-.93-2.79,.55-5.31,.85-7.97Z"/><path class="i" d="M89.79,33.54c0-.46,0-.93,0-1.39,.41,.47,.4,.93,0,1.39Z"/><path class="i" d="M89.45,24.68c-.22-.2-.25-.43-.1-.68,.12,.16,.24,.32,.34,.49,0,.01-.16,.13-.24,.2Z"/><path class="h" d="M65.69,65.61c-4.13,6.88-9.68,7.94-14.13,3.03-.53-.59-1.34-1.13-1.03-2.07,.34-1.01,1.34-.68,2.09-.82,4.21-.76,8.43-.45,13.07-.13Z"/><path class="f" d="M46.3,39.34c1.7,.9,1.33,2.47,1.17,3.91-.13,1.21-.58,2.56-2.09,2.01-1.55-.56-1.27-2.17-1.04-3.47,.2-1.1,.35-2.38,1.96-2.46Z"/><path class="f" d="M69.54,42.19c-.26,1.17,0,2.95-1.72,3.1-1.99,.17-1.73-1.66-1.68-2.88,.05-1.27,.09-2.95,1.89-2.93,1.56,.01,1.48,1.47,1.51,2.72Z"/><path class="d" d="M57.6,37.99c.62,3.79-.44,7.32-2.08,10.75-.21-3.71,.59-7.27,2.08-10.75Z"/><path class="d" d="M54.8,51.19q.34,5.61,3.09,7.02c-5.33,1.05-5.5,.72-3.09-7.02Z"/></g></g></g></svg>