<?xml version="1.0" encoding="UTF-8"?><svg xmlns="http://www.w3.org/2000/svg" viewBox="0 0 99.83 125.66"><defs><style>.d{fill:#f70c67;}.e{fill:#8d3f3f;}.f{fill:#de8861;}.g{fill:#3d2744;}.h{fill:#f2a583;}</style></defs><g id="a"/><g id="b"><g id="c"><g><path class="d" d="M0,106.8c.91-7.13,4.9-11.41,11.9-13.05,1.03-.24,1.91-1.18,2.85-1.8,5.15,.7,9.62-2.92,14.76-2.32,2.8,2.76,3.49,7.37,7.79,8.8-.86,.41-1.02,.65-.39,1.71,4.91,8.2,10.06,16.29,12.94,25.52-18.91-.22-35.83-5.7-49.84-18.86Z"/><path class="d" d="M87.35,92.38c.42,1.23,1.47,1.71,2.58,2.04,6.66,2.02,9.75,6.65,9.9,13.45-14.06,11.31-29.92,17.76-48.16,17.76,4.14-8.95,8.27-17.91,12.41-26.86,2.27-2.69,4.78-5.21,5.74-8.76,.9-.21,1.79-.41,2.69-.62,5.06,.45,9.61,3.41,14.84,2.99Z"/><path class="g" d="M64.09,98.77c-4.14,8.95-8.27,17.91-12.41,26.86l-1.84,.03c-2.88-9.23-8.03-17.32-12.94-25.52-.63-1.06-.47-1.3,.39-1.71,7.07,.45,14.14,.49,21.21-.02,1.84-.13,3.83-1.38,5.58,.36Z"/><path class="g" d="M87.35,92.38c-5.23,.42-9.78-2.53-14.84-2.99,2.22-2.71,1.53-5.52,.36-8.39-1.22-3.01-1.99-5.89,1.01-8.58,1.85-1.66,1.4-3.98,.24-5.95-1.34-2.27-2.89-4.4-4.36-6.6,.13-2.3,2.18-2.16,3.6-2.83,4.63-2.18,7.71-7.32,7.35-12.07-.17-2.16-1.09-4.81-2.92-4.73-6.01,.27-4.83-4.35-5.83-7.54-.65-2.06-1.28-4.12-1.92-6.19-.8-2.61-2.05-3.58-5.13-2.76-8.13,2.15-16.43,2.52-24.76,.97-9.59-1.79-10.35-1.23-12.24,8.62-.16,.82-.25,1.65-.35,2.47-.27,2.21-.51,3.95-3.69,3.98-2.87,.03-4.14,2.61-4.13,5.37,.02,5.5,2.54,9.66,7.54,11.92,1.93,.87,3.15,1.66,2.82,3.89-2.61,3.44-4.75,6.75-.59,10.74,1.91,1.83,.95,4.41-.1,6.47-1.93,3.82-1.49,7.24,1.15,10.49-.36,.31-.72,.63-1.08,.94-5.14-.6-9.61,3.02-14.76,2.32,.04-2.88-.21-5.66-2.65-7.71-3.87-3.26-4.02-7.25-1.48-11.15,3.55-5.45,4.07-11.03,2.3-17.14-1.86-6.43-.59-12.09,4.46-16.84,3.28-3.08,4.58-6.93,4.81-11.59C22.93,12.62,31.08,3,44.29,.68c15.36-2.7,27.78,2.81,33.23,14.79,1.9,4.16,2.8,8.59,2.37,13.12-.48,5.05,1.2,9.23,4.68,12.63,5.15,5.05,6.87,10.78,4.51,17.69-1.95,5.72-1.13,11.06,2.23,16.13,2.74,4.13,2.63,8.11-1.36,11.57-1.74,1.5-2.32,3.59-2.6,5.78Z"/><path class="h" d="M29.5,89.63c.36-.31,.72-.63,1.08-.94,4.43-.2,6.72-2.61,7.42-6.9,.28-1.73,1.04-3.38,1.57-5.06,1.82,2.21,4.32,2.45,6.82,1.97,4.53-.87,9.19-1.16,13.55-2.85,2.06,5.58,2.55,12.26,9.88,14.17-.95,3.55-3.47,6.07-5.74,8.76-1.75-1.74-3.74-.49-5.58-.36-7.07,.52-14.14,.47-21.21,.02-4.3-1.43-4.99-6.05-7.79-8.8Z"/><path class="h" d="M69.77,59.88c-2.62,4.57-5.34,9.06-9.96,11.98-6.59,3.02-13.19,2.71-19.81,.12-3.3-3.67-6.6-7.33-9.9-11,.33-2.23-.89-3.02-2.82-3.89-5-2.26-7.52-6.42-7.54-11.92,0-2.76,1.26-5.34,4.13-5.37,3.18-.03,3.42-1.77,3.69-3.98,.1-.83,.2-1.66,.35-2.47,1.89-9.86,2.64-10.42,12.24-8.62,8.34,1.56,16.63,1.18,24.76-.97,3.08-.81,4.33,.15,5.13,2.76,.63,2.06,1.27,4.13,1.92,6.19,1.01,3.19-.17,7.8,5.83,7.54,1.83-.08,2.75,2.57,2.92,4.73,.36,4.75-2.72,9.89-7.35,12.07-1.42,.67-3.46,.53-3.6,2.83Zm-24.47-15.48q3.5-5.61,7.38-.27c2.54,3.5,8.24,4.54,12.06,2.2,3.55-2.18,4.57-6.23,2.52-10.06-4.99-2.08-9.98-1.92-14.97,.03-2.02,1.08-4.05,1-6.1,.1-3.07-2.6-6.7-1.04-10.07-1.31-2.28-.19-5.01-.5-6.01,2.28-1.04,2.88,.07,5.38,2.58,7.59q-1.11-7.96,7.27-7.96c1.82,0,3.64,.19,5.46,.3,.66,2.22-.41,4.16-.99,6.18-.88,.79-2.52,.98-2.23,2.79,1.7,.39,2.39-.76,3.1-1.87Zm-12.05,.73c.49,.54,.74,.94,1.11,1.17,.18,.11,.56-.12,.85-.19-.14-.39-.17-.97-.44-1.11-.31-.17-.83,.05-1.52,.14Z"/><path class="f" d="M39.58,76.72c.14-1.58,.28-3.16,.42-4.74,6.62,2.59,13.23,2.9,19.81-.12,.04,1.33,.09,2.65,.13,3.98-4.36,1.69-9.01,1.99-13.54,2.85-2.5,.48-5,.24-6.82-1.97Z"/><path class="e" d="M44.43,43.48c.58-2.02,1.65-3.96,.99-6.18,.26-.3,.51-.6,.77-.9,2.05,.9,4.08,.98,6.1-.1,.28,.31,.57,.62,.85,.93-.27,5.85,1.92,8.51,6.96,8.46,4.74-.05,6.68-2.64,6.31-8.45l.85-.98c2.04,3.84,1.03,7.89-2.52,10.07-3.82,2.34-9.52,1.3-12.06-2.2q-3.87-5.34-7.38,.27c-.29-.31-.58-.62-.87-.92Z"/><path class="e" d="M45.42,37.3c-1.82-.1-3.64-.3-5.46-.3q-8.38-.01-7.27,7.96c-2.52-2.21-3.62-4.71-2.58-7.59,1-2.78,3.73-2.47,6.01-2.28,3.37,.28,7-1.28,10.07,1.31-.26,.3-.51,.6-.77,.9Z"/><path class="e" d="M52.29,36.3c4.99-1.96,9.98-2.12,14.97-.04-.28,.32-.57,.65-.85,.98-4.42-.48-8.85-.45-13.27,0-.28-.31-.57-.62-.85-.93Z"/><path class="e" d="M45.3,44.4c-.72,1.1-1.4,2.26-3.1,1.87-.29-1.81,1.35-2,2.23-2.79,.29,.31,.58,.61,.87,.92Z"/><path class="e" d="M33.26,45.13c.69-.08,1.21-.3,1.52-.14,.27,.14,.3,.72,.44,1.11-.29,.07-.67,.3-.85,.19-.37-.23-.62-.63-1.11-1.17Z"/><path class="h" d="M53.14,37.23c4.42-.44,8.85-.47,13.27,0,.37,5.81-1.57,8.4-6.31,8.45-5.04,.06-7.23-2.61-6.96-8.46Z"/></g></g></g></svg>