<?xml version="1.0" encoding="UTF-8"?><svg xmlns="http://www.w3.org/2000/svg" viewBox="0 0 118.5 141.36"><defs><style>.d{fill:#de8861;}.e{fill:#fce9de;}.f{fill:#fcded3;}.g{fill:#3d2744;}.h{fill:#bac3df;}.i{fill:#f2a583;}</style></defs><g id="a"/><g id="b"><g id="c"><g><path class="g" d="M79.48,100.39c1.95-1.01,3.58,.32,5.21,.88,11.29,3.88,22.54,7.89,33.81,11.86-1.79,4.74-5.92,7.42-9.55,10.4-9.55,7.85-20.18,13.57-32.57,15.54,.34-4.96,.67-9.93,1.01-14.89,1.12-7.89,2.11-15.8,2.09-23.79Z"/><path class="g" d="M0,112.1c11.29-3.9,22.58-7.8,33.88-11.7,.88,7.89,1.75,15.78,2.62,23.66,.31,4.5,.62,8.99,.94,13.49-15.38-4.22-28.28-12.08-37.44-25.45Z"/><path class="h" d="M37.44,137.55c-.31-4.5-.62-8.99-.93-13.49,2.12,.22,4.33-.3,6.36,.71,11.61,5.81,23.08,3.32,34.53-.6-.34,4.96-.67,9.93-1.01,14.89-10.8,3.43-21.72,2.5-32.59,.56-2.11-.38-4.79,.26-6.35-2.08Z"/><path class="i" d="M89.2,44.17c5.68,3.79,7.06,11.13,1.45,15.24-6.11,4.49-9.03,10.4-12.12,16.69-1.28,2.61-3.53,4.75-5.33,7.11-1.38,.54-2.84,.93-4.12,1.64-5.62,3.09-11.42,4.19-17.71,2.32-2.95-.87-5.37-3.14-8.6-3.19-1.01,1.63,.36,3.83-1.42,5.16,.69-5.04-.55-9.38-4.28-13.04-1.12-1.1-1.94-2.78-2.31-4.33-1.3-5.41-4.61-8.9-9.03-12.26-6.53-4.96-5.32-12.91,1.75-16.22,4.67,3.35,2.91-2.67,4.84-3.32,2.21,2.63,.6,5.75,1.09,8.6,.22,1.24-.3,3.18,1.44,3.26,5.46,.27,10.94,.27,16.41,.21,3.21-.03,1.34-4.33,3.93-5.02-.55,3.38-1.07,6.76-1.64,10.13-.8,4.7,.32,5.6,6.5,3.68-6.87-.07-4.83-4-4.58-6.97,.2-2.35,2.02-4.69-.2-6.95,2.58-1.25,4.74-1.67,5.33,2.17,.36,2.35,1.96,3.21,4.32,3.06,2.31-.14,4.64-.03,6.96-.03q9.9-.03,9.4-9.96c-.03-.66-.03-1.33-.09-1.99-.12-1.17-.85-1.74-1.97-1.82-3.77-.26-7.53-.71-11.3-.7-3.26,0-6.34,.3-7.32,4.71-.61,2.75-4.41,2.86-5.6,.16-2.55-5.77-6.96-5.26-11.94-4.6-3.23,.43-6.8,1.75-9.81-.99,1.18-5.81,4.4-10.64,7.46-15.55,.8-1.28,1.71-1.84,3.28-1.12,9.5,4.36,19.41,3.72,29.3,1.97,2.91-.52,4.33,.68,5.65,2.77,3.24,5.15,5.29,10.78,5.86,16.78,.35,3.68,1.93,3.48,4.42,2.4Zm-31.47,24c-.66,0-1.36-.14-1.98,.03-1.97,.52-5.61-1.33-5.58,1.51,.02,2.36,3,4.62,6.25,4.57,1.47-.02,3.01-.03,4.4-.45,2.16-.66,4.37-2.25,4.05-4.42-.34-2.32-3.04-.86-4.67-1.21-.79-.17-1.65-.03-2.47-.02Z"/><path class="i" d="M77.39,124.18c-11.45,3.91-22.91,6.41-34.53,.6-2.03-1.02-4.24-.5-6.36-.71-.87-7.89-1.75-15.78-2.63-23.66,5.7-.47,6.78-4.67,7.43-9.21,2.43,.55,4.84,.98,7.37,.97,8.58-.03,16.7-2.15,24.69-4.98,.4,1.73,.92,3.44,1.17,5.18,.49,3.42,1.63,6.38,4.95,8.02,.02,7.99-.98,15.9-2.09,23.79Z"/><path class="g" d="M89.2,44.17c-2.49,1.08-4.08,1.27-4.42-2.4-.56-6-2.62-11.63-5.86-16.78-1.32-2.09-2.74-3.29-5.65-2.77-9.89,1.75-19.8,2.39-29.3-1.97-1.57-.72-2.48-.16-3.28,1.12-3.07,4.91-6.29,9.74-7.46,15.55-.31,1.02-.62,2.04-.92,3.05-1.92,.65-.17,6.67-4.84,3.32-.69-6.47-1.15-12.94,.06-19.4,.43-2.28,.82-4.75,2.54-6.42,7.92-7.72,15.64-15.82,28.07-15.45,5.32,.16,10.7-.39,15.96,.19,5.47,.6,10.6,.21,15.74-2.21,1.75,5.52,1.59,10.65-1.75,15.37-.82,1.16-1.26,2.08-.73,3.59,2.9,8.22,2.36,16.72,1.85,25.21Z"/><path class="d" d="M73.37,87.18c-7.99,2.84-16.11,4.95-24.69,4.98-2.53,0-4.94-.42-7.37-.97,.01-.69,.02-1.37,.03-2.06,1.78-1.33,.41-3.53,1.42-5.16,3.23,.05,5.65,2.31,8.6,3.19,6.29,1.87,12.09,.77,17.71-2.32,1.29-.71,2.74-1.1,4.12-1.64,.06,1.32,.11,2.65,.17,3.97Z"/><path class="f" d="M32.3,39.97c.31-1.02,.62-2.04,.92-3.05,3.01,2.75,6.58,1.42,9.81,.99,4.98-.66,9.39-1.17,11.94,4.6,1.19,2.7,4.99,2.59,5.6-.16,.99-4.41,4.06-4.7,7.32-4.71,3.77-.01,7.53,.44,11.3,.7,1.12,.08,1.85,.65,1.97,1.82,.07,.66,.06,1.32,.09,1.99q.5,9.93-9.4,9.96c-2.32,0-4.65-.11-6.96,.03-2.36,.14-3.96-.71-4.32-3.06-.6-3.85-2.75-3.43-5.33-2.17l-.07,.12c-2.59,.69-.71,4.98-3.92,5.02-5.47,.06-10.95,.06-16.41-.21-1.75-.08-1.23-2.02-1.44-3.26-.5-2.85,1.11-5.97-1.09-8.6Zm12.25,.24c-2.48,0-4.14,.11-5.79-.02-4.1-.34-3.46,2.53-3.41,4.95,.05,2.33-.86,5.28,3.3,5.09,3.3-.15,6.61,0,9.92-.03,2.57-.03,3.52-.92,3.52-3.94-.02-6.38-3.64-6.73-7.54-6.05Zm26.83-.01v.02c-1.81,0-3.63,.02-5.44,0-2.65-.04-2.99,1.79-2.68,3.68,.36,2.15-1.66,5.59,2.04,6.12,3.88,.56,7.9,.15,11.86,.13,.85,0,1.53-.32,1.98-1.16,2.3-4.29-.38-8.78-5.28-8.79-.82,0-1.65,0-2.47,0Z"/><path class="e" d="M57.73,68.17c.83,0,1.68-.14,2.47,.02,1.63,.35,4.33-1.11,4.67,1.21,.32,2.17-1.89,3.77-4.05,4.42-1.39,.42-2.93,.43-4.4,.45-3.24,.05-6.22-2.21-6.25-4.57-.03-2.85,3.61-.99,5.58-1.51,.62-.16,1.32-.03,1.98-.03Z"/><path class="d" d="M55.24,46.9c2.22,2.27,.4,4.61,.2,6.95-.26,2.97-2.3,6.91,4.58,6.97-6.17,1.92-7.3,1.02-6.5-3.68,.57-3.37,1.1-6.75,1.64-10.13l.07-.12Z"/><path class="i" d="M44.55,40.2c3.9-.68,7.53-.33,7.54,6.05,0,3.02-.94,3.91-3.52,3.94-3.31,.04-6.62-.12-9.92,.03-4.16,.19-3.25-2.76-3.3-5.09-.05-2.41-.69-5.29,3.41-4.95,1.64,.14,3.31,.02,5.79,.02Zm3,5.14c-.12-1.08,.25-2.73-1.19-2.83-1.95-.12-1.97,1.75-2.09,3.15-.09,1.13-.02,2.63,1.47,2.62,1.74,0,1.67-1.65,1.81-2.94Z"/><path class="i" d="M71.37,40.19c.82,0,1.65,0,2.47,0,4.9,0,7.58,4.5,5.28,8.79-.45,.85-1.13,1.16-1.98,1.16-3.96,.02-7.98,.43-11.86-.13-3.7-.53-1.68-3.97-2.04-6.12-.32-1.89,.02-3.72,2.68-3.68,1.81,.03,3.63,0,5.44,0v-.02Zm-1.93,4.95c-.03-1.15-.05-2.75-1.37-2.73-1.91,.03-1.82,1.92-1.89,3.32-.06,1.12,0,2.64,1.54,2.48,1.61-.16,1.59-1.78,1.72-3.08Z"/><path class="g" d="M47.55,45.35c-.14,1.28-.07,2.93-1.81,2.94-1.49,0-1.56-1.48-1.47-2.62,.12-1.39,.14-3.27,2.09-3.15,1.44,.09,1.07,1.74,1.19,2.83Z"/><path class="g" d="M69.45,45.14c-.14,1.29-.12,2.92-1.73,3.07-1.54,.15-1.6-1.37-1.54-2.48,.07-1.4-.02-3.3,1.89-3.32,1.32-.02,1.34,1.58,1.38,2.74Z"/></g></g></g></svg>