<?xml version="1.0" encoding="UTF-8"?><svg xmlns="http://www.w3.org/2000/svg" viewBox="0 0 98.85 123.78"><defs><style>.d{fill:#8d3f3f;}.e{fill:#de8861;}.f{fill:#fcded3;}.g{fill:#976ca2;}.h{fill:#fefefd;}.i{fill:#f2a583;}</style></defs><g id="a"/><g id="b"><g id="c"><g><path class="g" d="M.07,105.64c-.69-5.15,4.02-7.24,6.13-10.8,5.64,.11,10.67-2.96,16.26-3.13,.54,2.59,.95,5.21,1.65,7.76,3.25,11.81,9.88,15.58,21.6,12.06,2.47-.74,4.48-.15,6.7,.49,8.42,2.4,14.17,.16,18.11-6.91,2.31-4.15,2.97-8.74,3.64-13.33,6.17-.07,11.89,1.66,17.37,4.33,4.19,1.33,6.2,4.52,7.24,8.52,.53,2.68-1.81,3.34-3.29,4.45-27.78,20.84-67.18,19.4-95.42-3.42Z"/><path class="d" d="M91.53,96.1c-5.48-2.67-11.2-4.4-17.37-4.33-.6-.48-1.2-.96-1.8-1.44-7.97-.55-11.76-5.18-12.52-12.8-.06-.64-.37-1.25-.56-1.88-.03-1.04-.06-2.08-.09-3.13,2.72-2.15,5.47-4.31,7.08-7.46,1.97-3.85,4.38-6.88,8.52-8.93,4.12-2.04,6.08-8.43,4.87-12.01-1.73-5.12-5.66-3.83-9.35-3.32-.14-2.57-.54-4.99-3.34-6.11-.48-3.1-.99-6.2-1.42-9.31-.57-4.08-3.21-6.19-6.97-6.63-4.95-.58-9.84-1.27-14.57-2.88-1.14-.39-2.52-.82-2.97,.65-1.8,5.95-6.25,9.5-10.96,13.02-1.44,1.08-2.45,3.11-2.29,5.27-.48,1.94-.97,3.88-1.45,5.82-5.36-.81-8.41,2.14-7.28,7.27,.97,4.39,3.06,8.05,7.56,9.82,.89,.35,2.14,.82,2.4,1.53,2.11,5.82,6.63,9.8,10.57,14.23-.55,1.69-1.4,3.32-1.09,5.2-1.13,6.97-4.85,11.23-12.23,11.63-1.28,.44-2.81,.23-3.82,1.4-5.59,.16-10.62,3.24-16.26,3.13-3.9-2.68-4.06-6.67-3.47-10.72,.72-4.99,2.63-9.64,5.3-13.89,5.46-8.72,6.38-17.91,3.77-27.75C7.51,26.3,15.86,10.52,31.57,4.92c4.52-1.61,9.1-3.13,13.75-4.32,13.61-3.47,35.5,8.56,37.63,23.23,1.03,7.09,4.52,13.61,9.63,18.86,4.12,4.23,4.33,8.71,1.92,13.68-.65,1.34-1.31,2.74-2.24,3.88-4.89,5.95-4.6,12.26-1.17,18.61,3.11,5.76,2.93,11.43,.44,17.24Z"/><path class="h" d="M72.36,90.33c.6,.48,1.2,.96,1.8,1.44-.67,4.59-1.32,9.18-3.64,13.33-3.94,7.07-9.69,9.32-18.11,6.91-2.22-.63-4.23-1.23-6.7-.49-11.72,3.52-18.35-.24-21.6-12.06-.7-2.54-1.11-5.17-1.65-7.76,1.01-1.17,2.54-.96,3.82-1.4,.59,.54,1.47,.97,1.72,1.64,3.37,9,10.27,13.18,19.43,13.79,9.69,.64,17.05-3.37,21.53-12.17,.76-1.5,1.42-3.04,3.4-3.23Z"/><path class="i" d="M39.6,73.48c-3.94-4.42-8.46-8.41-10.57-14.23-.26-.71-1.52-1.19-2.4-1.53-4.5-1.77-6.6-5.43-7.56-9.82-1.13-5.14,1.91-8.08,7.28-7.27,.35,6.42,.74,6.78,7.35,6.88,1.98,.03,4-.05,5.94,.28,3.18,.54,5.26-.33,6.65-3.44,1.34-3,3.87-2.65,4.89-.07,1.14,2.87,3.01,3.17,5.4,3.21,2.32,.04,4.64,.01,6.96,0,6.43-.02,6.66-.25,6.79-6.69,3.69-.51,7.62-1.8,9.35,3.32,1.21,3.58-.75,9.97-4.87,12.01-4.14,2.05-6.56,5.08-8.52,8.93-1.61,3.15-4.36,5.32-7.08,7.46-6.41,2.69-12.96,2.72-19.59,.96Z"/><path class="i" d="M72.36,90.33c-1.98,.19-2.63,1.74-3.4,3.23-4.49,8.8-11.84,12.81-21.53,12.17-9.16-.6-16.06-4.78-19.43-13.79-.25-.67-1.13-1.1-1.72-1.64,7.39-.4,11.1-4.66,12.23-11.63,7.03-.3,14.3,1.12,20.77-3.03,.19,.63,.49,1.24,.56,1.88,.76,7.62,4.55,12.24,12.52,12.8Z"/><path class="i" d="M27.8,34.81c-.15-2.16,.85-4.19,2.29-5.27,4.71-3.51,9.15-7.07,10.96-13.02,.45-1.48,1.83-1.04,2.97-.65,4.73,1.61,9.62,2.3,14.57,2.88,3.77,.44,6.4,2.55,6.97,6.63,.43,3.11,.94,6.2,1.42,9.31-1.32,.01-2.65,0-3.97,.03-4.93,.11-10.48-1.57-12.98,5.14-.44,1.19-3.2,1.44-3.5-.46-.83-5.41-4.7-4.64-8.29-4.65-3.48,0-6.96,.03-10.44,.05Z"/><path class="f" d="M27.8,34.81c3.48-.02,6.96-.06,10.44-.05,3.6,0,7.46-.76,8.29,4.65,.29,1.91,3.06,1.65,3.5,.46,2.5-6.72,8.04-5.03,12.98-5.14,1.32-.03,2.65-.02,3.97-.03,2.8,1.11,3.2,3.54,3.34,6.11-.12,6.44-.35,6.67-6.78,6.69-2.32,0-4.64,.03-6.96,0-2.39-.04-4.26-.34-5.4-3.21-1.03-2.59-3.55-2.94-4.89,.07-1.39,3.11-3.46,3.98-6.65,3.44-1.94-.33-3.95-.24-5.94-.28-6.61-.1-7-.46-7.35-6.88,.48-1.94,.97-3.88,1.45-5.82Zm32.89,1.86c-1.16,0-2.32,.06-3.47-.01-3.6-.24-3.87,2.02-3.93,4.8-.06,2.98,1.14,4.28,4.1,4.14,2.94-.15,5.77-1.42,8.81-.62,1.51,.4,1.84-.87,2.09-2.1,1.02-4.98-.5-6.24-7.6-6.21Zm-26.59,8.79c2.26,.64,4.44-.81,6.74-.67,4.08,.25,3.6-2.55,3.42-4.97-.21-2.94-2.33-3.39-4.67-2.81-1.68,.42-3.19,.31-4.85-.08-2.82-.65-5.35-.57-5.52,3.45-.15,3.47,.27,6.1,4.88,5.08Z"/><path class="e" d="M59.28,75.65c-6.47,4.15-13.74,2.73-20.77,3.03-.31-1.87,.54-3.5,1.09-5.2,6.63,1.77,13.18,1.73,19.59-.96,.03,1.04,.06,2.08,.09,3.13Z"/><path class="i" d="M60.69,36.67c7.09-.03,8.62,1.23,7.6,6.21-.25,1.23-.58,2.5-2.09,2.1-3.05-.8-5.88,.47-8.81,.62-2.95,.15-4.16-1.16-4.1-4.14,.06-2.78,.33-5.04,3.93-4.8,1.15,.08,2.31,.01,3.47,.01Z"/><path class="i" d="M34.1,45.45c-4.61,1.02-5.03-1.6-4.88-5.08,.17-4.03,2.7-4.11,5.52-3.45,1.67,.39,3.17,.5,4.85,.08,2.34-.58,4.46-.13,4.67,2.81,.17,2.43,.66,5.22-3.42,4.97-2.3-.14-4.48,1.31-6.74,.67Z"/></g></g></g></svg>