<?xml version="1.0" encoding="UTF-8"?><svg xmlns="http://www.w3.org/2000/svg" viewBox="0 0 98.88 133.52"><defs><style>.d{fill:#f70c67;}.e{fill:#8d3f3f;}.f{fill:#994346;}.g{fill:#3d2744;}</style></defs><g id="a"/><g id="b"><g id="c"><g><path class="f" d="M59.94,88.86c1.12,8.05,6.46,10.95,13.86,12.21,6.45,1.1,13.02,2.33,18.7,6.03-1.72-.04-2.96,.85-4.43,1.72-7.3,4.36-13.66,10-20.51,14.97-3.11,2.26-6.25,4.88-7.66,8.8-6.38,1.31-12.78,1.05-19.19,.34-5.65-8.34-14.29-13.42-21.86-19.6-3.58-2.92-7.42-5.98-12.38-6.57,6.04-3.27,12.67-4.84,19.32-5.89,7.18-1.14,11.88-4.25,12.93-11.75,4.77-.32,9.76,1.08,14.27-.81,2.74-1.15,4.75-1.15,6.96,.55Z"/><path class="d" d="M6.46,106.77c4.97,.59,8.81,3.65,12.38,6.57,7.58,6.18,16.21,11.25,21.86,19.6-15.33-1.95-29.34-6.89-40.71-17.86,1.12-3.57,2.13-7.23,6.46-8.31Z"/><path class="d" d="M59.9,132.59c1.41-3.92,4.55-6.54,7.66-8.8,6.85-4.96,13.2-10.6,20.51-14.97,1.46-.87,2.7-1.76,4.43-1.72,4.57,.73,5.31,4.52,6.39,8.03-10.99,10.28-24.2,15.62-38.98,17.46Z"/><path class="g" d="M38.65,85.5c-1.62-.5-3.29-.79-4.91-.21-4.02,1.44-6.53-.18-10.34-2.15-5.47-2.82-8.79-5.73-11.37-11.12-.98-2.05-2.52-3.41-1.7-5.89,.46-1.42,1.14-3.33,.01-4.3-4.05-3.48-2.94-7.28-1.3-11.3,.58-1.43,.27-2.87-.18-4.37-.74-2.46-.55-4.97,.85-7.21,1.85-2.97,1.15-6.5,1.99-9.48,1.75-6.21,2.13-12.66,8.11-17.97,4.96-4.39,12.17-4.34,15.77-10.09,5.18,1.07,10.14-2.64,15.16-1,2.63,.86,4.85,1.87,7.55,.58,1.22-.58,2.3-.06,3.63,.57,6.31,3,12.72,5.81,19.25,8.28,2.2,.83,3.64,1.69,3.44,4.04-.29,3.24,.7,5.52,3.94,6.58,.44,.14,1.14,.71,1.08,.92-1.29,5.16,3.2,9.37,2.36,14.4-.31,1.88-.66,3.59,1.05,5.02,.47,.39,1.11,1.34,.95,1.6-2.39,3.97,.02,8.29-1.03,12.67-1.22,5.06-1.86,9.72-4.47,14.64-1.85,3.49-1.88,7.26-6.7,8.04-1.34,.22-2.33,1.27-2.88,2.56-.91,2.14-2.61,2.86-4.8,2.85-.82,0-2.09-.11-2.4,.34-3.17,4.66-7.1,4.28-11.42,1.98-1.02-.47-1.48-1.32-1.59-2.4,2.59-2.95,6.48-4.62,8.17-8.48,1.52-3.49,3.61-6.24,7.44-7.92,3.91-1.72,5.35-5.88,5.91-9.86,.38-2.73-1.22-6.42-3.78-6.04-5.99,.88-6.82-3.34-8.35-6.89-1.6-3.72-2.99-7.23-7.79-7.69-1.42-.14-1.83-1.76-2.38-2.98-.87-1.93-12.01-6.72-13.89-6-.44,.17-.95,.45-1.19,.82-2.45,3.8-9.18,4.05-8.64,10.39,.04,.46-.78,1.02-1.26,1.48-2.29,2.18-4.46,4.26-4.45,7.91,0,2.01-1.78,2.46-3.92,2.7-5.03,.55-7.25,5.56-4.76,10.07,.8,1.44,1.64,3.18,2.95,3.94,5.21,3.02,8.24,7.83,11.2,12.75,1.23,2.04,3.12,3.39,4.93,4.83-.08,1.13-.17,2.25-.25,3.38Z"/><path class="e" d="M58.72,83.1c.11,1.08,.57,1.93,1.59,2.4-.12,1.12-.25,2.24-.37,3.36-2.2-1.7-4.22-1.7-6.95-.55-4.51,1.89-9.5,.49-14.27,.81-.02-1.21-.04-2.41-.06-3.62,.08-1.13,.17-2.25,.25-3.38,6.45,3.41,13.08,3.27,19.81,.98Z"/><path class="f" d="M58.72,83.1c-6.73,2.3-13.36,2.43-19.81-.98-1.81-1.44-3.7-2.79-4.93-4.83-2.96-4.92-5.99-9.73-11.2-12.75-1.31-.76-2.15-2.5-2.95-3.94-2.5-4.51-.28-9.52,4.76-10.07,2.14-.24,3.93-.69,3.92-2.7-.01-3.66,2.17-5.73,4.45-7.91,.48-.46,1.3-1.02,1.26-1.48-.53-6.34,6.19-6.59,8.64-10.39,.24-.38,.75-.65,1.19-.82,1.89-.73,13.02,4.07,13.89,6,.55,1.22,.96,2.85,2.38,2.98,4.8,.46,6.19,3.98,7.79,7.69,1.52,3.55,2.36,7.78,8.35,6.89,2.56-.38,4.17,3.31,3.78,6.04-.56,3.99-2,8.15-5.91,9.86-3.83,1.68-5.92,4.43-7.44,7.92-1.69,3.87-5.58,5.53-8.17,8.48Zm-18.08-31.85c0-1.2-.26-2.46-1.6-2.58-1.7-.15-2.07,1.22-2.06,2.61,0,1.21,.39,2.37,1.82,2.35,1.42-.02,1.75-1.17,1.84-2.38Zm19.91-.16c-.01-1.1-.24-2.31-1.64-2.45-1.45-.15-1.93,1.03-1.99,2.26-.05,1.09-.4,2.58,1.12,2.85,1.73,.3,1.92-1.38,2.51-2.65Z"/><path class="g" d="M40.63,51.25c-.09,1.21-.43,2.36-1.84,2.38-1.44,.02-1.81-1.14-1.82-2.35-.01-1.39,.36-2.76,2.06-2.61,1.34,.12,1.61,1.37,1.6,2.58Z"/><path class="g" d="M60.54,51.09c-.6,1.28-.78,2.95-2.51,2.65-1.52-.26-1.17-1.76-1.12-2.85,.06-1.23,.54-2.41,1.99-2.26,1.41,.14,1.63,1.35,1.64,2.45Z"/></g></g></g></svg>