<?xml version="1.0" encoding="UTF-8"?><svg xmlns="http://www.w3.org/2000/svg" viewBox="0 0 122.07 141.7"><defs><style>.d{fill:#348dba;}.e{fill:#de8861;}.f{fill:#3d2744;}.g{fill:#266a8b;}.h{fill:#e16e2a;}.i{fill:#f2a583;}</style></defs><g id="a"/><g id="b"><g id="c"><g><path class="d" d="M87.64,99.91c9.32,1.66,17.82,5.83,26.69,8.85,2.65,.9,5.17,2.18,7.75,3.28-22.8,31.33-70.11,39.16-103.41,17.12-7.13-4.72-13.34-10.43-18.66-17.1,2.55-3.23,6.58-3.5,10.04-4.77,7.44-2.74,14.71-6.08,22.63-7.35,2.17-.24,3.79,.56,5.13,2.32,2.4,3.14,4.98,6.13,7.42,9.24,2.24,2.84,4.14,2.89,5.94-.42,1.32-2.43,2.78-4.8,4.17-7.19,1.13,3.23,2.73,6.3,3.02,9.8,.08,.95,.14,2.16,1.5,2.15,1.21,0,1.69-1.14,1.89-2.03,.63-2.71,.47-5.65,2.54-7.89,2.27,.15,2.79,2.05,3.7,3.61q3.11,5.35,7.26,.96c2.06-2.16,4.12-4.28,5.88-6.74,1.51-2.11,3.31-4.3,6.5-3.83Z"/><path class="i" d="M64.29,105.9c-2.07,2.24-1.9,5.19-2.54,7.89-.21,.89-.69,2.03-1.89,2.03-1.36,0-1.42-1.21-1.5-2.15-.29-3.5-1.89-6.57-3.02-9.8-3.1-5.37-8.13-9.05-11.98-13.77,1.62-6.29,1-11.93-4.06-16.71-1.47-1.39-2.24-3.67-2.97-5.67-1.3-3.61-2.86-6.6-6.44-8.85-4.06-2.55-6.11-6.86-5.7-11.98,.12-1.57,.34-3.23,1.77-3.88,3.2-1.46,3.33-4.17,3.37-7.02,.26,.59,.56,1.17,.77,1.78,.47,1.4-.77,3.9,1.71,3.95,2.01,.04,1.93-2.28,2.42-3.81,1.87-5.86,4.72-11.24,7.61-16.66,2.01-3.77,4.19-3.83,7.53-2.76,8.02,2.58,16.26,3.25,24.41,1.06,3.81-1.03,5.62,.63,7.36,3.24,3.28,4.91,4.86,10.46,6.08,16.15,.26,1.22-.56,3.08,1,3.54,1.88,.54,2.82-1.23,3.78-2.57,.2,3.19,4.06,4.16,4.3,7.54,.43,5.88-1.84,10.6-7.3,13.4-1.21,.62-2.39,1.02-2.95,2.39-2.36,5.83-5.31,11.21-9.23,16.25-2.14,2.75-.33,7.07-.46,10.68-3.29,3.56-6.55,7.15-9.88,10.67-1.37,1.45-2.74,2.81-2.17,5.06Zm-3.34-45.86c-13.78,.06-15.64,1.95-14.71,15.02,.69,9.79,6.62,14.45,16.32,12.56,2.67-.52,5.47-.83,7.53-3.32,4.68-5.68,4.88-12.21,3.6-18.83-.67-3.46-3.24-5.71-7.26-5.45-1.82,.11-3.65,.02-5.47,.02Zm.38-3.53c-3.64-.44-3.95-2.06-3.56-5.5,.41-3.68,3.06-7.03,2.12-12.02-2.64,4.71-2.49,9.01-3.78,12.87-1.74,5.19,.62,5.77,5.23,4.65Zm10.62-13.45c-.22-1.18,.14-2.99-1.76-2.79-1.57,.16-1.64,1.86-1.7,3.11-.06,1.24-.14,2.95,1.76,2.77,1.67-.16,1.49-1.84,1.7-3.09Zm-21.91,.15c-.24-1.19,.24-3.07-1.64-2.96-1.61,.09-1.66,1.87-1.72,3.15-.05,1.09-.17,2.63,1.42,2.69,1.9,.08,1.61-1.69,1.94-2.89Z"/><path class="h" d="M91.99,39.91c-.95,1.34-1.9,3.11-3.78,2.57-1.56-.45-.74-2.31-1-3.54-1.22-5.69-2.8-11.25-6.08-16.15-1.74-2.61-3.55-4.27-7.36-3.24-8.15,2.19-16.38,1.52-24.41-1.06-3.34-1.07-5.52-1.02-7.53,2.76-2.89,5.42-5.75,10.8-7.61,16.66-.49,1.53-.41,3.85-2.42,3.81-2.48-.05-1.23-2.55-1.71-3.95-.21-.61-.51-1.18-.77-1.78-.21-4.81-.31-9.6,.57-14.4,.81-4.37,2.83-7.72,6.67-9.96,.71-.42,1.58-.75,2.06-1.36C48.49-2.48,61.74-.96,74.91,2.21c9.26,2.23,9.11,2.84,17.23-.57,1.01,1.18,.15,2.42-.44,3.07-3.98,4.37-3.74,8.78-1.51,14.02,2.85,6.72,2.04,14.03,1.8,21.17Z"/><path class="g" d="M64.29,105.9c-.57-2.25,.81-3.61,2.17-5.06,3.33-3.52,6.59-7.11,9.88-10.67,4.36,2.55,6.49,7.69,11.29,9.74-3.19-.48-4.98,1.71-6.5,3.83-1.76,2.45-3.82,4.58-5.88,6.74q-4.16,4.36-7.26-.96c-.91-1.56-1.43-3.47-3.7-3.61Z"/><path class="g" d="M43.36,90.1c3.84,4.72,8.88,8.4,11.98,13.77-1.4,2.4-2.85,4.76-4.17,7.19-1.8,3.31-3.71,3.27-5.94,.42-2.44-3.11-5.03-6.1-7.42-9.24-1.34-1.76-2.96-2.56-5.13-2.32,4.08-2.71,7.05-6.63,10.69-9.83Z"/><path class="h" d="M60.96,60.04c1.83,0,3.66,.09,5.47-.02,4.02-.25,6.59,1.99,7.26,5.45,1.28,6.62,1.08,13.14-3.6,18.83-2.05,2.49-4.86,2.8-7.53,3.32-9.7,1.89-15.63-2.77-16.32-12.56-.93-13.07,.93-14.96,14.71-15.02Zm-.16,3.98v.12c-1.65,0-3.32-.16-4.94,.04-2.25,.28-3.56,1.72-3.55,4.02,0,2.53,1.91,2.78,3.81,2.81,3.12,.05,6.26,.35,9.33-.62,1.48-.46,3.01-.8,2.68-2.82-.27-1.69-.89-3.3-2.88-3.52-1.47-.17-2.96-.03-4.45-.03Z"/><path class="e" d="M61.33,56.51c-4.6,1.12-6.96,.54-5.23-4.65,1.29-3.86,1.14-8.16,3.78-12.87,.94,4.98-1.71,8.33-2.12,12.02-.38,3.44-.08,5.06,3.56,5.5Z"/><path class="f" d="M71.95,43.06c-.21,1.26-.03,2.93-1.7,3.09-1.9,.18-1.82-1.53-1.76-2.77,.06-1.25,.13-2.95,1.7-3.11,1.9-.19,1.54,1.61,1.76,2.79Z"/><path class="f" d="M50.04,43.21c-.33,1.2-.04,2.97-1.94,2.89-1.59-.07-1.46-1.6-1.42-2.69,.06-1.28,.1-3.06,1.72-3.15,1.88-.11,1.39,1.77,1.64,2.96Z"/><path class="i" d="M60.8,64.01c1.48,0,2.98-.13,4.45,.03,2,.22,2.61,1.83,2.88,3.52,.32,2.02-1.2,2.36-2.68,2.82-3.07,.96-6.21,.67-9.33,.62-1.9-.03-3.81-.28-3.81-2.81,0-2.31,1.3-3.74,3.55-4.02,1.62-.2,3.29-.04,4.94-.04v-.12Z"/></g></g></g></svg>