<?xml version="1.0" encoding="UTF-8"?><svg xmlns="http://www.w3.org/2000/svg" viewBox="0 0 118.36 142.88"><defs><style>.d{fill:#8d3f3f;}.e{fill:#de8861;}.f{fill:#976ca2;}.g{fill:#f2a583;}</style></defs><g id="a"/><g id="b"><g id="c"><g><path class="f" d="M0,115.55c4.42-3.62,10.03-4.47,15.13-6.52,1.67-.67,3.42-1.16,5.13-1.74,2.62,.61,2.72,3.24,3.59,4.99,2.95,5.96,7.03,10.66,12.71,14.14,7.7,4.72,16.07,5.67,24.82,5.16,14.36-.83,24.99-7.57,32.18-19.95,.87-1.49,.31-3.85,2.66-4.45,7.51,2.43,15.03,4.85,22.14,8.35-28.07,34.76-82.99,36.68-114.59,4.01-1.27-1.32-2.51-2.66-3.77-3.99Z"/><path class="g" d="M89.8,46.44c6.72,3.77,6.04,13.89-1.58,17.89-2.98,1.56-4.26,3.49-5.32,6.4-1.47,4.03-3.67,7.82-6.55,11.03-1.58,1.76-2.28,3.55-2.22,5.78-.99-1.54-2.12-1.45-3.68-.69-8.35,4.08-16.7,4.09-24.86-.55-1.28-.73-2.13-.41-3.12,.25-.02-1.93-1.02-3.39-2.08-4.92-2.66-3.81-5.22-7.68-6.72-12.14-.87-2.57-2.35-4.44-4.9-5.9-3.74-2.15-5.77-5.96-6.38-10.18-.6-4.19,1.25-7.08,5.69-7.87,2.01,1.17,3.08,.96,3.73-1.65,1.58-6.32,4.6-12.07,7.73-17.75,1.51-2.74,3.31-3.55,6.5-2.72,8.29,2.17,16.69,2.82,24.95-.29,1.95-.74,3.05-.11,4.23,1.37,4.59,5.78,8.44,11.97,9.98,19.26,.63,2.99,1.83,3.91,4.61,2.68Zm-15.54,4.06c3.06-.8,2.11-3.34,1.93-5.18-.18-1.88-2.01-2.71-3.75-2.59-4.55,.3-9.28-1.3-13.62,1.41-1.27,.79-2.83,.74-4.27-.1-4.49-2.64-9.38-1.09-14.1-1.19-1.14-.03-2.32,.79-2.6,2.03-.88,3.83,.48,6.88,3.72,8.97,3.32,2.13,7.55,1.48,9.64-1.28l.06-.05c2.92,.49,2.81-2.05,3.53-3.65,.47-1.06,.52-2.28,2.16-2.16,1.43,.11,1.91,.94,2.22,2.2,.23,.94,.65,1.91,1.22,2.69,2.3,3.13,5.46,4.22,9.17,3.24,2.18-.58,5.21-.55,4.65-4.26l.05-.06Zm-10.65,18.65c-2.46,2.45-6.1,1.83-9.43,3.57,5.69,1.19,6.58,.88,9.43-3.57Z"/><path class="g" d="M96.22,107.19c-2.34,.6-1.79,2.96-2.66,4.45-7.19,12.38-17.82,19.12-32.18,19.95-8.75,.5-17.13-.44-24.82-5.16-5.68-3.49-9.77-8.19-12.71-14.14-.86-1.74-.97-4.38-3.59-4.99,4.05-1.42,8-3.27,12.16-4.17,6.03-1.31,9.75-4.16,9.57-10.75,1.25,1.51,2.99,1.08,4.61,1.18,9.48,.6,18.71-.52,27.59-4.05-.1,9.27,5.15,13.31,13.73,14.58,2.86,.42,5.54,2.04,8.31,3.11Z"/><path class="d" d="M89.8,46.44c-2.77,1.22-3.98,.31-4.61-2.68-1.54-7.3-5.39-13.48-9.98-19.26-1.17-1.48-2.27-2.11-4.23-1.37-8.26,3.11-16.66,2.45-24.95,.29-3.19-.83-4.99-.02-6.5,2.72-3.13,5.68-6.15,11.43-7.73,17.75-.66,2.62-1.73,2.82-3.73,1.65-.16-1.36-.33-2.72-.49-4.08,.08-.09,.23-.21,.21-.27-.07-.21-.21-.39-.32-.59-.21-4.99-.37-9.98,.68-14.92,.72-3.36,2.07-6.3,4.79-8.52,.76-.62,1.7-1.24,2.08-2.08C39.54,4.98,48.32,2.22,58.26,1.66c9.97-.57,20,.01,29.9-1.59,2.13-.35,2.18,.69,2.36,2.07,.51,3.98-1.16,7.14-3.78,9.9-1.19,1.26-2.13,2.22-.98,4.25,5.36,9.48,5.03,19.79,4.05,30.16Z"/><path class="e" d="M74.18,89.5c-8.88,3.53-18.1,4.65-27.59,4.05-1.62-.1-3.36,.33-4.61-1.18,.16-1.94,.31-3.88,.47-5.82,.99-.66,1.84-.98,3.12-.25,8.16,4.63,16.51,4.62,24.86,.55,1.56-.76,2.7-.85,3.68,.69,.02,.66,.04,1.31,.06,1.97Z"/><path class="g" d="M27.47,40.6c.11,.19,.25,.38,.32,.59,.02,.06-.14,.18-.21,.27-.29-.26-.32-.55-.11-.86Z"/><path class="d" d="M51.2,52.56c-2.08,2.76-6.32,3.41-9.64,1.28-3.25-2.09-4.61-5.14-3.72-8.97,.29-1.24,1.46-2.05,2.6-2.03,4.72,.1,9.61-1.45,14.1,1.19,1.44,.85,3.01,.9,4.27,.1,4.35-2.72,9.08-1.11,13.62-1.41,1.73-.11,3.57,.71,3.75,2.59,.18,1.84,1.13,4.38-1.93,5.18-.05-.49-.13-.98-.13-1.46,0-1.59,1.8-3.75-1.33-4.35-3.14-.6-2.35,1.82-2.63,3.46-.2,1.16-.53,2.52-2.03,2.33-1.41-.17-1.53-1.45-1.54-2.7-.01-1.09,1.41-2.83-.98-3.05-1.59-.14-3.5-.76-4.67,.79-1.02,1.35-.26,2.87,.47,4.21,2.39,4.39,7.14,4.69,12.8,.82,.57,3.71-2.46,3.68-4.65,4.26-3.71,.99-6.87-.11-9.17-3.24-.57-.78-.99-1.74-1.22-2.69-.3-1.26-.78-2.1-2.22-2.2-1.64-.12-1.69,1.1-2.16,2.16-.72,1.6-.61,4.14-3.53,3.65,.18-.45,.35-.9,.55-1.35,.98-2.15,3.08-4.83-.09-6.3-3.54-1.65-3.23,1.68-3.62,3.85-.16,.9-.62,2.04-1.96,1.68-1.21-.32-1.12-1.48-1.26-2.44-.19-1.29,.92-3.25-1.64-3.3-1.27-.03-2.86-.57-3.6,.89-.71,1.41-.23,2.92,.56,4.25,2.74,4.57,6.87,3.64,10.99,2.76Z"/><path class="e" d="M63.61,69.15c-2.85,4.44-3.75,4.76-9.43,3.57,3.33-1.74,6.97-1.12,9.43-3.57Z"/><path class="g" d="M51.2,52.56c-4.12,.88-8.25,1.81-10.99-2.76-.8-1.33-1.28-2.84-.56-4.25,.74-1.46,2.33-.92,3.6-.89,2.56,.05,1.46,2.01,1.64,3.3,.14,.96,.05,2.11,1.26,2.44,1.34,.36,1.8-.78,1.96-1.68,.39-2.18,.08-5.5,3.62-3.85,3.17,1.48,1.07,4.15,.09,6.3-.2,.44-.37,.9-.55,1.35l-.06,.05Z"/><path class="g" d="M74.21,50.56c-5.65,3.87-10.4,3.57-12.8-.82-.73-1.34-1.49-2.86-.47-4.21,1.17-1.55,3.08-.93,4.67-.79,2.39,.21,.97,1.95,.98,3.05,.01,1.25,.14,2.53,1.54,2.7,1.49,.18,1.83-1.18,2.03-2.33,.28-1.64-.51-4.06,2.63-3.46,3.13,.6,1.33,2.76,1.33,4.35,0,.49,.08,.98,.13,1.46l-.05,.06Z"/></g></g></g></svg>