<?xml version="1.0" encoding="UTF-8"?><svg xmlns="http://www.w3.org/2000/svg" viewBox="0 0 118.54 138.3"><defs><style>.d{fill:#594a62;}.e{fill:#de8861;}.f{fill:#dadde9;}.g{fill:#3d2744;}.h{fill:#976ca2;}.i{fill:#f2a583;}</style></defs><g id="a"/><g id="b"><g id="c"><g><path class="f" d="M63.66,138.23l-10.98-.11c-5.87-9.3-11.75-18.6-17.62-27.9,8.81-.75,17.52,1.27,26.31,.92,6.56-.26,13.07-1.58,19.67-.93-5.8,9.34-11.59,18.68-17.39,28.02Z"/><path class="h" d="M88.78,100.29c10.18,2.64,19.8,6.91,29.76,10.2-4.13,6.86-10.47,11.37-16.94,15.63-8.49,5.59-17.67,9.61-27.89,10.83,.47-2.96,2.94-4.23,5.02-5.76,3.58-2.62,7.32-5.03,10.9-7.65,2.73-2,4.48-4,3.37-8.2-1.34-5.03-4.21-9.66-4.2-15.05Z"/><path class="h" d="M0,110.23c7.4-2.65,14.78-5.32,22.2-7.92,1.51-.53,2.99-1.46,4.73-.98-.07,1.97,.02,3.91-.54,5.88-3.72,12.98-3.58,12.85,7.1,20.83,3.6,2.69,8.26,4.24,10.45,8.66-12.84-1.67-23.74-7.62-33.62-15.59-3.89-3.13-8.17-6.04-10.31-10.89Z"/><path class="d" d="M88.78,100.29c0,5.39,2.87,10.02,4.2,15.05,1.12,4.2-.64,6.2-3.37,8.2-3.58,2.62-7.32,5.03-10.9,7.65-2.08,1.52-4.55,2.8-5.02,5.76-3.31,.75-6.6,1.6-10.04,1.28,5.8-9.34,11.59-18.68,17.39-28.02,1.98-3.24,4.55-6.14,5.81-9.81,.64-.04,1.28-.08,1.92-.11Z"/><path class="d" d="M43.93,136.71c-2.19-4.43-6.84-5.97-10.45-8.66-10.68-7.98-10.82-7.85-7.1-20.83,.56-1.97,.47-3.91,.54-5.88,.33-.14,.66-.28,1-.42,3.57,2.18,4.55,6.36,7.14,9.3,5.87,9.3,11.75,18.6,17.62,27.9-3.01,.08-5.9-.57-8.75-1.41Z"/><path class="i" d="M42.95,81.23c-.16-2.69-2.95-3.24-4.14-5.09-1.66-4.01-3.56-7.94-4.9-12.05-.87-2.66-2.27-4.18-4.97-4.56-1.94-2.19-4.18-4.16-5.18-7.02-1.34-3.87-2.27-7.76,2.19-10.34,1.73-1,1.78-2.6,2.17-4.16,.81,1.45,.26,4.2,2.86,3.91,1.66-.18,1.4-2.36,1.76-3.66,1.86-6.62,4.98-12.63,8.59-18.43,.95-1.53,1.67-3.03,4.23-2.04,10.03,3.88,20.58,5.1,31.25,5.11,2.76,0,4.25,1.06,5.32,3.45,1.99,4.43,3.14,9.07,4.09,13.8,.19,.95-.26,3.26,1.96,2.35,2.44-1,4.01,1.19,6.11,1.16,1.24,5.18,.78,10.08-2.35,14.55-2.39,2.09-6.47,2.16-7.62,5.55-1.93,5.72-5.14,10.64-8.52,15.5l.08-.07q-1.65,.11-1.03,1.17c-.06,.95-.12,1.89-.18,2.84-1.97-3.16-4.1,.64-6.12-.14,1.29-3.92,2.86-7.76,2.99-11.97,.19-6.27-5.42-11.02-11.55-9.76-1.12,.23-2.25,.6-3.38,.63-9.24,.25-11.31,2.19-11.48,11.32-.04,2.3,.45,4.61,.69,6.92-.95,.34-1.9,.68-2.85,1.03Zm28.33-30.97c2,0,4-.1,6,.02,3.54,.22,5.05-1.54,4.5-4.83-.52-3.08,2.36-7.68-3.96-8.44-3.12-.38-6.29,.87-9.27-.47-3.82-1.71-6.6,.38-7.45,3.36-.88,3.09-3.21,1.55-4.65,2.49-1.2,.79-1.52-1.22-1.63-2.32-.31-3-2.65-3.15-4.78-3.27-1.97-.12-3.98,.41-5.95,.3-11.51-.67-9.06,.26-9.4,9.54-.09,2.47,.82,3.7,3.46,3.64,4.5-.1,8.99-.05,13.49-.01,1.97,.01,3.39-.68,3.13-2.85-.33-2.8,1.42-2.57,3.31-2.88,2.62-.43,2.69,1.05,2.81,2.85,.14,2.06,1.49,2.84,3.39,2.85,2.33,.02,4.66,0,7,.02Z"/><path class="g" d="M94.28,43.66c-2.1,.04-3.67-2.16-6.11-1.16-2.21,.91-1.76-1.4-1.96-2.35-.95-4.73-2.1-9.37-4.09-13.8-1.08-2.39-2.57-3.45-5.32-3.45-10.68-.01-21.22-1.23-31.25-5.11-2.56-.99-3.28,.51-4.23,2.04-3.61,5.79-6.73,11.81-8.59,18.43-.37,1.31-.1,3.48-1.76,3.66-2.6,.28-2.05-2.47-2.86-3.91-.14-4.98-.53-9.95,.23-14.92,.79-5.2,2.75-9.55,7.79-11.95,.58-.28,1.27-.58,1.62-1.07C46.62-2.44,59.4-.68,71.62,1.68c11.65,2.25,17.48,11.15,20.47,22.13,1.32,4.85,1.75,9.79,2.18,14.74-.51,1.34-.57,2.68,.05,4.01-.01,.37-.03,.73-.04,1.1Z"/><path class="i" d="M35.06,110.22c-2.59-2.94-3.57-7.12-7.14-9.3,1.47-.67,2.88-1.68,4.42-1.95,6.23-1.07,9.82-4.46,10.26-10.91,1.24,1.53,2.99,1.05,4.59,1.13,9.43,.5,18.69-.13,27.45-4.08,.08,.49,.21,.98,.24,1.47,.4,6.55,2.76,11.44,10.14,12.29,.66,.08,1.22,.99,1.83,1.52-1.26,3.67-3.82,6.57-5.81,9.81-6.6-.65-13.11,.67-19.67,.93-8.79,.35-17.51-1.67-26.31-.92Z"/><path class="e" d="M74.65,85.13c-8.77,3.95-18.03,4.57-27.45,4.08-1.6-.08-3.34,.4-4.59-1.13,.11-2.28,.23-4.56,.34-6.84,.95-.34,1.9-.68,2.85-1.03,2.6,3.33,6.09,4.6,10.21,5.4,3.89,.75,6.92-2.18,10.57-1.43,.89-.04,1.78-.06,2.18-1.07l-.24-.03c2.02,.78,4.15-3.02,6.12,.14,0,.64,0,1.28-.01,1.92Z"/><path class="g" d="M75.79,79.27c3.39-4.86,6.6-9.79,8.52-15.5,1.14-3.39,5.23-3.47,7.62-5.55-1.91,7.41-5.36,13.93-11.42,18.79-1.34,1.08-2.59,2.7-4.72,2.27Z"/><path class="g" d="M28.93,59.54c2.71,.38,4.1,1.9,4.97,4.56,1.35,4.11,3.24,8.04,4.9,12.05-5.93-3.97-8.48-9.95-9.88-16.61Z"/><path class="i" d="M94.32,42.57c-.62-1.33-.56-2.67-.05-4.01,.85,1.33,.46,2.67,.05,4.01Z"/><path class="g" d="M74.83,80.37q-.62-1.06,1.03-1.17c.15,.83-.48,.97-1.03,1.17Z"/><path class="g" d="M66.59,84.17c-3.66-.75-6.69,2.18-10.57,1.43-4.12-.8-7.61-2.06-10.21-5.4-.24-2.31-.74-4.62-.69-6.92,.17-9.13,2.24-11.08,11.48-11.32,1.13-.03,2.26-.39,3.38-.63,6.13-1.26,11.74,3.5,11.55,9.76-.13,4.22-1.7,8.06-2.99,11.97l.24,.03c-1.16-.52-1.62,.38-2.18,1.07Zm-8.26-19.17c-1.93,.26-5-.27-6.71,2.72-.81,1.41-.83,3,.25,4.19,2.19,2.4,5.05,2.02,7.88,1.51,.16-.03,.33-.02,.49-.07,2.29-.66,5.51-.56,5.11-4.1-.39-3.4-3.03-4.46-7.02-4.25Z"/><path class="e" d="M71.28,50.26c-2.33,0-4.66,0-7-.01-1.9-.01-3.25-.79-3.39-2.85-.12-1.81-.19-3.28-2.81-2.85-1.89,.31-3.64,.08-3.31,2.88,.25,2.17-1.16,2.87-3.13,2.85-4.5-.03-9-.09-13.49,.01-2.64,.06-3.55-1.17-3.46-3.64,.34-9.28-2.11-10.22,9.4-9.54,1.97,.12,3.98-.42,5.95-.3,2.12,.13,4.47,.27,4.78,3.27,.11,1.1,.43,3.11,1.63,2.32,1.44-.94,3.77,.6,4.65-2.49,.85-2.98,3.63-5.07,7.45-3.36,2.98,1.33,6.15,.09,9.27,.47,6.32,.76,3.44,5.36,3.96,8.44,.56,3.29-.96,5.05-4.5,4.83-1.99-.12-4-.02-6-.03Zm-25.27-9.79c-1.15-1.72-2.95-1.11-4.53-1.24-3.32-.27-5.61,.11-5.74,4.56-.14,4.7,2.4,4.57,5.59,4.45,2.64-.1,5.3,.02,7.94-.04,1.26-.03,2.95,.35,3.26-1.43,.4-2.25,.98-4.8-.32-6.75-.96-1.43-2.92-1.16-4.38,.06-.61,.13-1.21,.25-1.82,.38Zm23.82-.35c-.37-.03-.74-.05-1.1-.08-1.84-1.16-4.09-1.59-5.34,.15-1.24,1.71-.74,4.24-.32,6.32,.53,2.62,2.92,1.62,4.57,1.69,3.16,.13,6.33,0,9.49,.02,2.76,.02,2.85-1.91,2.61-3.78-.24-1.87,1.32-4.87-2.18-5.09-2.55-.16-5.3-.93-7.72,.76Z"/><path class="i" d="M66.59,84.17c.57-.69,1.03-1.59,2.18-1.07-.4,1.02-1.3,1.04-2.18,1.07Z"/><path class="i" d="M58.33,65c3.99-.21,6.63,.85,7.02,4.25,.41,3.54-2.81,3.44-5.11,4.1-.16,.05-.33,.04-.49,.07-2.83,.51-5.69,.9-7.88-1.51-1.08-1.19-1.05-2.79-.25-4.19,1.71-2.99,4.78-2.46,6.71-2.72Z"/><path class="i" d="M69.82,40.11c2.42-1.7,5.17-.92,7.72-.76,3.5,.22,1.94,3.22,2.18,5.09,.24,1.86,.15,3.8-2.61,3.78-3.16-.02-6.33,.12-9.49-.02-1.65-.07-4.04,.94-4.57-1.69-.42-2.08-.92-4.61,.32-6.32,1.25-1.74,3.51-1.31,5.34-.15-1.86,1.66-1.92,3.66-.88,5.72,.26,.52,1.22,.77,1.69,.18,1.47-1.83,1.61-3.81,.29-5.82Z"/><path class="i" d="M47.82,40.09c1.46-1.22,3.42-1.49,4.38-.06,1.31,1.95,.72,4.5,.32,6.75-.32,1.77-2.01,1.4-3.26,1.43-2.65,.06-5.3-.06-7.94,.04-3.19,.12-5.74,.25-5.59-4.45,.14-4.45,2.42-4.83,5.74-4.56,1.58,.13,3.38-.49,4.53,1.24-.39,1.87-1.48,3.8,.35,5.49,.24,.22,1.12,.2,1.29-.02,1.43-1.88,1.59-3.85,.18-5.85Z"/><path class="g" d="M69.82,40.11c1.32,2.01,1.18,3.99-.29,5.82-.48,.59-1.43,.35-1.69-.18-1.04-2.06-.98-4.05,.88-5.72,.37,.03,.74,.05,1.1,.08Z"/><path class="g" d="M47.82,40.09c1.41,1.99,1.25,3.97-.18,5.85-.17,.22-1.05,.24-1.29,.02-1.83-1.69-.74-3.62-.35-5.49,.61-.13,1.21-.25,1.82-.38Z"/></g></g></g></svg>