<?xml version="1.0" encoding="UTF-8"?><svg xmlns="http://www.w3.org/2000/svg" viewBox="0 0 117.47 138.4"><defs><style>.d{fill:#f70c67;}.e{fill:#8d3f3f;}.f{fill:#de8861;}.g{fill:#3d2744;}.h{fill:#fefefd;}.i{fill:#f2a583;}</style></defs><g id="a"/><g id="b"><g id="c"><g><path class="d" d="M88.14,101.21c1.81-1.19,3.43-.16,5.1,.43,8.04,2.85,16.08,5.68,24.13,8.52,.53,2.07-1.25,2.92-2.29,4.05-29.6,31.98-81.69,32.29-111.86,.7-1.03-1.08-2.13-2.08-3.2-3.12-.13-1.14,.34-1.9,1.43-2.27,9.06-3.1,17.82-7.05,27.17-9.32,2.38,7.6,6.29,14.25,12.25,19.59,9.88,8.87,24.47,9.21,34.68,.72,6.15-5.11,10.3-11.62,12.59-19.3Z"/><path class="i" d="M90,40.87c6.98,7.92,5.68,14.74-3.95,20.07-1.32,.73-1.86,1.65-2.34,2.94-2.33,6.23-5.62,11.91-9.88,17.03-1.56-.73-2.34,2.36-4.06,.84,.59-1.89,1.38-3.74,1.72-5.68,.65-3.76,1.18-7.57-1.65-10.85-3.25-3.76-10.93-4.93-17.15-2.89-5.49,1.8-7.37,5.6-6.95,11.03,.19,2.47,.23,4.94,.34,7.42-1.13-.03-2.27-.05-3.4-.08-3.93-5.99-8.13-11.78-10.27-18.83-.53-1.75-3.54-2.7-5.31-4.14-3.86-3.14-5.55-8.82-4.11-13.38,.77-2.45,2.83-3,4.97-3.44,2.12,1.34,3.31,1.4,4.03-1.65,1.61-6.81,4.61-13.09,8.34-19.04,1.46-2.34,3.04-3.45,5.99-3.21,5.11,.42,10.52,.98,15.16-1.53,5.09-2.76,8.64-.72,11.9,2.67,5.73,5.95,9.73,13,11.7,21.04,.88,3.59,2.04,4.71,4.92,1.68Zm-31.62-2.71c-3.09,5.67-2.66,11.56-4.08,16.98-.38,1.44-1.02,3.17,.35,4.14,1.42,1,3.23,1.02,4.25,.12-6.66-7.1,1.23-13.98-.52-21.24Zm10.01,1.81c-1.8,.69-1.57,2.3-1.64,3.74-.05,1.04,.19,2.32,1.36,2.26,2.06-.12,1.84-2.01,1.97-3.43,.11-1.2-.11-2.35-1.69-2.57Zm-20.21,2.73c-.07-1.13,.05-2.62-1.46-2.62-1.76,0-1.7,1.68-1.75,2.92-.05,1.22-.36,2.98,1.6,2.82,1.74-.14,1.31-1.94,1.61-3.12Z"/><path class="h" d="M88.14,101.21c-2.29,7.68-6.45,14.19-12.59,19.3-10.21,8.49-24.8,8.14-34.68-.72-5.95-5.34-9.87-11.99-12.25-19.59,3.89-3.49,10.32-2.41,13.37-7.43,5.91,0,11.15,1.91,15.15,6.24,1.89,2.05,2.54,.97,3.67-.43,3.85-4.81,9.14-6.92,15.04-7.82,.44,3.46,2.33,5.4,5.66,6.66,2.31,.87,5.32,1,6.64,3.79Z"/><path class="e" d="M90,40.87c-2.87,3.03-4.04,1.9-4.92-1.68-1.97-8.04-5.97-15.09-11.7-21.04-3.26-3.38-6.8-5.42-11.9-2.67-4.64,2.51-10.05,1.94-15.16,1.53-2.96-.24-4.53,.87-5.99,3.21-3.73,5.95-6.73,12.23-8.34,19.04-.72,3.04-1.91,2.99-4.03,1.65-.53-5.97-.83-11.94-.15-17.91,.58-5.06,2.53-9.26,7.29-11.73,.73-.38,1.74-.69,2.05-1.31C40.39,3.51,46.34,1.65,52.75,.7c8.54-1.27,17.02-1.12,24.77,3.18,8.94,4.96,11.86,13.47,12.37,23.04,.25,4.64,.08,9.3,.1,13.96Z"/><path class="i" d="M75.85,90.76c-5.9,.9-11.19,3-15.04,7.82-1.13,1.41-1.77,2.48-3.67,.43-4-4.33-9.24-6.25-15.15-6.24-1.13-1.95-1.65-3.91-.16-5.92,.26,1.61,1.3,2.09,2.81,2.07,4.6-.05,9.2-.04,13.8-.04,1.29,0,2.24-.43,2.51-1.82,.93-.1,1.86-.19,2.79-.28,3.86-.12,8.25,1.13,10.2-3.94l1.91,7.93Z"/><path class="f" d="M60.95,87.06c-.27,1.39-1.22,1.82-2.51,1.82-4.6,0-9.2,0-13.8,.04-1.51,.02-2.55-.47-2.81-2.07,.21-2.06-.67-4.26,.84-6.15,1.13,.02,2.27,.05,3.4,.08l-.14,.04c.25,.41-.62,1.81,.94,1.07,3.85,4.02,8.95,4.64,14.09,5.17Z"/><path class="f" d="M73.94,82.83c-1.95,5.07-6.34,3.82-10.2,3.95,2.01-1.68,4.01-3.35,6.02-5.03,1.73,1.52,2.5-1.57,4.06-.84,.04,.64,.08,1.28,.11,1.92Z"/><path class="e" d="M69.76,81.75c-2.01,1.68-4.01,3.35-6.02,5.03-.93,.09-1.86,.19-2.79,.28-5.13-.53-10.24-1.14-14.09-5.17l-.94-1.07,.14-.04c-.11-2.47-.14-4.95-.34-7.42-.43-5.43,1.46-9.23,6.95-11.03,6.22-2.04,13.91-.87,17.15,2.89,2.83,3.28,2.3,7.09,1.65,10.85-.34,1.93-1.13,3.79-1.72,5.68Zm-11.97-7.09c1.11-.22,2.24-.42,3.36-.67,2.27-.52,4.85-.88,4.61-4.06-.25-3.34-2.91-4.11-5.61-4.52-.93-.14-1.94,.28-2.92,.38-3.07,.29-5.68,1.21-5.42,4.96,.26,3.73,3.48,3.29,5.98,3.92Z"/><path class="f" d="M58.38,38.17c1.76,7.26-6.14,14.15,.52,21.24-1.02,.89-2.83,.88-4.25-.12-1.37-.97-.73-2.69-.35-4.14,1.42-5.42,.99-11.32,4.08-16.98Z"/><path class="g" d="M68.39,39.97c1.57,.22,1.8,1.36,1.69,2.57-.13,1.42,.09,3.31-1.97,3.43-1.17,.07-1.42-1.22-1.36-2.26,.07-1.44-.16-3.05,1.64-3.74Z"/><path class="g" d="M48.18,42.7c-.3,1.18,.12,2.98-1.61,3.12-1.96,.16-1.65-1.6-1.6-2.82,.05-1.25,0-2.92,1.75-2.92,1.51,0,1.39,1.49,1.46,2.62Z"/><path class="i" d="M45.92,80.82l.94,1.07c-1.56,.74-.68-.66-.94-1.07Z"/><path class="i" d="M57.79,74.66c-2.5-.63-5.72-.19-5.98-3.92-.26-3.74,2.35-4.66,5.42-4.96,.98-.09,1.99-.52,2.92-.38,2.7,.41,5.36,1.18,5.61,4.52,.23,3.17-2.34,3.54-4.61,4.06-1.12,.26-2.25,.45-3.36,.67Z"/></g></g></g></svg>