<?xml version="1.0" encoding="UTF-8"?><svg xmlns="http://www.w3.org/2000/svg" viewBox="0 0 105.14 129.38"><defs><style>.d{fill:#594a62;}.e{fill:#de8861;}.f{fill:#3d2744;}.g{fill:#bac3df;}.h{fill:#e16e2a;}.i{fill:#f2a583;}</style></defs><g id="a"/><g id="b"><g id="c"><g><path class="g" d="M68.79,94.29c1.77,.62,3.53,1.24,5.3,1.87-2.4,10.09-3.2,20.34-2.99,30.68-12.39,3.26-24.79,3.44-37.21,.19,.89-9.74-.07-19.35-2.01-28.89-.24-1.16-.64-2.23-1.97-2.58,2.29-.51,4.59-1.03,6.88-1.54,4.11,8.51,9.34,16.36,14.21,24.42,1.32,2.19,2.52,2.03,3.86-.2,4.73-7.93,9.92-15.59,13.93-23.94Z"/><path class="f" d="M29.91,95.56c1.32,.35,1.73,1.42,1.97,2.58,1.94,9.54,2.9,19.15,2.01,28.89-5.07-.77-9.89-2.26-14.29-4.95-.27-7.53-.66-15.04-3.73-22.09,4.24-2.86,9.45-2.67,14.04-4.43Z"/><path class="f" d="M71.09,126.84c-.2-10.35,.6-20.59,2.99-30.68,5.09,.84,10.1,1.93,14.92,3.84-1.81,6.9-3.19,13.86-3.04,21.04-4.59,2.87-9.66,4.51-14.87,5.81Zm10.33-16.86c1.85-.01,3.81,.1,4.3-2.34,.63-3.13-2.2-1.91-3.28-2.18-3.03-.76-3.95-2.7-3.98-5.41-.01-.88,.1-1.68-1.02-1.86-.85-.14-1.82-.14-2.16,.75-1.4,3.68,2.17,6,2.62,9.22,.29,2.06,2.07,1.76,3.53,1.82Z"/><path class="g" d="M15.87,99.99c3.07,7.06,3.46,14.56,3.73,22.09-6.94-2.51-13.52-5.55-17.72-12.07,2.38-6.54,6.84-10.16,13.99-10.02Z"/><path class="g" d="M85.97,121.03c-.15-7.18,1.23-14.14,3.04-21.04,5.35,1.73,11.15,2.92,11.99,10.04-.72,4.21-4.6,5.36-7.44,7.36-2.27,1.59-5.04,2.46-7.58,3.64Z"/><path class="h" d="M34.88,90.93c-.33,.06-.66,.09-.99,.11-.99-.02-1.98-.03-2.96-.05-2.88-.24-5.57-1.08-7.87-2.83-5.74-4.39-10.31-10.08-16.81-13.76-4-2.26-4.14-7.45-3.19-11.83,.82-3.8,.37-7.07-1.34-10.56C-1.51,45.44,0,39.36,4.72,34.04c2.38-2.68,3.96-5.46,4.42-9.18,.69-5.56,3.83-9.56,9.6-10.75,3.83-.79,6.53-2.77,8.75-5.99,4.16-6.06,8.05-7.33,14.99-5.04,3.54,1.17,6.67,.85,10.09-.68,9.42-4.22,14.26-3.03,21.04,4.81,2.34,2.7,5.35,3.75,8.66,4.47,8.25,1.81,10.78,4.6,11.71,13.12,.45,4.09,2.04,7.4,5.69,9.38,4.89,2.65,6.32,6.97,5.02,11.84-1.29,4.82-1.71,9.28,.09,14.05,.66,1.74,.09,3.94,.08,5.93-6.65,.01-2.9,5.21-3.99,8-3.24,2.85-5.86,5.98-7.26,10.28-1.57,4.83-5.95,6.36-10.57,6.85-6.32,.67-12.43-.13-18.02-3.46-.61-1.31-2.41-1.85-2.32-3.61,.16-.84,.06-1.59-.76-2.07l-.02-.04c-.38-1-.76-1.99-1.14-2.99,4.22-3.55,8.11-7.37,10.33-12.55,.7-1.64,1.92-2.7,3.57-3.27,4.47-1.54,6.25-5.21,7.41-9.34,1.25-4.48-.81-7.42-5.43-7.78-1.45-.11-3.12,.42-3.75-1.57-1.49-4.76-3.72-8.83-8.9-10.55-.69-.23-.98-1.6-1.5-2.42-.98-1.53-1.85-3.05-3.82-3.7-5.88-1.94-11.9-5.46-16.39,2.3-.16,.27-.46,.56-.75,.64-6.44,1.91-8.98,6.66-9.7,12.92-.26,2.26-1.39,3.18-4.16,2.61-4.19-.86-7.68,2.98-6.41,6.97,1.3,4.1,3,8.21,7.45,10.14,1.39,.6,3.03,1.23,3.44,2.7,1.44,5.14,5.67,8.08,8.87,11.83l-.16,7.07c-.66,3.33-2.65,5.32-6,5.96Z"/><path class="i" d="M62.69,84.06c-.09,1.76,1.71,2.31,2.32,3.61-1.62,3.85,.02,5.83,3.78,6.61-4.01,8.35-9.2,16.01-13.93,23.94-1.33,2.24-2.54,2.39-3.86,.2-4.87-8.06-10.1-15.91-14.21-24.42,2.84-3.19-.03-2.83-1.92-3.08,3.34-.64,5.34-2.63,6-5.96,7.23,.51,14.28-.23,21.04-3.02l.02,.04c.25,.69,.51,1.38,.76,2.07Z"/><path class="e" d="M100.86,74c1.09-2.79-2.66-7.98,3.99-8,.37,3.51-1.48,5.92-3.99,8Z"/><path class="i" d="M30.92,90.99c.99,.02,1.98,.03,2.96,.05-1.01,1.11-2,1.18-2.96-.05Z"/><path class="d" d="M81.42,109.98c-1.46-.06-3.24,.25-3.53-1.82-.45-3.21-4.02-5.54-2.62-9.22,.34-.89,1.31-.89,2.16-.75,1.12,.18,1.01,.98,1.02,1.86,.04,2.71,.95,4.65,3.98,5.41,1.08,.27,3.91-.95,3.28,2.18-.49,2.44-2.45,2.33-4.3,2.34Z"/><path class="i" d="M41.03,77.9c-3.2-3.76-7.43-6.7-8.87-11.83-.41-1.47-2.06-2.1-3.44-2.7-4.45-1.93-6.15-6.04-7.45-10.14-1.27-3.99,2.22-7.83,6.41-6.97,2.77,.57,3.9-.35,4.16-2.61,.72-6.26,3.26-11.01,9.7-12.92,.29-.09,.59-.37,.75-.64,4.5-7.76,10.51-4.25,16.39-2.3,1.97,.65,2.84,2.17,3.82,3.7,.52,.82,.81,2.19,1.5,2.42,5.17,1.73,7.41,5.79,8.9,10.55,.62,1.99,2.3,1.46,3.75,1.57,4.63,.36,6.69,3.3,5.43,7.78-1.16,4.14-2.94,7.8-7.41,9.34-1.65,.57-2.87,1.63-3.57,3.27-2.22,5.19-6.11,9.01-10.33,12.55-6.67,1.24-13.31,1.98-19.74-1.06Z"/><path class="e" d="M41.03,77.9c6.44,3.04,13.08,2.3,19.74,1.06,.38,1,.76,1.99,1.14,2.99-6.76,2.79-13.81,3.53-21.04,3.02,.05-2.36,.1-4.71,.16-7.07Z"/><path class="e" d="M62.69,84.06c-.25-.69-.51-1.38-.76-2.07,.82,.48,.93,1.22,.76,2.07Z"/><path class="f" d="M62.87,48.7c-.26,1.3,.14,3.23-1.87,3.34-1.41,.08-1.59-1.4-1.48-2.55,.13-1.36-.14-3.23,1.82-3.38,1.55-.11,1.43,1.41,1.53,2.58Z"/><path class="f" d="M43.55,48.44c-.26,1.3,.14,3.23-1.87,3.34-1.41,.08-1.59-1.4-1.48-2.55,.13-1.36-.14-3.23,1.82-3.38,1.55-.11,1.43,1.41,1.53,2.58Z"/></g></g></g></svg>