<?xml version="1.0" encoding="UTF-8"?><svg xmlns="http://www.w3.org/2000/svg" viewBox="0 0 122.12 142.27"><defs><style>.d{fill:#594a62;}.e{fill:#8d3f3f;}.f{fill:#994346;}.g{fill:#fce9de;}.h{fill:#3d2744;}.i{fill:#fefefd;}</style></defs><g id="a"/><g id="b"><g id="c"><g><path class="d" d="M86.18,100.15c2.31-.77,4.1,.66,6.05,1.41,.18,4.99,2.12,9.61,3.11,14.44,1.35,6.53,1.51,6.47-4.84,7.14-1.95,.21-3.88,.74-5.83,.93-2.96,.29-2.75,1.61-1.45,3.6,1.95,3,4.7,5.6,4.89,9.51-18.44,7-36.79,6.81-55.04-.73-.4-1.3-.49-2.52,.28-3.8,1.57-2.6,5.11-5.46,3.8-7.94-1.35-2.55-5.79-1.29-8.84-1.86-2.11-.39-4.82-.62-3.93-4.28,1.4-5.77,2.51-11.6,3.74-17.41,1.9-.85,3.72-2.16,5.96-1,7.76,13.71,17.15,26.33,26.14,40.14,8.9-13.78,17.42-26.97,25.95-40.17Z"/><path class="h" d="M88.11,137.18c-.19-3.91-2.94-6.51-4.89-9.51-1.3-2-1.51-3.32,1.45-3.6,1.96-.19,3.88-.72,5.83-.93,6.35-.67,6.19-.61,4.84-7.14-.99-4.82-2.93-9.44-3.11-14.44,9.96,3.53,19.93,7.05,29.89,10.58-7.01,10.72-17.16,17.6-28.43,23.05-1.76,.85-3.71,1.33-5.57,1.99Z"/><path class="h" d="M28.13,101.18c-1.23,5.81-2.34,11.64-3.74,17.41-.89,3.66,1.82,3.89,3.93,4.28,3.06,.56,7.5-.7,8.84,1.86,1.31,2.47-2.23,5.34-3.8,7.94-.77,1.27-.68,2.5-.28,3.8-13.61-5.1-24.99-13.1-33.07-25.4,9.38-3.29,18.75-6.59,28.13-9.88Z"/><path class="f" d="M44.06,81.07c-2.62-3.53-5.25-7.06-7.87-10.59-.42-4.15-1.58-7.86-5.41-10.28-4.9-3.09-7.31-7.46-6.76-13.43,.27-2.92,2.22-4.89,4.37-4.41,4.66,1.04,4.77-2.25,5.62-4.84,2.01-6.11,4.71-11.88,8.1-17.34,1.09-1.76,2.16-3.29,4.71-2.71,6.02,1.37,11.81,.26,17.49-1.9,2.44-.93,4.73-.75,7.04,.92,8.07,5.81,12.59,13.86,14.75,23.3,.55,2.4,1.1,3.34,3.69,3.36,3.91,.03,7.1,3.66,6.16,7.17-1.01,3.81-2.37,8.11-6.28,9.68-5.89,2.37-5.96,7.61-7.4,12.31l-.06-.25c-.08,.23-.24,.34-.47,.33-2.28,2.9-4.56,5.79-6.84,8.69-.5,.04-1.14-.1-1.46,.16-9.85,7.82-19.62,5.39-29.37-.18Zm7.03-14.44c2.1,4.13,4.85,6.3,8.78,6.12,3.66-.16,6.07-2.43,7.95-6.12h-16.73Zm-4.97-22.57c.42,.79-.48,2.83,1.62,2.68,1.79-.13,2.04-1.93,2.21-3.43,.14-1.25-.23-2.6-1.57-2.7-2.1-.15-2.09,1.65-2.26,3.45Zm21.99-.32c.24,1.03-.4,2.7,1.16,2.81,1.72,.12,1.82-1.56,1.88-2.85,.05-1.12,.13-2.66-1.31-2.78-1.97-.17-1.52,1.63-1.73,2.83Z"/><path class="h" d="M82.26,72.31c1.44-4.7,1.51-9.94,7.4-12.31,3.91-1.57,5.26-5.88,6.28-9.68,.93-3.51-2.25-7.14-6.16-7.17-2.6-.02-3.15-.96-3.69-3.36-2.16-9.43-6.68-17.49-14.75-23.3-2.31-1.66-4.6-1.84-7.04-.92-5.68,2.16-11.46,3.27-17.49,1.9-2.55-.58-3.62,.95-4.71,2.71-3.39,5.46-6.09,11.23-8.1,17.34-.85,2.59-.96,5.88-5.62,4.84-2.15-.48-4.1,1.49-4.37,4.41-.55,5.97,1.86,10.33,6.76,13.43,3.83,2.42,4.99,6.13,5.41,10.28-3.93,.18-6.69-1.55-8.3-5.12-.2-.45-.36-1.2-.68-1.29-8.82-2.38-5.23-11.84-9.56-16.79-.57-.65-.92-2.03-.64-2.8,1.59-4.36,1.58-8.71,.67-13.18-.16-.81,.32-2.2,.96-2.65,2.98-2.1,2.85-4.99,2.49-8.05-.46-3.93,1.1-6.98,4.7-8.49,2.69-1.13,4.38-2.89,5.45-5.45,1.34-3.22,4.31-5.15,7.13-4.2,6.03,2.02,11.31-.57,16.67-1.88,2.26-.55,3.8,.3,5.57,.2,4.43-.25,8.88,1.18,13.31-.41,2.33-.84,4.78-.14,6.31,1.89,2.44,3.24,5.66,4.3,9.52,4.47,4.12,.18,6.57,2.54,6.54,6.68-.02,3.19,1.1,5.16,3.78,6.93,4,2.66,4.57,6.23,1.73,10.31-1.46,2.09-1.38,3.15,.48,4.9,3.24,3.06,3.37,6.92,.78,10.37-1.9,2.55-2.21,5.09-1.71,7.97,.61,3.53-.48,6.31-3.48,8.39-1.07,.74-2.53,1.65-2.78,2.73-1.66,7.25-7.35,7.09-12.88,7.34Z"/><path class="i" d="M86.18,100.15c-8.53,13.2-17.05,26.39-25.95,40.17-8.99-13.81-18.38-26.43-26.14-40.14,2.72-3.46,7.15-4.5,10.35-7.28,.88,.07,1.77,.14,2.65,.21,.09,2.98,.3,5.97,.22,8.95-.07,2.52,.24,4.03,3.2,2.46,5.62-2.99,11.25-3.17,17.01-.23,.84,.43,2.05,1.16,3.21,.39,.19-3.83,.38-7.63,.57-11.42l3.49-.39c3.55,2.81,7.2,5.47,11.39,7.29Z"/><path class="e" d="M44.06,81.07c9.75,5.57,19.52,8,29.37,.18,.32-.26,.97-.11,1.46-.16,.12,1.24,.25,2.47,.37,3.71-.18,1.03-.66,1.29-1.8,1.68-7.58,2.6-15.74,2.1-23.32,4.57-1,.02-2,.03-2.99,.05-1.84-1.78-2.66-.86-3.06,1.16-2.71-3.72-.34-7.46-.03-11.19Z"/><path class="f" d="M50.14,91.06c7.58-2.46,15.74-1.97,23.32-4.57,1.14-.39,1.62-.65,1.8-1.68,.15,2.7,2.64,5.54-.48,8.05-1.16,.13-2.32,.26-3.49,.39-.6-2.88-2.26-1.93-4.1-1.31-5.77,1.96-11.52,2.21-17.06-.89Z"/><path class="f" d="M44.09,92.26c.4-2.01,1.22-2.94,3.06-1.16-.02,.67-.04,1.34-.06,2.01-.88-.07-1.77-.14-2.65-.21-.08-.23-.2-.45-.35-.64Z"/><path class="h" d="M81.73,72.4c.23,0,.39-.11,.47-.33l-.1,.33h-.37Z"/><path class="g" d="M51.09,66.63h16.73c-1.88,3.69-4.29,5.96-7.95,6.12-3.93,.18-6.69-1.99-8.78-6.12Z"/><path class="h" d="M46.12,44.06c.17-1.8,.16-3.61,2.26-3.45,1.33,.1,1.71,1.45,1.57,2.7-.17,1.49-.42,3.3-2.21,3.43-2.1,.15-1.2-1.89-1.62-2.68Z"/><path class="h" d="M68.1,43.74c.21-1.2-.24-3,1.73-2.83,1.44,.13,1.35,1.66,1.31,2.78-.05,1.29-.16,2.97-1.88,2.85-1.56-.11-.92-1.78-1.16-2.81Z"/><path class="h" d="M47.09,93.11c.02-.67,.04-1.34,.06-2.01,1-.02,2-.03,2.99-.05,5.54,3.1,11.28,2.85,17.06,.89,1.84-.62,3.5-1.57,4.1,1.31-.19,3.8-.38,7.6-.57,11.42-1.15,.77-2.37,.04-3.21-.39-5.75-2.94-11.39-2.76-17.01,.23-2.96,1.57-3.27,.07-3.2-2.46,.08-2.98-.13-5.97-.22-8.95Z"/></g></g></g></svg>