<?xml version="1.0" encoding="UTF-8"?><svg xmlns="http://www.w3.org/2000/svg" viewBox="0 0 103.93 143.06"><defs><style>.d{fill:#348dba;}.e{fill:#de8861;}.f{fill:#3d2744;}.g{fill:#266a8b;}.h{fill:#f2a583;}</style></defs><g id="a"/><g id="b"><g id="c"><g><path class="d" d="M10.35,114.56c1.98-1.95,4.64-1.62,7.06-2.11,1.34,.82,2.8,1.17,2.96,3.42,.28,3.93,1.52,7.8,1.77,11.73,.19,2.95,1.41,3.56,4.02,3.55,15.12-.07,30.24-.07,45.36,0,2.89,.01,4.39-.65,4.96-3.99,.86-5.01,.99-10.19,2.83-15.02,3.46,.49,6.95,.9,9.97,2.9-1.36,2.45-.93,5.15-1.04,7.77-.17,4-.72,7.88-2.98,11.33-17.4,9.64-35.78,11.04-54.83,6.33-7.1-1.75-13.87-4.38-20.03-8.4,1.54-1.53,1.11-3.56,.7-5.16-1.06-4.1-.86-8.2-.75-12.33Z"/><path class="g" d="M85.25,134.12c2.26-3.44,2.81-7.33,2.98-11.33,.11-2.62-.33-5.32,1.04-7.77,5.6,1.11,8.68,4.56,9.44,10.17-3.72,4.13-8.33,6.91-13.45,8.93Z"/><path class="g" d="M10.35,114.56c-.11,4.13-.3,8.23,.75,12.33,.41,1.6,.83,3.63-.7,5.16-3.71-2.67-8.63-3.92-10.4-8.86,1.51-5.2,5.39-7.57,10.35-8.64Z"/><path class="h" d="M30.49,108.81c7.78-2.38,10.63-13.9,5.01-19.98-2.12-2.29-4.24-4.65-5.33-7.67-.59-1.65-1.69-2.52-3.23-3.44-4.76-2.82-8.13-6.58-7.81-12.78,.16-3.05,3.08-4.27,3.56-6.92,1.75,2.21,3.25,3.63,3.82-.75,.32-2.46,1.1-4.86,1.56-7.3,.53-2.78,1.72-3.6,4.82-3.18,10.55,1.43,21.2,2.24,31.84,1.61,4.54-.27,6.62,1.42,6.68,5.66,.06,4.11,1.57,6.48,5.99,6.25,.95,.97,1.9,1.94,2.85,2.91,.62,6.61-3.39,10.96-7.47,15.28-1.11-1.38-2.55-1.39-3.11,.14-2.14,5.83-6.67,9.87-10.41,14.51-5.89,.6-11.77,2.05-17.71,.26-1.49-.45-2.12,.46-2.2,1.87-.07,1.45,.13,2.83,1.94,2.83,3.81,0,7.73,.33,11.39-.45,2.45-.52,6.5,0,6.58-4.49,1.86,3.15,.55,6.97,2.39,10.3,1.24,2.23,2.27,4.23,4.64,5.29-.56,1.01-1.18,1.99-1.66,3.03-3.11,6.89-8.62,9.57-15.94,9.38-7.1-.19-12.38-2.93-14.95-9.89-.55-1.5-1.47-2.58-3.27-2.46Z"/><path class="f" d="M72.79,78.48c4.08-4.32,8.09-8.67,7.47-15.28,10.76-14.67,3.52-37.01-5.29-46.05-5.39-5.53-10.37-4.67-15.65,2.23-2.82-.71-5.91-.47-8.39-2.36,1.02-8.07,5.34-14.31,13.06-16,15.3-3.36,29.19,1.05,37.43,20.12,3.44,7.98,3.04,16.31,.69,24.48-2.63,9.16-3.22,18.26-1.08,27.59,1.12,4.88,1.4,9.91,.61,14.91-.91,5.74-3.58,10.36-8.94,13.05-10.05,5.05-18.84,.39-20.4-10.77-.56-4-.32-7.98,.5-11.93Z"/><path class="f" d="M77.41,60.29c-4.42,.24-5.93-2.14-5.99-6.25-.06-4.25-2.14-5.93-6.68-5.66-10.64,.63-21.29-.17-31.84-1.61-3.1-.42-4.29,.41-4.82,3.18-.47,2.45-1.24,4.84-1.56,7.3-.57,4.38-2.06,2.97-3.82,.75-4.38-18.83,5.06-32.59,25.41-37.05,3.82,1.6,7.69,1.76,11.61,.41,6.44,1.85,11.81,5.26,15.3,11.09,5.31,8.85,5.23,18.23,2.38,27.82Z"/><path class="g" d="M30.49,108.81c1.8-.13,2.71,.96,3.27,2.46,2.57,6.96,7.85,9.71,14.95,9.89,7.32,.19,12.83-2.5,15.94-9.38,.47-1.05,1.1-2.02,1.66-3.03,4.43,.76,8.81,1.69,13,3.38-1.84,4.83-1.97,10.01-2.83,15.02-.57,3.34-2.07,4.01-4.96,3.99-15.12-.06-30.24-.07-45.36,0-2.61,.01-3.83-.6-4.02-3.55-.25-3.93-1.5-7.8-1.77-11.73-.16-2.25-1.62-2.6-2.96-3.42,4.36-1.21,8.72-2.43,13.08-3.64Z"/><path class="d" d="M59.72,21.38c-3.92,1.35-7.79,1.19-11.61-.41-.45-2.3,1.34-3.01,2.81-3.94,2.49,1.89,5.58,1.64,8.39,2.36,.14,.66,.27,1.33,.4,1.99Z"/><path class="e" d="M59.27,93.15c-.08,4.5-4.13,3.97-6.58,4.49-3.67,.78-7.58,.44-11.39,.45-1.81,0-2.02-1.38-1.94-2.83,.07-1.41,.71-2.32,2.2-1.87,5.94,1.79,11.82,.34,17.71-.26v.02Z"/><path class="f" d="M60.25,58.94c-.26,1.3,.14,3.23-1.87,3.34-1.41,.08-1.59-1.4-1.48-2.55,.13-1.36-.14-3.23,1.82-3.38,1.55-.11,1.43,1.41,1.53,2.58Z"/><path class="f" d="M40.93,58.68c-.26,1.3,.14,3.23-1.87,3.34-1.41,.08-1.59-1.4-1.48-2.55,.13-1.36-.14-3.23,1.82-3.38,1.55-.11,1.43,1.41,1.53,2.58Z"/></g></g></g></svg>