<?xml version="1.0" encoding="UTF-8"?><svg xmlns="http://www.w3.org/2000/svg" viewBox="0 0 99.87 142.25"><defs><style>.d{fill:#8d3f3f;}.e{fill:#de8861;}.f{fill:#dadde9;}.g{fill:#3d2744;}.h{fill:#f2a583;}</style></defs><g id="a"/><g id="b"><g id="c"><g><path class="g" d="M69.81,104.35c2.07,2.29,5.1,1.94,7.7,2.76,2.82,.89,5.71,1.53,8.57,2.28,7.28,1.92,13.15,5.24,13.78,13.79-9.2,9.29-20.7,14.08-33.17,16.94-1.6,.37-3.26,.45-4.89,.66,.76-5.53,1.51-11.06,2.27-16.6,1.14-6.65,2.27-13.3,3.41-19.95,.78,.04,1.55,.07,2.33,.11Z"/><path class="g" d="M.04,122.25c.73-7.37,5.71-10.41,12.11-12.41,3.52-1.11,7.47-1.12,10.52-3.63,2.21,.21,4.34-.17,6.43-.85,.02,.48,.03,.95,.05,1.43-.23,.6-.03,1.05,.51,1.37l3.08,16.09c.65,5.34,1.29,10.69,1.94,16.03-12.53-1.79-23.28-7.48-33.18-15.07-.99-.76-1.64-1.63-1.44-2.94Z"/><path class="f" d="M34.66,140.27c-.65-5.34-1.29-10.69-1.94-16.03,10.45-.01,20.9-.03,31.35-.04-.76,5.53-1.51,11.06-2.27,16.6-.5,.4-.99,1.13-1.49,1.14-8.59,.13-17.25,1.24-25.65-1.67Z"/><path class="d" d="M29.09,105.36c-2.09,.68-4.22,1.06-6.43,.85-3.35-5.59-3.29-10.78,1.12-16,5.06-5.98,4.97-9.02-1.11-14.45-12.09-10.8-13.18-24.6-7.32-39.71,2.06-5.32,5.69-9.4,11.22-11.34,2.04-.71,2.75-1.75,2.85-3.93,.46-9.82,5.76-16.06,14.98-18.91,9.4-2.9,18.75-2.49,27.74,1.67,13.17,6.09,18.96,19.76,14.94,35.35-1.25,4.82-3.04,9.49-4.6,14.22-1.33,4.03-1.15,7.74,1.58,11.29,2.82,3.67,3.16,7.91,2.04,12.34-1.13,4.47-3.28,8.44-6.42,11.68-4.49,4.62-7.74,9.9-9.87,15.93-.78-.04-1.55-.07-2.33-.11-2.76,.09-4.19-1.47-4.92-3.93-.84-2.82-1.7-5.63-2.56-8.45-.18-.91-.36-1.83-.54-2.74,2.82-3.66,7.03-6.17,8.88-10.62,1.06-2.54,2.6-4.18,5.25-5.49,4.62-2.26,7.23-6.41,6.87-11.75-.24-3.54-2.01-6.17-6.1-5.26-1.94,.43-2.76-.37-3.67-1.64-1.85-2.58-3.37-5.28-4.33-8.36-1.32-4.26-4.43-6.55-8.89-6.75-2.49-.11-4.99-.08-7.48,.07-4.55,.27-8.69-.41-11.38-4.6-1.5-2.35-2.74-1.09-3.86,.23-3.05,3.59-5.27,7.62-6.36,12.27-.92,3.94-.62,8.57-6.41,9.62-1.82,.33-2.41,2.94-2.36,5.1,.09,3.72,1.3,7.5,4.38,9.05,5.16,2.61,7.22,7.41,10.18,11.63,1.56,2.23,3.59,3.89,5.75,5.46l-.45,6.03c-2.08,5.02-2.92,11.19-10.39,11.24Z"/><path class="h" d="M60,91.86c.85,2.82,1.72,5.63,2.56,8.45,.73,2.47,2.16,4.02,4.92,3.93-1.14,6.65-2.27,13.3-3.41,19.96-10.45,.01-20.9,.03-31.35,.04-1.03-5.36-2.05-10.72-3.08-16.08-.17-.46-.34-.91-.51-1.37-.02-.48-.03-.95-.05-1.43,7.47-.05,8.31-6.22,10.39-11.24,6.96,.31,13.92,.63,20.52-2.25Z"/><path class="d" d="M29.13,106.78c.17,.46,.34,.91,.51,1.37-.53-.32-.74-.77-.51-1.37Z"/><path class="h" d="M39.93,88.08c-2.15-1.57-4.18-3.23-5.75-5.46-2.96-4.22-5.02-9.01-10.18-11.63-3.08-1.56-4.29-5.33-4.38-9.05-.05-2.16,.54-4.77,2.36-5.1,5.79-1.05,5.49-5.68,6.41-9.62,1.09-4.65,3.31-8.68,6.36-12.27,1.12-1.32,2.35-2.58,3.86-.23,2.69,4.19,6.83,4.87,11.38,4.6,2.49-.15,4.99-.18,7.48-.07,4.47,.2,7.58,2.49,8.89,6.75,.95,3.08,2.48,5.78,4.33,8.36,.91,1.27,1.73,2.08,3.67,1.64,4.09-.92,5.87,1.72,6.1,5.26,.36,5.34-2.26,9.49-6.87,11.75-2.66,1.3-4.19,2.95-5.25,5.49-1.85,4.45-6.06,6.96-8.88,10.62-6.58,.96-13.19,2.49-19.53-1.04Z"/><path class="e" d="M39.93,88.08c6.34,3.53,12.95,2,19.53,1.04,.18,.91,.36,1.83,.54,2.74-6.61,2.88-13.56,2.56-20.52,2.25,.15-2.01,.3-4.02,.45-6.03Z"/><path class="g" d="M60.62,55.27c-.26,1.3,.14,3.23-1.87,3.34-1.41,.08-1.59-1.4-1.48-2.55,.13-1.36-.14-3.23,1.82-3.38,1.55-.11,1.43,1.41,1.53,2.58Z"/><path class="g" d="M41.3,55.01c-.26,1.3,.14,3.23-1.87,3.34-1.41,.08-1.59-1.4-1.48-2.55,.13-1.36-.14-3.23,1.82-3.38,1.55-.11,1.43,1.41,1.53,2.58Z"/></g></g></g></svg>