<?xml version="1.0" encoding="UTF-8"?><svg xmlns="http://www.w3.org/2000/svg" viewBox="0 0 122 141.66"><defs><style>.d{fill:#f70c67;}.e{fill:#de8861;}.f{fill:#dadde9;}.g{fill:#3d2744;}.h{fill:#bac3df;}.i{fill:#f2a583;}</style></defs><g id="a"/><g id="b"><g id="c"><g><path class="f" d="M84.95,98c7.61,2.5,15.2,5.08,22.74,7.8,4.63,1.68,9.13,4.26,14.31,4.22-.24,1.88-1.15,3.44-2.42,4.8-14.67,15.75-32.42,25.26-54.15,26.69,.27-6.9-.33-13.91,2.46-20.52,.12-.28,.01-.65,.01-.98,2.24,1.2,2.75-.64,3.65-1.99,4.44-6.69,8.93-13.35,13.4-20.03Z"/><path class="f" d="M0,111.99c4.02-.63,6.77-3.76,10.87-4.87,8.77-2.36,17.06-6.54,26.13-8.17,5.82,7.34,9.97,15.86,16.21,22.91,3.81,6.05,3.08,12.57,1.93,19.12-22.75-1.37-41.32-10.66-55.14-29Z"/><path class="d" d="M55.14,141c1.16-6.55,1.88-13.07-1.93-19.12,1.99-4.4,3.01-9.09,4.19-13.74l7.07-.02c.37,4.19,1.85,8.06,3.43,11.9,0,.33,.1,.7-.01,.98-2.78,6.61-2.19,13.61-2.46,20.52-3.44-.03-6.91,.57-10.3-.52Z"/><path class="i" d="M92.76,41.81c6.23,4.55,6.34,12.04-.36,17.04-3.87,2.89-6.73,5.78-8.03,10.64-.76,2.85-3.15,5.4-5.22,7.72-1.57,1.76-2.32,3.52-2.19,5.77-.94-.87-1.7-1.91-3.28-.86-8.52,5.69-17.03,4.44-25.38-.37-1.92-1.11-2.19,.5-3.07,1.25-.04-2.53-.68-4.7-2.54-6.67-2.98-3.15-4.92-6.94-5.91-11.24-.53-2.29-1.77-4.17-4.1-5.28-3.29-1.57-5.24-4.54-6.79-7.63-2.89-5.78,.93-9.2,4.81-12.5,.36,1.46,1.49,2.5,2.77,2.4,1.3-.1,1.1-1.81,1.39-2.85,1.88-6.76,4.96-12.97,8.49-19,1.58-2.69,3.25-3.65,6.44-2.44,3.06,1.16,6.42,2.1,9.66,2.13,13.77,.16,22.13,7.79,27.37,19.53,1.5,3.35,2.9,4.25,5.96,2.37Zm-30.9-3.02l-1.67-.34c-1.06,5.92-2.38,11.8-3.1,17.76-.48,4.03,1.23,4.69,5.99,2.08-4.88,.39-4.92-1.81-4.07-5.12,1.21-4.73,1.93-9.59,2.85-14.39Zm4.23,25.61c-2.98,1.63-6.44,1.35-10.87,2.53,5.22,1.74,8.47,1.14,10.87-2.53Zm6.94-21.88c-.36-.85-.06-2.57-1.64-2.36-1.94,.26-1.6,2.17-1.67,3.58-.05,.96,.03,2.26,1.29,2.25,2.21-.02,1.61-2,2.02-3.47Zm-23.67,3.54c1.57-.49,1.65-1.83,1.71-3.13,.05-1.13,.11-2.7-1.3-2.75-2.03-.06-1.85,1.85-1.96,3.23-.1,1.16,.08,2.31,1.55,2.64Z"/><path class="g" d="M92.76,41.81c-3.06,1.89-4.47,.99-5.96-2.37-5.24-11.74-13.6-19.37-27.37-19.53-3.24-.04-6.6-.97-9.66-2.13-3.19-1.21-4.86-.25-6.44,2.44-3.53,6.03-6.61,12.24-8.49,19-.29,1.03-.09,2.74-1.39,2.85-1.27,.1-2.41-.94-2.77-2.4-.24-5.48-.84-10.94,0-16.44,.64-4.25,2.2-7.79,5.45-10.86,2.59-2.44,2.85-6.21,2.81-10.19,2.08,1.45,.71,3.83,2.33,4.98C50.77-.87,62.01-1.02,73.31,1.29c12.36,2.53,19.06,11.96,19.72,26.55,.21,4.64-.17,9.31-.27,13.97Z"/><path class="i" d="M64.48,108.12c-2.36,0-4.72,.01-7.08,.02-4.12-6.41-8.24-12.81-12.36-19.22,10.86,.54,21.63,.43,31.87-3.97,.33,1.03,.67,2.07,1,3.1-4.8,6.47-9.31,13.14-13.43,20.07Z"/><path class="h" d="M45.04,88.92c4.12,6.41,8.24,12.81,12.36,19.22-1.18,4.65-2.2,9.34-4.19,13.74-6.24-7.05-10.39-15.57-16.21-22.91,2.56-3.65,5.11-7.31,7.67-10.96,.17,.29,.29,.6,.37,.92Z"/><path class="h" d="M64.48,108.12c4.12-6.93,8.63-13.6,13.43-20.07,1.33,4.03,5.21,6.26,7.04,9.95-4.47,6.67-8.96,13.33-13.4,20.03-.89,1.35-1.41,3.19-3.65,1.99-1.58-3.84-3.06-7.71-3.43-11.9Z"/><path class="e" d="M45.04,88.92c-.08-.32-.2-.63-.37-.92,.18-1.67,.36-3.33,.55-5,.88-.74,1.16-2.35,3.07-1.25,8.35,4.81,16.86,6.06,25.38,.37,1.58-1.06,2.35-.02,3.28,.86-.01,.66-.03,1.32-.04,1.98-10.24,4.39-21.02,4.5-31.87,3.97Z"/><path class="e" d="M61.86,38.79c-.93,4.8-1.64,9.66-2.85,14.39-.85,3.31-.81,5.51,4.07,5.12-4.76,2.61-6.47,1.94-5.99-2.08,.72-5.96,2.03-11.84,3.1-17.76l1.67,.34Z"/><path class="e" d="M66.09,64.4c-2.4,3.67-5.65,4.27-10.87,2.53,4.43-1.18,7.89-.91,10.87-2.53Z"/><path class="g" d="M73.03,42.52c-.42,1.46,.19,3.45-2.02,3.47-1.26,.01-1.34-1.29-1.29-2.25,.07-1.4-.27-3.32,1.67-3.58,1.58-.21,1.28,1.5,1.64,2.36Z"/><path class="g" d="M49.36,46.06c-1.47-.33-1.65-1.48-1.55-2.64,.12-1.38-.06-3.3,1.96-3.23,1.4,.04,1.35,1.61,1.3,2.75-.06,1.29-.14,2.64-1.71,3.13Z"/></g></g></g></svg>