<?xml version="1.0" encoding="UTF-8"?><svg xmlns="http://www.w3.org/2000/svg" viewBox="0 0 121.68 141.49"><defs><style>.d{fill:#594a62;}.e{fill:#8d3f3f;}.f{fill:#de8861;}.g{fill:#dadde9;}.h{fill:#3d2744;}.i{fill:#fefefd;}.j{fill:#f2a583;}</style></defs><g id="a"/><g id="b"><g id="c"><g><path class="g" d="M79.64,138.99c-13.48,3.46-26.89,3.45-40.22-.76-.37-5.41-.74-10.82-1.1-16.23,1.83,.05,3.51,.52,5.24,1.2,12.48,4.9,24.86,4.49,37.08-1.01-.33,5.6-.67,11.2-1,16.8Z"/><path class="h" d="M93.47,101.11c9.4,3.33,18.81,6.67,28.21,10-6.59,10.49-16.12,17.42-27.24,22.39,1.09-3.61-1.7-5.47-3.7-7.4-3.29-3.17-2.65-4.93,1.54-5.78,3.83-.78,4.65-2.76,3.62-6.45-1.15-4.16-1.65-8.5-2.43-12.76Z"/><path class="h" d="M.71,110.27c9.37-2.68,18.16-7.09,27.67-9.35-.8,3.35-1.37,6.77-2.46,10.02-1.64,4.87-1.99,8.78,4.56,9.78,2.73,.41,3.25,1.58,1.15,3.85-2.32,2.52-4.25,5.4-6.35,8.12-9.42-4.31-17-10.96-23.73-18.67-.86-.98-2.51-2.07-.85-3.75Z"/><path class="d" d="M93.47,101.11c.78,4.26,1.28,8.6,2.43,12.76,1.02,3.69,.2,5.67-3.62,6.45-4.19,.85-4.84,2.61-1.54,5.78,2.01,1.93,4.8,3.78,3.7,7.4-4.54,2.87-9.56,4.48-14.79,5.49,.33-5.6,.67-11.2,1-16.8,.89-8.12,1.77-16.25,2.66-24.37,3.57,.54,6.87,1.92,10.17,3.3Z"/><path class="d" d="M25.29,132.68c2.1-2.72,4.03-5.61,6.35-8.12,2.1-2.27,1.58-3.44-1.15-3.85-6.55-.99-6.2-4.91-4.56-9.78,1.09-3.25,1.66-6.67,2.46-10.02,2.44-1.44,5.03-2.4,7.9-2.41-.12,7.9,1.54,15.65,2.03,23.49,.37,5.41,.74,10.82,1.1,16.23-5.1-.85-9.71-2.94-14.12-5.54Z"/><path class="j" d="M92.1,39.08c.31,1.44,.87,2.63,1.9,3.85,4.05,4.78,3.17,12.02-2.14,15.47-3.79,2.46-6.31,5.55-7.94,9.68-1.27,3.22-3.03,6.21-5.37,8.83-1.58,1.77-2.54,3.82-2.41,6.27-1.09-2.05-2.83-1.5-4.16-.66-3.82,2.42-8.05,2.36-12.32,2.77-5.66,.54-9.85-3.58-15.1-4.06-.76-4.51-5.01-6.82-6.7-10.87-2.09-5-4.05-9.75-9.32-13.3-6.83-4.61-5.31-13.34,1.62-15.95,1.95,1.11,3.01,1.05,3.7-1.61,1.67-6.44,4.48-12.43,7.84-18.21,1.78-3.06,3.7-4.57,7.47-4.18,4.76,.49,9.77,.8,14.15-1.6,4.92-2.7,8.71-.93,12.02,2.5,5.73,5.95,9.67,13,11.94,20.98,.36,1.27-.63,3.49,1.45,3.69,2.19,.2,2.81-1.85,3.35-3.61Zm-23.75,27.08c-5,0-9.28-.02-13.56,0-2.44,.02-2.39,1.02-1.08,2.68,3.9,4.99,10.24,4.18,14.64-2.69Zm3.73-23.09c-.14-1.17,.39-2.93-1.41-3.06-1.71-.13-1.83,1.59-1.95,2.83-.12,1.25-.23,2.94,1.47,3.08,1.8,.15,1.67-1.58,1.88-2.85Zm-21.77-.45c-.1-1.11-.2-2.64-1.49-2.67-2.08-.04-1.83,1.91-1.89,3.28-.05,1.09-.04,2.66,1.4,2.68,2.07,.03,1.65-1.94,1.98-3.29Zm6.63,12.37c-.43,1.21-1.85,2.54-.86,3.49,1.41,1.35,3.44,.75,5.44,.02-2.76,.3-4.26-.78-4.59-3.51Zm3.06-15.41c-1.03,2.44-2.21,4.28-1.07,6.88,.98-2.18,1.84-3.96,1.07-6.88Zm-2.06,9.38c-.17,.29-.46,.56-.46,.82,0,.51-.26,1.6,.52,1.31,.68-.25,.53-1.39-.05-2.14Z"/><path class="j" d="M38.31,122c-.49-7.85-2.15-15.59-2.03-23.49,6.07-1.52,6.98-6.53,7.85-11.58,.55,2.46,2.48,2.17,4.31,2.25,9.51,.47,18.71-1.1,27.7-4.11,.36,1.41,.98,2.81,1.02,4.23,.13,4.29,1.68,7.41,6.13,8.51-.89,8.12-1.77,16.25-2.66,24.37-12.22,5.5-24.6,5.92-37.08,1.01-1.73-.68-3.41-1.15-5.24-1.2Z"/><path class="e" d="M92.1,39.08c-.54,1.76-1.16,3.81-3.35,3.61-2.08-.19-1.09-2.41-1.45-3.69-2.27-7.98-6.21-15.03-11.94-20.98-3.31-3.44-7.1-5.2-12.02-2.5-4.38,2.4-9.39,2.09-14.15,1.6-3.77-.39-5.69,1.12-7.47,4.18-3.36,5.78-6.16,11.77-7.84,18.21-.69,2.66-1.75,2.72-3.7,1.61-1-6.61-1.35-13.22,0-19.83,.91-4.46,2.87-8.12,7.2-10.14,.73-.34,1.48-.79,2.01-1.38C49.21-1.24,70.63-3.37,82.3,5.57c5.31,4.07,7.86,9.75,9.1,16.12,1.12,5.75,1.18,11.56,.7,17.38Z"/><path class="f" d="M76.14,85.08c-8.99,3.01-18.19,4.57-27.7,4.11-1.83-.09-3.76,.21-4.31-2.25,.14-1.9,.29-3.8,.43-5.7,5.25,.48,9.43,4.6,15.1,4.06,4.27-.41,8.5-.35,12.32-2.77,1.34-.85,3.07-1.4,4.16,.66,0,.64,0,1.27,0,1.91Z"/><path class="i" d="M68.35,66.16c-4.4,6.87-10.74,7.68-14.64,2.69-1.3-1.66-1.35-2.66,1.08-2.68,4.28-.03,8.55,0,13.56,0Z"/><path class="h" d="M72.08,43.07c-.21,1.28-.09,3-1.88,2.85-1.7-.14-1.58-1.83-1.47-3.08,.11-1.24,.24-2.96,1.95-2.83,1.8,.14,1.27,1.89,1.41,3.06Z"/><path class="h" d="M50.31,42.62c-.33,1.36,.09,3.32-1.98,3.29-1.43-.02-1.44-1.59-1.4-2.68,.06-1.38-.19-3.32,1.89-3.28,1.29,.02,1.39,1.55,1.49,2.67Z"/><path class="f" d="M56.95,54.99c.33,2.73,1.82,3.81,4.59,3.51-2.01,.74-4.04,1.33-5.44-.02-.99-.95,.43-2.28,.86-3.49Z"/><path class="f" d="M60.01,39.58c.77,2.92-.1,4.7-1.07,6.88-1.13-2.6,.05-4.44,1.07-6.88Z"/><path class="f" d="M57.95,48.96c.58,.75,.73,1.89,.05,2.14-.78,.29-.52-.8-.52-1.31,0-.27,.29-.53,.46-.82Z"/></g></g></g></svg>