<?xml version="1.0" encoding="UTF-8"?><svg xmlns="http://www.w3.org/2000/svg" viewBox="0 0 118.01 138.19"><defs><style>.d{fill:#8d3f3f;}.e{fill:#de8861;}.f{fill:#fce9de;}.g{fill:#dadde9;}.h{fill:#3d2744;}.i{fill:#f2a583;}</style></defs><g id="a"/><g id="b"><g id="c"><g><path class="g" d="M97.01,103.94c7.74,.18,14,4.73,21.01,7.08-14.54,16.7-32.65,26.01-54.95,27.07-17.14,.81-32.93-3.18-47.16-12.74-6.15-4.12-12.23-8.49-15.89-15.27,.79-3.71,4.38-1.08,6.17-2.73,3.38-3.14,8.1-2.87,12.09-4.49,2.17-.88,1.43,1.05,1.85,1.88,.06,.13,.14,.35,.22,.36,.77,.07,.61-.55,.7-.98,6.36,14.77,18.23,21.58,33.67,22.81,8.48,.68,17.14-.14,24.73-3.69,8.15-3.82,14.43-10.38,17.58-19.28Z"/><path class="i" d="M97.01,103.94c-3.15,8.9-9.43,15.47-17.58,19.28-7.59,3.55-16.26,4.36-24.73,3.69-15.45-1.23-27.31-8.03-33.67-22.81-.08-2.38,1.76-2.99,3.45-3.67,1.23-.5,2.48-1.06,3.77-1.25,8.09-1.18,13.82-4.29,12.02-13.97-.07-.37,.44-.85,.69-1.27,.63,1.76-1.16,4.82,2.38,5.03,9.12,.53,18.15,.13,26.74-3.47,1.37-.57,2.42-1.59,1.76-3.05-.78-1.74-2-.26-2.86,.12-8.56,3.76-16.94,3.69-25.13-1.03-1.1-.63-1.87,.15-2.76,.5,.24-2.23-1.29-3.56-2.43-5.18-2.84-4.05-5.46-8.26-6.66-13.16-.43-1.74-1.45-2.76-3.04-3.61-8.27-4.39-9.58-12.12-3.48-19.43,.58-.69,.62-1.83,.91-2.77,.96,1.21,.16,3.89,2.47,3.77,2.16-.11,1.68-2.56,2.12-3.96,1.92-6.05,4.87-11.59,7.89-17.13,1.92-3.53,4.01-4.37,8-2.88,9.33,3.47,18.9,6.3,29.1,4.62,2.16-.36,2.84,1.21,3.64,2.69,2.4,4.43,3.95,9.15,4.46,14.14,.33,3.22,1.84,3.76,4.52,2.82,6.5,3.55,6.04,13.41-1.3,17.72-3.34,1.96-5.23,4.5-6.41,7.77-1.26,3.5-3.4,6.42-5.41,9.43-2.07,3.1-2.86,15.24-.44,17.8,3.31,3.51,8.44,3.39,12.61,5.29,3.08,1.4,6.79,1.34,9.36,3.98Zm-32.08-37.74c1.57-.83,4.54,1.2,4.83-1.59,.24-2.34-2.19-3.69-4.33-4.05-5.7-.96-11.46-1.06-17.07,.65-1.76,.53-3.58,1.82-3.16,3.84,.38,1.82,2.55,.6,3.83,1.11,1.3,3.74,3.73,6.09,7.89,5.92,3.91-.16,6.86-1.86,8.02-5.87Zm-19.88-20.22c1.75-.32,1.72-1.76,1.82-3.04,.1-1.15,.22-2.7-1.12-2.96-1.89-.36-1.88,1.43-2.03,2.67-.16,1.27-.37,2.69,1.33,3.33Zm23.79-3.28c-.06-1.19-.02-2.76-1.48-2.68-2.02,.1-1.8,2.08-1.88,3.47-.07,1.12,.09,2.65,1.71,2.37,1.61-.28,1.49-1.92,1.65-3.17Z"/><path class="d" d="M88.59,41.96c-2.68,.94-4.2,.39-4.52-2.82-.51-4.98-2.06-9.71-4.46-14.14-.8-1.48-1.48-3.05-3.64-2.69-10.21,1.69-19.77-1.14-29.1-4.62-3.98-1.48-6.08-.65-8,2.88-3.02,5.54-5.97,11.08-7.89,17.13-.44,1.39,.04,3.85-2.12,3.96-2.31,.12-1.51-2.57-2.47-3.77-.29-5.15-.62-10.27,.24-15.43,.84-5.05,2.76-9.21,7.66-11.5,.59-.27,1.33-.6,1.6-1.11C39.76,2.53,46.76,.94,54.01,.31c8.9-.78,17.79-.47,25.2,5.46,4.46,3.57,8.88,.41,13.71,.66-.06,2.89-1.02,5.62-2.85,7.6-2.44,2.65-2.62,5.25-1.87,8.54,1.46,6.4,.94,12.9,.39,19.38Z"/><path class="e" d="M41.09,82.04c.89-.35,1.67-1.13,2.76-.5,8.19,4.72,16.57,4.79,25.13,1.03,.86-.38,2.08-1.85,2.86-.12,.65,1.46-.39,2.47-1.76,3.05-8.6,3.6-17.62,4-26.74,3.47-3.54-.21-1.75-3.27-2.38-5.03,.04-.64,.09-1.27,.13-1.91Z"/><path class="d" d="M49.03,66.16c-1.27-.51-3.45,.7-3.83-1.11-.42-2.02,1.4-3.31,3.16-3.84,5.61-1.71,11.36-1.6,17.07-.65,2.14,.36,4.58,1.71,4.33,4.05-.29,2.8-3.26,.76-4.83,1.59-5.3-.01-10.6-.03-15.91-.04Z"/><path class="f" d="M49.03,66.16c5.3,.02,10.6,.03,15.91,.04-1.16,4.02-4.1,5.71-8.02,5.87-4.16,.17-6.59-2.18-7.89-5.92Z"/><path class="h" d="M45.05,45.98c-1.69-.64-1.48-2.05-1.33-3.33,.15-1.24,.14-3.03,2.03-2.67,1.35,.26,1.22,1.81,1.12,2.96-.11,1.27-.07,2.72-1.82,3.04Z"/><path class="h" d="M68.84,42.7c-.17,1.24-.04,2.89-1.65,3.17-1.62,.28-1.78-1.26-1.71-2.37,.08-1.4-.14-3.37,1.88-3.47,1.47-.07,1.42,1.49,1.48,2.68Z"/></g></g></g></svg>