<?xml version="1.0" encoding="UTF-8"?><svg xmlns="http://www.w3.org/2000/svg" viewBox="0 0 119.05 138.44"><defs><style>.d{fill:#8d3f3f;}.e{fill:#994346;}.f{fill:#dadde9;}.g{fill:#3d2744;}.h{fill:#bac3df;}</style></defs><g id="a"/><g id="b"><g id="c"><g><path class="f" d="M0,110.24c4.59-1.59,9.18-3.21,13.79-4.78,7.33-2.5,14.46-5.64,22.08-7.28,2.23,5.44,6.94,9.03,10.3,13.62,1.65,2.25,3.25,1.44,4.56-.71,1.62-2.65,3.4-5.2,5.1-7.79,1.45,4.46,2.9,8.93,4.59,14.16,1.61-5.36,2.97-9.86,4.33-14.37,1.89,3.05,3.76,6.11,5.67,9.15,.73,1.16,1.28,2.33,2.84,.52,4.08-4.72,8.66-9.03,11.79-14.53,4.18,1.21,8.39,2.14,12.49,3.78,7.13,2.84,14.69,4.57,21.5,8.28-4.34,7.59-11.42,12.44-18.47,16.86-7.54,4.73-15.89,8.1-24.83,9.72-16.39,2.96-32.29,1.97-47.64-5.03-11.07-5.04-20.58-12.01-28.12-21.6Z"/><path class="e" d="M33.94,60.16c-6.08-1.62-8.74-6.13-9.44-11.86-.46-3.76,.85-6.86,5.4-7.19,2.44,1.01,3.4,.02,4.12-2.42,1.99-6.78,4.67-13.27,8.94-19.04,1.32-1.79,2.68-2.91,4.94-2.38,7.87,1.85,15.9,1.35,23.8,.89,5.89-.34,9.06,2.29,11.42,6.83,2.21,4.26,3.97,8.82,4.62,13.53,.43,3.13,1.51,4.05,4.33,3.65,4.97,2.46,5.95,6.29,2.93,12.2-1.6,3.13-3.65,5.87-7.6,6.19-.65-1.71,.67-3.22,.49-4.87-.12-1.08,.56-2.55-.95-3.02-1.82-.57-2.31,1.08-2.68,2.25-1.15,3.65-3.64,6.21-6.37,8.66-1.76,1.57-3.15,1.6-5.16,.05-8.91-6.86-14.18-7.24-23.92-1.13-3.17,1.99-4.75,1.36-7.17-.86-2.74-2.52-3.98-6.36-7.68-8.71v7.24Zm38.11-17.68c-.43-.88,.49-2.9-1.59-2.82-1.98,.08-1.84,2.17-1.99,3.49-.15,1.28,.42,2.93,2.09,2.77,1.86-.18,1.22-2,1.49-3.44Zm-22.01,.38c-.27-1.17,.53-3.1-1.39-3.05-1.51,.04-1.63,1.75-1.63,3.09,0,1.17,.13,2.61,1.44,2.73,2.14,.21,1.19-1.76,1.58-2.77Z"/><path class="g" d="M92.04,42.18c-2.82,.4-3.9-.51-4.33-3.65-.65-4.71-2.41-9.27-4.62-13.53-2.36-4.54-5.53-7.17-11.42-6.83-7.9,.46-15.93,.97-23.8-.89-2.25-.53-3.61,.59-4.94,2.38-4.26,5.77-6.95,12.26-8.94,19.04-.72,2.44-1.67,3.42-4.12,2.42-.1-4.98-.54-9.97-.25-14.92C30.59,10.51,39.42,1.53,55.07,.22c3.79-.32,7.65-.28,11.45,.04,15.99,1.35,24.89,10.75,25.56,26.97,.2,4.97-.01,9.96-.03,14.94Z"/><path class="g" d="M33.94,60.16v-7.24c3.7,2.35,4.94,6.19,7.68,8.71,2.42,2.23,4,2.85,7.17,.86,9.74-6.11,15-5.73,23.92,1.13,2.02,1.55,3.4,1.52,5.16-.05,2.74-2.45,5.23-5.01,6.37-8.66,.36-1.16,.86-2.82,2.68-2.25,1.51,.47,.83,1.95,.95,3.02,.18,1.66-1.14,3.17-.49,4.87l-.08,.03c-.71-.14-1.02,.21-1.07,.88-1.83,6.41-4.6,12.31-9.35,17.11-.73,.74-1.22,1.53-1.22,2.59-.65,.11-1.42,.03-1.93,.36-5.38,3.51-11.13,3.41-17.37,3.22-4.8-.15-7.39-3.84-11.5-4.44-5.03-5.97-8.61-12.71-10.93-20.15Zm19.89,4.33c4.84,6.36,9.04,6.25,12.29,0h-12.29Z"/><path class="e" d="M64.76,103.1c-1.36,4.51-2.72,9.01-4.33,14.37-1.7-5.23-3.15-9.69-4.59-14.16-3.63-4.72-7.4-9.3-12.04-13.09,0-.32,.05-.64,.14-.96,2.72-1.98,5.31,.42,8.05,.31,8.3-.33,16.15-2.63,24.14-4.38,1.07,1.51,.79,3.24,.81,4.92-4.44,3.97-8.61,8.19-12.17,12.99Z"/><path class="h" d="M64.76,103.1c3.56-4.8,7.73-9.01,12.17-12.99,4.26,1.16,5.45,5.39,8.13,8.13-3.13,5.5-7.7,9.81-11.79,14.53-1.57,1.81-2.12,.64-2.84-.52-1.91-3.04-3.78-6.1-5.67-9.15Z"/><path class="h" d="M43.79,90.22c4.64,3.78,8.42,8.37,12.04,13.09-1.71,2.59-3.49,5.14-5.1,7.79-1.31,2.15-2.92,2.96-4.56,.71-3.36-4.59-8.07-8.18-10.3-13.62,1.49-3.8,4.88-5.71,7.92-7.97Z"/><path class="d" d="M76.11,85.19c-7.99,1.75-15.84,4.04-24.14,4.38-2.75,.11-5.34-2.29-8.05-.31-.35-3.05,.16-6.02,.94-8.95,4.11,.6,6.7,4.29,11.5,4.44,6.24,.2,12,.3,17.37-3.22,.5-.33,1.28-.25,1.93-.36,.67,1.28,.66,2.64,.45,4.02Z"/><path class="e" d="M86.23,61.48c.04-.67,.36-1.01,1.07-.88-.35,.29-.71,.58-1.07,.88Z"/><path class="g" d="M72.05,42.48c-.27,1.44,.37,3.27-1.49,3.44-1.67,.16-2.24-1.49-2.09-2.77,.15-1.32,.01-3.41,1.99-3.49,2.08-.08,1.16,1.94,1.59,2.82Z"/><path class="g" d="M50.04,42.86c-.39,1.02,.55,2.98-1.58,2.77-1.31-.13-1.44-1.56-1.44-2.73,0-1.34,.12-3.05,1.63-3.09,1.92-.05,1.13,1.88,1.39,3.05Z"/><path class="f" d="M53.82,64.49h12.29c-3.25,6.25-7.44,6.36-12.29,0Z"/></g></g></g></svg>