<?xml version="1.0" encoding="UTF-8"?><svg xmlns="http://www.w3.org/2000/svg" viewBox="0 0 117.97 147.66"><defs><style>.d{fill:#348dba;}.e{fill:#8d3f3f;}.f{fill:#994346;}.g{fill:#fce9de;}.h{fill:#3d2744;}.i{fill:#266a8b;}</style></defs><g id="a"/><g id="b"><g id="c"><g><path class="f" d="M75.33,96.58c-.13,7.53,4.56,10.39,11.1,11.51,.61,.1,1.15,.57,1.72,.87-2.82,4.53-5.72,9.01-8.44,13.6-4.94,8.31-11.42,15.66-15.35,24.6-4.08,.66-8.16,.72-12.23-.12-.23-1.12-.16-2.45-.75-3.33-4.48-6.79-9.3-13.36-13.58-20.27-2.88-4.64-7.13-8.55-8.09-14.29,1.71-.65,3.37-1.57,5.14-1.9,4.7-.88,7.86-3.03,7.92-8.26,1.45-.3,3.01-1.12,4.32-.82,7.4,1.67,14.33-.65,21.36-2.15,2.41-.51,5.29-2.5,5.93,2.04l.95-1.47Z"/><path class="d" d="M.23,119.1c9.09-2.45,17.52-6.89,26.77-8.86-1.25,5.14-2.27,10.35-3.86,15.38-.73,2.31-.53,3.28,1.43,4.87,6.42,5.19,13.75,9.24,19.41,15.37-17.46-2.54-31.39-11.44-43.25-24.05-.79-.84-.92-1.7-.51-2.71Z"/><path class="d" d="M90.07,109.5c9.3,3.19,18.6,6.39,27.9,9.58-4.55,7.67-11.62,12.6-18.93,17.19-7.38,4.63-15.32,8.02-24.01,9.39,.31-2.01,1.86-3.09,3.28-4.16,4.61-3.46,9.26-6.86,13.95-10.2,1.85-1.32,3.05-2.36,2.12-5.18-1.8-5.42-2.91-11.07-4.31-16.62Z"/><path class="i" d="M90.07,109.5c1.4,5.55,2.52,11.2,4.31,16.62,.93,2.81-.26,3.85-2.12,5.18-4.69,3.34-9.35,6.74-13.95,10.2-1.42,1.07-2.98,2.15-3.28,4.16-3.5,.95-7.02,1.73-10.68,1.5,3.93-8.94,10.41-16.29,15.35-24.6,2.72-4.59,5.62-9.07,8.44-13.6,.64,.18,1.29,.36,1.93,.54Z"/><path class="i" d="M43.98,145.86c-5.66-6.14-12.99-10.18-19.41-15.37-1.97-1.59-2.16-2.56-1.43-4.87,1.59-5.03,2.61-10.24,3.86-15.38,.9-.37,1.81-.73,2.71-1.1,.95,5.74,5.21,9.65,8.09,14.29,4.29,6.91,9.1,13.48,13.58,20.27,.59,.89,.51,2.21,.75,3.33-2.82,.36-5.51-.24-8.15-1.18Z"/><path class="h" d="M34.86,75.36c-.17,0-.34,0-.5-.02-7.67-1.13-17.91-14.26-16.79-21.75,.54-3.58,.17-6.93-1.32-10.21-1.71-3.77-1.23-7.11,2.13-9.83,3.06-2.48,3.94-6.06,4.7-9.67,.82-3.84,2.51-6.84,6.72-7.78,2.88-.65,4.25-3.05,5.65-5.32,2.41-3.92,5.07-6.44,10.47-5.08,3.89,.98,7.66-1.4,11.1-3.42,1.88-1.1,3.73-2.68,5.95-2.18,6.78,1.53,13.51,3.29,20.23,5.1,1.29,.35,2.31,1.59,2.41,2.98,.32,4.39,3.04,6.77,6.66,8.57,3.23,1.61,4.99,4.38,5.47,7.88,.64,4.7,2.13,9.03,4.81,12.97,.73,1.06,1.6,2.57,1.37,3.65-1.26,6.07-2.54,12.17-4.49,18.03-.63,1.89-1.91,3.63-2.43,5.78-1.61,6.67-6.89,9.37-12.89,11.1-.41-2.96,.91-5.04,3.45-6.29,3.45-1.71,5.5-4.37,6.97-7.93,2.35-5.69,.53-9.96-5.32-10.76-1.97-.27-2.72-.81-3.21-2.84-2.25-9.24-7.08-16.94-14.38-23.14-2.46-2.09-4.68-2.53-7.67-1.16-5.52,2.54-11.37,3.71-17.44,2.56-1.68-.32-3.21-.23-4,1.11-3.32,5.62-7.22,10.99-8.22,17.69-.47,1.8-.94,3.61-1.4,5.41-8.96,.53-12.27,5.25-8.1,11.84,1.38,2.18,3.18,4.43,5.35,5.7,2.9,1.7,4.16,4,4.74,7.01Z"/><path class="f" d="M34.86,75.36c-.58-3.01-1.84-5.31-4.74-7.01-2.16-1.27-3.97-3.52-5.35-5.7-4.16-6.6-.86-11.31,8.1-11.84,.27,.61,.6,1.2,.79,1.83,1.88,6.21,4.67,8.28,11.02,8.38,8.36,.14,7.85-1.54,11.15-7.96,.73-1.43-.33-4.24,2.59-3.83,2.32,.33,3.48,2.18,3.71,4.61,.25,2.68,1.64,4.57,4.39,5.23,3.42,3.93,7.9,2.03,11.69,1.49,3.39-.48,5.32-4.08,5.58-7.41,.2-2.5,2.06-5.93-1.83-7.63-2.75-.22-5.49-.44-8.24-.65-2.63-2.89-5.2-2.99-7.72,.14-4.67,1.99-9.34,3.12-14.05,.12-.24-.15-.64-.06-.97-.08-2.28-3.57-4.61-3.86-6.98-.09-3.24,.15-6.48,.3-9.73,.45,1.01-6.7,4.91-12.07,8.22-17.69,.79-1.34,2.32-1.43,4-1.11,6.07,1.15,11.92-.02,17.44-2.56,2.98-1.37,5.21-.93,7.67,1.16,7.3,6.2,12.12,13.9,14.38,23.14,.49,2.03,1.24,2.57,3.21,2.84,5.85,.79,7.67,5.06,5.32,10.76-1.47,3.56-3.52,6.23-6.97,7.93-2.54,1.26-3.86,3.34-3.45,6.29-3.2,4.26-5.15,9.44-9.46,12.89-.73,.35-1.58,.55-2.16,1.07-8.44,7.5-21.89,5.73-29.06-2-4.35-3.26-6.28-8.13-8.56-12.78Zm16.06,.04c5.67,8.01,12.18,7.85,15.82,0h-15.82Z"/><path class="e" d="M43.42,88.13c7.17,7.73,20.63,9.5,29.06,2,.58-.51,1.43-.72,2.16-1.07,.23,2.51,.45,5.01,.68,7.52-.31,.49-.63,.98-.95,1.47-.65-4.55-3.53-2.56-5.93-2.04-7.03,1.5-13.96,3.82-21.36,2.15-1.31-.3-2.87,.52-4.32,.82,.17-2,.33-4,.5-6,.19-.51,.37-1.02,.56-1.53l-.4-3.32Z"/><path class="f" d="M43.83,91.45c-.19,.51-.37,1.02-.56,1.53,.19-.51,.37-1.02,.56-1.53Z"/><path class="d" d="M73.73,44.86c2.75,.22,5.49,.44,8.24,.65-.14,.53-.29,1.06-.43,1.59-4.31-.03-8.63-.17-12.94-.05-1.5,.04-3.69-.9-4.4,1.17-.74,2.17-.84,4.61,.64,6.64,.94,1.3,2.18,2.38,3.28,3.55-.53,.21-1.06,.43-1.59,.64-2.76-.66-4.14-2.55-4.39-5.23-.23-2.43-1.39-4.28-3.71-4.61-2.91-.41-1.85,2.4-2.59,3.83-3.3,6.42-2.79,8.1-11.15,7.96-6.35-.1-9.15-2.18-11.02-8.38-.19-.63-.52-1.22-.79-1.83,.47-1.81,.93-3.61,1.4-5.41,3.24-.15,6.49-.3,9.73-.45,2.33,.03,4.65,.06,6.98,.09,.33,.02,.73-.07,.97,.08,4.72,3,9.39,1.88,14.05-.12,2.57-.05,5.15-.09,7.72-.14Zm-29.13,2.14v.02c-1.33,0-2.67-.01-4,0-4.55,.05-6.23,2.81-4.34,7.11,1.72,3.91,7.94,6.15,11.86,4.28,3.87-1.84,6.65-4.83,5.67-9.12-.95-4.16-5.06-1.6-7.7-2.28-.47-.12-1-.02-1.49-.02Z"/><path class="g" d="M50.91,75.4h15.82c-3.64,7.85-10.15,8.01-15.82,0Z"/><path class="i" d="M66.53,59.06c.53-.21,1.06-.43,1.59-.65,10,1.75,14.86-2.35,13.42-11.31,.15-.53,.29-1.06,.43-1.59,3.9,1.71,2.03,5.14,1.83,7.63-.27,3.33-2.2,6.93-5.58,7.41-3.79,.54-8.28,2.43-11.69-1.49Z"/><path class="h" d="M73.73,44.86c-2.57,.05-5.15,.09-7.72,.14,2.52-3.13,5.1-3.03,7.72-.14Z"/><path class="h" d="M50.98,45.03c-2.33-.03-4.65-.06-6.98-.09,2.37-3.77,4.7-3.49,6.98,.09Z"/><path class="f" d="M81.54,47.11c1.44,8.96-3.42,13.06-13.42,11.31-1.1-1.17-2.34-2.25-3.28-3.55-1.48-2.03-1.37-4.47-.64-6.64,.71-2.07,2.9-1.13,4.4-1.17,4.31-.13,8.63,.01,12.94,.05Zm-12.24,2.18c-1.67,.56-1.17,2.08-1.25,3.3-.06,.99,.04,2.33,1.32,2.2,2.13-.21,1.63-2.1,1.65-3.5,.01-1.03-.29-1.99-1.72-2.01Z"/><path class="f" d="M44.6,47.01c.5,0,1.03-.1,1.49,.02,2.64,.68,6.74-1.89,7.7,2.28,.98,4.3-1.8,7.28-5.67,9.12-3.92,1.86-10.14-.37-11.86-4.28-1.89-4.3-.21-7.06,4.34-7.11,1.33-.01,2.67,0,4,0v-.02Zm3.21,7.84c1.48-.56,1.31-1.99,1.25-3.26-.05-1.13-.18-2.64-1.84-2.17-1.68,.47-1.11,2.15-1.14,3.38-.03,1.02,.2,2,1.73,2.04Z"/><path class="h" d="M69.29,49.29c1.43,.02,1.73,.98,1.72,2.01-.02,1.39,.48,3.28-1.65,3.5-1.28,.13-1.38-1.22-1.32-2.2,.08-1.22-.41-2.74,1.25-3.3Z"/><path class="h" d="M47.81,54.84c-1.53-.04-1.76-1.03-1.73-2.04,.03-1.23-.54-2.91,1.14-3.38,1.67-.47,1.79,1.04,1.84,2.17,.05,1.27,.23,2.69-1.25,3.26Z"/></g></g></g></svg>