<?xml version="1.0" encoding="UTF-8"?><svg xmlns="http://www.w3.org/2000/svg" viewBox="0 0 117.68 138.88"><defs><style>.d{fill:#de8861;}.e{fill:#fce9de;}.f{fill:#fcded3;}.g{fill:#dadde9;}.h{fill:#3d2744;}.i{fill:#f2a583;}</style></defs><g id="a"/><g id="b"><g id="c"><g><path class="g" d="M7.58,108.21c4.61-2.89,10.06-3.42,15.02-5.33,2.14,6.68,5.62,12.32,11.25,16.79,6.97,5.53,14.77,7.1,23.44,7.59,11.74,.67,21.93-1.48,30.65-10.05,3.78-3.71,5.92-8.24,8.86-12.36,4.91-1.75,8.48,2.89,13.24,2.84,1.53-.01,.42,4.14,.91,6.33,.17,1.3-.43,2.78,.91,3.8-3.17,5.13-8.48,7.74-13.35,10.57-13.33,7.74-27.96,11.15-43.31,10.38-16.49-.82-31.16-6.93-44.26-16.91-1.12-.85-1.69-2.01-2.22-3.22,0-1.21,.02-2.41,.02-3.62-.02-1.43,.65-3.02-.97-4.08-.06-.91-.12-1.83-.19-2.74Z"/><path class="i" d="M8.73,115.03c0,1.21-.01,2.42-.02,3.62-4.22-1.6-6.96-4.68-8.71-8.74,2.61-.19,4.79-2.31,7.58-1.7,.06,.92,.12,1.83,.18,2.75,.05,1.42-.28,2.94,.97,4.08Z"/><path class="i" d="M111.85,117.82c-1.34-1.02-.74-2.5-.91-3.8,.26-.41,.61-.78,.75-1.22,.47-1.52-.39-3.86,2.53-3.8,2.51,.05,3.34,1.57,3.47,3.76-1.66,2.02-3.28,4.07-5.83,5.06Z"/><path class="i" d="M85.83,41.91c.44,.86,1.22,.95,2.08,1.01,5.81,.42,8.25,4.32,6.03,9.72-1.54,3.73-3.43,7.19-7.45,8.91-.87,.37-2.05,1.01-2.27,1.77-2,6.97-7.06,12.21-10.28,18.48l-.25,.22c-1.78-.43-3.17,.59-4.66,1.26-7.66,3.42-15.22,3.84-22.69-.59-.93-.55-1.87-1.39-3.19-.88-.89,1.92,.52,4.34-1.27,6.07,.78-5.36-.58-10-4.33-14.02-1.09-1.17-1.77-2.82-2.3-4.37-1.57-4.55-3.49-8.42-8-11.28-4.04-2.55-5.23-7.47-4.4-12.42,.57-3.41,3.36-3.64,6.01-4.02,3.97,1.14,3.21-2.57,3.73-4.16,2.03-6.21,4.65-12.08,8.2-17.55,1.04-1.61,1.86-2.89,4.3-2.26,7.68,1.99,15.55,1.28,23.34,1.11,8.52-.19,10.09,.55,13.56,8.53,1.45,3.34,2.74,6.79,3.05,10.49,.23,.4,.46,.79,.69,1.19l.12,2.79Zm-19.91,24.14c-4.22,2.48-8.74,1.89-13.27,1.3,5.69,3.39,8.02,3.19,13.27-1.3Zm2.56-19.67c1.61-.71,1.66-2.19,1.66-3.65,0-1.17-.26-2.71-1.69-2.35-1.89,.49-1.74,2.44-1.7,4.05,.03,1.05,.41,1.89,1.72,1.94Zm-21.91,0c1.88-.7,1.55-2.35,1.6-3.78,.03-.99-.19-2.38-1.4-2.17-2.16,.38-1.82,2.39-1.85,3.96-.02,1.02,.33,1.97,1.66,1.99Z"/><path class="i" d="M96.79,104.86c-2.94,4.11-5.08,8.64-8.86,12.36-8.72,8.57-18.9,10.72-30.65,10.05-8.67-.49-16.47-2.06-23.44-7.59-5.64-4.48-9.11-10.12-11.25-16.79,3.22-2.58,7.24-3.33,11.03-4.28,4.86-1.21,8.04-3.44,8.28-8.75,9.72,.48,19.29-.33,28.62-3.32,2.34-.75,3.78-1.83,3.16-4.51l.25-.22c1.65,3.51,.6,7.41,1.67,11.09,.68,2.34,1.29,3.6,3.83,4.23,4.43,1.09,8.78,2.63,13.05,4.25,1.7,.64,4.02,.94,4.29,3.5Z"/><path class="e" d="M85.83,41.91c-.04-.93-.08-1.86-.12-2.79-.23-.4-.46-.79-.69-1.19-.31-3.7-1.59-7.15-3.05-10.49-3.47-7.98-5.03-8.71-13.56-8.53-7.8,.17-15.67,.89-23.34-1.11-2.43-.63-3.25,.66-4.3,2.26-3.55,5.48-6.17,11.35-8.2,17.55-.52,1.6,.24,5.3-3.73,4.16-2.49-7.81-1.08-15.62-.08-23.45,.26-2.01,1.25-3.49,2.46-4.77C42.05,2.18,55.27-2.38,70.95,1.19c5.91,1.35,11.53,3.81,17.77,3.8,2.77,0,1.86,2.25,.91,3.08-4.23,3.76-1.91,7.73-1,11.88,1.34,6.09,2.71,12.16,1.4,18.58-.59,2.9-1.7,3.62-4.21,3.37Z"/><path class="d" d="M73.7,82.02c.62,2.68-.82,3.76-3.16,4.51-9.33,2.99-18.9,3.8-28.62,3.32,0-.66-.02-1.31-.02-1.97,1.79-1.73,.38-4.15,1.27-6.07,1.31-.51,2.26,.33,3.19,.88,7.47,4.43,15.04,4,22.69,.59,1.49-.66,2.88-1.69,4.66-1.26Z"/><path class="f" d="M8.73,115.03c-1.25-1.14-.92-2.65-.97-4.08,1.62,1.05,.95,2.65,.97,4.08Z"/><path class="d" d="M65.92,66.05c-5.25,4.49-7.57,4.69-13.27,1.3,4.52,.59,9.04,1.18,13.27-1.3Z"/><path class="h" d="M68.48,46.38c-1.32-.05-1.69-.89-1.72-1.94-.04-1.61-.2-3.56,1.7-4.05,1.42-.37,1.69,1.18,1.69,2.35,0,1.46-.05,2.94-1.66,3.65Z"/><path class="h" d="M46.58,46.37c-1.32-.02-1.68-.97-1.66-1.99,.03-1.57-.31-3.59,1.85-3.96,1.21-.21,1.43,1.18,1.4,2.17-.05,1.43,.28,3.08-1.6,3.78Z"/><path class="f" d="M85.03,37.93c.23,.4,.46,.79,.69,1.19-.23-.4-.46-.79-.69-1.19Z"/></g></g></g></svg>