<?xml version="1.0" encoding="UTF-8"?><svg xmlns="http://www.w3.org/2000/svg" viewBox="0 0 117.98 138.45"><defs><style>.d{fill:#f70c67;}.e{fill:#de8861;}.f{fill:#fce9de;}.g{fill:#3d2744;}.h{fill:#e16e2a;}.i{fill:#f2a583;}</style></defs><g id="a"/><g id="b"><g id="c"><g><path class="d" d="M0,111.07c.19-1.39,1.24-1.76,2.37-2.16,8.55-2.96,17.09-5.96,25.64-8.94,1.94,3.83,3.69,7.77,5.85,11.47,10.1,17.26,30.3,19.34,43.83,4.76,4.41-4.76,6.01-10.99,9.36-16.27,8.66,3.05,17.35,6.03,25.97,9.22,1.74,.64,3.93,.81,4.95,2.84-19.93,21.29-44.25,30.06-73.1,25.09-18.07-3.12-32.84-12.3-44.88-26.02Z"/><path class="i" d="M89.02,39.12c1.23,1.65,1.94,3.56,3.29,5.23,3.54,4.38,.42,13.09-5.75,16.19-2.13,1.07-3.26,2.31-4.12,4.43-1.85,4.56-3.76,9.18-7.48,12.63-1.64,1.53-2,3.32-1.79,5.38l-.24,.17c-1.64-1.56-3.27-.96-4.99-.07-1.6,.82-3.17,1.63-5.01,2.01-7.24,1.49-13.87-.18-20.08-3.83-1.43,1.96-.06,4.31-1.64,5.86l-.25-.15c.59-4.81,.24-9.27-3.94-12.65-.84-.68-1.19-1.97-1.76-2.98-2.75-4.91-3.49-10.79-9.38-14.1-3.6-2.03-6.77-7.81-3.91-11.15,5.92-6.9,3.31-14.48,4.16-21.8,.09-.77,.59-1.48,.91-2.23,.76,6.75-1.65,13.9,2.35,21.75,3.53-9.1,5.36-17.29,10.59-24,1.48-1.9,1.97-2.63,4.5-1.24,6.74,3.71,13.89,6.17,21.88,4.55,2.8-.57,5.07,.62,6.85,3.07,5.07,6.97,3.87,14.38,1.89,21.9-.08,.13-.15,.25-.23,.38l.18-.43c3.72-.57,4.97-4.14,7.49-6.18,.64-.52,.68-1.91,2.2-1,2.71,1.62,2.78,1.5,4.29-1.73Zm-31.59,26.92c-.49,0-1.02-.11-1.47,.02-2.11,.59-6.01-1.52-6.06,1.48-.05,2.75,3.59,4.33,6.76,4.58,1.65,.13,3.25-.06,4.79-.83,1.75-.87,3.4-2.28,3.11-4.05-.36-2.23-2.71-.94-4.17-1.19-.96-.16-1.97-.03-2.95-.02Zm.04-27.92c-2.44,5.21-3.07,10.75-4.01,16.22-.31,1.81-1.02,3.81,.79,5.01,1.61,1.06,3.55,1.11,5.71-.24-5.82-1.84-5.38-1.78-4.55-8.11,.57-4.37,3.31-8.31,2.07-12.88Zm11.66,4.65c-.15-1.16-.04-2.71-1.61-2.59-1.75,.13-1.6,1.85-1.67,3.13-.06,1.13-.15,2.77,1.32,2.77,2.02,0,1.76-1.93,1.96-3.3Zm-23.74,3.34c1.27-.26,1.68-1.22,1.73-2.41,.05-1.42,.44-3.21-1.5-3.55-.99-.18-1.44,1.12-1.55,2.11-.16,1.41-.52,2.93,1.31,3.85Z"/><path class="i" d="M87.06,99.94c-3.36,5.28-4.95,11.51-9.36,16.27-13.53,14.58-33.73,12.5-43.83-4.76-2.16-3.7-3.91-7.64-5.85-11.47,.12-.12,.21-.31,.35-.35,6.57-1.86,13.62-3.24,12.58-12.66l.25,.15c.09,1.14,.64,1.84,1.84,1.9,8.97,.45,17.88,.17,26.47-2.78,1.44-.49,3.36-.89,3.42-3.09l.24-.17c.18,.27,.54,.57,.51,.82-1.3,10.17,4.59,14.36,13.38,16.15Z"/><path class="h" d="M75.09,48.08c1.98-7.52,3.18-14.93-1.89-21.9-1.78-2.44-4.05-3.64-6.85-3.07-7.99,1.63-15.14-.83-21.88-4.55-2.53-1.39-3.02-.66-4.5,1.24-5.23,6.72-7.07,14.91-10.59,24-4-7.85-2.98-12.19-3.74-18.94-.31-2.13,1.88-7.12,3.16-8.32,5.92-5.51,10.39-13.19,18.95-15.03,9.84-2.11,19.87-2.65,29.07,2.59,8.81,5.03,11.79,13.47,12.21,23.06,.17,3.97,.01,7.96,0,11.95-1.51,3.24-1.58,3.35-4.29,1.73-1.52-.91-1.56,.48-2.2,1-2.51,2.04-3.76,5.61-7.49,6.18l.05,.05Z"/><path class="e" d="M72.92,83.14c-.06,2.21-1.98,2.6-3.42,3.09-8.59,2.95-17.5,3.23-26.47,2.78-1.21-.06-1.76-.76-1.84-1.9,1.59-1.56,.21-3.91,1.65-5.86,6.22,3.65,12.84,5.33,20.08,3.83,1.84-.38,3.42-1.19,5.01-2.01,1.72-.89,3.34-1.49,4.99,.07Z"/><path class="f" d="M57.43,66.03c.99,0,1.99-.13,2.95,.02,1.47,.24,3.81-1.04,4.17,1.19,.29,1.77-1.36,3.18-3.11,4.05-1.54,.77-3.14,.96-4.79,.83-3.17-.25-6.81-1.84-6.76-4.58,.05-3,3.94-.89,6.06-1.48,.46-.13,.98-.02,1.47-.03Z"/><path class="e" d="M57.48,38.12c1.24,4.57-1.51,8.52-2.07,12.88-.82,6.34-1.27,6.28,4.55,8.11-2.15,1.35-4.1,1.3-5.71,.24-1.81-1.2-1.1-3.2-.79-5.01,.94-5.47,1.57-11.01,4.01-16.22Z"/><path class="g" d="M69.13,42.76c-.2,1.37,.05,3.3-1.96,3.3-1.47,0-1.39-1.64-1.32-2.77,.07-1.27-.08-2.99,1.67-3.13,1.57-.12,1.46,1.43,1.61,2.59Z"/><path class="g" d="M45.4,46.1c-1.83-.92-1.47-2.43-1.31-3.85,.11-1,.56-2.29,1.55-2.11,1.93,.34,1.55,2.13,1.5,3.55-.05,1.2-.46,2.15-1.73,2.41Z"/><path class="h" d="M75.04,48.03l-.18,.43c.08-.13,.15-.25,.23-.38l-.05-.05Z"/></g></g></g></svg>