<?xml version="1.0" encoding="UTF-8"?><svg xmlns="http://www.w3.org/2000/svg" viewBox="0 0 118.14 138.29"><defs><style>.d{fill:#348dba;}.e{fill:#8d3f3f;}.f{fill:#994346;}.g{fill:#fce9de;}.h{fill:#3d2744;}.i{fill:#266a8b;}</style></defs><g id="a"/><g id="b"><g id="c"><g><path class="d" d="M81.12,97.62c12.59,3.61,24.8,8.29,37.02,12.94-3.89,6.4-9.74,10.77-15.79,14.82-12.77,8.53-26.86,12.94-42.28,12.92,1.64-.98,3.46-1.43,4.42-3.58,3.3-7.4,7.24-14.52,10.31-22.01,2.06-5.05,5.43-9.56,6.32-15.08Z"/><path class="i" d="M81.12,97.62c-.9,5.52-4.26,10.03-6.32,15.08-3.06,7.49-7,14.61-10.31,22.01-.96,2.16-2.78,2.6-4.42,3.58-.72-.01-1.43-.03-2.15-.04-3.4-.39-5.38-2.2-6.48-5.53-.93-2.81-2.66-5.35-3.89-8.07-4.1-9.05-9.74-17.38-12.53-27.04,1.62-.46,3.24-.92,4.86-1.39,7.24,1.73,14.53,2.57,22.02,2.31,5.15-.18,9.8-3.03,15.03-2.31,1.4,.46,2.8,.93,4.2,1.39Z"/><path class="d" d="M35.02,97.61c2.79,9.65,8.43,17.99,12.53,27.04,1.23,2.72,2.97,5.26,3.89,8.07,1.1,3.33,3.08,5.14,6.48,5.53-22.86-.38-41.7-9.47-56.94-26.31-.51-.56-.66-1.45-.99-2.18,11.67-4.05,23.35-8.09,35.02-12.14Z"/><path class="f" d="M42.37,78.63c-4.74-3.32-6.8-8.41-8.66-13.52-1-2.75-2.13-4.76-5.01-6.19-4.34-2.15-6.17-6.47-6.36-11.13-.13-3.08,.88-5.98,4.84-6.22,2.08,1.18,4.12,1.91,4.7-1.45,1.31-7.61,5.2-14.09,8.86-20.67,1.13-2.03,2.73-2.87,5.23-2.88,4.93-.03,10.06,1.22,14.75-.93,5.2-2.38,9.12-.95,12.83,2.93,5.73,5.99,9.36,13.14,11.79,20.91,.82,2.61,2.18,3.42,4.64,2.99,3.54,.57,4.37,3.11,4.36,6.15,0,4.83-2.03,9.08-6.18,11.11-3.4,1.67-4.82,3.98-5.87,7.18-1.72,5.29-5.43,9.36-8.75,13.66-1.35,.58-2.8,1-4.04,1.76-8.59,5.25-19.97,3.75-27.15-3.7Zm23.77-12.36h-16.09c5.19,7.83,11.35,7.77,16.09,0Zm-7.71-27.72c-2.65,5.57-3.72,11.52-4.35,17.51-.37,3.49,.21,3.66,5.57,2.82-1.73-.44-3.06-.78-3.3-1.98-1.24-6.34,2.11-12.12,2.07-18.35Zm11.56,4.34c-.13-1.23,.33-2.98-1.56-3.01-1.85-.03-2.28,1.54-2.31,3.12-.02,1.34,.09,2.93,1.71,3.03,2.02,.12,2.01-1.69,2.15-3.14Zm-21.97-.41c-.19-.89,.3-2.33-1.1-2.36-1.78-.04-1.9,1.53-1.91,2.86-.01,1.15,.03,2.59,1.7,2.34,1.54-.24,1.18-1.73,1.3-2.83Z"/><path class="h" d="M89.99,42.47c-2.47,.42-3.83-.38-4.64-2.99-2.44-7.77-6.06-14.92-11.79-20.91-3.71-3.88-7.63-5.32-12.83-2.93-4.7,2.15-9.83,.91-14.75,.93-2.5,.01-4.1,.85-5.23,2.88-3.66,6.58-7.56,13.06-8.86,20.67-.58,3.36-2.62,2.63-4.7,1.45,1.5-2.73,.05-5.51,.1-8.26,.15-9-.79-18.4,9.61-23.11C44.29-1.51,56.02-.43,67.24,.59c13.69,1.24,21.6,10.64,22.72,25.92,.39,5.29,.04,10.64,.03,15.95Z"/><path class="f" d="M76.93,96.23c-5.22-.72-9.88,2.13-15.03,2.31-7.49,.26-14.78-.58-22.02-2.31,1.63-1.6,.71-3.98,1.75-5.76,4.57-1.93,9.43-.57,14.15-1.22,6.31-.87,12.38-2.39,18.29-4.69,1.36,3.79,.42,8.15,2.86,11.67Z"/><path class="e" d="M74.07,84.56c-5.91,2.29-11.98,3.81-18.29,4.69-4.71,.65-9.57-.7-14.15,1.22,.25-3.95,.49-7.89,.74-11.84,7.18,7.45,18.55,8.95,27.14,3.7,1.24-.76,2.69-1.18,4.04-1.76,.17,1.33,.34,2.66,.51,3.99Z"/><path class="g" d="M66.14,66.27c-4.75,7.77-10.9,7.83-16.09,0h16.09Z"/><path class="e" d="M58.43,38.55c.04,6.23-3.32,12.01-2.07,18.35,.23,1.2,1.56,1.54,3.3,1.98-5.37,.84-5.94,.67-5.57-2.82,.63-5.99,1.7-11.94,4.35-17.51Z"/><path class="h" d="M69.99,42.89c-.14,1.45-.13,3.26-2.15,3.14-1.62-.09-1.73-1.69-1.71-3.03,.02-1.58,.46-3.15,2.31-3.12,1.89,.03,1.42,1.78,1.56,3.01Z"/><path class="h" d="M48.02,42.48c-.13,1.1,.24,2.59-1.3,2.83-1.68,.26-1.72-1.18-1.7-2.34,.02-1.33,.13-2.9,1.91-2.86,1.4,.03,.9,1.48,1.1,2.37Z"/></g></g></g></svg>