<?xml version="1.0" encoding="UTF-8"?><svg xmlns="http://www.w3.org/2000/svg" viewBox="0 0 98.8 122.99"><defs><style>.d{fill:#de8861;}.e{fill:#fce9de;}.f{fill:#fcded3;}.g{fill:#3d2744;}.h{fill:#976ca2;}.i{fill:#f2a583;}</style></defs><g id="a"/><g id="b"><g id="c"><g><path class="h" d="M73.02,90.44c.61,.15,1.22,.3,1.83,.44,.31,.32,.62,.63,.93,.95l-.03-.02c.15,4.16,1.23,8.12,2.41,12.08,2.37,7.95,2.33,7.96,10.67,7.98-7.82,5.73-16.85,8.63-26.19,10.02-18.71,2.78-36.68,.55-52.96-10.03,2,0,3.99-.03,5.99,0,1.62,.03,2.8-.24,3.26-2.2,1.42-6.12,3.73-12.04,4.11-18.39,.92-.21,1.83-.42,2.75-.62-1.25,5.8-2.26,11.68-3.85,17.39-.92,3.3-.13,3.96,3.06,3.93,15.79-.11,31.58,0,47.37-.03,4.84,0,5.11-1.28,3.75-6.17-1.38-4.99-3.36-9.96-3.1-15.32Z"/><path class="i" d="M23.03,91.27c-.38,6.35-2.68,12.27-4.11,18.39-.46,1.97-1.64,2.23-3.26,2.2-1.99-.03-3.99,0-5.99,0-4.03-.84-6.25-4.47-9.68-6.25-.08-4.95,2.42-8.15,6.91-9.82,5.24-1.96,10.4-4.28,16.12-4.53Z"/><path class="i" d="M88.84,111.88c-8.34-.02-8.3-.03-10.67-7.98-1.18-3.96-2.27-7.92-2.41-12.08,6.54-.41,12.28,2.16,17.87,5.02,3.12,1.59,4.71,4.5,5.18,7.98-.32,.4-.65,.79-.97,1.19-.3,.28-.61,.57-.91,.85l-.08,.08c-.35,.28-.71,.57-1.06,.85-2.38,1.24-3.99,3.8-6.93,4.09Z"/><path class="f" d="M95.77,107.8c.35-.28,.71-.57,1.06-.85-.35,.29-.71,.57-1.06,.85Z"/><path class="f" d="M96.92,106.86c.3-.28,.61-.57,.91-.85-.3,.29-.61,.57-.91,.85Z"/><path class="i" d="M73.02,90.44c-.27,5.36,1.72,10.33,3.1,15.32,1.36,4.9,1.08,6.17-3.75,6.17-15.79,.02-31.58-.08-47.37,.03-3.2,.02-3.98-.63-3.06-3.93,1.59-5.71,2.6-11.58,3.85-17.39,1.05-.44,2.07-1.2,3.15-1.27,5.45-.35,7.84-3.68,8.74-8.59,.37-.66,.73-1.32,1.09-1.98,5.77,.07,11.48,.06,17.13-1.72,2.82-.89,3.38-2.01,2.34-4.69-4.77,2.81-9.71,3.1-14.83,1.5-2.02-.63-3.79-.58-4.49,1.92-.29-1.43,.5-3.3-.87-4.25-6.17-4.26-7.31-12.84-14.68-16.36-3.06-1.46-4.65-5.67-4.36-9.54,.29-3.83,2.53-5.97,6.58-6.01,.42,0,1.07-.79,1.23-1.33,2.85-9.55,12.58-13.48,17.45-21.37,.81-1.31,2.38-1.68,3.39-.38,2.98,3.85,7.5,4.62,11.63,6.22,.65,1.41,1.89,.68,2.89,.78,.7,1.38,2.81-.3,2.94,.89,.52,4.61,4.25,7.71,5.32,11.98,.62,2.46,1.34,4.01,4.58,3.6,2.86-.36,4.44,1.99,4.69,4.76,.44,4.85-1.2,9.24-5.48,11.4-3.69,1.86-5.74,4.6-7.65,7.9-1.07,1.85-2.31,3.73-3.9,5.1-3.61,3.11-3.83,6.6-1.92,10.59,.05,8.21,6.8,8.67,12.27,10.62Z"/><path class="e" d="M59.28,22.81c-4.12-1.6-8.64-2.38-11.63-6.22-1.01-1.3-2.58-.92-3.39,.38-4.88,7.89-14.6,11.82-17.45,21.37-.16,.54-.8,1.33-1.23,1.33-4.05,.03-6.3,2.17-6.58,6.01-.29,3.87,1.3,8.08,4.36,9.54,7.37,3.51,8.51,12.09,14.68,16.36,1.37,.95,.58,2.82,.87,4.25-.05,1-.1,1.99-.16,2.99-.36,.66-.73,1.32-1.09,1.98-6.71-.87-13.33-2.2-20.19-2.18-4.8,.02-7.31-3.83-7.72-9.19-.91-11.86,2.68-22.92,5.8-34.07,2.1-7.49,4.47-14.8,8.63-21.55C30.25,3.96,44.53-2.18,55.63,.73c1.71,.45,3.16,1.25,4.34,2.27,4.64,3.98,9.22,7.81,14.76,10.74,4.43,2.34,4.84,8.31,7.1,12.63,6.11,11.67,8.76,24.13,8.97,37.23,.19,11.97-6,15.86-16.45,15.04-4.73-.37-9.12,.24-13.61,1.18-1.91-3.99-1.69-7.48,1.92-10.59,1.59-1.37,2.84-3.26,3.9-5.1,1.91-3.3,3.95-6.04,7.65-7.9,4.28-2.16,5.92-6.55,5.48-11.4-.25-2.77-1.82-5.11-4.69-4.76-3.24,.41-3.96-1.14-4.58-3.6-1.07-4.28-4.8-7.37-5.32-11.98-.14-1.2-2.25,.49-2.94-.89,1.75-2.13,4.3-3.64,5.78-6.69-4.66,.32-5.24,5.09-8.67,5.91Z"/><path class="i" d="M75.78,91.84c-.31-.32-.62-.63-.93-.95,.31,.32,.62,.63,.93,.95Z"/><path class="d" d="M38.76,78.81c.05-1,.1-1.99,.16-2.99,.7-2.5,2.48-2.55,4.49-1.92,5.12,1.59,10.06,1.3,14.83-1.5,1.04,2.68,.47,3.8-2.34,4.69-5.65,1.79-11.36,1.79-17.13,1.72Z"/><path class="h" d="M59.28,22.81c3.44-.82,4.01-5.59,8.67-5.91-1.48,3.06-4.03,4.57-5.78,6.69-1.01-.11-2.24,.63-2.9-.78Z"/><path class="g" d="M60.68,38.58c-.26,1.3,.14,3.23-1.87,3.34-1.41,.08-1.59-1.4-1.48-2.55,.13-1.36-.14-3.23,1.82-3.38,1.55-.11,1.43,1.41,1.53,2.58Z"/><path class="g" d="M41.36,38.33c-.26,1.3,.14,3.23-1.87,3.34-1.41,.08-1.59-1.4-1.48-2.55,.13-1.36-.14-3.23,1.82-3.38,1.55-.11,1.43,1.41,1.53,2.58Z"/></g></g></g></svg>