<?xml version="1.0" encoding="UTF-8"?><svg xmlns="http://www.w3.org/2000/svg" viewBox="0 0 104.16 126.31"><defs><style>.d{fill:#8d3f3f;}.e{fill:#994346;}.f{fill:#3d2744;}.g{fill:#bac3df;}.h{fill:#fefefd;}</style></defs><g id="a"/><g id="b"><g id="c"><g><path class="g" d="M0,104.57c3.89-6.14,9.26-10.09,16.51-11.44,1.02-.19,1.88-1.24,2.82-1.89,4.42,1.06,8.26-1.91,12.54-1.83-.27,7.1-.55,14.21-.81,21.31-.08,2.1-.07,4.43,3.05,3.51,11.71-3.42,23.44-3.64,35.28-.77,3.23,.78,4.89-.33,4.65-4.12-.41-6.41-2.06-12.79-.72-19.26,2.83-.09,5.56,.41,8.23,1.32,9.32,1.33,18.17,3.46,22.6,13.18-.53,2.73-2.74,4.12-4.69,5.58-13.11,9.81-27.95,15.66-44.22,16.1-19.09,.52-36.73-4.84-51.87-17.02-1.5-1.21-3.32-2.36-3.38-4.69Z"/><path class="e" d="M25.18,55.55c-1.77-2.19-3.39-4.48-3.99-7.29-.81-3.8,.25-6.83,3.86-8.7,2.21,.21,4.17-.02,3.85-2.98-.36-3.31,.85-6.35,2.22-9.07,2.06-4.08,3.28-9.44,9.12-9.97,3.45-.32,7.09-.42,10.44,.29,8.12,1.73,15.13,4.11,16.45,15.44,.66,5.65,2.93,7.22,8.48,6.62,1.26-.14,2.58,.31,3.87,.48,4.71,6.62,2.4,12.81-5.59,15.46-2.57,.85-2.88,3.34-2.93,5.73-3.59,3.46-5.93,8.06-10.1,10.99-6.54,2.44-13.08,2.61-19.62-.01-4.57-3.9-7.74-8.81-10.38-14.12-.46-3.79-3.52-2.45-5.68-2.86Z"/><path class="f" d="M79.48,40.37c-1.29-.18-2.61-.62-3.87-.48-5.55,.6-7.82-.97-8.48-6.62-1.32-11.32-8.32-13.71-16.45-15.44-3.36-.71-6.99-.61-10.44-.29-5.84,.53-7.05,5.89-9.12,9.97-1.38,2.72-2.58,5.76-2.22,9.07,.32,2.95-1.64,3.18-3.85,2.98-1.62-5.33-2.2-10.74-1.16-16.26,.47-2.49,1-5.44,3.08-6.63,6.43-3.66,6.88-12.69,15.04-15.08,19.57-5.74,39.71,4.27,39.2,27.99-.08,3.67-.6,7.28-1.74,10.79Z"/><path class="f" d="M30.86,58.42c2.64,5.31,5.82,10.23,10.38,14.12-.09,2.01-.18,4.01-.27,6.02-1.98,2.78-1.82,6.49-4.03,9.16-1.85,.09-3.51,.76-5.08,1.69-4.28-.08-8.12,2.89-12.54,1.83,.24-5.53,1.95-10.07,6.86-13.48,3.68-2.55,5.47-6.45,3.98-11.34-.56-1.83-.17-3.94-.22-5.92,.31-.69,.61-1.39,.92-2.08Z"/><path class="f" d="M60.87,72.55c4.16-2.93,6.51-7.53,10.1-10.99,.27,7.19,2.2,13.55,7.66,18.78,2.95,2.83,3.49,6.97,2.94,11.07-2.67-.91-5.4-1.41-8.23-1.32-2.13-.62-4.26-1.25-6.39-1.87-4.27-2.73-3.45-8.01-5.87-11.68l-.21-3.99Z"/><path class="g" d="M30.86,58.42c-.31,.7-.61,1.39-.92,2.08-3.85,.53-3.85-2.65-4.77-4.95,2.17,.42,5.22-.92,5.68,2.87Z"/><path class="g" d="M73.73,60.67c-.7-.28-1.41-.57-2.11-.85-.65-3.83,2.53-3.94,4.79-4.92-.35,2.18,1.09,5.19-2.68,5.77Z"/><path class="h" d="M66.94,88.21c2.13,.63,4.26,1.25,6.39,1.88-1.35,6.47,.31,12.85,.72,19.26,.24,3.79-1.42,4.9-4.65,4.12-11.85-2.87-23.58-2.65-35.28,.77-3.12,.91-3.13-1.41-3.05-3.51,.26-7.1,.54-14.21,.81-21.31,1.57-.94,3.23-1.6,5.08-1.69,1.26,6.18,2.41,12.4,6.59,17.49,5.4,6.57,11.55,6.56,16.94,.01,4.08-4.95,5.35-10.94,6.47-17Z"/><path class="d" d="M60.87,72.55c.07,1.33,.14,2.66,.21,3.99-6.66,1.06-13.26,2.8-20.11,2.02,.09-2.01,.18-4.01,.27-6.02,6.54,2.63,13.08,2.45,19.62,.01Z"/><path class="e" d="M40.97,78.55c6.85,.79,13.44-.96,20.11-2.02,2.41,3.66,1.59,8.95,5.87,11.68-1.12,6.06-2.4,12.05-6.47,17-5.39,6.55-11.54,6.56-16.94-.01-4.18-5.08-5.33-11.31-6.59-17.49,2.21-2.67,2.05-6.39,4.03-9.16Z"/><path class="f" d="M61.73,37.96c-.26,1.3,.14,3.23-1.87,3.34-1.41,.08-1.59-1.4-1.48-2.55,.13-1.36-.14-3.23,1.82-3.38,1.55-.11,1.43,1.41,1.53,2.58Z"/><path class="f" d="M42.41,37.71c-.26,1.3,.14,3.23-1.87,3.34-1.41,.08-1.59-1.4-1.48-2.55,.13-1.36-.14-3.23,1.82-3.38,1.55-.11,1.43,1.41,1.53,2.58Z"/></g></g></g></svg>