<?xml version="1.0" encoding="UTF-8"?><svg xmlns="http://www.w3.org/2000/svg" viewBox="0 0 99.22 123.53"><defs><style>.d{fill:#f70c67;}.e{fill:#de8861;}.f{fill:#3d2744;}.g{fill:#976ca2;}.h{fill:#f2a583;}</style></defs><g id="a"/><g id="b"><g id="c"><g><path class="g" d="M17.74,92.69c.67-.56,1.33-1.13,2-1.69,.18,.24,.24,.52,.18,.82,.06,5.81,.2,11.61,.13,17.42-.03,2.65,.68,3.91,3.63,3.89,16.26-.1,32.52-.11,48.78,0,3.02,.02,3.58-1.36,3.55-3.95-.06-5.64,.09-11.28,.16-16.92,.86-.06,1.72-.13,2.58-.19-1.59,8.51-.68,17.09-.73,25.65-19.61,8.24-39.16,7.4-58.66-.41-.57-.23-.96-.88-1.44-1.33-.06-7.76-.12-15.52-.18-23.28Z"/><path class="h" d="M78.01,117.7c.05-8.55-.87-17.14,.73-25.65,4.72,.18,8.93,2.25,13.28,3.75,3.84,1.32,5.57,4.8,7.2,8.21-5.19,7.48-13.17,10.62-21.21,13.69Z"/><path class="h" d="M17.74,92.69c.06,7.76,.12,15.52,.18,23.28-7.14-1.75-12.86-5.82-17.92-10.97,.28-5.03,3.54-7.7,7.78-9.31,3.23-1.23,6.63-2.02,9.96-3Z"/><path class="h" d="M76.17,92.25c-.07,5.64-.22,11.28-.16,16.92,.03,2.59-.53,3.96-3.55,3.95-16.26-.1-32.52-.09-48.78,0-2.94,.02-3.66-1.25-3.63-3.89,.07-5.8-.07-11.61-.13-17.42,1.76-.39,3.49-.96,5.27-1.13,7.9-.72,12.93-4.43,13.66-12.77,7.74,2.78,17.91,.79,20.22-4.67-6.73,2.24-13.03,1.88-19.24-.18-3.31-3.38-7.04-6.41-9.08-10.86-1.08-2.01-1.97-4.15-3.28-5.99-1.59-2.22-1.92,.06-2.58,.96-2.26-2.19-4.06-4.55-5.06-7.7-1.38-4.36,.22-7.28,3.43-9.83,2.09,.85,3.39,.67,3.63-2.08,.22-2.46,.78-4.93,1.52-7.29,3.46-11.02,10.71-17.06,20.51-17.26,11.91-.25,20.66,7.74,22.75,21.85,.68,4.58,2.35,5.86,6.41,5.32,3.88,6.3,2.52,11.75-4.19,16.8-.84-.06-1.51-2.54-2.43-.32-.67,1.63-.86,3.46-1.26,5.2-7.44,4.6-10.92,11.85-9.27,18.89,1.11,4.75,3.27,8,8.6,8.75,2.27,.32,4.92,.68,6.65,2.74Z"/><path class="f" d="M78.08,40.19c-4.07,.53-5.73-.75-6.41-5.32-2.09-14.11-10.84-22.1-22.75-21.85-9.8,.21-17.05,6.24-20.51,17.26-.74,2.36-1.3,4.83-1.52,7.29-.25,2.75-1.54,2.93-3.63,2.08-1.54-5-1.88-10.14-1.15-15.26,.66-4.59,2.63-8.55,7.14-10.71,.57-.27,1.51-.69,1.52-1.08,.25-5.53,4.05-8.08,8.43-10.03C44.64,.16,50.32-.61,56.22,.49c17.07,3.17,25.83,16.95,22.7,35.81-.22,1.31-.56,2.59-.84,3.89Z"/><path class="f" d="M30.75,62.21c2.04,4.45,5.76,7.48,9.08,10.86-.33,1.62-.65,3.23-.98,4.85-.73,8.34-5.76,12.05-13.66,12.77-1.77,.16-3.51,.74-5.27,1.13,.06-.3,0-.57-.18-.82,2.49-3.34,3.13-7.18,3.51-11.24,.45-4.79,1.43-9.53,2.18-14.3l-.06,.03c.22-.87,.44-1.74,.65-2.61,1.57-.22,3.15-.44,4.72-.66Z"/><path class="d" d="M30.75,62.21c-1.57,.22-3.15,.44-4.72,.66-3.02-1.37-2.06-3.53-1.15-5.69,.66-.91,1-3.18,2.59-.96,1.31,1.84,2.2,3.98,3.28,5.99Z"/><path class="d" d="M70.19,61.87c.4-1.74,.59-3.57,1.26-5.2,.92-2.23,1.6,.26,2.43,.32,1.53,3.72,1.07,5.93-3.7,4.88Z"/><path class="d" d="M25.37,65.48l.06-.03-.06,.03Z"/><path class="e" d="M38.85,77.91c.33-1.62,.65-3.23,.98-4.85,6.21,2.06,12.52,2.42,19.24,.18-2.32,5.46-12.48,7.45-20.22,4.67Z"/><path class="f" d="M61.03,35.4c-.26,1.3,.14,3.23-1.87,3.34-1.41,.08-1.59-1.4-1.48-2.55,.13-1.36-.14-3.23,1.82-3.38,1.55-.11,1.43,1.41,1.53,2.58Z"/><path class="f" d="M41.72,35.14c-.26,1.3,.14,3.23-1.87,3.34-1.41,.08-1.59-1.4-1.48-2.55,.13-1.36-.14-3.23,1.82-3.38,1.55-.11,1.43,1.41,1.53,2.58Z"/></g></g></g></svg>