<?xml version="1.0" encoding="UTF-8"?><svg xmlns="http://www.w3.org/2000/svg" viewBox="0 0 99.09 123.54"><defs><style>.d{fill:#8d3f3f;}.e{fill:#994346;}.f{fill:#3d2744;}</style></defs><g id="a"/><g id="b"><g id="c"><g><path class="f" d="M0,104.47c1.07-5.61,5.08-8.23,10.06-9.83,5.85-1.88,11.74-3.57,17.81-4.57,4,2.53,4.91,7.57,8.48,10.44,3.75,7.5,8.94,14.27,11.66,22.98-13.35-.21-25.43-3.57-36.61-9.99-4.19-2.41-8.99-4.27-11.4-9.03Z"/><path class="f" d="M72.22,90.31c5.28,1.36,10.61,2.58,15.84,4.11,5.24,1.53,9.83,3.99,11.03,10.05-.66,.94-1.13,2.12-2,2.79-13.31,10.26-28.37,15.61-45.69,16.29,2.51-6.76,5.93-12.59,9-18.59,.87-1.7,2.47-3.23,1.53-5.45,2.04-1.37,3.85-2.79,4.72-5.37,.8-2.37,2.62-4.14,5.57-3.82Z"/><path class="e" d="M72.22,90.31c-2.95-.32-4.76,1.45-5.57,3.82-.88,2.59-2.68,4-4.72,5.37-8.45,2.22-17.03,1.44-25.59,1.01-3.57-2.88-4.48-7.91-8.48-10.44,7.03-.75,9.77-5.52,11-11.72,7.01,.69,13.9-.07,20.69-1.85,.08,.14,.22,.28,.25,.43,1.14,7.24,4.2,12.7,12.41,13.38Z"/><path class="e" d="M39.56,72.48c-3.98-3.53-7.69-7.28-9.59-12.41-.67-1.82-2.28-2.12-3.78-2.83-4.57-2.16-7.81-8.33-6.82-12.71,.46-2.02,1.37-3.75,3.72-4.1,1.74-.03,3.19-.26,3.53-2.5,.34-2.27,1.15-4.47,1.59-6.74,2.48-12.55,13.97-19.72,23.42-18.46,10.4,1.38,19.82,11.76,20.37,22.45,.24,4.6,1.71,5.89,5.83,5.16,3.98,6.17,1.8,14.05-4.86,16.99-1.69,.75-3.3,1.17-4.09,3.18-1.94,4.92-5.4,8.71-9.53,11.92-6.59,3.19-13.2,2.46-19.8,.05Zm.65-31.81c-.07-1.01-.21-2.09-1.53-1.96-1.24,.13-1.29,1.27-1.31,2.24-.02,.99,.07,2.17,1.31,2.19,1.61,.03,1.47-1.36,1.53-2.48Z"/><path class="f" d="M77.84,40.34c-4.12,.72-5.59-.56-5.83-5.16-.55-10.69-9.97-21.07-20.37-22.45-9.45-1.26-20.94,5.91-23.42,18.46-.45,2.26-1.25,4.46-1.59,6.74-.34,2.24-1.79,2.48-3.53,2.5-.51-3.77-1.32-7.53-1.46-11.31-.24-6.42,1.71-12.08,7.2-15.9-1.45-2.12-3.58-2.19-5.65-3.04,1.52-1.41,3.13-.61,4.85-.79,.73-2.16-.71-4.77,1.3-7.5,.39,2.71,.7,4.89,1.1,7.7C36.86,1.05,45.53-.66,54.95,.2c14.41,1.32,24.44,12.86,24.52,27.84,.02,4.17-.33,8.3-1.63,12.3Z"/><path class="d" d="M39.56,72.48c6.61,2.42,13.21,3.15,19.8-.05,0,.51,0,1.01,0,1.52,0,.69,0,1.37,0,2.05,.23,.1,.3,.27,.2,.5-6.79,1.78-13.68,2.53-20.69,1.85,.23-1.96,.46-3.91,.69-5.87Z"/><path class="e" d="M59.37,76c0-.68,0-1.37,0-2.05,.4,.68,.48,1.37,0,2.05Z"/><path class="f" d="M40.21,40.67c-.06,1.12,.07,2.51-1.53,2.47-1.24-.03-1.33-1.2-1.31-2.19,.02-.97,.07-2.11,1.31-2.24,1.32-.14,1.47,.95,1.53,1.96Z"/><path class="f" d="M60.12,40.67c-.06,1.12,.07,2.51-1.53,2.47-1.24-.03-1.33-1.2-1.31-2.19,.02-.97,.07-2.11,1.31-2.24,1.32-.14,1.47,.95,1.53,1.96Z"/></g></g></g></svg>