<?xml version="1.0" encoding="UTF-8"?><svg xmlns="http://www.w3.org/2000/svg" viewBox="0 0 102.22 119.47"><defs><style>.d{fill:#de8861;}.e{fill:#fce9de;}.f{fill:#3d2744;}.g{fill:#bac3df;}.h{fill:#f2a583;}</style></defs><g id="a"/><g id="b"><g id="c"><g><path class="e" d="M22,88.28c-.31-11.66,1.85-23.02,4.13-34.36,1.4,.29,3.34-.26,3.97,1.44,2.32,6.22,8.48,10.19,9.83,16.94-.03,.27-.04,.53-.04,.8-.57,5.13-4.53,9.66-2.65,15.21-.31,2.74,.56,5.84-1.4,8.1-3.38,3.88-4.01,8.31-3.96,13.21,.02,2.18-1.17,4.38-1.81,6.57-1.04-.01-2.08-.03-3.11-.04-.32-.32-.64-.63-.95-.95l.03,.04c-1.61-8.95-5.04-17.62-4.03-26.96Z"/><path class="e" d="M74.02,54.13c3.89,6.17,2.07,13.6,4.44,20.14,1.14,3.16,.88,6.54,.09,9.8-.36,1.48-.93,2.87,.36,4.17,1.2,5.59-1.55,10.74-1.82,16.13-.21,4.18-1.07,7.84-4,10.89-1.39-.89-1.74,1.48-3.01,.97-.44-3.74-.79-7.5-1.36-11.22-.53-3.46-1.78-6.64-4.67-8.9-.77-4.94,.91-10.03-.68-14.86-1.57-4.78-3.93-9.83-.48-14.2,3.18-4.04,5.68-8.47,8.74-12.53,.35-.46,1.57-.26,2.38-.36Z"/><path class="g" d="M64.05,96.09c2.9,2.26,4.14,5.44,4.67,8.9,.57,3.72,.92,7.48,1.36,11.22-1.44,2.77-4.41,2.3-6.6,2.5-9.99,.93-20.03,1.36-29.94-.87-1.2-.27-2.66-.4-3.47-1.66,.64-2.19,1.83-4.38,1.81-6.57-.05-4.9,.58-9.32,3.96-13.21,1.96-2.25,1.09-5.36,1.4-8.1,.76,4.38,2.81,8.24,4.84,12.11,3.57,6.81,10.55,7.76,16.24,2.65,2.33-2.09,2.94-5.4,5.73-6.98Z"/><path class="g" d="M73.09,115.25c2.93-3.05,3.79-6.72,4-10.89,.27-5.39,3.02-10.53,1.82-16.13,9.26-.1,17.69,1.72,23.31,10.05,0,1.59-.56,2.95-1.85,3.89-7.79,5.67-16.03,10.5-25.13,13.78-.86,.31-1.62,.1-2.15-.7Z"/><path class="g" d="M22,88.28c-1.01,9.34,2.42,18.01,4.03,26.96-9.64-1.92-17.41-7.35-24.8-13.41-.67-.55-.84-1.7-1.24-2.57,5.23-7.86,13.03-10.6,22-10.98Z"/><path class="g" d="M26,115.19c.32,.32,.64,.63,.95,.95-.32-.32-.64-.63-.95-.95Z"/><path class="h" d="M64.05,96.09c-2.79,1.58-3.4,4.89-5.73,6.98-5.7,5.11-12.68,4.16-16.24-2.65-2.03-3.87-4.08-7.73-4.84-12.11-1.88-5.55,2.08-10.09,2.66-15.21,.3,.97,.63,1.92,1.86,2.01,5.32,.36,10.53-.26,15.54-2.05,1.66-.59,3.51-1.47,2.33-3.94-3.82,1.32-10.15,1.75-15.51,.54-2.67-.6-3.72,.29-4.19,2.64-1.36-6.75-7.51-10.72-9.83-16.94-.63-1.7-2.56-1.15-3.97-1.44-2.36-3.1-5.66-5.62-6-9.94-.35-4.37,.7-7.67,5.91-7.84,1.29-.29,1.97-1.25,2.26-2.4,1.23-4.95,4.71-8.21,8.3-11.46,2.33-2.11,4.63-4.32,6.54-6.79,1.68-2.18,2.87-2.72,5.09-.67,2.84,2.62,6.43,4.53,10.15,4.94,7,.78,10.88,5.06,12.64,10.99,1.35,4.54,3.53,6.23,7.93,5.71,4.05,6.03,2.45,11.79-4.94,17.68-.82,.1-2.04-.1-2.38,.36-3.07,4.06-5.56,8.49-8.74,12.53-3.45,4.37-1.09,9.43,.48,14.2,1.58,4.83-.09,9.92,.68,14.86Z"/><path class="e" d="M78.96,36.46c-4.4,.52-6.58-1.17-7.93-5.71-1.76-5.92-5.64-10.21-12.64-10.99-3.72-.41-7.31-2.32-10.15-4.94-2.22-2.05-3.42-1.5-5.09,.67-1.91,2.48-4.21,4.69-6.54,6.79-3.6,3.25-7.07,6.51-8.3,11.46-.29,1.15-.97,2.11-2.26,2.4-4.63-5.72-5.2-11.84-2.31-18.58,1.69-3.95,3.31-7.8,6.52-10.83,2.23-2.11,4.81-4.29,7.69-4.16,7.38,.33,14.4-1.75,21.61-2.46,12.13-1.21,18.52,7.89,20.17,17.6,1.03,6.07,1.13,12.57-.77,18.75Z"/><path class="d" d="M39.93,72.3c.47-2.35,1.52-3.25,4.19-2.64,5.36,1.21,11.69,.78,15.51-.54,1.18,2.47-.67,3.35-2.33,3.94-5.01,1.79-10.23,2.41-15.54,2.05-1.23-.08-1.56-1.04-1.86-2.01,0-.27,0-.53,.04-.8Z"/><path class="f" d="M61.16,36.05c-.26,1.3,.14,3.23-1.87,3.34-1.41,.08-1.59-1.4-1.48-2.55,.13-1.36-.14-3.23,1.82-3.38,1.55-.11,1.43,1.41,1.53,2.58Z"/><path class="f" d="M41.84,35.8c-.26,1.3,.14,3.23-1.87,3.34-1.41,.08-1.59-1.4-1.48-2.55,.13-1.36-.14-3.23,1.82-3.38,1.55-.11,1.43,1.41,1.53,2.58Z"/></g></g></g></svg>