<?xml version="1.0" encoding="UTF-8"?><svg xmlns="http://www.w3.org/2000/svg" viewBox="0 0 118.35 138.87"><defs><style>.d{fill:#594a62;}.e{fill:#de8861;}.f{fill:#fce9de;}.g{fill:#3d2744;}.h{fill:#e16e2a;}.i{fill:#f2a583;}</style></defs><g id="a"/><g id="b"><g id="c"><g><path class="i" d="M42.3,92.92c-.06-1.93-.12-3.86-.18-5.8,1.18,.96,1.13,2.92,3.44,3.06,9.24,.58,18.1-.97,26.68-4.29,1.86-.72,2.24-2.2,1.34-4.01-10.69,5.21-18.19,6.68-30.43-.74-4.29-5.47-8.36-11.09-10.02-18-.39-1.64-1.57-1.87-2.71-2.5-5.27-2.9-7.77-7.32-7.39-13.42,.13-2.21,.78-4.07,2.83-4.78,1.82-.63,2.11-1.85,2.31-3.36,1.32,.9,.61,3.84,2.89,3.44,1.71-.3,1.26-2.52,1.65-3.84,1.86-6.28,4.94-11.97,8.06-17.66,1.25-2.29,2.9-3.4,5.66-2.88,8.07,1.55,16.17,1.5,24.25,0,2.81-.52,4.72,.24,6,3.02,2.98,6.49,6.76,12.6,8.9,19.49,.28,.92-.2,3.15,2.12,2.54,1.43-.37,2.16-1.36,2.33-2.88,.2-1.78-.35-3.7,.92-5.3,.33,4.02,.05,7.82,3.37,11.42,3.06,3.32-.75,11.61-6.26,14.54-2.94,1.57-4.44,3.54-5.18,6.72-.51,2.19-1.59,4.53-3.12,6.13-4.08,4.3-5.55,9.17-4.63,14.93,.24,1.52-.06,2.98-1.13,4.19-4.66,.63-8.89,2.53-12.95,4.71-2.02,1.09-3.41,1.03-5.33-.26-4-2.69-8.48-4.32-13.39-4.51Zm21.67-24.69c1.99,.19,4.64,2.22,5.76-.41,1.26-2.96-1.91-3.74-3.89-4.73-5.03-2.51-10.2-2.69-15.41-.51-2.15,.9-5.02,2.12-4.57,4.49,.4,2.1,3.5,.51,5.3,1.1,5.42,3.88,8.43,3.89,12.81,.05Zm6.54-24.9c-.1-1.17,.02-2.7-1.53-2.58-1.97,.14-1.7,2.01-1.82,3.38-.11,1.15,.07,2.63,1.48,2.55,2.01-.11,1.61-2.04,1.87-3.34Z"/><path class="g" d="M.75,110.39c8.77-3.03,17.55-6.05,26.32-9.08-1.24,5.8-2.43,11.62-3.74,17.41-.54,2.4,.41,3.25,2.69,3.61,3.81,.61,7.57,1.51,11.53,2.32-1.32,3.68-5.09,5.9-4.55,10.02-13.01-4-23.41-11.87-32.39-21.85-.89-.98-.81-1.67,.13-2.43Z"/><path class="g" d="M93.04,102.12c8.44,2.99,16.87,5.98,25.31,8.96-1.78,4.75-5.94,7.4-9.52,10.45-6.99,5.95-14.74,10.68-23.66,13.25,.5-3.91-2.98-6.56-3.38-10.61,3.24,.01,6.34-.76,9.37-.88,4.02-.16,4.41-2.25,3.83-5.15-.74-3.72-2.14-7.35-2.56-11.09-.16-1.44-2.43-3.72,.61-4.94Z"/><path class="d" d="M93.04,102.12c-3.04,1.22-.78,3.5-.61,4.94,.43,3.74,1.83,7.37,2.56,11.09,.57,2.9,.19,4.99-3.83,5.15-3.03,.12-6.13,.89-9.37,.88,.4,4.05,3.88,6.7,3.38,10.61-5.28,2.5-10.91,3.44-17.16,4.07,5.9-13.05,11.62-25.7,17.34-38.34,2.9-1.08,5.16,.91,7.69,1.6Z"/><path class="d" d="M33.01,134.67c-.54-4.11,3.23-6.33,4.55-10.02-3.96-.81-7.73-1.71-11.53-2.32-2.27-.37-3.23-1.21-2.69-3.61,1.31-5.79,2.5-11.6,3.74-17.41,1.79-.63,3.58-1.27,5.36-1.9,5.94,12.93,11.87,25.86,18.11,39.45-6.51-.59-12.2-1.61-17.55-4.19Z"/><path class="h" d="M90.94,35.05c-1.27,1.6-.72,3.52-.92,5.3-.17,1.52-.9,2.51-2.33,2.88-2.32,.61-1.84-1.62-2.12-2.54-2.14-6.89-5.92-13-8.9-19.49-1.28-2.78-3.19-3.54-6-3.02-8.08,1.49-16.18,1.54-24.25,0-2.76-.53-4.41,.59-5.66,2.88-3.11,5.69-6.19,11.38-8.06,17.66-.39,1.32,.06,3.54-1.65,3.84-2.28,.4-1.57-2.55-2.89-3.44C23.62,21.46,34.28-2.94,60.04,.29c6.11,.77,12.2,1.65,17.87,4.33,7.89,3.72,11.61,10.13,12.12,18.6,.24,3.95-.36,7.96,.91,11.83Z"/><path class="e" d="M43.14,81.15c12.24,7.42,19.75,5.95,30.43,.74,.9,1.8,.52,3.28-1.34,4.01-8.58,3.32-17.43,4.86-26.68,4.29-2.3-.14-2.26-2.11-3.44-3.06-.5-2.13,1.08-3.91,1.02-5.97Z"/><path class="h" d="M51.16,68.17c-1.8-.6-4.91,1-5.3-1.1-.45-2.37,2.42-3.59,4.57-4.49,5.2-2.18,10.37-2,15.41,.51,1.98,.99,5.15,1.77,3.89,4.73-1.12,2.63-3.77,.6-5.76,.41-4.26-2.19-8.53-2.34-12.81-.05Z"/><path class="f" d="M51.16,68.17c4.28-2.29,8.55-2.14,12.81,.05-4.37,3.84-7.38,3.83-12.81-.05Z"/><path class="g" d="M70.51,43.32c-.26,1.3,.14,3.23-1.87,3.34-1.41,.08-1.59-1.4-1.48-2.55,.13-1.36-.14-3.23,1.82-3.38,1.55-.11,1.43,1.41,1.53,2.58Z"/><path class="g" d="M51.19,43.07c-.26,1.3,.14,3.23-1.87,3.34-1.41,.08-1.59-1.4-1.48-2.55,.13-1.36-.14-3.23,1.82-3.38,1.55-.11,1.43,1.41,1.53,2.58Z"/></g></g></g></svg>