<?xml version="1.0" encoding="UTF-8"?><svg xmlns="http://www.w3.org/2000/svg" viewBox="0 0 110.44 123.68"><defs><style>.d{fill:#348dba;}.e{fill:#8d3f3f;}.f{fill:#994346;}.g{fill:#3d2744;}</style></defs><g id="a"/><g id="b"><g id="c"><g><path class="g" d="M0,98.47c1.61-7.28,5.63-12.81,11.45-17.5,8.34-6.72,11.98-15.14,10.05-26.42-1.88-10.96-.18-22.13,5.15-32.03,3.7-6.87,9.71-12.75,15.49-17.46,12.62-10.29,34.37-4.05,40.58,11.04,3.69,8.97,7.9,18,8.89,27.92,.16,1.66,.51,3.31,.5,4.96-.07,12.11,3.27,22.87,11.57,32.04,4.63,5.11,6.05,11.73,6.77,18.46-.52,3.38-3.44,4.66-5.71,6.5,.22-.12,.3-.3,.23-.54-.64-5.27-4-8.11-8.7-9.76-7.48-2.63-15.14-4.66-22.91-6.12-2.24-.42-3.71-1.08-4.46-3.18-1.16-3.25-2.97-6.3-3.13-9.87,.02-1.34,.04-2.69,.06-4.03,2.96-2.88,6.23-5.46,8.1-9.31,2.31-4.74,2.93-5.22,7.19-6.49,.29-.09,.54-.39,.76-.63,1.87-2.12,3.86-4.18,4.06-7.21,.26-3.97,.66-8.09-5.43-7.53-1.29,.12-2.52-.21-2.44-1.74,.13-2.52-1.47-4.4-2.32-6.49-2.36-5.83-5.61-10.49-13.15-10.77-6.04-.22-12.3-.86-17.84-3.9-1.79-.99-2.73-.03-3.84,1.04-4.06,3.96-6.19,8.79-7.18,14.35-.59,3.31-.26,7.74-5.7,7.68-.83,0-1.52,.47-1.94,1.32-1.79,3.58,1,13.11,4.78,14.08,3.14,.81,4.14,2.72,5.46,5.07,2.36,4.2,5.5,7.8,9.52,10.55,.42,2.42-.33,4.68-.91,6.97-1.52,1.32-.94,3.43-1.94,5.01-1.11,1.76-1.31,4.15-3.91,4.75-5.95,1.37-11.95,2.58-17.8,4.32-6.4,1.9-13.7,3.02-14.78,11.76l-.16,.25c-2.69-1.85-5.75-3.37-6.35-7.09Z"/><path class="d" d="M6.35,105.57l.16-.25c2.9-.26,5.37,1.9,8.01,1.89,8.98-.04,17.71,2.44,26.7,2.17,8.75-.27,17.45-.56,26.21-1.41,12.45-1.21,25.11-.03,37.52-2.51,.07,.24,0,.42-.23,.54-28.34,24.64-73.33,22.64-98.38-.43Z"/><path class="f" d="M45.85,72.51c-4.02-2.75-7.16-6.35-9.52-10.55-1.32-2.35-2.32-4.26-5.46-5.07-3.78-.98-6.58-10.5-4.78-14.08,.43-.85,1.11-1.32,1.94-1.32,5.44,.06,5.11-4.37,5.7-7.68,.99-5.56,3.12-10.4,7.18-14.35,1.1-1.07,2.04-2.03,3.84-1.04,5.54,3.04,11.8,3.68,17.84,3.9,7.54,.28,10.79,4.94,13.15,10.77,.84,2.08,2.45,3.97,2.32,6.49-.08,1.53,1.15,1.86,2.44,1.74,6.09-.56,5.69,3.56,5.43,7.53-.2,3.03-2.19,5.1-4.06,7.21-.22,.25-.47,.55-.76,.63-4.26,1.27-4.88,1.75-7.19,6.49-1.87,3.85-5.14,6.43-8.1,9.31-6.65,2.96-13.31,4.92-19.97,.02Z"/><path class="f" d="M104.96,105.45c-12.41,2.48-25.07,1.3-37.52,2.51-8.75,.85-17.46,1.15-26.21,1.41-9,.27-17.72-2.21-26.7-2.17-2.65,.01-5.11-2.14-8.01-1.89,1.07-8.74,8.37-9.85,14.77-11.76,5.84-1.74,11.85-2.95,17.8-4.32,2.6-.6,2.8-2.99,3.91-4.75,.99-1.57,.41-3.69,1.94-5.01,7.15,.5,14.07-.65,20.82-2.96,.16,3.57,1.97,6.61,3.13,9.87,.75,2.1,2.22,2.76,4.46,3.18,7.77,1.47,15.43,3.49,22.91,6.12,4.7,1.65,8.07,4.49,8.7,9.76Z"/><path class="e" d="M65.76,76.51c-6.75,2.31-13.67,3.46-20.82,2.96,.59-2.29,1.33-4.55,.91-6.97,6.66,4.9,13.32,2.93,19.97-.02-.02,1.34-.04,2.69-.06,4.03Z"/><path class="g" d="M65.91,39.1c-.26,1.3,.14,3.23-1.87,3.34-1.41,.08-1.59-1.4-1.48-2.55,.13-1.36-.14-3.23,1.82-3.38,1.55-.11,1.43,1.41,1.53,2.58Z"/><path class="g" d="M46.59,38.85c-.26,1.3,.14,3.23-1.87,3.34-1.41,.08-1.59-1.4-1.48-2.55,.13-1.36-.14-3.23,1.82-3.38,1.55-.11,1.43,1.41,1.53,2.58Z"/></g></g></g></svg>