<?xml version="1.0" encoding="UTF-8"?><svg xmlns="http://www.w3.org/2000/svg" viewBox="0 0 121.61 128.21"><defs><style>.d{fill:#f70c67;}.e{fill:#de8861;}.f{fill:#fce9de;}.g{fill:#3d2744;}.h{fill:#f2a583;}</style></defs><g id="a"/><g id="b"><g id="c"><g><path class="h" d="M48.15,79.16c-.35-3.55-3.56-5.05-5.46-7.47-3.24-4.14-5.26-8.86-10.64-11.76-6.07-3.28-5.17-12.36,.38-14.86,1.46-.11,2.8,0,3.02-2.23,.28-2.79,1.02-5.57,1.82-8.27,4.99-16.78,23.95-22.5,35.77-10.81,4.44,4.39,6.85,10.03,7.45,16,.46,4.6,2.32,5.82,6.35,5.34,4.91,7.46,.75,14.1-5.37,17.15-2.34,1.17-3.94,2.89-5.02,5.25-.96,2.11-2.19,4.04-3.84,5.74-4.51,4.62-4.78,13.61-.51,18.41,2.38,2.68,6.21,1.83,9.1,3.34-.69,.53-1.19,1.22-.97,2.11,1.2,4.94,1.97,10.05,3.83,14.73,1.4,3.54-.27,8.2,3.81,10.73-19.66,7.9-39.27,7.37-58.85-.31,.14-.13,.27-.26,.4-.4,1.63,.13,1.91-1.23,2.17-2.25,1.89-7.54,3.66-15.11,5.51-22.66,.26-1.06-.24-1.51-1.1-1.83,8.67-.62,10.79-6.88,11.99-13.94,.19,1.18,.55,2.76,1.79,2.68,5.73-.38,11.54-.42,17.06-2.28,1.21-.41,1.46-1.93,.95-3.04-.59-1.26-1.79-.42-2.61-.16-4.25,1.31-8.49,1.32-12.74,.12-1.57-.44-2.95-.1-4.28,.71Zm10.17-11.96c1.87-.09,4.36-1.7,4.08-3.89-.3-2.37-2.84-.51-4.41-.34-.33,.03-.68,0-.98,.11-1.24,.41-3.6-.83-3.53,1.36,.06,1.93,2.06,2.79,4.85,2.76Z"/><path class="h" d="M8.99,109.2c1.27-6.56,6.47-8.66,11.93-10.4,4.68-1.49,9.39-2.93,14.32-3.38-.41,1.76-.89,3.5-1.22,5.28-1.32,7.08-4.17,13.83-4.62,21.11-.13,.14-.26,.27-.4,.4-6.89-2.64-12.85-6.87-18.78-11.13-.36-.36-.72-.71-1.07-1.07,0-.28-.05-.55-.16-.81Z"/><path class="h" d="M82.91,95.64c5.75,1.32,11.47,2.67,17,4.84,5.09,2,7.87,5.12,7.26,10.75-.36,.38-.72,.75-1.09,1.13-.34,.27-.69,.55-1.03,.83-5.09,3.04-9.64,7.1-15.7,8.31-2.15-8.62-4.3-17.24-6.45-25.86Z"/><path class="e" d="M82.91,95.64c2.15,8.62,4.3,17.24,6.45,25.86-.26,.68-.74,1.06-1.5,1.03-4.08-2.53-2.4-7.18-3.81-10.73-1.85-4.68-2.63-9.79-3.83-14.73-.22-.89,.28-1.58,.97-2.11,.57,.23,1.14,.45,1.72,.68Z"/><path class="f" d="M105.05,113.19c.34-.28,.69-.55,1.03-.83-.34,.28-.69,.55-1.03,.83Z"/><path class="f" d="M9.15,110.01c.36,.36,.71,.72,1.07,1.07-.36-.36-.72-.72-1.07-1.07Z"/><path class="g" d="M80.53,8.98C82.66,1.6,89.47-.61,96.74,.14c5.9,.61,10.85,6.18,10.92,13.02,.08,7.97,3.19,14.26,7.74,20.48,8.2,11.23,8.19,27.04,.56,38.45-1.58,2.35-3.34,4.6-5.84,6.06-4.24,2.49-7.99,.91-9.07-3.89-1.15-5.11-.64-10.3,.18-15.37,1.68-10.44,1.67-20.5-4.33-29.85-2.01-3.14-2.35-6.86-2.33-10.58,0-1.98-.14-3.99-.54-5.92-.53-2.54-2.32-4.08-4.87-4.32-2.56-.24-3.23,1.88-3.96,3.76-1.55-1-3.11-2-4.66-3Z"/><path class="g" d="M36.39,11.8c-.74-1.89-1.42-3.94-4.06-3.57-2.59,.37-4.89,2.25-4.69,4.5,.9,10.2-4.53,18.48-7.46,27.55-2.04,6.32-.49,12.91,.4,19.32,.53,3.83,.63,7.63,.5,11.45-.11,3.21-.5,6.61-4.09,7.86-3.71,1.29-6.37-1.01-8.69-3.52C-.84,65.53-2.97,47.95,4.63,36.3c5.19-7.95,9.82-15.56,9.8-25.51-.01-4.71,5.37-9.81,9.03-10.33,9.71-1.38,13.69,.41,17.6,7.93-1.74,.89-3.57,1.65-4.66,3.41Z"/><path class="g" d="M86.84,45.08c-4.03,.48-5.89-.74-6.35-5.34-.6-5.97-3-11.6-7.45-16-11.83-11.69-30.79-5.97-35.77,10.81-.8,2.7-1.54,5.48-1.82,8.27-.22,2.23-1.56,2.12-3.02,2.23-3.67-10.13-2.44-19.57,3.95-28.28,2.28-2.29,5.87-3.29,6.82-6.89,11.82-6.43,23.46-7.12,34.81,1.08,2.54,2.39,3.49,6.14,6.74,7.93,4.76,8.4,3.98,17.25,2.09,26.18Z"/><path class="e" d="M48.15,79.16c1.33-.82,2.7-1.16,4.28-.71,4.25,1.2,8.49,1.19,12.74-.12,.82-.25,2.02-1.09,2.61,.16,.52,1.1,.26,2.63-.95,3.04-5.52,1.87-11.33,1.91-17.06,2.28-1.25,.08-1.6-1.5-1.79-2.68,.06-.66,.12-1.31,.18-1.97Z"/><path class="d" d="M29.4,121.81c.45-7.27,3.3-14.02,4.62-21.11,.33-1.77,.81-3.52,1.22-5.28,.25-.1,.5-.22,.74-.36,.85,.32,1.36,.76,1.1,1.83-1.85,7.55-3.62,15.12-5.51,22.66-.26,1.02-.54,2.39-2.17,2.25Z"/><path class="d" d="M84.75,18.9c-3.26-1.79-4.2-5.55-6.74-7.93,.86-.64,1.25-1.88,2.53-1.98,1.55,1,3.11,2,4.66,3,.12,2.32,.73,4.68-.44,6.91Z"/><path class="d" d="M43.2,9.88c-.95,3.61-4.54,4.61-6.82,6.89-1.41-1.66-.14-3.33,0-4.98,1.09-1.76,2.93-2.51,4.67-3.41,1.17-.14,1.7,.61,2.15,1.49Z"/><path class="f" d="M58.32,67.21c-2.79,.02-4.79-.84-4.85-2.76-.07-2.19,2.29-.95,3.53-1.36,.31-.1,.65-.07,.98-.11,1.57-.17,4.11-2.03,4.41,.34,.28,2.19-2.2,3.8-4.08,3.89Z"/><path class="g" d="M69.5,41.75c-.26,1.3,.14,3.23-1.87,3.34-1.41,.08-1.59-1.4-1.48-2.55,.13-1.36-.14-3.23,1.82-3.38,1.55-.11,1.43,1.41,1.53,2.58Z"/><path class="g" d="M50.18,41.5c-.26,1.3,.14,3.23-1.87,3.34-1.41,.08-1.59-1.4-1.48-2.55,.13-1.36-.14-3.23,1.82-3.38,1.55-.11,1.43,1.41,1.53,2.58Z"/></g></g></g></svg>