<?xml version="1.0" encoding="UTF-8"?><svg xmlns="http://www.w3.org/2000/svg" viewBox="0 0 99.12 134.83"><defs><style>.d{fill:#de8861;}.e{fill:#dadde9;}.f{fill:#3d2744;}.g{fill:#bac3df;}.h{fill:#f2a583;}</style></defs><g id="a"/><g id="b"><g id="c"><g><path class="e" d="M8.97,107.07c4.77-1.75,9.53-3.52,14.31-5.25,.9-.33,1.91-.85,2.77-.71,6.7,1.11,9.71-3.08,12.15-8.2,3.76,.82,6.11,3.66,8.53,6.25,1.9,2.04,3.1,2.08,5.14,.02,2.57-2.59,5.13-5.47,9.06-6.19,.56,.29,1.54,.5,1.62,.89,1.54,7.7,7.98,7.8,13.76,9.2,5.02,1.22,10.71,.61,14.69,4.95,.31,3.17-.85,6.09-1.52,9.1-.46,2.05-1.18,4.13,.58,5.98-11.37,7.51-24.16,11.2-37.49,11.66-14.89,.52-29.22-2.98-42.29-10.61-.23-.13-.27-.59-.4-.89,1.84-1.79,1.18-4.03,.92-6.07-.44-3.4-1.21-6.76-1.84-10.13Z"/><path class="g" d="M8.97,107.07c.63,3.38,1.4,6.73,1.84,10.13,.27,2.04,.92,4.28-.92,6.07-3.85-1.65-7.47-3.61-9.9-7.21,1-4.98,4.16-7.81,8.97-8.99Z"/><path class="g" d="M90.06,123.12c-1.75-1.84-1.03-3.93-.58-5.98,.67-3.01,1.83-5.93,1.52-9.1,5.62-.27,7.14,3.61,8.11,8.04-2.18,3.42-5.59,5.27-9.06,7.04Z"/><path class="f" d="M20,54.11c-4.09-1.06-5.09-4.59-5.94-7.94-1.93-7.69-1.87-15.43-.16-23.22C17.46,6.76,38.52-4.51,55.75,6.24c1.54-1.94-.11-4.14,.54-6.23,2.91-.26,.13,6.54,4.89,3.76,.26,2.17-2.32,2.43-2.31,4.83,9.17,2.55,17.08,7.45,20.84,17,3.58,9.1,4.65,18.35,.3,27.59-3.6,5.57-7.67,10.68-13.72,13.97-.67-1.21-.26-2.15-.03-3.09,1.2-4.83,2.73-9.63,2.49-14.66-.19-3.9-1-7.71-5.29-9.34-6.08-2.32-11.16-6.2-14.99-11.23-3.46-4.53-6.54-4.01-10.42-1.17-2.04,1.49-3.87,3.16-5.3,5.22-2.99,4.3-5.09,8.32-2.06,14.02,2.83,5.31,2.42,11.45,.05,17.65-3.24-9.61-3.98-10.31-10.72-10.45Z"/><path class="h" d="M20,54.11c6.75,.14,7.49,.83,10.72,10.45,2.37-6.2,2.78-12.34-.05-17.65-3.03-5.7-.93-9.72,2.06-14.02,1.43-2.06,3.27-3.73,5.3-5.22,3.88-2.84,6.96-3.36,10.42,1.17,3.83,5.03,8.91,8.91,14.99,11.23,4.29,1.64,5.11,5.44,5.29,9.34,.24,5.03-1.28,9.84-2.49,14.66-.23,.94-.65,1.88,.03,3.09,6.05-3.29,10.12-8.4,13.72-13.97,.55,7.45-.47,13.97-9.16,16.29-.72,.19-1.29,1.46-1.66,2.34-2.08,4.98-5.16,9.16-9.53,12.36-5.58,1.54-11.22,3-16.93,.81-3.46-1.33-2.26,2.28-3.65,3.07,.29-3.16-.43-5.72-3.42-7.52-1.33-.8-2.39-2.33-3.12-3.76-1.95-3.82-4.11-7-8.19-9.27-4.64-2.59-5.91-8.35-4.36-13.39Z"/><path class="h" d="M60.93,92.99c-3.93,.72-6.49,3.6-9.06,6.19-2.04,2.06-3.24,2.02-5.14-.02-2.42-2.59-4.76-5.44-8.53-6.25,.27-.95,.54-1.91,.82-2.86,3.16,0,6.32,.07,9.48-.01,4.19-.12,8.23-.73,11.33-3.99,.37,2.32,.73,4.64,1.1,6.95Z"/><path class="d" d="M59.83,86.04c-3.1,3.26-7.15,3.88-11.33,3.99-3.16,.09-6.32,.02-9.48,.01,.02-.66,.04-1.33,.07-1.99,1.39-.79,.19-4.4,3.65-3.07,5.7,2.2,11.34,.73,16.93-.81,.06,.62,.12,1.24,.18,1.86Z"/><path class="f" d="M60.51,48.75c-.26,1.3,.14,3.23-1.87,3.34-1.41,.08-1.59-1.4-1.48-2.55,.13-1.36-.14-3.23,1.82-3.38,1.55-.11,1.43,1.41,1.53,2.58Z"/><path class="f" d="M41.19,48.49c-.26,1.3,.14,3.23-1.87,3.34-1.41,.08-1.59-1.4-1.48-2.55,.13-1.36-.14-3.23,1.82-3.38,1.55-.11,1.43,1.41,1.53,2.58Z"/></g></g></g></svg>