<?xml version="1.0" encoding="UTF-8"?><svg xmlns="http://www.w3.org/2000/svg" viewBox="0 0 99.79 126.42"><defs><style>.d{fill:#8d3f3f;}.e{fill:#de8861;}.f{fill:#3d2744;}.g{fill:#fefefd;}.h{fill:#f2a583;}</style></defs><g id="a"/><g id="b"><g id="c"><g><path class="f" d="M25.3,90.5c.74,.03,1.48,.07,2.22,.1-.13,5.65,0,11.27,1.89,16.7,1.48,4.25,3.5,8.15,8.37,8.96,4.89,.81,8.61-1.46,11.19-5.87,.96,1.15,1.7,2.26,2.64,3.15,4.71,4.46,9.7,4.55,13.75,.1,3.27-3.59,4.18-8.14,4.94-12.8,.55-3.37-.41-7.02,1.77-10.1,7.72,.65,14.9,3.19,21.97,6.17,4.41,1.86,4.51,6.24,5.74,9.94,.1,1.31-.63,2.12-1.59,2.88-27.32,21.75-68.07,22.71-96.51-.05-.94-.76-1.75-1.52-1.68-2.84,.8-7.9,6.22-11.06,13.07-12.87,3.5-.92,6.93-2.08,10.39-3.14,.61-.12,1.22-.24,1.84-.36Z"/><path class="h" d="M35.42,90.15c1.32-4.11,2.64-8.22,3.96-12.33,2.14,1.93,4.73,.78,7.11,1,3.84,.35,7.57-.19,11.03-2.01,1.05-.55,2.14-1.34,1.65-2.68-.51-1.39-1.82-.51-2.53-.25-5.66,2.08-11.03,.27-16.45-1.02-4.73-3.96-8.93-8.3-10.5-14.55-.27-1.08-.51-2.61-1.98-2.45-5.64,.61-6.32-3.49-7.67-7.4-1.45-4.21,.81-6.5,3.58-8.78,2.73,1.24,3.51,.4,3.85-2.61,1.68-14.8,10.58-24.14,22.55-24.11,11.21,.03,19.93,8.14,21.98,21.8,.69,4.56,2.22,6.04,6.3,5.94,4.41,6.86,2.45,12.73-5.17,15.04-1.78,.54-2.07,2.01-2.74,3.24-2.37,4.34-4.47,8.85-8.55,11.97-.8,.61-1.39,1.45-1.37,2.53,.1,5.84,.55,11.55,5.91,15.36-.67,2.56-1.2,5.16-2.03,7.66-2.17,6.49-7.06,10.19-13.55,10.45-5.78,.22-10.34-3.21-13.22-9.26-1.17-2.46-.8-5.22-2.18-7.53Z"/><path class="d" d="M78.31,40.7c-4.08,.1-5.62-1.38-6.3-5.94-2.05-13.66-10.77-21.77-21.98-21.8-11.97-.03-20.87,9.31-22.55,24.11-.34,3.01-1.13,3.85-3.85,2.61-.47-2.45-1.2-4.88-1.34-7.35-.3-5.31,.91-10.37-5.82-13.82-4.96-2.54-4.26-10.59-.19-14.5C20.22,.23,26.56,.47,30.37,5.04c1.78,2.13,2.55,1.88,4.57,.39,10.34-7.65,25.23-7.17,35.23,1.13,2.17,1.8,3.11,2.51,5.12-.34,2.76-3.92,8.11-4.63,12.1-2.39,4.26,2.39,6.2,7.82,4.67,13.07-1.39,4.76-4.49,7.1-9.71,6.49-2.6-.3-2.7,.35-2.47,2.51,.53,5.02-.23,9.95-1.56,14.8Z"/><path class="g" d="M35.42,90.15c1.38,2.31,1.01,5.07,2.18,7.53,2.87,6.05,7.43,9.49,13.22,9.26,6.49-.25,11.38-3.96,13.55-10.45,.83-2.5,1.36-5.1,2.03-7.66,2.25-.41,3.77,1.35,5.69,1.91-2.18,3.08-1.22,6.73-1.77,10.1-.76,4.65-1.67,9.21-4.94,12.8-4.06,4.45-9.04,4.36-13.75-.1-.94-.89-1.69-2-2.64-3.15-2.58,4.41-6.3,6.68-11.19,5.87-4.87-.81-6.89-4.71-8.37-8.96-1.9-5.44-2.02-11.05-1.89-16.7,1.31-.58,2.65-1.08,3.91-1.76,1.95-1.06,3.02-.72,3.06,1.65,0,.14,.07,.37,.17,.4,.75,.29,.72-.28,.77-.75Z"/><path class="e" d="M40.19,72.87c5.42,1.29,10.79,3.09,16.45,1.02,.71-.26,2.02-1.14,2.53,.25,.49,1.34-.6,2.12-1.65,2.68-3.46,1.82-7.19,2.36-11.03,2.01-2.38-.22-4.97,.94-7.11-1,.04-.33,.07-.67,.11-1,.8-.55,.92-1.31,.67-2.19l.04-1.77Z"/><path class="g" d="M25.3,90.5c-.61,.12-1.23,.24-1.84,.36,.44-.99,1.08-.99,1.84-.36Z"/><path class="h" d="M40.14,74.64c.26,.88,.13,1.63-.67,2.19,.22-.73,.44-1.46,.67-2.19Z"/><path class="f" d="M61.02,37.72c-.26,1.3,.14,3.23-1.87,3.34-1.41,.08-1.59-1.4-1.48-2.55,.13-1.36-.14-3.23,1.82-3.38,1.55-.11,1.43,1.41,1.53,2.58Z"/><path class="f" d="M41.7,37.47c-.26,1.3,.14,3.23-1.87,3.34-1.41,.08-1.59-1.4-1.48-2.55,.13-1.36-.14-3.23,1.82-3.38,1.55-.11,1.43,1.41,1.53,2.58Z"/></g></g></g></svg>