<?xml version="1.0" encoding="UTF-8"?><svg xmlns="http://www.w3.org/2000/svg" viewBox="0 0 99.13 147.4"><defs><style>.d{fill:#de8861;}.e{fill:#3d2744;}.f{fill:#976ca2;}.g{fill:#f2a583;}</style></defs><g id="a"/><g id="b"><g id="c"><g><path class="f" d="M10.16,119.09c3.42-1.53,6.9-2.84,10.74-2.77-.18,5.35,1.15,10.51,1.97,15.74,.37,2.35,1.29,3.03,3.5,3.02,15.78-.05,31.56-.03,47.34-.01,1.83,0,3.42-.23,3.35-2.56-.16-5.52,2.68-10.63,2.2-16.19,3.76,.7,7.64,1.06,10.68,3.78-1.14,5.53-2.04,11.09-1.97,16.76-15.35,9.58-32.12,12.13-49.76,9.69-9.4-1.3-18.54-3.7-26.38-9.48,.08-6.05-.84-12.01-1.67-17.97Z"/><path class="g" d="M10.16,119.09c.83,5.96,1.76,11.92,1.67,17.97-5.02-1.11-8.53-4.44-11.83-8.07,.94-5.81,4.38-9.05,10.16-9.9Z"/><path class="g" d="M87.98,136.85c-.08-5.67,.83-11.23,1.97-16.76,5.41-.09,7.55,3.61,9.19,7.91-2.16,4.91-6.76,6.75-11.16,8.85Z"/><path class="g" d="M77.78,64.83c3.74,4.98,3.2,11.67-2.39,14.98-4.27,2.53-6.65,6.14-9.4,9.78-1.98,2.63-4.26,5.03-6.4,7.54-6.73,1.76-13.47,2.19-20.21-.02-3.5-3.96-7.28-7.71-9.43-12.68-.77-1.78-2.43-2.58-4.05-3.51-2.95-1.69-5.12-4.03-6.22-7.43-1.4-4.32-.44-7.48,3.64-9.6,2.22,.62,3.3-.01,3.59-2.51,.33-2.78,1.2-5.49,1.81-8.24,.64-2.87,2.12-3.49,5.05-2.76,10,2.48,20.15,2.22,30.1-.09,4.43-1.03,6.12,.39,6.9,4.3,.22,1.14,.84,2.26,.79,3.38-.19,4.41,1.92,6.58,6.2,6.86Z"/><path class="e" d="M77.78,64.83c-4.28-.28-6.39-2.45-6.2-6.86,.05-1.11-.57-2.24-.79-3.38-.77-3.91-2.47-5.33-6.9-4.3-9.95,2.31-20.1,2.57-30.1,.09-2.93-.73-4.41-.11-5.05,2.76-.61,2.75-1.48,5.46-1.81,8.24-.29,2.5-1.38,3.13-3.59,2.51-4.13-16.48,.08-27.39,14.56-36.52,2.55-1.61,1.23-2.71,.76-4.33-3.37-11.55,1.83-20.01,12.16-22.55,7.15-1.76,13.53,1.38,16.18,8.2,2.22,5.7,3.17,11.57,.29,17.4-.58,1.18-.81,1.97,.46,2.91,12.59,9.33,13.42,22,10.04,35.83Z"/><path class="g" d="M79.27,116.31c.48,5.56-2.36,10.67-2.2,16.19,.07,2.33-1.52,2.57-3.35,2.56-15.78-.02-31.56-.04-47.34,.01-2.21,0-3.14-.67-3.5-3.02-.82-5.23-2.14-10.39-1.97-15.74,2.34-2.09,5.49-2.18,8.23-2.65,5.19-.89,7.78-3.71,8.83-8.55,.16-.76,.7-1.44,1.06-2.15,7.07,.8,13.87-1.15,20.76-2.1,.11,.31,.28,.62,.31,.94,.83,9.16,6.93,12.3,15.02,13.12,1.52,.15,2.93,.45,4.16,1.39Z"/><path class="d" d="M59.78,100.86c-6.89,.96-13.69,2.91-20.76,2.1,.04-.99,.08-1.99,.12-2.98,.12-.09,.36-.2,.35-.28-.04-.26-.16-.52-.25-.77,.05-.61,.1-1.22,.15-1.83,6.74,2.21,13.47,1.78,20.21,.02,.06,1.25,.12,2.49,.18,3.74Z"/><path class="g" d="M39.23,98.94c.09,.26,.21,.51,.25,.77,.01,.08-.22,.19-.35,.28,.03-.35,.07-.7,.1-1.05Z"/><path class="e" d="M60.77,63.94c-.26,1.3,.14,3.23-1.87,3.34-1.41,.08-1.59-1.4-1.48-2.55,.13-1.36-.14-3.23,1.82-3.38,1.55-.11,1.43,1.41,1.53,2.58Z"/><path class="e" d="M41.45,63.68c-.26,1.3,.14,3.23-1.87,3.34-1.41,.08-1.59-1.4-1.48-2.55,.13-1.36-.14-3.23,1.82-3.38,1.55-.11,1.43,1.41,1.53,2.58Z"/></g></g></g></svg>