<?xml version="1.0" encoding="UTF-8"?><svg xmlns="http://www.w3.org/2000/svg" viewBox="0 0 590.82 767.79"><g id="a"/><g id="b"><g id="c"><g><path d="M590.82,265.93c-2.34,2.87-1.71,6.51-2.45,9.78-12.07,53.14-37.5,98.01-80.62,132.33-20.99,16.71-42.74,32.27-65.33,46.7-12.24,7.82-23.45,16.92-34.16,26.74-24.42,22.38-36.48,50.2-37.54,83.1-.13,3.96,1.39,9.39-1.18,11.49-2.44,1.99-7.62,.72-11.59,.72-43.82,.02-87.64-.03-131.46,.09-3.69,0-5.03-.62-5.02-4.76,.09-26.16-.2-52.39,6.39-77.95,9.98-38.76,30.29-70.63,64.3-92.82,21.62-14.1,42.81-28.78,62.55-45.46,24.54-20.74,42.18-46.72,48.02-77.99,6.66-35.66,.25-69.53-28.06-95.79-12.23-11.35-27.4-17.39-43.3-21.58-33.22-8.75-65.71-6-97.1,7.58-15.76,6.82-27.95,18.54-38.06,32.25-15.69,21.29-25.93,44.78-27.74,71.52-.34,5.01-.35,10.01,.4,14.95,.52,3.41-.25,4.49-3.96,4.5-38.32,.18-76.63,.55-114.95,.92-16.66,.16-33.31,.43-49.96,.66v-39.99c1.33-.43,.94-1.59,.98-2.49,.73-14.31,2.11-28.54,3.89-42.76,5.7-45.43,23.01-85.13,55.09-118.53,29.73-30.95,63.18-55.93,103.61-70.9C193.51,7.17,224.79,3.11,256.43,1.04c1.5-.1,3.36,.83,4.49-1.04h66.98c.27,1.11,1.17,.93,1.97,.97,15.14,.78,30.15,2.57,45.13,4.89,48.03,7.43,91.63,24.83,130.09,55.17,46.11,36.37,74.85,82.52,83.05,141.04,.79,5.63,.45,11.47,2.68,16.87v46.99Z"/><path d="M285.91,767.79c-4.16-2.18-8.87-1.84-13.28-2.95-17.16-4.32-32.42-11.96-44.2-25.44-20.81-23.81-18.08-56.28,6.59-77.53,19-16.36,41.55-22.28,66.18-21.28,20.86,.85,39.92,7.02,55.85,20.84,29.63,25.72,27.71,65.2-4.05,88.31-13.76,10.01-29.18,15.58-46.1,17.11-.79,.07-1.7-.15-1.99,.95h-18.99Z"/></g></g></g></svg>