<?xml version="1.0" standalone="no"?>
<!DOCTYPE svg PUBLIC "-//W3C//DTD SVG 20010904//EN"
 "http://www.w3.org/TR/2001/REC-SVG-20010904/DTD/svg10.dtd">
<svg version="1.0" xmlns="http://www.w3.org/2000/svg"
 width="1200.000000pt" height="1200.000000pt" viewBox="0 0 1200.000000 1200.000000"
 preserveAspectRatio="xMidYMid meet">

<g transform="translate(0.000000,1200.000000) scale(0.100000,-0.100000)"
fill="#000000" stroke="none">
<path d="M5344 10540 c-211 -32 -402 -178 -489 -374 -57 -128 -55 -82 -55
-1626 l0 -1420 -1420 0 c-1544 0 -1498 2 -1626 -55 -161 -71 -293 -218 -352
-389 l-27 -81 0 -755 c0 -702 1 -760 18 -820 56 -199 213 -367 407 -438 l75
-27 1462 -3 1463 -2 2 -1458 c3 -1385 4 -1460 22 -1512 61 -182 181 -321 348
-402 119 -57 126 -58 919 -58 690 0 730 1 803 20 108 27 189 73 276 157 82 78
128 147 169 251 l26 67 3 1467 2 1468 1468 2 1467 3 67 26 c37 15 93 42 124
60 82 49 194 171 237 257 69 138 68 129 65 967 l-3 750 -26 72 c-70 191 -228
342 -429 409 -52 18 -127 19 -1512 22 l-1458 2 -2 1463 -3 1462 -27 75 c-70
192 -237 348 -433 406 -55 16 -123 18 -785 20 -399 1 -748 -1 -776 -6z"/>
</g>
</svg>
